<?xml version="1.0" standalone="no" ?>
<!DOCTYPE svg PUBLIC "-//W3C//DTD SVG 1.1//EN" "http://www.w3.org/Graphics/SVG/1.1/DTD/svg11.dtd">
<svg width="213px" height="54px" viewBox="0 0 213 54" style="background-color: #ffffff00" xmlns="http://www.w3.org/2000/svg" xmlns:xlink="http://www.w3.org/1999/xlink" version="1.1" >
<path stroke="transparent" fill="#000000" transform="matrix(0.05 0 0 0.05 -72 -109)" d="M 1996.63,2740.51 L 1990.61,2743.98 L 1984.6,2740.19 L 1984.6,2452.54 L 1996.63,2459.49 L 1996.63,2740.51 Z " />
<path stroke="transparent" fill="#000000" transform="matrix(0.05 0 0 0.05 -72 -109)" d="M 2240,2881.02 L 2240,2894.91 L 1990.89,2751.09 L 1990.61,2743.98 L 1996.63,2740.51 L 2240,2881.02 Z " />
<path stroke="transparent" fill="#000000" transform="matrix(0.05 0 0 0.05 -72 -109)" d="M 2483.37,2740.51 L 2495.4,2747.46 L 2240,2894.91 L 2240,2881.02 L 2483.37,2740.51 Z " />
<path stroke="transparent" fill="#000000" transform="matrix(0.05 0 0 0.05 -72 -109)" d="M 2483.37,2459.49 L 2489.39,2456.02 L 2495.4,2459.99 L 2495.4,2747.46 L 2483.37,2740.51 L 2483.37,2459.49 Z " />
<path stroke="transparent" fill="#000000" transform="matrix(0.05 0 0 0.05 -72 -109)" d="M 2240,2318.98 L 2240,2305.09 L 2488.96,2448.82 L 2489.39,2456.02 L 2483.37,2459.49 L 2240,2318.98 Z " />
<path stroke="transparent" fill="#000000" transform="matrix(0.05 0 0 0.05 -72 -109)" d="M 1996.63,2459.49 L 1984.6,2452.54 L 2240,2305.09 L 2240,2318.98 L 1996.63,2459.49 Z " />
<path stroke="transparent" fill="#000000" transform="matrix(0.05 0 0 0.05 -72 -109)" d="M 1747.24,2920.18 L 1741.22,2887.97 L 1716.33,2866.65 L 1984.6,2740.19 L 1990.61,2743.98 L 1990.89,2751.09 L 1747.24,2920.18 Z " />
<path stroke="transparent" fill="#000000" transform="matrix(0.05 0 0 0.05 -72 -109)" d="M 1488.83,2749.19 L 1494.84,2738.77 L 1716.33,2866.65 L 1741.22,2887.97 L 1735.21,2891.44 L 1488.83,2749.19 Z " />
<path stroke="transparent" fill="#000000" transform="matrix(0.05 0 0 0.05 -72 -109)" d="M 1747.24,3175.94 L 1735.21,3175.94 L 1735.21,2891.44 L 1741.22,2887.97 L 1747.24,2920.18 L 1747.24,3175.94 Z " />
<text x="0" y="0" stroke="transparent" fill="#000000" transform="matrix(0.05 0 0 0.05 61.4427 10.188)" style="font:normal normal normal 200px 'Helvetica'" >
OTf</text>
<path stroke="transparent" fill="#000000" transform="matrix(0.05 0 0 0.05 -72 -109)" d="M 2630.02,2340.18 L 2660.02,2392.14 L 2495.4,2459.99 L 2489.39,2456.02 L 2488.96,2448.82 L 2630.02,2340.18 Z " />
<path stroke="transparent" fill="#000000" transform="matrix(0.05 0 0 0.05 -72 -109)" d="M 3975.73,2566 L 3253.33,2566 L 3253.33,2554 L 3975.73,2554 Z " />
<path stroke="transparent" fill="#000000" transform="matrix(0.05 0 0 0.05 -72 -109)" d="M 4080,2560 C 4080,2560 3959.69,2591.08 3959.69,2591.08 C 3959.69,2591.08 3974.73,2573.6 3974.73,2560 C 3974.73,2545.97 3959.69,2527.92 3959.69,2527.92 C 3959.69,2527.92 4080,2560 4080,2560 C 4080,2560 4080,2560 4080,2560 " />
<path stroke="#000000" stroke-width="1" fill="transparent" transform="matrix(0.05 0 0 0.05 -72 -109)" d="M 4080,2560 C 4080,2560 3959.69,2591.08 3959.69,2591.08 C 3959.69,2591.08 3974.73,2573.6 3974.73,2560 C 3974.73,2545.97 3959.69,2527.92 3959.69,2527.92 C 3959.69,2527.92 4080,2560 4080,2560 C 4080,2560 4080,2560 4080,2560 " />
<text x="0" y="0" stroke="transparent" fill="#000000" transform="matrix(0.05 0 0 0.05 99.7337 15.6667)" style="font:normal normal normal 200px 'Helvetica'" >
KCN</text>
<text x="0" y="0" stroke="transparent" fill="#000000" transform="matrix(0.05 0 0 0.05 96 29.6667)" style="font:normal normal normal 200px 'Helvetica'" >
DMSO</text>
<path stroke="transparent" fill="#000000" transform="matrix(0.05 0 0 0.05 -72 -109)" d="M 4703.29,2780.51 L 4697.28,2783.98 L 4691.26,2780.19 L 4691.26,2492.54 L 4703.29,2499.49 L 4703.29,2780.51 Z " />
<path stroke="transparent" fill="#000000" transform="matrix(0.05 0 0 0.05 -72 -109)" d="M 4946.67,2921.02 L 4946.67,2934.91 L 4697.55,2791.09 L 4697.28,2783.98 L 4703.29,2780.51 L 4946.67,2921.02 Z " />
<path stroke="transparent" fill="#000000" transform="matrix(0.05 0 0 0.05 -72 -109)" d="M 5190.04,2780.51 L 5202.07,2787.46 L 4946.67,2934.91 L 4946.67,2921.02 L 5190.04,2780.51 Z " />
<path stroke="transparent" fill="#000000" transform="matrix(0.05 0 0 0.05 -72 -109)" d="M 5190.04,2499.49 L 5202.07,2492.54 L 5202.07,2787.46 L 5190.04,2780.51 L 5190.04,2499.49 Z " />
<path stroke="transparent" fill="#000000" transform="matrix(0.05 0 0 0.05 -72 -109)" d="M 4946.67,2358.98 L 4946.67,2345.09 L 5202.07,2492.54 L 5190.04,2499.49 L 4946.67,2358.98 Z " />
<path stroke="transparent" fill="#000000" transform="matrix(0.05 0 0 0.05 -72 -109)" d="M 4703.29,2499.49 L 4691.26,2492.54 L 4946.67,2345.09 L 4946.67,2358.98 L 4703.29,2499.49 Z " />
<path stroke="transparent" fill="#000000" transform="matrix(0.05 0 0 0.05 -72 -109)" d="M 4453.91,2960.18 L 4447.89,2927.97 L 4423,2906.65 L 4691.26,2780.19 L 4697.28,2783.98 L 4697.55,2791.09 L 4453.91,2960.18 Z " />
<path stroke="transparent" fill="#000000" transform="matrix(0.05 0 0 0.05 -72 -109)" d="M 4195.49,2789.19 L 4201.51,2778.77 L 4423,2906.65 L 4447.89,2927.97 L 4441.87,2931.44 L 4195.49,2789.19 Z " />
<path stroke="transparent" fill="#000000" transform="matrix(0.05 0 0 0.05 -72 -109)" d="M 4453.91,3215.94 L 4441.87,3215.94 L 4441.87,2931.44 L 4447.89,2927.97 L 4453.91,2960.18 L 4453.91,3215.94 Z " />
<text x="0" y="0" stroke="transparent" fill="#000000" transform="matrix(0.05 0 0 0.05 197.091 12.188)" style="font:normal normal normal 200px 'Helvetica'" >
CN</text>
<path stroke="transparent" fill="#000000" transform="matrix(0.05 0 0 0.05 -72 -109)" d="M 5341.28,2377.53 L 5371.28,2429.49 L 5359.79,2433.66 L 5331.93,2385.4 L 5341.28,2377.53 Z " />
<path stroke="transparent" fill="#000000" transform="matrix(0.05 0 0 0.05 -72 -109)" d="M 5293.49,2417.73 L 5312.57,2450.78 L 5301.08,2454.94 L 5284.14,2425.6 L 5293.49,2417.73 Z " />
<path stroke="transparent" fill="#000000" transform="matrix(0.05 0 0 0.05 -72 -109)" d="M 5245.7,2457.94 L 5253.85,2472.06 L 5242.37,2476.22 L 5236.35,2465.8 L 5245.7,2457.94 Z " />
</svg>
