<?xml version="1.0" standalone="no" ?>
<!DOCTYPE svg PUBLIC "-//W3C//DTD SVG 1.1//EN" "http://www.w3.org/Graphics/SVG/1.1/DTD/svg11.dtd">
<svg width="219px" height="34px" viewBox="0 0 219 34" style="background-color: #ffffff00" xmlns="http://www.w3.org/2000/svg" xmlns:xlink="http://www.w3.org/1999/xlink" version="1.1" >
<path stroke="transparent" fill="#000000" transform="matrix(0.05 0 0 0.05 -115 -530)" d="M 3095.44,11003.4 L 3095.44,11017.3 L 2846.05,11161.3 L 2846.05,11147.4 L 3095.44,11003.4 Z " />
<path stroke="transparent" fill="#000000" transform="matrix(0.05 0 0 0.05 -115 -530)" d="M 3344.83,11147.4 L 3344.83,11161.3 L 3095.44,11017.3 L 3095.44,11003.4 L 3344.83,11147.4 Z " />
<path stroke="transparent" fill="#000000" transform="matrix(0.05 0 0 0.05 -115 -530)" d="M 3591.21,11005.1 L 3597.23,11015.6 L 3344.83,11161.3 L 3344.83,11147.4 L 3591.21,11005.1 Z " />
<text x="0" y="0" stroke="transparent" fill="#000000" transform="matrix(0.05 0 0 0.05 36.276 9.70543)" style="font:normal normal normal 200px 'Helvetica'" >
O</text>
<path stroke="transparent" fill="#000000" transform="matrix(0.05 0 0 0.05 -115 -530)" d="M 3063.51,10832.7 L 3075.54,10832.7 L 3075.54,11025.3 L 3063.51,11025.3 L 3063.51,10832.7 Z " />
<path stroke="transparent" fill="#000000" transform="matrix(0.05 0 0 0.05 -115 -530)" d="M 3115.34,10832.7 L 3127.38,10832.7 L 3127.38,11025.3 L 3115.34,11025.3 L 3115.34,10832.7 Z " />
<path stroke="transparent" fill="#000000" transform="matrix(0.05 0 0 0.05 -115 -530)" d="M 2596.67,11017.3 L 2596.67,11010.3 L 2602.68,11006.9 L 2846.05,11147.4 L 2846.05,11161.3 L 2596.67,11017.3 Z " />
<path stroke="transparent" fill="#000000" transform="matrix(0.05 0 0 0.05 -115 -530)" d="M 2350.29,11159.5 L 2344.27,11149.1 L 2584.64,11010.3 L 2596.67,11010.3 L 2596.67,11017.3 L 2350.29,11159.5 Z " />
<path stroke="transparent" fill="#000000" transform="matrix(0.05 0 0 0.05 -115 -530)" d="M 2590.65,10722.4 L 2602.68,10722.4 L 2602.68,11006.9 L 2596.67,11010.3 L 2590.65,10999.9 L 2590.65,10722.4 Z " />
<path stroke="transparent" fill="#000000" transform="matrix(0.05 0 0 0.05 -115 -530)" d="M 2344.27,10871.6 L 2350.29,10861.2 L 2590.65,10999.9 L 2596.67,11010.3 L 2584.64,11010.3 L 2344.27,10871.6 Z " />
<path stroke="transparent" fill="#000000" transform="matrix(0.05 0 0 0.05 -115 -530)" d="M 5115.73,10946 L 3790,10946 L 3790,10934 L 5115.73,10934 Z " />
<path stroke="transparent" fill="#000000" transform="matrix(0.05 0 0 0.05 -115 -530)" d="M 5220,10940 C 5220,10940 5099.69,10971.1 5099.69,10971.1 C 5099.69,10971.1 5114.73,10953.6 5114.73,10940 C 5114.73,10926 5099.69,10907.9 5099.69,10907.9 C 5099.69,10907.9 5220,10940 5220,10940 C 5220,10940 5220,10940 5220,10940 " />
<path stroke="#000000" stroke-width="1" fill="transparent" transform="matrix(0.05 0 0 0.05 -115 -530)" d="M 5220,10940 C 5220,10940 5099.69,10971.1 5099.69,10971.1 C 5099.69,10971.1 5114.73,10953.6 5114.73,10940 C 5114.73,10926 5099.69,10907.9 5099.69,10907.9 C 5099.69,10907.9 5220,10940 5220,10940 C 5220,10940 5220,10940 5220,10940 " />
<text x="0" y="0" stroke="transparent" fill="#000000" transform="matrix(0.05 0 0 0.05 79.2467 9.58253)" style="font:normal normal normal 200px 'Helvetica'" >
3) </text>
<text x="0" y="0" stroke="transparent" fill="#000000" transform="matrix(0.05 0 0 0.05 90.9167 9.58253)" style="font:normal normal normal 200px 'Helvetica'" >
Ph</text>
<text x="0" y="0" stroke="transparent" fill="#000000" transform="matrix(0.05 0 0 0.05 103.148 11.8823)" style="font:normal normal normal 150px 'Helvetica'" >
3</text>
<text x="0" y="0" stroke="transparent" fill="#000000" transform="matrix(0.05 0 0 0.05 107.319 9.58253)" style="font:normal normal normal 200px 'Helvetica'" >
P=CH</text>
<text x="0" y="0" stroke="transparent" fill="#000000" transform="matrix(0.05 0 0 0.05 134.272 11.8823)" style="font:normal normal normal 150px 'Helvetica'" >
2</text>
<text x="0" y="0" stroke="transparent" fill="#000000" transform="matrix(0.05 0 0 0.05 99.1259 31.5325)" style="font:normal normal normal 200px 'Helvetica'" >
THF</text>
<path stroke="transparent" fill="#000000" transform="matrix(0.05 0 0 0.05 -115 -530)" d="M 6125.44,10943.4 L 6125.44,10957.3 L 5876.05,11101.3 L 5876.05,11087.4 L 6125.44,10943.4 Z " />
<path stroke="transparent" fill="#000000" transform="matrix(0.05 0 0 0.05 -115 -530)" d="M 6374.83,11087.4 L 6374.83,11101.3 L 6125.44,10957.3 L 6125.44,10943.4 L 6374.83,11087.4 Z " />
<path stroke="transparent" fill="#000000" transform="matrix(0.05 0 0 0.05 -115 -530)" d="M 6621.21,10945.1 L 6627.23,10955.6 L 6374.83,11101.3 L 6374.83,11087.4 L 6621.21,10945.1 Z " />
<path stroke="transparent" fill="#000000" transform="matrix(0.05 0 0 0.05 -115 -530)" d="M 6093.51,10662.4 L 6105.54,10662.4 L 6105.54,10965.3 L 6093.51,10965.3 L 6093.51,10662.4 Z " />
<path stroke="transparent" fill="#000000" transform="matrix(0.05 0 0 0.05 -115 -530)" d="M 6145.34,10662.4 L 6157.38,10662.4 L 6157.38,10965.3 L 6145.34,10965.3 L 6145.34,10662.4 Z " />
<path stroke="transparent" fill="#000000" transform="matrix(0.05 0 0 0.05 -115 -530)" d="M 5626.67,10957.3 L 5626.67,10950.3 L 5632.68,10946.9 L 5876.05,11087.4 L 5876.05,11101.3 L 5626.67,10957.3 Z " />
<path stroke="transparent" fill="#000000" transform="matrix(0.05 0 0 0.05 -115 -530)" d="M 5380.29,11099.5 L 5374.27,11089.1 L 5614.64,10950.3 L 5626.67,10950.3 L 5626.67,10957.3 L 5380.29,11099.5 Z " />
<path stroke="transparent" fill="#000000" transform="matrix(0.05 0 0 0.05 -115 -530)" d="M 5620.65,10662.4 L 5632.68,10662.4 L 5632.68,10946.9 L 5626.67,10950.3 L 5620.65,10939.9 L 5620.65,10662.4 Z " />
<path stroke="transparent" fill="#000000" transform="matrix(0.05 0 0 0.05 -115 -530)" d="M 5374.27,10811.6 L 5380.29,10801.2 L 5620.65,10939.9 L 5626.67,10950.3 L 5614.64,10950.3 L 5374.27,10811.6 Z " />
</svg>
