<?xml version="1.0" standalone="no" ?>
<!DOCTYPE svg PUBLIC "-//W3C//DTD SVG 1.1//EN" "http://www.w3.org/Graphics/SVG/1.1/DTD/svg11.dtd">
<svg width="272px" height="70px" viewBox="0 0 272 70" style="background-color: #ffffff00" xmlns="http://www.w3.org/2000/svg" xmlns:xlink="http://www.w3.org/1999/xlink" version="1.1" >
<path stroke="transparent" fill="#000000" transform="matrix(0.05 0 0 0.05 -210 -457)" d="M 4266.2,9955.14 L 4254.2,9962.06 L 4254.2,9667.14 L 4266.2,9674.06 L 4266.2,9955.14 Z " />
<path stroke="transparent" fill="#000000" transform="matrix(0.05 0 0 0.05 -210 -457)" d="M 4318.04,9928.68 L 4306.04,9928.68 L 4306.04,9700.52 L 4318.04,9700.52 L 4318.04,9928.68 Z " />
<path stroke="transparent" fill="#000000" transform="matrix(0.05 0 0 0.05 -210 -457)" d="M 4509.4,10095.7 L 4509.4,10109.5 L 4254.2,9962.06 L 4266.2,9955.14 L 4509.4,10095.7 Z " />
<path stroke="transparent" fill="#000000" transform="matrix(0.05 0 0 0.05 -210 -457)" d="M 4752.8,9955.14 L 4758.8,9958.6 L 4758.8,9965.53 L 4509.4,10109.5 L 4509.4,10095.7 L 4752.8,9955.14 Z " />
<path stroke="transparent" fill="#000000" transform="matrix(0.05 0 0 0.05 -210 -457)" d="M 4703.96,9923.48 L 4709.96,9933.87 L 4512.41,10047.9 L 4506.41,10037.5 L 4703.96,9923.48 Z " />
<path stroke="transparent" fill="#000000" transform="matrix(0.05 0 0 0.05 -210 -457)" d="M 4752.8,9674.06 L 4764.8,9667.14 L 4764.8,9955.14 L 4758.8,9958.6 L 4752.8,9955.14 L 4752.8,9674.06 Z " />
<path stroke="transparent" fill="#000000" transform="matrix(0.05 0 0 0.05 -210 -457)" d="M 4509.4,9533.53 L 4509.4,9519.67 L 4764.8,9667.14 L 4752.8,9674.06 L 4509.4,9533.53 Z " />
<path stroke="transparent" fill="#000000" transform="matrix(0.05 0 0 0.05 -210 -457)" d="M 4506.41,9591.66 L 4512.41,9581.27 L 4709.96,9695.33 L 4703.96,9705.72 L 4506.41,9591.66 Z " />
<path stroke="transparent" fill="#000000" transform="matrix(0.05 0 0 0.05 -210 -457)" d="M 4266.2,9674.06 L 4254.2,9667.14 L 4509.4,9519.67 L 4509.4,9533.53 L 4266.2,9674.06 Z " />
<path stroke="transparent" fill="#000000" transform="matrix(0.05 0 0 0.05 -210 -457)" d="M 5008.2,10095.7 L 5008.2,10109.5 L 4758.8,9965.53 L 4758.8,9958.6 L 4764.8,9955.14 L 5008.2,10095.7 Z " />
<path stroke="transparent" fill="#9341a2" transform="matrix(0.05 0 0 0.05 -210 -457)" d="M 5257.6,9951.67 L 5257.6,9965.53 L 5008.2,10109.5 L 5008.2,10095.7 L 5257.6,9951.67 Z " />
<text x="0" y="0" stroke="transparent" fill="#9341a2" transform="matrix(0.05 0 0 0.05 36.9314 66.0985)" style="font:normal normal normal 199px 'Helvetica'" >
O</text>
<path stroke="transparent" fill="#9341a2" transform="matrix(0.05 0 0 0.05 -210 -457)" d="M 5040.12,10285.3 L 5028.12,10285.3 L 5028.12,10087.6 L 5040.12,10087.6 L 5040.12,10285.3 Z " />
<path stroke="transparent" fill="#9341a2" transform="matrix(0.05 0 0 0.05 -210 -457)" d="M 4988.28,10285.3 L 4976.28,10285.3 L 4976.28,10087.6 L 4988.28,10087.6 L 4988.28,10285.3 Z " />
<path stroke="transparent" fill="#9341a2" transform="matrix(0.05 0 0 0.05 -210 -457)" d="M 5507,10095.7 L 5507,10109.5 L 5257.6,9965.53 L 5257.6,9951.67 L 5507,10095.7 Z " />
<path stroke="transparent" fill="#9341a2" transform="matrix(0.05 0 0 0.05 -210 -457)" d="M 5753.4,9953.4 L 5759.4,9963.8 L 5507,10109.5 L 5507,10095.7 L 5753.4,9953.4 Z " />
<text x="0" y="0" stroke="transparent" fill="#000000" transform="matrix(0.05 0 0 0.05 93.47 18.4)" style="font:normal normal normal 199px 'Helvetica'" >
2) </text>
<text x="0" y="0" stroke="transparent" fill="#000000" transform="matrix(0.05 0 0 0.05 105.082 18.4)" style="font:normal normal normal 199px 'Helvetica'" >
Cl</text>
<text x="0" y="0" stroke="transparent" fill="#000000" transform="matrix(0.05 0 0 0.05 114.478 20.6883)" style="font:normal normal normal 149.25px 'Helvetica'" >
2</text>
<text x="0" y="0" stroke="transparent" fill="#000000" transform="matrix(0.05 0 0 0.05 118.628 18.4)" style="font:normal normal normal 199px 'Helvetica'" >
 </text>
<text x="0" y="0" stroke="transparent" fill="#000000" transform="matrix(0.05 0 0 0.05 121.392 18.4)" style="font:normal normal normal 199px 'Helvetica'" >
/ </text>
<text x="0" y="0" stroke="transparent" fill="#000000" transform="matrix(0.05 0 0 0.05 126.921 18.4)" style="font:normal normal normal 199px 'Helvetica'" >
FeCl</text>
<text x="0" y="0" stroke="transparent" fill="#000000" transform="matrix(0.05 0 0 0.05 147.929 20.6883)" style="font:normal normal normal 149.25px 'Helvetica'" >
3</text>
<path stroke="transparent" fill="#000000" transform="matrix(0.05 0 0 0.05 -210 -457)" d="M 7304.24,9727.4 L 5989.4,9727.4 L 5989.4,9715.4 L 7304.24,9715.4 Z " />
<path stroke="transparent" fill="#000000" transform="matrix(0.05 0 0 0.05 -210 -457)" d="M 7460.8,9721.4 C 7460.8,9721.4 7280.8,9767.4 7280.8,9767.4 C 7280.8,9767.4 7303.24,9741.53 7303.24,9721.4 C 7303.24,9700.83 7280.8,9674.4 7280.8,9674.4 C 7280.8,9674.4 7460.8,9721.4 7460.8,9721.4 C 7460.8,9721.4 7460.8,9721.4 7460.8,9721.4 " />
<path stroke="#000000" stroke-width="1" fill="transparent" transform="matrix(0.05 0 0 0.05 -210 -457)" d="M 7460.8,9721.4 C 7460.8,9721.4 7280.8,9767.4 7280.8,9767.4 C 7280.8,9767.4 7303.24,9741.53 7303.24,9721.4 C 7303.24,9700.83 7280.8,9674.4 7280.8,9674.4 C 7280.8,9674.4 7460.8,9721.4 7460.8,9721.4 C 7460.8,9721.4 7460.8,9721.4 7460.8,9721.4 " />
<path stroke="transparent" fill="#000000" transform="matrix(0.05 0 0 0.05 -210 -457)" d="M 8092.4,9981.94 L 8080.4,9988.86 L 8080.4,9693.94 L 8092.4,9700.86 L 8092.4,9981.94 Z " />
<path stroke="transparent" fill="#000000" transform="matrix(0.05 0 0 0.05 -210 -457)" d="M 8144.24,9955.48 L 8132.24,9955.48 L 8132.24,9727.32 L 8144.24,9727.32 L 8144.24,9955.48 Z " />
<path stroke="transparent" fill="#000000" transform="matrix(0.05 0 0 0.05 -210 -457)" d="M 8335.6,10122.5 L 8335.6,10136.3 L 8080.4,9988.86 L 8092.4,9981.94 L 8335.6,10122.5 Z " />
<path stroke="transparent" fill="#000000" transform="matrix(0.05 0 0 0.05 -210 -457)" d="M 8579,9981.94 L 8585,9985.4 L 8585,9992.33 L 8335.6,10136.3 L 8335.6,10122.5 L 8579,9981.94 Z " />
<path stroke="transparent" fill="#000000" transform="matrix(0.05 0 0 0.05 -210 -457)" d="M 8530.16,9950.28 L 8536.16,9960.67 L 8338.61,10074.7 L 8332.61,10064.3 L 8530.16,9950.28 Z " />
<path stroke="transparent" fill="#000000" transform="matrix(0.05 0 0 0.05 -210 -457)" d="M 8579,9700.86 L 8591,9693.94 L 8591,9981.94 L 8585,9985.4 L 8579,9981.94 L 8579,9700.86 Z " />
<path stroke="transparent" fill="#000000" transform="matrix(0.05 0 0 0.05 -210 -457)" d="M 8335.6,9560.33 L 8335.6,9553.4 L 8341.6,9549.94 L 8591,9693.94 L 8579,9700.86 L 8335.6,9560.33 Z " />
<path stroke="transparent" fill="#000000" transform="matrix(0.05 0 0 0.05 -210 -457)" d="M 8332.61,9618.46 L 8338.61,9608.07 L 8536.16,9722.13 L 8530.16,9732.52 L 8332.61,9618.46 Z " />
<path stroke="transparent" fill="#000000" transform="matrix(0.05 0 0 0.05 -210 -457)" d="M 8092.4,9700.86 L 8080.4,9693.94 L 8329.6,9549.94 L 8335.6,9553.4 L 8335.6,9560.33 L 8092.4,9700.86 Z " />
<path stroke="transparent" fill="#000000" transform="matrix(0.05 0 0 0.05 -210 -457)" d="M 8834.4,10122.5 L 8834.4,10136.3 L 8585,9992.33 L 8585,9985.4 L 8591,9981.94 L 8834.4,10122.5 Z " />
<path stroke="transparent" fill="#9341a2" transform="matrix(0.05 0 0 0.05 -210 -457)" d="M 9083.8,9978.47 L 9083.8,9992.33 L 8834.4,10136.3 L 8834.4,10122.5 L 9083.8,9978.47 Z " />
<text x="0" y="0" stroke="transparent" fill="#9341a2" transform="matrix(0.05 0 0 0.05 228.241 67.4285)" style="font:normal normal normal 199px 'Helvetica'" >
O</text>
<path stroke="transparent" fill="#9341a2" transform="matrix(0.05 0 0 0.05 -210 -457)" d="M 8866.3,10311.9 L 8854.3,10311.9 L 8854.3,10114.4 L 8866.3,10114.4 L 8866.3,10311.9 Z " />
<path stroke="transparent" fill="#9341a2" transform="matrix(0.05 0 0 0.05 -210 -457)" d="M 8814.5,10311.9 L 8802.5,10311.9 L 8802.5,10114.4 L 8814.5,10114.4 L 8814.5,10311.9 Z " />
<path stroke="transparent" fill="#9341a2" transform="matrix(0.05 0 0 0.05 -210 -457)" d="M 9333.2,10122.5 L 9333.2,10136.3 L 9083.8,9992.33 L 9083.8,9978.47 L 9333.2,10122.5 Z " />
<path stroke="transparent" fill="#9341a2" transform="matrix(0.05 0 0 0.05 -210 -457)" d="M 9579.6,9980.2 L 9585.6,9990.6 L 9333.2,10136.3 L 9333.2,10122.5 L 9579.6,9980.2 Z " />
<text x="0" y="0" stroke="transparent" fill="#3cabc7" transform="matrix(0.05 0 0 0.05 203.615 9.83848)" style="font:normal normal normal 199px 'Helvetica'" >
Cl</text>
<path stroke="transparent" fill="#000000" transform="matrix(0.05 0 0 0.05 -210 -457)" d="M 8329.6,9374.09 L 8341.6,9374.09 L 8341.6,9549.94 L 8335.6,9553.4 L 8329.6,9549.94 L 8329.6,9374.09 Z " />
</svg>
