<?xml version="1.0" standalone="no" ?>
<!DOCTYPE svg PUBLIC "-//W3C//DTD SVG 1.1//EN" "http://www.w3.org/Graphics/SVG/1.1/DTD/svg11.dtd">
<svg width="506px" height="70px" viewBox="0 0 506 70" style="background-color: #ffffff00" xmlns="http://www.w3.org/2000/svg" xmlns:xlink="http://www.w3.org/1999/xlink" version="1.1" >
<text x="0" y="0" stroke="transparent" fill="#9343a2" transform="matrix(0.05 0 0 0.05 71.0049 45.5679)" style="font:normal normal normal 199px 'Helvetica'" >
O</text>
<path stroke="transparent" fill="#9343a2" transform="matrix(0.05 0 0 0.05 -26 -112)" d="M 1977.74,3189.71 L 1989.77,3189.71 L 1989.77,3382.92 L 1977.74,3382.92 L 1977.74,3189.71 Z " />
<path stroke="transparent" fill="#9343a2" transform="matrix(0.05 0 0 0.05 -26 -112)" d="M 2029.57,3189.71 L 2041.6,3189.71 L 2041.6,3382.92 L 2029.57,3382.92 L 2029.57,3189.71 Z " />
<path stroke="transparent" fill="#9343a2" transform="matrix(0.05 0 0 0.05 -26 -112)" d="M 2259.04,3504.99 L 2259.04,3518.89 L 2009.67,3374.9 L 2009.67,3361.01 L 2259.04,3504.99 Z " />
<text x="0" y="0" stroke="transparent" fill="#9343a2" transform="matrix(0.05 0 0 0.05 53.056 67.1656)" style="font:normal normal normal 199px 'Helvetica'" >
Cl</text>
<path stroke="transparent" fill="#9343a2" transform="matrix(0.05 0 0 0.05 -26 -112)" d="M 1818.66,3485.19 L 1812.65,3474.77 L 2009.67,3361.01 L 2009.67,3374.9 L 1818.66,3485.19 Z " />
<path stroke="transparent" fill="#9343a2" transform="matrix(0.05 0 0 0.05 -26 -112)" d="M 2508.42,3361.01 L 2508.42,3374.9 L 2259.04,3518.89 L 2259.04,3504.99 L 2508.42,3361.01 Z " />
<path stroke="transparent" fill="#9343a2" transform="matrix(0.05 0 0 0.05 -26 -112)" d="M 2760.8,3506.73 L 2754.78,3517.15 L 2508.42,3374.9 L 2508.42,3361.01 L 2760.8,3506.73 Z " />
<path stroke="transparent" fill="#000000" transform="matrix(0.05 0 0 0.05 -26 -112)" d="M 586.482,3035.11 L 574.451,3042.06 L 574.451,2747.14 L 586.482,2754.09 L 586.482,3035.11 Z " />
<path stroke="transparent" fill="#000000" transform="matrix(0.05 0 0 0.05 -26 -112)" d="M 638.317,3008.66 L 626.285,3008.66 L 626.285,2780.54 L 638.317,2780.54 L 638.317,3008.66 Z " />
<path stroke="transparent" fill="#000000" transform="matrix(0.05 0 0 0.05 -26 -112)" d="M 829.839,3175.62 L 829.839,3189.52 L 574.451,3042.06 L 586.482,3035.11 L 829.839,3175.62 Z " />
<path stroke="transparent" fill="#000000" transform="matrix(0.05 0 0 0.05 -26 -112)" d="M 1073.2,3035.11 L 1085.23,3042.06 L 829.839,3189.52 L 829.839,3175.62 L 1073.2,3035.11 Z " />
<path stroke="transparent" fill="#000000" transform="matrix(0.05 0 0 0.05 -26 -112)" d="M 1024.37,3003.45 L 1030.39,3013.87 L 832.847,3127.93 L 826.832,3117.51 L 1024.37,3003.45 Z " />
<path stroke="transparent" fill="#000000" transform="matrix(0.05 0 0 0.05 -26 -112)" d="M 1073.2,2754.09 L 1085.23,2747.14 L 1085.23,3042.06 L 1073.2,3035.11 L 1073.2,2754.09 Z " />
<path stroke="transparent" fill="#000000" transform="matrix(0.05 0 0 0.05 -26 -112)" d="M 829.839,2613.58 L 829.839,2599.69 L 1085.23,2747.14 L 1073.2,2754.09 L 829.839,2613.58 Z " />
<path stroke="transparent" fill="#000000" transform="matrix(0.05 0 0 0.05 -26 -112)" d="M 826.832,2671.69 L 832.847,2661.27 L 1030.39,2775.33 L 1024.37,2785.75 L 826.832,2671.69 Z " />
<path stroke="transparent" fill="#000000" transform="matrix(0.05 0 0 0.05 -26 -112)" d="M 586.482,2754.09 L 574.451,2747.14 L 829.839,2599.69 L 829.839,2613.58 L 586.482,2754.09 Z " />
<path stroke="transparent" fill="#000000" transform="matrix(0.05 0 0 0.05 -26 -112)" d="M 2746,2894.01 L 1289.75,2894.01 L 1289.75,2882.01 L 2746,2882.01 Z " />
<path stroke="transparent" fill="#000000" transform="matrix(0.05 0 0 0.05 -26 -112)" d="M 2902.97,2888.01 C 2902.97,2888.01 2722.51,2934.13 2722.51,2934.13 C 2722.51,2934.13 2745,2908.19 2745,2888.01 C 2745,2867.39 2722.51,2840.89 2722.51,2840.89 C 2722.51,2840.89 2902.97,2888.01 2902.97,2888.01 C 2902.97,2888.01 2902.97,2888.01 2902.97,2888.01 " />
<path stroke="#000000" stroke-width="1" fill="transparent" transform="matrix(0.05 0 0 0.05 -26 -112)" d="M 2902.97,2888.01 C 2902.97,2888.01 2722.51,2934.13 2722.51,2934.13 C 2722.51,2934.13 2745,2908.19 2745,2888.01 C 2745,2867.39 2722.51,2840.89 2722.51,2840.89 C 2722.51,2840.89 2902.97,2888.01 2902.97,2888.01 C 2902.97,2888.01 2902.97,2888.01 2902.97,2888.01 " />
<path stroke="transparent" fill="#000000" transform="matrix(0.05 0 0 0.05 -26 -112)" d="M 3106.13,3055.11 L 3094.1,3062.06 L 3094.1,2767.14 L 3106.13,2774.09 L 3106.13,3055.11 Z " />
<path stroke="transparent" fill="#000000" transform="matrix(0.05 0 0 0.05 -26 -112)" d="M 3157.97,3028.66 L 3145.94,3028.66 L 3145.94,2800.54 L 3157.97,2800.54 L 3157.97,3028.66 Z " />
<path stroke="transparent" fill="#000000" transform="matrix(0.05 0 0 0.05 -26 -112)" d="M 3349.49,3195.62 L 3349.49,3209.52 L 3094.1,3062.06 L 3106.13,3055.11 L 3349.49,3195.62 Z " />
<path stroke="transparent" fill="#000000" transform="matrix(0.05 0 0 0.05 -26 -112)" d="M 3592.85,3055.11 L 3598.86,3058.59 L 3598.86,3065.53 L 3349.49,3209.52 L 3349.49,3195.62 L 3592.85,3055.11 Z " />
<path stroke="transparent" fill="#000000" transform="matrix(0.05 0 0 0.05 -26 -112)" d="M 3544.02,3023.45 L 3550.04,3033.87 L 3352.5,3147.93 L 3346.48,3137.51 L 3544.02,3023.45 Z " />
<path stroke="transparent" fill="#000000" transform="matrix(0.05 0 0 0.05 -26 -112)" d="M 3592.85,2774.09 L 3604.88,2767.14 L 3604.88,3055.11 L 3598.86,3058.59 L 3592.85,3055.11 L 3592.85,2774.09 Z " />
<path stroke="transparent" fill="#000000" transform="matrix(0.05 0 0 0.05 -26 -112)" d="M 3349.49,2633.58 L 3349.49,2619.69 L 3604.88,2767.14 L 3592.85,2774.09 L 3349.49,2633.58 Z " />
<path stroke="transparent" fill="#000000" transform="matrix(0.05 0 0 0.05 -26 -112)" d="M 3346.48,2691.69 L 3352.5,2681.27 L 3550.04,2795.33 L 3544.02,2805.75 L 3346.48,2691.69 Z " />
<path stroke="transparent" fill="#000000" transform="matrix(0.05 0 0 0.05 -26 -112)" d="M 3106.13,2774.09 L 3094.1,2767.14 L 3349.49,2619.69 L 3349.49,2633.58 L 3106.13,2774.09 Z " />
<path stroke="transparent" fill="#000000" transform="matrix(0.05 0 0 0.05 -26 -112)" d="M 3848.24,3195.62 L 3848.24,3209.52 L 3598.86,3065.53 L 3598.86,3058.59 L 3604.88,3055.11 L 3848.24,3195.62 Z " />
<path stroke="transparent" fill="#9343a2" transform="matrix(0.05 0 0 0.05 -26 -112)" d="M 4097.61,3051.64 L 4097.61,3065.53 L 3848.24,3209.52 L 3848.24,3195.62 L 4097.61,3051.64 Z " />
<text x="0" y="0" stroke="transparent" fill="#9343a2" transform="matrix(0.05 0 0 0.05 162.933 66.0954)" style="font:normal normal normal 199px 'Helvetica'" >
O</text>
<path stroke="transparent" fill="#9343a2" transform="matrix(0.05 0 0 0.05 -26 -112)" d="M 3880.17,3384.19 L 3868.14,3384.19 L 3868.14,3187.61 L 3880.17,3187.61 L 3880.17,3384.19 Z " />
<path stroke="transparent" fill="#9343a2" transform="matrix(0.05 0 0 0.05 -26 -112)" d="M 3828.33,3384.19 L 3816.3,3384.19 L 3816.3,3187.61 L 3828.33,3187.61 L 3828.33,3384.19 Z " />
<path stroke="transparent" fill="#9343a2" transform="matrix(0.05 0 0 0.05 -26 -112)" d="M 4346.98,3195.62 L 4346.98,3209.52 L 4097.61,3065.53 L 4097.61,3051.64 L 4346.98,3195.62 Z " />
<path stroke="transparent" fill="#9343a2" transform="matrix(0.05 0 0 0.05 -26 -112)" d="M 4593.35,3053.38 L 4599.36,3063.8 L 4346.98,3209.52 L 4346.98,3195.62 L 4593.35,3053.38 Z " />
<text x="0" y="0" stroke="transparent" fill="#000000" transform="matrix(0.05 0 0 0.05 212.466 28.4017)" style="font:normal normal normal 199px 'Helvetica'" >
Cl</text>
<text x="0" y="0" stroke="transparent" fill="#000000" transform="matrix(0.05 0 0 0.05 221.862 30.69)" style="font:normal normal normal 149.25px 'Helvetica'" >
2</text>
<text x="0" y="0" stroke="transparent" fill="#000000" transform="matrix(0.05 0 0 0.05 226.012 28.4017)" style="font:normal normal normal 199px 'Helvetica'" >
 </text>
<text x="0" y="0" stroke="transparent" fill="#000000" transform="matrix(0.05 0 0 0.05 228.777 28.4017)" style="font:normal normal normal 199px 'Helvetica'" >
/ </text>
<text x="0" y="0" stroke="transparent" fill="#000000" transform="matrix(0.05 0 0 0.05 234.306 28.4017)" style="font:normal normal normal 199px 'Helvetica'" >
FeCl</text>
<text x="0" y="0" stroke="transparent" fill="#000000" transform="matrix(0.05 0 0 0.05 255.313 30.69)" style="font:normal normal normal 149.25px 'Helvetica'" >
3</text>
<path stroke="transparent" fill="#000000" transform="matrix(0.05 0 0 0.05 -26 -112)" d="M 5803.03,2907.41 L 4729.33,2907.41 L 4729.33,2895.41 L 5803.03,2895.41 Z " />
<path stroke="transparent" fill="#000000" transform="matrix(0.05 0 0 0.05 -26 -112)" d="M 5960,2901.41 C 5960,2901.41 5779.53,2947.53 5779.53,2947.53 C 5779.53,2947.53 5802.03,2921.6 5802.03,2901.41 C 5802.03,2880.79 5779.53,2854.29 5779.53,2854.29 C 5779.53,2854.29 5960,2901.41 5960,2901.41 C 5960,2901.41 5960,2901.41 5960,2901.41 " />
<path stroke="#000000" stroke-width="1" fill="transparent" transform="matrix(0.05 0 0 0.05 -26 -112)" d="M 5960,2901.41 C 5960,2901.41 5779.53,2947.53 5779.53,2947.53 C 5779.53,2947.53 5802.03,2921.6 5802.03,2901.41 C 5802.03,2880.79 5779.53,2854.29 5779.53,2854.29 C 5779.53,2854.29 5960,2901.41 5960,2901.41 C 5960,2901.41 5960,2901.41 5960,2901.41 " />
<path stroke="transparent" fill="#000000" transform="matrix(0.05 0 0 0.05 -26 -112)" d="M 6132.32,3081.91 L 6120.29,3088.86 L 6120.29,2793.94 L 6132.32,2800.89 L 6132.32,3081.91 Z " />
<path stroke="transparent" fill="#000000" transform="matrix(0.05 0 0 0.05 -26 -112)" d="M 6184.15,3055.46 L 6172.12,3055.46 L 6172.12,2827.34 L 6184.15,2827.34 L 6184.15,3055.46 Z " />
<path stroke="transparent" fill="#000000" transform="matrix(0.05 0 0 0.05 -26 -112)" d="M 6375.68,3222.42 L 6375.68,3236.31 L 6120.29,3088.86 L 6132.32,3081.91 L 6375.68,3222.42 Z " />
<path stroke="transparent" fill="#000000" transform="matrix(0.05 0 0 0.05 -26 -112)" d="M 6619.03,3081.91 L 6625.05,3085.38 L 6625.05,3092.33 L 6375.68,3236.31 L 6375.68,3222.42 L 6619.03,3081.91 Z " />
<path stroke="transparent" fill="#000000" transform="matrix(0.05 0 0 0.05 -26 -112)" d="M 6570.21,3050.25 L 6576.22,3060.67 L 6378.68,3174.73 L 6372.67,3164.31 L 6570.21,3050.25 Z " />
<path stroke="transparent" fill="#000000" transform="matrix(0.05 0 0 0.05 -26 -112)" d="M 6619.03,2800.89 L 6631.06,2793.94 L 6631.06,3081.91 L 6625.05,3085.38 L 6619.03,3081.91 L 6619.03,2800.89 Z " />
<path stroke="transparent" fill="#000000" transform="matrix(0.05 0 0 0.05 -26 -112)" d="M 6375.68,2660.38 L 6375.68,2653.43 L 6381.69,2649.96 L 6631.06,2793.94 L 6619.03,2800.89 L 6375.68,2660.38 Z " />
<path stroke="transparent" fill="#000000" transform="matrix(0.05 0 0 0.05 -26 -112)" d="M 6372.67,2718.49 L 6378.68,2708.07 L 6576.22,2822.13 L 6570.21,2832.55 L 6372.67,2718.49 Z " />
<path stroke="transparent" fill="#000000" transform="matrix(0.05 0 0 0.05 -26 -112)" d="M 6132.32,2800.89 L 6120.29,2793.94 L 6369.66,2649.96 L 6375.68,2653.43 L 6375.68,2660.38 L 6132.32,2800.89 Z " />
<path stroke="transparent" fill="#000000" transform="matrix(0.05 0 0 0.05 -26 -112)" d="M 6874.42,3222.42 L 6874.42,3236.31 L 6625.05,3092.33 L 6625.05,3085.38 L 6631.06,3081.91 L 6874.42,3222.42 Z " />
<path stroke="transparent" fill="#9343a2" transform="matrix(0.05 0 0 0.05 -26 -112)" d="M 7123.79,3078.44 L 7123.79,3092.33 L 6874.42,3236.31 L 6874.42,3222.42 L 7123.79,3078.44 Z " />
<text x="0" y="0" stroke="transparent" fill="#9343a2" transform="matrix(0.05 0 0 0.05 314.242 67.4253)" style="font:normal normal normal 199px 'Helvetica'" >
O</text>
<path stroke="transparent" fill="#9343a2" transform="matrix(0.05 0 0 0.05 -26 -112)" d="M 6906.34,3410.79 L 6894.31,3410.79 L 6894.31,3214.41 L 6906.34,3214.41 L 6906.34,3410.79 Z " />
<path stroke="transparent" fill="#9343a2" transform="matrix(0.05 0 0 0.05 -26 -112)" d="M 6854.54,3410.79 L 6842.51,3410.79 L 6842.51,3214.41 L 6854.54,3214.41 L 6854.54,3410.79 Z " />
<path stroke="transparent" fill="#9343a2" transform="matrix(0.05 0 0 0.05 -26 -112)" d="M 7373.17,3222.42 L 7373.17,3236.31 L 7123.79,3092.33 L 7123.79,3078.44 L 7373.17,3222.42 Z " />
<path stroke="transparent" fill="#9343a2" transform="matrix(0.05 0 0 0.05 -26 -112)" d="M 7619.53,3080.17 L 7625.55,3090.59 L 7373.17,3236.31 L 7373.17,3222.42 L 7619.53,3080.17 Z " />
<text x="0" y="0" stroke="transparent" fill="#3eabc9" transform="matrix(0.05 0 0 0.05 289.619 9.84152)" style="font:normal normal normal 199px 'Helvetica'" >
Cl</text>
<path stroke="transparent" fill="#000000" transform="matrix(0.05 0 0 0.05 -26 -112)" d="M 6369.66,2474.18 L 6381.69,2474.18 L 6381.69,2649.96 L 6375.68,2653.43 L 6369.66,2649.96 L 6369.66,2474.18 Z " />
<text x="0" y="0" stroke="transparent" fill="#000000" transform="matrix(0.05 0 0 0.05 360.821 27.389)" style="font:normal normal normal 199px 'Helvetica'" >
NH</text>
<text x="0" y="0" stroke="transparent" fill="#000000" transform="matrix(0.05 0 0 0.05 375.192 29.6773)" style="font:normal normal normal 149.25px 'Helvetica'" >
2</text>
<text x="0" y="0" stroke="transparent" fill="#000000" transform="matrix(0.05 0 0 0.05 379.343 27.389)" style="font:normal normal normal 199px 'Helvetica'" >
NH</text>
<text x="0" y="0" stroke="transparent" fill="#000000" transform="matrix(0.05 0 0 0.05 393.714 29.6773)" style="font:normal normal normal 149.25px 'Helvetica'" >
2</text>
<text x="0" y="0" stroke="transparent" fill="#000000" transform="matrix(0.05 0 0 0.05 397.864 27.389)" style="font:normal normal normal 199px 'Helvetica'" >
 </text>
<text x="0" y="0" stroke="transparent" fill="#000000" transform="matrix(0.05 0 0 0.05 360.821 48.9223)" style="font:normal normal normal 199px 'Helvetica'" >
KOH </text>
<text x="0" y="0" stroke="transparent" fill="#000000" transform="matrix(0.05 0 0 0.05 385.147 48.9223)" style="font:normal normal normal 199px 'Helvetica'" >
/ </text>
<text x="0" y="0" stroke="transparent" fill="#000000" transform="matrix(0.05 0 0 0.05 390.676 48.9223)" style="font:normal normal normal 199px 'Helvetica'" >
heat</text>
<path stroke="transparent" fill="#000000" transform="matrix(0.05 0 0 0.05 -26 -112)" d="M 8683.03,2913.76 L 7696.46,2913.76 L 7696.46,2901.76 L 8683.03,2901.76 Z " />
<path stroke="transparent" fill="#000000" transform="matrix(0.05 0 0 0.05 -26 -112)" d="M 8840,2907.76 C 8840,2907.76 8659.53,2953.88 8659.53,2953.88 C 8659.53,2953.88 8682.03,2927.95 8682.03,2907.76 C 8682.03,2887.14 8659.53,2860.64 8659.53,2860.64 C 8659.53,2860.64 8840,2907.76 8840,2907.76 C 8840,2907.76 8840,2907.76 8840,2907.76 " />
<path stroke="#000000" stroke-width="1" fill="transparent" transform="matrix(0.05 0 0 0.05 -26 -112)" d="M 8840,2907.76 C 8840,2907.76 8659.53,2953.88 8659.53,2953.88 C 8659.53,2953.88 8682.03,2927.95 8682.03,2907.76 C 8682.03,2887.14 8659.53,2860.64 8659.53,2860.64 C 8659.53,2860.64 8840,2907.76 8840,2907.76 C 8840,2907.76 8840,2907.76 8840,2907.76 " />
<path stroke="transparent" fill="#000000" transform="matrix(0.05 0 0 0.05 -26 -112)" d="M 9099.59,3094.86 L 9087.56,3101.81 L 9087.56,2806.89 L 9099.59,2813.84 L 9099.59,3094.86 Z " />
<path stroke="transparent" fill="#000000" transform="matrix(0.05 0 0 0.05 -26 -112)" d="M 9151.42,3068.41 L 9139.39,3068.41 L 9139.39,2840.29 L 9151.42,2840.29 L 9151.42,3068.41 Z " />
<path stroke="transparent" fill="#000000" transform="matrix(0.05 0 0 0.05 -26 -112)" d="M 9342.94,3235.37 L 9342.94,3249.27 L 9087.56,3101.81 L 9099.59,3094.86 L 9342.94,3235.37 Z " />
<path stroke="transparent" fill="#000000" transform="matrix(0.05 0 0 0.05 -26 -112)" d="M 9586.3,3094.86 L 9592.32,3098.33 L 9592.32,3105.28 L 9342.94,3249.27 L 9342.94,3235.37 L 9586.3,3094.86 Z " />
<path stroke="transparent" fill="#000000" transform="matrix(0.05 0 0 0.05 -26 -112)" d="M 9537.48,3063.2 L 9543.49,3073.62 L 9345.95,3187.68 L 9339.94,3177.26 L 9537.48,3063.2 Z " />
<path stroke="transparent" fill="#000000" transform="matrix(0.05 0 0 0.05 -26 -112)" d="M 9586.3,2813.84 L 9598.33,2806.89 L 9598.33,3094.86 L 9592.32,3098.33 L 9586.3,3094.86 L 9586.3,2813.84 Z " />
<path stroke="transparent" fill="#000000" transform="matrix(0.05 0 0 0.05 -26 -112)" d="M 9342.94,2673.33 L 9342.94,2666.38 L 9348.96,2662.91 L 9598.33,2806.89 L 9586.3,2813.84 L 9342.94,2673.33 Z " />
<path stroke="transparent" fill="#000000" transform="matrix(0.05 0 0 0.05 -26 -112)" d="M 9339.94,2731.44 L 9345.95,2721.02 L 9543.49,2835.08 L 9537.48,2845.5 L 9339.94,2731.44 Z " />
<path stroke="transparent" fill="#000000" transform="matrix(0.05 0 0 0.05 -26 -112)" d="M 9099.59,2813.84 L 9087.56,2806.89 L 9336.93,2662.91 L 9342.94,2666.38 L 9342.94,2673.33 L 9099.59,2813.84 Z " />
<path stroke="transparent" fill="#000000" transform="matrix(0.05 0 0 0.05 -26 -112)" d="M 9841.69,3235.37 L 9841.69,3249.27 L 9592.32,3105.28 L 9592.32,3098.33 L 9598.33,3094.86 L 9841.69,3235.37 Z " />
<path stroke="transparent" fill="#9343a2" transform="matrix(0.05 0 0 0.05 -26 -112)" d="M 10090.9,3091.39 L 10090.9,3105.28 L 9841.69,3249.27 L 9841.69,3235.37 L 10090.9,3091.39 Z " />
<path stroke="transparent" fill="#9343a2" transform="matrix(0.05 0 0 0.05 -26 -112)" d="M 10340.2,3235.37 L 10340.2,3249.27 L 10090.9,3105.28 L 10090.9,3091.39 L 10340.2,3235.37 Z " />
<path stroke="transparent" fill="#9343a2" transform="matrix(0.05 0 0 0.05 -26 -112)" d="M 10586.6,3093.13 L 10592.6,3103.54 L 10340.2,3249.27 L 10340.2,3235.37 L 10586.6,3093.13 Z " />
<text x="0" y="0" stroke="transparent" fill="#3eabc9" transform="matrix(0.05 0 0 0.05 437.982 10.4991)" style="font:normal normal normal 199px 'Helvetica'" >
Cl</text>
<path stroke="transparent" fill="#000000" transform="matrix(0.05 0 0 0.05 -26 -112)" d="M 9336.93,2487.33 L 9348.96,2487.33 L 9348.96,2662.91 L 9342.94,2666.38 L 9336.93,2662.91 L 9336.93,2487.33 Z " />
<text x="0" y="0" stroke="transparent" fill="#000000" transform="matrix(0.05 0 0 0.05 55.9496 28.4013)" style="font:normal normal normal 199px 'Helvetica'" >
AlCl</text>
<text x="0" y="0" stroke="transparent" fill="#000000" transform="matrix(0.05 0 0 0.05 74.1929 30.6896)" style="font:normal normal normal 149.25px 'Helvetica'" >
3</text>
</svg>
