<?xml version="1.0" standalone="no" ?>
<!DOCTYPE svg PUBLIC "-//W3C//DTD SVG 1.1//EN" "http://www.w3.org/Graphics/SVG/1.1/DTD/svg11.dtd">
<svg width="328px" height="61px" viewBox="0 0 328 61" style="background-color: #ffffff00" xmlns="http://www.w3.org/2000/svg" xmlns:xlink="http://www.w3.org/1999/xlink" version="1.1" >
<path stroke="transparent" fill="#000000" transform="matrix(0.05 0 0 0.05 -93 -43)" d="M 2165.82,1521.6 L 2165.82,1535.49 L 1919.46,1677.54 L 1913.45,1667.12 L 2165.82,1521.6 Z " />
<path stroke="transparent" fill="#000000" transform="matrix(0.05 0 0 0.05 -93 -43)" d="M 2415.2,1665.38 L 2415.2,1679.27 L 2165.82,1535.49 L 2165.82,1521.6 L 2415.2,1665.38 Z " />
<path stroke="transparent" fill="#000000" transform="matrix(0.05 0 0 0.05 -93 -43)" d="M 2664.57,1521.6 L 2664.57,1535.49 L 2415.2,1679.27 L 2415.2,1665.38 L 2664.57,1521.6 Z " />
<text x="0" y="0" stroke="transparent" fill="#000000" transform="matrix(0.05 0 0 0.05 49.2361 44.167)" style="font:normal normal normal 198px 'Helvetica'" >
O</text>
<path stroke="transparent" fill="#000000" transform="matrix(0.05 0 0 0.05 -93 -43)" d="M 2825.82,1614.57 L 2819.81,1624.99 L 2664.57,1535.49 L 2664.57,1521.6 L 2825.82,1614.57 Z " />
<path stroke="transparent" fill="#000000" transform="matrix(0.05 0 0 0.05 -93 -43)" d="M 3163.12,1521.6 L 3163.12,1535.49 L 3007.98,1625.01 L 3001.96,1614.59 L 3163.12,1521.6 Z " />
<path stroke="transparent" fill="#000000" transform="matrix(0.05 0 0 0.05 -93 -43)" d="M 3415.49,1667.12 L 3409.49,1677.54 L 3163.12,1535.49 L 3163.12,1521.6 L 3415.49,1667.12 Z " />
<text x="0" y="0" stroke="transparent" fill="#000000" transform="matrix(0.05 0 0 0.05 11.8301 22.5793)" style="font:normal normal normal 198px 'Helvetica'" >
O</text>
<path stroke="transparent" fill="#000000" transform="matrix(0.05 0 0 0.05 -93 -43)" d="M 2133.89,1349.66 L 2145.92,1349.66 L 2145.92,1543.49 L 2133.89,1543.49 L 2133.89,1349.66 Z " />
<path stroke="transparent" fill="#000000" transform="matrix(0.05 0 0 0.05 -93 -43)" d="M 2185.73,1349.66 L 2197.76,1349.66 L 2197.76,1543.49 L 2185.73,1543.49 L 2185.73,1349.66 Z " />
<text x="0" y="0" stroke="transparent" fill="#000000" transform="matrix(0.05 0 0 0.05 36.7674 22.5793)" style="font:normal normal normal 198px 'Helvetica'" >
O</text>
<path stroke="transparent" fill="#000000" transform="matrix(0.05 0 0 0.05 -93 -43)" d="M 2632.64,1349.66 L 2644.67,1349.66 L 2644.67,1543.49 L 2632.64,1543.49 L 2632.64,1349.66 Z " />
<path stroke="transparent" fill="#000000" transform="matrix(0.05 0 0 0.05 -93 -43)" d="M 2684.47,1349.66 L 2696.5,1349.66 L 2696.5,1543.49 L 2684.47,1543.49 L 2684.47,1349.66 Z " />
<text x="0" y="0" stroke="transparent" fill="#000000" transform="matrix(0.05 0 0 0.05 91.1308 26.2387)" style="font:normal normal normal 198px 'Helvetica'" >
NaOEt </text>
<text x="0" y="0" stroke="transparent" fill="#000000" transform="matrix(0.05 0 0 0.05 123.591 26.2387)" style="font:normal normal normal 198px 'Helvetica'" >
/ </text>
<text x="0" y="0" stroke="transparent" fill="#000000" transform="matrix(0.05 0 0 0.05 129.092 26.2387)" style="font:normal normal normal 198px 'Helvetica'" >
EtOH</text>
<text x="0" y="0" stroke="transparent" fill="#000000" transform="matrix(0.05 0 0 0.05 111.517 47.3666)" style="font:normal normal normal 198px 'Helvetica'" >
O</text>
<path stroke="transparent" fill="#000000" transform="matrix(0.05 0 0 0.05 -93 -43)" d="M 4165.58,2013.87 L 4153.55,2034.71 L 4153.55,1845.41 L 4165.58,1845.41 L 4165.58,2013.87 Z " />
<path stroke="transparent" fill="#000000" transform="matrix(0.05 0 0 0.05 -93 -43)" d="M 4396.91,1880.31 L 4408.94,1880.31 L 4408.94,1887.25 L 4153.55,2034.71 L 4165.58,2013.87 L 4396.91,1880.31 Z " />
<path stroke="transparent" fill="#000000" transform="matrix(0.05 0 0 0.05 -93 -43)" d="M 4247.22,1793.88 L 4253.23,1783.46 L 4405.15,1871.17 L 4408.94,1880.31 L 4396.91,1880.31 L 4247.22,1793.88 Z " />
<path stroke="transparent" fill="#000000" transform="matrix(0.05 0 0 0.05 -93 -43)" d="M 4477.52,1600.58 L 4489.14,1603.69 L 4415.94,1877.4 L 4408.94,1880.31 L 4405.15,1871.17 L 4477.52,1600.58 Z " />
<path stroke="transparent" fill="#000000" transform="matrix(0.05 0 0 0.05 -93 -43)" d="M 4661.12,2019.08 L 4655.1,2029.5 L 4408.94,1887.25 L 4408.94,1880.31 L 4415.94,1877.4 L 4661.12,2019.08 Z " />
<path stroke="transparent" fill="#000000" transform="matrix(0.05 0 0 0.05 -93 -43)" d="M 6004.7,1259.63 L 6004.7,1273.52 L 5758.33,1415.77 L 5752.32,1405.35 L 6004.7,1259.63 Z " />
<path stroke="transparent" fill="#000000" transform="matrix(0.05 0 0 0.05 -93 -43)" d="M 6254.07,1403.61 L 6254.07,1410.56 L 6248.74,1414.43 L 6004.7,1273.52 L 6004.7,1259.63 L 6254.07,1403.61 Z " />
<path stroke="transparent" fill="#000000" transform="matrix(0.05 0 0 0.05 -93 -43)" d="M 6504.22,1259.18 L 6502.67,1273.97 L 6260.86,1413.58 L 6254.07,1410.56 L 6254.07,1403.61 L 6504.22,1259.18 Z " />
<text x="0" y="0" stroke="transparent" fill="#000000" transform="matrix(0.05 0 0 0.05 203.774 9.48072)" style="font:normal normal normal 198px 'Helvetica'" >
O</text>
<path stroke="transparent" fill="#000000" transform="matrix(0.05 0 0 0.05 -93 -43)" d="M 5972.76,1087.69 L 5984.8,1087.69 L 5984.8,1281.54 L 5972.76,1281.54 L 5972.76,1087.69 Z " />
<path stroke="transparent" fill="#000000" transform="matrix(0.05 0 0 0.05 -93 -43)" d="M 6024.6,1087.69 L 6036.63,1087.69 L 6036.63,1281.54 L 6024.6,1281.54 L 6024.6,1087.69 Z " />
<text x="0" y="0" stroke="transparent" fill="#000000" transform="matrix(0.05 0 0 0.05 228.711 9.48072)" style="font:normal normal normal 198px 'Helvetica'" >
O</text>
<path stroke="transparent" fill="#000000" transform="matrix(0.05 0 0 0.05 -93 -43)" d="M 6471.51,1087.69 L 6483.54,1087.69 L 6483.54,1281.54 L 6471.51,1281.54 L 6471.51,1087.69 Z " />
<path stroke="transparent" fill="#000000" transform="matrix(0.05 0 0 0.05 -93 -43)" d="M 6523.35,1087.69 L 6535.38,1087.69 L 6535.38,1289.9 L 6523.35,1289.9 L 6523.35,1087.69 Z " />
<text x="0" y="0" stroke="transparent" fill="#000000" transform="matrix(0.05 0 0 0.05 239.41 33.5081)" style="font:normal normal normal 198px 'Helvetica'" >
O</text>
<path stroke="transparent" fill="#000000" transform="matrix(0.05 0 0 0.05 -93 -43)" d="M 6318.84,1686.4 L 6308.89,1697.45 L 6248.74,1414.43 L 6254.07,1410.56 L 6260.86,1413.58 L 6318.84,1686.4 Z " />
<path stroke="transparent" fill="#000000" transform="matrix(0.05 0 0 0.05 -93 -43)" d="M 6596.52,1715.68 L 6600.23,1722.12 L 6594.22,1727.54 L 6308.89,1697.45 L 6318.84,1686.4 L 6596.52,1715.68 Z " />
<path stroke="transparent" fill="#000000" transform="matrix(0.05 0 0 0.05 -93 -43)" d="M 6667,1557.52 L 6677.99,1562.42 L 6607.93,1719.62 L 6600.23,1722.12 L 6596.52,1715.68 L 6667,1557.52 Z " />
<path stroke="transparent" fill="#000000" transform="matrix(0.05 0 0 0.05 -93 -43)" d="M 6502.67,1273.97 L 6504.22,1259.18 L 6642.38,1383.52 L 6634.33,1392.46 L 6502.67,1273.97 Z " />
<path stroke="transparent" fill="#000000" transform="matrix(0.05 0 0 0.05 -93 -43)" d="M 6606.25,2009.89 L 6594.22,2009.89 L 6594.22,1727.54 L 6600.23,1722.12 L 6606.25,1732.54 L 6606.25,2009.89 Z " />
<path stroke="transparent" fill="#000000" transform="matrix(0.05 0 0 0.05 -93 -43)" d="M 6852.61,1860.7 L 6846.6,1871.12 L 6606.25,1732.54 L 6600.23,1722.12 L 6607.93,1719.62 L 6852.61,1860.7 Z " />
<path stroke="transparent" fill="#000000" transform="matrix(0.05 0 0 0.05 -93 -43)" d="M 7910.84,1331.22 L 7910.84,1345.11 L 7664.48,1487.36 L 7658.46,1476.94 L 7910.84,1331.22 Z " />
<text x="0" y="0" stroke="transparent" fill="#000000" transform="matrix(0.05 0 0 0.05 311.55 34.658)" style="font:normal normal normal 198px 'Helvetica'" >
OH</text>
<path stroke="transparent" fill="#000000" transform="matrix(0.05 0 0 0.05 -93 -43)" d="M 8072.87,1424.77 L 8066.85,1435.19 L 7910.84,1345.11 L 7910.84,1331.22 L 8072.87,1424.77 Z " />
<text x="0" y="0" stroke="transparent" fill="#000000" transform="matrix(0.05 0 0 0.05 267.757 32.9772)" style="font:normal normal normal 278px 'Helvetica'" >
+</text>
<path stroke="transparent" fill="#000000" transform="matrix(0.05 0 0 0.05 -93 -43)" d="M 5458.64,1472.35 L 3576.03,1472.35 L 3576.03,1460.35 L 5458.64,1460.35 Z " />
<path stroke="transparent" fill="#000000" transform="matrix(0.05 0 0 0.05 -93 -43)" d="M 5615.61,1466.35 C 5615.61,1466.35 5435.14,1512.47 5435.14,1512.47 C 5435.14,1512.47 5457.64,1486.53 5457.64,1466.35 C 5457.64,1445.73 5435.14,1419.23 5435.14,1419.23 C 5435.14,1419.23 5615.61,1466.35 5615.61,1466.35 C 5615.61,1466.35 5615.61,1466.35 5615.61,1466.35 " />
<path stroke="#000000" stroke-width="1" fill="transparent" transform="matrix(0.05 0 0 0.05 -93 -43)" d="M 5615.61,1466.35 C 5615.61,1466.35 5435.14,1512.47 5435.14,1512.47 C 5435.14,1512.47 5457.64,1486.53 5457.64,1466.35 C 5457.64,1445.73 5435.14,1419.23 5435.14,1419.23 C 5435.14,1419.23 5615.61,1466.35 5615.61,1466.35 C 5615.61,1466.35 5615.61,1466.35 5615.61,1466.35 " />
</svg>
