<?xml version="1.0" standalone="no" ?>
<!DOCTYPE svg PUBLIC "-//W3C//DTD SVG 1.1//EN" "http://www.w3.org/Graphics/SVG/1.1/DTD/svg11.dtd">
<svg width="231px" height="40px" viewBox="0 0 231 40" style="background-color: #ffffff00" xmlns="http://www.w3.org/2000/svg" xmlns:xlink="http://www.w3.org/1999/xlink" version="1.1" >
<path stroke="transparent" fill="#000000" transform="matrix(0.05 0 0 0.05 -144 -517)" d="M 3678.99,10767.1 L 3685.44,10770.3 L 3685.44,10777.3 L 3436.05,10921.3 L 3436.05,10907.4 L 3678.99,10767.1 Z " />
<path stroke="transparent" fill="#000000" transform="matrix(0.05 0 0 0.05 -144 -517)" d="M 3934.83,10907.4 L 3934.83,10921.3 L 3685.44,10777.3 L 3685.44,10770.3 L 3691.89,10767.1 L 3934.83,10907.4 Z " />
<path stroke="transparent" fill="#000000" transform="matrix(0.05 0 0 0.05 -144 -517)" d="M 4181.21,10765.1 L 4187.23,10775.6 L 3934.83,10921.3 L 3934.83,10907.4 L 4181.21,10765.1 Z " />
<text x="0" y="0" stroke="transparent" fill="#000000" transform="matrix(0.05 0 0 0.05 36.776 10.7054)" style="font:normal normal normal 200px 'Helvetica'" >
OH</text>
<path stroke="transparent" fill="#000000" transform="matrix(0.05 0 0 0.05 -144 -517)" d="M 3655.44,10592.7 L 3715.44,10592.7 L 3691.89,10767.1 L 3685.44,10770.3 L 3678.99,10767.1 L 3655.44,10592.7 Z " />
<path stroke="transparent" fill="#000000" transform="matrix(0.05 0 0 0.05 -144 -517)" d="M 3186.67,10777.3 L 3186.67,10770.3 L 3192.68,10766.9 L 3436.05,10907.4 L 3436.05,10921.3 L 3186.67,10777.3 Z " />
<path stroke="transparent" fill="#000000" transform="matrix(0.05 0 0 0.05 -144 -517)" d="M 2940.29,10919.5 L 2934.27,10909.1 L 3174.64,10770.3 L 3186.67,10770.3 L 3186.67,10777.3 L 2940.29,10919.5 Z " />
<path stroke="transparent" fill="#000000" transform="matrix(0.05 0 0 0.05 -144 -517)" d="M 3180.65,10482.4 L 3192.68,10482.4 L 3192.68,10766.9 L 3186.67,10770.3 L 3180.65,10759.9 L 3180.65,10482.4 Z " />
<path stroke="transparent" fill="#000000" transform="matrix(0.05 0 0 0.05 -144 -517)" d="M 2934.27,10631.6 L 2940.29,10621.2 L 3180.65,10759.9 L 3186.67,10770.3 L 3174.64,10770.3 L 2934.27,10631.6 Z " />
<path stroke="transparent" fill="#000000" transform="matrix(0.05 0 0 0.05 -144 -517)" d="M 5925.73,10736 L 4470,10736 L 4470,10724 L 5925.73,10724 Z " />
<path stroke="transparent" fill="#000000" transform="matrix(0.05 0 0 0.05 -144 -517)" d="M 6030,10730 C 6030,10730 5909.69,10761.1 5909.69,10761.1 C 5909.69,10761.1 5924.73,10743.6 5924.73,10730 C 5924.73,10716 5909.69,10697.9 5909.69,10697.9 C 5909.69,10697.9 6030,10730 6030,10730 C 6030,10730 6030,10730 6030,10730 " />
<path stroke="#000000" stroke-width="1" fill="transparent" transform="matrix(0.05 0 0 0.05 -144 -517)" d="M 6030,10730 C 6030,10730 5909.69,10761.1 5909.69,10761.1 C 5909.69,10761.1 5924.73,10743.6 5924.73,10730 C 5924.73,10716 5909.69,10697.9 5909.69,10697.9 C 5909.69,10697.9 6030,10730 6030,10730 C 6030,10730 6030,10730 6030,10730 " />
<text x="0" y="0" stroke="transparent" fill="#000000" transform="matrix(0.05 0 0 0.05 79.1667 12.9159)" style="font:normal normal normal 200px 'Helvetica'" >
2) </text>
<text x="0" y="0" stroke="transparent" fill="#000000" transform="matrix(0.05 0 0 0.05 90.8366 12.9159)" style="font:normal normal normal 200px 'Helvetica'" >
Dess-Martin</text>
<text x="0" y="0" stroke="transparent" fill="#000000" transform="matrix(0.05 0 0 0.05 95.8354 34.5659)" style="font:normal normal normal 200px 'Helvetica'" >
CH</text>
<text x="0" y="0" stroke="transparent" fill="#000000" transform="matrix(0.05 0 0 0.05 110.279 36.8657)" style="font:normal normal normal 150px 'Helvetica'" >
2</text>
<text x="0" y="0" stroke="transparent" fill="#000000" transform="matrix(0.05 0 0 0.05 114.45 34.5659)" style="font:normal normal normal 200px 'Helvetica'" >
Cl</text>
<text x="0" y="0" stroke="transparent" fill="#000000" transform="matrix(0.05 0 0 0.05 123.893 36.8657)" style="font:normal normal normal 150px 'Helvetica'" >
2</text>
<path stroke="transparent" fill="#000000" transform="matrix(0.05 0 0 0.05 -144 -517)" d="M 6955.44,10753.4 L 6955.44,10767.3 L 6706.05,10911.3 L 6706.05,10897.4 L 6955.44,10753.4 Z " />
<path stroke="transparent" fill="#000000" transform="matrix(0.05 0 0 0.05 -144 -517)" d="M 7204.83,10897.4 L 7204.83,10911.3 L 6955.44,10767.3 L 6955.44,10753.4 L 7204.83,10897.4 Z " />
<path stroke="transparent" fill="#000000" transform="matrix(0.05 0 0 0.05 -144 -517)" d="M 7451.21,10755.1 L 7457.23,10765.6 L 7204.83,10911.3 L 7204.83,10897.4 L 7451.21,10755.1 Z " />
<text x="0" y="0" stroke="transparent" fill="#000000" transform="matrix(0.05 0 0 0.05 200.276 10.2054)" style="font:normal normal normal 200px 'Helvetica'" >
O</text>
<path stroke="transparent" fill="#000000" transform="matrix(0.05 0 0 0.05 -144 -517)" d="M 6923.51,10582.7 L 6935.54,10582.7 L 6935.54,10775.3 L 6923.51,10775.3 L 6923.51,10582.7 Z " />
<path stroke="transparent" fill="#000000" transform="matrix(0.05 0 0 0.05 -144 -517)" d="M 6975.34,10582.7 L 6987.38,10582.7 L 6987.38,10775.3 L 6975.34,10775.3 L 6975.34,10582.7 Z " />
<path stroke="transparent" fill="#000000" transform="matrix(0.05 0 0 0.05 -144 -517)" d="M 6456.67,10767.3 L 6456.67,10760.3 L 6462.68,10756.9 L 6706.05,10897.4 L 6706.05,10911.3 L 6456.67,10767.3 Z " />
<path stroke="transparent" fill="#000000" transform="matrix(0.05 0 0 0.05 -144 -517)" d="M 6210.29,10909.5 L 6204.27,10899.1 L 6444.64,10760.3 L 6456.67,10760.3 L 6456.67,10767.3 L 6210.29,10909.5 Z " />
<path stroke="transparent" fill="#000000" transform="matrix(0.05 0 0 0.05 -144 -517)" d="M 6450.65,10472.4 L 6462.68,10472.4 L 6462.68,10756.9 L 6456.67,10760.3 L 6450.65,10749.9 L 6450.65,10472.4 Z " />
<path stroke="transparent" fill="#000000" transform="matrix(0.05 0 0 0.05 -144 -517)" d="M 6204.27,10621.6 L 6210.29,10611.2 L 6450.65,10749.9 L 6456.67,10760.3 L 6444.64,10760.3 L 6204.27,10621.6 Z " />
</svg>
