<?xml version="1.0" standalone="no" ?>
<!DOCTYPE svg PUBLIC "-//W3C//DTD SVG 1.1//EN" "http://www.w3.org/Graphics/SVG/1.1/DTD/svg11.dtd">
<svg width="223px" height="104px" viewBox="0 0 223 104" style="background-color: #ffffff00" xmlns="http://www.w3.org/2000/svg" xmlns:xlink="http://www.w3.org/1999/xlink" version="1.1" >
<path stroke="transparent" fill="#000000" transform="matrix(0.05 0 0 0.05 -153 -214)" d="M 4183.2,5259.54 L 4171.2,5266.46 L 4171.2,4971.54 L 4183.2,4978.46 L 4183.2,5259.54 Z " />
<path stroke="transparent" fill="#000000" transform="matrix(0.05 0 0 0.05 -153 -214)" d="M 4235.04,5233.07 L 4223.04,5233.07 L 4223.04,5004.93 L 4235.04,5004.93 L 4235.04,5233.07 Z " />
<path stroke="transparent" fill="#000000" transform="matrix(0.05 0 0 0.05 -153 -214)" d="M 4426.6,5400.07 L 4426.6,5413.93 L 4171.2,5266.46 L 4183.2,5259.54 L 4426.6,5400.07 Z " />
<path stroke="transparent" fill="#000000" transform="matrix(0.05 0 0 0.05 -153 -214)" d="M 4670,5259.54 L 4676,5263 L 4676,5269.93 L 4426.6,5413.93 L 4426.6,5400.07 L 4670,5259.54 Z " />
<path stroke="transparent" fill="#000000" transform="matrix(0.05 0 0 0.05 -153 -214)" d="M 4621.16,5227.88 L 4627.16,5238.27 L 4429.6,5352.34 L 4423.6,5341.95 L 4621.16,5227.88 Z " />
<path stroke="transparent" fill="#000000" transform="matrix(0.05 0 0 0.05 -153 -214)" d="M 4670,4978.46 L 4682,4971.54 L 4682,5259.54 L 4676,5263 L 4670,5259.54 L 4670,4978.46 Z " />
<path stroke="transparent" fill="#000000" transform="matrix(0.05 0 0 0.05 -153 -214)" d="M 4426.6,4837.93 L 4426.6,4831 L 4432.6,4827.54 L 4682,4971.54 L 4670,4978.46 L 4426.6,4837.93 Z " />
<path stroke="transparent" fill="#000000" transform="matrix(0.05 0 0 0.05 -153 -214)" d="M 4423.6,4896.05 L 4429.6,4885.66 L 4627.16,4999.73 L 4621.16,5010.12 L 4423.6,4896.05 Z " />
<path stroke="transparent" fill="#000000" transform="matrix(0.05 0 0 0.05 -153 -214)" d="M 4183.2,4978.46 L 4171.2,4971.54 L 4420.6,4827.54 L 4426.6,4831 L 4426.6,4837.93 L 4183.2,4978.46 Z " />
<text x="0" y="0" stroke="transparent" fill="#3dabc8" transform="matrix(0.05 0 0 0.05 65.1488 16.7364)" style="font:normal normal normal 200px 'Helvetica'" >
Cl</text>
<path stroke="transparent" fill="#3dabc8" transform="matrix(0.05 0 0 0.05 -153 -214)" d="M 4420.6,4652.32 L 4432.6,4652.32 L 4432.6,4827.54 L 4426.6,4831 L 4420.6,4827.54 L 4420.6,4652.32 Z " />
<path stroke="transparent" fill="#000000" transform="matrix(0.05 0 0 0.05 -153 -214)" d="M 4925.4,5400.07 L 4925.4,5413.93 L 4676,5269.93 L 4676,5263 L 4682,5259.54 L 4925.4,5400.07 Z " />
<path stroke="transparent" fill="#9342a2" transform="matrix(0.05 0 0 0.05 -153 -214)" d="M 5174.8,5256.07 L 5174.8,5269.93 L 4925.4,5413.93 L 4925.4,5400.07 L 5174.8,5256.07 Z " />
<path stroke="transparent" fill="#9342a2" transform="matrix(0.05 0 0 0.05 -153 -214)" d="M 5424.2,5400.07 L 5424.2,5413.93 L 5174.8,5269.93 L 5174.8,5256.07 L 5424.2,5400.07 Z " />
<path stroke="transparent" fill="#9342a2" transform="matrix(0.05 0 0 0.05 -153 -214)" d="M 5670.6,5257.8 L 5676.6,5268.2 L 5424.2,5413.93 L 5424.2,5400.07 L 5670.6,5257.8 Z " />
<text x="0" y="0" stroke="transparent" fill="#9342a2" transform="matrix(0.05 0 0 0.05 89.7739 74.3264)" style="font:normal normal normal 200px 'Helvetica'" >
O</text>
<path stroke="transparent" fill="#9342a2" transform="matrix(0.05 0 0 0.05 -153 -214)" d="M 4957.3,5588.12 L 4945.3,5588.12 L 4945.3,5392.04 L 4957.3,5392.04 L 4957.3,5588.12 Z " />
<path stroke="transparent" fill="#9342a2" transform="matrix(0.05 0 0 0.05 -153 -214)" d="M 4905.5,5588.12 L 4893.5,5588.12 L 4893.5,5392.04 L 4905.5,5392.04 L 4905.5,5588.12 Z " />
<text x="0" y="0" stroke="transparent" fill="#9342a2" transform="matrix(0.05 0 0 0.05 101 34)" style="font:normal normal normal 200px 'Helvetica'" >
Acylation </text>
<text x="0" y="0" stroke="transparent" fill="#9342a2" transform="matrix(0.05 0 0 0.05 144.354 34)" style="font:normal normal normal 200px 'Helvetica'" >
via </text>
<text x="0" y="0" stroke="transparent" fill="#9342a2" transform="matrix(0.05 0 0 0.05 159.916 34)" style="font:normal normal normal 200px 'Helvetica'" >
Friedel-Crafts</text>
<text x="0" y="0" stroke="transparent" fill="#3dabc8" transform="matrix(0.05 0 0 0.05 2 10)" style="font:normal normal normal 200px 'Helvetica'" >
Chlorination</text>
<clipPath id="1" >
<path transform="matrix(0.05 0 0 0.05 -153 -214)" clip-rule="evenodd" d="M 5120,5900 C 5120,5900 5120,5478.8 5120,5478.8 C 5120,5478.8 4718.8,5478.8 4718.8,5478.8 C 4718.8,5478.8 4718.8,5900 4718.8,5900 C 4718.8,5900 5120,5900 5120,5900 M 5168,5948 C 5168,5948 5168,5526.8 5168,5526.8 C 5168,5526.8 4766.8,5526.8 4766.8,5526.8 C 4766.8,5526.8 4766.8,5948 4766.8,5948 C 4766.8,5948 5168,5948 5168,5948 " />
</clipPath>
<g clip-path="url(#1)" >
<path stroke="transparent" fill="#de6f24" transform="matrix(0.05 0 0 0.05 -152.5 -213.5)" fill-opacity="0.498039" d="M 5168,5948 C 5168,5948 5168,5526.8 5168,5526.8 C 5168,5526.8 4766.8,5526.8 4766.8,5526.8 C 4766.8,5526.8 4766.8,5948 4766.8,5948 C 4766.8,5948 5168,5948 5168,5948 " />
</g>
<path stroke="#de6f24" stroke-width="12" fill="transparent" transform="matrix(0.05 0 0 0.05 -153 -214)" d="M 5120,5900 C 5120,5900 5120,5478.8 5120,5478.8 C 5120,5478.8 4718.8,5478.8 4718.8,5478.8 C 4718.8,5478.8 4718.8,5900 4718.8,5900 C 4718.8,5900 5120,5900 5120,5900 " />
<text x="0" y="0" stroke="transparent" fill="#de6f24" transform="matrix(0.05 0 0 0.05 40 99)" style="font:normal normal normal 200px 'Helvetica'" >
Reduction </text>
<text x="0" y="0" stroke="transparent" fill="#de6f24" transform="matrix(0.05 0 0 0.05 87.8076 99)" style="font:normal normal normal 200px 'Helvetica'" >
of </text>
<text x="0" y="0" stroke="transparent" fill="#de6f24" transform="matrix(0.05 0 0 0.05 98.9258 99)" style="font:normal normal normal 200px 'Helvetica'" >
the </text>
<text x="0" y="0" stroke="transparent" fill="#de6f24" transform="matrix(0.05 0 0 0.05 115.605 99)" style="font:normal normal normal 200px 'Helvetica'" >
carbonyl</text>
</svg>
