<?xml version="1.0" standalone="no" ?>
<!DOCTYPE svg PUBLIC "-//W3C//DTD SVG 1.1//EN" "http://www.w3.org/Graphics/SVG/1.1/DTD/svg11.dtd">
<svg width="76px" height="76px" viewBox="0 0 76 76" style="background-color: #ffffff00" xmlns="http://www.w3.org/2000/svg" xmlns:xlink="http://www.w3.org/1999/xlink" version="1.1" >
<text x="0" y="0" stroke="transparent" fill="#000000" transform="matrix(0.05 0 0 0.05 40.0153 58.6771)" style="font:normal normal normal 200px 'Helvetica'" >
Et</text>
<path stroke="transparent" fill="#000000" transform="matrix(0.05 0 0 0.05 -46 -323)" d="M 1779.35,7457.05 L 1767.32,7457.05 L 1767.32,7123.52 L 1773.33,7120 L 1779.35,7120 L 1779.35,7457.05 Z " />
<path stroke="transparent" fill="#000000" transform="matrix(0.05 0 0 0.05 -46 -323)" d="M 1470.6,6956.35 L 1470.57,6949.43 L 1476.58,6945.91 L 1773.3,7113.07 L 1773.33,7120 L 1767.32,7123.52 L 1470.6,6956.35 Z " />
<text x="0" y="0" stroke="transparent" fill="#0000ff" transform="matrix(0.05 0 0 0.05 59.7281 25.0925)" style="font:normal normal normal 200px 'Helvetica'" >
H</text>
<path stroke="transparent" fill="#000000" transform="matrix(0.05 0 0 0.05 -46 -323)" d="M 2066.77,6943.64 L 2072.78,6954.06 L 1776.34,7125.21 L 1773.33,7120 L 1773.3,7113.07 L 2066.77,6943.64 Z " />
<path stroke="transparent" fill="#ffffff" transform="matrix(0.05 0 0 0.05 -46 -323)" d="M 1600.65,7120 A 172.685,172.685 0 1 0 1946.02,7120A 172.685,172.685 0 1 0 1600.65,7120Z " />
<path stroke="#000000" stroke-width="12" fill="transparent" transform="matrix(0.05 0 0 0.05 -46 -323)" d="M 1600.65,7120 A 172.685,172.685 0 1 0 1946.02,7120A 172.685,172.685 0 1 0 1600.65,7120Z " />
<text x="0" y="0" stroke="transparent" fill="#000000" transform="matrix(0.05 0 0 0.05 39.2292 15.2531)" style="font:normal normal normal 200px 'Helvetica'" >
Me</text>
<path stroke="transparent" fill="#000000" transform="matrix(0.05 0 0 0.05 -46 -323)" d="M 1767.32,6796.64 L 1779.35,6796.64 L 1779.35,7120 L 1773.33,7120 L 1767.32,7116.53 L 1767.32,6796.64 Z " />
<text x="0" y="0" stroke="transparent" fill="#000000" transform="matrix(0.05 0 0 0.05 54.7977 45.2338)" style="font:normal normal normal 200px 'Helvetica'" >
H</text>
<path stroke="transparent" fill="#000000" transform="matrix(0.05 0 0 0.05 -46 -323)" d="M 1973.54,7228.64 L 1967.53,7239.06 L 1773.33,7126.95 L 1773.33,7120 L 1776.34,7114.79 L 1973.54,7228.64 Z " />
<text x="0" y="0" stroke="transparent" fill="#0000ff" transform="matrix(0.05 0 0 0.05 18.0851 45.7394)" style="font:normal normal normal 200px 'Helvetica'" >
Br</text>
<path stroke="transparent" fill="#000000" transform="matrix(0.05 0 0 0.05 -46 -323)" d="M 1525.02,7270.31 L 1519,7259.89 L 1767.32,7116.53 L 1773.33,7120 L 1773.33,7126.95 L 1525.02,7270.31 Z " />
<path stroke="transparent" fill="#000000" transform="matrix(0.05 0 0 0.05 -46 -323)" d="M 1464.41,6664.94 L 1476.44,6657.98 L 1476.58,6945.91 L 1470.57,6949.43 L 1464.55,6945.95 L 1464.41,6664.94 Z " />
<path stroke="transparent" fill="#000000" transform="matrix(0.05 0 0 0.05 -46 -323)" d="M 1412.59,6691.41 L 1424.62,6691.41 L 1424.73,6919.48 L 1412.7,6919.49 L 1412.59,6691.41 Z " />
<path stroke="transparent" fill="#000000" transform="matrix(0.05 0 0 0.05 -46 -323)" d="M 1220.97,6524.54 L 1220.97,6510.65 L 1476.44,6657.98 L 1464.41,6664.94 L 1220.97,6524.54 Z " />
<path stroke="transparent" fill="#000000" transform="matrix(0.05 0 0 0.05 -46 -323)" d="M 977.666,6664.93 L 965.635,6657.99 L 1220.97,6510.65 L 1220.97,6524.54 L 977.666,6664.93 Z " />
<path stroke="transparent" fill="#000000" transform="matrix(0.05 0 0 0.05 -46 -323)" d="M 1026.47,6696.59 L 1020.46,6686.17 L 1217.97,6572.2 L 1223.98,6582.62 L 1026.47,6696.59 Z " />
<path stroke="transparent" fill="#000000" transform="matrix(0.05 0 0 0.05 -46 -323)" d="M 977.666,6945.95 L 965.635,6952.9 L 965.635,6657.99 L 977.666,6664.93 L 977.666,6945.95 Z " />
<path stroke="transparent" fill="#000000" transform="matrix(0.05 0 0 0.05 -46 -323)" d="M 1220.97,7086.35 L 1220.97,7100.24 L 965.635,6952.9 L 977.666,6945.95 L 1220.97,7086.35 Z " />
<path stroke="transparent" fill="#000000" transform="matrix(0.05 0 0 0.05 -46 -323)" d="M 1223.99,7028.27 L 1217.98,7038.69 L 1020.46,6924.72 L 1026.47,6914.3 L 1223.99,7028.27 Z " />
<path stroke="transparent" fill="#000000" transform="matrix(0.05 0 0 0.05 -46 -323)" d="M 1464.55,6945.95 L 1470.57,6949.43 L 1470.6,6956.35 L 1220.97,7100.24 L 1220.97,7086.35 L 1464.55,6945.95 Z " />
<text x="0" y="0" stroke="transparent" fill="#000000" transform="matrix(0.05 0 0 0.05 8.66666 71)" style="font:normal normal normal 200px 'Helvetica'" >
Anti-periplanar</text>
</svg>
