<?xml version="1.0" standalone="no" ?>
<!DOCTYPE svg PUBLIC "-//W3C//DTD SVG 1.1//EN" "http://www.w3.org/Graphics/SVG/1.1/DTD/svg11.dtd">
<svg width="368px" height="110px" viewBox="0 0 368 110" style="background-color: #ffffff00" xmlns="http://www.w3.org/2000/svg" xmlns:xlink="http://www.w3.org/1999/xlink" version="1.1" >
<path stroke="transparent" fill="#000000" transform="matrix(0.05 0 0 0.05 -158 -193)" d="M 3727.04,4500.54 L 3721.04,4504 L 3715.04,4500.22 L 3715.04,4212.54 L 3727.04,4219.46 L 3727.04,4500.54 Z " />
<path stroke="transparent" fill="#000000" transform="matrix(0.05 0 0 0.05 -158 -193)" d="M 3970.44,4641.07 L 3970.44,4654.93 L 3721.31,4511.09 L 3721.04,4504 L 3727.04,4500.54 L 3970.44,4641.07 Z " />
<path stroke="transparent" fill="#000000" transform="matrix(0.05 0 0 0.05 -158 -193)" d="M 4213.84,4500.54 L 4225.84,4507.46 L 3970.44,4654.93 L 3970.44,4641.07 L 4213.84,4500.54 Z " />
<path stroke="transparent" fill="#000000" transform="matrix(0.05 0 0 0.05 -158 -193)" d="M 4213.84,4219.46 L 4219.84,4216 L 4225.84,4219.96 L 4225.84,4507.46 L 4213.84,4500.54 L 4213.84,4219.46 Z " />
<path stroke="transparent" fill="#000000" transform="matrix(0.05 0 0 0.05 -158 -193)" d="M 3970.44,4078.93 L 3970.44,4065.07 L 4219.41,4208.82 L 4219.84,4216 L 4213.84,4219.46 L 3970.44,4078.93 Z " />
<path stroke="transparent" fill="#000000" transform="matrix(0.05 0 0 0.05 -158 -193)" d="M 3727.04,4219.46 L 3715.04,4212.54 L 3970.44,4065.07 L 3970.44,4078.93 L 3727.04,4219.46 Z " />
<path stroke="transparent" fill="#000000" transform="matrix(0.05 0 0 0.05 -158 -193)" d="M 3477.64,4680.23 L 3471.64,4648 L 3446.74,4626.68 L 3715.04,4500.22 L 3721.04,4504 L 3721.31,4511.09 L 3477.64,4680.23 Z " />
<path stroke="transparent" fill="#000000" transform="matrix(0.05 0 0 0.05 -158 -193)" d="M 3219.44,4509.19 L 3225.44,4498.8 L 3446.74,4626.68 L 3471.64,4648 L 3465.64,4651.46 L 3219.44,4509.19 Z " />
<path stroke="transparent" fill="#000000" transform="matrix(0.05 0 0 0.05 -158 -193)" d="M 3477.64,4936 L 3465.64,4936 L 3465.64,4651.46 L 3471.64,4648 L 3477.64,4680.23 L 3477.64,4936 Z " />
<text x="0" y="0" stroke="transparent" fill="#000000" transform="matrix(0.05 0 0 0.05 61.9659 14.1864)" style="font:normal normal normal 200px 'Helvetica'" >
OTf</text>
<path stroke="transparent" fill="#000000" transform="matrix(0.05 0 0 0.05 -158 -193)" d="M 4360.51,4100.14 L 4390.51,4152.1 L 4225.84,4219.96 L 4219.84,4216 L 4219.41,4208.82 L 4360.51,4100.14 Z " />
<text x="0" y="0" stroke="transparent" fill="#000000" transform="matrix(0.05 0 0 0.05 107.761 33.8864)" style="font:normal normal normal 200px 'Helvetica'" >
C</text>
<text x="0" y="0" stroke="transparent" fill="#000000" transform="matrix(0.05 0 0 0.05 122.495 33.6164)" style="font:normal normal normal 200px 'Helvetica'" >
N</text>
<path stroke="transparent" fill="#000000" transform="matrix(0.05 0 0 0.05 -158 -193)" d="M 5575.8,4404.45 L 5576.02,4416.45 L 5473.52,4418.37 L 5473.3,4406.37 L 5575.8,4404.45 Z " />
<path stroke="transparent" fill="#000000" transform="matrix(0.05 0 0 0.05 -158 -193)" d="M 5576.77,4456.29 L 5577,4468.29 L 5474.5,4470.21 L 5474.27,4458.21 L 5576.77,4456.29 Z " />
<path stroke="transparent" fill="#000000" transform="matrix(0.05 0 0 0.05 -158 -193)" d="M 5577.74,4508.13 L 5577.97,4520.13 L 5475.47,4522.05 L 5475.24,4510.05 L 5577.74,4508.13 Z " />
<path stroke="transparent" fill="#000000" transform="matrix(0.05 0 0 0.05 -158 -193)" d="M 5204.77,4428.4 A 16.6667,16.6667 0 1 0 5238.11,4428.4A 16.6667,16.6667 0 1 0 5204.77,4428.4Z " />
<path stroke="transparent" fill="#000000" transform="matrix(0.05 0 0 0.05 -158 -193)" d="M 5204.77,4503.4 A 16.6667,16.6667 0 1 0 5238.11,4503.4A 16.6667,16.6667 0 1 0 5204.77,4503.4Z " />
<path stroke="transparent" fill="#000000" transform="matrix(0.05 0 0 0.05 -158 -193)" d="M 5807.57,4498 A 16.6667,16.6667 0 1 0 5840.91,4498A 16.6667,16.6667 0 1 0 5807.57,4498Z " />
<path stroke="transparent" fill="#000000" transform="matrix(0.05 0 0 0.05 -158 -193)" d="M 5807.57,4423 A 16.6667,16.6667 0 1 0 5840.91,4423A 16.6667,16.6667 0 1 0 5807.57,4423Z " />
<path stroke="#000000" stroke-width="10" fill="transparent" transform="matrix(0.05 0 0 0.05 -158 -193)" d="M 5072.37,4333.73 A 71.7999,71.7999 0 1 0 5215.97,4333.73A 71.7999,71.7999 0 1 0 5072.37,4333.73Z " />
<path stroke="transparent" fill="#000000" transform="matrix(0.05 0 0 0.05 -158 -193)" d="M 5104.51,4328.4 L 5183.17,4328.4 L 5183.17,4338.4 L 5104.51,4338.4 Z " />
<path stroke="#000000" stroke-width="12" fill="transparent" transform="matrix(0.05 0 0 0.05 -158 -193)" d="M 4307.71,4359.97 C 4416.99,4594.41 4695.98,4696 4930.41,4586.73 C 4979.83,4563.69 5025.18,4531.95 5063.74,4493.4 " />
<path stroke="transparent" fill="#000000" transform="matrix(0.05 0 0 0.05 -158 -193)" d="M 4279.79,4283.21 C 4279.79,4283.21 4334.63,4361.96 4334.63,4361.96 C 4334.63,4361.96 4317.47,4356.15 4307.71,4359.97 C 4297.96,4363.79 4288.77,4379.92 4288.77,4379.92 C 4288.77,4379.92 4279.79,4283.21 4279.79,4283.21 C 4279.79,4283.21 4279.79,4283.21 4279.79,4283.21 " />
<path stroke="#000000" stroke-width="1" fill="transparent" transform="matrix(0.05 0 0 0.05 -158 -193)" d="M 4279.79,4283.21 C 4279.79,4283.21 4334.63,4361.96 4334.63,4361.96 C 4334.63,4361.96 4317.47,4356.15 4307.71,4359.97 C 4297.96,4363.79 4288.77,4379.92 4288.77,4379.92 C 4288.77,4379.92 4279.79,4283.21 4279.79,4283.21 C 4279.79,4283.21 4279.79,4283.21 4279.79,4283.21 " />
<path stroke="#000000" stroke-width="12" fill="transparent" transform="matrix(0.05 0 0 0.05 -158 -193)" d="M 4344.52,3934.67 C 4284.73,3932.52 4234.45,3979.4 4232.31,4039.31 C 4231.25,4069.01 4242.96,4098.89 4263.92,4119.92 " />
<path stroke="transparent" fill="#000000" transform="matrix(0.05 0 0 0.05 -158 -193)" d="M 4417.36,3966.48 C 4417.36,3966.48 4324.03,3951.94 4324.03,3951.94 C 4324.03,3951.94 4340.35,3943.7 4344.52,3934.67 C 4348.7,3925.64 4344.21,3908.31 4344.21,3908.31 C 4344.21,3908.31 4417.36,3966.48 4417.36,3966.48 C 4417.36,3966.48 4417.36,3966.48 4417.36,3966.48 " />
<path stroke="#000000" stroke-width="1" fill="transparent" transform="matrix(0.05 0 0 0.05 -158 -193)" d="M 4417.36,3966.48 C 4417.36,3966.48 4324.03,3951.94 4324.03,3951.94 C 4324.03,3951.94 4340.35,3943.7 4344.52,3934.67 C 4348.7,3925.64 4344.21,3908.31 4344.21,3908.31 C 4344.21,3908.31 4417.36,3966.48 4417.36,3966.48 C 4417.36,3966.48 4417.36,3966.48 4417.36,3966.48 " />
<path stroke="transparent" fill="#000000" transform="matrix(0.05 0 0 0.05 -158 -193)" d="M 6282.6,4419.4 L 6000,4419.4 L 6000,4407.4 L 6282.6,4407.4 Z " />
<path stroke="transparent" fill="#000000" transform="matrix(0.05 0 0 0.05 -158 -193)" d="M 6386.6,4413.4 C 6386.6,4413.4 6266.6,4444.4 6266.6,4444.4 C 6266.6,4444.4 6281.6,4426.96 6281.6,4413.4 C 6281.6,4399.4 6266.6,4381.4 6266.6,4381.4 C 6266.6,4381.4 6386.6,4413.4 6386.6,4413.4 C 6386.6,4413.4 6386.6,4413.4 6386.6,4413.4 " />
<path stroke="#000000" stroke-width="1" fill="transparent" transform="matrix(0.05 0 0 0.05 -158 -193)" d="M 6386.6,4413.4 C 6386.6,4413.4 6266.6,4444.4 6266.6,4444.4 C 6266.6,4444.4 6281.6,4426.96 6281.6,4413.4 C 6281.6,4399.4 6266.6,4381.4 6266.6,4381.4 C 6266.6,4381.4 6386.6,4413.4 6386.6,4413.4 C 6386.6,4413.4 6386.6,4413.4 6386.6,4413.4 " />
<path stroke="transparent" fill="#000000" transform="matrix(0.05 0 0 0.05 -158 -193)" d="M 7103.2,4500.54 L 7097.2,4504 L 7091.2,4500.22 L 7091.2,4212.54 L 7103.2,4219.46 L 7103.2,4500.54 Z " />
<path stroke="transparent" fill="#000000" transform="matrix(0.05 0 0 0.05 -158 -193)" d="M 7346.6,4641.07 L 7346.6,4654.93 L 7097.48,4511.09 L 7097.2,4504 L 7103.2,4500.54 L 7346.6,4641.07 Z " />
<path stroke="transparent" fill="#000000" transform="matrix(0.05 0 0 0.05 -158 -193)" d="M 7590,4500.54 L 7602,4507.46 L 7346.6,4654.93 L 7346.6,4641.07 L 7590,4500.54 Z " />
<path stroke="transparent" fill="#000000" transform="matrix(0.05 0 0 0.05 -158 -193)" d="M 7590,4219.46 L 7602,4212.54 L 7602,4507.46 L 7590,4500.54 L 7590,4219.46 Z " />
<path stroke="transparent" fill="#000000" transform="matrix(0.05 0 0 0.05 -158 -193)" d="M 7346.6,4078.93 L 7346.6,4065.07 L 7602,4212.54 L 7590,4219.46 L 7346.6,4078.93 Z " />
<path stroke="transparent" fill="#000000" transform="matrix(0.05 0 0 0.05 -158 -193)" d="M 7103.2,4219.46 L 7091.2,4212.54 L 7346.6,4065.07 L 7346.6,4078.93 L 7103.2,4219.46 Z " />
<path stroke="transparent" fill="#000000" transform="matrix(0.05 0 0 0.05 -158 -193)" d="M 6853.8,4680.23 L 6847.8,4648 L 6822.9,4626.68 L 7091.2,4500.22 L 7097.2,4504 L 7097.48,4511.09 L 6853.8,4680.23 Z " />
<path stroke="transparent" fill="#000000" transform="matrix(0.05 0 0 0.05 -158 -193)" d="M 6595.6,4509.19 L 6601.6,4498.8 L 6822.9,4626.68 L 6847.8,4648 L 6841.8,4651.46 L 6595.6,4509.19 Z " />
<path stroke="transparent" fill="#000000" transform="matrix(0.05 0 0 0.05 -158 -193)" d="M 6853.8,4936 L 6841.8,4936 L 6841.8,4651.46 L 6847.8,4648 L 6853.8,4680.23 L 6853.8,4936 Z " />
<text x="0" y="0" stroke="transparent" fill="#000000" transform="matrix(0.05 0 0 0.05 231.089 14.1864)" style="font:normal normal normal 200px 'Helvetica'" >
CN</text>
<path stroke="transparent" fill="#000000" transform="matrix(0.05 0 0 0.05 -158 -193)" d="M 7742.01,4097.05 L 7772.01,4149.01 L 7760.56,4153.18 L 7732.68,4104.89 L 7742.01,4097.05 Z " />
<path stroke="transparent" fill="#000000" transform="matrix(0.05 0 0 0.05 -158 -193)" d="M 7693.93,4137.45 L 7712.99,4170.46 L 7701.54,4174.62 L 7684.6,4145.28 L 7693.93,4137.45 Z " />
<path stroke="transparent" fill="#000000" transform="matrix(0.05 0 0 0.05 -158 -193)" d="M 7645.85,4177.84 L 7653.97,4191.91 L 7642.52,4196.07 L 7636.52,4185.68 L 7645.85,4177.84 Z " />
<text x="0" y="0" stroke="transparent" fill="#000000" transform="matrix(0.05 0 0 0.05 260.67 27.67)" style="font:normal normal normal 200px 'Helvetica'" >
+</text>
<text x="0" y="0" stroke="transparent" fill="#000000" transform="matrix(0.05 0 0 0.05 280.394 27.6664)" style="font:normal normal normal 200px 'Helvetica'" >
OTf</text>
<path stroke="#000000" stroke-width="10" fill="transparent" transform="matrix(0.05 0 0 0.05 -158 -193)" d="M 8608.53,4226.93 A 71.7999,71.7999 0 1 0 8752.13,4226.93A 71.7999,71.7999 0 1 0 8608.53,4226.93Z " />
<path stroke="transparent" fill="#000000" transform="matrix(0.05 0 0 0.05 -158 -193)" d="M 8640.67,4221.6 L 8719.33,4221.6 L 8719.33,4231.6 L 8640.67,4231.6 Z " />
<text x="0" y="0" stroke="transparent" fill="#000000" transform="matrix(0.05 0 0 0.05 228.67 85)" style="font:normal normal normal 200px 'Helvetica'" >
OTf </text>
<text x="0" y="0" stroke="transparent" fill="#000000" transform="matrix(0.05 0 0 0.05 248.113 85)" style="font:normal normal normal 200px 'Helvetica'" >
= </text>
<text x="0" y="0" stroke="transparent" fill="#000000" transform="matrix(0.05 0 0 0.05 256.732 85)" style="font:normal normal normal 200px 'Helvetica'" >
triflate </text>
<text x="0" y="0" stroke="transparent" fill="#000000" transform="matrix(0.05 0 0 0.05 286.741 85)" style="font:normal normal normal 200px 'Helvetica'" >
=</text>
<path stroke="#000000" stroke-width="10" fill="transparent" transform="matrix(0.05 0 0 0.05 -158 -193)" d="M 7581.93,5360.33 A 71.7999,71.7999 0 1 0 7725.53,5360.33A 71.7999,71.7999 0 1 0 7581.93,5360.33Z " />
<path stroke="transparent" fill="#000000" transform="matrix(0.05 0 0 0.05 -158 -193)" d="M 7614.07,5355 L 7692.73,5355 L 7692.73,5365 L 7614.07,5365 Z " />
<text x="0" y="0" stroke="transparent" fill="#000000" transform="matrix(0.05 0 0 0.05 321.804 83.6664)" style="font:normal normal normal 200px 'Helvetica'" >
S</text>
<text x="0" y="0" stroke="transparent" fill="#000000" transform="matrix(0.05 0 0 0.05 321.174 98.0664)" style="font:normal normal normal 200px 'Helvetica'" >
O</text>
<path stroke="transparent" fill="#000000" transform="matrix(0.05 0 0 0.05 -158 -193)" d="M 9685.32,5643.92 L 9673.32,5643.92 L 9673.32,5569.96 L 9685.32,5569.96 L 9685.32,5643.92 Z " />
<path stroke="transparent" fill="#000000" transform="matrix(0.05 0 0 0.05 -158 -193)" d="M 9633.48,5643.92 L 9621.48,5643.92 L 9621.48,5569.96 L 9633.48,5569.96 L 9633.48,5643.92 Z " />
<text x="0" y="0" stroke="transparent" fill="#000000" transform="matrix(0.05 0 0 0.05 321.174 69.2664)" style="font:normal normal normal 200px 'Helvetica'" >
O</text>
<path stroke="transparent" fill="#000000" transform="matrix(0.05 0 0 0.05 -158 -193)" d="M 9621.48,5283.92 L 9633.48,5283.92 L 9633.48,5353.97 L 9621.48,5353.97 L 9621.48,5283.92 Z " />
<path stroke="transparent" fill="#000000" transform="matrix(0.05 0 0 0.05 -158 -193)" d="M 9673.32,5283.92 L 9685.32,5283.92 L 9685.32,5353.97 L 9673.32,5353.97 L 9673.32,5283.92 Z " />
<text x="0" y="0" stroke="transparent" fill="#000000" transform="matrix(0.05 0 0 0.05 335.889 83.6664)" style="font:normal normal normal 200px 'Helvetica'" >
CF</text>
<text x="0" y="0" stroke="transparent" fill="#000000" transform="matrix(0.05 0 0 0.05 349.219 85.9662)" style="font:normal normal normal 150px 'Helvetica'" >
3</text>
<path stroke="transparent" fill="#000000" transform="matrix(0.05 0 0 0.05 -158 -193)" d="M 9845.97,5455.6 L 9845.97,5467.6 L 9742.08,5467.6 L 9742.08,5455.6 L 9845.97,5455.6 Z " />
<text x="0" y="0" stroke="transparent" fill="#000000" transform="matrix(0.05 0 0 0.05 306.774 83.6664)" style="font:normal normal normal 200px 'Helvetica'" >
O</text>
<path stroke="transparent" fill="#000000" transform="matrix(0.05 0 0 0.05 -158 -193)" d="M 9466.43,5467.6 L 9466.43,5455.6 L 9563.08,5455.6 L 9563.08,5467.6 L 9466.43,5467.6 Z " />
<path stroke="transparent" fill="#000000" transform="matrix(0.05 0 0 0.05 -158 -193)" d="M 9191.13,5424.2 A 16.6667,16.6667 0 1 0 9224.47,5424.2A 16.6667,16.6667 0 1 0 9191.13,5424.2Z " />
<path stroke="transparent" fill="#000000" transform="matrix(0.05 0 0 0.05 -158 -193)" d="M 9191.13,5499.2 A 16.6667,16.6667 0 1 0 9224.47,5499.2A 16.6667,16.6667 0 1 0 9191.13,5499.2Z " />
<path stroke="transparent" fill="#000000" transform="matrix(0.05 0 0 0.05 -158 -193)" d="M 9386.13,5304 A 16.6667,16.6667 0 1 0 9419.47,5304A 16.6667,16.6667 0 1 0 9386.13,5304Z " />
<path stroke="transparent" fill="#000000" transform="matrix(0.05 0 0 0.05 -158 -193)" d="M 9311.13,5304 A 16.6667,16.6667 0 1 0 9344.47,5304A 16.6667,16.6667 0 1 0 9311.13,5304Z " />
<path stroke="transparent" fill="#000000" transform="matrix(0.05 0 0 0.05 -158 -193)" d="M 9311.13,5619.2 A 16.6667,16.6667 0 1 0 9344.47,5619.2A 16.6667,16.6667 0 1 0 9311.13,5619.2Z " />
<path stroke="transparent" fill="#000000" transform="matrix(0.05 0 0 0.05 -158 -193)" d="M 9386.13,5619.2 A 16.6667,16.6667 0 1 0 9419.47,5619.2A 16.6667,16.6667 0 1 0 9386.13,5619.2Z " />
<path stroke="#000000" stroke-width="10" fill="transparent" transform="matrix(0.05 0 0 0.05 -158 -193)" d="M 9088.53,5266.93 A 71.7999,71.7999 0 1 0 9232.13,5266.93A 71.7999,71.7999 0 1 0 9088.53,5266.93Z " />
<path stroke="transparent" fill="#000000" transform="matrix(0.05 0 0 0.05 -158 -193)" d="M 9120.67,5261.6 L 9199.33,5261.6 L 9199.33,5271.6 L 9120.67,5271.6 Z " />
<clipPath id="1" >
<path transform="matrix(0.05 0 0 0.05 -158 -193)" clip-rule="evenodd" d="M 10413.4,5960 C 10413.4,5960 10413.4,5038.8 10413.4,5038.8 C 10413.4,5038.8 7439,5038.8 7439,5038.8 C 7439,5038.8 7439,5960 7439,5960 C 7439,5960 10413.4,5960 10413.4,5960 M 10461.4,6008 C 10461.4,6008 10461.4,5086.8 10461.4,5086.8 C 10461.4,5086.8 7487,5086.8 7487,5086.8 C 7487,5086.8 7487,6008 7487,6008 C 7487,6008 10461.4,6008 10461.4,6008 " />
</clipPath>
<g clip-path="url(#1)" >
<path stroke="transparent" fill="#000000" transform="matrix(0.05 0 0 0.05 -157.5 -192.5)" fill-opacity="0.498039" d="M 10461.4,6008 C 10461.4,6008 10461.4,5086.8 10461.4,5086.8 C 10461.4,5086.8 7487,5086.8 7487,5086.8 C 7487,5086.8 7487,6008 7487,6008 C 7487,6008 10461.4,6008 10461.4,6008 " />
</g>
<path stroke="#000000" stroke-width="12" fill="transparent" transform="matrix(0.05 0 0 0.05 -158 -193)" d="M 10413.4,5960 C 10413.4,5960 10413.4,5038.8 10413.4,5038.8 C 10413.4,5038.8 7439,5038.8 7439,5038.8 C 7439,5038.8 7439,5960 7439,5960 C 7439,5960 10413.4,5960 10413.4,5960 " />
<text x="0" y="0" stroke="transparent" fill="#000000" transform="matrix(0.05 0 0 0.05 57.4886 52.088)" style="font:normal normal normal 200px 'Helvetica'" >
Back-side </text>
<text x="0" y="0" stroke="transparent" fill="#000000" transform="matrix(0.05 0 0 0.05 65.5477 62.138)" style="font:normal normal normal 200px 'Helvetica'" >
Attack</text>
</svg>
