<?xml version="1.0" standalone="no" ?>
<!DOCTYPE svg PUBLIC "-//W3C//DTD SVG 1.1//EN" "http://www.w3.org/Graphics/SVG/1.1/DTD/svg11.dtd">
<svg width="387px" height="85px" viewBox="0 0 387 85" style="background-color: #ffffff00" xmlns="http://www.w3.org/2000/svg" xmlns:xlink="http://www.w3.org/1999/xlink" version="1.1" >
<path stroke="transparent" fill="#000000" transform="matrix(0.05 0 0 0.05 -81 -168)" d="M 1923.37,4301.42 L 1929.39,4291 L 1935.4,4294.47 L 1935.4,4578.97 L 1923.37,4578.97 L 1923.37,4301.42 Z " />
<path stroke="transparent" fill="#000000" transform="matrix(0.05 0 0 0.05 -81 -168)" d="M 1676.99,4152.23 L 1683.01,4141.81 L 1929.39,4284.05 L 1929.39,4291 L 1917.36,4291 L 1676.99,4152.23 Z " />
<text x="0" y="0" stroke="transparent" fill="#000000" transform="matrix(0.05 0 0 0.05 25.1727 42.9372)" style="font:normal normal normal 200px 'Helvetica'" >
Br</text>
<path stroke="transparent" fill="#000000" transform="matrix(0.05 0 0 0.05 -81 -168)" d="M 2078.2,4198.14 L 2084.22,4208.56 L 1935.4,4294.47 L 1929.39,4291 L 1929.39,4284.05 L 2078.2,4198.14 Z " />
<path stroke="transparent" fill="#000000" transform="matrix(0.05 0 0 0.05 -81 -168)" d="M 4745.88,4858.52 L 4759.39,4857.67 L 4759.39,4864.61 L 4503.98,5012.07 L 4516.02,4991.23 L 4745.88,4858.52 Z " />
<path stroke="transparent" fill="#000000" transform="matrix(0.05 0 0 0.05 -81 -168)" d="M 5008.78,4994.7 L 5008.78,5008.6 L 4759.39,4864.61 L 4759.39,4857.67 L 4762.4,4852.46 L 5008.78,4994.7 Z " />
<path stroke="transparent" fill="#000000" transform="matrix(0.05 0 0 0.05 -81 -168)" d="M 5255.16,4852.46 L 5261.17,4862.88 L 5008.78,5008.6 L 5008.78,4994.7 L 5255.16,4852.46 Z " />
<text x="0" y="0" stroke="transparent" fill="#000000" transform="matrix(0.05 0 0 0.05 141.004 71.2705)" style="font:normal normal normal 200px 'Helvetica'" >
O</text>
<path stroke="transparent" fill="#000000" transform="matrix(0.05 0 0 0.05 -81 -168)" d="M 4586.09,4792.25 L 4616.09,4740.29 L 4762.4,4852.46 L 4759.39,4857.67 L 4745.88,4858.52 L 4586.09,4792.25 Z " />
<path stroke="transparent" fill="#000000" transform="matrix(0.05 0 0 0.05 -81 -168)" d="M 4516.02,4991.23 L 4503.98,5012.07 L 4503.98,4823.03 L 4516.02,4823.03 L 4516.02,4991.23 Z " />
<path stroke="transparent" fill="#000000" transform="matrix(0.05 0 0 0.05 -81 -168)" d="M 3153.03,4354.32 L 2546.67,4354.32 L 2546.67,4342.32 L 3153.03,4342.32 Z " />
<path stroke="transparent" fill="#000000" transform="matrix(0.05 0 0 0.05 -81 -168)" d="M 3310,4348.32 C 3310,4348.32 3129.53,4394.43 3129.53,4394.43 C 3129.53,4394.43 3152.03,4368.5 3152.03,4348.32 C 3152.03,4327.7 3129.53,4301.2 3129.53,4301.2 C 3129.53,4301.2 3310,4348.32 3310,4348.32 C 3310,4348.32 3310,4348.32 3310,4348.32 " />
<path stroke="#000000" stroke-width="1" fill="transparent" transform="matrix(0.05 0 0 0.05 -81 -168)" d="M 3310,4348.32 C 3310,4348.32 3129.53,4394.43 3129.53,4394.43 C 3129.53,4394.43 3152.03,4368.5 3152.03,4348.32 C 3152.03,4327.7 3129.53,4301.2 3129.53,4301.2 C 3129.53,4301.2 3310,4348.32 3310,4348.32 C 3310,4348.32 3310,4348.32 3310,4348.32 " />
<path stroke="transparent" fill="#000000" transform="matrix(0.05 0 0 0.05 -81 -168)" d="M 8798.99,4347.13 L 8805.44,4350.35 L 8805.44,4357.29 L 8556.05,4501.28 L 8556.05,4487.39 L 8798.99,4347.13 Z " />
<path stroke="transparent" fill="#000000" transform="matrix(0.05 0 0 0.05 -81 -168)" d="M 9054.83,4487.39 L 9054.83,4501.28 L 8805.44,4357.29 L 8805.44,4350.35 L 8811.89,4347.13 L 9054.83,4487.39 Z " />
<path stroke="transparent" fill="#000000" transform="matrix(0.05 0 0 0.05 -81 -168)" d="M 9301.21,4345.14 L 9307.23,4355.56 L 9054.83,4501.28 L 9054.83,4487.39 L 9301.21,4345.14 Z " />
<text x="0" y="0" stroke="transparent" fill="#000000" transform="matrix(0.05 0 0 0.05 355.776 38.7054)" style="font:normal normal normal 200px 'Helvetica'" >
OH</text>
<path stroke="transparent" fill="#000000" transform="matrix(0.05 0 0 0.05 -81 -168)" d="M 8775.44,4172.73 L 8835.44,4172.73 L 8811.89,4347.13 L 8805.44,4350.35 L 8798.99,4347.13 L 8775.44,4172.73 Z " />
<path stroke="transparent" fill="#000000" transform="matrix(0.05 0 0 0.05 -81 -168)" d="M 8306.67,4357.29 L 8306.67,4350.35 L 8312.68,4346.88 L 8556.05,4487.39 L 8556.05,4501.28 L 8306.67,4357.29 Z " />
<path stroke="transparent" fill="#000000" transform="matrix(0.05 0 0 0.05 -81 -168)" d="M 1683.01,4440.19 L 1676.99,4429.77 L 1917.36,4291 L 1929.39,4291 L 1923.37,4301.42 L 1683.01,4440.19 Z " />
<path stroke="transparent" fill="#000000" transform="matrix(0.05 0 0 0.05 -81 -168)" d="M 8060.29,4499.54 L 8054.27,4489.12 L 8294.64,4350.35 L 8306.67,4350.35 L 8306.67,4357.29 L 8060.29,4499.54 Z " />
<path stroke="transparent" fill="#000000" transform="matrix(0.05 0 0 0.05 -81 -168)" d="M 8300.65,4062.38 L 8312.68,4062.38 L 8312.68,4346.88 L 8306.67,4350.35 L 8300.65,4339.93 L 8300.65,4062.38 Z " />
<path stroke="transparent" fill="#000000" transform="matrix(0.05 0 0 0.05 -81 -168)" d="M 8054.27,4211.57 L 8060.29,4201.15 L 8300.65,4339.93 L 8306.67,4350.35 L 8294.64,4350.35 L 8054.27,4211.57 Z " />
<text x="0" y="0" stroke="transparent" fill="#000000" transform="matrix(0.05 0 0 0.05 57 44)" style="font:normal normal normal 200px 'Helvetica'" >
a)</text>
<path stroke="transparent" fill="#000000" transform="matrix(0.05 0 0 0.05 -81 -168)" d="M 3753.37,4361.42 L 3759.39,4351 L 3765.4,4354.47 L 3765.4,4638.97 L 3753.37,4638.97 L 3753.37,4361.42 Z " />
<path stroke="transparent" fill="#000000" transform="matrix(0.05 0 0 0.05 -81 -168)" d="M 3506.99,4212.23 L 3513.01,4201.81 L 3759.39,4344.05 L 3759.39,4351 L 3747.36,4351 L 3506.99,4212.23 Z " />
<text x="0" y="0" stroke="transparent" fill="#000000" transform="matrix(0.05 0 0 0.05 116.001 45.9372)" style="font:normal normal normal 200px 'Helvetica'" >
MgBr</text>
<path stroke="transparent" fill="#000000" transform="matrix(0.05 0 0 0.05 -81 -168)" d="M 3895,4265.76 L 3901.02,4276.18 L 3765.4,4354.47 L 3759.39,4351 L 3759.39,4344.05 L 3895,4265.76 Z " />
<path stroke="transparent" fill="#000000" transform="matrix(0.05 0 0 0.05 -81 -168)" d="M 3513.01,4500.19 L 3506.99,4489.77 L 3747.36,4351 L 3759.39,4351 L 3753.37,4361.42 L 3513.01,4500.19 Z " />
<path stroke="transparent" fill="#000000" transform="matrix(0.05 0 0 0.05 -81 -168)" d="M 5265.73,4366 L 4610,4366 L 4610,4354 L 5265.73,4354 Z " />
<path stroke="transparent" fill="#000000" transform="matrix(0.05 0 0 0.05 -81 -168)" d="M 5370,4360 C 5370,4360 5249.69,4391.08 5249.69,4391.08 C 5249.69,4391.08 5264.73,4373.6 5264.73,4360 C 5264.73,4345.97 5249.69,4327.92 5249.69,4327.92 C 5249.69,4327.92 5370,4360 5370,4360 C 5370,4360 5370,4360 5370,4360 " />
<path stroke="#000000" stroke-width="1" fill="transparent" transform="matrix(0.05 0 0 0.05 -81 -168)" d="M 5370,4360 C 5370,4360 5249.69,4391.08 5249.69,4391.08 C 5249.69,4391.08 5264.73,4373.6 5264.73,4360 C 5264.73,4345.97 5249.69,4327.92 5249.69,4327.92 C 5249.69,4327.92 5370,4360 5370,4360 C 5370,4360 5370,4360 5370,4360 " />
<path stroke="#000000" stroke-width="12" fill="transparent" transform="matrix(0.05 0 0 0.05 -81 -168)" d="M 4344.28,4755.26 C 4312.4,4806.72 4328.29,4874.36 4379.74,4906.24 C 4405.25,4922.04 4437.32,4926.71 4466.28,4918.83 " />
<path stroke="transparent" fill="#000000" transform="matrix(0.05 0 0 0.05 -81 -168)" d="M 4408.71,4707.21 C 4408.71,4707.21 4349.81,4781.54 4349.81,4781.54 C 4349.81,4781.54 4350.43,4763.37 4344.28,4755.26 C 4338.13,4747.16 4320.35,4742.72 4320.35,4742.72 C 4320.35,4742.72 4408.71,4707.21 4408.71,4707.21 C 4408.71,4707.21 4408.71,4707.21 4408.71,4707.21 " />
<path stroke="#000000" stroke-width="1" fill="transparent" transform="matrix(0.05 0 0 0.05 -81 -168)" d="M 4408.71,4707.21 C 4408.71,4707.21 4349.81,4781.54 4349.81,4781.54 C 4349.81,4781.54 4350.43,4763.37 4344.28,4755.26 C 4338.13,4747.16 4320.35,4742.72 4320.35,4742.72 C 4320.35,4742.72 4408.71,4707.21 4408.71,4707.21 C 4408.71,4707.21 4408.71,4707.21 4408.71,4707.21 " />
<path stroke="#000000" stroke-width="12" fill="transparent" transform="matrix(0.05 0 0 0.05 -81 -168)" d="M 3848.67,4369.23 C 3848.67,4664.03 4085.31,4935.68 4377.32,4976.11 " />
<path stroke="transparent" fill="#000000" transform="matrix(0.05 0 0 0.05 -81 -168)" d="M 4461.34,4981.9 C 4461.34,4981.9 4362.67,5000.29 4362.67,5000.29 C 4362.67,5000.29 4376.16,4987.05 4377.32,4976.11 C 4378.48,4965.17 4367.97,4950.27 4367.97,4950.27 C 4367.97,4950.27 4461.34,4981.9 4461.34,4981.9 C 4461.34,4981.9 4461.34,4981.9 4461.34,4981.9 " />
<path stroke="#000000" stroke-width="1" fill="transparent" transform="matrix(0.05 0 0 0.05 -81 -168)" d="M 4461.34,4981.9 C 4461.34,4981.9 4362.67,5000.29 4362.67,5000.29 C 4362.67,5000.29 4376.16,4987.05 4377.32,4976.11 C 4378.48,4965.17 4367.97,4950.27 4367.97,4950.27 C 4367.97,4950.27 4461.34,4981.9 4461.34,4981.9 C 4461.34,4981.9 4461.34,4981.9 4461.34,4981.9 " />
<path stroke="transparent" fill="#000000" transform="matrix(0.05 0 0 0.05 -81 -168)" d="M 5705.4,4324.56 L 5699.39,4328.04 L 5693.37,4317.62 L 5693.37,4040.07 L 5705.4,4040.07 L 5705.4,4324.56 Z " />
<path stroke="transparent" fill="#000000" transform="matrix(0.05 0 0 0.05 -81 -168)" d="M 5453.01,4477.23 L 5446.99,4466.81 L 5687.36,4328.04 L 5699.39,4328.04 L 5699.39,4334.98 L 5453.01,4477.23 Z " />
<path stroke="transparent" fill="#000000" transform="matrix(0.05 0 0 0.05 -81 -168)" d="M 5948.78,4465.08 L 5948.78,4478.97 L 5699.39,4334.98 L 5699.39,4328.04 L 5705.4,4324.56 L 5948.78,4465.08 Z " />
<path stroke="transparent" fill="#000000" transform="matrix(0.05 0 0 0.05 -81 -168)" d="M 5446.99,4189.26 L 5453.01,4178.84 L 5693.37,4317.62 L 5699.39,4328.04 L 5687.36,4328.04 L 5446.99,4189.26 Z " />
<path stroke="transparent" fill="#000000" transform="matrix(0.05 0 0 0.05 -81 -168)" d="M 6191.72,4324.81 L 6198.16,4328.04 L 6198.16,4334.98 L 5948.78,4478.97 L 5948.78,4465.08 L 6191.72,4324.81 Z " />
<path stroke="transparent" fill="#000000" transform="matrix(0.05 0 0 0.05 -81 -168)" d="M 6447.55,4465.08 L 6447.55,4478.97 L 6198.16,4334.98 L 6198.16,4328.04 L 6204.61,4324.81 L 6447.55,4465.08 Z " />
<path stroke="transparent" fill="#000000" transform="matrix(0.05 0 0 0.05 -81 -168)" d="M 6696.94,4321.09 L 6696.94,4334.98 L 6447.55,4478.97 L 6447.55,4465.08 L 6696.94,4321.09 Z " />
<path stroke="transparent" fill="#000000" transform="matrix(0.05 0 0 0.05 -81 -168)" d="M 6949.34,4466.81 L 6943.32,4477.23 L 6696.94,4334.98 L 6696.94,4321.09 L 6949.34,4466.81 Z " />
<text x="0" y="0" stroke="transparent" fill="#000000" transform="matrix(0.05 0 0 0.05 225.412 37.5899)" style="font:normal normal normal 200px 'Helvetica'" >
O</text>
<path stroke="transparent" fill="#000000" transform="matrix(0.05 0 0 0.05 -81 -168)" d="M 6168.16,4149.42 L 6228.16,4149.42 L 6204.61,4324.81 L 6198.16,4328.04 L 6191.72,4324.81 L 6168.16,4149.42 Z " />
<path stroke="transparent" fill="#000000" transform="matrix(0.05 0 0 0.05 -81 -168)" d="M 6024.92,3993.66 A 16.6667,16.6667 0 1 0 6058.25,3993.66A 16.6667,16.6667 0 1 0 6024.92,3993.66Z " />
<path stroke="transparent" fill="#000000" transform="matrix(0.05 0 0 0.05 -81 -168)" d="M 6020.69,4068.54 A 16.6667,16.6667 0 1 0 6054.02,4068.54A 16.6667,16.6667 0 1 0 6020.69,4068.54Z " />
<path stroke="transparent" fill="#000000" transform="matrix(0.05 0 0 0.05 -81 -168)" d="M 6339.03,4077.57 A 16.6667,16.6667 0 1 0 6372.36,4077.57A 16.6667,16.6667 0 1 0 6339.03,4077.57Z " />
<path stroke="transparent" fill="#000000" transform="matrix(0.05 0 0 0.05 -81 -168)" d="M 6339.03,4002.57 A 16.6667,16.6667 0 1 0 6372.36,4002.57A 16.6667,16.6667 0 1 0 6339.03,4002.57Z " />
<path stroke="transparent" fill="#000000" transform="matrix(0.05 0 0 0.05 -81 -168)" d="M 6218.95,3882.49 A 16.6667,16.6667 0 1 0 6252.28,3882.49A 16.6667,16.6667 0 1 0 6218.95,3882.49Z " />
<path stroke="transparent" fill="#000000" transform="matrix(0.05 0 0 0.05 -81 -168)" d="M 6143.95,3882.49 A 16.6667,16.6667 0 1 0 6177.28,3882.49A 16.6667,16.6667 0 1 0 6143.95,3882.49Z " />
<path stroke="#000000" stroke-width="10" fill="transparent" transform="matrix(0.05 0 0 0.05 -81 -168)" d="M 6278.52,3860.33 A 71.8125,71.8125 0 1 0 6422.15,3860.33A 71.8125,71.8125 0 1 0 6278.52,3860.33Z " />
<path stroke="transparent" fill="#000000" transform="matrix(0.05 0 0 0.05 -81 -168)" d="M 6310.65,3855 L 6389.35,3855 L 6389.35,3865 L 6310.65,3865 Z " />
<path stroke="transparent" fill="#000000" transform="matrix(0.05 0 0 0.05 -81 -168)" d="M 7735.73,4356 L 7150,4356 L 7150,4344 L 7735.73,4344 Z " />
<path stroke="transparent" fill="#000000" transform="matrix(0.05 0 0 0.05 -81 -168)" d="M 7840,4350 C 7840,4350 7719.69,4381.08 7719.69,4381.08 C 7719.69,4381.08 7734.73,4363.6 7734.73,4350 C 7734.73,4335.97 7719.69,4317.92 7719.69,4317.92 C 7719.69,4317.92 7840,4350 7840,4350 C 7840,4350 7840,4350 7840,4350 " />
<path stroke="#000000" stroke-width="1" fill="transparent" transform="matrix(0.05 0 0 0.05 -81 -168)" d="M 7840,4350 C 7840,4350 7719.69,4381.08 7719.69,4381.08 C 7719.69,4381.08 7734.73,4363.6 7734.73,4350 C 7734.73,4335.97 7719.69,4317.92 7719.69,4317.92 C 7719.69,4317.92 7840,4350 7840,4350 C 7840,4350 7840,4350 7840,4350 " />
<text x="0" y="0" stroke="transparent" fill="#000000" transform="matrix(0.05 0 0 0.05 162 44)" style="font:normal normal normal 200px 'Helvetica'" >
b)</text>
<text x="0" y="0" stroke="transparent" fill="#000000" transform="matrix(0.05 0 0 0.05 288 45.5)" style="font:normal normal normal 200px 'Helvetica'" >
c)</text>
<text x="0" y="0" stroke="transparent" fill="#000000" transform="matrix(0.05 0 0 0.05 271.504 16.5864)" style="font:normal normal normal 200px 'Helvetica'" >
O</text>
<text x="0" y="0" stroke="transparent" fill="#000000" transform="matrix(0.05 0 0 0.05 284.623 9.38721)" style="font:normal normal normal 200px 'Helvetica'" >
H</text>
<path stroke="transparent" fill="#000000" transform="matrix(0.05 0 0 0.05 -81 -168)" d="M 7265.41,3529.1 L 7271.42,3539.52 L 7214.92,3572.15 L 7208.9,3561.73 L 7265.41,3529.1 Z " />
<text x="0" y="0" stroke="transparent" fill="#000000" transform="matrix(0.05 0 0 0.05 259.684 9.38721)" style="font:normal normal normal 200px 'Helvetica'" >
H</text>
<path stroke="transparent" fill="#000000" transform="matrix(0.05 0 0 0.05 -81 -168)" d="M 6969.33,3539.96 L 6975.35,3529.54 L 7031.26,3561.82 L 7025.24,3572.24 L 6969.33,3539.96 Z " />
<text x="0" y="0" stroke="transparent" fill="#000000" transform="matrix(0.05 0 0 0.05 272.153 30.9849)" style="font:normal normal normal 200px 'Helvetica'" >
H</text>
<path stroke="transparent" fill="#000000" transform="matrix(0.05 0 0 0.05 -81 -168)" d="M 7126.02,3803.21 L 7113.98,3803.21 L 7113.98,3729.35 L 7126.02,3729.35 L 7126.02,3803.21 Z " />
<path stroke="#000000" stroke-width="10" fill="transparent" transform="matrix(0.05 0 0 0.05 -81 -168)" d="M 6888.52,3680.33 A 71.8125,71.8125 0 1 0 7032.15,3680.33A 71.8125,71.8125 0 1 0 6888.52,3680.33Z " />
<path stroke="transparent" fill="#000000" transform="matrix(0.05 0 0 0.05 -81 -168)" d="M 6920.65,3675 L 6999.35,3675 L 6999.35,3685 L 6920.65,3685 Z " />
<path stroke="transparent" fill="#000000" transform="matrix(0.05 0 0 0.05 -81 -168)" d="M 6965,3640.65 L 6965,3719.35 L 6955,3719.35 L 6955,3640.65 Z " />
<path stroke="transparent" fill="#000000" transform="matrix(0.05 0 0 0.05 -81 -168)" d="M 7238.82,3720.21 A 16.6667,16.6667 0 1 0 7272.15,3720.21A 16.6667,16.6667 0 1 0 7238.82,3720.21Z " />
<path stroke="transparent" fill="#000000" transform="matrix(0.05 0 0 0.05 -81 -168)" d="M 7268.87,3651.49 A 16.6667,16.6667 0 1 0 7302.21,3651.49A 16.6667,16.6667 0 1 0 7268.87,3651.49Z " />
<path stroke="#000000" stroke-width="12" fill="transparent" transform="matrix(0.05 0 0 0.05 -81 -168)" d="M 6733.82,3475.87 C 6593.55,3446.05 6455.49,3535.71 6425.68,3675.98 C 6421.91,3693.72 6420,3711.86 6420,3730 " />
<path stroke="transparent" fill="#000000" transform="matrix(0.05 0 0 0.05 -81 -168)" d="M 6809.71,3505 C 6809.71,3505 6713.66,3494.39 6713.66,3494.39 C 6713.66,3494.39 6729.89,3485.45 6733.82,3475.87 C 6737.76,3466.29 6732.31,3449.03 6732.31,3449.03 C 6732.31,3449.03 6809.71,3505 6809.71,3505 C 6809.71,3505 6809.71,3505 6809.71,3505 " />
<path stroke="#000000" stroke-width="1" fill="transparent" transform="matrix(0.05 0 0 0.05 -81 -168)" d="M 6809.71,3505 C 6809.71,3505 6713.66,3494.39 6713.66,3494.39 C 6713.66,3494.39 6729.89,3485.45 6733.82,3475.87 C 6737.76,3466.29 6732.31,3449.03 6732.31,3449.03 C 6732.31,3449.03 6809.71,3505 6809.71,3505 C 6809.71,3505 6809.71,3505 6809.71,3505 " />
</svg>
