<?xml version="1.0" standalone="no" ?>
<!DOCTYPE svg PUBLIC "-//W3C//DTD SVG 1.1//EN" "http://www.w3.org/Graphics/SVG/1.1/DTD/svg11.dtd">
<svg width="199px" height="72px" viewBox="0 0 199 72" style="background-color: #ffffff00" xmlns="http://www.w3.org/2000/svg" xmlns:xlink="http://www.w3.org/1999/xlink" version="1.1" >
<path stroke="transparent" fill="#000000" transform="matrix(0.05 0 0 0.05 -7 -279)" d="M 3129.96,6407.18 L 3123.94,6410.65 L 3117.93,6400.23 L 3117.93,6126.16 L 3123.94,6122.68 L 3129.96,6126.16 L 3129.96,6407.18 Z " />
<path stroke="transparent" fill="#000000" transform="matrix(0.05 0 0 0.05 -7 -279)" d="M 3373.33,6547.69 L 3373.33,6554.64 L 3366.33,6557.54 L 3124.22,6417.76 L 3123.94,6410.65 L 3129.96,6407.18 L 3373.33,6547.69 Z " />
<path stroke="transparent" fill="#000000" transform="matrix(0.05 0 0 0.05 -7 -279)" d="M 3616.71,6407.18 L 3622.72,6410.65 L 3620.52,6418.87 L 3381.55,6556.84 L 3373.33,6554.64 L 3373.33,6547.69 L 3616.71,6407.18 Z " />
<path stroke="transparent" fill="#000000" transform="matrix(0.05 0 0 0.05 -7 -279)" d="M 3616.71,6126.16 L 3622.72,6122.68 L 3628.74,6130.52 L 3628.74,6406.03 L 3622.72,6410.65 L 3616.71,6407.18 L 3616.71,6126.16 Z " />
<path stroke="transparent" fill="#000000" transform="matrix(0.05 0 0 0.05 -7 -279)" d="M 3373.33,5985.64 L 3373.33,5978.7 L 3381.55,5976.5 L 3625.04,6117.08 L 3622.72,6122.68 L 3616.71,6126.16 L 3373.33,5985.64 Z " />
<path stroke="transparent" fill="#000000" transform="matrix(0.05 0 0 0.05 -7 -279)" d="M 3129.96,6126.16 L 3123.94,6122.68 L 3127.73,6113.55 L 3366.33,5975.8 L 3373.33,5978.7 L 3373.33,5985.64 L 3129.96,6126.16 Z " />
<path stroke="transparent" fill="#000000" transform="matrix(0.05 0 0 0.05 -7 -279)" d="M 2880.57,6586.85 L 2874.56,6554.64 L 2849.66,6533.32 L 3111,6410.12 L 3123.94,6410.65 L 3124.22,6417.76 L 2880.57,6586.85 Z " />
<text x="0" y="0" stroke="transparent" fill="#000000" transform="matrix(0.05 0 0 0.05 108.825 45.119)" style="font:normal normal normal 200px 'Helvetica'" >
H</text>
<text x="0" y="0" stroke="transparent" fill="#000000" transform="matrix(0.05 0 0 0.05 116.047 47.4188)" style="font:normal normal normal 150px 'Helvetica'" >
3</text>
<text x="0" y="0" stroke="transparent" fill="#000000" transform="matrix(0.05 0 0 0.05 120.218 45.119)" style="font:normal normal normal 200px 'Helvetica'" >
C</text>
<path stroke="transparent" fill="#000000" transform="matrix(0.05 0 0 0.05 -7 -279)" d="M 2712.24,6467.87 L 2718.26,6457.45 L 2849.66,6533.32 L 2874.56,6554.64 L 2862.53,6554.64 L 2712.24,6467.87 Z " />
<text x="0" y="0" stroke="transparent" fill="#000000" transform="matrix(0.05 0 0 0.05 133.547 66.7166)" style="font:normal normal normal 200px 'Helvetica'" >
CH</text>
<text x="0" y="0" stroke="transparent" fill="#000000" transform="matrix(0.05 0 0 0.05 147.99 69.0164)" style="font:normal normal normal 150px 'Helvetica'" >
3</text>
<path stroke="transparent" fill="#000000" transform="matrix(0.05 0 0 0.05 -7 -279)" d="M 2880.57,6736.89 L 2868.54,6736.89 L 2868.54,6565.05 L 2874.56,6554.64 L 2880.57,6586.85 L 2880.57,6736.89 Z " />
<text x="0" y="0" stroke="transparent" fill="#000000" transform="matrix(0.05 0 0 0.05 183.424 23.5213)" style="font:normal normal normal 200px 'Helvetica'" >
CN</text>
<path stroke="transparent" fill="#000000" transform="matrix(0.05 0 0 0.05 -7 -279)" d="M 3768.38,6003.95 L 3798.38,6055.91 L 3786.89,6060.08 L 3759.02,6011.81 L 3768.38,6003.95 Z " />
<path stroke="transparent" fill="#000000" transform="matrix(0.05 0 0 0.05 -7 -279)" d="M 3720.43,6044.24 L 3739.51,6077.28 L 3728.02,6081.45 L 3711.08,6052.11 L 3720.43,6044.24 Z " />
<path stroke="transparent" fill="#000000" transform="matrix(0.05 0 0 0.05 -7 -279)" d="M 3672.49,6084.54 L 3680.63,6098.65 L 3669.15,6102.82 L 3663.13,6092.4 L 3672.49,6084.54 Z " />
<text x="0" y="0" stroke="transparent" fill="#000000" transform="matrix(0.05 0 0 0.05 185.197 34.4471)" style="font:normal normal normal 200px 'Helvetica'" >
H</text>
<path stroke="transparent" fill="#000000" transform="matrix(0.05 0 0 0.05 -7 -279)" d="M 3804.17,6165.07 L 3801.06,6176.69 L 3628.74,6130.52 L 3622.72,6122.68 L 3624.28,6116.87 L 3804.17,6165.07 Z " />
<text x="0" y="0" stroke="transparent" fill="#000000" transform="matrix(0.05 0 0 0.05 133.881 37.9198)" style="font:normal normal normal 200px 'Helvetica'" >
H</text>
<path stroke="transparent" fill="#000000" transform="matrix(0.05 0 0 0.05 -7 -279)" d="M 2972.53,6330.18 L 2978.54,6319.76 L 3117.93,6400.23 L 3123.94,6410.65 L 3111,6410.12 L 2972.53,6330.18 Z " />
<text x="0" y="0" stroke="transparent" fill="#000000" transform="matrix(0.05 0 0 0.05 133.881 23.5213)" style="font:normal normal normal 200px 'Helvetica'" >
H</text>
<path stroke="transparent" fill="#000000" transform="matrix(0.05 0 0 0.05 -7 -279)" d="M 2972.53,6042.21 L 2978.54,6031.79 L 3114.38,6110.21 L 3123.94,6122.68 L 3117.93,6126.16 L 2972.53,6042.21 Z " />
<text x="0" y="0" stroke="transparent" fill="#000000" transform="matrix(0.05 0 0 0.05 142.624 16.8127)" style="font:normal normal normal 200px 'Helvetica'" >
H</text>
<path stroke="transparent" fill="#000000" transform="matrix(0.05 0 0 0.05 -7 -279)" d="M 3073.5,5957.65 L 3085.12,5954.53 L 3127.73,6113.55 L 3123.94,6122.68 L 3114.38,6110.21 L 3073.5,5957.65 Z " />
<text x="0" y="0" stroke="transparent" fill="#000000" transform="matrix(0.05 0 0 0.05 155.093 9.61349)" style="font:normal normal normal 200px 'Helvetica'" >
H</text>
<path stroke="transparent" fill="#000000" transform="matrix(0.05 0 0 0.05 -7 -279)" d="M 3322.88,5813.66 L 3334.51,5810.55 L 3375.38,5963.11 L 3373.33,5978.7 L 3366.33,5975.8 L 3322.88,5813.66 Z " />
<text x="0" y="0" stroke="transparent" fill="#000000" transform="matrix(0.05 0 0 0.05 166.019 11.0519)" style="font:normal normal normal 200px 'Helvetica'" >
H</text>
<path stroke="transparent" fill="#000000" transform="matrix(0.05 0 0 0.05 -7 -279)" d="M 3450.86,5832.39 L 3461.28,5838.41 L 3381.55,5976.5 L 3373.33,5978.7 L 3375.38,5963.11 L 3450.86,5832.39 Z " />
<text x="0" y="0" stroke="transparent" fill="#000000" transform="matrix(0.05 0 0 0.05 155.093 66.226)" style="font:normal normal normal 200px 'Helvetica'" >
H</text>
<path stroke="transparent" fill="#000000" transform="matrix(0.05 0 0 0.05 -7 -279)" d="M 3334.87,6721.43 L 3323.25,6718.31 L 3366.33,6557.54 L 3373.33,6554.64 L 3375.38,6570.22 L 3334.87,6721.43 Z " />
<text x="0" y="0" stroke="transparent" fill="#000000" transform="matrix(0.05 0 0 0.05 166.019 64.7876)" style="font:normal normal normal 200px 'Helvetica'" >
H</text>
<path stroke="transparent" fill="#000000" transform="matrix(0.05 0 0 0.05 -7 -279)" d="M 3460.65,6693.83 L 3450.23,6699.85 L 3375.38,6570.22 L 3373.33,6554.64 L 3381.55,6556.84 L 3460.65,6693.83 Z " />
<text x="0" y="0" stroke="transparent" fill="#000000" transform="matrix(0.05 0 0 0.05 178.489 57.5884)" style="font:normal normal normal 200px 'Helvetica'" >
H</text>
<path stroke="transparent" fill="#000000" transform="matrix(0.05 0 0 0.05 -7 -279)" d="M 3710.03,6549.85 L 3699.61,6555.86 L 3620.52,6418.87 L 3622.72,6410.65 L 3635.19,6420.22 L 3710.03,6549.85 Z " />
<text x="0" y="0" stroke="transparent" fill="#000000" transform="matrix(0.05 0 0 0.05 185.197 48.8456)" style="font:normal normal normal 200px 'Helvetica'" >
H</text>
<path stroke="transparent" fill="#000000" transform="matrix(0.05 0 0 0.05 -7 -279)" d="M 3804.17,6453.04 L 3801.06,6464.66 L 3635.19,6420.22 L 3622.72,6410.65 L 3628.74,6406.03 L 3804.17,6453.04 Z " />
<text x="0" y="0" stroke="transparent" fill="#000000" transform="matrix(0.05 0 0 0.05 121.412 59.5174)" style="font:normal normal normal 200px 'Helvetica'" >
H</text>
<path stroke="transparent" fill="#000000" transform="matrix(0.05 0 0 0.05 -7 -279)" d="M 2729.79,6645.16 L 2723.77,6634.74 L 2862.53,6554.64 L 2874.56,6554.64 L 2868.54,6565.05 L 2729.79,6645.16 Z " />
<path stroke="transparent" fill="#0000ff" transform="matrix(0.05 0 0 0.05 -7 -279)" d="M 3554.37,6127.89 A 80.1877,80.1877 0 1 0 3714.75,6127.89A 80.1877,80.1877 0 1 0 3554.37,6127.89Z " />
<path stroke="transparent" fill="#0000ff" transform="matrix(0.05 0 0 0.05 -7 -279)" d="M 3061.04,6421.22 A 80.1874,80.1874 0 1 0 3221.41,6421.22A 80.1874,80.1874 0 1 0 3061.04,6421.22Z " />
<path stroke="transparent" fill="#0000ff" transform="matrix(0.05 0 0 0.05 -7 -279)" d="M 2767.7,6554.56 A 80.1874,80.1874 0 1 0 2928.08,6554.56A 80.1874,80.1874 0 1 0 2767.7,6554.56Z " />
<path stroke="transparent" fill="#000000" transform="matrix(0.05 0 0 0.05 -7 -279)" d="M 2127.97,6062.15 L 2127.97,6074.18 L 1840,6074.18 L 1840,6062.15 L 2127.97,6062.15 Z " />
<path stroke="transparent" fill="#000000" transform="matrix(0.05 0 0 0.05 -7 -279)" d="M 2127.97,6113.98 L 2127.97,6126.02 L 1840,6126.02 L 1840,6113.98 L 2127.97,6113.98 Z " />
<path stroke="transparent" fill="#000000" transform="matrix(0.05 0 0 0.05 -7 -279)" d="M 2127.97,6165.82 L 2127.97,6177.85 L 1840,6177.85 L 1840,6165.82 L 2127.97,6165.82 Z " />
<path stroke="transparent" fill="#000000" transform="matrix(0.05 0 0 0.05 -7 -279)" d="M 703.294,6193.84 L 697.278,6197.32 L 691.263,6193.53 L 691.263,5905.88 L 703.294,5912.82 L 703.294,6193.84 Z " />
<path stroke="transparent" fill="#000000" transform="matrix(0.05 0 0 0.05 -7 -279)" d="M 946.667,6334.36 L 946.667,6348.25 L 697.554,6204.42 L 697.278,6197.32 L 703.294,6193.84 L 946.667,6334.36 Z " />
<path stroke="transparent" fill="#000000" transform="matrix(0.05 0 0 0.05 -7 -279)" d="M 1190.04,6193.84 L 1202.07,6200.79 L 946.667,6348.25 L 946.667,6334.36 L 1190.04,6193.84 Z " />
<path stroke="transparent" fill="#000000" transform="matrix(0.05 0 0 0.05 -7 -279)" d="M 1190.04,5912.82 L 1202.07,5905.88 L 1202.07,6200.79 L 1190.04,6193.84 L 1190.04,5912.82 Z " />
<path stroke="transparent" fill="#000000" transform="matrix(0.05 0 0 0.05 -7 -279)" d="M 946.667,5772.31 L 946.667,5758.42 L 1202.07,5905.88 L 1190.04,5912.82 L 946.667,5772.31 Z " />
<path stroke="transparent" fill="#000000" transform="matrix(0.05 0 0 0.05 -7 -279)" d="M 703.294,5912.82 L 691.263,5905.88 L 946.667,5758.42 L 946.667,5772.31 L 703.294,5912.82 Z " />
<path stroke="transparent" fill="#000000" transform="matrix(0.05 0 0 0.05 -7 -279)" d="M 453.906,6373.52 L 447.89,6341.3 L 422.998,6319.98 L 691.263,6193.53 L 697.278,6197.32 L 697.554,6204.42 L 453.906,6373.52 Z " />
<path stroke="transparent" fill="#000000" transform="matrix(0.05 0 0 0.05 -7 -279)" d="M 195.494,6202.53 L 201.509,6192.11 L 422.998,6319.98 L 447.89,6341.3 L 441.874,6344.78 L 195.494,6202.53 Z " />
<path stroke="transparent" fill="#000000" transform="matrix(0.05 0 0 0.05 -7 -279)" d="M 453.906,6629.27 L 441.874,6629.27 L 441.874,6344.78 L 447.89,6341.3 L 453.906,6373.52 L 453.906,6629.27 Z " />
<text x="0" y="0" stroke="transparent" fill="#000000" transform="matrix(0.05 0 0 0.05 62.091 12.8546)" style="font:normal normal normal 200px 'Helvetica'" >
CN</text>
<path stroke="transparent" fill="#000000" transform="matrix(0.05 0 0 0.05 -7 -279)" d="M 1341.28,5790.86 L 1371.28,5842.83 L 1359.79,5846.99 L 1331.93,5798.73 L 1341.28,5790.86 Z " />
<path stroke="transparent" fill="#000000" transform="matrix(0.05 0 0 0.05 -7 -279)" d="M 1293.49,5831.07 L 1312.57,5864.11 L 1301.08,5868.27 L 1284.14,5838.93 L 1293.49,5831.07 Z " />
<path stroke="transparent" fill="#000000" transform="matrix(0.05 0 0 0.05 -7 -279)" d="M 1245.7,5871.27 L 1253.85,5885.39 L 1242.37,5889.56 L 1236.35,5879.14 L 1245.7,5871.27 Z " />
</svg>
