<?xml version="1.0" standalone="no" ?>
<!DOCTYPE svg PUBLIC "-//W3C//DTD SVG 1.1//EN" "http://www.w3.org/Graphics/SVG/1.1/DTD/svg11.dtd">
<svg width="503px" height="74px" viewBox="0 0 503 74" style="background-color: #ffffff00" xmlns="http://www.w3.org/2000/svg" xmlns:xlink="http://www.w3.org/1999/xlink" version="1.1" >
<path stroke="transparent" fill="#000000" transform="matrix(0.05 0 0 0.05 -14 -74)" d="M 583.372,2141.42 L 589.388,2131 L 595.404,2134.47 L 595.404,2418.97 L 583.372,2418.97 L 583.372,2141.42 Z " />
<path stroke="transparent" fill="#000000" transform="matrix(0.05 0 0 0.05 -14 -74)" d="M 336.992,1992.23 L 343.008,1981.81 L 589.388,2124.05 L 589.388,2131 L 577.357,2131 L 336.992,1992.23 Z " />
<text x="0" y="0" stroke="transparent" fill="#000000" transform="matrix(0.05 0 0 0.05 25.1727 28.9372)" style="font:normal normal normal 200px 'Helvetica'" >
Br</text>
<path stroke="transparent" fill="#000000" transform="matrix(0.05 0 0 0.05 -14 -74)" d="M 738.202,2038.14 L 744.218,2048.56 L 595.404,2134.47 L 589.388,2131 L 589.388,2124.05 L 738.202,2038.14 Z " />
<text x="0" y="0" stroke="transparent" fill="#000000" transform="matrix(0.05 0 0 0.05 54.3333 23.7492)" style="font:normal normal normal 200px 'Helvetica'" >
1a) </text>
<text x="0" y="0" stroke="transparent" fill="#000000" transform="matrix(0.05 0 0 0.05 71.5648 23.7492)" style="font:normal normal normal 200px 'Helvetica'" >
Mg </text>
<text x="0" y="0" stroke="transparent" fill="#000000" transform="matrix(0.05 0 0 0.05 88.2347 23.7492)" style="font:normal normal normal 200px 'Helvetica'" >
/ </text>
<text x="0" y="0" stroke="transparent" fill="#000000" transform="matrix(0.05 0 0 0.05 93.7913 23.7492)" style="font:normal normal normal 200px 'Helvetica'" >
Et</text>
<text x="0" y="0" stroke="transparent" fill="#000000" transform="matrix(0.05 0 0 0.05 103.24 26.049)" style="font:normal normal normal 150px 'Helvetica'" >
2</text>
<text x="0" y="0" stroke="transparent" fill="#000000" transform="matrix(0.05 0 0 0.05 107.411 23.7492)" style="font:normal normal normal 200px 'Helvetica'" >
O</text>
<text x="0" y="0" stroke="transparent" fill="#000000" transform="matrix(0.05 0 0 0.05 54.3333 45.6992)" style="font:normal normal normal 200px 'Helvetica'" >
 </text>
<text x="0" y="0" stroke="transparent" fill="#000000" transform="matrix(0.05 0 0 0.05 57.1116 45.6992)" style="font:normal normal normal 200px 'Helvetica'" >
 </text>
<text x="0" y="0" stroke="transparent" fill="#000000" transform="matrix(0.05 0 0 0.05 59.89 45.6992)" style="font:normal normal normal 200px 'Helvetica'" >
b)</text>
<text x="0" y="0" stroke="transparent" fill="#000000" transform="matrix(0.05 0 0 0.05 54.3333 67.6492)" style="font:normal normal normal 200px 'Helvetica'" >
 </text>
<text x="0" y="0" stroke="transparent" fill="#000000" transform="matrix(0.05 0 0 0.05 57.1116 67.6492)" style="font:normal normal normal 200px 'Helvetica'" >
 </text>
<text x="0" y="0" stroke="transparent" fill="#000000" transform="matrix(0.05 0 0 0.05 59.89 67.6492)" style="font:normal normal normal 200px 'Helvetica'" >
c) </text>
<text x="0" y="0" stroke="transparent" fill="#000000" transform="matrix(0.05 0 0 0.05 70.9984 67.6492)" style="font:normal normal normal 200px 'Helvetica'" >
H</text>
<text x="0" y="0" stroke="transparent" fill="#000000" transform="matrix(0.05 0 0 0.05 78.22 69.949)" style="font:normal normal normal 150px 'Helvetica'" >
2</text>
<text x="0" y="0" stroke="transparent" fill="#000000" transform="matrix(0.05 0 0 0.05 82.3912 67.6492)" style="font:normal normal normal 200px 'Helvetica'" >
O/H</text>
<text x="0" y="0" stroke="transparent" fill="#000000" transform="matrix(0.05 0 0 0.05 100.169 69.949)" style="font:normal normal normal 150px 'Helvetica'" >
3</text>
<text x="0" y="0" stroke="transparent" fill="#000000" transform="matrix(0.05 0 0 0.05 104.341 67.6492)" style="font:normal normal normal 200px 'Helvetica'" >
O</text>
<text x="0" y="0" stroke="transparent" fill="#000000" transform="matrix(0.05 0 0 0.05 112.119 64.0628)" style="font:normal normal normal 150px 'Helvetica'" >
+</text>
<path stroke="transparent" fill="#000000" transform="matrix(0.05 0 0 0.05 -14 -74)" d="M 2135.88,2398.52 L 2149.39,2397.67 L 2149.39,2404.61 L 1893.98,2552.07 L 1906.02,2531.23 L 2135.88,2398.52 Z " />
<path stroke="transparent" fill="#000000" transform="matrix(0.05 0 0 0.05 -14 -74)" d="M 2398.78,2534.7 L 2398.78,2548.6 L 2149.39,2404.61 L 2149.39,2397.67 L 2152.4,2392.46 L 2398.78,2534.7 Z " />
<path stroke="transparent" fill="#000000" transform="matrix(0.05 0 0 0.05 -14 -74)" d="M 2645.16,2392.46 L 2651.17,2402.88 L 2398.78,2548.6 L 2398.78,2534.7 L 2645.16,2392.46 Z " />
<text x="0" y="0" stroke="transparent" fill="#000000" transform="matrix(0.05 0 0 0.05 77.5039 42.2705)" style="font:normal normal normal 200px 'Helvetica'" >
O</text>
<path stroke="transparent" fill="#000000" transform="matrix(0.05 0 0 0.05 -14 -74)" d="M 1976.09,2332.25 L 2006.09,2280.29 L 2152.4,2392.46 L 2149.39,2397.67 L 2135.88,2398.52 L 1976.09,2332.25 Z " />
<path stroke="transparent" fill="#000000" transform="matrix(0.05 0 0 0.05 -14 -74)" d="M 1906.02,2531.23 L 1893.98,2552.07 L 1893.98,2363.03 L 1906.02,2363.03 L 1906.02,2531.23 Z " />
<path stroke="transparent" fill="#000000" transform="matrix(0.05 0 0 0.05 -14 -74)" d="M 2756.36,2054.32 L 1366.67,2054.32 L 1366.67,2042.32 L 2756.36,2042.32 Z " />
<path stroke="transparent" fill="#000000" transform="matrix(0.05 0 0 0.05 -14 -74)" d="M 2913.33,2048.32 C 2913.33,2048.32 2732.86,2094.43 2732.86,2094.43 C 2732.86,2094.43 2755.36,2068.5 2755.36,2048.32 C 2755.36,2027.7 2732.86,2001.2 2732.86,2001.2 C 2732.86,2001.2 2913.33,2048.32 2913.33,2048.32 C 2913.33,2048.32 2913.33,2048.32 2913.33,2048.32 " />
<path stroke="#000000" stroke-width="1" fill="transparent" transform="matrix(0.05 0 0 0.05 -14 -74)" d="M 2913.33,2048.32 C 2913.33,2048.32 2732.86,2094.43 2732.86,2094.43 C 2732.86,2094.43 2755.36,2068.5 2755.36,2048.32 C 2755.36,2027.7 2732.86,2001.2 2732.86,2001.2 C 2732.86,2001.2 2913.33,2048.32 2913.33,2048.32 C 2913.33,2048.32 2913.33,2048.32 2913.33,2048.32 " />
<path stroke="transparent" fill="#000000" transform="matrix(0.05 0 0 0.05 -14 -74)" d="M 3758.99,2117.13 L 3765.44,2120.35 L 3765.44,2127.29 L 3516.05,2271.28 L 3516.05,2257.39 L 3758.99,2117.13 Z " />
<path stroke="transparent" fill="#000000" transform="matrix(0.05 0 0 0.05 -14 -74)" d="M 4014.83,2257.39 L 4014.83,2271.28 L 3765.44,2127.29 L 3765.44,2120.35 L 3771.89,2117.13 L 4014.83,2257.39 Z " />
<path stroke="transparent" fill="#000000" transform="matrix(0.05 0 0 0.05 -14 -74)" d="M 4261.21,2115.14 L 4267.23,2125.56 L 4014.83,2271.28 L 4014.83,2257.39 L 4261.21,2115.14 Z " />
<text x="0" y="0" stroke="transparent" fill="#000000" transform="matrix(0.05 0 0 0.05 170.776 21.2054)" style="font:normal normal normal 200px 'Helvetica'" >
OH</text>
<path stroke="transparent" fill="#000000" transform="matrix(0.05 0 0 0.05 -14 -74)" d="M 3735.44,1942.73 L 3795.44,1942.73 L 3771.89,2117.13 L 3765.44,2120.35 L 3758.99,2117.13 L 3735.44,1942.73 Z " />
<path stroke="transparent" fill="#000000" transform="matrix(0.05 0 0 0.05 -14 -74)" d="M 3266.67,2127.29 L 3266.67,2120.35 L 3272.68,2116.88 L 3516.05,2257.39 L 3516.05,2271.28 L 3266.67,2127.29 Z " />
<text x="0" y="0" stroke="transparent" fill="#000000" transform="matrix(0.05 0 0 0.05 207.667 26.4159)" style="font:normal normal normal 200px 'Helvetica'" >
2) </text>
<text x="0" y="0" stroke="transparent" fill="#000000" transform="matrix(0.05 0 0 0.05 219.337 26.4159)" style="font:normal normal normal 200px 'Helvetica'" >
Dess-Martin</text>
<text x="0" y="0" stroke="transparent" fill="#000000" transform="matrix(0.05 0 0 0.05 224.335 48.0659)" style="font:normal normal normal 200px 'Helvetica'" >
CH</text>
<text x="0" y="0" stroke="transparent" fill="#000000" transform="matrix(0.05 0 0 0.05 238.779 50.3657)" style="font:normal normal normal 150px 'Helvetica'" >
2</text>
<text x="0" y="0" stroke="transparent" fill="#000000" transform="matrix(0.05 0 0 0.05 242.95 48.0659)" style="font:normal normal normal 200px 'Helvetica'" >
Cl</text>
<text x="0" y="0" stroke="transparent" fill="#000000" transform="matrix(0.05 0 0 0.05 252.393 50.3657)" style="font:normal normal normal 150px 'Helvetica'" >
2</text>
<path stroke="transparent" fill="#000000" transform="matrix(0.05 0 0 0.05 -14 -74)" d="M 5783.03,2147.65 L 4380,2147.65 L 4380,2135.65 L 5783.03,2135.65 Z " />
<path stroke="transparent" fill="#000000" transform="matrix(0.05 0 0 0.05 -14 -74)" d="M 5940,2141.65 C 5940,2141.65 5759.53,2187.77 5759.53,2187.77 C 5759.53,2187.77 5782.03,2161.83 5782.03,2141.65 C 5782.03,2121.03 5759.53,2094.53 5759.53,2094.53 C 5759.53,2094.53 5940,2141.65 5940,2141.65 C 5940,2141.65 5940,2141.65 5940,2141.65 " />
<path stroke="#000000" stroke-width="1" fill="transparent" transform="matrix(0.05 0 0 0.05 -14 -74)" d="M 5940,2141.65 C 5940,2141.65 5759.53,2187.77 5759.53,2187.77 C 5759.53,2187.77 5782.03,2161.83 5782.03,2141.65 C 5782.03,2121.03 5759.53,2094.53 5759.53,2094.53 C 5759.53,2094.53 5940,2141.65 5940,2141.65 C 5940,2141.65 5940,2141.65 5940,2141.65 " />
<path stroke="transparent" fill="#000000" transform="matrix(0.05 0 0 0.05 -14 -74)" d="M 6778.78,2133.4 L 6778.78,2147.29 L 6529.39,2291.28 L 6529.39,2277.39 L 6778.78,2133.4 Z " />
<path stroke="transparent" fill="#000000" transform="matrix(0.05 0 0 0.05 -14 -74)" d="M 7028.16,2277.39 L 7028.16,2291.28 L 6778.78,2147.29 L 6778.78,2133.4 L 7028.16,2277.39 Z " />
<path stroke="transparent" fill="#000000" transform="matrix(0.05 0 0 0.05 -14 -74)" d="M 7274.54,2135.14 L 7280.56,2145.56 L 7028.16,2291.28 L 7028.16,2277.39 L 7274.54,2135.14 Z " />
<text x="0" y="0" stroke="transparent" fill="#000000" transform="matrix(0.05 0 0 0.05 321.443 22.2054)" style="font:normal normal normal 200px 'Helvetica'" >
O</text>
<path stroke="transparent" fill="#000000" transform="matrix(0.05 0 0 0.05 -14 -74)" d="M 6746.84,1961.73 L 6758.87,1961.73 L 6758.87,2155.31 L 6746.84,2155.31 L 6746.84,1961.73 Z " />
<path stroke="transparent" fill="#000000" transform="matrix(0.05 0 0 0.05 -14 -74)" d="M 6798.68,1961.73 L 6810.71,1961.73 L 6810.71,2155.31 L 6798.68,2155.31 L 6798.68,1961.73 Z " />
<path stroke="transparent" fill="#000000" transform="matrix(0.05 0 0 0.05 -14 -74)" d="M 6280,2147.29 L 6280,2140.35 L 6286.02,2136.88 L 6529.39,2277.39 L 6529.39,2291.28 L 6280,2147.29 Z " />
<path stroke="transparent" fill="#000000" transform="matrix(0.05 0 0 0.05 -14 -74)" d="M 6273.98,1852.38 L 6286.02,1852.38 L 6286.02,2136.88 L 6280,2140.35 L 6273.98,2129.93 L 6273.98,1852.38 Z " />
<text x="0" y="0" stroke="transparent" fill="#000000" transform="matrix(0.05 0 0 0.05 358.747 24.0825)" style="font:normal normal normal 200px 'Helvetica'" >
3) </text>
<text x="0" y="0" stroke="transparent" fill="#000000" transform="matrix(0.05 0 0 0.05 370.417 24.0825)" style="font:normal normal normal 200px 'Helvetica'" >
Ph</text>
<text x="0" y="0" stroke="transparent" fill="#000000" transform="matrix(0.05 0 0 0.05 382.648 26.3823)" style="font:normal normal normal 150px 'Helvetica'" >
3</text>
<text x="0" y="0" stroke="transparent" fill="#000000" transform="matrix(0.05 0 0 0.05 386.819 24.0825)" style="font:normal normal normal 200px 'Helvetica'" >
P=CH</text>
<text x="0" y="0" stroke="transparent" fill="#000000" transform="matrix(0.05 0 0 0.05 413.772 26.3823)" style="font:normal normal normal 150px 'Helvetica'" >
2</text>
<text x="0" y="0" stroke="transparent" fill="#000000" transform="matrix(0.05 0 0 0.05 378.626 46.0325)" style="font:normal normal normal 200px 'Helvetica'" >
THF</text>
<path stroke="transparent" fill="#000000" transform="matrix(0.05 0 0 0.05 -14 -74)" d="M 8641.55,2114.32 L 7406.67,2114.32 L 7406.67,2102.32 L 8641.55,2102.32 Z " />
<path stroke="transparent" fill="#000000" transform="matrix(0.05 0 0 0.05 -14 -74)" d="M 8798.52,2108.32 C 8798.52,2108.32 8618.05,2154.43 8618.05,2154.43 C 8618.05,2154.43 8640.55,2128.5 8640.55,2108.32 C 8640.55,2087.7 8618.05,2061.2 8618.05,2061.2 C 8618.05,2061.2 8798.52,2108.32 8798.52,2108.32 C 8798.52,2108.32 8798.52,2108.32 8798.52,2108.32 " />
<path stroke="#000000" stroke-width="1" fill="transparent" transform="matrix(0.05 0 0 0.05 -14 -74)" d="M 8798.52,2108.32 C 8798.52,2108.32 8618.05,2154.43 8618.05,2154.43 C 8618.05,2154.43 8640.55,2128.5 8640.55,2108.32 C 8640.55,2087.7 8618.05,2061.2 8618.05,2061.2 C 8618.05,2061.2 8798.52,2108.32 8798.52,2108.32 C 8798.52,2108.32 8798.52,2108.32 8798.52,2108.32 " />
<path stroke="transparent" fill="#000000" transform="matrix(0.05 0 0 0.05 -14 -74)" d="M 343.008,2280.19 L 336.992,2269.77 L 577.357,2131 L 589.388,2131 L 583.372,2141.42 L 343.008,2280.19 Z " />
<path stroke="transparent" fill="#000000" transform="matrix(0.05 0 0 0.05 -14 -74)" d="M 3020.29,2269.54 L 3014.27,2259.12 L 3254.64,2120.35 L 3266.67,2120.35 L 3266.67,2127.29 L 3020.29,2269.54 Z " />
<path stroke="transparent" fill="#000000" transform="matrix(0.05 0 0 0.05 -14 -74)" d="M 3260.65,1832.38 L 3272.68,1832.38 L 3272.68,2116.88 L 3266.67,2120.35 L 3260.65,2109.93 L 3260.65,1832.38 Z " />
<path stroke="transparent" fill="#000000" transform="matrix(0.05 0 0 0.05 -14 -74)" d="M 3014.27,1981.57 L 3020.29,1971.15 L 3260.65,2109.93 L 3266.67,2120.35 L 3254.64,2120.35 L 3014.27,1981.57 Z " />
<path stroke="transparent" fill="#000000" transform="matrix(0.05 0 0 0.05 -14 -74)" d="M 6033.62,2289.54 L 6027.6,2279.12 L 6267.97,2140.35 L 6280,2140.35 L 6280,2147.29 L 6033.62,2289.54 Z " />
<path stroke="transparent" fill="#000000" transform="matrix(0.05 0 0 0.05 -14 -74)" d="M 6027.6,2001.57 L 6033.62,1991.15 L 6273.98,2129.93 L 6280,2140.35 L 6267.97,2140.35 L 6027.6,2001.57 Z " />
<path stroke="transparent" fill="#000000" transform="matrix(0.05 0 0 0.05 -14 -74)" d="M 9727.09,2093.4 L 9727.09,2107.29 L 9477.71,2251.28 L 9477.71,2237.39 L 9727.09,2093.4 Z " />
<path stroke="transparent" fill="#000000" transform="matrix(0.05 0 0 0.05 -14 -74)" d="M 9976.48,2237.39 L 9976.48,2251.28 L 9727.09,2107.29 L 9727.09,2093.4 L 9976.48,2237.39 Z " />
<path stroke="transparent" fill="#000000" transform="matrix(0.05 0 0 0.05 -14 -74)" d="M 10222.9,2095.14 L 10228.9,2105.56 L 9976.48,2251.28 L 9976.48,2237.39 L 10222.9,2095.14 Z " />
<path stroke="transparent" fill="#000000" transform="matrix(0.05 0 0 0.05 -14 -74)" d="M 9695.16,1812.38 L 9707.19,1812.38 L 9707.19,2115.31 L 9695.16,2115.31 L 9695.16,1812.38 Z " />
<path stroke="transparent" fill="#000000" transform="matrix(0.05 0 0 0.05 -14 -74)" d="M 9747,1812.38 L 9759.03,1812.38 L 9759.03,2115.31 L 9747,2115.31 L 9747,1812.38 Z " />
<path stroke="transparent" fill="#000000" transform="matrix(0.05 0 0 0.05 -14 -74)" d="M 9228.32,2107.29 L 9228.32,2100.35 L 9234.33,2096.88 L 9477.71,2237.39 L 9477.71,2251.28 L 9228.32,2107.29 Z " />
<path stroke="transparent" fill="#000000" transform="matrix(0.05 0 0 0.05 -14 -74)" d="M 9222.3,1812.38 L 9234.33,1812.38 L 9234.33,2096.88 L 9228.32,2100.35 L 9222.3,2089.93 L 9222.3,1812.38 Z " />
<path stroke="transparent" fill="#000000" transform="matrix(0.05 0 0 0.05 -14 -74)" d="M 8981.94,2249.54 L 8975.92,2239.12 L 9216.29,2100.35 L 9228.32,2100.35 L 9228.32,2107.29 L 8981.94,2249.54 Z " />
<path stroke="transparent" fill="#000000" transform="matrix(0.05 0 0 0.05 -14 -74)" d="M 8975.92,1961.57 L 8981.94,1951.15 L 9222.3,2089.93 L 9228.32,2100.35 L 9216.29,2100.35 L 8975.92,1961.57 Z " />
<text x="0" y="0" stroke="transparent" fill="#000000" transform="matrix(0.05 0 0 0.05 162.574 61.8691)" style="font:normal normal normal 360px 'Helvetica'" >
A</text>
<text x="0" y="0" stroke="transparent" fill="#000000" transform="matrix(0.05 0 0 0.05 313.356 60.8691)" style="font:normal normal normal 360px 'Helvetica'" >
B</text>
<text x="0" y="0" stroke="transparent" fill="#000000" transform="matrix(0.05 0 0 0.05 459.885 59.8691)" style="font:normal normal normal 360px 'Helvetica'" >
C</text>
<path stroke="#000000" stroke-width="12" fill="transparent" transform="matrix(0.05 0 0 0.05 -14 -74)" d="M 4340,2900 C 4340,2900 4340,1619 4340,1619 C 4340,1619 2899,1619 2899,1619 C 2899,1619 2899,2900 2899,2900 C 2899,2900 4340,2900 4340,2900 " />
<path stroke="#000000" stroke-width="12" fill="transparent" transform="matrix(0.05 0 0 0.05 -14 -74)" d="M 7340,2840 C 7340,2840 7340,1559 7340,1559 C 7340,1559 5899,1559 5899,1559 C 5899,1559 5899,2840 5899,2840 C 5899,2840 7340,2840 7340,2840 " />
<path stroke="#000000" stroke-width="12" fill="transparent" transform="matrix(0.05 0 0 0.05 -14 -74)" d="M 10280,2820 C 10280,2820 10280,1539 10280,1539 C 10280,1539 8839,1539 8839,1539 C 8839,1539 8839,2820 8839,2820 C 8839,2820 10280,2820 10280,2820 " />
</svg>
