<?xml version="1.0" standalone="no" ?>
<!DOCTYPE svg PUBLIC "-//W3C//DTD SVG 1.1//EN" "http://www.w3.org/Graphics/SVG/1.1/DTD/svg11.dtd">
<svg width="271px" height="140px" viewBox="0 0 271 140" style="background-color: #ffffff00" xmlns="http://www.w3.org/2000/svg" xmlns:xlink="http://www.w3.org/1999/xlink" version="1.1" >
<path stroke="transparent" fill="#000000" transform="matrix(0.05 0 0 0.05 -54 -524)" d="M 3256,12312.6 L 2826.6,12312.6 L 2826.6,12300.6 L 3256,12300.6 Z " />
<path stroke="transparent" fill="#000000" transform="matrix(0.05 0 0 0.05 -54 -524)" d="M 3360,12306.6 C 3360,12306.6 3240,12337.6 3240,12337.6 C 3240,12337.6 3255,12320.2 3255,12306.6 C 3255,12292.6 3240,12274.6 3240,12274.6 C 3240,12274.6 3360,12306.6 3360,12306.6 C 3360,12306.6 3360,12306.6 3360,12306.6 " />
<path stroke="#000000" stroke-width="1" fill="transparent" transform="matrix(0.05 0 0 0.05 -54 -524)" d="M 3360,12306.6 C 3360,12306.6 3240,12337.6 3240,12337.6 C 3240,12337.6 3255,12320.2 3255,12306.6 C 3255,12292.6 3240,12274.6 3240,12274.6 C 3240,12274.6 3360,12306.6 3360,12306.6 C 3360,12306.6 3360,12306.6 3360,12306.6 " />
<path stroke="transparent" fill="#000000" transform="matrix(0.05 0 0 0.05 -54 -524)" d="M 5136.92,12299.4 L 4640.92,12299.4 L 4640.92,12287.4 L 5136.92,12287.4 Z " />
<path stroke="transparent" fill="#000000" transform="matrix(0.05 0 0 0.05 -54 -524)" d="M 5240.92,12293.4 C 5240.92,12293.4 5120.92,12324.4 5120.92,12324.4 C 5120.92,12324.4 5135.92,12307 5135.92,12293.4 C 5135.92,12279.4 5120.92,12261.4 5120.92,12261.4 C 5120.92,12261.4 5240.92,12293.4 5240.92,12293.4 C 5240.92,12293.4 5240.92,12293.4 5240.92,12293.4 " />
<path stroke="#000000" stroke-width="1" fill="transparent" transform="matrix(0.05 0 0 0.05 -54 -524)" d="M 5240.92,12293.4 C 5240.92,12293.4 5120.92,12324.4 5120.92,12324.4 C 5120.92,12324.4 5135.92,12307 5135.92,12293.4 C 5135.92,12279.4 5120.92,12261.4 5120.92,12261.4 C 5120.92,12261.4 5240.92,12293.4 5240.92,12293.4 C 5240.92,12293.4 5240.92,12293.4 5240.92,12293.4 " />
<text x="0" y="0" stroke="transparent" fill="#000000" transform="matrix(0.05 0 0 0.05 10 135.33)" style="font:normal normal normal 200px 'Helvetica'" >
Syn-coplanar</text>
<path stroke="transparent" fill="#000000" transform="matrix(0.05 0 0 0.05 -54 -524)" d="M 3767.88,10893.2 L 3779.88,10893.2 L 3779.88,11573.4 L 3767.88,11573.4 L 3767.88,10893.2 Z " />
<text x="0" y="0" stroke="transparent" fill="#000000" transform="matrix(0.05 0 0 0.05 116.034 9.32999)" style="font:normal normal normal 200px 'Helvetica'" >
Rotate </text>
<text x="0" y="0" stroke="transparent" fill="#000000" transform="matrix(0.05 0 0 0.05 148.275 9.32999)" style="font:normal normal normal 200px 'Helvetica'" >
90°</text>
<path stroke="transparent" fill="#000000" transform="matrix(0.05 0 0 0.05 -54 -524)" d="M 1957.54,12272.4 L 1961,12278.4 L 1957.54,12284.4 L 1601.21,12284.4 L 1582.23,12272.4 L 1957.54,12272.4 L 1957.54,12272.4 Z " />
<text x="0" y="0" stroke="transparent" fill="#0000ff" transform="matrix(0.05 0 0 0.05 9.41331 111.076)" style="font:normal normal normal 200px 'Helvetica'" >
H</text>
<path stroke="transparent" fill="#000000" transform="matrix(0.05 0 0 0.05 -54 -524)" d="M 1392,12526.1 L 1381.6,12520.1 L 1478.48,12352.2 L 1498.35,12341.8 L 1392,12526.1 L 1392,12526.1 Z " />
<text x="0" y="0" stroke="transparent" fill="#000000" transform="matrix(0.05 0 0 0.05 3.34756 74.7764)" style="font:normal normal normal 200px 'Helvetica'" >
Et</text>
<path stroke="transparent" fill="#000000" transform="matrix(0.05 0 0 0.05 -54 -524)" d="M 1359.2,11998.2 L 1369.59,11992.2 L 1493.27,12206.3 L 1492.36,12228.7 L 1359.2,11998.2 L 1359.2,11998.2 Z " />
<path stroke="transparent" fill="#000000" transform="matrix(0.05 0 0 0.05 -54 -524)" d="M 1534.19,12283 L 1528.2,12283.2 L 1522.21,12283.4 L 1522.01,12278.6 L 1528,12278.4 L 1533.99,12278.2 L 1534.19,12283 Z " />
<path stroke="transparent" fill="#ffffff" transform="matrix(0.05 0 0 0.05 -54 -524)" d="M 1351.05,12274.6 A 172.746,172.746 0 1 0 1696.55,12274.6A 172.746,172.746 0 1 0 1351.05,12274.6Z " />
<path stroke="#000000" stroke-width="12" fill="transparent" transform="matrix(0.05 0 0 0.05 -54 -524)" d="M 1351.05,12274.6 A 172.746,172.746 0 1 0 1696.55,12274.6A 172.746,172.746 0 1 0 1351.05,12274.6Z " />
<text x="0" y="0" stroke="transparent" fill="#0000ff" transform="matrix(0.05 0 0 0.05 0.931961 100.436)" style="font:normal normal normal 200px 'Helvetica'" >
Br</text>
<path stroke="transparent" fill="#000000" transform="matrix(0.05 0 0 0.05 -54 -524)" d="M 1342.58,12387.4 L 1337.01,12376.7 L 1522.05,12279.7 L 1528.2,12283.2 L 1527.92,12290.1 L 1342.58,12387.4 Z " />
<text x="0" y="0" stroke="transparent" fill="#000000" transform="matrix(0.05 0 0 0.05 19.5525 79.3464)" style="font:normal normal normal 200px 'Helvetica'" >
Me</text>
<path stroke="transparent" fill="#000000" transform="matrix(0.05 0 0 0.05 -54 -524)" d="M 1529.65,12098.1 L 1541.64,12098.6 L 1534.33,12280 L 1528.2,12283.2 L 1522.2,12283 L 1529.65,12098.1 Z " />
<text x="0" y="0" stroke="transparent" fill="#000000" transform="matrix(0.05 0 0 0.05 31.7433 101.446)" style="font:normal normal normal 200px 'Helvetica'" >
H</text>
<path stroke="transparent" fill="#000000" transform="matrix(0.05 0 0 0.05 -54 -524)" d="M 1674.03,12368.3 L 1667.62,12378.4 L 1527.92,12290.1 L 1528.2,12283.2 L 1534.33,12280 L 1674.03,12368.3 Z " />
<path stroke="transparent" fill="#000000" transform="matrix(0.05 0 0 0.05 -54 -524)" d="M 2108.46,12521.8 L 2101.54,12533.8 L 1957.54,12284.4 L 1961,12278.4 L 1967.93,12278.4 L 2108.46,12521.8 Z " />
<path stroke="transparent" fill="#000000" transform="matrix(0.05 0 0 0.05 -54 -524)" d="M 2140.12,12473 L 2129.73,12479 L 2015.66,12281.4 L 2026.05,12275.4 L 2140.12,12473 Z " />
<path stroke="transparent" fill="#000000" transform="matrix(0.05 0 0 0.05 -54 -524)" d="M 2389.34,12521.8 L 2396.26,12533.8 L 2101.54,12533.8 L 2108.46,12521.8 L 2389.34,12521.8 Z " />
<path stroke="transparent" fill="#000000" transform="matrix(0.05 0 0 0.05 -54 -524)" d="M 2529.87,12278.4 L 2543.73,12278.4 L 2396.26,12533.8 L 2389.34,12521.8 L 2529.87,12278.4 Z " />
<path stroke="transparent" fill="#000000" transform="matrix(0.05 0 0 0.05 -54 -524)" d="M 2471.75,12275.4 L 2482.14,12281.4 L 2368.07,12479 L 2357.68,12473 L 2471.75,12275.4 Z " />
<path stroke="transparent" fill="#000000" transform="matrix(0.05 0 0 0.05 -54 -524)" d="M 2389.34,12035 L 2396.26,12023 L 2543.73,12278.4 L 2529.87,12278.4 L 2389.34,12035 Z " />
<path stroke="transparent" fill="#000000" transform="matrix(0.05 0 0 0.05 -54 -524)" d="M 2108.46,12035 L 2101.54,12023 L 2396.26,12023 L 2389.34,12035 L 2108.46,12035 Z " />
<path stroke="transparent" fill="#000000" transform="matrix(0.05 0 0 0.05 -54 -524)" d="M 2134.91,12086.8 L 2134.91,12074.8 L 2362.89,12074.8 L 2362.89,12086.8 L 2134.91,12086.8 Z " />
<path stroke="transparent" fill="#000000" transform="matrix(0.05 0 0 0.05 -54 -524)" d="M 1967.93,12278.4 L 1961,12278.4 L 1957.54,12272.4 L 2101.54,12023 L 2108.46,12035 L 1967.93,12278.4 Z " />
<path stroke="transparent" fill="#000000" transform="matrix(0.05 0 0 0.05 -54 -524)" d="M 6127.03,12099.1 L 6134.41,12110.9 L 5846.62,12122.1 L 5842.92,12116.2 L 5846.15,12110.1 L 6127.03,12099.1 Z " />
<path stroke="transparent" fill="#000000" transform="matrix(0.05 0 0 0.05 -54 -524)" d="M 6098.56,12048.4 L 6099.03,12060.4 L 5871.03,12069.2 L 5870.56,12057.2 L 6098.56,12048.4 Z " />
<text x="0" y="0" stroke="transparent" fill="#000000" transform="matrix(0.05 0 0 0.05 222.234 73.2264)" style="font:normal normal normal 200px 'Helvetica'" >
Et</text>
<path stroke="transparent" fill="#000000" transform="matrix(0.05 0 0 0.05 -54 -524)" d="M 5740.18,11964.6 L 5750.33,11958.2 L 5846.15,12110.1 L 5842.92,12116.2 L 5836,12116.5 L 5740.18,11964.6 Z " />
<path stroke="transparent" fill="#000000" transform="matrix(0.05 0 0 0.05 -54 -524)" d="M 5715.64,12370.9 L 5708.72,12371.2 L 5705.02,12365.3 L 5836,12116.5 L 5842.92,12116.2 L 5846.62,12122.1 L 5715.64,12370.9 Z " />
<path stroke="transparent" fill="#ff0000" transform="matrix(0.05 0 0 0.05 -54 -524)" d="M 5869.24,12614.3 L 5855.4,12614.9 L 5705.49,12377.3 L 5708.72,12371.2 L 5715.64,12370.9 L 5869.24,12614.3 Z " />
<path stroke="transparent" fill="#ff0000" transform="matrix(0.05 0 0 0.05 -54 -524)" d="M 5807.63,12613.8 L 5797.48,12620.2 L 5675.79,12427.3 L 5685.94,12420.9 L 5807.63,12613.8 Z " />
<path stroke="transparent" fill="#ff0000" transform="matrix(0.05 0 0 0.05 -54 -524)" d="M 5732.02,12875.5 L 5724.62,12863.7 L 5855.4,12614.9 L 5869.24,12614.3 L 5732.02,12875.5 Z " />
<path stroke="transparent" fill="#ff0000" transform="matrix(0.05 0 0 0.05 -54 -524)" d="M 5437.29,12886.9 L 5443.75,12874.7 L 5724.62,12863.7 L 5732.02,12875.5 L 5437.29,12886.9 Z " />
<path stroke="transparent" fill="#ff0000" transform="matrix(0.05 0 0 0.05 -54 -524)" d="M 5468.64,12833.8 L 5468.18,12821.8 L 5696.13,12813 L 5696.6,12825 L 5468.64,12833.8 Z " />
<path stroke="transparent" fill="#ff0000" transform="matrix(0.05 0 0 0.05 -54 -524)" d="M 5280,12637.5 L 5293.84,12636.9 L 5443.75,12874.7 L 5437.29,12886.9 L 5280,12637.5 Z " />
<path stroke="transparent" fill="#ff0000" transform="matrix(0.05 0 0 0.05 -54 -524)" d="M 5417.43,12376.5 L 5424.81,12388.3 L 5293.84,12636.9 L 5280,12637.5 L 5417.43,12376.5 Z " />
<path stroke="transparent" fill="#ff0000" transform="matrix(0.05 0 0 0.05 -54 -524)" d="M 5447.73,12430.2 L 5458.35,12435.8 L 5352.04,12637.7 L 5341.42,12632.1 L 5447.73,12430.2 Z " />
<path stroke="transparent" fill="#ff0000" transform="matrix(0.05 0 0 0.05 -54 -524)" d="M 5705.02,12365.3 L 5708.72,12371.2 L 5705.49,12377.3 L 5424.81,12388.3 L 5417.43,12376.5 L 5705.02,12365.3 Z " />
<text x="0" y="0" stroke="transparent" fill="#ff0000" transform="matrix(0.05 0 0 0.05 255.808 72.0964)" style="font:normal normal normal 200px 'Helvetica'" >
Me</text>
<path stroke="transparent" fill="#000000" transform="matrix(0.05 0 0 0.05 -54 -524)" d="M 6200.21,11960.2 L 6210.83,11965.8 L 6134.41,12110.9 L 6127.03,12099.1 L 6200.21,11960.2 Z " />
<path stroke="transparent" fill="#000000" transform="matrix(0.05 0 0 0.05 -54 -524)" d="M 4317.43,12551.1 L 4318.64,12558.1 L 4313.46,12562.4 L 3983.43,12420.3 L 3960.48,12397.3 L 4317.43,12551.1 L 4317.43,12551.1 Z " />
<text x="0" y="0" stroke="transparent" fill="#000000" transform="matrix(0.05 0 0 0.05 111.119 76.5719)" style="font:normal normal normal 200px 'Helvetica'" >
Et</text>
<path stroke="transparent" fill="#000000" transform="matrix(0.05 0 0 0.05 -54 -524)" d="M 3532.2,12015.6 L 3540.82,12007.2 L 3826.57,12302.1 L 3832.96,12325.9 L 3532.2,12015.6 L 3532.2,12015.6 Z " />
<path stroke="transparent" fill="#000000" transform="matrix(0.05 0 0 0.05 -54 -524)" d="M 3891.83,12376.2 L 3885.84,12376.4 L 3879.84,12376.7 L 3879.64,12371.9 L 3885.64,12371.6 L 3891.63,12371.4 L 3891.83,12376.2 Z " />
<path stroke="transparent" fill="#ffffff" transform="matrix(0.05 0 0 0.05 -54 -524)" d="M 3708.69,12367.8 A 172.746,172.746 0 1 0 4054.19,12367.8A 172.746,172.746 0 1 0 3708.69,12367.8Z " />
<path stroke="#000000" stroke-width="12" fill="transparent" transform="matrix(0.05 0 0 0.05 -54 -524)" d="M 3708.69,12367.8 A 172.746,172.746 0 1 0 4054.19,12367.8A 172.746,172.746 0 1 0 3708.69,12367.8Z " />
<text x="0" y="0" stroke="transparent" fill="#000000" transform="matrix(0.05 0 0 0.05 124.205 81.3053)" style="font:normal normal normal 200px 'Helvetica'" >
Me</text>
<path stroke="transparent" fill="#000000" transform="matrix(0.05 0 0 0.05 -54 -524)" d="M 3816.08,12139.3 L 3827.67,12136.2 L 3891.64,12374.9 L 3885.84,12376.4 L 3880.46,12379.5 L 3816.08,12139.3 Z " />
<text x="0" y="0" stroke="transparent" fill="#000000" transform="matrix(0.05 0 0 0.05 149.138 110.101)" style="font:normal normal normal 200px 'Helvetica'" >
H</text>
<path stroke="transparent" fill="#000000" transform="matrix(0.05 0 0 0.05 -54 -524)" d="M 4036.19,12518.3 L 4027.71,12526.8 L 3880.46,12379.5 L 3885.84,12376.4 L 3891.74,12373.9 L 4036.19,12518.3 Z " />
<path stroke="transparent" fill="#000000" transform="matrix(0.05 0 0 0.05 -54 -524)" d="M 4387.56,12834.2 L 4377.39,12843.7 L 4313.46,12562.4 L 4318.64,12558.1 L 4325.26,12560.2 L 4387.56,12834.2 Z " />
<path stroke="transparent" fill="#000000" transform="matrix(0.05 0 0 0.05 -54 -524)" d="M 4432.24,12796.9 L 4420.54,12799.6 L 4369.97,12577.1 L 4381.67,12574.5 L 4432.24,12796.9 Z " />
<path stroke="transparent" fill="#000000" transform="matrix(0.05 0 0 0.05 -54 -524)" d="M 4655.87,12917.3 L 4658.94,12930.8 L 4377.39,12843.7 L 4387.56,12834.2 L 4655.87,12917.3 Z " />
<path stroke="transparent" fill="#000000" transform="matrix(0.05 0 0 0.05 -54 -524)" d="M 4862.08,12726.3 L 4875.32,12730.4 L 4658.94,12930.8 L 4655.87,12917.3 L 4862.08,12726.3 Z " />
<path stroke="transparent" fill="#000000" transform="matrix(0.05 0 0 0.05 -54 -524)" d="M 4807.44,12706.2 L 4815.6,12715.1 L 4648.22,12870.1 L 4640.07,12861.3 L 4807.44,12706.2 Z " />
<path stroke="transparent" fill="#000000" transform="matrix(0.05 0 0 0.05 -54 -524)" d="M 4799.79,12452.2 L 4809.95,12442.8 L 4875.32,12730.4 L 4862.08,12726.3 L 4799.79,12452.2 Z " />
<path stroke="transparent" fill="#000000" transform="matrix(0.05 0 0 0.05 -54 -524)" d="M 4531.47,12369.2 L 4528.4,12355.7 L 4809.95,12442.8 L 4799.79,12452.2 L 4531.47,12369.2 Z " />
<path stroke="transparent" fill="#000000" transform="matrix(0.05 0 0 0.05 -54 -524)" d="M 4541.42,12426.5 L 4544.96,12415 L 4762.76,12482.4 L 4759.21,12493.9 L 4541.42,12426.5 Z " />
<path stroke="transparent" fill="#000000" transform="matrix(0.05 0 0 0.05 -54 -524)" d="M 4325.26,12560.2 L 4318.64,12558.1 L 4317.43,12551.1 L 4528.4,12355.7 L 4531.47,12369.2 L 4325.26,12560.2 Z " />
<path stroke="#000000" stroke-width="12" fill="transparent" transform="matrix(0.05 0 0 0.05 -54 -524)" d="M 3987.67,11180.3 C 3947.49,11140 3833.25,11120.4 3732.68,11136.5 C 3632.12,11152.6 3583.1,11198.3 3623.28,11238.6 C 3650.41,11265.8 3717.78,11285.6 3790.73,11287.8 " />
<path stroke="transparent" fill="#000000" transform="matrix(0.05 0 0 0.05 -54 -524)" d="M 3878.26,11282.5 C 3878.26,11282.5 3780.76,11314.6 3780.76,11314.6 C 3780.76,11314.6 3791.89,11299.7 3790.73,11287.8 C 3789.57,11276 3775.68,11262.6 3775.68,11262.6 C 3775.68,11262.6 3878.26,11282.5 3878.26,11282.5 C 3878.26,11282.5 3878.26,11282.5 3878.26,11282.5 " />
<path stroke="#000000" stroke-width="1" fill="transparent" transform="matrix(0.05 0 0 0.05 -54 -524)" d="M 3878.26,11282.5 C 3878.26,11282.5 3780.76,11314.6 3780.76,11314.6 C 3780.76,11314.6 3791.89,11299.7 3790.73,11287.8 C 3789.57,11276 3775.68,11262.6 3775.68,11262.6 C 3775.68,11262.6 3878.26,11282.5 3878.26,11282.5 C 3878.26,11282.5 3878.26,11282.5 3878.26,11282.5 " />
</svg>
