<?xml version="1.0" standalone="no" ?>
<!DOCTYPE svg PUBLIC "-//W3C//DTD SVG 1.1//EN" "http://www.w3.org/Graphics/SVG/1.1/DTD/svg11.dtd">
<svg width="285px" height="82px" viewBox="0 0 285 82" style="background-color: #ffffff00" xmlns="http://www.w3.org/2000/svg" xmlns:xlink="http://www.w3.org/1999/xlink" version="1.1" >
<path stroke="transparent" fill="#000000" transform="matrix(0.05 0 0 0.05 -49 -176)" d="M 1849.39,4747.31 L 1849.39,4761.2 L 1596.99,4615.48 L 1603.01,4605.06 L 1849.39,4747.31 Z " />
<path stroke="transparent" fill="#000000" transform="matrix(0.05 0 0 0.05 -49 -176)" d="M 2092.48,4606.96 L 2098.78,4610.27 L 2098.78,4617.22 L 1849.39,4761.2 L 1849.39,4747.31 L 2092.48,4606.96 Z " />
<path stroke="transparent" fill="#000000" transform="matrix(0.05 0 0 0.05 -49 -176)" d="M 2348.16,4747.31 L 2348.16,4754.26 L 2341.73,4757.49 L 2098.78,4617.22 L 2098.78,4610.27 L 2105.07,4606.96 L 2348.16,4747.31 Z " />
<path stroke="transparent" fill="#000000" transform="matrix(0.05 0 0 0.05 -49 -176)" d="M 2594.54,4605.06 L 2600.56,4615.48 L 2354.6,4757.49 L 2348.16,4754.26 L 2348.16,4747.31 L 2594.54,4605.06 Z " />
<path stroke="transparent" fill="#000000" transform="matrix(0.05 0 0 0.05 -49 -176)" d="M 2067.87,4311.41 L 2098.78,4322.3 L 2129.68,4311.41 L 2105.07,4606.96 L 2098.78,4610.27 L 2092.48,4606.96 L 2067.87,4311.41 Z " />
<path stroke="transparent" fill="#000000" transform="matrix(0.05 0 0 0.05 -49 -176)" d="M 2342.15,4174.85 L 2354.18,4181.79 L 2129.68,4311.41 L 2098.78,4322.3 L 2098.78,4315.36 L 2342.15,4174.85 Z " />
<path stroke="transparent" fill="#000000" transform="matrix(0.05 0 0 0.05 -49 -176)" d="M 2293.32,4143.18 L 2299.34,4153.6 L 2101.78,4267.66 L 2095.77,4257.24 L 2293.32,4143.18 Z " />
<path stroke="transparent" fill="#000000" transform="matrix(0.05 0 0 0.05 -49 -176)" d="M 2342.15,3893.82 L 2354.18,3886.88 L 2354.18,4181.79 L 2342.15,4174.85 L 2342.15,3893.82 Z " />
<path stroke="transparent" fill="#000000" transform="matrix(0.05 0 0 0.05 -49 -176)" d="M 2098.78,3753.31 L 2098.78,3739.42 L 2354.18,3886.88 L 2342.15,3893.82 L 2098.78,3753.31 Z " />
<path stroke="transparent" fill="#000000" transform="matrix(0.05 0 0 0.05 -49 -176)" d="M 2095.77,3811.43 L 2101.78,3801.01 L 2299.34,3915.07 L 2293.32,3925.49 L 2095.77,3811.43 Z " />
<path stroke="transparent" fill="#000000" transform="matrix(0.05 0 0 0.05 -49 -176)" d="M 1855.4,3893.82 L 1843.37,3886.88 L 2098.78,3739.42 L 2098.78,3753.31 L 1855.4,3893.82 Z " />
<path stroke="transparent" fill="#000000" transform="matrix(0.05 0 0 0.05 -49 -176)" d="M 1855.4,4174.85 L 1843.37,4181.79 L 1843.37,3886.88 L 1855.4,3893.82 L 1855.4,4174.85 Z " />
<path stroke="transparent" fill="#000000" transform="matrix(0.05 0 0 0.05 -49 -176)" d="M 1907.24,4148.39 L 1895.21,4148.39 L 1895.21,3920.28 L 1907.24,3920.28 L 1907.24,4148.39 Z " />
<path stroke="transparent" fill="#000000" transform="matrix(0.05 0 0 0.05 -49 -176)" d="M 2098.78,4315.36 L 2098.78,4322.3 L 2067.87,4311.41 L 1843.37,4181.79 L 1855.4,4174.85 L 2098.78,4315.36 Z " />
<text x="0" y="0" stroke="transparent" fill="#000000" transform="matrix(0.05 0 0 0.05 65.6421 79.6978)" style="font:normal normal normal 200px 'Helvetica'" >
Br</text>
<path stroke="transparent" fill="#000000" transform="matrix(0.05 0 0 0.05 -49 -176)" d="M 2378.16,4937.47 L 2318.16,4937.47 L 2341.73,4757.49 L 2348.16,4754.26 L 2354.6,4757.49 L 2378.16,4937.47 Z " />
<text x="0" y="0" stroke="transparent" fill="#000000" transform="matrix(0.05 0 0 0.05 40.6227 50.9009)" style="font:normal normal normal 200px 'Helvetica'" >
H</text>
<path stroke="transparent" fill="#000000" transform="matrix(0.05 0 0 0.05 -49 -176)" d="M 1936.12,4551 L 1966.12,4499.04 L 1975.34,4507.13 L 1947.74,4554.94 L 1936.12,4551 Z " />
<path stroke="transparent" fill="#000000" transform="matrix(0.05 0 0 0.05 -49 -176)" d="M 1988.42,4568.74 L 2007.63,4535.47 L 2016.85,4543.56 L 2000.04,4572.68 L 1988.42,4568.74 Z " />
<path stroke="transparent" fill="#000000" transform="matrix(0.05 0 0 0.05 -49 -176)" d="M 2040.72,4586.47 L 2049.13,4571.9 L 2058.36,4579.99 L 2052.34,4590.41 L 2040.72,4586.47 Z " />
<text x="0" y="0" stroke="transparent" fill="#000000" transform="matrix(0.05 0 0 0.05 79.4694 69.0259)" style="font:normal normal normal 200px 'Helvetica'" >
H</text>
<path stroke="transparent" fill="#000000" transform="matrix(0.05 0 0 0.05 -49 -176)" d="M 2532.25,4772.53 L 2516.72,4830.48 L 2505.67,4825.26 L 2520.07,4771.52 L 2532.25,4772.53 Z " />
<path stroke="transparent" fill="#000000" transform="matrix(0.05 0 0 0.05 -49 -176)" d="M 2471.3,4767.48 L 2461.41,4804.37 L 2450.36,4799.16 L 2459.12,4766.47 L 2471.3,4767.48 Z " />
<path stroke="transparent" fill="#000000" transform="matrix(0.05 0 0 0.05 -49 -176)" d="M 2410.35,4762.44 L 2406.11,4778.27 L 2395.05,4773.05 L 2398.16,4761.43 L 2410.35,4762.44 Z " />
<text x="0" y="0" stroke="transparent" fill="#000000" transform="matrix(0.05 0 0 0.05 12.0597 20.6667)" style="font:normal normal normal 200px 'Helvetica'" >
OEt</text>
<path stroke="transparent" fill="#000000" transform="matrix(0.05 0 0 0.05 -49 -176)" d="M 1116.82,3822.15 A 16.6667,16.6667 0 1 0 1150.15,3822.15A 16.6667,16.6667 0 1 0 1116.82,3822.15Z " />
<path stroke="transparent" fill="#000000" transform="matrix(0.05 0 0 0.05 -49 -176)" d="M 1116.82,3897.15 A 16.6667,16.6667 0 1 0 1150.15,3897.15A 16.6667,16.6667 0 1 0 1116.82,3897.15Z " />
<path stroke="transparent" fill="#000000" transform="matrix(0.05 0 0 0.05 -49 -176)" d="M 1311.9,3702.07 A 16.6667,16.6667 0 1 0 1345.23,3702.07A 16.6667,16.6667 0 1 0 1311.9,3702.07Z " />
<path stroke="transparent" fill="#000000" transform="matrix(0.05 0 0 0.05 -49 -176)" d="M 1236.9,3702.07 A 16.6667,16.6667 0 1 0 1270.23,3702.07A 16.6667,16.6667 0 1 0 1236.9,3702.07Z " />
<path stroke="transparent" fill="#000000" transform="matrix(0.05 0 0 0.05 -49 -176)" d="M 1236.9,4017.23 A 16.6667,16.6667 0 1 0 1270.23,4017.23A 16.6667,16.6667 0 1 0 1236.9,4017.23Z " />
<path stroke="transparent" fill="#000000" transform="matrix(0.05 0 0 0.05 -49 -176)" d="M 1311.9,4017.23 A 16.6667,16.6667 0 1 0 1345.23,4017.23A 16.6667,16.6667 0 1 0 1311.9,4017.23Z " />
<path stroke="#000000" stroke-width="10" fill="transparent" transform="matrix(0.05 0 0 0.05 -49 -176)" d="M 1035.19,3653.67 A 71.8125,71.8125 0 1 0 1178.81,3653.67A 71.8125,71.8125 0 1 0 1035.19,3653.67Z " />
<path stroke="transparent" fill="#000000" transform="matrix(0.05 0 0 0.05 -49 -176)" d="M 1067.32,3648.33 L 1146.02,3648.33 L 1146.02,3658.33 L 1067.32,3658.33 Z " />
<path stroke="#000000" stroke-width="12" fill="transparent" transform="matrix(0.05 0 0 0.05 -49 -176)" d="M 1320,4120 C 1320,4288.52 1456.79,4425.31 1625.31,4425.31 C 1650.44,4425.31 1675.56,4422.19 1699.92,4416.05 " />
<path stroke="transparent" fill="#000000" transform="matrix(0.05 0 0 0.05 -49 -176)" d="M 1777.97,4384.41 C 1777.97,4384.41 1698.81,4443.87 1698.81,4443.87 C 1698.81,4443.87 1704.31,4426.25 1699.92,4416.05 C 1695.53,4405.86 1678.73,4397.28 1678.73,4397.28 C 1678.73,4397.28 1777.97,4384.41 1777.97,4384.41 C 1777.97,4384.41 1777.97,4384.41 1777.97,4384.41 " />
<path stroke="#000000" stroke-width="1" fill="transparent" transform="matrix(0.05 0 0 0.05 -49 -176)" d="M 1777.97,4384.41 C 1777.97,4384.41 1698.81,4443.87 1698.81,4443.87 C 1698.81,4443.87 1704.31,4426.25 1699.92,4416.05 C 1695.53,4405.86 1678.73,4397.28 1678.73,4397.28 C 1678.73,4397.28 1777.97,4384.41 1777.97,4384.41 C 1777.97,4384.41 1777.97,4384.41 1777.97,4384.41 " />
<path stroke="#000000" stroke-width="12" fill="transparent" transform="matrix(0.05 0 0 0.05 -49 -176)" d="M 2294.91,4585.69 C 2294.91,4498.45 2224.11,4427.64 2136.87,4427.64 C 2081.59,4427.64 2027.64,4458.79 2000,4506.67 " />
<path stroke="transparent" fill="#000000" transform="matrix(0.05 0 0 0.05 -49 -176)" d="M 2273.74,4664.71 C 2273.74,4664.71 2274.36,4567.35 2274.36,4567.35 C 2274.36,4567.35 2284.89,4582.69 2294.91,4585.69 C 2304.93,4588.68 2321.52,4581.45 2321.52,4581.45 C 2321.52,4581.45 2273.74,4664.71 2273.74,4664.71 C 2273.74,4664.71 2273.74,4664.71 2273.74,4664.71 " />
<path stroke="#000000" stroke-width="1" fill="transparent" transform="matrix(0.05 0 0 0.05 -49 -176)" d="M 2273.74,4664.71 C 2273.74,4664.71 2274.36,4567.35 2274.36,4567.35 C 2274.36,4567.35 2284.89,4582.69 2294.91,4585.69 C 2304.93,4588.68 2321.52,4581.45 2321.52,4581.45 C 2321.52,4581.45 2273.74,4664.71 2273.74,4664.71 C 2273.74,4664.71 2273.74,4664.71 2273.74,4664.71 " />
<path stroke="#000000" stroke-width="12" fill="transparent" transform="matrix(0.05 0 0 0.05 -49 -176)" d="M 2266.67,4840 C 2207.79,4840 2160,4887.79 2160,4946.67 C 2160,4973.67 2170.7,5000.49 2189.29,5020.09 " />
<path stroke="transparent" fill="#000000" transform="matrix(0.05 0 0 0.05 -49 -176)" d="M 2266.67,5053.33 C 2266.67,5053.33 2167.73,5038.44 2167.73,5038.44 C 2167.73,5038.44 2184.69,5030.2 2189.29,5020.09 C 2193.88,5009.98 2188.73,4992.23 2188.73,4992.23 C 2188.73,4992.23 2266.67,5053.33 2266.67,5053.33 C 2266.67,5053.33 2266.67,5053.33 2266.67,5053.33 " />
<path stroke="#000000" stroke-width="1" fill="transparent" transform="matrix(0.05 0 0 0.05 -49 -176)" d="M 2266.67,5053.33 C 2266.67,5053.33 2167.73,5038.44 2167.73,5038.44 C 2167.73,5038.44 2184.69,5030.2 2189.29,5020.09 C 2193.88,5009.98 2188.73,4992.23 2188.73,4992.23 C 2188.73,4992.23 2266.67,5053.33 2266.67,5053.33 C 2266.67,5053.33 2266.67,5053.33 2266.67,5053.33 " />
<path stroke="transparent" fill="#000000" transform="matrix(0.05 0 0 0.05 -49 -176)" d="M 3455.73,4539.33 L 2880,4539.33 L 2880,4527.33 L 3455.73,4527.33 Z " />
<path stroke="transparent" fill="#000000" transform="matrix(0.05 0 0 0.05 -49 -176)" d="M 3560,4533.33 C 3560,4533.33 3439.69,4564.41 3439.69,4564.41 C 3439.69,4564.41 3454.73,4546.93 3454.73,4533.33 C 3454.73,4519.3 3439.69,4501.26 3439.69,4501.26 C 3439.69,4501.26 3560,4533.33 3560,4533.33 C 3560,4533.33 3560,4533.33 3560,4533.33 " />
<path stroke="#000000" stroke-width="1" fill="transparent" transform="matrix(0.05 0 0 0.05 -49 -176)" d="M 3560,4533.33 C 3560,4533.33 3439.69,4564.41 3439.69,4564.41 C 3439.69,4564.41 3454.73,4546.93 3454.73,4533.33 C 3454.73,4519.3 3439.69,4501.26 3439.69,4501.26 C 3439.69,4501.26 3560,4533.33 3560,4533.33 C 3560,4533.33 3560,4533.33 3560,4533.33 " />
<path stroke="transparent" fill="#000000" transform="matrix(0.05 0 0 0.05 -49 -176)" d="M 3769.39,4993.43 L 3769.39,5007.32 L 3516.99,4861.6 L 3523.01,4851.18 L 3769.39,4993.43 Z " />
<path stroke="transparent" fill="#000000" transform="matrix(0.05 0 0 0.05 -49 -176)" d="M 4012.76,4852.92 L 4018.78,4856.39 L 4018.78,4863.34 L 3769.39,5007.32 L 3769.39,4993.43 L 4012.76,4852.92 Z " />
<path stroke="transparent" fill="#000000" transform="matrix(0.05 0 0 0.05 -49 -176)" d="M 4268.16,4993.43 L 4268.16,5007.32 L 4018.78,4863.34 L 4018.78,4856.39 L 4024.79,4852.92 L 4268.16,4993.43 Z " />
<path stroke="transparent" fill="#000000" transform="matrix(0.05 0 0 0.05 -49 -176)" d="M 4271.17,4935.31 L 4265.16,4945.73 L 4067.6,4831.68 L 4073.62,4821.26 L 4271.17,4935.31 Z " />
<path stroke="transparent" fill="#000000" transform="matrix(0.05 0 0 0.05 -49 -176)" d="M 4012.76,4571.9 L 4018.78,4568.42 L 4024.79,4571.9 L 4024.79,4852.92 L 4018.78,4856.39 L 4012.76,4852.92 L 4012.76,4571.9 Z " />
<path stroke="transparent" fill="#000000" transform="matrix(0.05 0 0 0.05 -49 -176)" d="M 4262.15,4420.97 L 4274.18,4427.91 L 4024.79,4571.9 L 4018.78,4568.42 L 4018.78,4561.48 L 4262.15,4420.97 Z " />
<path stroke="transparent" fill="#000000" transform="matrix(0.05 0 0 0.05 -49 -176)" d="M 4213.32,4389.3 L 4219.34,4399.72 L 4021.78,4513.78 L 4015.77,4503.36 L 4213.32,4389.3 Z " />
<path stroke="transparent" fill="#000000" transform="matrix(0.05 0 0 0.05 -49 -176)" d="M 4262.15,4139.94 L 4274.18,4133 L 4274.18,4427.91 L 4262.15,4420.97 L 4262.15,4139.94 Z " />
<path stroke="transparent" fill="#000000" transform="matrix(0.05 0 0 0.05 -49 -176)" d="M 4018.78,3999.43 L 4018.78,3985.54 L 4274.18,4133 L 4262.15,4139.94 L 4018.78,3999.43 Z " />
<path stroke="transparent" fill="#000000" transform="matrix(0.05 0 0 0.05 -49 -176)" d="M 4015.77,4057.55 L 4021.78,4047.13 L 4219.34,4161.19 L 4213.32,4171.61 L 4015.77,4057.55 Z " />
<path stroke="transparent" fill="#000000" transform="matrix(0.05 0 0 0.05 -49 -176)" d="M 3775.4,4139.94 L 3763.37,4133 L 4018.78,3985.54 L 4018.78,3999.43 L 3775.4,4139.94 Z " />
<path stroke="transparent" fill="#000000" transform="matrix(0.05 0 0 0.05 -49 -176)" d="M 3775.4,4420.97 L 3763.37,4427.91 L 3763.37,4133 L 3775.4,4139.94 L 3775.4,4420.97 Z " />
<path stroke="transparent" fill="#000000" transform="matrix(0.05 0 0 0.05 -49 -176)" d="M 3827.24,4394.51 L 3815.21,4394.51 L 3815.21,4166.4 L 3827.24,4166.4 L 3827.24,4394.51 Z " />
<path stroke="transparent" fill="#000000" transform="matrix(0.05 0 0 0.05 -49 -176)" d="M 4018.78,4561.48 L 4018.78,4568.42 L 4012.76,4571.9 L 3763.37,4427.91 L 3775.4,4420.97 L 4018.78,4561.48 Z " />
<path stroke="transparent" fill="#000000" transform="matrix(0.05 0 0 0.05 -49 -176)" d="M 4514.54,4851.18 L 4520.56,4861.6 L 4268.16,5007.32 L 4268.16,4993.43 L 4514.54,4851.18 Z " />
<text x="0" y="0" stroke="transparent" fill="#000000" transform="matrix(0.05 0 0 0.05 189 51.3333)" style="font:normal normal normal 200px 'Helvetica'" >
+</text>
<text x="0" y="0" stroke="transparent" fill="#000000" transform="matrix(0.05 0 0 0.05 209.017 51.3333)" style="font:normal normal normal 200px 'Helvetica'" >
EtOH</text>
<text x="0" y="0" stroke="transparent" fill="#000000" transform="matrix(0.05 0 0 0.05 247 46.6667)" style="font:normal normal normal 200px 'Helvetica'" >
+</text>
<text x="0" y="0" stroke="transparent" fill="#000000" transform="matrix(0.05 0 0 0.05 268.79 46.6667)" style="font:normal normal normal 200px 'Helvetica'" >
Br</text>
<path stroke="#000000" stroke-width="10" fill="transparent" transform="matrix(0.05 0 0 0.05 -49 -176)" d="M 6141.85,4173.67 A 71.8125,71.8125 0 1 0 6285.48,4173.67A 71.8125,71.8125 0 1 0 6141.85,4173.67Z " />
<path stroke="transparent" fill="#000000" transform="matrix(0.05 0 0 0.05 -49 -176)" d="M 6173.98,4168.33 L 6252.68,4168.33 L 6252.68,4178.33 L 6173.98,4178.33 Z " />
<path stroke="transparent" fill="#000000" transform="matrix(0.05 0 0 0.05 -49 -176)" d="M 6356.9,4537.23 A 16.6667,16.6667 0 1 0 6390.23,4537.23A 16.6667,16.6667 0 1 0 6356.9,4537.23Z " />
<path stroke="transparent" fill="#000000" transform="matrix(0.05 0 0 0.05 -49 -176)" d="M 6431.9,4537.23 A 16.6667,16.6667 0 1 0 6465.23,4537.23A 16.6667,16.6667 0 1 0 6431.9,4537.23Z " />
<path stroke="transparent" fill="#000000" transform="matrix(0.05 0 0 0.05 -49 -176)" d="M 6431.9,4222.07 A 16.6667,16.6667 0 1 0 6465.23,4222.07A 16.6667,16.6667 0 1 0 6431.9,4222.07Z " />
<path stroke="transparent" fill="#000000" transform="matrix(0.05 0 0 0.05 -49 -176)" d="M 6356.9,4222.07 A 16.6667,16.6667 0 1 0 6390.23,4222.07A 16.6667,16.6667 0 1 0 6356.9,4222.07Z " />
<path stroke="transparent" fill="#000000" transform="matrix(0.05 0 0 0.05 -49 -176)" d="M 6236.82,4342.15 A 16.6667,16.6667 0 1 0 6270.15,4342.15A 16.6667,16.6667 0 1 0 6236.82,4342.15Z " />
<path stroke="transparent" fill="#000000" transform="matrix(0.05 0 0 0.05 -49 -176)" d="M 6236.82,4417.15 A 16.6667,16.6667 0 1 0 6270.15,4417.15A 16.6667,16.6667 0 1 0 6236.82,4417.15Z " />
<path stroke="transparent" fill="#000000" transform="matrix(0.05 0 0 0.05 -49 -176)" d="M 6589.72,4432.5 A 16.6667,16.6667 0 1 0 6623.06,4432.5A 16.6667,16.6667 0 1 0 6589.72,4432.5Z " />
<path stroke="transparent" fill="#000000" transform="matrix(0.05 0 0 0.05 -49 -176)" d="M 6596.09,4357.77 A 16.6667,16.6667 0 1 0 6629.42,4357.77A 16.6667,16.6667 0 1 0 6596.09,4357.77Z " />
</svg>
