<?xml version="1.0" standalone="no" ?>
<!DOCTYPE svg PUBLIC "-//W3C//DTD SVG 1.1//EN" "http://www.w3.org/Graphics/SVG/1.1/DTD/svg11.dtd">
<svg width="162px" height="45px" viewBox="0 0 162 45" style="background-color: #ffffff00" xmlns="http://www.w3.org/2000/svg" xmlns:xlink="http://www.w3.org/1999/xlink" version="1.1" >
<path stroke="transparent" fill="#000000" transform="matrix(0.05 0 0 0.05 -167 -391)" d="M 3402.6,8529.74 L 3390.6,8536.66 L 3390.6,8284.94 L 3402.6,8291.86 L 3402.6,8529.74 Z " />
<path stroke="transparent" fill="#000000" transform="matrix(0.05 0 0 0.05 -167 -391)" d="M 3446.66,8507.76 L 3434.66,8507.76 L 3434.66,8313.84 L 3446.66,8313.84 L 3446.66,8507.76 Z " />
<path stroke="transparent" fill="#000000" transform="matrix(0.05 0 0 0.05 -167 -391)" d="M 3608.6,8648.67 L 3608.6,8662.53 L 3390.6,8536.66 L 3402.6,8529.74 L 3608.6,8648.67 Z " />
<path stroke="transparent" fill="#000000" transform="matrix(0.05 0 0 0.05 -167 -391)" d="M 3814.6,8529.74 L 3826.6,8536.66 L 3608.6,8662.53 L 3608.6,8648.67 L 3814.6,8529.74 Z " />
<path stroke="transparent" fill="#000000" transform="matrix(0.05 0 0 0.05 -167 -391)" d="M 3773.54,8502.56 L 3779.54,8512.96 L 3611.6,8609.92 L 3605.6,8599.52 L 3773.54,8502.56 Z " />
<path stroke="transparent" fill="#000000" transform="matrix(0.05 0 0 0.05 -167 -391)" d="M 3814.6,8291.86 L 3826.6,8284.94 L 3826.6,8536.66 L 3814.6,8529.74 L 3814.6,8291.86 Z " />
<path stroke="transparent" fill="#000000" transform="matrix(0.05 0 0 0.05 -167 -391)" d="M 3608.6,8172.93 L 3608.6,8159.07 L 3826.6,8284.94 L 3814.6,8291.86 L 3608.6,8172.93 Z " />
<path stroke="transparent" fill="#000000" transform="matrix(0.05 0 0 0.05 -167 -391)" d="M 3605.6,8222.08 L 3611.6,8211.68 L 3779.54,8308.64 L 3773.54,8319.04 L 3605.6,8222.08 Z " />
<path stroke="transparent" fill="#000000" transform="matrix(0.05 0 0 0.05 -167 -391)" d="M 3402.6,8291.86 L 3390.6,8284.94 L 3608.6,8159.07 L 3608.6,8172.93 L 3402.6,8291.86 Z " />
<path stroke="transparent" fill="#000000" transform="matrix(0.05 0 0 0.05 -167 -391)" d="M 5260.8,8544.54 L 5248.8,8551.46 L 5248.8,8299.74 L 5260.8,8306.66 L 5260.8,8544.54 Z " />
<path stroke="transparent" fill="#000000" transform="matrix(0.05 0 0 0.05 -167 -391)" d="M 5304.86,8522.56 L 5292.86,8522.56 L 5292.86,8328.64 L 5304.86,8328.64 L 5304.86,8522.56 Z " />
<path stroke="transparent" fill="#000000" transform="matrix(0.05 0 0 0.05 -167 -391)" d="M 5466.8,8663.47 L 5466.8,8677.33 L 5248.8,8551.46 L 5260.8,8544.54 L 5466.8,8663.47 Z " />
<path stroke="transparent" fill="#000000" transform="matrix(0.05 0 0 0.05 -167 -391)" d="M 5672.8,8544.54 L 5678.8,8548 L 5678.8,8554.93 L 5466.8,8677.33 L 5466.8,8663.47 L 5672.8,8544.54 Z " />
<path stroke="transparent" fill="#000000" transform="matrix(0.05 0 0 0.05 -167 -391)" d="M 5631.74,8517.36 L 5637.74,8527.76 L 5469.8,8624.72 L 5463.8,8614.32 L 5631.74,8517.36 Z " />
<path stroke="transparent" fill="#000000" transform="matrix(0.05 0 0 0.05 -167 -391)" d="M 5672.8,8306.66 L 5684.8,8299.74 L 5684.8,8544.54 L 5678.8,8548 L 5672.8,8544.54 L 5672.8,8306.66 Z " />
<path stroke="transparent" fill="#000000" transform="matrix(0.05 0 0 0.05 -167 -391)" d="M 5466.8,8187.73 L 5466.8,8180.8 L 5472.8,8177.34 L 5684.8,8299.74 L 5672.8,8306.66 L 5466.8,8187.73 Z " />
<path stroke="transparent" fill="#000000" transform="matrix(0.05 0 0 0.05 -167 -391)" d="M 5463.8,8236.88 L 5469.8,8226.48 L 5637.74,8323.44 L 5631.74,8333.84 L 5463.8,8236.88 Z " />
<path stroke="transparent" fill="#000000" transform="matrix(0.05 0 0 0.05 -167 -391)" d="M 5260.8,8306.66 L 5248.8,8299.74 L 5460.8,8177.34 L 5466.8,8180.8 L 5466.8,8187.73 L 5260.8,8306.66 Z " />
<path stroke="transparent" fill="#000000" transform="matrix(0.05 0 0 0.05 -167 -391)" d="M 5890.8,8663.47 L 5890.8,8677.33 L 5678.8,8554.93 L 5678.8,8548 L 5684.8,8544.54 L 5890.8,8663.47 Z " />
<path stroke="transparent" fill="#000000" transform="matrix(0.05 0 0 0.05 -167 -391)" d="M 6102.4,8541.07 L 6102.4,8554.93 L 5890.8,8677.33 L 5890.8,8663.47 L 6102.4,8541.07 Z " />
<path stroke="transparent" fill="#000000" transform="matrix(0.05 0 0 0.05 -167 -391)" d="M 6314.4,8663.47 L 6314.4,8677.33 L 6102.4,8554.93 L 6102.4,8541.07 L 6314.4,8663.47 Z " />
<path stroke="transparent" fill="#000000" transform="matrix(0.05 0 0 0.05 -167 -391)" d="M 6523.4,8542.8 L 6529.4,8553.2 L 6314.4,8677.33 L 6314.4,8663.47 L 6523.4,8542.8 Z " />
<text x="0" y="0" stroke="transparent" fill="#000000" transform="matrix(0.05 0 0 0.05 103.191 9.35055)" style="font:normal normal normal 198px 'Helvetica'" >
Cl</text>
<path stroke="transparent" fill="#000000" transform="matrix(0.05 0 0 0.05 -167 -391)" d="M 5460.8,8044.05 L 5472.8,8044.05 L 5472.8,8177.34 L 5466.8,8180.8 L 5460.8,8177.34 L 5460.8,8044.05 Z " />
<path stroke="transparent" fill="#000000" transform="matrix(0.05 0 0 0.05 -167 -391)" d="M 4721.04,8428.2 L 4152.2,8428.2 L 4152.2,8416.2 L 4721.04,8416.2 Z " />
<path stroke="transparent" fill="#000000" transform="matrix(0.05 0 0 0.05 -167 -391)" d="M 4877.6,8422.2 C 4877.6,8422.2 4697.6,8468.2 4697.6,8468.2 C 4697.6,8468.2 4720.04,8442.33 4720.04,8422.2 C 4720.04,8401.63 4697.6,8375.2 4697.6,8375.2 C 4697.6,8375.2 4877.6,8422.2 4877.6,8422.2 C 4877.6,8422.2 4877.6,8422.2 4877.6,8422.2 " />
<path stroke="#000000" stroke-width="1" fill="transparent" transform="matrix(0.05 0 0 0.05 -167 -391)" d="M 4877.6,8422.2 C 4877.6,8422.2 4697.6,8468.2 4697.6,8468.2 C 4697.6,8468.2 4720.04,8442.33 4720.04,8422.2 C 4720.04,8401.63 4697.6,8375.2 4697.6,8375.2 C 4697.6,8375.2 4877.6,8422.2 4877.6,8422.2 C 4877.6,8422.2 4877.6,8422.2 4877.6,8422.2 " />
</svg>
