<?xml version="1.0" standalone="no" ?>
<!DOCTYPE svg PUBLIC "-//W3C//DTD SVG 1.1//EN" "http://www.w3.org/Graphics/SVG/1.1/DTD/svg11.dtd">
<svg width="273px" height="76px" viewBox="0 0 273 76" style="background-color: #ffffff00" xmlns="http://www.w3.org/2000/svg" xmlns:xlink="http://www.w3.org/1999/xlink" version="1.1" >
<path stroke="transparent" fill="#000000" transform="matrix(0.05 0 0 0.05 -122 -171)" d="M 6063.2,3991.2 L 5407.2,3991.2 L 5407.2,3979.2 L 6063.2,3979.2 Z " />
<path stroke="transparent" fill="#000000" transform="matrix(0.05 0 0 0.05 -122 -171)" d="M 6167.2,3985.2 C 6167.2,3985.2 6047.2,4016.2 6047.2,4016.2 C 6047.2,4016.2 6062.2,3998.76 6062.2,3985.2 C 6062.2,3971.2 6047.2,3953.2 6047.2,3953.2 C 6047.2,3953.2 6167.2,3985.2 6167.2,3985.2 C 6167.2,3985.2 6167.2,3985.2 6167.2,3985.2 " />
<path stroke="#000000" stroke-width="1" fill="transparent" transform="matrix(0.05 0 0 0.05 -122 -171)" d="M 6167.2,3985.2 C 6167.2,3985.2 6047.2,4016.2 6047.2,4016.2 C 6047.2,4016.2 6062.2,3998.76 6062.2,3985.2 C 6062.2,3971.2 6047.2,3953.2 6047.2,3953.2 C 6047.2,3953.2 6167.2,3985.2 6167.2,3985.2 C 6167.2,3985.2 6167.2,3985.2 6167.2,3985.2 " />
<path stroke="transparent" fill="#000000" transform="matrix(0.05 0 0 0.05 -122 -171)" d="M 6530,4060.87 L 6530,4074.73 L 6283.6,4217 L 6277.6,4206.6 L 6530,4060.87 Z " />
<path stroke="transparent" fill="#000000" transform="matrix(0.05 0 0 0.05 -122 -171)" d="M 6779.4,4204.87 L 6779.4,4211.8 L 6771.2,4214 L 6530,4074.73 L 6530,4060.87 L 6779.4,4204.87 Z " />
<path stroke="transparent" fill="#000000" transform="matrix(0.05 0 0 0.05 -122 -171)" d="M 7027.6,4061.45 L 7029.6,4074.15 L 6786.38,4214.69 L 6779.4,4211.8 L 6779.4,4204.87 L 7027.6,4061.45 Z " />
<text x="0" y="0" stroke="transparent" fill="#000000" transform="matrix(0.05 0 0 0.05 240.864 39.1764)" style="font:normal normal normal 200px 'Helvetica'" >
O</text>
<path stroke="transparent" fill="#000000" transform="matrix(0.05 0 0 0.05 -122 -171)" d="M 7227.19,4104.23 L 7224.68,4115.96 L 7029.6,4074.15 L 7027.6,4061.45 L 7227.19,4104.23 Z " />
<path stroke="transparent" fill="#000000" transform="matrix(0.05 0 0 0.05 -122 -171)" d="M 7594.57,4007.89 L 7593.83,4021.31 L 7425.53,4095.19 L 7420.7,4084.2 L 7594.57,4007.89 Z " />
<path stroke="transparent" fill="#000000" transform="matrix(0.05 0 0 0.05 -122 -171)" d="M 7846.6,4153.4 L 7840.6,4163.8 L 7593.83,4021.31 L 7594.57,4007.89 L 7846.6,4153.4 Z " />
<text x="0" y="0" stroke="transparent" fill="#000000" transform="matrix(0.05 0 0 0.05 201.004 21.5864)" style="font:normal normal normal 200px 'Helvetica'" >
O</text>
<path stroke="transparent" fill="#000000" transform="matrix(0.05 0 0 0.05 -122 -171)" d="M 6498.1,3890.32 L 6510.1,3890.32 L 6510.1,4082.76 L 6498.1,4082.76 L 6498.1,3890.32 Z " />
<path stroke="transparent" fill="#000000" transform="matrix(0.05 0 0 0.05 -122 -171)" d="M 6549.9,3890.32 L 6561.9,3890.32 L 6561.9,4082.76 L 6549.9,4082.76 L 6549.9,3890.32 Z " />
<text x="0" y="0" stroke="transparent" fill="#000000" transform="matrix(0.05 0 0 0.05 225.934 21.5864)" style="font:normal normal normal 200px 'Helvetica'" >
O</text>
<path stroke="transparent" fill="#000000" transform="matrix(0.05 0 0 0.05 -122 -171)" d="M 6996.7,3890.32 L 7008.7,3890.32 L 7008.7,4082.77 L 6996.7,4082.77 L 6996.7,3890.32 Z " />
<path stroke="transparent" fill="#000000" transform="matrix(0.05 0 0 0.05 -122 -171)" d="M 7048.5,3890.32 L 7060.5,3890.32 L 7060.5,4073.35 L 7048.5,4073.35 L 7048.5,3890.32 Z " />
<text x="0" y="0" stroke="transparent" fill="#000000" transform="matrix(0.05 0 0 0.05 206.923 55.6464)" style="font:normal normal normal 200px 'Helvetica'" >
H</text>
<path stroke="transparent" fill="#000000" transform="matrix(0.05 0 0 0.05 -122 -171)" d="M 6702.47,4357.04 L 6692.08,4351.04 L 6771.2,4214 L 6779.4,4211.8 L 6777.35,4227.35 L 6702.47,4357.04 Z " />
<path stroke="transparent" fill="#000000" transform="matrix(0.05 0 0 0.05 -122 -171)" d="M 6854.33,3742.4 A 16.6667,16.6667 0 1 0 6887.67,3742.4A 16.6667,16.6667 0 1 0 6854.33,3742.4Z " />
<path stroke="transparent" fill="#000000" transform="matrix(0.05 0 0 0.05 -122 -171)" d="M 6854.33,3817.4 A 16.6667,16.6667 0 1 0 6887.67,3817.4A 16.6667,16.6667 0 1 0 6854.33,3817.4Z " />
<path stroke="transparent" fill="#000000" transform="matrix(0.05 0 0 0.05 -122 -171)" d="M 7049.53,3622.4 A 16.6667,16.6667 0 1 0 7082.87,3622.4A 16.6667,16.6667 0 1 0 7049.53,3622.4Z " />
<path stroke="transparent" fill="#000000" transform="matrix(0.05 0 0 0.05 -122 -171)" d="M 6974.53,3622.4 A 16.6667,16.6667 0 1 0 7007.87,3622.4A 16.6667,16.6667 0 1 0 6974.53,3622.4Z " />
<path stroke="transparent" fill="#000000" transform="matrix(0.05 0 0 0.05 -122 -171)" d="M 7049.53,3622.4 A 16.6667,16.6667 0 1 0 7082.87,3622.4A 16.6667,16.6667 0 1 0 7049.53,3622.4Z " />
<path stroke="transparent" fill="#000000" transform="matrix(0.05 0 0 0.05 -122 -171)" d="M 6974.53,3622.4 A 16.6667,16.6667 0 1 0 7007.87,3622.4A 16.6667,16.6667 0 1 0 6974.53,3622.4Z " />
<path stroke="transparent" fill="#000000" transform="matrix(0.05 0 0 0.05 -122 -171)" d="M 6858.93,4485.95 L 6848.67,4494.05 L 6777.35,4227.35 L 6779.4,4211.8 L 6786.38,4214.69 L 6858.93,4485.95 Z " />
<path stroke="transparent" fill="#000000" transform="matrix(0.05 0 0 0.05 -122 -171)" d="M 7065.31,4597.73 L 7065.4,4604.6 L 7058.38,4607.62 L 6848.67,4494.05 L 6858.93,4485.95 L 7065.31,4597.73 Z " />
<text x="0" y="0" stroke="transparent" fill="#000000" transform="matrix(0.05 0 0 0.05 240.244 55.6164)" style="font:normal normal normal 200px 'Helvetica'" >
O</text>
<path stroke="transparent" fill="#000000" transform="matrix(0.05 0 0 0.05 -122 -171)" d="M 7218.07,4509.52 L 7224.07,4519.91 L 7070.55,4608.55 L 7065.4,4604.6 L 7065.31,4597.73 L 7218.07,4509.52 Z " />
<path stroke="transparent" fill="#000000" transform="matrix(0.05 0 0 0.05 -122 -171)" d="M 6996.6,4884.35 L 6985,4881.25 L 7058.38,4607.62 L 7065.4,4604.6 L 7070.55,4608.55 L 6996.6,4884.35 Z " />
<path stroke="transparent" fill="#000000" transform="matrix(0.05 0 0 0.05 -122 -171)" d="M 7455.53,4498 A 16.6667,16.6667 0 1 0 7488.87,4498A 16.6667,16.6667 0 1 0 7455.53,4498Z " />
<path stroke="transparent" fill="#000000" transform="matrix(0.05 0 0 0.05 -122 -171)" d="M 7455.53,4423 A 16.6667,16.6667 0 1 0 7488.87,4423A 16.6667,16.6667 0 1 0 7455.53,4423Z " />
<path stroke="transparent" fill="#000000" transform="matrix(0.05 0 0 0.05 -122 -171)" d="M 7322.13,4343 A 16.6667,16.6667 0 1 0 7355.47,4343A 16.6667,16.6667 0 1 0 7322.13,4343Z " />
<path stroke="transparent" fill="#000000" transform="matrix(0.05 0 0 0.05 -122 -171)" d="M 7247.13,4343 A 16.6667,16.6667 0 1 0 7280.47,4343A 16.6667,16.6667 0 1 0 7247.13,4343Z " />
<path stroke="transparent" fill="#000000" transform="matrix(0.05 0 0 0.05 -122 -171)" d="M 7273.72,4622.6 A 16.6792,16.6792 0 1 0 7307.08,4622.6A 16.6792,16.6792 0 1 0 7273.72,4622.6Z " />
<path stroke="transparent" fill="#000000" transform="matrix(0.05 0 0 0.05 -122 -171)" d="M 7348.52,4616.4 A 16.6792,16.6792 0 1 0 7381.88,4616.4A 16.6792,16.6792 0 1 0 7348.52,4616.4Z " />
<path stroke="#000000" stroke-width="10" fill="transparent" transform="matrix(0.05 0 0 0.05 -122 -171)" d="M 7059.93,4410.93 A 71.7999,71.7999 0 1 0 7203.53,4410.93A 71.7999,71.7999 0 1 0 7059.93,4410.93Z " />
<path stroke="transparent" fill="#000000" transform="matrix(0.05 0 0 0.05 -122 -171)" d="M 7092.07,4405.6 L 7170.73,4405.6 L 7170.73,4415.6 L 7092.07,4415.6 Z " />
<path stroke="transparent" fill="#000000" transform="matrix(0.05 0 0 0.05 -122 -171)" d="M 2748.4,3985.07 L 2748.4,3998.93 L 2502,4141.2 L 2496,4130.8 L 2748.4,3985.07 Z " />
<path stroke="transparent" fill="#000000" transform="matrix(0.05 0 0 0.05 -122 -171)" d="M 2997.8,4129.07 L 2997.8,4136 L 2989.6,4138.2 L 2748.4,3998.93 L 2748.4,3985.07 L 2997.8,4129.07 Z " />
<path stroke="transparent" fill="#000000" transform="matrix(0.05 0 0 0.05 -122 -171)" d="M 3241,3988.54 L 3247,3992 L 3247,3998.93 L 3002.19,4140.39 L 2997.8,4136 L 2997.8,4129.07 L 3241,3988.54 Z " />
<path stroke="transparent" fill="#000000" transform="matrix(0.05 0 0 0.05 -122 -171)" d="M 3192.19,3956.91 L 3198.2,3967.3 L 3000.79,4081.37 L 2994.79,4070.98 L 3192.19,3956.91 Z " />
<text x="0" y="0" stroke="transparent" fill="#000000" transform="matrix(0.05 0 0 0.05 49.3239 39.3864)" style="font:normal normal normal 200px 'Helvetica'" >
O</text>
<path stroke="transparent" fill="#000000" transform="matrix(0.05 0 0 0.05 -122 -171)" d="M 3408.11,4078.1 L 3402.11,4088.49 L 3247,3998.93 L 3247,3992 L 3253,3988.54 L 3408.11,4078.1 Z " />
<path stroke="transparent" fill="#000000" transform="matrix(0.05 0 0 0.05 -122 -171)" d="M 3745.8,3985.07 L 3745.8,3998.93 L 3590.85,4088.4 L 3584.85,4078 L 3745.8,3985.07 Z " />
<path stroke="transparent" fill="#000000" transform="matrix(0.05 0 0 0.05 -122 -171)" d="M 3998.2,4130.8 L 3992.2,4141.2 L 3745.8,3998.93 L 3745.8,3985.07 L 3998.2,4130.8 Z " />
<text x="0" y="0" stroke="transparent" fill="#000000" transform="matrix(0.05 0 0 0.05 11.9239 17.7864)" style="font:normal normal normal 200px 'Helvetica'" >
O</text>
<path stroke="transparent" fill="#000000" transform="matrix(0.05 0 0 0.05 -122 -171)" d="M 2716.48,3814.32 L 2728.48,3814.32 L 2728.48,4006.97 L 2716.48,4006.97 L 2716.48,3814.32 Z " />
<path stroke="transparent" fill="#000000" transform="matrix(0.05 0 0 0.05 -122 -171)" d="M 2768.32,3814.32 L 2780.32,3814.32 L 2780.32,4006.97 L 2768.32,4006.97 L 2768.32,3814.32 Z " />
<text x="0" y="0" stroke="transparent" fill="#000000" transform="matrix(0.05 0 0 0.05 36.8539 17.7864)" style="font:normal normal normal 200px 'Helvetica'" >
O</text>
<path stroke="transparent" fill="#000000" transform="matrix(0.05 0 0 0.05 -122 -171)" d="M 3241,3814.32 L 3253,3814.32 L 3253,3988.54 L 3247,3992 L 3241,3988.54 L 3241,3814.32 Z " />
<text x="0" y="0" stroke="transparent" fill="#000000" transform="matrix(0.05 0 0 0.05 17.8433 51.8564)" style="font:normal normal normal 200px 'Helvetica'" >
H</text>
<path stroke="transparent" fill="#000000" transform="matrix(0.05 0 0 0.05 -122 -171)" d="M 2920.87,4281.24 L 2910.48,4275.24 L 2989.6,4138.2 L 2997.8,4136 L 3002.19,4140.39 L 2920.87,4281.24 Z " />
<path stroke="transparent" fill="#000000" transform="matrix(0.05 0 0 0.05 -122 -171)" d="M 3072.73,3666.6 A 16.6667,16.6667 0 1 0 3106.07,3666.6A 16.6667,16.6667 0 1 0 3072.73,3666.6Z " />
<path stroke="transparent" fill="#000000" transform="matrix(0.05 0 0 0.05 -122 -171)" d="M 3072.73,3741.6 A 16.6667,16.6667 0 1 0 3106.07,3741.6A 16.6667,16.6667 0 1 0 3072.73,3741.6Z " />
<path stroke="transparent" fill="#000000" transform="matrix(0.05 0 0 0.05 -122 -171)" d="M 3267.93,3546.4 A 16.6667,16.6667 0 1 0 3301.27,3546.4A 16.6667,16.6667 0 1 0 3267.93,3546.4Z " />
<path stroke="transparent" fill="#000000" transform="matrix(0.05 0 0 0.05 -122 -171)" d="M 3192.93,3546.4 A 16.6667,16.6667 0 1 0 3226.27,3546.4A 16.6667,16.6667 0 1 0 3192.93,3546.4Z " />
<path stroke="transparent" fill="#000000" transform="matrix(0.05 0 0 0.05 -122 -171)" d="M 3267.93,3546.4 A 16.6667,16.6667 0 1 0 3301.27,3546.4A 16.6667,16.6667 0 1 0 3267.93,3546.4Z " />
<path stroke="transparent" fill="#000000" transform="matrix(0.05 0 0 0.05 -122 -171)" d="M 3192.93,3546.4 A 16.6667,16.6667 0 1 0 3226.27,3546.4A 16.6667,16.6667 0 1 0 3192.93,3546.4Z " />
<path stroke="transparent" fill="#000000" transform="matrix(0.05 0 0 0.05 -122 -171)" d="M 3385.53,3758 A 16.6681,16.6681 0 1 0 3418.87,3758A 16.6681,16.6681 0 1 0 3385.53,3758Z " />
<path stroke="transparent" fill="#000000" transform="matrix(0.05 0 0 0.05 -122 -171)" d="M 3393.33,3683.4 A 16.6681,16.6681 0 1 0 3426.67,3683.4A 16.6681,16.6681 0 1 0 3393.33,3683.4Z " />
<path stroke="#000000" stroke-width="10" fill="transparent" transform="matrix(0.05 0 0 0.05 -122 -171)" d="M 3351.53,3545.13 A 71.7999,71.7999 0 1 0 3495.13,3545.13A 71.7999,71.7999 0 1 0 3351.53,3545.13Z " />
<path stroke="transparent" fill="#000000" transform="matrix(0.05 0 0 0.05 -122 -171)" d="M 3383.67,3539.8 L 3462.33,3539.8 L 3462.33,3549.8 L 3383.67,3549.8 Z " />
<text x="0" y="0" stroke="transparent" fill="#000000" transform="matrix(0.05 0 0 0.05 111.274 26.6864)" style="font:normal normal normal 200px 'Helvetica'" >
O</text>
<path stroke="transparent" fill="#000000" transform="matrix(0.05 0 0 0.05 -122 -171)" d="M 4783.92,3980.76 L 4794.39,3974.89 L 4881.43,4130.06 L 4876.2,4133 L 4865.89,4126.88 L 4783.92,3980.76 Z " />
<path stroke="transparent" fill="#000000" transform="matrix(0.05 0 0 0.05 -122 -171)" d="M 4598.87,4123.72 L 4577.93,4135.48 L 4673.32,3974.81 L 4683.64,3980.94 L 4598.87,4123.72 Z " />
<path stroke="transparent" fill="#000000" transform="matrix(0.05 0 0 0.05 -122 -171)" d="M 4865.89,4126.88 L 4876.2,4133 L 4872.71,4138.96 L 4577.93,4135.48 L 4598.87,4123.72 L 4865.89,4126.88 Z " />
<path stroke="transparent" fill="#000000" transform="matrix(0.05 0 0 0.05 -122 -171)" d="M 5025.4,4379.4 L 5015,4385.4 L 4872.71,4138.96 L 4876.2,4133 L 4881.4,4130 L 5025.4,4379.4 Z " />
<text x="0" y="0" stroke="transparent" fill="#000000" transform="matrix(0.05 0 0 0.05 88.61 35.13)" style="font:normal normal normal 200px 'Helvetica'" >
+</text>
<path stroke="#000000" stroke-width="12" fill="transparent" transform="matrix(0.05 0 0 0.05 -122 -171)" d="M 3172.13,4175.98 C 3395.72,4563.18 3891.58,4696.03 4278.88,4472.49 C 4377.08,4415.81 4463.15,4338.26 4529.72,4246.48 " />
<path stroke="transparent" fill="#000000" transform="matrix(0.05 0 0 0.05 -122 -171)" d="M 4575.44,4176.02 C 4575.44,4176.02 4544.32,4270.61 4544.32,4270.61 C 4544.32,4270.61 4538.96,4252.63 4529.72,4246.48 C 4520.48,4240.33 4502.06,4242.48 4502.06,4242.48 C 4502.06,4242.48 4575.44,4176.02 4575.44,4176.02 C 4575.44,4176.02 4575.44,4176.02 4575.44,4176.02 " />
<path stroke="#000000" stroke-width="1" fill="transparent" transform="matrix(0.05 0 0 0.05 -122 -171)" d="M 4575.44,4176.02 C 4575.44,4176.02 4544.32,4270.61 4544.32,4270.61 C 4544.32,4270.61 4538.96,4252.63 4529.72,4246.48 C 4520.48,4240.33 4502.06,4242.48 4502.06,4242.48 C 4502.06,4242.48 4575.44,4176.02 4575.44,4176.02 C 4575.44,4176.02 4575.44,4176.02 4575.44,4176.02 " />
<path stroke="#000000" stroke-width="12" fill="transparent" transform="matrix(0.05 0 0 0.05 -122 -171)" d="M 4572.84,3811.38 C 4506.59,3836.9 4473.49,3911.48 4498.97,3977.83 C 4513.49,4015.65 4546.71,4045.57 4585.79,4056.03 " />
<path stroke="transparent" fill="#000000" transform="matrix(0.05 0 0 0.05 -122 -171)" d="M 4652.21,3807.17 C 4652.21,3807.17 4563.71,3835.66 4563.71,3835.66 C 4563.71,3835.66 4573.75,3821.18 4572.84,3811.38 C 4571.93,3801.58 4559.3,3788.31 4559.3,3788.31 C 4559.3,3788.31 4652.21,3807.17 4652.21,3807.17 C 4652.21,3807.17 4652.21,3807.17 4652.21,3807.17 " />
<path stroke="#000000" stroke-width="1" fill="transparent" transform="matrix(0.05 0 0 0.05 -122 -171)" d="M 4652.21,3807.17 C 4652.21,3807.17 4563.71,3835.66 4563.71,3835.66 C 4563.71,3835.66 4573.75,3821.18 4572.84,3811.38 C 4571.93,3801.58 4559.3,3788.31 4559.3,3788.31 C 4559.3,3788.31 4652.21,3807.17 4652.21,3807.17 C 4652.21,3807.17 4652.21,3807.17 4652.21,3807.17 " />
<path stroke="#000000" stroke-width="12" fill="transparent" transform="matrix(0.05 0 0 0.05 -122 -171)" d="M 3384.38,3909.33 C 3444.73,3911.44 3495.43,3864.17 3497.53,3803.82 C 3498.58,3773.9 3486.73,3743.81 3465.56,3722.64 " />
<path stroke="transparent" fill="#000000" transform="matrix(0.05 0 0 0.05 -122 -171)" d="M 3310.84,3877.36 C 3310.84,3877.36 3405.02,3891.89 3405.02,3891.89 C 3405.02,3891.89 3388.62,3900.14 3384.38,3909.33 C 3380.15,3918.53 3384.75,3935.91 3384.75,3935.91 C 3384.75,3935.91 3310.84,3877.36 3310.84,3877.36 C 3310.84,3877.36 3310.84,3877.36 3310.84,3877.36 " />
<path stroke="#000000" stroke-width="1" fill="transparent" transform="matrix(0.05 0 0 0.05 -122 -171)" d="M 3310.84,3877.36 C 3310.84,3877.36 3405.02,3891.89 3405.02,3891.89 C 3405.02,3891.89 3388.62,3900.14 3384.38,3909.33 C 3380.15,3918.53 3384.75,3935.91 3384.75,3935.91 C 3384.75,3935.91 3310.84,3877.36 3310.84,3877.36 C 3310.84,3877.36 3310.84,3877.36 3310.84,3877.36 " />
</svg>
