<?xml version="1.0" standalone="no" ?>
<!DOCTYPE svg PUBLIC "-//W3C//DTD SVG 1.1//EN" "http://www.w3.org/Graphics/SVG/1.1/DTD/svg11.dtd">
<svg width="294px" height="82px" viewBox="0 0 294 82" style="background-color: #ffffff00" xmlns="http://www.w3.org/2000/svg" xmlns:xlink="http://www.w3.org/1999/xlink" version="1.1" >
<text x="0" y="0" stroke="transparent" fill="#000000" transform="matrix(0.05 0 0 0.05 83.82 23.39)" style="font:normal normal normal 199px 'Helvetica'" >
3) </text>
<text x="0" y="0" stroke="transparent" fill="#000000" transform="matrix(0.05 0 0 0.05 95.4316 23.39)" style="font:normal normal normal 199px 'Helvetica'" >
NH</text>
<text x="0" y="0" stroke="transparent" fill="#000000" transform="matrix(0.05 0 0 0.05 109.803 25.6783)" style="font:normal normal normal 149.25px 'Helvetica'" >
2</text>
<text x="0" y="0" stroke="transparent" fill="#000000" transform="matrix(0.05 0 0 0.05 113.953 23.39)" style="font:normal normal normal 199px 'Helvetica'" >
NH</text>
<text x="0" y="0" stroke="transparent" fill="#000000" transform="matrix(0.05 0 0 0.05 128.324 25.6783)" style="font:normal normal normal 149.25px 'Helvetica'" >
2</text>
<text x="0" y="0" stroke="transparent" fill="#000000" transform="matrix(0.05 0 0 0.05 132.474 23.39)" style="font:normal normal normal 199px 'Helvetica'" >
 </text>
<text x="0" y="0" stroke="transparent" fill="#000000" transform="matrix(0.05 0 0 0.05 135.239 23.39)" style="font:normal normal normal 199px 'Helvetica'" >
/ </text>
<text x="0" y="0" stroke="transparent" fill="#000000" transform="matrix(0.05 0 0 0.05 140.768 23.39)" style="font:normal normal normal 199px 'Helvetica'" >
KOH </text>
<text x="0" y="0" stroke="transparent" fill="#000000" transform="matrix(0.05 0 0 0.05 165.094 23.39)" style="font:normal normal normal 199px 'Helvetica'" >
/ </text>
<text x="0" y="0" stroke="transparent" fill="#000000" transform="matrix(0.05 0 0 0.05 170.623 23.39)" style="font:normal normal normal 199px 'Helvetica'" >
heat</text>
<path stroke="transparent" fill="#000000" transform="matrix(0.05 0 0 0.05 -158 -572)" d="M 7043.44,12033.8 L 4796.4,12033.8 L 4796.4,12021.8 L 7043.44,12021.8 Z " />
<path stroke="transparent" fill="#000000" transform="matrix(0.05 0 0 0.05 -158 -572)" d="M 7200,12027.8 C 7200,12027.8 7020,12073.8 7020,12073.8 C 7020,12073.8 7042.44,12047.9 7042.44,12027.8 C 7042.44,12007.2 7020,11980.8 7020,11980.8 C 7020,11980.8 7200,12027.8 7200,12027.8 C 7200,12027.8 7200,12027.8 7200,12027.8 " />
<path stroke="#000000" stroke-width="1" fill="transparent" transform="matrix(0.05 0 0 0.05 -158 -572)" d="M 7200,12027.8 C 7200,12027.8 7020,12073.8 7020,12073.8 C 7020,12073.8 7042.44,12047.9 7042.44,12027.8 C 7042.44,12007.2 7020,11980.8 7020,11980.8 C 7020,11980.8 7200,12027.8 7200,12027.8 C 7200,12027.8 7200,12027.8 7200,12027.8 " />
<path stroke="transparent" fill="#000000" transform="matrix(0.05 0 0 0.05 -158 -572)" d="M 7499.6,12274.9 L 7487.6,12281.9 L 7487.6,11986.9 L 7499.6,11993.9 L 7499.6,12274.9 Z " />
<path stroke="transparent" fill="#000000" transform="matrix(0.05 0 0 0.05 -158 -572)" d="M 7551.44,12248.5 L 7539.44,12248.5 L 7539.44,12020.3 L 7551.44,12020.3 L 7551.44,12248.5 Z " />
<path stroke="transparent" fill="#000000" transform="matrix(0.05 0 0 0.05 -158 -572)" d="M 7743,12415.5 L 7743,12429.3 L 7487.6,12281.9 L 7499.6,12274.9 L 7743,12415.5 Z " />
<path stroke="transparent" fill="#000000" transform="matrix(0.05 0 0 0.05 -158 -572)" d="M 7986.4,12274.9 L 7992.4,12278.4 L 7992.4,12285.3 L 7743,12429.3 L 7743,12415.5 L 7986.4,12274.9 Z " />
<path stroke="transparent" fill="#000000" transform="matrix(0.05 0 0 0.05 -158 -572)" d="M 7937.56,12243.3 L 7943.56,12253.7 L 7746,12367.7 L 7740,12357.3 L 7937.56,12243.3 Z " />
<path stroke="transparent" fill="#000000" transform="matrix(0.05 0 0 0.05 -158 -572)" d="M 7986.4,11993.9 L 7998.4,11986.9 L 7998.4,12274.9 L 7992.4,12278.4 L 7986.4,12274.9 L 7986.4,11993.9 Z " />
<path stroke="transparent" fill="#000000" transform="matrix(0.05 0 0 0.05 -158 -572)" d="M 7743,11853.3 L 7743,11846.4 L 7749,11842.9 L 7998.4,11986.9 L 7986.4,11993.9 L 7743,11853.3 Z " />
<path stroke="transparent" fill="#000000" transform="matrix(0.05 0 0 0.05 -158 -572)" d="M 7740,11911.5 L 7746,11901.1 L 7943.56,12015.1 L 7937.56,12025.5 L 7740,11911.5 Z " />
<path stroke="transparent" fill="#000000" transform="matrix(0.05 0 0 0.05 -158 -572)" d="M 7499.6,11993.9 L 7487.6,11986.9 L 7737,11842.9 L 7743,11846.4 L 7743,11853.3 L 7499.6,11993.9 Z " />
<path stroke="transparent" fill="#000000" transform="matrix(0.05 0 0 0.05 -158 -572)" d="M 8241.6,12415.5 L 8241.6,12429.3 L 7992.4,12285.3 L 7992.4,12278.4 L 7998.4,12274.9 L 8241.6,12415.5 Z " />
<path stroke="transparent" fill="#9341a2" transform="matrix(0.05 0 0 0.05 -158 -572)" d="M 8490.8,12271.5 L 8490.8,12285.3 L 8241.6,12429.3 L 8241.6,12415.5 L 8490.8,12271.5 Z " />
<path stroke="transparent" fill="#9341a2" transform="matrix(0.05 0 0 0.05 -158 -572)" d="M 8740.2,12415.5 L 8740.2,12429.3 L 8490.8,12285.3 L 8490.8,12271.5 L 8740.2,12415.5 Z " />
<path stroke="transparent" fill="#9341a2" transform="matrix(0.05 0 0 0.05 -158 -572)" d="M 8986.6,12273.2 L 8992.6,12283.6 L 8740.2,12429.3 L 8740.2,12415.5 L 8986.6,12273.2 Z " />
<text x="0" y="0" stroke="transparent" fill="#3cabc7" transform="matrix(0.05 0 0 0.05 225.985 9.49849)" style="font:normal normal normal 199px 'Helvetica'" >
Cl</text>
<path stroke="transparent" fill="#000000" transform="matrix(0.05 0 0 0.05 -158 -572)" d="M 7737,11667.3 L 7749,11667.3 L 7749,11842.9 L 7743,11846.4 L 7737,11842.9 L 7737,11667.3 Z " />
<path stroke="transparent" fill="#000000" transform="matrix(0.05 0 0 0.05 -158 -572)" d="M 3212.4,12321.9 L 3200.4,12328.9 L 3200.4,12033.9 L 3212.4,12040.9 L 3212.4,12321.9 Z " />
<path stroke="transparent" fill="#000000" transform="matrix(0.05 0 0 0.05 -158 -572)" d="M 3264.24,12295.5 L 3252.24,12295.5 L 3252.24,12067.3 L 3264.24,12067.3 L 3264.24,12295.5 Z " />
<path stroke="transparent" fill="#000000" transform="matrix(0.05 0 0 0.05 -158 -572)" d="M 3455.6,12462.5 L 3455.6,12476.3 L 3200.4,12328.9 L 3212.4,12321.9 L 3455.6,12462.5 Z " />
<path stroke="transparent" fill="#000000" transform="matrix(0.05 0 0 0.05 -158 -572)" d="M 3699,12321.9 L 3705,12325.4 L 3705,12332.3 L 3455.6,12476.3 L 3455.6,12462.5 L 3699,12321.9 Z " />
<path stroke="transparent" fill="#000000" transform="matrix(0.05 0 0 0.05 -158 -572)" d="M 3650.16,12290.3 L 3656.16,12300.7 L 3458.61,12414.7 L 3452.61,12404.3 L 3650.16,12290.3 Z " />
<path stroke="transparent" fill="#000000" transform="matrix(0.05 0 0 0.05 -158 -572)" d="M 3699,12040.9 L 3711,12033.9 L 3711,12321.9 L 3705,12325.4 L 3699,12321.9 L 3699,12040.9 Z " />
<path stroke="transparent" fill="#000000" transform="matrix(0.05 0 0 0.05 -158 -572)" d="M 3455.6,11900.3 L 3455.6,11893.4 L 3461.6,11889.9 L 3711,12033.9 L 3699,12040.9 L 3455.6,11900.3 Z " />
<path stroke="transparent" fill="#000000" transform="matrix(0.05 0 0 0.05 -158 -572)" d="M 3452.61,11958.5 L 3458.61,11948.1 L 3656.16,12062.1 L 3650.16,12072.5 L 3452.61,11958.5 Z " />
<path stroke="transparent" fill="#000000" transform="matrix(0.05 0 0 0.05 -158 -572)" d="M 3212.4,12040.9 L 3200.4,12033.9 L 3449.6,11889.9 L 3455.6,11893.4 L 3455.6,11900.3 L 3212.4,12040.9 Z " />
<path stroke="transparent" fill="#000000" transform="matrix(0.05 0 0 0.05 -158 -572)" d="M 3954.4,12462.5 L 3954.4,12476.3 L 3705,12332.3 L 3705,12325.4 L 3711,12321.9 L 3954.4,12462.5 Z " />
<path stroke="transparent" fill="#9341a2" transform="matrix(0.05 0 0 0.05 -158 -572)" d="M 4203.8,12318.5 L 4203.8,12332.3 L 3954.4,12476.3 L 3954.4,12462.5 L 4203.8,12318.5 Z " />
<text x="0" y="0" stroke="transparent" fill="#9341a2" transform="matrix(0.05 0 0 0.05 36.2414 69.4285)" style="font:normal normal normal 199px 'Helvetica'" >
O</text>
<path stroke="transparent" fill="#9341a2" transform="matrix(0.05 0 0 0.05 -158 -572)" d="M 3986.3,12651.9 L 3974.3,12651.9 L 3974.3,12454.4 L 3986.3,12454.4 L 3986.3,12651.9 Z " />
<path stroke="transparent" fill="#9341a2" transform="matrix(0.05 0 0 0.05 -158 -572)" d="M 3934.5,12651.9 L 3922.5,12651.9 L 3922.5,12454.4 L 3934.5,12454.4 L 3934.5,12651.9 Z " />
<path stroke="transparent" fill="#9341a2" transform="matrix(0.05 0 0 0.05 -158 -572)" d="M 4453.2,12462.5 L 4453.2,12476.3 L 4203.8,12332.3 L 4203.8,12318.5 L 4453.2,12462.5 Z " />
<path stroke="transparent" fill="#9341a2" transform="matrix(0.05 0 0 0.05 -158 -572)" d="M 4699.6,12320.2 L 4705.6,12330.6 L 4453.2,12476.3 L 4453.2,12462.5 L 4699.6,12320.2 Z " />
<text x="0" y="0" stroke="transparent" fill="#3cabc7" transform="matrix(0.05 0 0 0.05 11.6148 11.8385)" style="font:normal normal normal 199px 'Helvetica'" >
Cl</text>
<path stroke="transparent" fill="#000000" transform="matrix(0.05 0 0 0.05 -158 -572)" d="M 3449.6,11714.1 L 3461.6,11714.1 L 3461.6,11889.9 L 3455.6,11893.4 L 3449.6,11889.9 L 3449.6,11714.1 Z " />
<clipPath id="1" >
<path transform="matrix(0.05 0 0 0.05 -158 -572)" clip-rule="evenodd" d="M 4160,12980 C 4160,12980 4160,12558.8 4160,12558.8 C 4160,12558.8 3758.8,12558.8 3758.8,12558.8 C 3758.8,12558.8 3758.8,12980 3758.8,12980 C 3758.8,12980 4160,12980 4160,12980 M 4208,13028 C 4208,13028 4208,12606.8 4208,12606.8 C 4208,12606.8 3806.8,12606.8 3806.8,12606.8 C 3806.8,12606.8 3806.8,13028 3806.8,13028 C 3806.8,13028 4208,13028 4208,13028 " />
</clipPath>
<g clip-path="url(#1)" >
<path stroke="transparent" fill="#de6f24" transform="matrix(0.05 0 0 0.05 -157.5 -571.5)" fill-opacity="0.498039" d="M 4208,13028 C 4208,13028 4208,12606.8 4208,12606.8 C 4208,12606.8 3806.8,12606.8 3806.8,12606.8 C 3806.8,12606.8 3806.8,13028 3806.8,13028 C 3806.8,13028 4208,13028 4208,13028 " />
</g>
<path stroke="#de6f24" stroke-width="12" fill="transparent" transform="matrix(0.05 0 0 0.05 -158 -572)" d="M 4160,12980 C 4160,12980 4160,12558.8 4160,12558.8 C 4160,12558.8 3758.8,12558.8 3758.8,12558.8 C 3758.8,12558.8 3758.8,12980 3758.8,12980 C 3758.8,12980 4160,12980 4160,12980 " />
</svg>
