<?xml version="1.0" standalone="no" ?>
<!DOCTYPE svg PUBLIC "-//W3C//DTD SVG 1.1//EN" "http://www.w3.org/Graphics/SVG/1.1/DTD/svg11.dtd">
<svg width="505px" height="75px" viewBox="0 0 505 75" style="background-color: #ffffff00" xmlns="http://www.w3.org/2000/svg" xmlns:xlink="http://www.w3.org/1999/xlink" version="1.1" >
<path stroke="transparent" fill="#000000" transform="matrix(0.05 0 0 0.05 -22 -286)" d="M 743.372,6421.42 L 749.388,6411 L 755.404,6414.47 L 755.404,6698.97 L 743.372,6698.97 L 743.372,6421.42 Z " />
<path stroke="transparent" fill="#000000" transform="matrix(0.05 0 0 0.05 -22 -286)" d="M 496.992,6272.23 L 503.008,6261.81 L 749.388,6404.05 L 749.388,6411 L 737.357,6411 L 496.992,6272.23 Z " />
<text x="0" y="0" stroke="transparent" fill="#000000" transform="matrix(0.05 0 0 0.05 25.1727 30.9372)" style="font:normal normal normal 200px 'Helvetica'" >
Br</text>
<path stroke="transparent" fill="#000000" transform="matrix(0.05 0 0 0.05 -22 -286)" d="M 898.202,6318.14 L 904.218,6328.56 L 755.404,6414.47 L 749.388,6411 L 749.388,6404.05 L 898.202,6318.14 Z " />
<text x="0" y="0" stroke="transparent" fill="#000000" transform="matrix(0.05 0 0 0.05 54.3333 25.7492)" style="font:normal normal normal 200px 'Helvetica'" >
1a) </text>
<text x="0" y="0" stroke="transparent" fill="#000000" transform="matrix(0.05 0 0 0.05 71.5648 25.7492)" style="font:normal normal normal 200px 'Helvetica'" >
Mg </text>
<text x="0" y="0" stroke="transparent" fill="#000000" transform="matrix(0.05 0 0 0.05 88.2347 25.7492)" style="font:normal normal normal 200px 'Helvetica'" >
/ </text>
<text x="0" y="0" stroke="transparent" fill="#000000" transform="matrix(0.05 0 0 0.05 93.7913 25.7492)" style="font:normal normal normal 200px 'Helvetica'" >
Et</text>
<text x="0" y="0" stroke="transparent" fill="#000000" transform="matrix(0.05 0 0 0.05 103.24 28.049)" style="font:normal normal normal 150px 'Helvetica'" >
2</text>
<text x="0" y="0" stroke="transparent" fill="#000000" transform="matrix(0.05 0 0 0.05 107.411 25.7492)" style="font:normal normal normal 200px 'Helvetica'" >
O</text>
<text x="0" y="0" stroke="transparent" fill="#000000" transform="matrix(0.05 0 0 0.05 54.3333 47.6992)" style="font:normal normal normal 200px 'Helvetica'" >
 </text>
<text x="0" y="0" stroke="transparent" fill="#000000" transform="matrix(0.05 0 0 0.05 57.1116 47.6992)" style="font:normal normal normal 200px 'Helvetica'" >
 </text>
<text x="0" y="0" stroke="transparent" fill="#000000" transform="matrix(0.05 0 0 0.05 59.89 47.6992)" style="font:normal normal normal 200px 'Helvetica'" >
b)</text>
<text x="0" y="0" stroke="transparent" fill="#000000" transform="matrix(0.05 0 0 0.05 54.3333 69.6492)" style="font:normal normal normal 200px 'Helvetica'" >
 </text>
<text x="0" y="0" stroke="transparent" fill="#000000" transform="matrix(0.05 0 0 0.05 57.1116 69.6492)" style="font:normal normal normal 200px 'Helvetica'" >
 </text>
<text x="0" y="0" stroke="transparent" fill="#000000" transform="matrix(0.05 0 0 0.05 59.89 69.6492)" style="font:normal normal normal 200px 'Helvetica'" >
c) </text>
<text x="0" y="0" stroke="transparent" fill="#000000" transform="matrix(0.05 0 0 0.05 70.9984 69.6492)" style="font:normal normal normal 200px 'Helvetica'" >
H</text>
<text x="0" y="0" stroke="transparent" fill="#000000" transform="matrix(0.05 0 0 0.05 78.22 71.949)" style="font:normal normal normal 150px 'Helvetica'" >
2</text>
<text x="0" y="0" stroke="transparent" fill="#000000" transform="matrix(0.05 0 0 0.05 82.3912 69.6492)" style="font:normal normal normal 200px 'Helvetica'" >
O/H</text>
<text x="0" y="0" stroke="transparent" fill="#000000" transform="matrix(0.05 0 0 0.05 100.169 71.949)" style="font:normal normal normal 150px 'Helvetica'" >
3</text>
<text x="0" y="0" stroke="transparent" fill="#000000" transform="matrix(0.05 0 0 0.05 104.341 69.6492)" style="font:normal normal normal 200px 'Helvetica'" >
O</text>
<text x="0" y="0" stroke="transparent" fill="#000000" transform="matrix(0.05 0 0 0.05 112.119 66.0628)" style="font:normal normal normal 150px 'Helvetica'" >
+</text>
<path stroke="transparent" fill="#000000" transform="matrix(0.05 0 0 0.05 -22 -286)" d="M 2295.88,6678.52 L 2309.39,6677.67 L 2309.39,6684.61 L 2053.98,6832.07 L 2066.02,6811.23 L 2295.88,6678.52 Z " />
<path stroke="transparent" fill="#000000" transform="matrix(0.05 0 0 0.05 -22 -286)" d="M 2558.78,6814.7 L 2558.78,6828.6 L 2309.39,6684.61 L 2309.39,6677.67 L 2312.4,6672.46 L 2558.78,6814.7 Z " />
<path stroke="transparent" fill="#000000" transform="matrix(0.05 0 0 0.05 -22 -286)" d="M 2805.16,6672.46 L 2811.17,6682.88 L 2558.78,6828.6 L 2558.78,6814.7 L 2805.16,6672.46 Z " />
<text x="0" y="0" stroke="transparent" fill="#000000" transform="matrix(0.05 0 0 0.05 77.5039 44.2705)" style="font:normal normal normal 200px 'Helvetica'" >
O</text>
<path stroke="transparent" fill="#000000" transform="matrix(0.05 0 0 0.05 -22 -286)" d="M 2136.09,6612.25 L 2166.09,6560.29 L 2312.4,6672.46 L 2309.39,6677.67 L 2295.88,6678.52 L 2136.09,6612.25 Z " />
<path stroke="transparent" fill="#000000" transform="matrix(0.05 0 0 0.05 -22 -286)" d="M 2066.02,6811.23 L 2053.98,6832.07 L 2053.98,6643.03 L 2066.02,6643.03 L 2066.02,6811.23 Z " />
<path stroke="transparent" fill="#000000" transform="matrix(0.05 0 0 0.05 -22 -286)" d="M 2916.36,6334.32 L 1526.67,6334.32 L 1526.67,6322.32 L 2916.36,6322.32 Z " />
<path stroke="transparent" fill="#000000" transform="matrix(0.05 0 0 0.05 -22 -286)" d="M 3073.33,6328.32 C 3073.33,6328.32 2892.86,6374.43 2892.86,6374.43 C 2892.86,6374.43 2915.36,6348.5 2915.36,6328.32 C 2915.36,6307.7 2892.86,6281.2 2892.86,6281.2 C 2892.86,6281.2 3073.33,6328.32 3073.33,6328.32 C 3073.33,6328.32 3073.33,6328.32 3073.33,6328.32 " />
<path stroke="#000000" stroke-width="1" fill="transparent" transform="matrix(0.05 0 0 0.05 -22 -286)" d="M 3073.33,6328.32 C 3073.33,6328.32 2892.86,6374.43 2892.86,6374.43 C 2892.86,6374.43 2915.36,6348.5 2915.36,6328.32 C 2915.36,6307.7 2892.86,6281.2 2892.86,6281.2 C 2892.86,6281.2 3073.33,6328.32 3073.33,6328.32 C 3073.33,6328.32 3073.33,6328.32 3073.33,6328.32 " />
<text x="0" y="0" stroke="transparent" fill="#000000" transform="matrix(0.05 0 0 0.05 208.667 28.4159)" style="font:normal normal normal 200px 'Helvetica'" >
2) </text>
<text x="0" y="0" stroke="transparent" fill="#000000" transform="matrix(0.05 0 0 0.05 220.337 28.4159)" style="font:normal normal normal 200px 'Helvetica'" >
Dess-Martin</text>
<text x="0" y="0" stroke="transparent" fill="#000000" transform="matrix(0.05 0 0 0.05 225.335 50.0659)" style="font:normal normal normal 200px 'Helvetica'" >
CH</text>
<text x="0" y="0" stroke="transparent" fill="#000000" transform="matrix(0.05 0 0 0.05 239.779 52.3657)" style="font:normal normal normal 150px 'Helvetica'" >
2</text>
<text x="0" y="0" stroke="transparent" fill="#000000" transform="matrix(0.05 0 0 0.05 243.95 50.0659)" style="font:normal normal normal 200px 'Helvetica'" >
Cl</text>
<text x="0" y="0" stroke="transparent" fill="#000000" transform="matrix(0.05 0 0 0.05 253.393 52.3657)" style="font:normal normal normal 150px 'Helvetica'" >
2</text>
<path stroke="transparent" fill="#000000" transform="matrix(0.05 0 0 0.05 -22 -286)" d="M 6069.7,6427.65 L 4560,6427.65 L 4560,6415.65 L 6069.7,6415.65 Z " />
<path stroke="transparent" fill="#000000" transform="matrix(0.05 0 0 0.05 -22 -286)" d="M 6226.67,6421.65 C 6226.67,6421.65 6046.2,6467.77 6046.2,6467.77 C 6046.2,6467.77 6068.7,6441.83 6068.7,6421.65 C 6068.7,6401.03 6046.2,6374.53 6046.2,6374.53 C 6046.2,6374.53 6226.67,6421.65 6226.67,6421.65 C 6226.67,6421.65 6226.67,6421.65 6226.67,6421.65 " />
<path stroke="#000000" stroke-width="1" fill="transparent" transform="matrix(0.05 0 0 0.05 -22 -286)" d="M 6226.67,6421.65 C 6226.67,6421.65 6046.2,6467.77 6046.2,6467.77 C 6046.2,6467.77 6068.7,6441.83 6068.7,6421.65 C 6068.7,6401.03 6046.2,6374.53 6046.2,6374.53 C 6046.2,6374.53 6226.67,6421.65 6226.67,6421.65 C 6226.67,6421.65 6226.67,6421.65 6226.67,6421.65 " />
<text x="0" y="0" stroke="transparent" fill="#000000" transform="matrix(0.05 0 0 0.05 366.747 29.0825)" style="font:normal normal normal 200px 'Helvetica'" >
3) </text>
<text x="0" y="0" stroke="transparent" fill="#000000" transform="matrix(0.05 0 0 0.05 378.417 29.0825)" style="font:normal normal normal 200px 'Helvetica'" >
Ph</text>
<text x="0" y="0" stroke="transparent" fill="#000000" transform="matrix(0.05 0 0 0.05 390.648 31.3823)" style="font:normal normal normal 150px 'Helvetica'" >
3</text>
<text x="0" y="0" stroke="transparent" fill="#000000" transform="matrix(0.05 0 0 0.05 394.819 29.0825)" style="font:normal normal normal 200px 'Helvetica'" >
P=CH</text>
<text x="0" y="0" stroke="transparent" fill="#000000" transform="matrix(0.05 0 0 0.05 421.772 31.3823)" style="font:normal normal normal 150px 'Helvetica'" >
2</text>
<text x="0" y="0" stroke="transparent" fill="#000000" transform="matrix(0.05 0 0 0.05 386.626 51.0325)" style="font:normal normal normal 200px 'Helvetica'" >
THF</text>
<path stroke="transparent" fill="#000000" transform="matrix(0.05 0 0 0.05 -22 -286)" d="M 8961.55,6454.32 L 7726.67,6454.32 L 7726.67,6442.32 L 8961.55,6442.32 Z " />
<path stroke="transparent" fill="#000000" transform="matrix(0.05 0 0 0.05 -22 -286)" d="M 9118.52,6448.32 C 9118.52,6448.32 8938.05,6494.43 8938.05,6494.43 C 8938.05,6494.43 8960.55,6468.5 8960.55,6448.32 C 8960.55,6427.7 8938.05,6401.2 8938.05,6401.2 C 8938.05,6401.2 9118.52,6448.32 9118.52,6448.32 C 9118.52,6448.32 9118.52,6448.32 9118.52,6448.32 " />
<path stroke="#000000" stroke-width="1" fill="transparent" transform="matrix(0.05 0 0 0.05 -22 -286)" d="M 9118.52,6448.32 C 9118.52,6448.32 8938.05,6494.43 8938.05,6494.43 C 8938.05,6494.43 8960.55,6468.5 8960.55,6448.32 C 8960.55,6427.7 8938.05,6401.2 8938.05,6401.2 C 8938.05,6401.2 9118.52,6448.32 9118.52,6448.32 C 9118.52,6448.32 9118.52,6448.32 9118.52,6448.32 " />
<path stroke="#000000" stroke-width="12" fill="transparent" transform="matrix(0.05 0 0 0.05 -22 -286)" d="M 4460,6960 C 4460,6960 4460,5793.98 4460,5793.98 C 4460,5793.98 3219,5793.98 3219,5793.98 C 3219,5793.98 3219,6960 3219,6960 C 3219,6960 4460,6960 4460,6960 " />
<path stroke="transparent" fill="#000000" transform="matrix(0.05 0 0 0.05 -22 -286)" d="M 503.008,6560.19 L 496.992,6549.77 L 737.357,6411 L 749.388,6411 L 743.372,6421.42 L 503.008,6560.19 Z " />
<text x="0" y="0" stroke="transparent" fill="#000000" transform="matrix(0.05 0 0 0.05 163.574 37.8691)" style="font:normal normal normal 360px 'Helvetica'" >
A</text>
<text x="0" y="0" stroke="transparent" fill="#000000" transform="matrix(0.05 0 0 0.05 319.356 39.8691)" style="font:normal normal normal 360px 'Helvetica'" >
B</text>
<text x="0" y="0" stroke="transparent" fill="#000000" transform="matrix(0.05 0 0 0.05 462.885 36.8691)" style="font:normal normal normal 360px 'Helvetica'" >
C</text>
<path stroke="#000000" stroke-width="12" fill="transparent" transform="matrix(0.05 0 0 0.05 -22 -286)" d="M 7560,6960 C 7560,6960 7560,5793.98 7560,5793.98 C 7560,5793.98 6319,5793.98 6319,5793.98 C 6319,5793.98 6319,6960 6319,6960 C 6319,6960 7560,6960 7560,6960 " />
<path stroke="#000000" stroke-width="12" fill="transparent" transform="matrix(0.05 0 0 0.05 -22 -286)" d="M 10480,6940 C 10480,6940 10480,5773.98 10480,5773.98 C 10480,5773.98 9239,5773.98 9239,5773.98 C 9239,5773.98 9239,6940 9239,6940 C 9239,6940 10480,6940 10480,6940 " />
</svg>
