<?xml version="1.0" standalone="no" ?>
<!DOCTYPE svg PUBLIC "-//W3C//DTD SVG 1.1//EN" "http://www.w3.org/Graphics/SVG/1.1/DTD/svg11.dtd">
<svg width="401px" height="158px" viewBox="0 0 401 158" style="background-color: #ffffff00" xmlns="http://www.w3.org/2000/svg" xmlns:xlink="http://www.w3.org/1999/xlink" version="1.1" >
<path stroke="transparent" fill="#000000" transform="matrix(0.05 0 0 0.05 -38 -362)" d="M 6943.2,7851.2 L 6287.2,7851.2 L 6287.2,7839.2 L 6943.2,7839.2 Z " />
<path stroke="transparent" fill="#000000" transform="matrix(0.05 0 0 0.05 -38 -362)" d="M 7047.2,7845.2 C 7047.2,7845.2 6927.2,7876.2 6927.2,7876.2 C 6927.2,7876.2 6942.2,7858.76 6942.2,7845.2 C 6942.2,7831.2 6927.2,7813.2 6927.2,7813.2 C 6927.2,7813.2 7047.2,7845.2 7047.2,7845.2 C 7047.2,7845.2 7047.2,7845.2 7047.2,7845.2 " />
<path stroke="#000000" stroke-width="1" fill="transparent" transform="matrix(0.05 0 0 0.05 -38 -362)" d="M 7047.2,7845.2 C 7047.2,7845.2 6927.2,7876.2 6927.2,7876.2 C 6927.2,7876.2 6942.2,7858.76 6942.2,7845.2 C 6942.2,7831.2 6927.2,7813.2 6927.2,7813.2 C 6927.2,7813.2 7047.2,7845.2 7047.2,7845.2 C 7047.2,7845.2 7047.2,7845.2 7047.2,7845.2 " />
<path stroke="transparent" fill="#000000" transform="matrix(0.05 0 0 0.05 -38 -362)" d="M 7410,7920.87 L 7410,7934.73 L 7163.6,8077 L 7157.6,8066.6 L 7410,7920.87 Z " />
<path stroke="transparent" fill="#000000" transform="matrix(0.05 0 0 0.05 -38 -362)" d="M 7659.4,8064.87 L 7659.4,8071.8 L 7651.2,8074 L 7410,7934.73 L 7410,7920.87 L 7659.4,8064.87 Z " />
<path stroke="transparent" fill="#000000" transform="matrix(0.05 0 0 0.05 -38 -362)" d="M 7907.6,7921.45 L 7909.6,7934.15 L 7666.38,8074.69 L 7659.4,8071.8 L 7659.4,8064.87 L 7907.6,7921.45 Z " />
<text x="0" y="0" stroke="transparent" fill="#000000" transform="matrix(0.05 0 0 0.05 368.864 41.1764)" style="font:normal normal normal 200px 'Helvetica'" >
O</text>
<path stroke="transparent" fill="#000000" transform="matrix(0.05 0 0 0.05 -38 -362)" d="M 8106.99,7964.19 L 8104.47,7975.92 L 7909.6,7934.15 L 7907.6,7921.45 L 8106.99,7964.19 Z " />
<path stroke="transparent" fill="#000000" transform="matrix(0.05 0 0 0.05 -38 -362)" d="M 8474.57,7867.89 L 8473.83,7881.31 L 8305.89,7955.03 L 8301.07,7944.04 L 8474.57,7867.89 Z " />
<path stroke="transparent" fill="#000000" transform="matrix(0.05 0 0 0.05 -38 -362)" d="M 8726.6,8013.4 L 8720.6,8023.8 L 8473.83,7881.31 L 8474.57,7867.89 L 8726.6,8013.4 Z " />
<text x="0" y="0" stroke="transparent" fill="#000000" transform="matrix(0.05 0 0 0.05 329.004 23.5864)" style="font:normal normal normal 200px 'Helvetica'" >
O</text>
<path stroke="transparent" fill="#000000" transform="matrix(0.05 0 0 0.05 -38 -362)" d="M 7378.1,7749.32 L 7390.1,7749.32 L 7390.1,7942.76 L 7378.1,7942.76 L 7378.1,7749.32 Z " />
<path stroke="transparent" fill="#000000" transform="matrix(0.05 0 0 0.05 -38 -362)" d="M 7429.9,7749.32 L 7441.9,7749.32 L 7441.9,7942.76 L 7429.9,7942.76 L 7429.9,7749.32 Z " />
<text x="0" y="0" stroke="transparent" fill="#000000" transform="matrix(0.05 0 0 0.05 353.934 23.5864)" style="font:normal normal normal 200px 'Helvetica'" >
O</text>
<path stroke="transparent" fill="#000000" transform="matrix(0.05 0 0 0.05 -38 -362)" d="M 7876.7,7749.32 L 7888.7,7749.32 L 7888.7,7942.77 L 7876.7,7942.77 L 7876.7,7749.32 Z " />
<path stroke="transparent" fill="#000000" transform="matrix(0.05 0 0 0.05 -38 -362)" d="M 7928.5,7749.32 L 7940.5,7749.32 L 7940.5,7933.35 L 7928.5,7933.35 L 7928.5,7749.32 Z " />
<text x="0" y="0" stroke="transparent" fill="#000000" transform="matrix(0.05 0 0 0.05 334.923 57.6464)" style="font:normal normal normal 200px 'Helvetica'" >
H</text>
<path stroke="transparent" fill="#000000" transform="matrix(0.05 0 0 0.05 -38 -362)" d="M 7582.22,8217.47 L 7571.83,8211.47 L 7651.2,8074 L 7659.4,8071.8 L 7657.35,8087.35 L 7582.22,8217.47 Z " />
<path stroke="transparent" fill="#000000" transform="matrix(0.05 0 0 0.05 -38 -362)" d="M 7734.33,7602.4 A 16.6667,16.6667 0 1 0 7767.67,7602.4A 16.6667,16.6667 0 1 0 7734.33,7602.4Z " />
<path stroke="transparent" fill="#000000" transform="matrix(0.05 0 0 0.05 -38 -362)" d="M 7734.33,7677.4 A 16.6667,16.6667 0 1 0 7767.67,7677.4A 16.6667,16.6667 0 1 0 7734.33,7677.4Z " />
<path stroke="transparent" fill="#000000" transform="matrix(0.05 0 0 0.05 -38 -362)" d="M 7929.53,7482.4 A 16.6667,16.6667 0 1 0 7962.87,7482.4A 16.6667,16.6667 0 1 0 7929.53,7482.4Z " />
<path stroke="transparent" fill="#000000" transform="matrix(0.05 0 0 0.05 -38 -362)" d="M 7854.53,7482.4 A 16.6667,16.6667 0 1 0 7887.87,7482.4A 16.6667,16.6667 0 1 0 7854.53,7482.4Z " />
<path stroke="transparent" fill="#000000" transform="matrix(0.05 0 0 0.05 -38 -362)" d="M 7929.53,7482.4 A 16.6667,16.6667 0 1 0 7962.87,7482.4A 16.6667,16.6667 0 1 0 7929.53,7482.4Z " />
<path stroke="transparent" fill="#000000" transform="matrix(0.05 0 0 0.05 -38 -362)" d="M 7854.53,7482.4 A 16.6667,16.6667 0 1 0 7887.87,7482.4A 16.6667,16.6667 0 1 0 7854.53,7482.4Z " />
<path stroke="transparent" fill="#000000" transform="matrix(0.05 0 0 0.05 -38 -362)" d="M 7738.93,8345.95 L 7728.67,8354.05 L 7657.35,8087.35 L 7659.4,8071.8 L 7666.38,8074.69 L 7738.93,8345.95 Z " />
<path stroke="transparent" fill="#000000" transform="matrix(0.05 0 0 0.05 -38 -362)" d="M 7945.31,8457.73 L 7945.4,8464.6 L 7938.38,8467.62 L 7728.67,8354.05 L 7738.93,8345.95 L 7945.31,8457.73 Z " />
<text x="0" y="0" stroke="transparent" fill="#000000" transform="matrix(0.05 0 0 0.05 368.244 57.6164)" style="font:normal normal normal 200px 'Helvetica'" >
O</text>
<path stroke="transparent" fill="#000000" transform="matrix(0.05 0 0 0.05 -38 -362)" d="M 8098.5,8369.27 L 8104.5,8379.66 L 7950.55,8468.55 L 7945.4,8464.6 L 7945.31,8457.73 L 8098.5,8369.27 Z " />
<path stroke="transparent" fill="#000000" transform="matrix(0.05 0 0 0.05 -38 -362)" d="M 7876.6,8744.35 L 7865,8741.25 L 7938.38,8467.62 L 7945.4,8464.6 L 7950.55,8468.55 L 7876.6,8744.35 Z " />
<path stroke="transparent" fill="#000000" transform="matrix(0.05 0 0 0.05 -38 -362)" d="M 8335.53,8358 A 16.6667,16.6667 0 1 0 8368.87,8358A 16.6667,16.6667 0 1 0 8335.53,8358Z " />
<path stroke="transparent" fill="#000000" transform="matrix(0.05 0 0 0.05 -38 -362)" d="M 8335.53,8283 A 16.6667,16.6667 0 1 0 8368.87,8283A 16.6667,16.6667 0 1 0 8335.53,8283Z " />
<path stroke="transparent" fill="#000000" transform="matrix(0.05 0 0 0.05 -38 -362)" d="M 8202.13,8203 A 16.6667,16.6667 0 1 0 8235.47,8203A 16.6667,16.6667 0 1 0 8202.13,8203Z " />
<path stroke="transparent" fill="#000000" transform="matrix(0.05 0 0 0.05 -38 -362)" d="M 8127.13,8203 A 16.6667,16.6667 0 1 0 8160.47,8203A 16.6667,16.6667 0 1 0 8127.13,8203Z " />
<path stroke="transparent" fill="#000000" transform="matrix(0.05 0 0 0.05 -38 -362)" d="M 8153.72,8482.6 A 16.6792,16.6792 0 1 0 8187.08,8482.6A 16.6792,16.6792 0 1 0 8153.72,8482.6Z " />
<path stroke="transparent" fill="#000000" transform="matrix(0.05 0 0 0.05 -38 -362)" d="M 8228.52,8476.4 A 16.6792,16.6792 0 1 0 8261.88,8476.4A 16.6792,16.6792 0 1 0 8228.52,8476.4Z " />
<path stroke="#000000" stroke-width="10" fill="transparent" transform="matrix(0.05 0 0 0.05 -38 -362)" d="M 7939.93,8270.93 A 71.7999,71.7999 0 1 0 8083.53,8270.93A 71.7999,71.7999 0 1 0 7939.93,8270.93Z " />
<path stroke="transparent" fill="#000000" transform="matrix(0.05 0 0 0.05 -38 -362)" d="M 7972.07,8265.6 L 8050.73,8265.6 L 8050.73,8275.6 L 7972.07,8275.6 Z " />
<path stroke="#000000" stroke-width="12" fill="transparent" transform="matrix(0.05 0 0 0.05 -38 -362)" d="M 7911.28,8046.81 C 7920.27,8098.03 7968.55,8138.58 8020.55,8138.6 " />
<path stroke="transparent" fill="#000000" transform="matrix(0.05 0 0 0.05 -38 -362)" d="M 7924.5,7972.06 C 7924.5,7972.06 7931.74,8062.27 7931.74,8062.27 C 7931.74,8062.27 7920.12,8048.7 7911.28,8046.81 C 7902.43,8044.92 7887.03,8052.71 7887.03,8052.71 C 7887.03,8052.71 7924.5,7972.06 7924.5,7972.06 C 7924.5,7972.06 7924.5,7972.06 7924.5,7972.06 " />
<path stroke="#000000" stroke-width="1" fill="transparent" transform="matrix(0.05 0 0 0.05 -38 -362)" d="M 7924.5,7972.06 C 7924.5,7972.06 7931.74,8062.27 7931.74,8062.27 C 7931.74,8062.27 7920.12,8048.7 7911.28,8046.81 C 7902.43,8044.92 7887.03,8052.71 7887.03,8052.71 C 7887.03,8052.71 7924.5,7972.06 7924.5,7972.06 C 7924.5,7972.06 7924.5,7972.06 7924.5,7972.06 " />
<path stroke="#000000" stroke-width="12" fill="transparent" transform="matrix(0.05 0 0 0.05 -38 -362)" d="M 7980.6,7818.6 C 8035.8,7818.6 8080.6,7773.8 8080.6,7718.6 C 8080.6,7695.13 8072.02,7671.77 8056.83,7653.88 " />
<path stroke="transparent" fill="#000000" transform="matrix(0.05 0 0 0.05 -38 -362)" d="M 7980.6,7618.6 C 7980.6,7618.6 8078.8,7636.14 8078.8,7636.14 C 8078.8,7636.14 8061.68,7643.91 8056.83,7653.88 C 8051.98,7663.85 8056.64,7681.7 8056.64,7681.7 C 8056.64,7681.7 7980.6,7618.6 7980.6,7618.6 C 7980.6,7618.6 7980.6,7618.6 7980.6,7618.6 " />
<path stroke="#000000" stroke-width="1" fill="transparent" transform="matrix(0.05 0 0 0.05 -38 -362)" d="M 7980.6,7618.6 C 7980.6,7618.6 8078.8,7636.14 8078.8,7636.14 C 8078.8,7636.14 8061.68,7643.91 8056.83,7653.88 C 8051.98,7663.85 8056.64,7681.7 8056.64,7681.7 C 8056.64,7681.7 7980.6,7618.6 7980.6,7618.6 C 7980.6,7618.6 7980.6,7618.6 7980.6,7618.6 " />
<path stroke="transparent" fill="#000000" transform="matrix(0.05 0 0 0.05 -38 -362)" d="M 2529,9584.2 L 2006.2,9584.2 L 2006.2,9572.2 L 2529,9572.2 Z " />
<path stroke="transparent" fill="#000000" transform="matrix(0.05 0 0 0.05 -38 -362)" d="M 2633,9578.2 C 2633,9578.2 2513,9609.2 2513,9609.2 C 2513,9609.2 2528,9591.76 2528,9578.2 C 2528,9564.2 2513,9546.2 2513,9546.2 C 2513,9546.2 2633,9578.2 2633,9578.2 C 2633,9578.2 2633,9578.2 2633,9578.2 " />
<path stroke="#000000" stroke-width="1" fill="transparent" transform="matrix(0.05 0 0 0.05 -38 -362)" d="M 2633,9578.2 C 2633,9578.2 2513,9609.2 2513,9609.2 C 2513,9609.2 2528,9591.76 2528,9578.2 C 2528,9564.2 2513,9546.2 2513,9546.2 C 2513,9546.2 2633,9578.2 2633,9578.2 C 2633,9578.2 2633,9578.2 2633,9578.2 " />
<path stroke="transparent" fill="#000000" transform="matrix(0.05 0 0 0.05 -38 -362)" d="M 3049,9587.27 L 3049,9601.13 L 2802.6,9743.4 L 2796.6,9733 L 3049,9587.27 Z " />
<path stroke="transparent" fill="#000000" transform="matrix(0.05 0 0 0.05 -38 -362)" d="M 3298.4,9731.27 L 3298.4,9738.2 L 3290.2,9740.4 L 3049,9601.13 L 3049,9587.27 L 3298.4,9731.27 Z " />
<path stroke="transparent" fill="#000000" transform="matrix(0.05 0 0 0.05 -38 -362)" d="M 3541.8,9590.74 L 3547.8,9594.2 L 3546.81,9601.7 L 3304.9,9741.37 L 3298.4,9738.2 L 3298.4,9731.27 L 3541.8,9590.74 Z " />
<text x="0" y="0" stroke="transparent" fill="#000000" transform="matrix(0.05 0 0 0.05 153.514 120.716)" style="font:normal normal normal 200px 'Helvetica'" >
O</text>
<path stroke="transparent" fill="#000000" transform="matrix(0.05 0 0 0.05 -38 -362)" d="M 3797.13,9579.99 L 3797.52,9591.98 L 3561.82,9599.74 L 3547.8,9594.2 L 3553.8,9588 L 3797.13,9579.99 Z " />
<path stroke="transparent" fill="#000000" transform="matrix(0.05 0 0 0.05 -38 -362)" d="M 4134.72,9404.16 L 4136.88,9417.44 L 3990.17,9524.42 L 3983.1,9514.72 L 4134.72,9404.16 Z " />
<path stroke="transparent" fill="#000000" transform="matrix(0.05 0 0 0.05 -38 -362)" d="M 4412.01,9492.08 L 4408.39,9503.52 L 4136.88,9417.44 L 4134.72,9404.16 L 4412.01,9492.08 Z " />
<text x="0" y="0" stroke="transparent" fill="#000000" transform="matrix(0.05 0 0 0.05 110.954 106.906)" style="font:normal normal normal 200px 'Helvetica'" >
O</text>
<path stroke="transparent" fill="#000000" transform="matrix(0.05 0 0 0.05 -38 -362)" d="M 3017.1,9415.72 L 3029.1,9415.72 L 3029.1,9609.16 L 3017.1,9609.16 L 3017.1,9415.72 Z " />
<path stroke="transparent" fill="#000000" transform="matrix(0.05 0 0 0.05 -38 -362)" d="M 3068.9,9415.72 L 3080.9,9415.72 L 3080.9,9609.16 L 3068.9,9609.16 L 3068.9,9415.72 Z " />
<text x="0" y="0" stroke="transparent" fill="#000000" transform="matrix(0.05 0 0 0.05 135.894 106.906)" style="font:normal normal normal 200px 'Helvetica'" >
O</text>
<path stroke="transparent" fill="#000000" transform="matrix(0.05 0 0 0.05 -38 -362)" d="M 3541.8,9415.72 L 3553.8,9415.72 L 3553.8,9588 L 3547.8,9594.2 L 3541.8,9590.74 L 3541.8,9415.72 Z " />
<text x="0" y="0" stroke="transparent" fill="#000000" transform="matrix(0.05 0 0 0.05 116.873 140.966)" style="font:normal normal normal 200px 'Helvetica'" >
H</text>
<path stroke="transparent" fill="#000000" transform="matrix(0.05 0 0 0.05 -38 -362)" d="M 3221.22,9883.87 L 3210.83,9877.87 L 3290.2,9740.4 L 3298.4,9738.2 L 3294.87,9756.32 L 3221.22,9883.87 Z " />
<path stroke="transparent" fill="#000000" transform="matrix(0.05 0 0 0.05 -38 -362)" d="M 3373.53,9268.8 A 16.6667,16.6667 0 1 0 3406.87,9268.8A 16.6667,16.6667 0 1 0 3373.53,9268.8Z " />
<path stroke="transparent" fill="#000000" transform="matrix(0.05 0 0 0.05 -38 -362)" d="M 3373.53,9343.8 A 16.6667,16.6667 0 1 0 3406.87,9343.8A 16.6667,16.6667 0 1 0 3373.53,9343.8Z " />
<path stroke="transparent" fill="#000000" transform="matrix(0.05 0 0 0.05 -38 -362)" d="M 3568.53,9148.8 A 16.6667,16.6667 0 1 0 3601.87,9148.8A 16.6667,16.6667 0 1 0 3568.53,9148.8Z " />
<path stroke="transparent" fill="#000000" transform="matrix(0.05 0 0 0.05 -38 -362)" d="M 3493.53,9148.8 A 16.6667,16.6667 0 1 0 3526.87,9148.8A 16.6667,16.6667 0 1 0 3493.53,9148.8Z " />
<path stroke="transparent" fill="#000000" transform="matrix(0.05 0 0 0.05 -38 -362)" d="M 3568.53,9148.8 A 16.6667,16.6667 0 1 0 3601.87,9148.8A 16.6667,16.6667 0 1 0 3568.53,9148.8Z " />
<path stroke="transparent" fill="#000000" transform="matrix(0.05 0 0 0.05 -38 -362)" d="M 3493.53,9148.8 A 16.6667,16.6667 0 1 0 3526.87,9148.8A 16.6667,16.6667 0 1 0 3493.53,9148.8Z " />
<path stroke="transparent" fill="#000000" transform="matrix(0.05 0 0 0.05 -38 -362)" d="M 3688.13,9347.8 A 16.6726,16.6726 0 1 0 3721.47,9347.8A 16.6726,16.6726 0 1 0 3688.13,9347.8Z " />
<path stroke="transparent" fill="#000000" transform="matrix(0.05 0 0 0.05 -38 -362)" d="M 3690.13,9272.8 A 16.6726,16.6726 0 1 0 3723.47,9272.8A 16.6726,16.6726 0 1 0 3690.13,9272.8Z " />
<path stroke="#000000" stroke-width="10" fill="transparent" transform="matrix(0.05 0 0 0.05 -38 -362)" d="M 3656.73,9125.73 A 71.7999,71.7999 0 1 0 3800.33,9125.73A 71.7999,71.7999 0 1 0 3656.73,9125.73Z " />
<path stroke="transparent" fill="#000000" transform="matrix(0.05 0 0 0.05 -38 -362)" d="M 3688.87,9120.4 L 3767.53,9120.4 L 3767.53,9130.4 L 3688.87,9130.4 Z " />
<path stroke="#000000" stroke-width="12" fill="transparent" transform="matrix(0.05 0 0 0.05 -38 -362)" d="M 3338.94,9335.74 C 3293.98,9380.7 3293.98,9453.7 3338.94,9498.66 C 3361.35,9521.06 3393.24,9533.55 3424.9,9532.31 " />
<path stroke="transparent" fill="#000000" transform="matrix(0.05 0 0 0.05 -38 -362)" d="M 3501.86,9498.66 C 3501.86,9498.66 3424.52,9560.11 3424.52,9560.11 C 3424.52,9560.11 3429.54,9542.37 3424.9,9532.31 C 3420.25,9522.25 3403.29,9514.13 3403.29,9514.13 C 3403.29,9514.13 3501.86,9498.66 3501.86,9498.66 C 3501.86,9498.66 3501.86,9498.66 3501.86,9498.66 " />
<path stroke="#000000" stroke-width="1" fill="transparent" transform="matrix(0.05 0 0 0.05 -38 -362)" d="M 3501.86,9498.66 C 3501.86,9498.66 3424.52,9560.11 3424.52,9560.11 C 3424.52,9560.11 3429.54,9542.37 3424.9,9532.31 C 3420.25,9522.25 3403.29,9514.13 3403.29,9514.13 C 3403.29,9514.13 3501.86,9498.66 3501.86,9498.66 C 3501.86,9498.66 3501.86,9498.66 3501.86,9498.66 " />
<path stroke="#000000" stroke-width="12" fill="transparent" transform="matrix(0.05 0 0 0.05 -38 -362)" d="M 3862.3,9434.08 C 3814.69,9405.9 3753.24,9421.62 3725.14,9469.15 C 3712.4,9490.71 3708.19,9517.12 3713.6,9541.6 " />
<path stroke="transparent" fill="#000000" transform="matrix(0.05 0 0 0.05 -38 -362)" d="M 3909.2,9498.8 C 3909.2,9498.8 3836.11,9439.23 3836.11,9439.23 C 3836.11,9439.23 3854.19,9440.07 3862.3,9434.08 C 3870.42,9428.08 3875.09,9410.43 3875.09,9410.43 C 3875.09,9410.43 3909.2,9498.8 3909.2,9498.8 C 3909.2,9498.8 3909.2,9498.8 3909.2,9498.8 " />
<path stroke="#000000" stroke-width="1" fill="transparent" transform="matrix(0.05 0 0 0.05 -38 -362)" d="M 3909.2,9498.8 C 3909.2,9498.8 3836.11,9439.23 3836.11,9439.23 C 3836.11,9439.23 3854.19,9440.07 3862.3,9434.08 C 3870.42,9428.08 3875.09,9410.43 3875.09,9410.43 C 3875.09,9410.43 3909.2,9498.8 3909.2,9498.8 C 3909.2,9498.8 3909.2,9498.8 3909.2,9498.8 " />
<path stroke="transparent" fill="#000000" transform="matrix(0.05 0 0 0.05 -38 -362)" d="M 5155.6,9624.2 L 4579.6,9624.2 L 4579.6,9612.2 L 5155.6,9612.2 Z " />
<path stroke="transparent" fill="#000000" transform="matrix(0.05 0 0 0.05 -38 -362)" d="M 5259.6,9618.2 C 5259.6,9618.2 5139.6,9649.2 5139.6,9649.2 C 5139.6,9649.2 5154.6,9631.76 5154.6,9618.2 C 5154.6,9604.2 5139.6,9586.2 5139.6,9586.2 C 5139.6,9586.2 5259.6,9618.2 5259.6,9618.2 C 5259.6,9618.2 5259.6,9618.2 5259.6,9618.2 " />
<path stroke="#000000" stroke-width="1" fill="transparent" transform="matrix(0.05 0 0 0.05 -38 -362)" d="M 5259.6,9618.2 C 5259.6,9618.2 5139.6,9649.2 5139.6,9649.2 C 5139.6,9649.2 5154.6,9631.76 5154.6,9618.2 C 5154.6,9604.2 5139.6,9586.2 5139.6,9586.2 C 5139.6,9586.2 5259.6,9618.2 5259.6,9618.2 C 5259.6,9618.2 5259.6,9618.2 5259.6,9618.2 " />
<path stroke="transparent" fill="#000000" transform="matrix(0.05 0 0 0.05 -38 -362)" d="M 5622.4,9627.27 L 5622.4,9641.13 L 5376,9783.4 L 5370,9773 L 5622.4,9627.27 Z " />
<path stroke="transparent" fill="#000000" transform="matrix(0.05 0 0 0.05 -38 -362)" d="M 5871.8,9771.27 L 5871.8,9778.2 L 5866.49,9782.06 L 5622.4,9641.13 L 5622.4,9627.27 L 5871.8,9771.27 Z " />
<path stroke="transparent" fill="#000000" transform="matrix(0.05 0 0 0.05 -38 -362)" d="M 6121.77,9626.82 L 6120.22,9641.58 L 5878.57,9781.22 L 5871.8,9778.2 L 5871.8,9771.27 L 6121.77,9626.82 Z " />
<text x="0" y="0" stroke="transparent" fill="#000000" transform="matrix(0.05 0 0 0.05 239.624 108.906)" style="font:normal normal normal 200px 'Helvetica'" >
O</text>
<path stroke="transparent" fill="#000000" transform="matrix(0.05 0 0 0.05 -38 -362)" d="M 5590.5,9455.72 L 5602.5,9455.72 L 5602.5,9649.16 L 5590.5,9649.16 L 5590.5,9455.72 Z " />
<path stroke="transparent" fill="#000000" transform="matrix(0.05 0 0 0.05 -38 -362)" d="M 5642.3,9455.72 L 5654.3,9455.72 L 5654.3,9649.16 L 5642.3,9649.16 L 5642.3,9455.72 Z " />
<text x="0" y="0" stroke="transparent" fill="#000000" transform="matrix(0.05 0 0 0.05 264.554 108.906)" style="font:normal normal normal 200px 'Helvetica'" >
O</text>
<path stroke="transparent" fill="#000000" transform="matrix(0.05 0 0 0.05 -38 -362)" d="M 6089.1,9455.72 L 6101.1,9455.72 L 6101.1,9649.17 L 6089.1,9649.17 L 6089.1,9455.72 Z " />
<path stroke="transparent" fill="#000000" transform="matrix(0.05 0 0 0.05 -38 -362)" d="M 6140.9,9455.72 L 6152.9,9455.72 L 6152.9,9657.54 L 6140.9,9657.54 L 6140.9,9455.72 Z " />
<path stroke="transparent" fill="#000000" transform="matrix(0.05 0 0 0.05 -38 -362)" d="M 5946.73,9308.8 A 16.6667,16.6667 0 1 0 5980.07,9308.8A 16.6667,16.6667 0 1 0 5946.73,9308.8Z " />
<path stroke="transparent" fill="#000000" transform="matrix(0.05 0 0 0.05 -38 -362)" d="M 5946.73,9383.8 A 16.6667,16.6667 0 1 0 5980.07,9383.8A 16.6667,16.6667 0 1 0 5946.73,9383.8Z " />
<path stroke="transparent" fill="#000000" transform="matrix(0.05 0 0 0.05 -38 -362)" d="M 6141.93,9188.8 A 16.6667,16.6667 0 1 0 6175.27,9188.8A 16.6667,16.6667 0 1 0 6141.93,9188.8Z " />
<path stroke="transparent" fill="#000000" transform="matrix(0.05 0 0 0.05 -38 -362)" d="M 6066.93,9188.8 A 16.6667,16.6667 0 1 0 6100.27,9188.8A 16.6667,16.6667 0 1 0 6066.93,9188.8Z " />
<text x="0" y="0" stroke="transparent" fill="#000000" transform="matrix(0.05 0 0 0.05 275.254 132.936)" style="font:normal normal normal 200px 'Helvetica'" >
O</text>
<path stroke="transparent" fill="#000000" transform="matrix(0.05 0 0 0.05 -38 -362)" d="M 5936.56,10054.5 L 5926.64,10065.5 L 5866.49,9782.06 L 5871.8,9778.2 L 5878.57,9781.22 L 5936.56,10054.5 Z " />
<path stroke="transparent" fill="#000000" transform="matrix(0.05 0 0 0.05 -38 -362)" d="M 6214.29,10083.6 L 6218,10090 L 6214.33,10095.6 L 5926.64,10065.5 L 5936.56,10054.5 L 6214.29,10083.6 Z " />
<path stroke="transparent" fill="#000000" transform="matrix(0.05 0 0 0.05 -38 -362)" d="M 6284.54,9925.67 L 6295.5,9930.55 L 6224.72,10089.6 L 6218,10090 L 6214.29,10083.6 L 6284.54,9925.67 Z " />
<path stroke="transparent" fill="#000000" transform="matrix(0.05 0 0 0.05 -38 -362)" d="M 6120.22,9641.58 L 6121.77,9626.82 L 6259.25,9750.68 L 6251.22,9759.6 L 6120.22,9641.58 Z " />
<path stroke="transparent" fill="#000000" transform="matrix(0.05 0 0 0.05 -38 -362)" d="M 6367.2,10336.4 L 6356.8,10342.4 L 6214.33,10095.6 L 6218,10090 L 6224.72,10089.6 L 6367.2,10336.4 Z " />
<text x="0" y="0" stroke="transparent" fill="#000000" transform="matrix(0.05 0 0 0.05 296.98 121.58)" style="font:normal normal normal 200px 'Helvetica'" >
+</text>
<text x="0" y="0" stroke="transparent" fill="#000000" transform="matrix(0.05 0 0 0.05 315.704 122.916)" style="font:normal normal normal 200px 'Helvetica'" >
OEt</text>
<path stroke="transparent" fill="#000000" transform="matrix(0.05 0 0 0.05 -38 -362)" d="M 6969.73,9587 A 16.6667,16.6667 0 1 0 7003.07,9587A 16.6667,16.6667 0 1 0 6969.73,9587Z " />
<path stroke="transparent" fill="#000000" transform="matrix(0.05 0 0 0.05 -38 -362)" d="M 6969.73,9662 A 16.6667,16.6667 0 1 0 7003.07,9662A 16.6667,16.6667 0 1 0 6969.73,9662Z " />
<path stroke="transparent" fill="#000000" transform="matrix(0.05 0 0 0.05 -38 -362)" d="M 7164.93,9467 A 16.6667,16.6667 0 1 0 7198.27,9467A 16.6667,16.6667 0 1 0 7164.93,9467Z " />
<path stroke="transparent" fill="#000000" transform="matrix(0.05 0 0 0.05 -38 -362)" d="M 7089.93,9467 A 16.6667,16.6667 0 1 0 7123.27,9467A 16.6667,16.6667 0 1 0 7089.93,9467Z " />
<path stroke="transparent" fill="#000000" transform="matrix(0.05 0 0 0.05 -38 -362)" d="M 7089.93,9782.2 A 16.6667,16.6667 0 1 0 7123.27,9782.2A 16.6667,16.6667 0 1 0 7089.93,9782.2Z " />
<path stroke="transparent" fill="#000000" transform="matrix(0.05 0 0 0.05 -38 -362)" d="M 7164.93,9782.2 A 16.6667,16.6667 0 1 0 7198.27,9782.2A 16.6667,16.6667 0 1 0 7164.93,9782.2Z " />
<path stroke="#000000" stroke-width="10" fill="transparent" transform="matrix(0.05 0 0 0.05 -38 -362)" d="M 6841.53,9445.33 A 71.7999,71.7999 0 1 0 6985.13,9445.33A 71.7999,71.7999 0 1 0 6841.53,9445.33Z " />
<path stroke="transparent" fill="#000000" transform="matrix(0.05 0 0 0.05 -38 -362)" d="M 6873.67,9440 L 6952.33,9440 L 6952.33,9450 L 6873.67,9450 Z " />
<text x="0" y="0" stroke="transparent" fill="#000000" transform="matrix(0.05 0 0 0.05 146.074 131.486)" style="font:normal normal normal 200px 'Helvetica'" >
O</text>
<path stroke="transparent" fill="#000000" transform="matrix(0.05 0 0 0.05 -38 -362)" d="M 3679.72,9717.76 L 3671.23,9726.25 L 3546.81,9601.7 L 3547.8,9594.2 L 3561.82,9599.74 L 3679.72,9717.76 Z " />
<path stroke="transparent" fill="#000000" transform="matrix(0.05 0 0 0.05 -38 -362)" d="M 3341.53,10004.2 L 3330.87,10014.6 L 3294.87,9756.32 L 3298.4,9738.2 L 3304.9,9741.37 L 3341.53,10004.2 Z " />
<path stroke="transparent" fill="#000000" transform="matrix(0.05 0 0 0.05 -38 -362)" d="M 3617.23,10047.8 L 3620.6,10054.4 L 3616.84,10059.9 L 3330.87,10014.6 L 3341.53,10004.2 L 3617.23,10047.8 Z " />
<path stroke="transparent" fill="#000000" transform="matrix(0.05 0 0 0.05 -38 -362)" d="M 3695.79,9893.75 L 3706.48,9899.2 L 3627.43,10054.2 L 3620.6,10054.4 L 3617.23,10047.8 L 3695.79,9893.75 Z " />
<path stroke="transparent" fill="#000000" transform="matrix(0.05 0 0 0.05 -38 -362)" d="M 3769.8,10300.8 L 3759.4,10306.8 L 3616.84,10059.9 L 3620.6,10054.4 L 3627.43,10054.2 L 3769.8,10300.8 Z " />
<path stroke="transparent" fill="#000000" transform="matrix(0.05 0 0 0.05 -38 -362)" d="M 1069.8,7645.07 L 1069.8,7658.93 L 823.4,7801.2 L 817.4,7790.8 L 1069.8,7645.07 Z " />
<path stroke="transparent" fill="#000000" transform="matrix(0.05 0 0 0.05 -38 -362)" d="M 1319.2,7789.07 L 1319.2,7796 L 1311,7798.2 L 1069.8,7658.93 L 1069.8,7645.07 L 1319.2,7789.07 Z " />
<path stroke="transparent" fill="#000000" transform="matrix(0.05 0 0 0.05 -38 -362)" d="M 1568.6,7645.07 L 1568.6,7658.93 L 1327.4,7798.2 L 1319.2,7796 L 1319.2,7789.07 L 1568.6,7645.07 Z " />
<text x="0" y="0" stroke="transparent" fill="#000000" transform="matrix(0.05 0 0 0.05 49.4039 31.3864)" style="font:normal normal normal 200px 'Helvetica'" >
O</text>
<path stroke="transparent" fill="#000000" transform="matrix(0.05 0 0 0.05 -38 -362)" d="M 1729.28,7737.85 L 1723.28,7748.24 L 1568.6,7658.93 L 1568.6,7645.07 L 1729.28,7737.85 Z " />
<path stroke="transparent" fill="#000000" transform="matrix(0.05 0 0 0.05 -38 -362)" d="M 2067.4,7645.07 L 2067.4,7658.93 L 1912.88,7748.15 L 1906.88,7737.75 L 2067.4,7645.07 Z " />
<path stroke="transparent" fill="#000000" transform="matrix(0.05 0 0 0.05 -38 -362)" d="M 2319.8,7790.8 L 2313.8,7801.2 L 2067.4,7658.93 L 2067.4,7645.07 L 2319.8,7790.8 Z " />
<text x="0" y="0" stroke="transparent" fill="#000000" transform="matrix(0.05 0 0 0.05 11.9939 9.78642)" style="font:normal normal normal 200px 'Helvetica'" >
O</text>
<path stroke="transparent" fill="#000000" transform="matrix(0.05 0 0 0.05 -38 -362)" d="M 1037.88,7473.32 L 1049.88,7473.32 L 1049.88,7666.97 L 1037.88,7666.97 L 1037.88,7473.32 Z " />
<path stroke="transparent" fill="#000000" transform="matrix(0.05 0 0 0.05 -38 -362)" d="M 1089.72,7473.32 L 1101.72,7473.32 L 1101.72,7666.97 L 1089.72,7666.97 L 1089.72,7473.32 Z " />
<text x="0" y="0" stroke="transparent" fill="#000000" transform="matrix(0.05 0 0 0.05 36.9339 9.78642)" style="font:normal normal normal 200px 'Helvetica'" >
O</text>
<path stroke="transparent" fill="#000000" transform="matrix(0.05 0 0 0.05 -38 -362)" d="M 1536.68,7473.32 L 1548.68,7473.32 L 1548.68,7666.97 L 1536.68,7666.97 L 1536.68,7473.32 Z " />
<path stroke="transparent" fill="#000000" transform="matrix(0.05 0 0 0.05 -38 -362)" d="M 1588.52,7473.32 L 1600.52,7473.32 L 1600.52,7666.97 L 1588.52,7666.97 L 1588.52,7473.32 Z " />
<path stroke="transparent" fill="#000000" transform="matrix(0.05 0 0 0.05 -38 -362)" d="M 3116.4,7722 L 2500.4,7722 L 2500.4,7710 L 3116.4,7710 Z " />
<path stroke="transparent" fill="#000000" transform="matrix(0.05 0 0 0.05 -38 -362)" d="M 3220.4,7716 C 3220.4,7716 3100.4,7747 3100.4,7747 C 3100.4,7747 3115.4,7729.56 3115.4,7716 C 3115.4,7702 3100.4,7684 3100.4,7684 C 3100.4,7684 3220.4,7716 3220.4,7716 C 3220.4,7716 3220.4,7716 3220.4,7716 " />
<path stroke="#000000" stroke-width="1" fill="transparent" transform="matrix(0.05 0 0 0.05 -38 -362)" d="M 3220.4,7716 C 3220.4,7716 3100.4,7747 3100.4,7747 C 3100.4,7747 3115.4,7729.56 3115.4,7716 C 3115.4,7702 3100.4,7684 3100.4,7684 C 3100.4,7684 3220.4,7716 3220.4,7716 C 3220.4,7716 3220.4,7716 3220.4,7716 " />
<text x="0" y="0" stroke="transparent" fill="#000000" transform="matrix(0.05 0 0 0.05 74.7439 54.4664)" style="font:normal normal normal 200px 'Helvetica'" >
OEt</text>
<path stroke="transparent" fill="#000000" transform="matrix(0.05 0 0 0.05 -38 -362)" d="M 2150.53,8218.2 A 16.6667,16.6667 0 1 0 2183.87,8218.2A 16.6667,16.6667 0 1 0 2150.53,8218.2Z " />
<path stroke="transparent" fill="#000000" transform="matrix(0.05 0 0 0.05 -38 -362)" d="M 2150.53,8293.2 A 16.6667,16.6667 0 1 0 2183.87,8293.2A 16.6667,16.6667 0 1 0 2150.53,8293.2Z " />
<path stroke="transparent" fill="#000000" transform="matrix(0.05 0 0 0.05 -38 -362)" d="M 2345.73,8098 A 16.6667,16.6667 0 1 0 2379.07,8098A 16.6667,16.6667 0 1 0 2345.73,8098Z " />
<path stroke="transparent" fill="#000000" transform="matrix(0.05 0 0 0.05 -38 -362)" d="M 2270.73,8098 A 16.6667,16.6667 0 1 0 2304.07,8098A 16.6667,16.6667 0 1 0 2270.73,8098Z " />
<path stroke="transparent" fill="#000000" transform="matrix(0.05 0 0 0.05 -38 -362)" d="M 2270.73,8413.2 A 16.6667,16.6667 0 1 0 2304.07,8413.2A 16.6667,16.6667 0 1 0 2270.73,8413.2Z " />
<path stroke="transparent" fill="#000000" transform="matrix(0.05 0 0 0.05 -38 -362)" d="M 2345.73,8413.2 A 16.6667,16.6667 0 1 0 2379.07,8413.2A 16.6667,16.6667 0 1 0 2345.73,8413.2Z " />
<path stroke="#000000" stroke-width="10" fill="transparent" transform="matrix(0.05 0 0 0.05 -38 -362)" d="M 2022.33,8076.33 A 71.7999,71.7999 0 1 0 2165.93,8076.33A 71.7999,71.7999 0 1 0 2022.33,8076.33Z " />
<path stroke="transparent" fill="#000000" transform="matrix(0.05 0 0 0.05 -38 -362)" d="M 2054.47,8071 L 2133.13,8071 L 2133.13,8081 L 2054.47,8081 Z " />
<text x="0" y="0" stroke="transparent" fill="#000000" transform="matrix(0.05 0 0 0.05 17.9133 43.8564)" style="font:normal normal normal 200px 'Helvetica'" >
H</text>
<path stroke="transparent" fill="#000000" transform="matrix(0.05 0 0 0.05 -38 -362)" d="M 1242.02,7941.67 L 1231.63,7935.67 L 1311,7798.2 L 1319.2,7796 L 1319.2,7808 L 1242.02,7941.67 Z " />
<text x="0" y="0" stroke="transparent" fill="#000000" transform="matrix(0.05 0 0 0.05 32.3133 43.8564)" style="font:normal normal normal 200px 'Helvetica'" >
H</text>
<path stroke="transparent" fill="#000000" transform="matrix(0.05 0 0 0.05 -38 -362)" d="M 1406.53,7935.25 L 1396.13,7941.25 L 1319.2,7808 L 1319.2,7796 L 1327.4,7798.2 L 1406.53,7935.25 Z " />
<path stroke="#000000" stroke-width="12" fill="transparent" transform="matrix(0.05 0 0 0.05 -38 -362)" d="M 1587.1,8172.55 C 1671.63,8313.14 1854.36,8358.64 1994.95,8274.1 C 2015.7,8261.63 2034.91,8246.61 2052.02,8229.48 " />
<path stroke="transparent" fill="#000000" transform="matrix(0.05 0 0 0.05 -38 -362)" d="M 1554.75,8096.41 C 1554.75,8096.41 1614.47,8173.19 1614.47,8173.19 C 1614.47,8173.19 1596.9,8168.14 1587.1,8172.55 C 1577.3,8176.96 1568.97,8193.67 1568.97,8193.67 C 1568.97,8193.67 1554.75,8096.41 1554.75,8096.41 C 1554.75,8096.41 1554.75,8096.41 1554.75,8096.41 " />
<path stroke="#000000" stroke-width="1" fill="transparent" transform="matrix(0.05 0 0 0.05 -38 -362)" d="M 1554.75,8096.41 C 1554.75,8096.41 1614.47,8173.19 1614.47,8173.19 C 1614.47,8173.19 1596.9,8168.14 1587.1,8172.55 C 1577.3,8176.96 1568.97,8193.67 1568.97,8193.67 C 1568.97,8193.67 1554.75,8096.41 1554.75,8096.41 C 1554.75,8096.41 1554.75,8096.41 1554.75,8096.41 " />
<path stroke="#000000" stroke-width="12" fill="transparent" transform="matrix(0.05 0 0 0.05 -38 -362)" d="M 1436.4,7873.2 C 1472.17,7873.2 1501.2,7844.17 1501.2,7808.4 C 1501.2,7797.09 1498.17,7785.8 1492.52,7776 " />
<path stroke="transparent" fill="#000000" transform="matrix(0.05 0 0 0.05 -38 -362)" d="M 1436.4,7743.6 C 1436.4,7743.6 1510.79,7763.59 1510.79,7763.59 C 1510.79,7763.59 1495.98,7770.25 1492.52,7776 C 1489.06,7781.75 1490.28,7797.66 1490.28,7797.66 C 1490.28,7797.66 1436.4,7743.6 1436.4,7743.6 C 1436.4,7743.6 1436.4,7743.6 1436.4,7743.6 " />
<path stroke="#000000" stroke-width="1" fill="transparent" transform="matrix(0.05 0 0 0.05 -38 -362)" d="M 1436.4,7743.6 C 1436.4,7743.6 1510.79,7763.59 1510.79,7763.59 C 1510.79,7763.59 1495.98,7770.25 1492.52,7776 C 1489.06,7781.75 1490.28,7797.66 1490.28,7797.66 C 1490.28,7797.66 1436.4,7743.6 1436.4,7743.6 C 1436.4,7743.6 1436.4,7743.6 1436.4,7743.6 " />
<path stroke="#000000" stroke-width="12" fill="transparent" transform="matrix(0.05 0 0 0.05 -38 -362)" d="M 1351.88,7436.61 C 1338.17,7490.88 1371.18,7546.04 1425.56,7559.72 C 1450.8,7566.07 1478.4,7562.27 1500.97,7549.35 " />
<path stroke="transparent" fill="#000000" transform="matrix(0.05 0 0 0.05 -38 -362)" d="M 1399.83,7373.45 C 1399.83,7373.45 1364.08,7460.33 1364.08,7460.33 C 1364.08,7460.33 1359.75,7442.68 1351.88,7436.61 C 1344.02,7430.54 1325.99,7430.94 1325.99,7430.94 C 1325.99,7430.94 1399.83,7373.45 1399.83,7373.45 C 1399.83,7373.45 1399.83,7373.45 1399.83,7373.45 " />
<path stroke="#000000" stroke-width="1" fill="transparent" transform="matrix(0.05 0 0 0.05 -38 -362)" d="M 1399.83,7373.45 C 1399.83,7373.45 1364.08,7460.33 1364.08,7460.33 C 1364.08,7460.33 1359.75,7442.68 1351.88,7436.61 C 1344.02,7430.54 1325.99,7430.94 1325.99,7430.94 C 1325.99,7430.94 1399.83,7373.45 1399.83,7373.45 C 1399.83,7373.45 1399.83,7373.45 1399.83,7373.45 " />
<path stroke="transparent" fill="#000000" transform="matrix(0.05 0 0 0.05 -38 -362)" d="M 3628.4,7845.07 L 3628.4,7858.93 L 3382,8001.2 L 3376,7990.8 L 3628.4,7845.07 Z " />
<path stroke="transparent" fill="#000000" transform="matrix(0.05 0 0 0.05 -38 -362)" d="M 3877.8,7989.07 L 3877.8,7996 L 3869.6,7998.2 L 3628.4,7858.93 L 3628.4,7845.07 L 3877.8,7989.07 Z " />
<path stroke="transparent" fill="#000000" transform="matrix(0.05 0 0 0.05 -38 -362)" d="M 4121,7848.54 L 4127,7852 L 4127,7858.93 L 3882.19,8000.39 L 3877.8,7996 L 3877.8,7989.07 L 4121,7848.54 Z " />
<path stroke="transparent" fill="#000000" transform="matrix(0.05 0 0 0.05 -38 -362)" d="M 4072.19,7816.91 L 4078.2,7827.3 L 3880.79,7941.37 L 3874.79,7930.98 L 4072.19,7816.91 Z " />
<text x="0" y="0" stroke="transparent" fill="#000000" transform="matrix(0.05 0 0 0.05 177.324 41.3864)" style="font:normal normal normal 200px 'Helvetica'" >
O</text>
<path stroke="transparent" fill="#000000" transform="matrix(0.05 0 0 0.05 -38 -362)" d="M 4287.68,7937.85 L 4281.68,7948.24 L 4127,7858.93 L 4127,7852 L 4133,7848.54 L 4287.68,7937.85 Z " />
<path stroke="transparent" fill="#000000" transform="matrix(0.05 0 0 0.05 -38 -362)" d="M 4625.8,7845.07 L 4625.8,7858.93 L 4471.28,7948.15 L 4465.28,7937.75 L 4625.8,7845.07 Z " />
<path stroke="transparent" fill="#000000" transform="matrix(0.05 0 0 0.05 -38 -362)" d="M 4878.2,7990.8 L 4872.2,8001.2 L 4625.8,7858.93 L 4625.8,7845.07 L 4878.2,7990.8 Z " />
<text x="0" y="0" stroke="transparent" fill="#000000" transform="matrix(0.05 0 0 0.05 139.924 19.7864)" style="font:normal normal normal 200px 'Helvetica'" >
O</text>
<path stroke="transparent" fill="#000000" transform="matrix(0.05 0 0 0.05 -38 -362)" d="M 3596.48,7673.32 L 3608.48,7673.32 L 3608.48,7866.97 L 3596.48,7866.97 L 3596.48,7673.32 Z " />
<path stroke="transparent" fill="#000000" transform="matrix(0.05 0 0 0.05 -38 -362)" d="M 3648.32,7673.32 L 3660.32,7673.32 L 3660.32,7866.97 L 3648.32,7866.97 L 3648.32,7673.32 Z " />
<text x="0" y="0" stroke="transparent" fill="#000000" transform="matrix(0.05 0 0 0.05 164.854 19.7864)" style="font:normal normal normal 200px 'Helvetica'" >
O</text>
<path stroke="transparent" fill="#000000" transform="matrix(0.05 0 0 0.05 -38 -362)" d="M 4121,7673.32 L 4133,7673.32 L 4133,7848.54 L 4127,7852 L 4121,7848.54 L 4121,7673.32 Z " />
<text x="0" y="0" stroke="transparent" fill="#000000" transform="matrix(0.05 0 0 0.05 145.843 53.8564)" style="font:normal normal normal 200px 'Helvetica'" >
H</text>
<path stroke="transparent" fill="#000000" transform="matrix(0.05 0 0 0.05 -38 -362)" d="M 3800.62,8141.67 L 3790.23,8135.67 L 3869.6,7998.2 L 3877.8,7996 L 3882.19,8000.39 L 3800.62,8141.67 Z " />
<path stroke="transparent" fill="#000000" transform="matrix(0.05 0 0 0.05 -38 -362)" d="M 3952.73,7526.6 A 16.6667,16.6667 0 1 0 3986.07,7526.6A 16.6667,16.6667 0 1 0 3952.73,7526.6Z " />
<path stroke="transparent" fill="#000000" transform="matrix(0.05 0 0 0.05 -38 -362)" d="M 3952.73,7601.6 A 16.6667,16.6667 0 1 0 3986.07,7601.6A 16.6667,16.6667 0 1 0 3952.73,7601.6Z " />
<path stroke="transparent" fill="#000000" transform="matrix(0.05 0 0 0.05 -38 -362)" d="M 4147.93,7406.4 A 16.6667,16.6667 0 1 0 4181.27,7406.4A 16.6667,16.6667 0 1 0 4147.93,7406.4Z " />
<path stroke="transparent" fill="#000000" transform="matrix(0.05 0 0 0.05 -38 -362)" d="M 4072.93,7406.4 A 16.6667,16.6667 0 1 0 4106.27,7406.4A 16.6667,16.6667 0 1 0 4072.93,7406.4Z " />
<path stroke="transparent" fill="#000000" transform="matrix(0.05 0 0 0.05 -38 -362)" d="M 4147.93,7406.4 A 16.6667,16.6667 0 1 0 4181.27,7406.4A 16.6667,16.6667 0 1 0 4147.93,7406.4Z " />
<path stroke="transparent" fill="#000000" transform="matrix(0.05 0 0 0.05 -38 -362)" d="M 4072.93,7406.4 A 16.6667,16.6667 0 1 0 4106.27,7406.4A 16.6667,16.6667 0 1 0 4072.93,7406.4Z " />
<path stroke="transparent" fill="#000000" transform="matrix(0.05 0 0 0.05 -38 -362)" d="M 4265.53,7618 A 16.6681,16.6681 0 1 0 4298.87,7618A 16.6681,16.6681 0 1 0 4265.53,7618Z " />
<path stroke="transparent" fill="#000000" transform="matrix(0.05 0 0 0.05 -38 -362)" d="M 4273.33,7543.4 A 16.6681,16.6681 0 1 0 4306.67,7543.4A 16.6681,16.6681 0 1 0 4273.33,7543.4Z " />
<path stroke="#000000" stroke-width="10" fill="transparent" transform="matrix(0.05 0 0 0.05 -38 -362)" d="M 4231.53,7405.13 A 71.7999,71.7999 0 1 0 4375.13,7405.13A 71.7999,71.7999 0 1 0 4231.53,7405.13Z " />
<path stroke="transparent" fill="#000000" transform="matrix(0.05 0 0 0.05 -38 -362)" d="M 4263.67,7399.8 L 4342.33,7399.8 L 4342.33,7409.8 L 4263.67,7409.8 Z " />
<text x="0" y="0" stroke="transparent" fill="#000000" transform="matrix(0.05 0 0 0.05 239.274 28.6864)" style="font:normal normal normal 200px 'Helvetica'" >
O</text>
<path stroke="transparent" fill="#000000" transform="matrix(0.05 0 0 0.05 -38 -362)" d="M 5663.49,7840 L 5673.96,7834.13 L 5761.43,7990.06 L 5756.2,7993 L 5745.89,7986.88 L 5663.49,7840 Z " />
<path stroke="transparent" fill="#000000" transform="matrix(0.05 0 0 0.05 -38 -362)" d="M 5478.87,7983.72 L 5457.93,7995.48 L 5553.76,7834.07 L 5564.08,7840.2 L 5478.87,7983.72 Z " />
<path stroke="transparent" fill="#000000" transform="matrix(0.05 0 0 0.05 -38 -362)" d="M 5745.89,7986.88 L 5756.2,7993 L 5752.71,7998.96 L 5457.93,7995.48 L 5478.87,7983.72 L 5745.89,7986.88 Z " />
<path stroke="transparent" fill="#000000" transform="matrix(0.05 0 0 0.05 -38 -362)" d="M 5905.4,8239.4 L 5895,8245.4 L 5752.71,7998.96 L 5756.2,7993 L 5761.4,7990 L 5905.4,8239.4 Z " />
<text x="0" y="0" stroke="transparent" fill="#000000" transform="matrix(0.05 0 0 0.05 216.61 37.13)" style="font:normal normal normal 200px 'Helvetica'" >
+</text>
<path stroke="#000000" stroke-width="12" fill="transparent" transform="matrix(0.05 0 0 0.05 -38 -362)" d="M 4052.13,8035.98 C 4275.72,8423.18 4771.58,8556.03 5158.88,8332.49 C 5257.08,8275.81 5343.15,8198.26 5409.72,8106.48 " />
<path stroke="transparent" fill="#000000" transform="matrix(0.05 0 0 0.05 -38 -362)" d="M 5455.44,8036.02 C 5455.44,8036.02 5424.32,8130.61 5424.32,8130.61 C 5424.32,8130.61 5418.96,8112.63 5409.72,8106.48 C 5400.48,8100.33 5382.06,8102.48 5382.06,8102.48 C 5382.06,8102.48 5455.44,8036.02 5455.44,8036.02 C 5455.44,8036.02 5455.44,8036.02 5455.44,8036.02 " />
<path stroke="#000000" stroke-width="1" fill="transparent" transform="matrix(0.05 0 0 0.05 -38 -362)" d="M 5455.44,8036.02 C 5455.44,8036.02 5424.32,8130.61 5424.32,8130.61 C 5424.32,8130.61 5418.96,8112.63 5409.72,8106.48 C 5400.48,8100.33 5382.06,8102.48 5382.06,8102.48 C 5382.06,8102.48 5455.44,8036.02 5455.44,8036.02 C 5455.44,8036.02 5455.44,8036.02 5455.44,8036.02 " />
<path stroke="#000000" stroke-width="12" fill="transparent" transform="matrix(0.05 0 0 0.05 -38 -362)" d="M 5452.84,7671.38 C 5386.59,7696.9 5353.49,7771.47 5378.97,7837.83 C 5393.49,7875.65 5426.71,7905.57 5465.79,7916.03 " />
<path stroke="transparent" fill="#000000" transform="matrix(0.05 0 0 0.05 -38 -362)" d="M 5532.21,7667.17 C 5532.21,7667.17 5443.71,7695.66 5443.71,7695.66 C 5443.71,7695.66 5453.75,7681.18 5452.84,7671.38 C 5451.93,7661.58 5439.3,7648.31 5439.3,7648.31 C 5439.3,7648.31 5532.21,7667.17 5532.21,7667.17 C 5532.21,7667.17 5532.21,7667.17 5532.21,7667.17 " />
<path stroke="#000000" stroke-width="1" fill="transparent" transform="matrix(0.05 0 0 0.05 -38 -362)" d="M 5532.21,7667.17 C 5532.21,7667.17 5443.71,7695.66 5443.71,7695.66 C 5443.71,7695.66 5453.75,7681.18 5452.84,7671.38 C 5451.93,7661.58 5439.3,7648.31 5439.3,7648.31 C 5439.3,7648.31 5532.21,7667.17 5532.21,7667.17 C 5532.21,7667.17 5532.21,7667.17 5532.21,7667.17 " />
<path stroke="#000000" stroke-width="12" fill="transparent" transform="matrix(0.05 0 0 0.05 -38 -362)" d="M 4264.38,7769.33 C 4324.73,7771.44 4375.43,7724.17 4377.53,7663.82 C 4378.58,7633.9 4366.73,7603.81 4345.56,7582.64 " />
<path stroke="transparent" fill="#000000" transform="matrix(0.05 0 0 0.05 -38 -362)" d="M 4190.84,7737.36 C 4190.84,7737.36 4285.02,7751.89 4285.02,7751.89 C 4285.02,7751.89 4268.62,7760.14 4264.38,7769.33 C 4260.15,7778.53 4264.75,7795.91 4264.75,7795.91 C 4264.75,7795.91 4190.84,7737.36 4190.84,7737.36 C 4190.84,7737.36 4190.84,7737.36 4190.84,7737.36 " />
<path stroke="#000000" stroke-width="1" fill="transparent" transform="matrix(0.05 0 0 0.05 -38 -362)" d="M 4190.84,7737.36 C 4190.84,7737.36 4285.02,7751.89 4285.02,7751.89 C 4285.02,7751.89 4268.62,7760.14 4264.38,7769.33 C 4260.15,7778.53 4264.75,7795.91 4264.75,7795.91 C 4264.75,7795.91 4190.84,7737.36 4190.84,7737.36 C 4190.84,7737.36 4190.84,7737.36 4190.84,7737.36 " />
</svg>
