<?xml version="1.0" standalone="no" ?>
<!DOCTYPE svg PUBLIC "-//W3C//DTD SVG 1.1//EN" "http://www.w3.org/Graphics/SVG/1.1/DTD/svg11.dtd">
<svg width="263px" height="131px" viewBox="0 0 263 131" style="background-color: #ffffff00" xmlns="http://www.w3.org/2000/svg" xmlns:xlink="http://www.w3.org/1999/xlink" version="1.1" >
<text x="0" y="0" stroke="transparent" fill="#000000" transform="matrix(0.05 0 0 0.05 40.0186 113.676)" style="font:normal normal normal 200px 'Helvetica'" >
Et</text>
<path stroke="transparent" fill="#000000" transform="matrix(0.05 0 0 0.05 -46 -268)" d="M 1779.4,7457.07 L 1767.4,7457.07 L 1767.4,7123.51 L 1773.4,7120 L 1779.4,7120 L 1779.4,7457.07 Z " />
<path stroke="transparent" fill="#000000" transform="matrix(0.05 0 0 0.05 -46 -268)" d="M 1470.63,6956.31 L 1470.6,6949.4 L 1476.6,6945.89 L 1773.36,7113.09 L 1773.4,7120 L 1767.4,7123.51 L 1470.63,6956.31 Z " />
<text x="0" y="0" stroke="transparent" fill="#0000ff" transform="matrix(0.05 0 0 0.05 59.7233 80.0964)" style="font:normal normal normal 200px 'Helvetica'" >
H</text>
<path stroke="transparent" fill="#000000" transform="matrix(0.05 0 0 0.05 -46 -268)" d="M 2067.46,6943.29 L 2073.46,6953.68 L 1776.4,7125.2 L 1773.4,7120 L 1773.36,7113.09 L 2067.46,6943.29 Z " />
<path stroke="transparent" fill="#ffffff" transform="matrix(0.05 0 0 0.05 -46 -268)" d="M 1600.8,7120 A 172.6,172.6 0 1 0 1946,7120A 172.6,172.6 0 1 0 1600.8,7120Z " />
<path stroke="#000000" stroke-width="12" fill="transparent" transform="matrix(0.05 0 0 0.05 -46 -268)" d="M 1600.8,7120 A 172.6,172.6 0 1 0 1946,7120A 172.6,172.6 0 1 0 1600.8,7120Z " />
<text x="0" y="0" stroke="transparent" fill="#000000" transform="matrix(0.05 0 0 0.05 39.2325 70.2564)" style="font:normal normal normal 200px 'Helvetica'" >
Me</text>
<path stroke="transparent" fill="#000000" transform="matrix(0.05 0 0 0.05 -46 -268)" d="M 1767.4,6796.67 L 1779.4,6796.67 L 1779.4,7120 L 1773.4,7120 L 1767.4,7116.53 L 1767.4,6796.67 Z " />
<text x="0" y="0" stroke="transparent" fill="#000000" transform="matrix(0.05 0 0 0.05 54.7933 100.236)" style="font:normal normal normal 200px 'Helvetica'" >
H</text>
<path stroke="transparent" fill="#000000" transform="matrix(0.05 0 0 0.05 -46 -268)" d="M 1974.24,7229.12 L 1968.23,7239.51 L 1773.4,7126.93 L 1773.4,7120 L 1776.4,7114.8 L 1974.24,7229.12 Z " />
<text x="0" y="0" stroke="transparent" fill="#0000ff" transform="matrix(0.05 0 0 0.05 18.082 100.736)" style="font:normal normal normal 200px 'Helvetica'" >
Br</text>
<path stroke="transparent" fill="#000000" transform="matrix(0.05 0 0 0.05 -46 -268)" d="M 1524.92,7270.28 L 1518.93,7259.88 L 1767.4,7116.53 L 1773.4,7120 L 1773.4,7126.93 L 1524.92,7270.28 Z " />
<path stroke="transparent" fill="#000000" transform="matrix(0.05 0 0 0.05 -46 -268)" d="M 1464.4,6664.87 L 1476.4,6657.93 L 1476.6,6945.89 L 1470.6,6949.4 L 1464.6,6945.93 L 1464.4,6664.87 Z " />
<path stroke="transparent" fill="#000000" transform="matrix(0.05 0 0 0.05 -46 -268)" d="M 1412.58,6691.37 L 1424.58,6691.36 L 1424.74,6919.45 L 1412.74,6919.45 L 1412.58,6691.37 Z " />
<path stroke="transparent" fill="#000000" transform="matrix(0.05 0 0 0.05 -46 -268)" d="M 1221,6524.53 L 1221,6510.67 L 1476.4,6657.93 L 1464.4,6664.87 L 1221,6524.53 Z " />
<path stroke="transparent" fill="#000000" transform="matrix(0.05 0 0 0.05 -46 -268)" d="M 977.6,6664.87 L 965.6,6657.93 L 1221,6510.67 L 1221,6524.53 L 977.6,6664.87 Z " />
<path stroke="transparent" fill="#000000" transform="matrix(0.05 0 0 0.05 -46 -268)" d="M 1026.42,6696.54 L 1020.42,6686.14 L 1218,6572.22 L 1224,6582.61 L 1026.42,6696.54 Z " />
<path stroke="transparent" fill="#000000" transform="matrix(0.05 0 0 0.05 -46 -268)" d="M 977.6,6945.93 L 965.6,6952.87 L 965.6,6657.93 L 977.6,6664.87 L 977.6,6945.93 Z " />
<path stroke="transparent" fill="#000000" transform="matrix(0.05 0 0 0.05 -46 -268)" d="M 1221,7086.27 L 1221,7100.12 L 965.6,6952.87 L 977.6,6945.93 L 1221,7086.27 Z " />
<path stroke="transparent" fill="#000000" transform="matrix(0.05 0 0 0.05 -46 -268)" d="M 1224.01,7028.19 L 1218.01,7038.59 L 1020.42,6924.66 L 1026.42,6914.26 L 1224.01,7028.19 Z " />
<path stroke="transparent" fill="#000000" transform="matrix(0.05 0 0 0.05 -46 -268)" d="M 1464.6,6945.93 L 1470.6,6949.4 L 1470.63,6956.31 L 1221,7100.12 L 1221,7086.27 L 1464.6,6945.93 Z " />
<path stroke="transparent" fill="#000000" transform="matrix(0.05 0 0 0.05 -46 -268)" d="M 3242.6,7046 L 2640,7046 L 2640,7034 L 3242.6,7034 Z " />
<path stroke="transparent" fill="#000000" transform="matrix(0.05 0 0 0.05 -46 -268)" d="M 3346.6,7040 C 3346.6,7040 3226.6,7071 3226.6,7071 C 3226.6,7071 3241.6,7053.56 3241.6,7040 C 3241.6,7026 3226.6,7008 3226.6,7008 C 3226.6,7008 3346.6,7040 3346.6,7040 C 3346.6,7040 3346.6,7040 3346.6,7040 " />
<path stroke="#000000" stroke-width="1" fill="transparent" transform="matrix(0.05 0 0 0.05 -46 -268)" d="M 3346.6,7040 C 3346.6,7040 3226.6,7071 3226.6,7071 C 3226.6,7071 3241.6,7053.56 3241.6,7040 C 3241.6,7026 3226.6,7008 3226.6,7008 C 3226.6,7008 3346.6,7040 3346.6,7040 C 3346.6,7040 3346.6,7040 3346.6,7040 " />
<text x="0" y="0" stroke="transparent" fill="#000000" transform="matrix(0.05 0 0 0.05 144.711 112.346)" style="font:normal normal normal 200px 'Helvetica'" >
Et</text>
<path stroke="transparent" fill="#000000" transform="matrix(0.05 0 0 0.05 -46 -268)" d="M 3873.24,7430.47 L 3861.24,7430.47 L 3861.24,7095.17 L 3867.24,7093.4 L 3873.24,7093.4 L 3873.24,7430.47 Z " />
<path stroke="transparent" fill="#000000" transform="matrix(0.05 0 0 0.05 -46 -268)" d="M 3668.21,6796.3 L 3671,6789.56 L 3677.58,6788.69 L 3872.28,7090.14 L 3867.24,7093.4 L 3861.24,7095.17 L 3668.21,6796.3 Z " />
<path stroke="transparent" fill="#ffffff" transform="matrix(0.05 0 0 0.05 -46 -268)" d="M 3694.64,7093.4 A 172.6,172.6 0 1 0 4039.84,7093.4A 172.6,172.6 0 1 0 3694.64,7093.4Z " />
<path stroke="#000000" stroke-width="12" fill="transparent" transform="matrix(0.05 0 0 0.05 -46 -268)" d="M 3694.64,7093.4 A 172.6,172.6 0 1 0 4039.84,7093.4A 172.6,172.6 0 1 0 3694.64,7093.4Z " />
<text x="0" y="0" stroke="transparent" fill="#000000" transform="matrix(0.05 0 0 0.05 143.924 67.9028)" style="font:normal normal normal 200px 'Helvetica'" >
Me</text>
<path stroke="transparent" fill="#000000" transform="matrix(0.05 0 0 0.05 -46 -268)" d="M 3861.24,6749.6 L 3873.24,6749.6 L 3873.24,7093.4 L 3867.24,7093.4 L 3861.24,7095.01 L 3861.24,6749.6 Z " />
<text x="0" y="0" stroke="transparent" fill="#000000" transform="matrix(0.05 0 0 0.05 154.756 107.994)" style="font:normal normal normal 200px 'Helvetica'" >
H</text>
<path stroke="transparent" fill="#000000" transform="matrix(0.05 0 0 0.05 -46 -268)" d="M 4015.63,7338.42 L 4005.24,7344.42 L 3861.24,7095.01 L 3867.24,7093.4 L 3872.44,7090.4 L 4015.63,7338.42 Z " />
<path stroke="transparent" fill="#000000" transform="matrix(0.05 0 0 0.05 -46 -268)" d="M 3752.11,6516.76 L 3765.65,6513.83 L 3677.58,6788.69 L 3671,6789.56 L 3666.34,6784.42 L 3752.11,6516.76 Z " />
<path stroke="transparent" fill="#000000" transform="matrix(0.05 0 0 0.05 -46 -268)" d="M 3694.67,6526.14 L 3706.1,6529.81 L 3636.5,6747.02 L 3625.07,6743.35 L 3694.67,6526.14 Z " />
<path stroke="transparent" fill="#000000" transform="matrix(0.05 0 0 0.05 -46 -268)" d="M 3563.29,6308.71 L 3567.52,6295.52 L 3765.65,6513.83 L 3752.11,6516.76 L 3563.29,6308.71 Z " />
<path stroke="transparent" fill="#000000" transform="matrix(0.05 0 0 0.05 -46 -268)" d="M 3288.82,6367.95 L 3279.52,6357.69 L 3567.52,6295.52 L 3563.29,6308.71 L 3288.82,6367.95 Z " />
<path stroke="transparent" fill="#000000" transform="matrix(0.05 0 0 0.05 -46 -268)" d="M 3325.6,6413 L 3323.06,6401.27 L 3545.87,6353.18 L 3548.4,6364.91 L 3325.6,6413 Z " />
<path stroke="transparent" fill="#000000" transform="matrix(0.05 0 0 0.05 -46 -268)" d="M 3202.87,6635.56 L 3189.32,6638.49 L 3279.52,6357.69 L 3288.82,6367.95 L 3202.87,6635.56 Z " />
<path stroke="transparent" fill="#000000" transform="matrix(0.05 0 0 0.05 -46 -268)" d="M 3391.5,6843.55 L 3387.26,6856.73 L 3189.32,6638.49 L 3202.87,6635.56 L 3391.5,6843.55 Z " />
<path stroke="transparent" fill="#000000" transform="matrix(0.05 0 0 0.05 -46 -268)" d="M 3412.13,6789.2 L 3403.24,6797.26 L 3250.1,6628.42 L 3258.99,6620.35 L 3412.13,6789.2 Z " />
<path stroke="transparent" fill="#000000" transform="matrix(0.05 0 0 0.05 -46 -268)" d="M 3666.34,6784.42 L 3671,6789.56 L 3668.21,6796.3 L 3387.26,6856.73 L 3391.5,6843.55 L 3666.34,6784.42 Z " />
<path stroke="transparent" fill="#000000" transform="matrix(0.05 0 0 0.05 -46 -268)" d="M 5806.06,7047.4 L 5812.98,7059.4 L 5524.98,7059.4 L 5521.52,7053.4 L 5524.98,7047.4 L 5806.06,7047.4 Z " />
<path stroke="transparent" fill="#000000" transform="matrix(0.05 0 0 0.05 -46 -268)" d="M 5779.59,6995.56 L 5779.59,7007.56 L 5551.45,7007.56 L 5551.45,6995.56 L 5779.59,6995.56 Z " />
<text x="0" y="0" stroke="transparent" fill="#000000" transform="matrix(0.05 0 0 0.05 214.644 100.726)" style="font:normal normal normal 200px 'Helvetica'" >
Et</text>
<path stroke="transparent" fill="#000000" transform="matrix(0.05 0 0 0.05 -46 -268)" d="M 5427.36,7228.48 L 5416.96,7222.48 L 5514.59,7053.4 L 5521.52,7053.4 L 5524.98,7059.4 L 5427.36,7228.48 Z " />
<path stroke="transparent" fill="#000000" transform="matrix(0.05 0 0 0.05 -46 -268)" d="M 5374.06,6810 L 5377.52,6804 L 5384.45,6804 L 5524.98,7047.4 L 5521.52,7053.4 L 5514.59,7053.4 L 5374.06,6810 Z " />
<text x="0" y="0" stroke="transparent" fill="#ff0000" transform="matrix(0.05 0 0 0.05 248.238 75.7864)" style="font:normal normal normal 200px 'Helvetica'" >
Me</text>
<path stroke="transparent" fill="#000000" transform="matrix(0.05 0 0 0.05 -46 -268)" d="M 5884.32,6911.85 L 5894.71,6917.85 L 5812.98,7059.4 L 5806.06,7047.4 L 5884.32,6911.85 Z " />
<path stroke="transparent" fill="#ff0000" transform="matrix(0.05 0 0 0.05 -46 -268)" d="M 5514.59,6554.6 L 5528.45,6554.6 L 5384.45,6804 L 5377.52,6804 L 5374.06,6798 L 5514.59,6554.6 Z " />
<path stroke="transparent" fill="#ff0000" transform="matrix(0.05 0 0 0.05 -46 -268)" d="M 5456.47,6551.6 L 5466.86,6557.6 L 5352.79,6755.16 L 5342.4,6749.16 L 5456.47,6551.6 Z " />
<path stroke="transparent" fill="#ff0000" transform="matrix(0.05 0 0 0.05 -46 -268)" d="M 5374.06,6311.2 L 5380.98,6299.2 L 5528.45,6554.6 L 5514.59,6554.6 L 5374.06,6311.2 Z " />
<path stroke="transparent" fill="#ff0000" transform="matrix(0.05 0 0 0.05 -46 -268)" d="M 5092.98,6311.2 L 5086.06,6299.2 L 5380.98,6299.2 L 5374.06,6311.2 L 5092.98,6311.2 Z " />
<path stroke="transparent" fill="#ff0000" transform="matrix(0.05 0 0 0.05 -46 -268)" d="M 5119.45,6363.04 L 5119.45,6351.04 L 5347.59,6351.04 L 5347.59,6363.04 L 5119.45,6363.04 Z " />
<path stroke="transparent" fill="#ff0000" transform="matrix(0.05 0 0 0.05 -46 -268)" d="M 4952.45,6554.6 L 4938.59,6554.6 L 5086.06,6299.2 L 5092.98,6311.2 L 4952.45,6554.6 Z " />
<path stroke="transparent" fill="#ff0000" transform="matrix(0.05 0 0 0.05 -46 -268)" d="M 5092.98,6798 L 5086.06,6810 L 4938.59,6554.6 L 4952.45,6554.6 L 5092.98,6798 Z " />
<path stroke="transparent" fill="#ff0000" transform="matrix(0.05 0 0 0.05 -46 -268)" d="M 5124.64,6749.16 L 5114.25,6755.16 L 5000.18,6557.6 L 5010.57,6551.6 L 5124.64,6749.16 Z " />
<path stroke="transparent" fill="#ff0000" transform="matrix(0.05 0 0 0.05 -46 -268)" d="M 5374.06,6798 L 5377.52,6804 L 5374.06,6810 L 5086.06,6810 L 5092.98,6798 L 5374.06,6798 Z " />
<text x="0" y="0" stroke="transparent" fill="#000000" transform="matrix(0.05 0 0 0.05 8.67 126)" style="font:normal normal normal 200px 'Helvetica'" >
Anti-periplanar</text>
<path stroke="transparent" fill="#000000" transform="matrix(0.05 0 0 0.05 -46 -268)" d="M 3874.64,5613.2 L 3886.64,5613.2 L 3886.64,6293.4 L 3874.64,6293.4 L 3874.64,5613.2 Z " />
<path stroke="#000000" stroke-width="12" fill="transparent" transform="matrix(0.05 0 0 0.05 -46 -268)" d="M 4067.59,5918.9 C 4027.41,5878.61 3913.17,5858.98 3812.6,5875.07 C 3712.04,5891.17 3663.02,5936.93 3703.2,5977.22 C 3730.33,6004.44 3797.7,6024.24 3870.65,6026.44 " />
<path stroke="transparent" fill="#000000" transform="matrix(0.05 0 0 0.05 -46 -268)" d="M 3958.18,6021.05 C 3958.18,6021.05 3860.68,6053.22 3860.68,6053.22 C 3860.68,6053.22 3871.81,6038.32 3870.65,6026.44 C 3869.49,6014.56 3855.6,6001.2 3855.6,6001.2 C 3855.6,6001.2 3958.18,6021.05 3958.18,6021.05 C 3958.18,6021.05 3958.18,6021.05 3958.18,6021.05 " />
<path stroke="#000000" stroke-width="1" fill="transparent" transform="matrix(0.05 0 0 0.05 -46 -268)" d="M 3958.18,6021.05 C 3958.18,6021.05 3860.68,6053.22 3860.68,6053.22 C 3860.68,6053.22 3871.81,6038.32 3870.65,6026.44 C 3869.49,6014.56 3855.6,6001.2 3855.6,6001.2 C 3855.6,6001.2 3958.18,6021.05 3958.18,6021.05 C 3958.18,6021.05 3958.18,6021.05 3958.18,6021.05 " />
<text x="0" y="0" stroke="transparent" fill="#000000" transform="matrix(0.05 0 0 0.05 126.702 10)" style="font:normal normal normal 200px 'Helvetica'" >
Rotate </text>
<text x="0" y="0" stroke="transparent" fill="#000000" transform="matrix(0.05 0 0 0.05 158.943 10)" style="font:normal normal normal 200px 'Helvetica'" >
90°</text>
<path stroke="transparent" fill="#000000" transform="matrix(0.05 0 0 0.05 -46 -268)" d="M 4894.28,7046 L 4291.68,7046 L 4291.68,7034 L 4894.28,7034 Z " />
<path stroke="transparent" fill="#000000" transform="matrix(0.05 0 0 0.05 -46 -268)" d="M 4998.28,7040 C 4998.28,7040 4878.28,7071 4878.28,7071 C 4878.28,7071 4893.28,7053.56 4893.28,7040 C 4893.28,7026 4878.28,7008 4878.28,7008 C 4878.28,7008 4998.28,7040 4998.28,7040 C 4998.28,7040 4998.28,7040 4998.28,7040 " />
<path stroke="#000000" stroke-width="1" fill="transparent" transform="matrix(0.05 0 0 0.05 -46 -268)" d="M 4998.28,7040 C 4998.28,7040 4878.28,7071 4878.28,7071 C 4878.28,7071 4893.28,7053.56 4893.28,7040 C 4893.28,7026 4878.28,7008 4878.28,7008 C 4878.28,7008 4998.28,7040 4998.28,7040 C 4998.28,7040 4998.28,7040 4998.28,7040 " />
</svg>
