<?xml version="1.0" standalone="no" ?>
<!DOCTYPE svg PUBLIC "-//W3C//DTD SVG 1.1//EN" "http://www.w3.org/Graphics/SVG/1.1/DTD/svg11.dtd">
<svg width="242px" height="56px" viewBox="0 0 242 56" style="background-color: #ffffff00" xmlns="http://www.w3.org/2000/svg" xmlns:xlink="http://www.w3.org/1999/xlink" version="1.1" >
<text x="0" y="0" stroke="transparent" fill="#9341a2" transform="matrix(0.05 0 0 0.05 90.0153 30.5148)" style="font:normal normal normal 199px 'Helvetica'" >
O</text>
<path stroke="transparent" fill="#9341a2" transform="matrix(0.05 0 0 0.05 -48 -470)" d="M 2797.94,10048.6 L 2809.98,10048.6 L 2809.98,10241.9 L 2797.94,10241.9 L 2797.94,10048.6 Z " />
<path stroke="transparent" fill="#9341a2" transform="matrix(0.05 0 0 0.05 -48 -470)" d="M 2849.78,10048.6 L 2861.81,10048.6 L 2861.81,10241.9 L 2849.78,10241.9 L 2849.78,10048.6 Z " />
<path stroke="transparent" fill="#9341a2" transform="matrix(0.05 0 0 0.05 -48 -470)" d="M 3079.25,10363.9 L 3079.25,10377.8 L 2829.88,10233.8 L 2829.88,10219.9 L 3079.25,10363.9 Z " />
<text x="0" y="0" stroke="transparent" fill="#9341a2" transform="matrix(0.05 0 0 0.05 72.0663 52.1124)" style="font:normal normal normal 199px 'Helvetica'" >
Cl</text>
<path stroke="transparent" fill="#9341a2" transform="matrix(0.05 0 0 0.05 -48 -470)" d="M 2638.87,10344.1 L 2632.85,10333.7 L 2829.88,10219.9 L 2829.88,10233.8 L 2638.87,10344.1 Z " />
<path stroke="transparent" fill="#9341a2" transform="matrix(0.05 0 0 0.05 -48 -470)" d="M 3328.62,10219.9 L 3328.62,10233.8 L 3079.25,10377.8 L 3079.25,10363.9 L 3328.62,10219.9 Z " />
<path stroke="transparent" fill="#9341a2" transform="matrix(0.05 0 0 0.05 -48 -470)" d="M 3581,10365.7 L 3574.99,10376.1 L 3328.62,10233.8 L 3328.62,10219.9 L 3581,10365.7 Z " />
<text x="0" y="0" stroke="transparent" fill="#000000" transform="matrix(0.05 0 0 0.05 70.8363 9.34818)" style="font:normal normal normal 198.978px 'Helvetica'" >
1</text>
<text x="0" y="0" stroke="transparent" fill="#000000" transform="matrix(0.05 0 0 0.05 76.3694 9.34818)" style="font:normal normal normal 198.978px 'Helvetica'" >
) </text>
<text x="0" y="0" stroke="transparent" fill="#000000" transform="matrix(0.05 0 0 0.05 81.9026 9.34818)" style="font:normal normal normal 198.978px 'Helvetica'" >
AlCl</text>
<text x="0" y="0" stroke="transparent" fill="#000000" transform="matrix(0.05 0 0 0.05 100.144 11.6362)" style="font:normal normal normal 149.234px 'Helvetica'" >
3</text>
<path stroke="transparent" fill="#000000" transform="matrix(0.05 0 0 0.05 -48 -470)" d="M 1026.89,9954.05 L 1014.86,9961 L 1014.86,9666.08 L 1026.89,9673.03 L 1026.89,9954.05 Z " />
<path stroke="transparent" fill="#000000" transform="matrix(0.05 0 0 0.05 -48 -470)" d="M 1078.72,9927.6 L 1066.69,9927.6 L 1066.69,9699.48 L 1078.72,9699.48 L 1078.72,9927.6 Z " />
<path stroke="transparent" fill="#000000" transform="matrix(0.05 0 0 0.05 -48 -470)" d="M 1270.25,10094.6 L 1270.25,10108.5 L 1014.86,9961 L 1026.89,9954.05 L 1270.25,10094.6 Z " />
<path stroke="transparent" fill="#000000" transform="matrix(0.05 0 0 0.05 -48 -470)" d="M 1513.6,9954.05 L 1525.63,9961 L 1270.25,10108.5 L 1270.25,10094.6 L 1513.6,9954.05 Z " />
<path stroke="transparent" fill="#000000" transform="matrix(0.05 0 0 0.05 -48 -470)" d="M 1464.78,9922.39 L 1470.8,9932.81 L 1273.25,10046.9 L 1267.24,10036.4 L 1464.78,9922.39 Z " />
<path stroke="transparent" fill="#000000" transform="matrix(0.05 0 0 0.05 -48 -470)" d="M 1513.6,9673.03 L 1525.63,9666.08 L 1525.63,9961 L 1513.6,9954.05 L 1513.6,9673.03 Z " />
<path stroke="transparent" fill="#000000" transform="matrix(0.05 0 0 0.05 -48 -470)" d="M 1270.25,9532.52 L 1270.25,9518.62 L 1525.63,9666.08 L 1513.6,9673.03 L 1270.25,9532.52 Z " />
<path stroke="transparent" fill="#000000" transform="matrix(0.05 0 0 0.05 -48 -470)" d="M 1267.24,9590.63 L 1273.25,9580.21 L 1470.8,9694.27 L 1464.78,9704.69 L 1267.24,9590.63 Z " />
<path stroke="transparent" fill="#000000" transform="matrix(0.05 0 0 0.05 -48 -470)" d="M 1026.89,9673.03 L 1014.86,9666.08 L 1270.25,9518.62 L 1270.25,9532.52 L 1026.89,9673.03 Z " />
<path stroke="transparent" fill="#000000" transform="matrix(0.05 0 0 0.05 -48 -470)" d="M 3566.21,9752.95 L 2110.16,9752.95 L 2110.16,9740.95 L 3566.21,9740.95 Z " />
<path stroke="transparent" fill="#000000" transform="matrix(0.05 0 0 0.05 -48 -470)" d="M 3723.18,9746.95 C 3723.18,9746.95 3542.71,9793.06 3542.71,9793.06 C 3542.71,9793.06 3565.21,9767.13 3565.21,9746.95 C 3565.21,9726.32 3542.71,9699.83 3542.71,9699.83 C 3542.71,9699.83 3723.18,9746.95 3723.18,9746.95 C 3723.18,9746.95 3723.18,9746.95 3723.18,9746.95 " />
<path stroke="#000000" stroke-width="1" fill="transparent" transform="matrix(0.05 0 0 0.05 -48 -470)" d="M 3723.18,9746.95 C 3723.18,9746.95 3542.71,9793.06 3542.71,9793.06 C 3542.71,9793.06 3565.21,9767.13 3565.21,9746.95 C 3565.21,9726.32 3542.71,9699.83 3542.71,9699.83 C 3542.71,9699.83 3723.18,9746.95 3723.18,9746.95 C 3723.18,9746.95 3723.18,9746.95 3723.18,9746.95 " />
<path stroke="transparent" fill="#000000" transform="matrix(0.05 0 0 0.05 -48 -470)" d="M 4266.34,9954.05 L 4254.31,9961 L 4254.31,9666.08 L 4266.34,9673.03 L 4266.34,9954.05 Z " />
<path stroke="transparent" fill="#000000" transform="matrix(0.05 0 0 0.05 -48 -470)" d="M 4318.17,9927.61 L 4306.14,9927.61 L 4306.14,9699.47 L 4318.17,9699.47 L 4318.17,9927.61 Z " />
<path stroke="transparent" fill="#000000" transform="matrix(0.05 0 0 0.05 -48 -470)" d="M 4509.5,10094.6 L 4509.49,10108.5 L 4254.31,9961 L 4266.34,9954.05 L 4509.5,10094.6 Z " />
<path stroke="transparent" fill="#000000" transform="matrix(0.05 0 0 0.05 -48 -470)" d="M 4752.85,9954.05 L 4758.87,9957.52 L 4758.87,9964.47 L 4509.49,10108.5 L 4509.5,10094.6 L 4752.85,9954.05 Z " />
<path stroke="transparent" fill="#000000" transform="matrix(0.05 0 0 0.05 -48 -470)" d="M 4704.03,9922.39 L 4710.04,9932.81 L 4512.51,10046.9 L 4506.5,10036.4 L 4704.03,9922.39 Z " />
<path stroke="transparent" fill="#000000" transform="matrix(0.05 0 0 0.05 -48 -470)" d="M 4752.85,9673.03 L 4764.88,9666.08 L 4764.88,9954.05 L 4758.87,9957.52 L 4752.85,9954.05 L 4752.85,9673.03 Z " />
<path stroke="transparent" fill="#000000" transform="matrix(0.05 0 0 0.05 -48 -470)" d="M 4509.5,9532.52 L 4509.49,9518.62 L 4764.88,9666.08 L 4752.85,9673.03 L 4509.5,9532.52 Z " />
<path stroke="transparent" fill="#000000" transform="matrix(0.05 0 0 0.05 -48 -470)" d="M 4506.5,9590.64 L 4512.51,9580.22 L 4710.04,9694.27 L 4704.03,9704.69 L 4506.5,9590.64 Z " />
<path stroke="transparent" fill="#000000" transform="matrix(0.05 0 0 0.05 -48 -470)" d="M 4266.34,9673.03 L 4254.31,9666.08 L 4509.49,9518.62 L 4509.5,9532.52 L 4266.34,9673.03 Z " />
<path stroke="transparent" fill="#000000" transform="matrix(0.05 0 0 0.05 -48 -470)" d="M 5008.24,10094.6 L 5008.24,10108.5 L 4758.87,9964.47 L 4758.87,9957.52 L 4764.88,9954.05 L 5008.24,10094.6 Z " />
<path stroke="transparent" fill="#9341a2" transform="matrix(0.05 0 0 0.05 -48 -470)" d="M 5257.62,9950.58 L 5257.62,9964.47 L 5008.24,10108.5 L 5008.24,10094.6 L 5257.62,9950.58 Z " />
<text x="0" y="0" stroke="transparent" fill="#9341a2" transform="matrix(0.05 0 0 0.05 198.933 53.0423)" style="font:normal normal normal 199px 'Helvetica'" >
O</text>
<path stroke="transparent" fill="#9341a2" transform="matrix(0.05 0 0 0.05 -48 -470)" d="M 5040.17,10283.1 L 5028.14,10283.1 L 5028.14,10086.5 L 5040.17,10086.5 L 5040.17,10283.1 Z " />
<path stroke="transparent" fill="#9341a2" transform="matrix(0.05 0 0 0.05 -48 -470)" d="M 4988.34,10283.1 L 4976.31,10283.1 L 4976.31,10086.5 L 4988.34,10086.5 L 4988.34,10283.1 Z " />
<path stroke="transparent" fill="#9341a2" transform="matrix(0.05 0 0 0.05 -48 -470)" d="M 5506.99,10094.6 L 5506.99,10108.5 L 5257.62,9964.47 L 5257.62,9950.58 L 5506.99,10094.6 Z " />
<path stroke="transparent" fill="#9341a2" transform="matrix(0.05 0 0 0.05 -48 -470)" d="M 5753.35,9952.31 L 5759.37,9962.73 L 5506.99,10108.5 L 5506.99,10094.6 L 5753.35,9952.31 Z " />
</svg>
