<?xml version="1.0" standalone="no" ?>
<!DOCTYPE svg PUBLIC "-//W3C//DTD SVG 1.1//EN" "http://www.w3.org/Graphics/SVG/1.1/DTD/svg11.dtd">
<svg width="236px" height="70px" viewBox="0 0 236 70" style="background-color: #ffffff00" xmlns="http://www.w3.org/2000/svg" xmlns:xlink="http://www.w3.org/1999/xlink" version="1.1" >
<path stroke="transparent" fill="#000000" transform="matrix(0.05 0 0 0.05 -155 -130)" d="M 3409,3187.27 L 3409,3201.13 L 3162.6,3343.4 L 3156.6,3333 L 3409,3187.27 Z " />
<path stroke="transparent" fill="#000000" transform="matrix(0.05 0 0 0.05 -155 -130)" d="M 3658.4,3331.27 L 3658.4,3338.2 L 3650.2,3340.4 L 3409,3201.13 L 3409,3187.27 L 3658.4,3331.27 Z " />
<path stroke="transparent" fill="#000000" transform="matrix(0.05 0 0 0.05 -155 -130)" d="M 3901.8,3190.74 L 3907.8,3194.2 L 3906.81,3201.7 L 3664.9,3341.37 L 3658.4,3338.2 L 3658.4,3331.27 L 3901.8,3190.74 Z " />
<text x="0" y="0" stroke="transparent" fill="#000000" transform="matrix(0.05 0 0 0.05 54.5139 32.7164)" style="font:normal normal normal 200px 'Helvetica'" >
O</text>
<path stroke="transparent" fill="#000000" transform="matrix(0.05 0 0 0.05 -155 -130)" d="M 4157.13,3179.99 L 4157.52,3191.98 L 3921.82,3199.74 L 3907.8,3194.2 L 3913.8,3188 L 4157.13,3179.99 Z " />
<path stroke="transparent" fill="#000000" transform="matrix(0.05 0 0 0.05 -155 -130)" d="M 4494.72,3004.16 L 4496.88,3017.44 L 4349.7,3124.76 L 4342.63,3115.07 L 4494.72,3004.16 Z " />
<path stroke="transparent" fill="#000000" transform="matrix(0.05 0 0 0.05 -155 -130)" d="M 4772.01,3092.08 L 4768.39,3103.52 L 4496.88,3017.44 L 4494.72,3004.16 L 4772.01,3092.08 Z " />
<text x="0" y="0" stroke="transparent" fill="#000000" transform="matrix(0.05 0 0 0.05 11.9539 18.9064)" style="font:normal normal normal 200px 'Helvetica'" >
O</text>
<path stroke="transparent" fill="#000000" transform="matrix(0.05 0 0 0.05 -155 -130)" d="M 3377.1,3016.72 L 3389.1,3016.72 L 3389.1,3209.16 L 3377.1,3209.16 L 3377.1,3016.72 Z " />
<path stroke="transparent" fill="#000000" transform="matrix(0.05 0 0 0.05 -155 -130)" d="M 3428.9,3016.72 L 3440.9,3016.72 L 3440.9,3209.16 L 3428.9,3209.16 L 3428.9,3016.72 Z " />
<text x="0" y="0" stroke="transparent" fill="#000000" transform="matrix(0.05 0 0 0.05 36.8939 18.9064)" style="font:normal normal normal 200px 'Helvetica'" >
O</text>
<path stroke="transparent" fill="#000000" transform="matrix(0.05 0 0 0.05 -155 -130)" d="M 3901.8,3016.72 L 3913.8,3016.72 L 3913.8,3188 L 3907.8,3194.2 L 3901.8,3190.74 L 3901.8,3016.72 Z " />
<text x="0" y="0" stroke="transparent" fill="#000000" transform="matrix(0.05 0 0 0.05 17.8733 52.9664)" style="font:normal normal normal 200px 'Helvetica'" >
H</text>
<path stroke="transparent" fill="#000000" transform="matrix(0.05 0 0 0.05 -155 -130)" d="M 3581.47,3483.44 L 3571.08,3477.44 L 3650.2,3340.4 L 3658.4,3338.2 L 3654.87,3356.32 L 3581.47,3483.44 Z " />
<path stroke="transparent" fill="#000000" transform="matrix(0.05 0 0 0.05 -155 -130)" d="M 3733.53,2868.8 A 16.6667,16.6667 0 1 0 3766.87,2868.8A 16.6667,16.6667 0 1 0 3733.53,2868.8Z " />
<path stroke="transparent" fill="#000000" transform="matrix(0.05 0 0 0.05 -155 -130)" d="M 3733.53,2943.8 A 16.6667,16.6667 0 1 0 3766.87,2943.8A 16.6667,16.6667 0 1 0 3733.53,2943.8Z " />
<path stroke="transparent" fill="#000000" transform="matrix(0.05 0 0 0.05 -155 -130)" d="M 3928.53,2748.8 A 16.6667,16.6667 0 1 0 3961.87,2748.8A 16.6667,16.6667 0 1 0 3928.53,2748.8Z " />
<path stroke="transparent" fill="#000000" transform="matrix(0.05 0 0 0.05 -155 -130)" d="M 3853.53,2748.8 A 16.6667,16.6667 0 1 0 3886.87,2748.8A 16.6667,16.6667 0 1 0 3853.53,2748.8Z " />
<path stroke="transparent" fill="#000000" transform="matrix(0.05 0 0 0.05 -155 -130)" d="M 3928.53,2748.8 A 16.6667,16.6667 0 1 0 3961.87,2748.8A 16.6667,16.6667 0 1 0 3928.53,2748.8Z " />
<path stroke="transparent" fill="#000000" transform="matrix(0.05 0 0 0.05 -155 -130)" d="M 3853.53,2748.8 A 16.6667,16.6667 0 1 0 3886.87,2748.8A 16.6667,16.6667 0 1 0 3853.53,2748.8Z " />
<path stroke="transparent" fill="#000000" transform="matrix(0.05 0 0 0.05 -155 -130)" d="M 4048.13,2947.8 A 16.6726,16.6726 0 1 0 4081.47,2947.8A 16.6726,16.6726 0 1 0 4048.13,2947.8Z " />
<path stroke="transparent" fill="#000000" transform="matrix(0.05 0 0 0.05 -155 -130)" d="M 4050.13,2872.8 A 16.6726,16.6726 0 1 0 4083.47,2872.8A 16.6726,16.6726 0 1 0 4050.13,2872.8Z " />
<path stroke="#000000" stroke-width="10" fill="transparent" transform="matrix(0.05 0 0 0.05 -155 -130)" d="M 4016.73,2725.73 A 71.7999,71.7999 0 1 0 4160.33,2725.73A 71.7999,71.7999 0 1 0 4016.73,2725.73Z " />
<path stroke="transparent" fill="#000000" transform="matrix(0.05 0 0 0.05 -155 -130)" d="M 4048.87,2720.4 L 4127.53,2720.4 L 4127.53,2730.4 L 4048.87,2730.4 Z " />
<path stroke="#000000" stroke-width="12" fill="transparent" transform="matrix(0.05 0 0 0.05 -155 -130)" d="M 3698.89,2935.69 C 3653.9,2980.68 3653.91,3053.72 3698.89,3098.71 C 3721.32,3121.14 3753.26,3133.63 3784.95,3132.38 " />
<path stroke="transparent" fill="#000000" transform="matrix(0.05 0 0 0.05 -155 -130)" d="M 3861.91,3098.71 C 3861.91,3098.71 3784.58,3160.17 3784.58,3160.17 C 3784.58,3160.17 3789.6,3142.43 3784.95,3132.38 C 3780.3,3122.32 3763.34,3114.2 3763.34,3114.2 C 3763.34,3114.2 3861.91,3098.71 3861.91,3098.71 C 3861.91,3098.71 3861.91,3098.71 3861.91,3098.71 " />
<path stroke="#000000" stroke-width="1" fill="transparent" transform="matrix(0.05 0 0 0.05 -155 -130)" d="M 3861.91,3098.71 C 3861.91,3098.71 3784.58,3160.17 3784.58,3160.17 C 3784.58,3160.17 3789.6,3142.43 3784.95,3132.38 C 3780.3,3122.32 3763.34,3114.2 3763.34,3114.2 C 3763.34,3114.2 3861.91,3098.71 3861.91,3098.71 C 3861.91,3098.71 3861.91,3098.71 3861.91,3098.71 " />
<path stroke="#000000" stroke-width="12" fill="transparent" transform="matrix(0.05 0 0 0.05 -155 -130)" d="M 4222.3,3034.08 C 4174.69,3005.9 4113.24,3021.62 4085.14,3069.15 C 4072.4,3090.71 4068.19,3117.12 4073.6,3141.6 " />
<path stroke="transparent" fill="#000000" transform="matrix(0.05 0 0 0.05 -155 -130)" d="M 4269.2,3098.8 C 4269.2,3098.8 4196.11,3039.23 4196.11,3039.23 C 4196.11,3039.23 4214.19,3040.07 4222.3,3034.08 C 4230.42,3028.08 4235.09,3010.43 4235.09,3010.43 C 4235.09,3010.43 4269.2,3098.8 4269.2,3098.8 C 4269.2,3098.8 4269.2,3098.8 4269.2,3098.8 " />
<path stroke="#000000" stroke-width="1" fill="transparent" transform="matrix(0.05 0 0 0.05 -155 -130)" d="M 4269.2,3098.8 C 4269.2,3098.8 4196.11,3039.23 4196.11,3039.23 C 4196.11,3039.23 4214.19,3040.07 4222.3,3034.08 C 4230.42,3028.08 4235.09,3010.43 4235.09,3010.43 C 4235.09,3010.43 4269.2,3098.8 4269.2,3098.8 C 4269.2,3098.8 4269.2,3098.8 4269.2,3098.8 " />
<path stroke="transparent" fill="#000000" transform="matrix(0.05 0 0 0.05 -155 -130)" d="M 5515.6,3224.2 L 4939.6,3224.2 L 4939.6,3212.2 L 5515.6,3212.2 Z " />
<path stroke="transparent" fill="#000000" transform="matrix(0.05 0 0 0.05 -155 -130)" d="M 5619.6,3218.2 C 5619.6,3218.2 5499.6,3249.2 5499.6,3249.2 C 5499.6,3249.2 5514.6,3231.76 5514.6,3218.2 C 5514.6,3204.2 5499.6,3186.2 5499.6,3186.2 C 5499.6,3186.2 5619.6,3218.2 5619.6,3218.2 C 5619.6,3218.2 5619.6,3218.2 5619.6,3218.2 " />
<path stroke="#000000" stroke-width="1" fill="transparent" transform="matrix(0.05 0 0 0.05 -155 -130)" d="M 5619.6,3218.2 C 5619.6,3218.2 5499.6,3249.2 5499.6,3249.2 C 5499.6,3249.2 5514.6,3231.76 5514.6,3218.2 C 5514.6,3204.2 5499.6,3186.2 5499.6,3186.2 C 5499.6,3186.2 5619.6,3218.2 5619.6,3218.2 C 5619.6,3218.2 5619.6,3218.2 5619.6,3218.2 " />
<path stroke="transparent" fill="#000000" transform="matrix(0.05 0 0 0.05 -155 -130)" d="M 5982.4,3227.27 L 5982.4,3241.13 L 5736,3383.4 L 5730,3373 L 5982.4,3227.27 Z " />
<path stroke="transparent" fill="#000000" transform="matrix(0.05 0 0 0.05 -155 -130)" d="M 6231.8,3371.27 L 6231.8,3378.2 L 6226.49,3382.06 L 5982.4,3241.13 L 5982.4,3227.27 L 6231.8,3371.27 Z " />
<path stroke="transparent" fill="#000000" transform="matrix(0.05 0 0 0.05 -155 -130)" d="M 6481.77,3226.82 L 6480.22,3241.58 L 6238.57,3381.22 L 6231.8,3378.2 L 6231.8,3371.27 L 6481.77,3226.82 Z " />
<text x="0" y="0" stroke="transparent" fill="#000000" transform="matrix(0.05 0 0 0.05 140.624 20.9064)" style="font:normal normal normal 200px 'Helvetica'" >
O</text>
<path stroke="transparent" fill="#000000" transform="matrix(0.05 0 0 0.05 -155 -130)" d="M 5950.5,3056.72 L 5962.5,3056.72 L 5962.5,3249.16 L 5950.5,3249.16 L 5950.5,3056.72 Z " />
<path stroke="transparent" fill="#000000" transform="matrix(0.05 0 0 0.05 -155 -130)" d="M 6002.3,3056.72 L 6014.3,3056.72 L 6014.3,3249.16 L 6002.3,3249.16 L 6002.3,3056.72 Z " />
<text x="0" y="0" stroke="transparent" fill="#000000" transform="matrix(0.05 0 0 0.05 165.554 20.9064)" style="font:normal normal normal 200px 'Helvetica'" >
O</text>
<path stroke="transparent" fill="#000000" transform="matrix(0.05 0 0 0.05 -155 -130)" d="M 6449.1,3056.72 L 6461.1,3056.72 L 6461.1,3249.17 L 6449.1,3249.17 L 6449.1,3056.72 Z " />
<path stroke="transparent" fill="#000000" transform="matrix(0.05 0 0 0.05 -155 -130)" d="M 6500.9,3056.72 L 6512.9,3056.72 L 6512.9,3257.54 L 6500.9,3257.54 L 6500.9,3056.72 Z " />
<path stroke="transparent" fill="#000000" transform="matrix(0.05 0 0 0.05 -155 -130)" d="M 6306.73,2908.8 A 16.6667,16.6667 0 1 0 6340.07,2908.8A 16.6667,16.6667 0 1 0 6306.73,2908.8Z " />
<path stroke="transparent" fill="#000000" transform="matrix(0.05 0 0 0.05 -155 -130)" d="M 6306.73,2983.8 A 16.6667,16.6667 0 1 0 6340.07,2983.8A 16.6667,16.6667 0 1 0 6306.73,2983.8Z " />
<path stroke="transparent" fill="#000000" transform="matrix(0.05 0 0 0.05 -155 -130)" d="M 6501.93,2788.8 A 16.6667,16.6667 0 1 0 6535.27,2788.8A 16.6667,16.6667 0 1 0 6501.93,2788.8Z " />
<path stroke="transparent" fill="#000000" transform="matrix(0.05 0 0 0.05 -155 -130)" d="M 6426.93,2788.8 A 16.6667,16.6667 0 1 0 6460.27,2788.8A 16.6667,16.6667 0 1 0 6426.93,2788.8Z " />
<text x="0" y="0" stroke="transparent" fill="#000000" transform="matrix(0.05 0 0 0.05 176.254 44.9364)" style="font:normal normal normal 200px 'Helvetica'" >
O</text>
<path stroke="transparent" fill="#000000" transform="matrix(0.05 0 0 0.05 -155 -130)" d="M 6296.56,3654.49 L 6286.64,3665.51 L 6226.49,3382.06 L 6231.8,3378.2 L 6238.57,3381.22 L 6296.56,3654.49 Z " />
<path stroke="transparent" fill="#000000" transform="matrix(0.05 0 0 0.05 -155 -130)" d="M 6574.29,3683.58 L 6578,3690 L 6574.33,3695.65 L 6286.64,3665.51 L 6296.56,3654.49 L 6574.29,3683.58 Z " />
<path stroke="transparent" fill="#000000" transform="matrix(0.05 0 0 0.05 -155 -130)" d="M 6644.17,3526.51 L 6655.13,3531.38 L 6584.72,3689.65 L 6578,3690 L 6574.29,3683.58 L 6644.17,3526.51 Z " />
<path stroke="transparent" fill="#000000" transform="matrix(0.05 0 0 0.05 -155 -130)" d="M 6480.22,3241.58 L 6481.77,3226.82 L 6619.75,3351.13 L 6611.72,3360.04 L 6480.22,3241.58 Z " />
<path stroke="transparent" fill="#000000" transform="matrix(0.05 0 0 0.05 -155 -130)" d="M 6727.2,3936.4 L 6716.8,3942.4 L 6574.33,3695.65 L 6578,3690 L 6584.72,3689.65 L 6727.2,3936.4 Z " />
<text x="0" y="0" stroke="transparent" fill="#000000" transform="matrix(0.05 0 0 0.05 197.98 33.58)" style="font:normal normal normal 200px 'Helvetica'" >
+</text>
<text x="0" y="0" stroke="transparent" fill="#000000" transform="matrix(0.05 0 0 0.05 216.704 34.9164)" style="font:normal normal normal 200px 'Helvetica'" >
OEt</text>
<path stroke="transparent" fill="#000000" transform="matrix(0.05 0 0 0.05 -155 -130)" d="M 7329.73,3187 A 16.6667,16.6667 0 1 0 7363.07,3187A 16.6667,16.6667 0 1 0 7329.73,3187Z " />
<path stroke="transparent" fill="#000000" transform="matrix(0.05 0 0 0.05 -155 -130)" d="M 7329.73,3262 A 16.6667,16.6667 0 1 0 7363.07,3262A 16.6667,16.6667 0 1 0 7329.73,3262Z " />
<path stroke="transparent" fill="#000000" transform="matrix(0.05 0 0 0.05 -155 -130)" d="M 7524.93,3067 A 16.6667,16.6667 0 1 0 7558.27,3067A 16.6667,16.6667 0 1 0 7524.93,3067Z " />
<path stroke="transparent" fill="#000000" transform="matrix(0.05 0 0 0.05 -155 -130)" d="M 7449.93,3067 A 16.6667,16.6667 0 1 0 7483.27,3067A 16.6667,16.6667 0 1 0 7449.93,3067Z " />
<path stroke="transparent" fill="#000000" transform="matrix(0.05 0 0 0.05 -155 -130)" d="M 7449.93,3382.2 A 16.6667,16.6667 0 1 0 7483.27,3382.2A 16.6667,16.6667 0 1 0 7449.93,3382.2Z " />
<path stroke="transparent" fill="#000000" transform="matrix(0.05 0 0 0.05 -155 -130)" d="M 7524.93,3382.2 A 16.6667,16.6667 0 1 0 7558.27,3382.2A 16.6667,16.6667 0 1 0 7524.93,3382.2Z " />
<path stroke="#000000" stroke-width="10" fill="transparent" transform="matrix(0.05 0 0 0.05 -155 -130)" d="M 7201.53,3045.33 A 71.7999,71.7999 0 1 0 7345.13,3045.33A 71.7999,71.7999 0 1 0 7201.53,3045.33Z " />
<path stroke="transparent" fill="#000000" transform="matrix(0.05 0 0 0.05 -155 -130)" d="M 7233.67,3040 L 7312.33,3040 L 7312.33,3050 L 7233.67,3050 Z " />
<text x="0" y="0" stroke="transparent" fill="#000000" transform="matrix(0.05 0 0 0.05 47.0739 43.4864)" style="font:normal normal normal 200px 'Helvetica'" >
O</text>
<path stroke="transparent" fill="#000000" transform="matrix(0.05 0 0 0.05 -155 -130)" d="M 4040.22,3318.27 L 4031.73,3326.75 L 3906.81,3201.7 L 3907.8,3194.2 L 3921.82,3199.74 L 4040.22,3318.27 Z " />
<path stroke="transparent" fill="#000000" transform="matrix(0.05 0 0 0.05 -155 -130)" d="M 3701.53,3604.17 L 3690.87,3614.63 L 3654.87,3356.32 L 3658.4,3338.2 L 3664.9,3341.37 L 3701.53,3604.17 Z " />
<path stroke="transparent" fill="#000000" transform="matrix(0.05 0 0 0.05 -155 -130)" d="M 3977.23,3647.79 L 3980.6,3654.4 L 3976.84,3659.88 L 3690.87,3614.63 L 3701.53,3604.17 L 3977.23,3647.79 Z " />
<path stroke="transparent" fill="#000000" transform="matrix(0.05 0 0 0.05 -155 -130)" d="M 4055.38,3494.55 L 4066.07,3500 L 3987.43,3654.22 L 3980.6,3654.4 L 3977.23,3647.79 L 4055.38,3494.55 Z " />
<path stroke="transparent" fill="#000000" transform="matrix(0.05 0 0 0.05 -155 -130)" d="M 4129.8,3900.81 L 4119.4,3906.81 L 3976.84,3659.88 L 3980.6,3654.4 L 3987.43,3654.22 L 4129.8,3900.81 Z " />
</svg>
