<?xml version="1.0" standalone="no" ?>
<!DOCTYPE svg PUBLIC "-//W3C//DTD SVG 1.1//EN" "http://www.w3.org/Graphics/SVG/1.1/DTD/svg11.dtd">
<svg width="216px" height="72px" viewBox="0 0 216 72" style="background-color: #ffffff00" xmlns="http://www.w3.org/2000/svg" xmlns:xlink="http://www.w3.org/1999/xlink" version="1.1" >
<path stroke="transparent" fill="#000000" transform="matrix(0.05 0 0 0.05 -135 -377)" d="M 3010,8100.87 L 3010,8114.73 L 2763.6,8257 L 2757.6,8246.6 L 3010,8100.87 Z " />
<path stroke="transparent" fill="#000000" transform="matrix(0.05 0 0 0.05 -135 -377)" d="M 3259.4,8244.87 L 3259.4,8251.8 L 3251.2,8254 L 3010,8114.73 L 3010,8100.87 L 3259.4,8244.87 Z " />
<path stroke="transparent" fill="#000000" transform="matrix(0.05 0 0 0.05 -135 -377)" d="M 3507.6,8101.45 L 3509.6,8114.15 L 3266.38,8254.69 L 3259.4,8251.8 L 3259.4,8244.87 L 3507.6,8101.45 Z " />
<text x="0" y="0" stroke="transparent" fill="#000000" transform="matrix(0.05 0 0 0.05 51.8639 35.1764)" style="font:normal normal normal 200px 'Helvetica'" >
O</text>
<path stroke="transparent" fill="#000000" transform="matrix(0.05 0 0 0.05 -135 -377)" d="M 3706.99,8144.19 L 3704.47,8155.92 L 3509.6,8114.15 L 3507.6,8101.45 L 3706.99,8144.19 Z " />
<path stroke="transparent" fill="#000000" transform="matrix(0.05 0 0 0.05 -135 -377)" d="M 4074.57,8047.89 L 4073.83,8061.31 L 3905.89,8135.03 L 3901.07,8124.04 L 4074.57,8047.89 Z " />
<path stroke="transparent" fill="#000000" transform="matrix(0.05 0 0 0.05 -135 -377)" d="M 4326.6,8193.4 L 4320.6,8203.8 L 4073.83,8061.31 L 4074.57,8047.89 L 4326.6,8193.4 Z " />
<text x="0" y="0" stroke="transparent" fill="#000000" transform="matrix(0.05 0 0 0.05 12.0039 17.5864)" style="font:normal normal normal 200px 'Helvetica'" >
O</text>
<path stroke="transparent" fill="#000000" transform="matrix(0.05 0 0 0.05 -135 -377)" d="M 2978.1,7929.32 L 2990.1,7929.32 L 2990.1,8122.76 L 2978.1,8122.76 L 2978.1,7929.32 Z " />
<path stroke="transparent" fill="#000000" transform="matrix(0.05 0 0 0.05 -135 -377)" d="M 3029.9,7929.32 L 3041.9,7929.32 L 3041.9,8122.76 L 3029.9,8122.76 L 3029.9,7929.32 Z " />
<text x="0" y="0" stroke="transparent" fill="#000000" transform="matrix(0.05 0 0 0.05 36.9339 17.5864)" style="font:normal normal normal 200px 'Helvetica'" >
O</text>
<path stroke="transparent" fill="#000000" transform="matrix(0.05 0 0 0.05 -135 -377)" d="M 3476.7,7929.32 L 3488.7,7929.32 L 3488.7,8122.77 L 3476.7,8122.77 L 3476.7,7929.32 Z " />
<path stroke="transparent" fill="#000000" transform="matrix(0.05 0 0 0.05 -135 -377)" d="M 3528.5,7929.32 L 3540.5,7929.32 L 3540.5,8113.35 L 3528.5,8113.35 L 3528.5,7929.32 Z " />
<text x="0" y="0" stroke="transparent" fill="#000000" transform="matrix(0.05 0 0 0.05 17.9233 51.6464)" style="font:normal normal normal 200px 'Helvetica'" >
H</text>
<path stroke="transparent" fill="#000000" transform="matrix(0.05 0 0 0.05 -135 -377)" d="M 3182.47,8397.04 L 3172.08,8391.04 L 3251.2,8254 L 3259.4,8251.8 L 3257.35,8267.35 L 3182.47,8397.04 Z " />
<path stroke="transparent" fill="#000000" transform="matrix(0.05 0 0 0.05 -135 -377)" d="M 3334.33,7782.4 A 16.6667,16.6667 0 1 0 3367.67,7782.4A 16.6667,16.6667 0 1 0 3334.33,7782.4Z " />
<path stroke="transparent" fill="#000000" transform="matrix(0.05 0 0 0.05 -135 -377)" d="M 3334.33,7857.4 A 16.6667,16.6667 0 1 0 3367.67,7857.4A 16.6667,16.6667 0 1 0 3334.33,7857.4Z " />
<path stroke="transparent" fill="#000000" transform="matrix(0.05 0 0 0.05 -135 -377)" d="M 3529.53,7662.4 A 16.6667,16.6667 0 1 0 3562.87,7662.4A 16.6667,16.6667 0 1 0 3529.53,7662.4Z " />
<path stroke="transparent" fill="#000000" transform="matrix(0.05 0 0 0.05 -135 -377)" d="M 3454.53,7662.4 A 16.6667,16.6667 0 1 0 3487.87,7662.4A 16.6667,16.6667 0 1 0 3454.53,7662.4Z " />
<path stroke="transparent" fill="#000000" transform="matrix(0.05 0 0 0.05 -135 -377)" d="M 3529.53,7662.4 A 16.6667,16.6667 0 1 0 3562.87,7662.4A 16.6667,16.6667 0 1 0 3529.53,7662.4Z " />
<path stroke="transparent" fill="#000000" transform="matrix(0.05 0 0 0.05 -135 -377)" d="M 3454.53,7662.4 A 16.6667,16.6667 0 1 0 3487.87,7662.4A 16.6667,16.6667 0 1 0 3454.53,7662.4Z " />
<path stroke="transparent" fill="#000000" transform="matrix(0.05 0 0 0.05 -135 -377)" d="M 3338.93,8525.95 L 3328.67,8534.05 L 3257.35,8267.35 L 3259.4,8251.8 L 3266.38,8254.69 L 3338.93,8525.95 Z " />
<path stroke="transparent" fill="#000000" transform="matrix(0.05 0 0 0.05 -135 -377)" d="M 3545.31,8637.73 L 3545.4,8644.6 L 3538.38,8647.62 L 3328.67,8534.05 L 3338.93,8525.95 L 3545.31,8637.73 Z " />
<text x="0" y="0" stroke="transparent" fill="#000000" transform="matrix(0.05 0 0 0.05 51.2439 51.6164)" style="font:normal normal normal 200px 'Helvetica'" >
O</text>
<path stroke="transparent" fill="#000000" transform="matrix(0.05 0 0 0.05 -135 -377)" d="M 3698.5,8549.27 L 3704.5,8559.66 L 3550.55,8648.55 L 3545.4,8644.6 L 3545.31,8637.73 L 3698.5,8549.27 Z " />
<path stroke="transparent" fill="#000000" transform="matrix(0.05 0 0 0.05 -135 -377)" d="M 3476.6,8924.35 L 3465,8921.25 L 3538.38,8647.62 L 3545.4,8644.6 L 3550.55,8648.55 L 3476.6,8924.35 Z " />
<path stroke="transparent" fill="#000000" transform="matrix(0.05 0 0 0.05 -135 -377)" d="M 3935.53,8538 A 16.6667,16.6667 0 1 0 3968.87,8538A 16.6667,16.6667 0 1 0 3935.53,8538Z " />
<path stroke="transparent" fill="#000000" transform="matrix(0.05 0 0 0.05 -135 -377)" d="M 3935.53,8463 A 16.6667,16.6667 0 1 0 3968.87,8463A 16.6667,16.6667 0 1 0 3935.53,8463Z " />
<path stroke="transparent" fill="#000000" transform="matrix(0.05 0 0 0.05 -135 -377)" d="M 3802.13,8383 A 16.6667,16.6667 0 1 0 3835.47,8383A 16.6667,16.6667 0 1 0 3802.13,8383Z " />
<path stroke="transparent" fill="#000000" transform="matrix(0.05 0 0 0.05 -135 -377)" d="M 3727.13,8383 A 16.6667,16.6667 0 1 0 3760.47,8383A 16.6667,16.6667 0 1 0 3727.13,8383Z " />
<path stroke="transparent" fill="#000000" transform="matrix(0.05 0 0 0.05 -135 -377)" d="M 3753.72,8662.6 A 16.6792,16.6792 0 1 0 3787.08,8662.6A 16.6792,16.6792 0 1 0 3753.72,8662.6Z " />
<path stroke="transparent" fill="#000000" transform="matrix(0.05 0 0 0.05 -135 -377)" d="M 3828.52,8656.4 A 16.6792,16.6792 0 1 0 3861.88,8656.4A 16.6792,16.6792 0 1 0 3828.52,8656.4Z " />
<path stroke="#000000" stroke-width="10" fill="transparent" transform="matrix(0.05 0 0 0.05 -135 -377)" d="M 3539.93,8450.93 A 71.7999,71.7999 0 1 0 3683.53,8450.93A 71.7999,71.7999 0 1 0 3539.93,8450.93Z " />
<path stroke="transparent" fill="#000000" transform="matrix(0.05 0 0 0.05 -135 -377)" d="M 3572.07,8445.6 L 3650.73,8445.6 L 3650.73,8455.6 L 3572.07,8455.6 Z " />
<path stroke="#000000" stroke-width="12" fill="transparent" transform="matrix(0.05 0 0 0.05 -135 -377)" d="M 3511.28,8226.81 C 3520.27,8278.03 3568.55,8318.58 3620.55,8318.6 " />
<path stroke="transparent" fill="#000000" transform="matrix(0.05 0 0 0.05 -135 -377)" d="M 3524.5,8152.06 C 3524.5,8152.06 3531.74,8242.27 3531.74,8242.27 C 3531.74,8242.27 3520.12,8228.7 3511.28,8226.81 C 3502.43,8224.92 3487.03,8232.71 3487.03,8232.71 C 3487.03,8232.71 3524.5,8152.06 3524.5,8152.06 C 3524.5,8152.06 3524.5,8152.06 3524.5,8152.06 " />
<path stroke="#000000" stroke-width="1" fill="transparent" transform="matrix(0.05 0 0 0.05 -135 -377)" d="M 3524.5,8152.06 C 3524.5,8152.06 3531.74,8242.27 3531.74,8242.27 C 3531.74,8242.27 3520.12,8228.7 3511.28,8226.81 C 3502.43,8224.92 3487.03,8232.71 3487.03,8232.71 C 3487.03,8232.71 3524.5,8152.06 3524.5,8152.06 C 3524.5,8152.06 3524.5,8152.06 3524.5,8152.06 " />
<path stroke="#000000" stroke-width="12" fill="transparent" transform="matrix(0.05 0 0 0.05 -135 -377)" d="M 3580.6,7998.6 C 3635.8,7998.6 3680.6,7953.8 3680.6,7898.6 C 3680.6,7875.13 3672.02,7851.77 3656.83,7833.88 " />
<path stroke="transparent" fill="#000000" transform="matrix(0.05 0 0 0.05 -135 -377)" d="M 3580.6,7798.6 C 3580.6,7798.6 3678.8,7816.14 3678.8,7816.14 C 3678.8,7816.14 3661.68,7823.91 3656.83,7833.88 C 3651.98,7843.85 3656.64,7861.7 3656.64,7861.7 C 3656.64,7861.7 3580.6,7798.6 3580.6,7798.6 C 3580.6,7798.6 3580.6,7798.6 3580.6,7798.6 " />
<path stroke="#000000" stroke-width="1" fill="transparent" transform="matrix(0.05 0 0 0.05 -135 -377)" d="M 3580.6,7798.6 C 3580.6,7798.6 3678.8,7816.14 3678.8,7816.14 C 3678.8,7816.14 3661.68,7823.91 3656.83,7833.88 C 3651.98,7843.85 3656.64,7861.7 3656.64,7861.7 C 3656.64,7861.7 3580.6,7798.6 3580.6,7798.6 C 3580.6,7798.6 3580.6,7798.6 3580.6,7798.6 " />
<path stroke="transparent" fill="#000000" transform="matrix(0.05 0 0 0.05 -135 -377)" d="M 5089,8124.2 L 4566.2,8124.2 L 4566.2,8112.2 L 5089,8112.2 Z " />
<path stroke="transparent" fill="#000000" transform="matrix(0.05 0 0 0.05 -135 -377)" d="M 5193,8118.2 C 5193,8118.2 5073,8149.2 5073,8149.2 C 5073,8149.2 5088,8131.76 5088,8118.2 C 5088,8104.2 5073,8086.2 5073,8086.2 C 5073,8086.2 5193,8118.2 5193,8118.2 C 5193,8118.2 5193,8118.2 5193,8118.2 " />
<path stroke="#000000" stroke-width="1" fill="transparent" transform="matrix(0.05 0 0 0.05 -135 -377)" d="M 5193,8118.2 C 5193,8118.2 5073,8149.2 5073,8149.2 C 5073,8149.2 5088,8131.76 5088,8118.2 C 5088,8104.2 5073,8086.2 5073,8086.2 C 5073,8086.2 5193,8118.2 5193,8118.2 C 5193,8118.2 5193,8118.2 5193,8118.2 " />
<path stroke="transparent" fill="#000000" transform="matrix(0.05 0 0 0.05 -135 -377)" d="M 5609,8127.27 L 5609,8141.13 L 5362.6,8283.4 L 5356.6,8273 L 5609,8127.27 Z " />
<path stroke="transparent" fill="#000000" transform="matrix(0.05 0 0 0.05 -135 -377)" d="M 5858.4,8271.27 L 5858.4,8278.2 L 5850.2,8280.4 L 5609,8141.13 L 5609,8127.27 L 5858.4,8271.27 Z " />
<path stroke="transparent" fill="#000000" transform="matrix(0.05 0 0 0.05 -135 -377)" d="M 6101.8,8130.74 L 6107.8,8134.2 L 6106.81,8141.7 L 5864.9,8281.37 L 5858.4,8278.2 L 5858.4,8271.27 L 6101.8,8130.74 Z " />
<text x="0" y="0" stroke="transparent" fill="#000000" transform="matrix(0.05 0 0 0.05 184.514 32.7164)" style="font:normal normal normal 200px 'Helvetica'" >
O</text>
<path stroke="transparent" fill="#000000" transform="matrix(0.05 0 0 0.05 -135 -377)" d="M 6357.13,8119.99 L 6357.52,8131.98 L 6121.82,8139.74 L 6107.8,8134.2 L 6113.8,8128 L 6357.13,8119.99 Z " />
<path stroke="transparent" fill="#000000" transform="matrix(0.05 0 0 0.05 -135 -377)" d="M 6694.72,7944.16 L 6696.88,7957.44 L 6550.17,8064.42 L 6543.1,8054.72 L 6694.72,7944.16 Z " />
<path stroke="transparent" fill="#000000" transform="matrix(0.05 0 0 0.05 -135 -377)" d="M 6972.01,8032.08 L 6968.39,8043.52 L 6696.88,7957.44 L 6694.72,7944.16 L 6972.01,8032.08 Z " />
<text x="0" y="0" stroke="transparent" fill="#000000" transform="matrix(0.05 0 0 0.05 141.954 18.9064)" style="font:normal normal normal 200px 'Helvetica'" >
O</text>
<path stroke="transparent" fill="#000000" transform="matrix(0.05 0 0 0.05 -135 -377)" d="M 5577.1,7955.72 L 5589.1,7955.72 L 5589.1,8149.16 L 5577.1,8149.16 L 5577.1,7955.72 Z " />
<path stroke="transparent" fill="#000000" transform="matrix(0.05 0 0 0.05 -135 -377)" d="M 5628.9,7955.72 L 5640.9,7955.72 L 5640.9,8149.16 L 5628.9,8149.16 L 5628.9,7955.72 Z " />
<text x="0" y="0" stroke="transparent" fill="#000000" transform="matrix(0.05 0 0 0.05 166.894 18.9064)" style="font:normal normal normal 200px 'Helvetica'" >
O</text>
<path stroke="transparent" fill="#000000" transform="matrix(0.05 0 0 0.05 -135 -377)" d="M 6101.8,7955.72 L 6113.8,7955.72 L 6113.8,8128 L 6107.8,8134.2 L 6101.8,8130.74 L 6101.8,7955.72 Z " />
<text x="0" y="0" stroke="transparent" fill="#000000" transform="matrix(0.05 0 0 0.05 147.873 52.9664)" style="font:normal normal normal 200px 'Helvetica'" >
H</text>
<path stroke="transparent" fill="#000000" transform="matrix(0.05 0 0 0.05 -135 -377)" d="M 5781.47,8423.44 L 5771.08,8417.44 L 5850.2,8280.4 L 5858.4,8278.2 L 5854.87,8296.32 L 5781.47,8423.44 Z " />
<path stroke="transparent" fill="#000000" transform="matrix(0.05 0 0 0.05 -135 -377)" d="M 5933.53,7808.8 A 16.6667,16.6667 0 1 0 5966.87,7808.8A 16.6667,16.6667 0 1 0 5933.53,7808.8Z " />
<path stroke="transparent" fill="#000000" transform="matrix(0.05 0 0 0.05 -135 -377)" d="M 5933.53,7883.8 A 16.6667,16.6667 0 1 0 5966.87,7883.8A 16.6667,16.6667 0 1 0 5933.53,7883.8Z " />
<path stroke="transparent" fill="#000000" transform="matrix(0.05 0 0 0.05 -135 -377)" d="M 6128.53,7688.8 A 16.6667,16.6667 0 1 0 6161.87,7688.8A 16.6667,16.6667 0 1 0 6128.53,7688.8Z " />
<path stroke="transparent" fill="#000000" transform="matrix(0.05 0 0 0.05 -135 -377)" d="M 6053.53,7688.8 A 16.6667,16.6667 0 1 0 6086.87,7688.8A 16.6667,16.6667 0 1 0 6053.53,7688.8Z " />
<path stroke="transparent" fill="#000000" transform="matrix(0.05 0 0 0.05 -135 -377)" d="M 6128.53,7688.8 A 16.6667,16.6667 0 1 0 6161.87,7688.8A 16.6667,16.6667 0 1 0 6128.53,7688.8Z " />
<path stroke="transparent" fill="#000000" transform="matrix(0.05 0 0 0.05 -135 -377)" d="M 6053.53,7688.8 A 16.6667,16.6667 0 1 0 6086.87,7688.8A 16.6667,16.6667 0 1 0 6053.53,7688.8Z " />
<path stroke="transparent" fill="#000000" transform="matrix(0.05 0 0 0.05 -135 -377)" d="M 6248.13,7887.8 A 16.6726,16.6726 0 1 0 6281.47,7887.8A 16.6726,16.6726 0 1 0 6248.13,7887.8Z " />
<path stroke="transparent" fill="#000000" transform="matrix(0.05 0 0 0.05 -135 -377)" d="M 6250.13,7812.8 A 16.6726,16.6726 0 1 0 6283.47,7812.8A 16.6726,16.6726 0 1 0 6250.13,7812.8Z " />
<path stroke="#000000" stroke-width="10" fill="transparent" transform="matrix(0.05 0 0 0.05 -135 -377)" d="M 6216.73,7665.73 A 71.7999,71.7999 0 1 0 6360.33,7665.73A 71.7999,71.7999 0 1 0 6216.73,7665.73Z " />
<path stroke="transparent" fill="#000000" transform="matrix(0.05 0 0 0.05 -135 -377)" d="M 6248.87,7660.4 L 6327.53,7660.4 L 6327.53,7670.4 L 6248.87,7670.4 Z " />
<path stroke="#000000" stroke-width="12" fill="transparent" transform="matrix(0.05 0 0 0.05 -135 -377)" d="M 5898.89,7875.69 C 5853.9,7920.68 5853.91,7993.72 5898.89,8038.71 C 5921.32,8061.14 5953.26,8073.63 5984.95,8072.38 " />
<path stroke="transparent" fill="#000000" transform="matrix(0.05 0 0 0.05 -135 -377)" d="M 6061.91,8038.71 C 6061.91,8038.71 5984.58,8100.17 5984.58,8100.17 C 5984.58,8100.17 5989.6,8082.43 5984.95,8072.38 C 5980.3,8062.32 5963.34,8054.2 5963.34,8054.2 C 5963.34,8054.2 6061.91,8038.71 6061.91,8038.71 C 6061.91,8038.71 6061.91,8038.71 6061.91,8038.71 " />
<path stroke="#000000" stroke-width="1" fill="transparent" transform="matrix(0.05 0 0 0.05 -135 -377)" d="M 6061.91,8038.71 C 6061.91,8038.71 5984.58,8100.17 5984.58,8100.17 C 5984.58,8100.17 5989.6,8082.43 5984.95,8072.38 C 5980.3,8062.32 5963.34,8054.2 5963.34,8054.2 C 5963.34,8054.2 6061.91,8038.71 6061.91,8038.71 C 6061.91,8038.71 6061.91,8038.71 6061.91,8038.71 " />
<path stroke="#000000" stroke-width="12" fill="transparent" transform="matrix(0.05 0 0 0.05 -135 -377)" d="M 6422.3,7974.08 C 6374.69,7945.9 6313.24,7961.62 6285.14,8009.15 C 6272.4,8030.71 6268.19,8057.12 6273.6,8081.6 " />
<path stroke="transparent" fill="#000000" transform="matrix(0.05 0 0 0.05 -135 -377)" d="M 6469.2,8038.8 C 6469.2,8038.8 6396.11,7979.23 6396.11,7979.23 C 6396.11,7979.23 6414.19,7980.07 6422.3,7974.08 C 6430.42,7968.08 6435.09,7950.43 6435.09,7950.43 C 6435.09,7950.43 6469.2,8038.8 6469.2,8038.8 C 6469.2,8038.8 6469.2,8038.8 6469.2,8038.8 " />
<path stroke="#000000" stroke-width="1" fill="transparent" transform="matrix(0.05 0 0 0.05 -135 -377)" d="M 6469.2,8038.8 C 6469.2,8038.8 6396.11,7979.23 6396.11,7979.23 C 6396.11,7979.23 6414.19,7980.07 6422.3,7974.08 C 6430.42,7968.08 6435.09,7950.43 6435.09,7950.43 C 6435.09,7950.43 6469.2,8038.8 6469.2,8038.8 C 6469.2,8038.8 6469.2,8038.8 6469.2,8038.8 " />
<text x="0" y="0" stroke="transparent" fill="#000000" transform="matrix(0.05 0 0 0.05 177.074 43.4864)" style="font:normal normal normal 200px 'Helvetica'" >
O</text>
<path stroke="transparent" fill="#000000" transform="matrix(0.05 0 0 0.05 -135 -377)" d="M 6239.72,8257.76 L 6231.23,8266.25 L 6106.81,8141.7 L 6107.8,8134.2 L 6121.82,8139.74 L 6239.72,8257.76 Z " />
<path stroke="transparent" fill="#000000" transform="matrix(0.05 0 0 0.05 -135 -377)" d="M 5901.53,8544.17 L 5890.87,8554.63 L 5854.87,8296.32 L 5858.4,8278.2 L 5864.9,8281.37 L 5901.53,8544.17 Z " />
<path stroke="transparent" fill="#000000" transform="matrix(0.05 0 0 0.05 -135 -377)" d="M 6177.23,8587.79 L 6180.6,8594.4 L 6176.84,8599.88 L 5890.87,8554.63 L 5901.53,8544.17 L 6177.23,8587.79 Z " />
<path stroke="transparent" fill="#000000" transform="matrix(0.05 0 0 0.05 -135 -377)" d="M 6255.79,8433.75 L 6266.48,8439.2 L 6187.43,8594.22 L 6180.6,8594.4 L 6177.23,8587.79 L 6255.79,8433.75 Z " />
<path stroke="transparent" fill="#000000" transform="matrix(0.05 0 0 0.05 -135 -377)" d="M 6329.8,8840.81 L 6319.4,8846.81 L 6176.84,8599.88 L 6180.6,8594.4 L 6187.43,8594.22 L 6329.8,8840.81 Z " />
</svg>
