<?xml version="1.0" standalone="no" ?>
<!DOCTYPE svg PUBLIC "-//W3C//DTD SVG 1.1//EN" "http://www.w3.org/Graphics/SVG/1.1/DTD/svg11.dtd">
<svg width="462px" height="68px" viewBox="0 0 462 68" style="background-color: #ffffff00" xmlns="http://www.w3.org/2000/svg" xmlns:xlink="http://www.w3.org/1999/xlink" version="1.1" >
<path stroke="transparent" fill="#000000" transform="matrix(0.05 0 0 0.05 -51 -254)" d="M 3964,5640.47 L 3964,5654.33 L 3717.6,5796.6 L 3711.6,5786.2 L 3964,5640.47 Z " />
<path stroke="transparent" fill="#000000" transform="matrix(0.05 0 0 0.05 -51 -254)" d="M 4213.4,5784.47 L 4213.4,5791.4 L 4205.2,5793.6 L 3964,5654.33 L 3964,5640.47 L 4213.4,5784.47 Z " />
<path stroke="transparent" fill="#000000" transform="matrix(0.05 0 0 0.05 -51 -254)" d="M 4462.6,5640.47 L 4462.6,5654.33 L 4217.79,5795.79 L 4213.4,5791.4 L 4213.4,5784.47 L 4462.6,5640.47 Z " />
<text x="0" y="0" stroke="transparent" fill="#000000" transform="matrix(0.05 0 0 0.05 181.104 39.1564)" style="font:normal normal normal 200px 'Helvetica'" >
O</text>
<path stroke="transparent" fill="#000000" transform="matrix(0.05 0 0 0.05 -51 -254)" d="M 4623.71,5733.5 L 4617.71,5743.89 L 4462.6,5654.33 L 4462.6,5640.47 L 4623.71,5733.5 Z " />
<path stroke="transparent" fill="#000000" transform="matrix(0.05 0 0 0.05 -51 -254)" d="M 4961.4,5640.47 L 4961.4,5654.33 L 4806.45,5743.8 L 4800.45,5733.4 L 4961.4,5640.47 Z " />
<path stroke="transparent" fill="#000000" transform="matrix(0.05 0 0 0.05 -51 -254)" d="M 5213.8,5786.2 L 5207.8,5796.6 L 4961.4,5654.33 L 4961.4,5640.47 L 5213.8,5786.2 Z " />
<text x="0" y="0" stroke="transparent" fill="#000000" transform="matrix(0.05 0 0 0.05 143.704 17.5564)" style="font:normal normal normal 200px 'Helvetica'" >
O</text>
<path stroke="transparent" fill="#000000" transform="matrix(0.05 0 0 0.05 -51 -254)" d="M 3932.08,5469.72 L 3944.08,5469.72 L 3944.08,5662.37 L 3932.08,5662.37 L 3932.08,5469.72 Z " />
<path stroke="transparent" fill="#000000" transform="matrix(0.05 0 0 0.05 -51 -254)" d="M 3983.92,5469.72 L 3995.92,5469.72 L 3995.92,5662.37 L 3983.92,5662.37 L 3983.92,5469.72 Z " />
<text x="0" y="0" stroke="transparent" fill="#000000" transform="matrix(0.05 0 0 0.05 168.634 17.5564)" style="font:normal normal normal 200px 'Helvetica'" >
O</text>
<path stroke="transparent" fill="#000000" transform="matrix(0.05 0 0 0.05 -51 -254)" d="M 4430.68,5469.72 L 4442.68,5469.72 L 4442.68,5662.38 L 4430.68,5662.38 L 4430.68,5469.72 Z " />
<path stroke="transparent" fill="#000000" transform="matrix(0.05 0 0 0.05 -51 -254)" d="M 4482.52,5469.72 L 4494.52,5469.72 L 4494.52,5662.37 L 4482.52,5662.37 L 4482.52,5469.72 Z " />
<text x="0" y="0" stroke="transparent" fill="#000000" transform="matrix(0.05 0 0 0.05 149.623 51.6264)" style="font:normal normal normal 200px 'Helvetica'" >
H</text>
<path stroke="transparent" fill="#000000" transform="matrix(0.05 0 0 0.05 -51 -254)" d="M 4136.47,5936.64 L 4126.08,5930.64 L 4205.2,5793.6 L 4213.4,5791.4 L 4217.79,5795.79 L 4136.47,5936.64 Z " />
<path stroke="transparent" fill="#000000" transform="matrix(0.05 0 0 0.05 -51 -254)" d="M 4226.33,5878 A 16.6659,16.6659 0 1 0 4259.67,5878A 16.6659,16.6659 0 1 0 4226.33,5878Z " />
<path stroke="transparent" fill="#000000" transform="matrix(0.05 0 0 0.05 -51 -254)" d="M 4281.13,5826.8 A 16.6659,16.6659 0 1 0 4314.47,5826.8A 16.6659,16.6659 0 1 0 4281.13,5826.8Z " />
<path stroke="#000000" stroke-width="10" fill="transparent" transform="matrix(0.05 0 0 0.05 -51 -254)" d="M 4289.73,5951.73 A 71.7999,71.7999 0 1 0 4433.33,5951.73A 71.7999,71.7999 0 1 0 4289.73,5951.73Z " />
<path stroke="transparent" fill="#000000" transform="matrix(0.05 0 0 0.05 -51 -254)" d="M 4321.87,5946.4 L 4400.53,5946.4 L 4400.53,5956.4 L 4321.87,5956.4 Z " />
<path stroke="#000000" stroke-width="12" fill="transparent" transform="matrix(0.05 0 0 0.05 -51 -254)" d="M 4377.2,6014.97 C 4453.88,6022.39 4522.03,5966.24 4529.31,5889.64 C 4533.54,5845.23 4514.98,5799.39 4481.02,5770.35 " />
<path stroke="transparent" fill="#000000" transform="matrix(0.05 0 0 0.05 -51 -254)" d="M 4403.6,5737.43 C 4403.6,5737.43 4502.48,5751.93 4502.48,5751.93 C 4502.48,5751.93 4485.58,5760.22 4481.02,5770.35 C 4476.46,5780.48 4481.67,5798.17 4481.67,5798.17 C 4481.67,5798.17 4403.6,5737.43 4403.6,5737.43 C 4403.6,5737.43 4403.6,5737.43 4403.6,5737.43 " />
<path stroke="#000000" stroke-width="1" fill="transparent" transform="matrix(0.05 0 0 0.05 -51 -254)" d="M 4403.6,5737.43 C 4403.6,5737.43 4502.48,5751.93 4502.48,5751.93 C 4502.48,5751.93 4485.58,5760.22 4481.02,5770.35 C 4476.46,5780.48 4481.67,5798.17 4481.67,5798.17 C 4481.67,5798.17 4403.6,5737.43 4403.6,5737.43 C 4403.6,5737.43 4403.6,5737.43 4403.6,5737.43 " />
<path stroke="#000000" stroke-width="12" fill="transparent" transform="matrix(0.05 0 0 0.05 -51 -254)" d="M 4313.61,5400.52 C 4271.21,5441.39 4270.02,5508.92 4310.97,5551.25 C 4330.84,5571.79 4359.2,5583.8 4387.8,5583.8 " />
<path stroke="transparent" fill="#000000" transform="matrix(0.05 0 0 0.05 -51 -254)" d="M 4387.8,5370.6 C 4387.8,5370.6 4312.56,5426.99 4312.56,5426.99 C 4312.56,5426.99 4317.59,5409.77 4313.61,5400.52 C 4309.63,5391.27 4293.46,5382.6 4293.46,5382.6 C 4293.46,5382.6 4387.8,5370.6 4387.8,5370.6 C 4387.8,5370.6 4387.8,5370.6 4387.8,5370.6 " />
<path stroke="#000000" stroke-width="1" fill="transparent" transform="matrix(0.05 0 0 0.05 -51 -254)" d="M 4387.8,5370.6 C 4387.8,5370.6 4312.56,5426.99 4312.56,5426.99 C 4312.56,5426.99 4317.59,5409.77 4313.61,5400.52 C 4309.63,5391.27 4293.46,5382.6 4293.46,5382.6 C 4293.46,5382.6 4387.8,5370.6 4387.8,5370.6 C 4387.8,5370.6 4387.8,5370.6 4387.8,5370.6 " />
<path stroke="transparent" fill="#000000" transform="matrix(0.05 0 0 0.05 -51 -254)" d="M 5990.6,5653.6 L 5545.2,5653.6 L 5545.2,5641.6 L 5990.6,5641.6 Z " />
<path stroke="transparent" fill="#000000" transform="matrix(0.05 0 0 0.05 -51 -254)" d="M 6094.6,5647.6 C 6094.6,5647.6 5974.6,5678.6 5974.6,5678.6 C 5974.6,5678.6 5989.6,5661.16 5989.6,5647.6 C 5989.6,5633.6 5974.6,5615.6 5974.6,5615.6 C 5974.6,5615.6 6094.6,5647.6 6094.6,5647.6 C 6094.6,5647.6 6094.6,5647.6 6094.6,5647.6 " />
<path stroke="#000000" stroke-width="1" fill="transparent" transform="matrix(0.05 0 0 0.05 -51 -254)" d="M 6094.6,5647.6 C 6094.6,5647.6 5974.6,5678.6 5974.6,5678.6 C 5974.6,5678.6 5989.6,5661.16 5989.6,5647.6 C 5989.6,5633.6 5974.6,5615.6 5974.6,5615.6 C 5974.6,5615.6 6094.6,5647.6 6094.6,5647.6 C 6094.6,5647.6 6094.6,5647.6 6094.6,5647.6 " />
<path stroke="transparent" fill="#000000" transform="matrix(0.05 0 0 0.05 -51 -254)" d="M 5441.2,5647.6 C 5441.2,5647.6 5561.2,5679.6 5561.2,5679.6 C 5561.2,5679.6 5546.2,5661.6 5546.2,5647.6 C 5546.2,5634.04 5561.2,5616.6 5561.2,5616.6 C 5561.2,5616.6 5441.2,5647.6 5441.2,5647.6 C 5441.2,5647.6 5441.2,5647.6 5441.2,5647.6 " />
<path stroke="#000000" stroke-width="1" fill="transparent" transform="matrix(0.05 0 0 0.05 -51 -254)" d="M 5441.2,5647.6 C 5441.2,5647.6 5561.2,5679.6 5561.2,5679.6 C 5561.2,5679.6 5546.2,5661.6 5546.2,5647.6 C 5546.2,5634.04 5561.2,5616.6 5561.2,5616.6 C 5561.2,5616.6 5441.2,5647.6 5441.2,5647.6 C 5441.2,5647.6 5441.2,5647.6 5441.2,5647.6 " />
<path stroke="transparent" fill="#000000" transform="matrix(0.05 0 0 0.05 -51 -254)" d="M 6404,5651.67 L 6404,5665.53 L 6157.6,5807.8 L 6151.6,5797.4 L 6404,5651.67 Z " />
<path stroke="transparent" fill="#000000" transform="matrix(0.05 0 0 0.05 -51 -254)" d="M 6653.4,5795.67 L 6653.4,5802.6 L 6647.4,5806.06 L 6404,5665.53 L 6404,5651.67 L 6653.4,5795.67 Z " />
<path stroke="transparent" fill="#000000" transform="matrix(0.05 0 0 0.05 -51 -254)" d="M 6896.6,5655.14 L 6902.6,5658.6 L 6902.6,5665.53 L 6659.4,5806.06 L 6653.4,5802.6 L 6653.4,5795.67 L 6896.6,5655.14 Z " />
<path stroke="transparent" fill="#000000" transform="matrix(0.05 0 0 0.05 -51 -254)" d="M 6847.79,5623.51 L 6853.8,5633.9 L 6656.39,5747.97 L 6650.39,5737.58 L 6847.79,5623.51 Z " />
<text x="0" y="0" stroke="transparent" fill="#000000" transform="matrix(0.05 0 0 0.05 303.104 39.7164)" style="font:normal normal normal 200px 'Helvetica'" >
O</text>
<path stroke="transparent" fill="#000000" transform="matrix(0.05 0 0 0.05 -51 -254)" d="M 7063.71,5744.7 L 7057.71,5755.09 L 6902.6,5665.53 L 6902.6,5658.6 L 6908.6,5655.14 L 7063.71,5744.7 Z " />
<path stroke="transparent" fill="#000000" transform="matrix(0.05 0 0 0.05 -51 -254)" d="M 7401.4,5651.67 L 7401.4,5665.53 L 7246.45,5755 L 7240.45,5744.6 L 7401.4,5651.67 Z " />
<path stroke="transparent" fill="#000000" transform="matrix(0.05 0 0 0.05 -51 -254)" d="M 7653.8,5797.4 L 7647.8,5807.8 L 7401.4,5665.53 L 7401.4,5651.67 L 7653.8,5797.4 Z " />
<text x="0" y="0" stroke="transparent" fill="#000000" transform="matrix(0.05 0 0 0.05 265.704 18.1164)" style="font:normal normal normal 200px 'Helvetica'" >
O</text>
<path stroke="transparent" fill="#000000" transform="matrix(0.05 0 0 0.05 -51 -254)" d="M 6372.08,5480.92 L 6384.08,5480.92 L 6384.08,5673.57 L 6372.08,5673.57 L 6372.08,5480.92 Z " />
<path stroke="transparent" fill="#000000" transform="matrix(0.05 0 0 0.05 -51 -254)" d="M 6423.92,5480.92 L 6435.92,5480.92 L 6435.92,5673.57 L 6423.92,5673.57 L 6423.92,5480.92 Z " />
<text x="0" y="0" stroke="transparent" fill="#000000" transform="matrix(0.05 0 0 0.05 290.634 18.1164)" style="font:normal normal normal 200px 'Helvetica'" >
O</text>
<path stroke="transparent" fill="#000000" transform="matrix(0.05 0 0 0.05 -51 -254)" d="M 6896.6,5480.92 L 6908.6,5480.92 L 6908.6,5655.14 L 6902.6,5658.6 L 6896.6,5655.14 L 6896.6,5480.92 Z " />
<text x="0" y="0" stroke="transparent" fill="#000000" transform="matrix(0.05 0 0 0.05 278.823 54.1164)" style="font:normal normal normal 200px 'Helvetica'" >
H</text>
<path stroke="transparent" fill="#000000" transform="matrix(0.05 0 0 0.05 -51 -254)" d="M 6659.4,5985.87 L 6647.4,5985.87 L 6647.4,5806.06 L 6653.4,5802.6 L 6659.4,5806.06 L 6659.4,5985.87 Z " />
<path stroke="transparent" fill="#000000" transform="matrix(0.05 0 0 0.05 -51 -254)" d="M 4354.14,5214.8 A 16.6563,16.6563 0 1 0 4387.46,5214.8A 16.6563,16.6563 0 1 0 4354.14,5214.8Z " />
<path stroke="transparent" fill="#000000" transform="matrix(0.05 0 0 0.05 -51 -254)" d="M 4301.14,5267.8 A 16.6563,16.6563 0 1 0 4334.46,5267.8A 16.6563,16.6563 0 1 0 4301.14,5267.8Z " />
<path stroke="transparent" fill="#000000" transform="matrix(0.05 0 0 0.05 -51 -254)" d="M 4596.34,5277.4 A 16.6612,16.6612 0 1 0 4629.66,5277.4A 16.6612,16.6612 0 1 0 4596.34,5277.4Z " />
<path stroke="transparent" fill="#000000" transform="matrix(0.05 0 0 0.05 -51 -254)" d="M 4546.94,5221 A 16.6612,16.6612 0 1 0 4580.26,5221A 16.6612,16.6612 0 1 0 4546.94,5221Z " />
<path stroke="transparent" fill="#000000" transform="matrix(0.05 0 0 0.05 -51 -254)" d="M 6728.33,5333.2 A 16.6667,16.6667 0 1 0 6761.67,5333.2A 16.6667,16.6667 0 1 0 6728.33,5333.2Z " />
<path stroke="transparent" fill="#000000" transform="matrix(0.05 0 0 0.05 -51 -254)" d="M 6728.33,5408.2 A 16.6667,16.6667 0 1 0 6761.67,5408.2A 16.6667,16.6667 0 1 0 6728.33,5408.2Z " />
<path stroke="transparent" fill="#000000" transform="matrix(0.05 0 0 0.05 -51 -254)" d="M 6923.53,5213 A 16.6667,16.6667 0 1 0 6956.87,5213A 16.6667,16.6667 0 1 0 6923.53,5213Z " />
<path stroke="transparent" fill="#000000" transform="matrix(0.05 0 0 0.05 -51 -254)" d="M 6848.53,5213 A 16.6667,16.6667 0 1 0 6881.87,5213A 16.6667,16.6667 0 1 0 6848.53,5213Z " />
<path stroke="transparent" fill="#000000" transform="matrix(0.05 0 0 0.05 -51 -254)" d="M 6923.53,5213 A 16.6667,16.6667 0 1 0 6956.87,5213A 16.6667,16.6667 0 1 0 6923.53,5213Z " />
<path stroke="transparent" fill="#000000" transform="matrix(0.05 0 0 0.05 -51 -254)" d="M 6848.53,5213 A 16.6667,16.6667 0 1 0 6881.87,5213A 16.6667,16.6667 0 1 0 6848.53,5213Z " />
<path stroke="transparent" fill="#000000" transform="matrix(0.05 0 0 0.05 -51 -254)" d="M 7041.13,5424.6 A 16.6681,16.6681 0 1 0 7074.47,5424.6A 16.6681,16.6681 0 1 0 7041.13,5424.6Z " />
<path stroke="transparent" fill="#000000" transform="matrix(0.05 0 0 0.05 -51 -254)" d="M 7048.93,5350 A 16.6681,16.6681 0 1 0 7082.27,5350A 16.6681,16.6681 0 1 0 7048.93,5350Z " />
<path stroke="#000000" stroke-width="10" fill="transparent" transform="matrix(0.05 0 0 0.05 -51 -254)" d="M 7007.13,5211.73 A 71.7999,71.7999 0 1 0 7150.73,5211.73A 71.7999,71.7999 0 1 0 7007.13,5211.73Z " />
<path stroke="transparent" fill="#000000" transform="matrix(0.05 0 0 0.05 -51 -254)" d="M 7039.27,5206.4 L 7117.93,5206.4 L 7117.93,5216.4 L 7039.27,5216.4 Z " />
<path stroke="#000000" stroke-width="12" fill="transparent" transform="matrix(0.05 0 0 0.05 -51 -254)" d="M 7083.04,5596.13 C 7143.39,5598.31 7194.14,5551.11 7196.33,5490.76 C 7197.41,5460.84 7185.6,5430.74 7164.46,5409.54 " />
<path stroke="transparent" fill="#000000" transform="matrix(0.05 0 0 0.05 -51 -254)" d="M 7009.54,5564.06 C 7009.54,5564.06 7103.7,5578.71 7103.7,5578.71 C 7103.7,5578.71 7087.29,5586.94 7083.04,5596.13 C 7078.8,5605.32 7083.38,5622.71 7083.38,5622.71 C 7083.38,5622.71 7009.54,5564.06 7009.54,5564.06 C 7009.54,5564.06 7009.54,5564.06 7009.54,5564.06 " />
<path stroke="#000000" stroke-width="1" fill="transparent" transform="matrix(0.05 0 0 0.05 -51 -254)" d="M 7009.54,5564.06 C 7009.54,5564.06 7103.7,5578.71 7103.7,5578.71 C 7103.7,5578.71 7087.29,5586.94 7083.04,5596.13 C 7078.8,5605.32 7083.38,5622.71 7083.38,5622.71 C 7083.38,5622.71 7009.54,5564.06 7009.54,5564.06 C 7009.54,5564.06 7009.54,5564.06 7009.54,5564.06 " />
<path stroke="#000000" stroke-width="12" fill="transparent" transform="matrix(0.05 0 0 0.05 -51 -254)" d="M 6739.2,5639.4 C 6739.2,5576.81 6688.39,5526 6625.8,5526 C 6595.08,5526 6564.65,5539.08 6543.51,5561.37 " />
<path stroke="transparent" fill="#000000" transform="matrix(0.05 0 0 0.05 -51 -254)" d="M 6512.4,5639.4 C 6512.4,5639.4 6524.66,5540.34 6524.66,5540.34 C 6524.66,5540.34 6533.32,5557.05 6543.51,5561.37 C 6553.7,5565.7 6571.25,5560.12 6571.25,5560.12 C 6571.25,5560.12 6512.4,5639.4 6512.4,5639.4 C 6512.4,5639.4 6512.4,5639.4 6512.4,5639.4 " />
<path stroke="#000000" stroke-width="1" fill="transparent" transform="matrix(0.05 0 0 0.05 -51 -254)" d="M 6512.4,5639.4 C 6512.4,5639.4 6524.66,5540.34 6524.66,5540.34 C 6524.66,5540.34 6533.32,5557.05 6543.51,5561.37 C 6553.7,5565.7 6571.25,5560.12 6571.25,5560.12 C 6571.25,5560.12 6512.4,5639.4 6512.4,5639.4 C 6512.4,5639.4 6512.4,5639.4 6512.4,5639.4 " />
<path stroke="#000000" stroke-width="12" fill="transparent" transform="matrix(0.05 0 0 0.05 -51 -254)" d="M 6244.2,5395.13 C 6204.86,5435.87 6205.99,5500.86 6246.73,5540.2 C 6265.63,5558.46 6291.72,5569 6318,5569 " />
<path stroke="transparent" fill="#000000" transform="matrix(0.05 0 0 0.05 -51 -254)" d="M 6318,5363.8 C 6318,5363.8 6243.6,5421.69 6243.6,5421.69 C 6243.6,5421.69 6248.35,5404.35 6244.2,5395.13 C 6240.04,5385.9 6223.7,5377.52 6223.7,5377.52 C 6223.7,5377.52 6318,5363.8 6318,5363.8 C 6318,5363.8 6318,5363.8 6318,5363.8 " />
<path stroke="#000000" stroke-width="1" fill="transparent" transform="matrix(0.05 0 0 0.05 -51 -254)" d="M 6318,5363.8 C 6318,5363.8 6243.6,5421.69 6243.6,5421.69 C 6243.6,5421.69 6248.35,5404.35 6244.2,5395.13 C 6240.04,5385.9 6223.7,5377.52 6223.7,5377.52 C 6223.7,5377.52 6318,5363.8 6318,5363.8 C 6318,5363.8 6318,5363.8 6318,5363.8 " />
<path stroke="transparent" fill="#000000" transform="matrix(0.05 0 0 0.05 -51 -254)" d="M 3984.73,5201.8 A 16.6667,16.6667 0 1 0 4018.07,5201.8A 16.6667,16.6667 0 1 0 3984.73,5201.8Z " />
<path stroke="transparent" fill="#000000" transform="matrix(0.05 0 0 0.05 -51 -254)" d="M 3909.73,5201.8 A 16.6667,16.6667 0 1 0 3943.07,5201.8A 16.6667,16.6667 0 1 0 3909.73,5201.8Z " />
<path stroke="transparent" fill="#000000" transform="matrix(0.05 0 0 0.05 -51 -254)" d="M 4104.93,5397 A 16.6667,16.6667 0 1 0 4138.27,5397A 16.6667,16.6667 0 1 0 4104.93,5397Z " />
<path stroke="transparent" fill="#000000" transform="matrix(0.05 0 0 0.05 -51 -254)" d="M 4104.93,5322 A 16.6667,16.6667 0 1 0 4138.27,5322A 16.6667,16.6667 0 1 0 4104.93,5322Z " />
<path stroke="transparent" fill="#000000" transform="matrix(0.05 0 0 0.05 -51 -254)" d="M 6424.73,5213 A 16.6667,16.6667 0 1 0 6458.07,5213A 16.6667,16.6667 0 1 0 6424.73,5213Z " />
<path stroke="transparent" fill="#000000" transform="matrix(0.05 0 0 0.05 -51 -254)" d="M 6349.73,5213 A 16.6667,16.6667 0 1 0 6383.07,5213A 16.6667,16.6667 0 1 0 6349.73,5213Z " />
<path stroke="transparent" fill="#000000" transform="matrix(0.05 0 0 0.05 -51 -254)" d="M 6544.93,5408.2 A 16.6667,16.6667 0 1 0 6578.27,5408.2A 16.6667,16.6667 0 1 0 6544.93,5408.2Z " />
<path stroke="transparent" fill="#000000" transform="matrix(0.05 0 0 0.05 -51 -254)" d="M 6544.93,5333.2 A 16.6667,16.6667 0 1 0 6578.27,5333.2A 16.6667,16.6667 0 1 0 6544.93,5333.2Z " />
<path stroke="transparent" fill="#000000" transform="matrix(0.05 0 0 0.05 -51 -254)" d="M 8330.8,5653.6 L 7890.8,5653.6 L 7890.8,5641.6 L 8330.8,5641.6 Z " />
<path stroke="transparent" fill="#000000" transform="matrix(0.05 0 0 0.05 -51 -254)" d="M 8434.8,5647.6 C 8434.8,5647.6 8314.8,5678.6 8314.8,5678.6 C 8314.8,5678.6 8329.8,5661.16 8329.8,5647.6 C 8329.8,5633.6 8314.8,5615.6 8314.8,5615.6 C 8314.8,5615.6 8434.8,5647.6 8434.8,5647.6 C 8434.8,5647.6 8434.8,5647.6 8434.8,5647.6 " />
<path stroke="#000000" stroke-width="1" fill="transparent" transform="matrix(0.05 0 0 0.05 -51 -254)" d="M 8434.8,5647.6 C 8434.8,5647.6 8314.8,5678.6 8314.8,5678.6 C 8314.8,5678.6 8329.8,5661.16 8329.8,5647.6 C 8329.8,5633.6 8314.8,5615.6 8314.8,5615.6 C 8314.8,5615.6 8434.8,5647.6 8434.8,5647.6 C 8434.8,5647.6 8434.8,5647.6 8434.8,5647.6 " />
<path stroke="transparent" fill="#000000" transform="matrix(0.05 0 0 0.05 -51 -254)" d="M 7786.8,5647.6 C 7786.8,5647.6 7906.8,5679.6 7906.8,5679.6 C 7906.8,5679.6 7891.8,5661.6 7891.8,5647.6 C 7891.8,5634.04 7906.8,5616.6 7906.8,5616.6 C 7906.8,5616.6 7786.8,5647.6 7786.8,5647.6 C 7786.8,5647.6 7786.8,5647.6 7786.8,5647.6 " />
<path stroke="#000000" stroke-width="1" fill="transparent" transform="matrix(0.05 0 0 0.05 -51 -254)" d="M 7786.8,5647.6 C 7786.8,5647.6 7906.8,5679.6 7906.8,5679.6 C 7906.8,5679.6 7891.8,5661.6 7891.8,5647.6 C 7891.8,5634.04 7906.8,5616.6 7906.8,5616.6 C 7906.8,5616.6 7786.8,5647.6 7786.8,5647.6 C 7786.8,5647.6 7786.8,5647.6 7786.8,5647.6 " />
<path stroke="transparent" fill="#000000" transform="matrix(0.05 0 0 0.05 -51 -254)" d="M 8839.6,5706.34 L 8845.6,5709.8 L 8845.6,5716.73 L 8599.2,5859 L 8593.2,5848.6 L 8839.6,5706.34 Z " />
<path stroke="transparent" fill="#000000" transform="matrix(0.05 0 0 0.05 -51 -254)" d="M 9095,5846.87 L 9095,5853.8 L 9089,5857.26 L 8845.6,5716.73 L 8845.6,5709.8 L 8851.6,5706.34 L 9095,5846.87 Z " />
<path stroke="transparent" fill="#000000" transform="matrix(0.05 0 0 0.05 -51 -254)" d="M 9097.99,5788.74 L 9091.99,5799.13 L 8894.44,5685.07 L 8900.44,5674.68 L 9097.99,5788.74 Z " />
<path stroke="transparent" fill="#000000" transform="matrix(0.05 0 0 0.05 -51 -254)" d="M 9344.2,5702.87 L 9344.2,5716.73 L 9101,5857.26 L 9095,5853.8 L 9095,5846.87 L 9344.2,5702.87 Z " />
<text x="0" y="0" stroke="transparent" fill="#000000" transform="matrix(0.05 0 0 0.05 425.184 42.2764)" style="font:normal normal normal 200px 'Helvetica'" >
O</text>
<path stroke="transparent" fill="#000000" transform="matrix(0.05 0 0 0.05 -51 -254)" d="M 9505.31,5795.9 L 9499.31,5806.29 L 9344.2,5716.73 L 9344.2,5702.87 L 9505.31,5795.9 Z " />
<path stroke="transparent" fill="#000000" transform="matrix(0.05 0 0 0.05 -51 -254)" d="M 9843,5702.87 L 9843,5716.73 L 9688.05,5806.2 L 9682.05,5795.8 L 9843,5702.87 Z " />
<path stroke="transparent" fill="#000000" transform="matrix(0.05 0 0 0.05 -51 -254)" d="M 10095.4,5848.6 L 10089.4,5859 L 9843,5716.73 L 9843,5702.87 L 10095.4,5848.6 Z " />
<text x="0" y="0" stroke="transparent" fill="#000000" transform="matrix(0.05 0 0 0.05 387.784 20.6764)" style="font:normal normal normal 200px 'Helvetica'" >
O</text>
<path stroke="transparent" fill="#000000" transform="matrix(0.05 0 0 0.05 -51 -254)" d="M 8839.6,5532.12 L 8851.6,5532.12 L 8851.6,5706.34 L 8845.6,5709.8 L 8839.6,5706.34 L 8839.6,5532.12 Z " />
<text x="0" y="0" stroke="transparent" fill="#000000" transform="matrix(0.05 0 0 0.05 412.714 20.6764)" style="font:normal normal normal 200px 'Helvetica'" >
O</text>
<path stroke="transparent" fill="#000000" transform="matrix(0.05 0 0 0.05 -51 -254)" d="M 9312.28,5532.12 L 9324.28,5532.12 L 9324.28,5724.78 L 9312.28,5724.78 L 9312.28,5532.12 Z " />
<path stroke="transparent" fill="#000000" transform="matrix(0.05 0 0 0.05 -51 -254)" d="M 9364.12,5532.12 L 9376.12,5532.12 L 9376.12,5724.77 L 9364.12,5724.77 L 9364.12,5532.12 Z " />
<path stroke="transparent" fill="#000000" transform="matrix(0.05 0 0 0.05 -51 -254)" d="M 9235.74,5277.2 A 16.6564,16.6564 0 1 0 9269.06,5277.2A 16.6564,16.6564 0 1 0 9235.74,5277.2Z " />
<path stroke="transparent" fill="#000000" transform="matrix(0.05 0 0 0.05 -51 -254)" d="M 9182.74,5330.2 A 16.6564,16.6564 0 1 0 9216.06,5330.2A 16.6564,16.6564 0 1 0 9182.74,5330.2Z " />
<path stroke="transparent" fill="#000000" transform="matrix(0.05 0 0 0.05 -51 -254)" d="M 9477.94,5339.8 A 16.6612,16.6612 0 1 0 9511.26,5339.8A 16.6612,16.6612 0 1 0 9477.94,5339.8Z " />
<path stroke="transparent" fill="#000000" transform="matrix(0.05 0 0 0.05 -51 -254)" d="M 9428.54,5283.4 A 16.6612,16.6612 0 1 0 9461.86,5283.4A 16.6612,16.6612 0 1 0 9428.54,5283.4Z " />
<path stroke="transparent" fill="#000000" transform="matrix(0.05 0 0 0.05 -51 -254)" d="M 8866.33,5264.2 A 16.6667,16.6667 0 1 0 8899.67,5264.2A 16.6667,16.6667 0 1 0 8866.33,5264.2Z " />
<path stroke="transparent" fill="#000000" transform="matrix(0.05 0 0 0.05 -51 -254)" d="M 8791.33,5264.2 A 16.6667,16.6667 0 1 0 8824.67,5264.2A 16.6667,16.6667 0 1 0 8791.33,5264.2Z " />
<path stroke="transparent" fill="#000000" transform="matrix(0.05 0 0 0.05 -51 -254)" d="M 8986.53,5459.2 A 16.6667,16.6667 0 1 0 9019.87,5459.2A 16.6667,16.6667 0 1 0 8986.53,5459.2Z " />
<path stroke="transparent" fill="#000000" transform="matrix(0.05 0 0 0.05 -51 -254)" d="M 8986.53,5384.2 A 16.6667,16.6667 0 1 0 9019.87,5384.2A 16.6667,16.6667 0 1 0 8986.53,5384.2Z " />
<text x="0" y="0" stroke="transparent" fill="#000000" transform="matrix(0.05 0 0 0.05 400.903 56.6764)" style="font:normal normal normal 200px 'Helvetica'" >
H</text>
<path stroke="transparent" fill="#000000" transform="matrix(0.05 0 0 0.05 -51 -254)" d="M 9101,6037.07 L 9089,6037.07 L 9089,5857.26 L 9095,5853.8 L 9101,5857.26 L 9101,6037.07 Z " />
<path stroke="transparent" fill="#000000" transform="matrix(0.05 0 0 0.05 -51 -254)" d="M 8671.33,5384.2 A 16.6667,16.6667 0 1 0 8704.67,5384.2A 16.6667,16.6667 0 1 0 8671.33,5384.2Z " />
<path stroke="transparent" fill="#000000" transform="matrix(0.05 0 0 0.05 -51 -254)" d="M 8671.33,5459.2 A 16.6667,16.6667 0 1 0 8704.67,5459.2A 16.6667,16.6667 0 1 0 8671.33,5459.2Z " />
<path stroke="#000000" stroke-width="10" fill="transparent" transform="matrix(0.05 0 0 0.05 -51 -254)" d="M 8568.93,5232.33 A 71.7999,71.7999 0 1 0 8712.53,5232.33A 71.7999,71.7999 0 1 0 8568.93,5232.33Z " />
<path stroke="transparent" fill="#000000" transform="matrix(0.05 0 0 0.05 -51 -254)" d="M 8601.07,5227 L 8679.73,5227 L 8679.73,5237 L 8601.07,5237 Z " />
<path stroke="#000000" stroke-width="12" fill="transparent" transform="matrix(0.05 0 0 0.05 -51 -254)" d="M 10122.2,5145.4 L 10195.2,5145.4 " />
<path stroke="#000000" stroke-width="12" fill="transparent" transform="matrix(0.05 0 0 0.05 -51 -254)" d="M 10195.2,5145.4 L 10195.2,6149.8 " />
<path stroke="#000000" stroke-width="12" fill="transparent" transform="matrix(0.05 0 0 0.05 -51 -254)" d="M 10195.2,6149.8 L 10122.2,6149.8 " />
<path stroke="#000000" stroke-width="12" fill="transparent" transform="matrix(0.05 0 0 0.05 -51 -254)" d="M 3680.21,6149.8 L 3607.2,6149.8 " />
<path stroke="#000000" stroke-width="12" fill="transparent" transform="matrix(0.05 0 0 0.05 -51 -254)" d="M 3607.2,6149.8 L 3607.2,5145.4 " />
<path stroke="#000000" stroke-width="12" fill="transparent" transform="matrix(0.05 0 0 0.05 -51 -254)" d="M 3607.2,5145.4 L 3680.21,5145.4 " />
<path stroke="transparent" fill="#000000" transform="matrix(0.05 0 0 0.05 -51 -254)" d="M 1318.2,5593.07 L 1318.2,5606.93 L 1071.8,5749.2 L 1065.8,5738.8 L 1318.2,5593.07 Z " />
<path stroke="transparent" fill="#000000" transform="matrix(0.05 0 0 0.05 -51 -254)" d="M 1567.6,5737.07 L 1567.6,5744 L 1559.4,5746.2 L 1318.2,5606.93 L 1318.2,5593.07 L 1567.6,5737.07 Z " />
<path stroke="transparent" fill="#000000" transform="matrix(0.05 0 0 0.05 -51 -254)" d="M 1817,5593.07 L 1817,5606.93 L 1575.8,5746.2 L 1567.6,5744 L 1567.6,5737.07 L 1817,5593.07 Z " />
<text x="0" y="0" stroke="transparent" fill="#000000" transform="matrix(0.05 0 0 0.05 48.8239 36.7864)" style="font:normal normal normal 200px 'Helvetica'" >
O</text>
<path stroke="transparent" fill="#000000" transform="matrix(0.05 0 0 0.05 -51 -254)" d="M 1978.11,5686.1 L 1972.11,5696.49 L 1817,5606.93 L 1817,5593.07 L 1978.11,5686.1 Z " />
<path stroke="transparent" fill="#000000" transform="matrix(0.05 0 0 0.05 -51 -254)" d="M 2315.8,5593.07 L 2315.8,5606.93 L 2160.85,5696.4 L 2154.85,5686 L 2315.8,5593.07 Z " />
<path stroke="transparent" fill="#000000" transform="matrix(0.05 0 0 0.05 -51 -254)" d="M 2568.2,5738.8 L 2562.2,5749.2 L 2315.8,5606.93 L 2315.8,5593.07 L 2568.2,5738.8 Z " />
<text x="0" y="0" stroke="transparent" fill="#000000" transform="matrix(0.05 0 0 0.05 11.4139 15.1864)" style="font:normal normal normal 200px 'Helvetica'" >
O</text>
<path stroke="transparent" fill="#000000" transform="matrix(0.05 0 0 0.05 -51 -254)" d="M 1286.28,5422.32 L 1298.28,5422.32 L 1298.28,5614.97 L 1286.28,5614.97 L 1286.28,5422.32 Z " />
<path stroke="transparent" fill="#000000" transform="matrix(0.05 0 0 0.05 -51 -254)" d="M 1338.12,5422.32 L 1350.12,5422.32 L 1350.12,5614.97 L 1338.12,5614.97 L 1338.12,5422.32 Z " />
<text x="0" y="0" stroke="transparent" fill="#000000" transform="matrix(0.05 0 0 0.05 36.3539 15.1864)" style="font:normal normal normal 200px 'Helvetica'" >
O</text>
<path stroke="transparent" fill="#000000" transform="matrix(0.05 0 0 0.05 -51 -254)" d="M 1785.08,5422.32 L 1797.08,5422.32 L 1797.08,5614.97 L 1785.08,5614.97 L 1785.08,5422.32 Z " />
<path stroke="transparent" fill="#000000" transform="matrix(0.05 0 0 0.05 -51 -254)" d="M 1836.92,5422.32 L 1848.92,5422.32 L 1848.92,5614.97 L 1836.92,5614.97 L 1836.92,5422.32 Z " />
<path stroke="transparent" fill="#000000" transform="matrix(0.05 0 0 0.05 -51 -254)" d="M 3364.8,5670 L 2748.8,5670 L 2748.8,5658 L 3364.8,5658 Z " />
<path stroke="transparent" fill="#000000" transform="matrix(0.05 0 0 0.05 -51 -254)" d="M 3468.8,5664 C 3468.8,5664 3348.8,5695 3348.8,5695 C 3348.8,5695 3363.8,5677.56 3363.8,5664 C 3363.8,5650 3348.8,5632 3348.8,5632 C 3348.8,5632 3468.8,5664 3468.8,5664 C 3468.8,5664 3468.8,5664 3468.8,5664 " />
<path stroke="#000000" stroke-width="1" fill="transparent" transform="matrix(0.05 0 0 0.05 -51 -254)" d="M 3468.8,5664 C 3468.8,5664 3348.8,5695 3348.8,5695 C 3348.8,5695 3363.8,5677.56 3363.8,5664 C 3363.8,5650 3348.8,5632 3348.8,5632 C 3348.8,5632 3468.8,5664 3468.8,5664 C 3468.8,5664 3468.8,5664 3468.8,5664 " />
<text x="0" y="0" stroke="transparent" fill="#000000" transform="matrix(0.05 0 0 0.05 74.1639 59.8664)" style="font:normal normal normal 200px 'Helvetica'" >
OEt</text>
<path stroke="transparent" fill="#000000" transform="matrix(0.05 0 0 0.05 -51 -254)" d="M 2398.93,6166.2 A 16.6667,16.6667 0 1 0 2432.27,6166.2A 16.6667,16.6667 0 1 0 2398.93,6166.2Z " />
<path stroke="transparent" fill="#000000" transform="matrix(0.05 0 0 0.05 -51 -254)" d="M 2398.93,6241.2 A 16.6667,16.6667 0 1 0 2432.27,6241.2A 16.6667,16.6667 0 1 0 2398.93,6241.2Z " />
<path stroke="transparent" fill="#000000" transform="matrix(0.05 0 0 0.05 -51 -254)" d="M 2594.13,6046 A 16.6667,16.6667 0 1 0 2627.47,6046A 16.6667,16.6667 0 1 0 2594.13,6046Z " />
<path stroke="transparent" fill="#000000" transform="matrix(0.05 0 0 0.05 -51 -254)" d="M 2519.13,6046 A 16.6667,16.6667 0 1 0 2552.47,6046A 16.6667,16.6667 0 1 0 2519.13,6046Z " />
<path stroke="transparent" fill="#000000" transform="matrix(0.05 0 0 0.05 -51 -254)" d="M 2519.13,6361.2 A 16.6667,16.6667 0 1 0 2552.47,6361.2A 16.6667,16.6667 0 1 0 2519.13,6361.2Z " />
<path stroke="transparent" fill="#000000" transform="matrix(0.05 0 0 0.05 -51 -254)" d="M 2594.13,6361.2 A 16.6667,16.6667 0 1 0 2627.47,6361.2A 16.6667,16.6667 0 1 0 2594.13,6361.2Z " />
<path stroke="#000000" stroke-width="10" fill="transparent" transform="matrix(0.05 0 0 0.05 -51 -254)" d="M 2270.73,6024.33 A 71.7999,71.7999 0 1 0 2414.33,6024.33A 71.7999,71.7999 0 1 0 2270.73,6024.33Z " />
<path stroke="transparent" fill="#000000" transform="matrix(0.05 0 0 0.05 -51 -254)" d="M 2302.87,6019 L 2381.53,6019 L 2381.53,6029 L 2302.87,6029 Z " />
<text x="0" y="0" stroke="transparent" fill="#000000" transform="matrix(0.05 0 0 0.05 17.3333 49.2564)" style="font:normal normal normal 200px 'Helvetica'" >
H</text>
<path stroke="transparent" fill="#000000" transform="matrix(0.05 0 0 0.05 -51 -254)" d="M 1490.67,5889.24 L 1480.28,5883.24 L 1559.4,5746.2 L 1567.6,5744 L 1567.6,5756 L 1490.67,5889.24 Z " />
<text x="0" y="0" stroke="transparent" fill="#000000" transform="matrix(0.05 0 0 0.05 31.7333 49.2564)" style="font:normal normal normal 200px 'Helvetica'" >
H</text>
<path stroke="transparent" fill="#000000" transform="matrix(0.05 0 0 0.05 -51 -254)" d="M 1655.18,5883.68 L 1644.78,5889.68 L 1567.6,5756 L 1567.6,5744 L 1575.8,5746.2 L 1655.18,5883.68 Z " />
<path stroke="#000000" stroke-width="12" fill="transparent" transform="matrix(0.05 0 0 0.05 -51 -254)" d="M 1835.5,6120.55 C 1920.03,6261.14 2102.76,6306.64 2243.35,6222.1 C 2264.1,6209.63 2283.31,6194.61 2300.42,6177.48 " />
<path stroke="transparent" fill="#000000" transform="matrix(0.05 0 0 0.05 -51 -254)" d="M 1803.15,6044.41 C 1803.15,6044.41 1862.87,6121.19 1862.87,6121.19 C 1862.87,6121.19 1845.3,6116.14 1835.5,6120.55 C 1825.69,6124.96 1817.37,6141.67 1817.37,6141.67 C 1817.37,6141.67 1803.15,6044.41 1803.15,6044.41 C 1803.15,6044.41 1803.15,6044.41 1803.15,6044.41 " />
<path stroke="#000000" stroke-width="1" fill="transparent" transform="matrix(0.05 0 0 0.05 -51 -254)" d="M 1803.15,6044.41 C 1803.15,6044.41 1862.87,6121.19 1862.87,6121.19 C 1862.87,6121.19 1845.3,6116.14 1835.5,6120.55 C 1825.69,6124.96 1817.37,6141.67 1817.37,6141.67 C 1817.37,6141.67 1803.15,6044.41 1803.15,6044.41 C 1803.15,6044.41 1803.15,6044.41 1803.15,6044.41 " />
<path stroke="#000000" stroke-width="12" fill="transparent" transform="matrix(0.05 0 0 0.05 -51 -254)" d="M 1669.61,5867.82 C 1704.67,5850.66 1719.19,5808.28 1702.03,5773.22 C 1695.39,5759.64 1684.28,5748.32 1670.83,5741.41 " />
<path stroke="transparent" fill="#000000" transform="matrix(0.05 0 0 0.05 -51 -254)" d="M 1596.78,5747.23 C 1596.78,5747.23 1678.74,5718.42 1678.74,5718.42 C 1678.74,5718.42 1669.8,5732.84 1670.83,5741.41 C 1671.86,5749.98 1684.07,5762.73 1684.07,5762.73 C 1684.07,5762.73 1596.78,5747.23 1596.78,5747.23 C 1596.78,5747.23 1596.78,5747.23 1596.78,5747.23 " />
<path stroke="#000000" stroke-width="1" fill="transparent" transform="matrix(0.05 0 0 0.05 -51 -254)" d="M 1596.78,5747.23 C 1596.78,5747.23 1678.74,5718.42 1678.74,5718.42 C 1678.74,5718.42 1669.8,5732.84 1670.83,5741.41 C 1671.86,5749.98 1684.07,5762.73 1684.07,5762.73 C 1684.07,5762.73 1596.78,5747.23 1596.78,5747.23 C 1596.78,5747.23 1596.78,5747.23 1596.78,5747.23 " />
</svg>
