<svg version="1.1" viewBox="0.0 0.0 600.0 371.0" fill="none" stroke="none" stroke-linecap="square" stroke-miterlimit="10" width="600" height="371" xmlns:xlink="http://www.w3.org/1999/xlink" xmlns="http://www.w3.org/2000/svg"><path fill="#ffffff" d="M0 0L600.0 0L600.0 371.0L0 371.0L0 0Z" fill-rule="nonzero"/><path stroke="#333333" stroke-width="1.0" stroke-linecap="butt" d="M105.5 274.5L581.5 274.5" fill-rule="nonzero"/><path stroke="#cccccc" stroke-width="1.0" stroke-linecap="butt" d="M105.5 221.5L581.5 221.5" fill-rule="nonzero"/><path stroke="#cccccc" stroke-width="1.0" stroke-linecap="butt" d="M105.5 168.5L581.5 168.5" fill-rule="nonzero"/><path stroke="#cccccc" stroke-width="1.0" stroke-linecap="butt" d="M105.5 115.5L581.5 115.5" fill-rule="nonzero"/><path stroke="#cccccc" stroke-width="1.0" stroke-linecap="butt" d="M105.5 62.5L581.5 62.5" fill-rule="nonzero"/><clipPath id="id_0"><path d="M105.55 62.416668L581.45 62.416668L581.45 274.45L105.55 274.45L105.55 62.416668Z" clip-rule="nonzero"/></clipPath><path stroke="#000000" stroke-width="0.0" stroke-linecap="butt" stroke-opacity="0.0" clip-path="url(#id_0)" d="M195.0 274.0L137.0 274.0L137.0 170.0C137.0 168.89543 137.89543 168.0 139.0 168.0L193.0 168.0C194.10457 168.0 195.0 168.89543 195.0 170.0Z" fill-rule="nonzero"/><path fill="#dbf0f5" clip-path="url(#id_0)" d="M195.0 274.0L137.0 274.0L137.0 170.0C137.0 168.89543 137.89543 168.0 139.0 168.0L193.0 168.0C194.10457 168.0 195.0 168.89543 195.0 170.0Z" fill-rule="nonzero"/><path stroke="#000000" stroke-width="0.0" stroke-linecap="butt" stroke-opacity="0.0" clip-path="url(#id_0)" d="M284.0 274.0L226.0 274.0L226.0 223.0C226.0 221.89543 226.89543 221.0 228.0 221.0L282.0 221.0C283.10458 221.0 284.0 221.89543 284.0 223.0Z" fill-rule="nonzero"/><path fill="#dbf0f5" clip-path="url(#id_0)" d="M284.0 274.0L226.0 274.0L226.0 223.0C226.0 221.89543 226.89543 221.0 228.0 221.0L282.0 221.0C283.10458 221.0 284.0 221.89543 284.0 223.0Z" fill-rule="nonzero"/><path stroke="#000000" stroke-width="0.0" stroke-linecap="butt" stroke-opacity="0.0" clip-path="url(#id_0)" d="M373.0 274.0L315.0 274.0L315.0 64.0C315.0 62.89543 315.89542 62.0 317.0 62.0L371.0 62.0C372.10458 62.0 373.0 62.89543 373.0 64.0Z" fill-rule="nonzero"/><path fill="#dbf0f5" clip-path="url(#id_0)" d="M373.0 274.0L315.0 274.0L315.0 64.0C315.0 62.89543 315.89542 62.0 317.0 62.0L371.0 62.0C372.10458 62.0 373.0 62.89543 373.0 64.0Z" fill-rule="nonzero"/><path stroke="#000000" stroke-width="0.0" stroke-linecap="butt" stroke-opacity="0.0" clip-path="url(#id_0)" d="M461.0 274.0L403.0 274.0L403.0 170.0C403.0 168.89543 403.89542 168.0 405.0 168.0L459.0 168.0C460.10458 168.0 461.0 168.89543 461.0 170.0Z" fill-rule="nonzero"/><path fill="#dbf0f5" clip-path="url(#id_0)" d="M461.0 274.0L403.0 274.0L403.0 170.0C403.0 168.89543 403.89542 168.0 405.0 168.0L459.0 168.0C460.10458 168.0 461.0 168.89543 461.0 170.0Z" fill-rule="nonzero"/><path stroke="#000000" stroke-width="0.0" stroke-linecap="butt" stroke-opacity="0.0" clip-path="url(#id_0)" d="M550.0 274.0L492.0 274.0L492.0 223.0C492.0 221.89543 492.89542 221.0 494.0 221.0L548.0 221.0C549.10455 221.0 550.0 221.89543 550.0 223.0Z" fill-rule="nonzero"/><path fill="#dbf0f5" clip-path="url(#id_0)" d="M550.0 274.0L492.0 274.0L492.0 223.0C492.0 221.89543 492.89542 221.0 494.0 221.0L548.0 221.0C549.10455 221.0 550.0 221.89543 550.0 223.0Z" fill-rule="nonzero"/><path fill="#000000" d="M327.46875 348.45L332.42188 335.5594L334.26562 335.5594L339.53125 348.45L337.59375 348.45L336.09375 344.54376L330.70312 344.54376L329.28125 348.45L327.46875 348.45ZM331.1875 343.15314L335.5625 343.15314L334.21875 339.59064Q333.59375 337.96564 333.29688 336.91876Q333.0625 338.15314 332.60938 339.3719L331.1875 343.15314ZM340.39062 349.23126L341.9375 349.45Q342.03125 350.16876 342.46875 350.4969Q343.0625 350.9344 344.07812 350.9344Q345.17188 350.9344 345.76562 350.48126Q346.375 350.04376 346.57812 349.2625Q346.70312 348.77814 346.70312 347.23126Q345.65625 348.45 344.10938 348.45Q342.1875 348.45 341.125 347.0594Q340.07812 345.66876 340.07812 343.73126Q340.07812 342.3875 340.5625 341.2625Q341.04688 340.1375 341.96875 339.52814Q342.89062 338.90314 344.125 338.90314Q345.78125 338.90314 346.84375 340.2469L346.84375 339.1219L348.3125 339.1219L348.3125 347.1844Q348.3125 349.3719 347.85938 350.27814Q347.42188 351.1844 346.45312 351.7Q345.5 352.23126 344.09375 352.23126Q342.42188 352.23126 341.39062 351.48126Q340.35938 350.73126 340.39062 349.23126ZM341.70312 343.6219Q341.70312 345.45 342.4375 346.29376Q343.17188 347.1375 344.26562 347.1375Q345.35938 347.1375 346.09375 346.3094Q346.82812 345.46564 346.82812 343.66876Q346.82812 341.95 346.0625 341.09064Q345.3125 340.21564 344.23438 340.21564Q343.1875 340.21564 342.4375 341.075Q341.70312 341.9344 341.70312 343.6219ZM357.07812 345.45L358.71875 345.65314Q358.32812 347.075 357.28125 347.8719Q356.23438 348.66876 354.60938 348.66876Q352.5625 348.66876 351.35938 347.40314Q350.15625 346.1375 350.15625 343.85626Q350.15625 341.5125 351.35938 340.21564Q352.57812 338.90314 354.51562 338.90314Q356.39062 338.90314 357.57812 340.1844Q358.76562 341.45 358.76562 343.7625Q358.76562 343.90314 358.75 344.1844L351.79688 344.1844Q351.875 345.73126 352.65625 346.54376Q353.45312 347.35626 354.60938 347.35626Q355.48438 347.35626 356.09375 346.90314Q356.71875 346.45 357.07812 345.45ZM351.875 342.8875L357.09375 342.8875Q356.98438 341.71564 356.5 341.1219Q355.73438 340.2 354.53125 340.2Q353.45312 340.2 352.70312 340.9344Q351.96875 341.66876 351.875 342.8875Z" fill-rule="nonzero"/><path fill="#000000" d="M35.55001 263.79272L22.659388 263.79272L22.659388 258.93335Q22.659388 257.6521 22.784388 256.98022Q22.940638 256.0271 23.393763 255.38646Q23.831263 254.74583 24.643763 254.35521Q25.440638 253.96458 26.393763 253.96458Q28.034388 253.96458 29.175013 255.01146Q30.315638 256.05835 30.315638 258.7771L30.315638 262.0896L35.55001 262.0896L35.55001 263.79272ZM28.784388 262.0896L28.784388 258.76147Q28.784388 257.10522 28.175013 256.41772Q27.565638 255.71458 26.440638 255.71458Q25.628138 255.71458 25.065638 256.12085Q24.487513 256.5271 24.300013 257.19897Q24.190638 257.63647 24.190638 258.79272L24.190638 262.0896L28.784388 262.0896ZM32.55001 245.60521L32.753136 243.96458Q34.17501 244.35521 34.971886 245.40208Q35.76876 246.44896 35.76876 248.07396Q35.76876 250.12083 34.503136 251.32396Q33.23751 252.52708 30.956263 252.52708Q28.612513 252.52708 27.315638 251.32396Q26.003138 250.10521 26.003138 248.16771Q26.003138 246.29271 27.284388 245.10521Q28.550013 243.91771 30.862513 243.91771Q31.003138 243.91771 31.284388 243.93333L31.284388 250.88646Q32.83126 250.80833 33.64376 250.02708Q34.45626 249.23021 34.45626 248.07396Q34.45626 247.19896 34.003136 246.58958Q33.55001 245.96458 32.55001 245.60521ZM29.987513 250.80833L29.987513 245.58958Q28.815638 245.69896 28.221888 246.18333Q27.300013 246.94896 27.300013 248.15208Q27.300013 249.23021 28.034388 249.98021Q28.768763 250.71458 29.987513 250.80833ZM35.55001 242.01146L26.221888 242.01146L26.221888 240.58958L27.628138 240.58958Q26.643763 240.04271 26.331263 239.58958Q26.003138 239.12083 26.003138 238.57396Q26.003138 237.76146 26.518763 236.94896L27.987513 237.48021Q27.643763 238.07396 27.643763 238.65208Q27.643763 239.16771 27.956263 239.58958Q28.268763 239.99583 28.815638 240.16771Q29.659388 240.43333 30.659388 240.43333L35.55001 240.43333L35.55001 242.01146ZM32.128136 229.90208L32.33126 228.35521Q33.940636 228.60521 34.86251 229.65208Q35.76876 230.69896 35.76876 232.23021Q35.76876 234.15208 34.51876 235.32396Q33.253136 236.48021 30.925013 236.48021Q29.409388 236.48021 28.284388 235.98021Q27.143763 235.48021 26.581263 234.46458Q26.003138 233.43333 26.003138 232.23021Q26.003138 230.69896 26.784388 229.74583Q27.550013 228.77708 28.956263 228.49583L29.190638 230.04271Q28.253138 230.26146 27.784388 230.82396Q27.300013 231.37083 27.300013 232.16771Q27.300013 233.35521 28.159388 234.10521Q29.018763 234.85521 30.878138 234.85521Q32.753136 234.85521 33.61251 234.13646Q34.45626 233.41771 34.45626 232.24583Q34.45626 231.32396 33.89376 230.69896Q33.315636 230.07396 32.128136 229.90208ZM32.55001 220.60521L32.753136 218.96458Q34.17501 219.35521 34.971886 220.40208Q35.76876 221.44896 35.76876 223.07396Q35.76876 225.12083 34.503136 226.32396Q33.23751 227.52708 30.956263 227.52708Q28.612513 227.52708 27.315638 226.32396Q26.003138 225.10521 26.003138 223.16771Q26.003138 221.29271 27.284388 220.10521Q28.550013 218.91771 30.862513 218.91771Q31.003138 218.91771 31.284388 218.93333L31.284388 225.88646Q32.83126 225.80833 33.64376 225.02708Q34.45626 224.23021 34.45626 223.07396Q34.45626 222.19896 34.003136 221.58958Q33.55001 220.96458 32.55001 220.60521ZM29.987513 225.80833L29.987513 220.58958Q28.815638 220.69896 28.221888 221.18333Q27.300013 221.94896 27.300013 223.15208Q27.300013 224.23021 28.034388 224.98021Q28.768763 225.71458 29.987513 225.80833ZM35.55001 216.99583L26.221888 216.99583L26.221888 215.57396L27.550013 215.57396Q26.003138 214.54271 26.003138 212.60521Q26.003138 211.76146 26.315638 211.05833Q26.612513 210.33958 27.112513 209.99583Q27.596888 209.63646 28.268763 209.49583Q28.706263 209.41771 29.815638 209.41771L35.55001 209.41771L35.55001 210.99583L29.878138 210.99583Q28.909388 210.99583 28.425013 211.18333Q27.940638 211.35521 27.659388 211.83958Q27.378138 212.30833 27.378138 212.93333Q27.378138 213.94896 28.018763 214.68333Q28.659388 215.41771 30.456263 215.41771L35.55001 215.41771L35.55001 216.99583ZM34.128136 203.54271L35.534386 203.30833Q35.67501 203.98021 35.67501 204.51146Q35.67501 205.37083 35.409386 205.85521Q35.128136 206.32396 34.690636 206.51146Q34.23751 206.69896 32.815636 206.69896L27.440638 206.69896L27.440638 207.87083L26.221888 207.87083L26.221888 206.69896L23.909388 206.69896L22.956263 205.13646L26.221888 205.13646L26.221888 203.54271L27.440638 203.54271L27.440638 205.13646L32.909386 205.13646Q33.58126 205.13646 33.784386 205.05833Q33.971886 204.96458 34.08126 204.77708Q34.190636 204.58958 34.190636 204.23021Q34.190636 203.98021 34.128136 203.54271ZM30.878138 197.58958Q28.284388 197.58958 27.034388 196.13646Q26.003138 194.93333 26.003138 193.21458Q26.003138 191.27708 27.268763 190.05833Q28.534388 188.83958 30.753138 188.83958Q32.55001 188.83958 33.58126 189.38646Q34.61251 189.91771 35.190636 190.94896Q35.76876 191.98021 35.76876 193.21458Q35.76876 195.16771 34.51876 196.38646Q33.253136 197.58958 30.878138 197.58958ZM30.878138 195.96458Q32.67501 195.96458 33.565636 195.18333Q34.45626 194.40208 34.45626 193.21458Q34.45626 192.02708 33.565636 191.24583Q32.659386 190.46458 30.831263 190.46458Q29.096888 190.46458 28.206263 191.26146Q27.315638 192.04271 27.315638 193.21458Q27.315638 194.40208 28.206263 195.18333Q29.096888 195.96458 30.878138 195.96458ZM35.55001 186.62083L27.440638 186.62083L27.440638 188.01146L26.221888 188.01146L26.221888 186.62083L25.221888 186.62083Q24.284388 186.62083 23.831263 186.44896Q23.206263 186.23021 22.831263 185.65208Q22.440638 185.07396 22.440638 184.02708Q22.440638 183.37083 22.596888 182.55833L23.987513 182.79271Q23.893763 183.29271 23.893763 183.73021Q23.893763 184.44896 24.206263 184.74583Q24.503138 185.04271 25.346888 185.04271L26.221888 185.04271L26.221888 183.23021L27.440638 183.23021L27.440638 185.04271L35.55001 185.04271L35.55001 186.62083ZM31.034388 167.60521L31.456263 165.90208Q33.565636 166.43333 34.67501 167.82396Q35.76876 169.21458 35.76876 171.23021Q35.76876 173.30833 34.92501 174.62083Q34.065636 175.91771 32.471886 176.60521Q30.862513 177.29271 29.003138 177.29271Q27.003138 177.29271 25.503138 176.52708Q24.003138 175.74583 23.221888 174.32396Q22.440638 172.90208 22.440638 171.19896Q22.440638 169.27708 23.425013 167.96458Q24.409388 166.63646 26.190638 166.12083L26.596888 167.79271Q25.190638 168.24583 24.550013 169.10521Q23.909388 169.94896 23.909388 171.24583Q23.909388 172.73021 24.628138 173.73021Q25.331263 174.71458 26.534388 175.12083Q27.721888 175.52708 29.003138 175.52708Q30.643763 175.52708 31.878138 175.05833Q33.096886 174.57396 33.70626 173.55833Q34.315636 172.54271 34.315636 171.37083Q34.315636 169.93333 33.48751 168.94896Q32.659386 167.94896 31.034388 167.60521ZM35.55001 157.88646L34.17501 157.88646Q35.76876 158.96458 35.76876 160.83958Q35.76876 161.66771 35.45626 162.38646Q35.128136 163.10521 34.659386 163.44896Q34.17501 163.79271 33.471886 163.93333Q33.003136 164.02708 32.003136 164.02708L26.221888 164.02708L26.221888 162.44896L31.393763 162.44896Q32.628136 162.44896 33.065636 162.35521Q33.690636 162.19896 34.05001 161.71458Q34.39376 161.23021 34.39376 160.52708Q34.39376 159.80833 34.034386 159.18333Q33.67501 158.55833 33.05001 158.30833Q32.409386 158.04271 31.221888 158.04271L26.221888 158.04271L26.221888 156.46458L35.55001 156.46458L35.55001 157.88646ZM32.76876 154.63646L32.51876 153.05833Q33.45626 152.93333 33.95626 152.33958Q34.45626 151.73021 34.45626 150.65208Q34.45626 149.55833 34.01876 149.02708Q33.565636 148.49583 32.971886 148.49583Q32.440636 148.49583 32.128136 148.96458Q31.925013 149.29271 31.596888 150.58958Q31.159388 152.32396 30.846888 152.99583Q30.518763 153.66771 29.956263 154.02708Q29.378138 154.37083 28.690638 154.37083Q28.065638 154.37083 27.534388 154.08958Q27.003138 153.79271 26.659388 153.30833Q26.378138 152.93333 26.190638 152.29271Q26.003138 151.65208 26.003138 150.93333Q26.003138 149.82396 26.331263 148.99583Q26.643763 148.16771 27.190638 147.77708Q27.721888 147.37083 28.628138 147.23021L28.831263 148.77708Q28.112513 148.88646 27.706263 149.38646Q27.300013 149.88646 27.300013 150.80833Q27.300013 151.90208 27.659388 152.37083Q28.018763 152.83958 28.503138 152.83958Q28.815638 152.83958 29.065638 152.63646Q29.315638 152.44896 29.487513 152.04271Q29.565638 151.79271 29.893763 150.63646Q30.331263 148.96458 30.628138 148.30833Q30.909388 147.63646 31.456263 147.26146Q32.003136 146.87083 32.80001 146.87083Q33.596886 146.87083 34.30001 147.33958Q35.003136 147.79271 35.39376 148.66771Q35.76876 149.54271 35.76876 150.63646Q35.76876 152.46458 35.01876 153.41771Q34.253136 154.37083 32.76876 154.63646ZM34.128136 141.54271L35.534386 141.30833Q35.67501 141.98021 35.67501 142.51146Q35.67501 143.37083 35.409386 143.85521Q35.128136 144.32396 34.690636 144.51146Q34.23751 144.69896 32.815636 144.69896L27.440638 144.69896L27.440638 145.87083L26.221888 145.87083L26.221888 144.69896L23.909388 144.69896L22.956263 143.13646L26.221888 143.13646L26.221888 141.54271L27.440638 141.54271L27.440638 143.13646L32.909386 143.13646Q33.58126 143.13646 33.784386 143.05833Q33.971886 142.96458 34.08126 142.77708Q34.190636 142.58958 34.190636 142.23021Q34.190636 141.98021 34.128136 141.54271ZM30.878138 140.58958Q28.284388 140.58958 27.034388 139.13646Q26.003138 137.93333 26.003138 136.21458Q26.003138 134.27708 27.268763 133.05833Q28.534388 131.83958 30.753138 131.83958Q32.55001 131.83958 33.58126 132.38646Q34.61251 132.91771 35.190636 133.94896Q35.76876 134.98021 35.76876 136.21458Q35.76876 138.16771 34.51876 139.38646Q33.253136 140.58958 30.878138 140.58958ZM30.878138 138.96458Q32.67501 138.96458 33.565636 138.18333Q34.45626 137.40208 34.45626 136.21458Q34.45626 135.02708 33.565636 134.24583Q32.659386 133.46458 30.831263 133.46458Q29.096888 133.46458 28.206263 134.26146Q27.315638 135.04271 27.315638 136.21458Q27.315638 137.40208 28.206263 138.18333Q29.096888 138.96458 30.878138 138.96458ZM35.55001 129.99583L26.221888 129.99583L26.221888 128.57396L27.518763 128.57396Q26.846888 128.13646 26.425013 127.41771Q26.003138 126.683334 26.003138 125.745834Q26.003138 124.714584 26.440638 124.058334Q26.862513 123.38646 27.643763 123.120834Q26.003138 122.01146 26.003138 120.23021Q26.003138 118.839584 26.784388 118.10521Q27.550013 117.35521 29.143763 117.35521L35.55001 117.35521L35.55001 118.91771L29.675013 118.91771Q28.721888 118.91771 28.300013 119.07396Q27.878138 119.23021 27.628138 119.63646Q27.378138 120.04271 27.378138 120.589584Q27.378138 121.57396 28.034388 122.23021Q28.690638 122.870834 30.128138 122.870834L35.55001 122.870834L35.55001 124.44896L29.487513 124.44896Q28.425013 124.44896 27.909388 124.839584Q27.378138 125.23021 27.378138 126.10521Q27.378138 126.777084 27.737513 127.339584Q28.081263 127.902084 28.753138 128.16771Q29.425013 128.41771 30.706263 128.41771L35.55001 128.41771L35.55001 129.99583ZM32.55001 108.60521L32.753136 106.964584Q34.17501 107.35521 34.971886 108.402084Q35.76876 109.44896 35.76876 111.07396Q35.76876 113.120834 34.503136 114.32396Q33.23751 115.527084 30.956263 115.527084Q28.612513 115.527084 27.315638 114.32396Q26.003138 113.10521 26.003138 111.16771Q26.003138 109.29271 27.284388 108.10521Q28.550013 106.91771 30.862513 106.91771Q31.003138 106.91771 31.284388 106.933334L31.284388 113.88646Q32.83126 113.808334 33.64376 113.027084Q34.45626 112.23021 34.45626 111.07396Q34.45626 110.19896 34.003136 109.589584Q33.55001 108.964584 32.55001 108.60521ZM29.987513 113.808334L29.987513 108.589584Q28.815638 108.69896 28.221888 109.183334Q27.300013 109.94896 27.300013 111.152084Q27.300013 112.23021 28.034388 112.98021Q28.768763 113.714584 29.987513 113.808334ZM35.55001 105.01146L26.221888 105.01146L26.221888 103.589584L27.628138 103.589584Q26.643763 103.04271 26.331263 102.589584Q26.003138 102.120834 26.003138 101.57396Q26.003138 100.76146 26.518763 99.94896L27.987513 100.48021Q27.643763 101.07396 27.643763 101.652084Q27.643763 102.16771 27.956263 102.589584Q28.268763 102.995834 28.815638 103.16771Q29.659388 103.433334 30.659388 103.433334L35.55001 103.433334L35.55001 105.01146ZM32.76876 99.63646L32.51876 98.058334Q33.45626 97.933334 33.95626 97.339584Q34.45626 96.73021 34.45626 95.652084Q34.45626 94.558334 34.01876 94.027084Q33.565636 93.495834 32.971886 93.495834Q32.440636 93.495834 32.128136 93.964584Q31.925013 94.29271 31.596888 95.589584Q31.159388 97.32396 30.846888 97.995834Q30.518763 98.66771 29.956263 99.027084Q29.378138 99.370834 28.690638 99.370834Q28.065638 99.370834 27.534388 99.089584Q27.003138 98.79271 26.659388 98.308334Q26.378138 97.933334 26.190638 97.29271Q26.003138 96.652084 26.003138 95.933334Q26.003138 94.82396 26.331263 93.995834Q26.643763 93.16771 27.190638 92.777084Q27.721888 92.370834 28.628138 92.23021L28.831263 93.777084Q28.112513 93.88646 27.706263 94.38646Q27.300013 94.88646 27.300013 95.808334Q27.300013 96.902084 27.659388 97.370834Q28.018763 97.839584 28.503138 97.839584Q28.815638 97.839584 29.065638 97.63646Q29.315638 97.44896 29.487513 97.04271Q29.565638 96.79271 29.893763 95.63646Q30.331263 93.964584 30.628138 93.308334Q30.909388 92.63646 31.456263 92.26146Q32.003136 91.870834 32.80001 91.870834Q33.596886 91.870834 34.30001 92.339584Q35.003136 92.79271 35.39376 93.66771Q35.76876 94.54271 35.76876 95.63646Q35.76876 97.464584 35.01876 98.41771Q34.253136 99.370834 32.76876 99.63646Z" fill-rule="nonzero"/><path fill="#000000" d="M87.3 274.59064Q87.3 272.3094 87.76875 270.91876Q88.2375 269.52814 89.15938 268.77814Q90.09688 268.0125 91.50313 268.0125Q92.53438 268.0125 93.31563 268.4344Q94.09688 268.84064 94.59688 269.6375Q95.1125 270.41876 95.40938 271.5594Q95.70625 272.6844 95.70625 274.59064Q95.70625 276.85626 95.2375 278.2625Q94.76875 279.65314 93.83125 280.41876Q92.90938 281.16876 91.50313 281.16876Q89.62813 281.16876 88.56563 279.84064Q87.3 278.23126 87.3 274.59064ZM88.925 274.59064Q88.925 277.7625 89.65938 278.825Q90.40938 279.8719 91.50313 279.8719Q92.58125 279.8719 93.33125 278.825Q94.08125 277.7625 94.08125 274.59064Q94.08125 271.41876 93.33125 270.3719Q92.58125 269.325 91.4875 269.325Q90.39375 269.325 89.7375 270.2469Q88.925 271.41876 88.925 274.59064Z" fill-rule="nonzero"/><path fill="#000000" d="M83.25313 227.94167L81.675 227.94167L81.675 217.86354Q81.09688 218.41042 80.175 218.95729Q79.25313 219.48854 78.50313 219.76979L78.50313 218.23854Q79.83125 217.61354 80.83125 216.72292Q81.83125 215.83229 82.2375 215.00417L83.25313 215.00417L83.25313 227.94167ZM87.3 221.58229Q87.3 219.30104 87.76875 217.91042Q88.2375 216.51979 89.15938 215.76979Q90.09688 215.00417 91.50313 215.00417Q92.53438 215.00417 93.31563 215.42604Q94.09688 215.83229 94.59688 216.62917Q95.1125 217.41042 95.40938 218.55104Q95.70625 219.67604 95.70625 221.58229Q95.70625 223.84792 95.2375 225.25417Q94.76875 226.64479 93.83125 227.41042Q92.90938 228.16042 91.50313 228.16042Q89.62813 228.16042 88.56563 226.83229Q87.3 225.22292 87.3 221.58229ZM88.925 221.58229Q88.925 224.75417 89.65938 225.81667Q90.40938 226.86354 91.50313 226.86354Q92.58125 226.86354 93.33125 225.81667Q94.08125 224.75417 94.08125 221.58229Q94.08125 218.41042 93.33125 217.36354Q92.58125 216.31667 91.4875 216.31667Q90.39375 216.31667 89.7375 217.23854Q88.925 218.41042 88.925 221.58229Z" fill-rule="nonzero"/><path fill="#000000" d="M85.6125 173.41771L85.6125 174.93333L77.09688 174.93333Q77.08125 174.35521 77.28438 173.83958Q77.6125 172.96458 78.31563 172.12083Q79.03438 171.27708 80.39375 170.16771Q82.4875 168.44896 83.22188 167.44896Q83.97188 166.43333 83.97188 165.54271Q83.97188 164.58958 83.3 163.94896Q82.62813 163.30833 81.55 163.30833Q80.39375 163.30833 79.70625 163.99583Q79.03438 164.68333 79.01875 165.88646L77.39375 165.71458Q77.56563 163.90208 78.64375 162.94896Q79.7375 161.99583 81.58125 161.99583Q83.425 161.99583 84.50313 163.02708Q85.59688 164.05833 85.59688 165.57396Q85.59688 166.33958 85.26875 167.08958Q84.95625 167.83958 84.22188 168.66771Q83.4875 169.49583 81.78438 170.93333Q80.3625 172.13646 79.95625 172.55833Q79.55 172.98021 79.3 173.41771L85.6125 173.41771ZM87.3 168.57396Q87.3 166.29271 87.76875 164.90208Q88.2375 163.51146 89.15938 162.76146Q90.09688 161.99583 91.50313 161.99583Q92.53438 161.99583 93.31563 162.41771Q94.09688 162.82396 94.59688 163.62083Q95.1125 164.40208 95.40938 165.54271Q95.70625 166.66771 95.70625 168.57396Q95.70625 170.83958 95.2375 172.24583Q94.76875 173.63646 93.83125 174.40208Q92.90938 175.15208 91.50313 175.15208Q89.62813 175.15208 88.56563 173.82396Q87.3 172.21458 87.3 168.57396ZM88.925 168.57396Q88.925 171.74583 89.65938 172.80833Q90.40938 173.85521 91.50313 173.85521Q92.58125 173.85521 93.33125 172.80833Q94.08125 171.74583 94.08125 168.57396Q94.08125 165.40208 93.33125 164.35521Q92.58125 163.30833 91.4875 163.30833Q90.39375 163.30833 89.7375 164.23021Q88.925 165.40208 88.925 168.57396Z" fill-rule="nonzero"/><path fill="#000000" d="M77.3 118.51875L78.89375 118.31563Q79.15938 119.65938 79.81563 120.25313Q80.47188 120.84688 81.40938 120.84688Q82.53438 120.84688 83.3 120.08125Q84.06563 119.3 84.06563 118.15938Q84.06563 117.06563 83.34688 116.3625Q82.64375 115.64375 81.55 115.64375Q81.09688 115.64375 80.425 115.83125L80.59688 114.44063Q80.75313 114.45625 80.8625 114.45625Q81.8625 114.45625 82.675 113.925Q83.4875 113.39375 83.4875 112.3Q83.4875 111.425 82.89375 110.8625Q82.3 110.28438 81.37813 110.28438Q80.45625 110.28438 79.83125 110.8625Q79.22188 111.44063 79.05 112.6125L77.47188 112.33125Q77.75313 110.7375 78.78438 109.8625Q79.81563 108.9875 81.34688 108.9875Q82.39375 108.9875 83.28438 109.44063Q84.175 109.89375 84.64375 110.675Q85.1125 111.45625 85.1125 112.33125Q85.1125 113.175 84.65938 113.8625Q84.22188 114.53438 83.33125 114.94063Q84.47188 115.20625 85.09688 116.05Q85.7375 116.87813 85.7375 118.1125Q85.7375 119.8 84.50313 120.9875Q83.28438 122.15938 81.40938 122.15938Q79.70625 122.15938 78.58125 121.14375Q77.47188 120.12813 77.3 118.51875ZM87.3 115.56563Q87.3 113.28438 87.76875 111.89375Q88.2375 110.50313 89.15938 109.75313Q90.09688 108.9875 91.50313 108.9875Q92.53438 108.9875 93.31563 109.40938Q94.09688 109.81563 94.59688 110.6125Q95.1125 111.39375 95.40938 112.53438Q95.70625 113.65938 95.70625 115.56563Q95.70625 117.83125 95.2375 119.2375Q94.76875 120.62813 93.83125 121.39375Q92.90938 122.14375 91.50313 122.14375Q89.62813 122.14375 88.56563 120.81563Q87.3 119.20625 87.3 115.56563ZM88.925 115.56563Q88.925 118.7375 89.65938 119.8Q90.40938 120.84688 91.50313 120.84688Q92.58125 120.84688 93.33125 119.8Q94.08125 118.7375 94.08125 115.56563Q94.08125 112.39375 93.33125 111.34688Q92.58125 110.3 91.4875 110.3Q90.39375 110.3 89.7375 111.22188Q88.925 112.39375 88.925 115.56563Z" fill-rule="nonzero"/><path fill="#000000" d="M82.3625 68.916664L82.3625 65.83854L76.78438 65.83854L76.78438 64.385414L82.65938 56.02604L83.95625 56.02604L83.95625 64.385414L85.69063 64.385414L85.69063 65.83854L83.95625 65.83854L83.95625 68.916664L82.3625 68.916664ZM82.3625 64.385414L82.3625 58.572914L78.33125 64.385414L82.3625 64.385414ZM87.3 62.55729Q87.3 60.27604 87.76875 58.885414Q88.2375 57.49479 89.15938 56.74479Q90.09688 55.979164 91.50313 55.979164Q92.53438 55.979164 93.31563 56.40104Q94.09688 56.80729 94.59688 57.604164Q95.1125 58.385414 95.40938 59.52604Q95.70625 60.65104 95.70625 62.55729Q95.70625 64.822914 95.2375 66.229164Q94.76875 67.61979 93.83125 68.385414Q92.90938 69.135414 91.50313 69.135414Q89.62813 69.135414 88.56563 67.80729Q87.3 66.197914 87.3 62.55729ZM88.925 62.55729Q88.925 65.729164 89.65938 66.791664Q90.40938 67.83854 91.50313 67.83854Q92.58125 67.83854 93.33125 66.791664Q94.08125 65.729164 94.08125 62.55729Q94.08125 59.385414 93.33125 58.33854Q92.58125 57.291664 91.4875 57.291664Q90.39375 57.291664 89.7375 58.21354Q88.925 59.385414 88.925 62.55729Z" fill-rule="nonzero"/><path fill="#000000" d="M151.65596 298.9344L151.65596 300.45L143.14034 300.45Q143.12471 299.8719 143.32784 299.35626Q143.65596 298.48126 144.35909 297.6375Q145.07784 296.79376 146.43721 295.6844Q148.53096 293.96564 149.26534 292.96564Q150.01534 291.95 150.01534 291.0594Q150.01534 290.10626 149.34346 289.46564Q148.67159 288.825 147.59346 288.825Q146.43721 288.825 145.74971 289.5125Q145.07784 290.2 145.06221 291.40314L143.43721 291.23126Q143.60909 289.41876 144.68721 288.46564Q145.78096 287.5125 147.62471 287.5125Q149.46846 287.5125 150.54659 288.54376Q151.64034 289.575 151.64034 291.09064Q151.64034 291.85626 151.31221 292.60626Q150.99971 293.35626 150.26534 294.1844Q149.53096 295.0125 147.82784 296.45Q146.40596 297.65314 145.99971 298.075Q145.59346 298.4969 145.34346 298.9344L151.65596 298.9344ZM153.34346 294.09064Q153.34346 291.8094 153.81221 290.41876Q154.28096 289.02814 155.20284 288.27814Q156.14034 287.5125 157.54659 287.5125Q158.57784 287.5125 159.35909 287.9344Q160.14034 288.34064 160.64034 289.1375Q161.15596 289.91876 161.45284 291.0594Q161.74971 292.1844 161.74971 294.09064Q161.74971 296.35626 161.28096 297.7625Q160.81221 299.15314 159.87471 299.91876Q158.95284 300.66876 157.54659 300.66876Q155.67159 300.66876 154.60909 299.34064Q153.34346 297.73126 153.34346 294.09064ZM154.96846 294.09064Q154.96846 297.2625 155.70284 298.325Q156.45284 299.3719 157.54659 299.3719Q158.62471 299.3719 159.37471 298.325Q160.12471 297.2625 160.12471 294.09064Q160.12471 290.91876 159.37471 289.8719Q158.62471 288.825 157.53096 288.825Q156.43721 288.825 155.78096 289.7469Q154.96846 290.91876 154.96846 294.09064ZM163.17159 296.575L163.17159 294.9969L168.03096 294.9969L168.03096 296.575L163.17159 296.575ZM177.65596 298.9344L177.65596 300.45L169.14034 300.45Q169.12471 299.8719 169.32784 299.35626Q169.65596 298.48126 170.35909 297.6375Q171.07784 296.79376 172.43721 295.6844Q174.53096 293.96564 175.26534 292.96564Q176.01534 291.95 176.01534 291.0594Q176.01534 290.10626 175.34346 289.46564Q174.67159 288.825 173.59346 288.825Q172.43721 288.825 171.74971 289.5125Q171.07784 290.2 171.06221 291.40314L169.43721 291.23126Q169.60909 289.41876 170.68721 288.46564Q171.78096 287.5125 173.62471 287.5125Q175.46846 287.5125 176.54659 288.54376Q177.64034 289.575 177.64034 291.09064Q177.64034 291.85626 177.31221 292.60626Q176.99971 293.35626 176.26534 294.1844Q175.53096 295.0125 173.82784 296.45Q172.40596 297.65314 171.99971 298.075Q171.59346 298.4969 171.34346 298.9344L177.65596 298.9344ZM179.57784 297.46564L181.09346 297.325Q181.29659 298.40314 181.82784 298.8875Q182.37471 299.3719 183.23409 299.3719Q183.96846 299.3719 184.51534 299.04376Q185.06221 298.7 185.40596 298.15314Q185.76534 297.59064 185.99971 296.6375Q186.23409 295.6844 186.23409 294.7Q186.23409 294.59064 186.23409 294.3875Q185.74971 295.1375 184.92159 295.60626Q184.10909 296.075 183.15596 296.075Q181.56221 296.075 180.45284 294.91876Q179.34346 293.7625 179.34346 291.85626Q179.34346 289.90314 180.49971 288.71564Q181.65596 287.5125 183.39034 287.5125Q184.65596 287.5125 185.68721 288.2Q186.73409 288.8719 187.26534 290.1219Q187.81221 291.3719 187.81221 293.7469Q187.81221 296.21564 187.26534 297.6844Q186.73409 299.1375 185.67159 299.90314Q184.62471 300.66876 183.20284 300.66876Q181.68721 300.66876 180.71846 299.84064Q179.76534 298.9969 179.57784 297.46564ZM186.06221 291.77814Q186.06221 290.41876 185.32784 289.6219Q184.60909 288.825 183.59346 288.825Q182.53096 288.825 181.74971 289.6844Q180.96846 290.54376 180.96846 291.91876Q180.96846 293.15314 181.70284 293.91876Q182.45284 294.6844 183.54659 294.6844Q184.64034 294.6844 185.34346 293.91876Q186.06221 293.15314 186.06221 291.77814Z" fill-rule="nonzero"/><path fill="#000000" d="M232.29672 297.04376L233.89047 296.84064Q234.1561 298.1844 234.81235 298.77814Q235.4686 299.3719 236.4061 299.3719Q237.5311 299.3719 238.29672 298.60626Q239.06235 297.825 239.06235 296.6844Q239.06235 295.59064 238.3436 294.8875Q237.64047 294.16876 236.54672 294.16876Q236.0936 294.16876 235.42172 294.35626L235.5936 292.96564Q235.74985 292.98126 235.85922 292.98126Q236.85922 292.98126 237.67172 292.45Q238.48422 291.91876 238.48422 290.825Q238.48422 289.95 237.89047 289.3875Q237.29672 288.8094 236.37485 288.8094Q235.45297 288.8094 234.82797 289.3875Q234.2186 289.96564 234.04672 291.1375L232.4686 290.85626Q232.74985 289.2625 233.7811 288.3875Q234.81235 287.5125 236.3436 287.5125Q237.39047 287.5125 238.2811 287.96564Q239.17172 288.41876 239.64047 289.2Q240.10922 289.98126 240.10922 290.85626Q240.10922 291.7 239.6561 292.3875Q239.2186 293.0594 238.32797 293.46564Q239.4686 293.73126 240.0936 294.575Q240.73422 295.40314 240.73422 296.6375Q240.73422 298.325 239.49985 299.5125Q238.2811 300.6844 236.4061 300.6844Q234.70297 300.6844 233.57797 299.66876Q232.4686 298.65314 232.29672 297.04376ZM242.29672 294.09064Q242.29672 291.8094 242.76547 290.41876Q243.23422 289.02814 244.1561 288.27814Q245.0936 287.5125 246.49985 287.5125Q247.5311 287.5125 248.31235 287.9344Q249.0936 288.34064 249.5936 289.1375Q250.10922 289.91876 250.4061 291.0594Q250.70297 292.1844 250.70297 294.09064Q250.70297 296.35626 250.23422 297.7625Q249.76547 299.15314 248.82797 299.91876Q247.9061 300.66876 246.49985 300.66876Q244.62485 300.66876 243.56235 299.34064Q242.29672 297.73126 242.29672 294.09064ZM243.92172 294.09064Q243.92172 297.2625 244.6561 298.325Q245.4061 299.3719 246.49985 299.3719Q247.57797 299.3719 248.32797 298.325Q249.07797 297.2625 249.07797 294.09064Q249.07797 290.91876 248.32797 289.8719Q247.57797 288.825 246.48422 288.825Q245.39047 288.825 244.73422 289.7469Q243.92172 290.91876 243.92172 294.09064ZM252.12485 296.575L252.12485 294.9969L256.98422 294.9969L256.98422 296.575L252.12485 296.575ZM258.29672 297.04376L259.89047 296.84064Q260.1561 298.1844 260.81235 298.77814Q261.4686 299.3719 262.4061 299.3719Q263.5311 299.3719 264.29672 298.60626Q265.06235 297.825 265.06235 296.6844Q265.06235 295.59064 264.3436 294.8875Q263.64047 294.16876 262.54672 294.16876Q262.0936 294.16876 261.42172 294.35626L261.5936 292.96564Q261.74985 292.98126 261.85922 292.98126Q262.85922 292.98126 263.67172 292.45Q264.48422 291.91876 264.48422 290.825Q264.48422 289.95 263.89047 289.3875Q263.29672 288.8094 262.37485 288.8094Q261.45297 288.8094 260.82797 289.3875Q260.2186 289.96564 260.04672 291.1375L258.4686 290.85626Q258.74985 289.2625 259.7811 288.3875Q260.81235 287.5125 262.3436 287.5125Q263.39047 287.5125 264.2811 287.96564Q265.17172 288.41876 265.64047 289.2Q266.10922 289.98126 266.10922 290.85626Q266.10922 291.7 265.6561 292.3875Q265.2186 293.0594 264.32797 293.46564Q265.4686 293.73126 266.0936 294.575Q266.73422 295.40314 266.73422 296.6375Q266.73422 298.325 265.49985 299.5125Q264.2811 300.6844 262.4061 300.6844Q260.70297 300.6844 259.57797 299.66876Q258.4686 298.65314 258.29672 297.04376ZM268.5311 297.46564L270.04672 297.325Q270.24985 298.40314 270.7811 298.8875Q271.32797 299.3719 272.18735 299.3719Q272.92172 299.3719 273.4686 299.04376Q274.01547 298.7 274.35922 298.15314Q274.7186 297.59064 274.95297 296.6375Q275.18735 295.6844 275.18735 294.7Q275.18735 294.59064 275.18735 294.3875Q274.70297 295.1375 273.87485 295.60626Q273.06235 296.075 272.10922 296.075Q270.51547 296.075 269.4061 294.91876Q268.29672 293.7625 268.29672 291.85626Q268.29672 289.90314 269.45297 288.71564Q270.60922 287.5125 272.3436 287.5125Q273.60922 287.5125 274.64047 288.2Q275.68735 288.8719 276.2186 290.1219Q276.76547 291.3719 276.76547 293.7469Q276.76547 296.21564 276.2186 297.6844Q275.68735 299.1375 274.62485 299.90314Q273.57797 300.66876 272.1561 300.66876Q270.64047 300.66876 269.67172 299.84064Q268.7186 298.9969 268.5311 297.46564ZM275.01547 291.77814Q275.01547 290.41876 274.2811 289.6219Q273.56235 288.825 272.54672 288.825Q271.48422 288.825 270.70297 289.6844Q269.92172 290.54376 269.92172 291.91876Q269.92172 293.15314 270.6561 293.91876Q271.4061 294.6844 272.49985 294.6844Q273.5936 294.6844 274.29672 293.91876Q275.01547 293.15314 275.01547 291.77814Z" fill-rule="nonzero"/><path fill="#000000" d="M326.3125 300.45L326.3125 297.3719L320.73438 297.3719L320.73438 295.91876L326.60938 287.5594L327.90625 287.5594L327.90625 295.91876L329.64062 295.91876L329.64062 297.3719L327.90625 297.3719L327.90625 300.45L326.3125 300.45ZM326.3125 295.91876L326.3125 290.10626L322.28125 295.91876L326.3125 295.91876ZM331.25 294.09064Q331.25 291.8094 331.71875 290.41876Q332.1875 289.02814 333.10938 288.27814Q334.04688 287.5125 335.45312 287.5125Q336.48438 287.5125 337.26562 287.9344Q338.04688 288.34064 338.54688 289.1375Q339.0625 289.91876 339.35938 291.0594Q339.65625 292.1844 339.65625 294.09064Q339.65625 296.35626 339.1875 297.7625Q338.71875 299.15314 337.78125 299.91876Q336.85938 300.66876 335.45312 300.66876Q333.57812 300.66876 332.51562 299.34064Q331.25 297.73126 331.25 294.09064ZM332.875 294.09064Q332.875 297.2625 333.60938 298.325Q334.35938 299.3719 335.45312 299.3719Q336.53125 299.3719 337.28125 298.325Q338.03125 297.2625 338.03125 294.09064Q338.03125 290.91876 337.28125 289.8719Q336.53125 288.825 335.4375 288.825Q334.34375 288.825 333.6875 289.7469Q332.875 290.91876 332.875 294.09064ZM341.07812 296.575L341.07812 294.9969L345.9375 294.9969L345.9375 296.575L341.07812 296.575ZM352.3125 300.45L352.3125 297.3719L346.73438 297.3719L346.73438 295.91876L352.60938 287.5594L353.90625 287.5594L353.90625 295.91876L355.64062 295.91876L355.64062 297.3719L353.90625 297.3719L353.90625 300.45L352.3125 300.45ZM352.3125 295.91876L352.3125 290.10626L348.28125 295.91876L352.3125 295.91876ZM357.48438 297.46564L359.0 297.325Q359.20312 298.40314 359.73438 298.8875Q360.28125 299.3719 361.14062 299.3719Q361.875 299.3719 362.42188 299.04376Q362.96875 298.7 363.3125 298.15314Q363.67188 297.59064 363.90625 296.6375Q364.14062 295.6844 364.14062 294.7Q364.14062 294.59064 364.14062 294.3875Q363.65625 295.1375 362.82812 295.60626Q362.01562 296.075 361.0625 296.075Q359.46875 296.075 358.35938 294.91876Q357.25 293.7625 357.25 291.85626Q357.25 289.90314 358.40625 288.71564Q359.5625 287.5125 361.29688 287.5125Q362.5625 287.5125 363.59375 288.2Q364.64062 288.8719 365.17188 290.1219Q365.71875 291.3719 365.71875 293.7469Q365.71875 296.21564 365.17188 297.6844Q364.64062 299.1375 363.57812 299.90314Q362.53125 300.66876 361.10938 300.66876Q359.59375 300.66876 358.625 299.84064Q357.67188 298.9969 357.48438 297.46564ZM363.96875 291.77814Q363.96875 290.41876 363.23438 289.6219Q362.51562 288.825 361.5 288.825Q360.4375 288.825 359.65625 289.6844Q358.875 290.54376 358.875 291.91876Q358.875 293.15314 359.60938 293.91876Q360.35938 294.6844 361.45312 294.6844Q362.54688 294.6844 363.25 293.91876Q363.96875 293.15314 363.96875 291.77814Z" fill-rule="nonzero"/><path fill="#000000" d="M410.20328 297.075L411.85953 296.9344Q412.04703 298.15314 412.7189 298.7625Q413.39078 299.3719 414.3439 299.3719Q415.48453 299.3719 416.26578 298.5125Q417.06265 297.65314 417.06265 296.21564Q417.06265 294.8719 416.29703 294.09064Q415.54703 293.3094 414.31265 293.3094Q413.54703 293.3094 412.92203 293.65314Q412.31265 293.9969 411.9689 294.5594L410.48453 294.35626L411.73453 287.7469L418.14078 287.7469L418.14078 289.2469L413.00015 289.2469L412.29703 292.71564Q413.4689 291.90314 414.73453 291.90314Q416.42203 291.90314 417.57828 293.075Q418.75015 294.2469 418.75015 296.075Q418.75015 297.825 417.7189 299.10626Q416.48453 300.66876 414.3439 300.66876Q412.57828 300.66876 411.4689 299.6844Q410.35953 298.7 410.20328 297.075ZM420.20328 294.09064Q420.20328 291.8094 420.67203 290.41876Q421.14078 289.02814 422.06265 288.27814Q423.00015 287.5125 424.4064 287.5125Q425.43765 287.5125 426.2189 287.9344Q427.00015 288.34064 427.50015 289.1375Q428.01578 289.91876 428.31265 291.0594Q428.60953 292.1844 428.60953 294.09064Q428.60953 296.35626 428.14078 297.7625Q427.67203 299.15314 426.73453 299.91876Q425.81265 300.66876 424.4064 300.66876Q422.5314 300.66876 421.4689 299.34064Q420.20328 297.73126 420.20328 294.09064ZM421.82828 294.09064Q421.82828 297.2625 422.56265 298.325Q423.31265 299.3719 424.4064 299.3719Q425.48453 299.3719 426.23453 298.325Q426.98453 297.2625 426.98453 294.09064Q426.98453 290.91876 426.23453 289.8719Q425.48453 288.825 424.39078 288.825Q423.29703 288.825 422.64078 289.7469Q421.82828 290.91876 421.82828 294.09064ZM430.0314 296.575L430.0314 294.9969L434.89078 294.9969L434.89078 296.575L430.0314 296.575ZM436.20328 297.075L437.85953 296.9344Q438.04703 298.15314 438.7189 298.7625Q439.39078 299.3719 440.3439 299.3719Q441.48453 299.3719 442.26578 298.5125Q443.06265 297.65314 443.06265 296.21564Q443.06265 294.8719 442.29703 294.09064Q441.54703 293.3094 440.31265 293.3094Q439.54703 293.3094 438.92203 293.65314Q438.31265 293.9969 437.9689 294.5594L436.48453 294.35626L437.73453 287.7469L444.14078 287.7469L444.14078 289.2469L439.00015 289.2469L438.29703 292.71564Q439.4689 291.90314 440.73453 291.90314Q442.42203 291.90314 443.57828 293.075Q444.75015 294.2469 444.75015 296.075Q444.75015 297.825 443.7189 299.10626Q442.48453 300.66876 440.3439 300.66876Q438.57828 300.66876 437.4689 299.6844Q436.35953 298.7 436.20328 297.075ZM446.43765 297.46564L447.95328 297.325Q448.1564 298.40314 448.68765 298.8875Q449.23453 299.3719 450.0939 299.3719Q450.82828 299.3719 451.37515 299.04376Q451.92203 298.7 452.26578 298.15314Q452.62515 297.59064 452.85953 296.6375Q453.0939 295.6844 453.0939 294.7Q453.0939 294.59064 453.0939 294.3875Q452.60953 295.1375 451.7814 295.60626Q450.9689 296.075 450.01578 296.075Q448.42203 296.075 447.31265 294.91876Q446.20328 293.7625 446.20328 291.85626Q446.20328 289.90314 447.35953 288.71564Q448.51578 287.5125 450.25015 287.5125Q451.51578 287.5125 452.54703 288.2Q453.5939 288.8719 454.12515 290.1219Q454.67203 291.3719 454.67203 293.7469Q454.67203 296.21564 454.12515 297.6844Q453.5939 299.1375 452.5314 299.90314Q451.48453 300.66876 450.06265 300.66876Q448.54703 300.66876 447.57828 299.84064Q446.62515 298.9969 446.43765 297.46564ZM452.92203 291.77814Q452.92203 290.41876 452.18765 289.6219Q451.4689 288.825 450.45328 288.825Q449.39078 288.825 448.60953 289.6844Q447.82828 290.54376 447.82828 291.91876Q447.82828 293.15314 448.56265 293.91876Q449.31265 294.6844 450.4064 294.6844Q451.50015 294.6844 452.20328 293.91876Q452.92203 293.15314 452.92203 291.77814Z" fill-rule="nonzero"/><path fill="#000000" d="M507.35968 290.71564L505.79718 290.84064Q505.57843 289.91876 505.1878 289.4969Q504.54718 288.8094 503.60968 288.8094Q502.85968 288.8094 502.28156 289.23126Q501.53156 289.77814 501.09406 290.825Q500.67218 291.8719 500.65656 293.8094Q501.23468 292.9344 502.04718 292.5125Q502.8753 292.09064 503.78156 292.09064Q505.3753 292.09064 506.48468 293.2625Q507.59406 294.41876 507.59406 296.2625Q507.59406 297.48126 507.0628 298.52814Q506.54718 299.5594 505.6253 300.1219Q504.71906 300.66876 503.5628 300.66876Q501.57843 300.66876 500.32843 299.21564Q499.07843 297.7625 499.07843 294.41876Q499.07843 290.6844 500.46906 288.98126Q501.67218 287.5125 503.70343 287.5125Q505.23468 287.5125 506.20343 288.3719Q507.17218 289.21564 507.35968 290.71564ZM500.90656 296.27814Q500.90656 297.09064 501.2503 297.84064Q501.59406 298.59064 502.21906 298.98126Q502.84406 299.3719 503.53156 299.3719Q504.53156 299.3719 505.2503 298.5594Q505.96906 297.7469 505.96906 296.35626Q505.96906 295.02814 505.2503 294.2625Q504.54718 293.48126 503.46906 293.48126Q502.39093 293.48126 501.64093 294.2625Q500.90656 295.02814 500.90656 296.27814ZM509.15656 294.09064Q509.15656 291.8094 509.6253 290.41876Q510.09406 289.02814 511.01593 288.27814Q511.95343 287.5125 513.3597 287.5125Q514.3909 287.5125 515.1722 287.9344Q515.9534 288.34064 516.4534 289.1375Q516.96906 289.91876 517.2659 291.0594Q517.5628 292.1844 517.5628 294.09064Q517.5628 296.35626 517.09406 297.7625Q516.6253 299.15314 515.6878 299.91876Q514.7659 300.66876 513.3597 300.66876Q511.48468 300.66876 510.42218 299.34064Q509.15656 297.73126 509.15656 294.09064ZM510.78156 294.09064Q510.78156 297.2625 511.51593 298.325Q512.2659 299.3719 513.3597 299.3719Q514.4378 299.3719 515.1878 298.325Q515.9378 297.2625 515.9378 294.09064Q515.9378 290.91876 515.1878 289.8719Q514.4378 288.825 513.34406 288.825Q512.2503 288.825 511.59406 289.7469Q510.78156 290.91876 510.78156 294.09064ZM518.9847 296.575L518.9847 294.9969L523.84406 294.9969L523.84406 296.575L518.9847 296.575ZM533.3597 290.71564L531.7972 290.84064Q531.5784 289.91876 531.1878 289.4969Q530.5472 288.8094 529.6097 288.8094Q528.8597 288.8094 528.28156 289.23126Q527.53156 289.77814 527.09406 290.825Q526.6722 291.8719 526.65656 293.8094Q527.2347 292.9344 528.0472 292.5125Q528.8753 292.09064 529.78156 292.09064Q531.3753 292.09064 532.4847 293.2625Q533.59406 294.41876 533.59406 296.2625Q533.59406 297.48126 533.0628 298.52814Q532.5472 299.5594 531.6253 300.1219Q530.71906 300.66876 529.5628 300.66876Q527.5784 300.66876 526.3284 299.21564Q525.0784 297.7625 525.0784 294.41876Q525.0784 290.6844 526.46906 288.98126Q527.6722 287.5125 529.7034 287.5125Q531.2347 287.5125 532.2034 288.3719Q533.1722 289.21564 533.3597 290.71564ZM526.90656 296.27814Q526.90656 297.09064 527.2503 297.84064Q527.59406 298.59064 528.21906 298.98126Q528.84406 299.3719 529.53156 299.3719Q530.53156 299.3719 531.2503 298.5594Q531.96906 297.7469 531.96906 296.35626Q531.96906 295.02814 531.2503 294.2625Q530.5472 293.48126 529.46906 293.48126Q528.3909 293.48126 527.6409 294.2625Q526.90656 295.02814 526.90656 296.27814ZM535.3909 297.46564L536.90656 297.325Q537.1097 298.40314 537.6409 298.8875Q538.1878 299.3719 539.0472 299.3719Q539.78156 299.3719 540.3284 299.04376Q540.8753 298.7 541.21906 298.15314Q541.5784 297.59064 541.8128 296.6375Q542.0472 295.6844 542.0472 294.7Q542.0472 294.59064 542.0472 294.3875Q541.5628 295.1375 540.7347 295.60626Q539.9222 296.075 538.96906 296.075Q537.3753 296.075 536.2659 294.91876Q535.15656 293.7625 535.15656 291.85626Q535.15656 289.90314 536.3128 288.71564Q537.46906 287.5125 539.2034 287.5125Q540.46906 287.5125 541.5003 288.2Q542.5472 288.8719 543.0784 290.1219Q543.6253 291.3719 543.6253 293.7469Q543.6253 296.21564 543.0784 297.6844Q542.5472 299.1375 541.4847 299.90314Q540.4378 300.66876 539.0159 300.66876Q537.5003 300.66876 536.53156 299.84064Q535.5784 298.9969 535.3909 297.46564ZM541.8753 291.77814Q541.8753 290.41876 541.1409 289.6219Q540.4222 288.825 539.40656 288.825Q538.34406 288.825 537.5628 289.6844Q536.78156 290.54376 536.78156 291.91876Q536.78156 293.15314 537.5159 293.91876Q538.2659 294.6844 539.3597 294.6844Q540.4534 294.6844 541.15656 293.91876Q541.8753 293.15314 541.8753 291.77814Z" fill-rule="nonzero"/><path fill="#757575" d="M29.128124 31.034374L30.83125 31.45625Q30.3 33.565624 28.909374 34.675Q27.51875 35.76875 25.503124 35.76875Q23.425 35.76875 22.1125 34.925Q20.815624 34.065624 20.128124 32.471874Q19.440624 30.8625 19.440624 29.003124Q19.440624 27.003124 20.20625 25.503124Q20.9875 24.003124 22.409374 23.221874Q23.83125 22.440624 25.534374 22.440624Q27.45625 22.440624 28.76875 23.425Q30.096874 24.409374 30.6125 26.190624L28.940624 26.596874Q28.4875 25.190624 27.628124 24.55Q26.784374 23.909374 25.4875 23.909374Q24.003124 23.909374 23.003124 24.628124Q22.01875 25.33125 21.6125 26.534374Q21.20625 27.721874 21.20625 29.003124Q21.20625 30.64375 21.675 31.878124Q22.159374 33.096874 23.175 33.70625Q24.190624 34.315624 25.3625 34.315624Q26.8 34.315624 27.784374 33.4875Q28.784374 32.659374 29.128124 31.034374ZM38.846874 35.55L38.846874 34.175Q37.76875 35.76875 35.89375 35.76875Q35.065624 35.76875 34.346874 35.45625Q33.628124 35.128124 33.284374 34.659374Q32.940624 34.175 32.8 33.471874Q32.70625 33.003124 32.70625 32.003124L32.70625 26.221874L34.284374 26.221874L34.284374 31.39375Q34.284374 32.628124 34.378124 33.065624Q34.534374 33.690624 35.01875 34.05Q35.503124 34.39375 36.20625 34.39375Q36.925 34.39375 37.55 34.034374Q38.175 33.675 38.425 33.05Q38.690624 32.409374 38.690624 31.221874L38.690624 26.221874L40.26875 26.221874L40.26875 35.55L38.846874 35.55ZM42.096874 32.76875L43.675 32.51875Q43.8 33.45625 44.39375 33.95625Q45.003124 34.45625 46.08125 34.45625Q47.175 34.45625 47.70625 34.01875Q48.2375 33.565624 48.2375 32.971874Q48.2375 32.440624 47.76875 32.128124Q47.440624 31.925 46.14375 31.596874Q44.409374 31.159374 43.7375 30.846874Q43.065624 30.51875 42.70625 29.95625Q42.3625 29.378124 42.3625 28.690624Q42.3625 28.065624 42.64375 27.534374Q42.940624 27.003124 43.425 26.659374Q43.8 26.378124 44.440624 26.190624Q45.08125 26.003124 45.8 26.003124Q46.909374 26.003124 47.7375 26.33125Q48.565624 26.64375 48.95625 27.190624Q49.3625 27.721874 49.503124 28.628124L47.95625 28.83125Q47.846874 28.1125 47.346874 27.70625Q46.846874 27.3 45.925 27.3Q44.83125 27.3 44.3625 27.659374Q43.89375 28.01875 43.89375 28.503124Q43.89375 28.815624 44.096874 29.065624Q44.284374 29.315624 44.690624 29.4875Q44.940624 29.565624 46.096874 29.89375Q47.76875 30.33125 48.425 30.628124Q49.096874 30.909374 49.471874 31.45625Q49.8625 32.003124 49.8625 32.8Q49.8625 33.596874 49.39375 34.3Q48.940624 35.003124 48.065624 35.39375Q47.190624 35.76875 46.096874 35.76875Q44.26875 35.76875 43.315624 35.01875Q42.3625 34.253124 42.096874 32.76875ZM55.190624 34.128124L55.425 35.534374Q54.753124 35.675 54.221874 35.675Q53.3625 35.675 52.878124 35.409374Q52.409374 35.128124 52.221874 34.690624Q52.034374 34.2375 52.034374 32.815624L52.034374 27.440624L50.8625 27.440624L50.8625 26.221874L52.034374 26.221874L52.034374 23.909374L53.596874 22.95625L53.596874 26.221874L55.190624 26.221874L55.190624 27.440624L53.596874 27.440624L53.596874 32.909374Q53.596874 33.58125 53.675 33.784374Q53.76875 33.971874 53.95625 34.08125Q54.14375 34.190624 54.503124 34.190624Q54.753124 34.190624 55.190624 34.128124ZM56.14375 30.878124Q56.14375 28.284374 57.596874 27.034374Q58.8 26.003124 60.51875 26.003124Q62.45625 26.003124 63.675 27.26875Q64.89375 28.534374 64.89375 30.753124Q64.89375 32.55 64.34688 33.58125Q63.815624 34.6125 62.784374 35.190624Q61.753124 35.76875 60.51875 35.76875Q58.565624 35.76875 57.346874 34.51875Q56.14375 33.253124 56.14375 30.878124ZM57.76875 30.878124Q57.76875 32.675 58.55 33.565624Q59.33125 34.45625 60.51875 34.45625Q61.70625 34.45625 62.4875 33.565624Q63.26875 32.659374 63.26875 30.83125Q63.26875 29.096874 62.471874 28.20625Q61.690624 27.315624 60.51875 27.315624Q59.33125 27.315624 58.55 28.20625Q57.76875 29.096874 57.76875 30.878124ZM66.7375 35.55L66.7375 26.221874L68.15938 26.221874L68.15938 27.51875Q68.59688 26.846874 69.31563 26.425Q70.05 26.003124 70.9875 26.003124Q72.01875 26.003124 72.675 26.440624Q73.34688 26.8625 73.6125 27.64375Q74.72188 26.003124 76.50313 26.003124Q77.89375 26.003124 78.62813 26.784374Q79.37813 27.55 79.37813 29.14375L79.37813 35.55L77.81563 35.55L77.81563 29.675Q77.81563 28.721874 77.65938 28.3Q77.50313 27.878124 77.09688 27.628124Q76.69063 27.378124 76.14375 27.378124Q75.15938 27.378124 74.50313 28.034374Q73.8625 28.690624 73.8625 30.128124L73.8625 35.55L72.28438 35.55L72.28438 29.4875Q72.28438 28.425 71.89375 27.909374Q71.50313 27.378124 70.62813 27.378124Q69.95625 27.378124 69.39375 27.7375Q68.83125 28.08125 68.56563 28.753124Q68.31563 29.425 68.31563 30.70625L68.31563 35.55L66.7375 35.55ZM88.12813 32.55L89.76875 32.753124Q89.37813 34.175 88.33125 34.971874Q87.28438 35.76875 85.65938 35.76875Q83.6125 35.76875 82.40938 34.503124Q81.20625 33.2375 81.20625 30.95625Q81.20625 28.6125 82.40938 27.315624Q83.62813 26.003124 85.56563 26.003124Q87.44063 26.003124 88.62813 27.284374Q89.81563 28.55 89.81563 30.8625Q89.81563 31.003124 89.8 31.284374L82.84688 31.284374Q82.925 32.83125 83.70625 33.64375Q84.50313 34.45625 85.65938 34.45625Q86.53438 34.45625 87.14375 34.003124Q87.76875 33.55 88.12813 32.55ZM82.925 29.9875L88.14375 29.9875Q88.03438 28.815624 87.55 28.221874Q86.78438 27.3 85.58125 27.3Q84.50313 27.3 83.75313 28.034374Q83.01875 28.76875 82.925 29.9875ZM91.72188 35.55L91.72188 26.221874L93.14375 26.221874L93.14375 27.628124Q93.69063 26.64375 94.14375 26.33125Q94.6125 26.003124 95.15938 26.003124Q95.97188 26.003124 96.78438 26.51875L96.25313 27.9875Q95.65938 27.64375 95.08125 27.64375Q94.56563 27.64375 94.14375 27.95625Q93.7375 28.26875 93.56563 28.815624Q93.3 29.659374 93.3 30.659374L93.3 35.55L91.72188 35.55ZM102.8625 35.55L102.8625 22.659374L107.70625 22.659374Q109.175 22.659374 110.06563 23.05Q110.95625 23.440624 111.45625 24.253124Q111.97188 25.065624 111.97188 25.95625Q111.97188 26.784374 111.51875 27.51875Q111.08125 28.253124 110.175 28.690624Q111.34688 29.034374 111.97188 29.8625Q112.59688 30.690624 112.59688 31.815624Q112.59688 32.721874 112.20625 33.503124Q111.83125 34.26875 111.26875 34.690624Q110.70625 35.1125 109.8625 35.33125Q109.01875 35.55 107.78438 35.55L102.8625 35.55ZM104.58125 28.08125L107.3625 28.08125Q108.4875 28.08125 108.9875 27.925Q109.64375 27.7375 109.97188 27.3Q110.3 26.846874 110.3 26.159374Q110.3 25.51875 109.9875 25.034374Q109.675 24.55 109.09688 24.378124Q108.53438 24.190624 107.14375 24.190624L104.58125 24.190624L104.58125 28.08125ZM104.58125 34.034374L107.78438 34.034374Q108.6125 34.034374 108.94063 33.971874Q109.53438 33.8625 109.925 33.6125Q110.31563 33.3625 110.56563 32.89375Q110.83125 32.425 110.83125 31.815624Q110.83125 31.096874 110.45625 30.565624Q110.09688 30.034374 109.44063 29.815624Q108.78438 29.596874 107.55 29.596874L104.58125 29.596874L104.58125 34.034374ZM120.83125 34.39375Q119.95625 35.14375 119.12813 35.45625Q118.31563 35.76875 117.39375 35.76875Q115.84688 35.76875 115.01875 35.01875Q114.20625 34.253124 114.20625 33.08125Q114.20625 32.409374 114.51875 31.846874Q114.83125 31.26875 115.33125 30.925Q115.83125 30.58125 116.47188 30.409374Q116.94063 30.284374 117.87813 30.175Q119.78438 29.940624 120.69063 29.628124Q120.70625 29.3 120.70625 29.20625Q120.70625 28.253124 120.25313 27.846874Q119.64375 27.315624 118.45625 27.315624Q117.33125 27.315624 116.8 27.70625Q116.26875 28.096874 116.01875 29.096874L114.47188 28.878124Q114.69063 27.878124 115.15938 27.26875Q115.64375 26.659374 116.55 26.33125Q117.47188 26.003124 118.69063 26.003124Q119.87813 26.003124 120.62813 26.284374Q121.37813 26.565624 121.72188 27.003124Q122.08125 27.425 122.22188 28.065624Q122.3 28.471874 122.3 29.534374L122.3 31.64375Q122.3 33.846874 122.39375 34.440624Q122.50313 35.01875 122.8 35.55L121.14375 35.55Q120.89375 35.05 120.83125 34.39375ZM120.69063 30.8625Q119.83125 31.221874 118.1125 31.45625Q117.14375 31.596874 116.7375 31.784374Q116.33125 31.95625 116.1125 32.3Q115.89375 32.628124 115.89375 33.05Q115.89375 33.675 116.3625 34.096874Q116.84688 34.51875 117.76875 34.51875Q118.69063 34.51875 119.39375 34.128124Q120.1125 33.721874 120.44063 33.034374Q120.69063 32.4875 120.69063 31.440624L120.69063 30.8625ZM124.09688 32.76875L125.675 32.51875Q125.8 33.45625 126.39375 33.95625Q127.00313 34.45625 128.08125 34.45625Q129.175 34.45625 129.70625 34.01875Q130.2375 33.565624 130.2375 32.971874Q130.2375 32.440624 129.76875 32.128124Q129.44063 31.925 128.14375 31.596874Q126.40938 31.159374 125.7375 30.846874Q125.06563 30.51875 124.70625 29.95625Q124.3625 29.378124 124.3625 28.690624Q124.3625 28.065624 124.64375 27.534374Q124.94063 27.003124 125.425 26.659374Q125.8 26.378124 126.44063 26.190624Q127.08125 26.003124 127.8 26.003124Q128.90938 26.003124 129.7375 26.33125Q130.56563 26.64375 130.95625 27.190624Q131.3625 27.721874 131.50313 28.628124L129.95625 28.83125Q129.84688 28.1125 129.34688 27.70625Q128.84688 27.3 127.925 27.3Q126.83125 27.3 126.3625 27.659374Q125.89375 28.01875 125.89375 28.503124Q125.89375 28.815624 126.09688 29.065624Q126.28438 29.315624 126.69063 29.4875Q126.94063 29.565624 128.09688 29.89375Q129.76875 30.33125 130.425 30.628124Q131.09688 30.909374 131.47188 31.45625Q131.8625 32.003124 131.8625 32.8Q131.8625 33.596874 131.39375 34.3Q130.94063 35.003124 130.06563 35.39375Q129.19063 35.76875 128.09688 35.76875Q126.26875 35.76875 125.31563 35.01875Q124.3625 34.253124 124.09688 32.76875ZM140.12813 32.55L141.76875 32.753124Q141.37813 34.175 140.33125 34.971874Q139.28438 35.76875 137.65938 35.76875Q135.6125 35.76875 134.40938 34.503124Q133.20625 33.2375 133.20625 30.95625Q133.20625 28.6125 134.40938 27.315624Q135.62813 26.003124 137.56563 26.003124Q139.44063 26.003124 140.62813 27.284374Q141.81563 28.55 141.81563 30.8625Q141.81563 31.003124 141.8 31.284374L134.84688 31.284374Q134.925 32.83125 135.70625 33.64375Q136.50313 34.45625 137.65938 34.45625Q138.53438 34.45625 139.14375 34.003124Q139.76875 33.55 140.12813 32.55ZM134.925 29.9875L140.14375 29.9875Q140.03438 28.815624 139.55 28.221874Q138.78438 27.3 137.58125 27.3Q136.50313 27.3 135.75313 28.034374Q135.01875 28.76875 134.925 29.9875Z" fill-rule="nonzero"/></svg>