<svg version="1.1" viewBox="0.0 0.0 600.0 371.0" fill="none" stroke="none" stroke-linecap="square" stroke-miterlimit="10" width="600" height="371" xmlns:xlink="http://www.w3.org/1999/xlink" xmlns="http://www.w3.org/2000/svg"><path fill="#ffffff" d="M0 0L600.0 0L600.0 371.0L0 371.0L0 0Z" fill-rule="nonzero"/><path stroke="#333333" stroke-width="1.0" stroke-linecap="butt" d="M105.5 274.5L581.5 274.5" fill-rule="nonzero"/><path stroke="#cccccc" stroke-width="1.0" stroke-linecap="butt" d="M105.5 232.5L581.5 232.5" fill-rule="nonzero"/><path stroke="#cccccc" stroke-width="1.0" stroke-linecap="butt" d="M105.5 190.5L581.5 190.5" fill-rule="nonzero"/><path stroke="#cccccc" stroke-width="1.0" stroke-linecap="butt" d="M105.5 149.5L581.5 149.5" fill-rule="nonzero"/><path stroke="#cccccc" stroke-width="1.0" stroke-linecap="butt" d="M105.5 107.5L581.5 107.5" fill-rule="nonzero"/><path stroke="#cccccc" stroke-width="1.0" stroke-linecap="butt" d="M105.5 65.5L581.5 65.5" fill-rule="nonzero"/><clipPath id="id_0"><path d="M105.55 65.416664L581.45 65.416664L581.45 274.45L105.55 274.45L105.55 65.416664Z" clip-rule="nonzero"/></clipPath><path stroke="#000000" stroke-width="0.0" stroke-linecap="butt" stroke-opacity="0.0" clip-path="url(#id_0)" d="M215.0 274.0L144.0 274.0L144.0 151.0C144.0 149.89543 144.89543 149.0 146.0 149.0L213.0 149.0C214.10457 149.0 215.0 149.89543 215.0 151.0Z" fill-rule="nonzero"/><path fill="#d7efdd" clip-path="url(#id_0)" d="M215.0 274.0L144.0 274.0L144.0 151.0C144.0 149.89543 144.89543 149.0 146.0 149.0L213.0 149.0C214.10457 149.0 215.0 149.89543 215.0 151.0Z" fill-rule="nonzero"/><path stroke="#000000" stroke-width="0.0" stroke-linecap="butt" stroke-opacity="0.0" clip-path="url(#id_0)" d="M325.0 274.0L254.0 274.0L254.0 235.0C254.0 233.89543 254.89543 233.0 256.0 233.0L323.0 233.0C324.10458 233.0 325.0 233.89543 325.0 235.0Z" fill-rule="nonzero"/><path fill="#d7efdd" clip-path="url(#id_0)" d="M325.0 274.0L254.0 274.0L254.0 235.0C254.0 233.89543 254.89543 233.0 256.0 233.0L323.0 233.0C324.10458 233.0 325.0 233.89543 325.0 235.0Z" fill-rule="nonzero"/><path stroke="#000000" stroke-width="0.0" stroke-linecap="butt" stroke-opacity="0.0" clip-path="url(#id_0)" d="M434.0 274.0L363.0 274.0L363.0 67.0C363.0 65.89543 363.89542 65.0 365.0 65.0L432.0 65.0C433.10458 65.0 434.0 65.89543 434.0 67.0Z" fill-rule="nonzero"/><path fill="#d7efdd" clip-path="url(#id_0)" d="M434.0 274.0L363.0 274.0L363.0 67.0C363.0 65.89543 363.89542 65.0 365.0 65.0L432.0 65.0C433.10458 65.0 434.0 65.89543 434.0 67.0Z" fill-rule="nonzero"/><path stroke="#000000" stroke-width="0.0" stroke-linecap="butt" stroke-opacity="0.0" clip-path="url(#id_0)" d="M544.0 274.0L473.0 274.0L473.0 235.0C473.0 233.89543 473.89542 233.0 475.0 233.0L542.0 233.0C543.10455 233.0 544.0 233.89543 544.0 235.0Z" fill-rule="nonzero"/><path fill="#d7efdd" clip-path="url(#id_0)" d="M544.0 274.0L473.0 274.0L473.0 235.0C473.0 233.89543 473.89542 233.0 475.0 233.0L542.0 233.0C543.10455 233.0 544.0 233.89543 544.0 235.0Z" fill-rule="nonzero"/><path fill="#000000" d="M280.92188 348.45L280.92188 335.5594L290.23438 335.5594L290.23438 337.09064L282.625 337.09064L282.625 341.02814L289.75 341.02814L289.75 342.54376L282.625 342.54376L282.625 346.9344L290.54688 346.9344L290.54688 348.45L280.92188 348.45ZM298.75 348.45L298.75 347.27814Q297.85938 348.66876 296.125 348.66876Q295.01562 348.66876 294.07812 348.0594Q293.14062 347.4344 292.625 346.34064Q292.10938 345.23126 292.10938 343.79376Q292.10938 342.3875 292.57812 341.2625Q293.04688 340.1219 293.96875 339.5125Q294.90625 338.90314 296.0625 338.90314Q296.90625 338.90314 297.5625 339.2625Q298.21875 339.6219 298.64062 340.1844L298.64062 335.5594L300.20312 335.5594L300.20312 348.45L298.75 348.45ZM293.73438 343.79376Q293.73438 345.59064 294.48438 346.48126Q295.25 347.35626 296.28125 347.35626Q297.3125 347.35626 298.03125 346.5125Q298.76562 345.66876 298.76562 343.91876Q298.76562 342.0125 298.03125 341.1219Q297.29688 340.21564 296.21875 340.21564Q295.15625 340.21564 294.4375 341.075Q293.73438 341.9344 293.73438 343.79376ZM308.79688 348.45L308.79688 347.075Q307.71875 348.66876 305.84375 348.66876Q305.01562 348.66876 304.29688 348.35626Q303.57812 348.02814 303.23438 347.5594Q302.89062 347.075 302.75 346.3719Q302.65625 345.90314 302.65625 344.90314L302.65625 339.1219L304.23438 339.1219L304.23438 344.29376Q304.23438 345.52814 304.32812 345.96564Q304.48438 346.59064 304.96875 346.95Q305.45312 347.29376 306.15625 347.29376Q306.875 347.29376 307.5 346.9344Q308.125 346.575 308.375 345.95Q308.64062 345.3094 308.64062 344.1219L308.64062 339.1219L310.21875 339.1219L310.21875 348.45L308.79688 348.45ZM318.78125 345.02814L320.32812 345.23126Q320.07812 346.84064 319.03125 347.7625Q317.98438 348.66876 316.45312 348.66876Q314.53125 348.66876 313.35938 347.41876Q312.20312 346.15314 312.20312 343.825Q312.20312 342.3094 312.70312 341.1844Q313.20312 340.04376 314.21875 339.48126Q315.25 338.90314 316.45312 338.90314Q317.98438 338.90314 318.9375 339.6844Q319.90625 340.45 320.1875 341.85626L318.64062 342.09064Q318.42188 341.15314 317.85938 340.6844Q317.3125 340.2 316.51562 340.2Q315.32812 340.2 314.57812 341.0594Q313.82812 341.91876 313.82812 343.77814Q313.82812 345.65314 314.54688 346.5125Q315.26562 347.35626 316.4375 347.35626Q317.35938 347.35626 317.98438 346.79376Q318.60938 346.21564 318.78125 345.02814ZM327.78125 347.29376Q326.90625 348.04376 326.07812 348.35626Q325.26562 348.66876 324.34375 348.66876Q322.79688 348.66876 321.96875 347.91876Q321.15625 347.15314 321.15625 345.98126Q321.15625 345.3094 321.46875 344.7469Q321.78125 344.16876 322.28125 343.825Q322.78125 343.48126 323.42188 343.3094Q323.89062 343.1844 324.82812 343.075Q326.73438 342.84064 327.64062 342.52814Q327.65625 342.2 327.65625 342.10626Q327.65625 341.15314 327.20312 340.7469Q326.59375 340.21564 325.40625 340.21564Q324.28125 340.21564 323.75 340.60626Q323.21875 340.9969 322.96875 341.9969L321.42188 341.77814Q321.64062 340.77814 322.10938 340.16876Q322.59375 339.5594 323.5 339.23126Q324.42188 338.90314 325.64062 338.90314Q326.82812 338.90314 327.57812 339.1844Q328.32812 339.46564 328.67188 339.90314Q329.03125 340.325 329.17188 340.96564Q329.25 341.3719 329.25 342.4344L329.25 344.54376Q329.25 346.7469 329.34375 347.34064Q329.45312 347.91876 329.75 348.45L328.09375 348.45Q327.84375 347.95 327.78125 347.29376ZM327.64062 343.7625Q326.78125 344.1219 325.0625 344.35626Q324.09375 344.4969 323.6875 344.6844Q323.28125 344.85626 323.0625 345.2Q322.84375 345.52814 322.84375 345.95Q322.84375 346.575 323.3125 346.9969Q323.79688 347.41876 324.71875 347.41876Q325.64062 347.41876 326.34375 347.02814Q327.0625 346.6219 327.39062 345.9344Q327.64062 345.3875 327.64062 344.34064L327.64062 343.7625ZM335.14062 347.02814L335.375 348.4344Q334.70312 348.575 334.17188 348.575Q333.3125 348.575 332.82812 348.3094Q332.35938 348.02814 332.17188 347.59064Q331.98438 347.1375 331.98438 345.71564L331.98438 340.34064L330.8125 340.34064L330.8125 339.1219L331.98438 339.1219L331.98438 336.8094L333.54688 335.85626L333.54688 339.1219L335.14062 339.1219L335.14062 340.34064L333.54688 340.34064L333.54688 345.8094Q333.54688 346.48126 333.625 346.6844Q333.71875 346.8719 333.90625 346.98126Q334.09375 347.09064 334.45312 347.09064Q334.70312 347.09064 335.14062 347.02814ZM336.70312 337.3875L336.70312 335.5594L338.28125 335.5594L338.28125 337.3875L336.70312 337.3875ZM336.70312 348.45L336.70312 339.1219L338.28125 339.1219L338.28125 348.45L336.70312 348.45ZM340.09375 343.77814Q340.09375 341.1844 341.54688 339.9344Q342.75 338.90314 344.46875 338.90314Q346.40625 338.90314 347.625 340.16876Q348.84375 341.4344 348.84375 343.65314Q348.84375 345.45 348.29688 346.48126Q347.76562 347.5125 346.73438 348.09064Q345.70312 348.66876 344.46875 348.66876Q342.51562 348.66876 341.29688 347.41876Q340.09375 346.15314 340.09375 343.77814ZM341.71875 343.77814Q341.71875 345.575 342.5 346.46564Q343.28125 347.35626 344.46875 347.35626Q345.65625 347.35626 346.4375 346.46564Q347.21875 345.5594 347.21875 343.73126Q347.21875 341.9969 346.42188 341.10626Q345.64062 340.21564 344.46875 340.21564Q343.28125 340.21564 342.5 341.10626Q341.71875 341.9969 341.71875 343.77814ZM350.6875 348.45L350.6875 339.1219L352.10938 339.1219L352.10938 340.45Q353.14062 338.90314 355.07812 338.90314Q355.92188 338.90314 356.625 339.21564Q357.34375 339.5125 357.6875 340.0125Q358.04688 340.4969 358.1875 341.16876Q358.26562 341.60626 358.26562 342.71564L358.26562 348.45L356.6875 348.45L356.6875 342.77814Q356.6875 341.8094 356.5 341.325Q356.32812 340.84064 355.84375 340.5594Q355.375 340.27814 354.75 340.27814Q353.73438 340.27814 353.0 340.91876Q352.26562 341.5594 352.26562 343.35626L352.26562 348.45L350.6875 348.45ZM365.8125 348.45L365.8125 335.5594L367.53125 335.5594L367.53125 346.9344L373.875 346.9344L373.875 348.45L365.8125 348.45ZM382.07812 345.45L383.71875 345.65314Q383.32812 347.075 382.28125 347.8719Q381.23438 348.66876 379.60938 348.66876Q377.5625 348.66876 376.35938 347.40314Q375.15625 346.1375 375.15625 343.85626Q375.15625 341.5125 376.35938 340.21564Q377.57812 338.90314 379.51562 338.90314Q381.39062 338.90314 382.57812 340.1844Q383.76562 341.45 383.76562 343.7625Q383.76562 343.90314 383.75 344.1844L376.79688 344.1844Q376.875 345.73126 377.65625 346.54376Q378.45312 347.35626 379.60938 347.35626Q380.48438 347.35626 381.09375 346.90314Q381.71875 346.45 382.07812 345.45ZM376.875 342.8875L382.09375 342.8875Q381.98438 341.71564 381.5 341.1219Q380.73438 340.2 379.53125 340.2Q378.45312 340.2 377.70312 340.9344Q376.96875 341.66876 376.875 342.8875ZM388.28125 348.45L384.73438 339.1219L386.40625 339.1219L388.40625 344.7Q388.73438 345.60626 389.0 346.59064Q389.21875 345.84064 389.59375 344.8094L391.65625 339.1219L393.29688 339.1219L389.75 348.45L388.28125 348.45ZM401.07812 345.45L402.71875 345.65314Q402.32812 347.075 401.28125 347.8719Q400.23438 348.66876 398.60938 348.66876Q396.5625 348.66876 395.35938 347.40314Q394.15625 346.1375 394.15625 343.85626Q394.15625 341.5125 395.35938 340.21564Q396.57812 338.90314 398.51562 338.90314Q400.39062 338.90314 401.57812 340.1844Q402.76562 341.45 402.76562 343.7625Q402.76562 343.90314 402.75 344.1844L395.79688 344.1844Q395.875 345.73126 396.65625 346.54376Q397.45312 347.35626 398.60938 347.35626Q399.48438 347.35626 400.09375 346.90314Q400.71875 346.45 401.07812 345.45ZM395.875 342.8875L401.09375 342.8875Q400.98438 341.71564 400.5 341.1219Q399.73438 340.2 398.53125 340.2Q397.45312 340.2 396.70312 340.9344Q395.96875 341.66876 395.875 342.8875ZM404.65625 348.45L404.65625 335.5594L406.23438 335.5594L406.23438 348.45L404.65625 348.45Z" fill-rule="nonzero"/><path fill="#000000" d="M35.55001 265.29272L22.659388 265.29272L22.659388 260.43335Q22.659388 259.1521 22.784388 258.48022Q22.940638 257.5271 23.393763 256.88647Q23.831263 256.24585 24.643763 255.85521Q25.440638 255.46458 26.393763 255.46458Q28.034388 255.46458 29.175013 256.51147Q30.315638 257.55835 30.315638 260.2771L30.315638 263.5896L35.55001 263.5896L35.55001 265.29272ZM28.784388 263.5896L28.784388 260.26147Q28.784388 258.60522 28.175013 257.91772Q27.565638 257.2146 26.440638 257.2146Q25.628138 257.2146 25.065638 257.62085Q24.487513 258.0271 24.300013 258.69897Q24.190638 259.13647 24.190638 260.29272L24.190638 263.5896L28.784388 263.5896ZM32.55001 247.10521L32.753136 245.46458Q34.17501 245.85521 34.971886 246.90208Q35.76876 247.94896 35.76876 249.57396Q35.76876 251.62083 34.503136 252.82396Q33.23751 254.02708 30.956263 254.02708Q28.612513 254.02708 27.315638 252.82396Q26.003138 251.60521 26.003138 249.66771Q26.003138 247.79271 27.284388 246.60521Q28.550013 245.41771 30.862513 245.41771Q31.003138 245.41771 31.284388 245.43333L31.284388 252.38646Q32.83126 252.30833 33.64376 251.52708Q34.45626 250.73021 34.45626 249.57396Q34.45626 248.69896 34.003136 248.08958Q33.55001 247.46458 32.55001 247.10521ZM29.987513 252.30833L29.987513 247.08958Q28.815638 247.19896 28.221888 247.68333Q27.300013 248.44896 27.300013 249.65208Q27.300013 250.73021 28.034388 251.48021Q28.768763 252.21458 29.987513 252.30833ZM35.55001 243.51146L26.221888 243.51146L26.221888 242.08958L27.628138 242.08958Q26.643763 241.54271 26.331263 241.08958Q26.003138 240.62083 26.003138 240.07396Q26.003138 239.26146 26.518763 238.44896L27.987513 238.98021Q27.643763 239.57396 27.643763 240.15208Q27.643763 240.66771 27.956263 241.08958Q28.268763 241.49583 28.815638 241.66771Q29.659388 241.93333 30.659388 241.93333L35.55001 241.93333L35.55001 243.51146ZM32.128136 231.40208L32.33126 229.85521Q33.940636 230.10521 34.86251 231.15208Q35.76876 232.19896 35.76876 233.73021Q35.76876 235.65208 34.51876 236.82396Q33.253136 237.98021 30.925013 237.98021Q29.409388 237.98021 28.284388 237.48021Q27.143763 236.98021 26.581263 235.96458Q26.003138 234.93333 26.003138 233.73021Q26.003138 232.19896 26.784388 231.24583Q27.550013 230.27708 28.956263 229.99583L29.190638 231.54271Q28.253138 231.76146 27.784388 232.32396Q27.300013 232.87083 27.300013 233.66771Q27.300013 234.85521 28.159388 235.60521Q29.018763 236.35521 30.878138 236.35521Q32.753136 236.35521 33.61251 235.63646Q34.45626 234.91771 34.45626 233.74583Q34.45626 232.82396 33.89376 232.19896Q33.315636 231.57396 32.128136 231.40208ZM32.55001 222.10521L32.753136 220.46458Q34.17501 220.85521 34.971886 221.90208Q35.76876 222.94896 35.76876 224.57396Q35.76876 226.62083 34.503136 227.82396Q33.23751 229.02708 30.956263 229.02708Q28.612513 229.02708 27.315638 227.82396Q26.003138 226.60521 26.003138 224.66771Q26.003138 222.79271 27.284388 221.60521Q28.550013 220.41771 30.862513 220.41771Q31.003138 220.41771 31.284388 220.43333L31.284388 227.38646Q32.83126 227.30833 33.64376 226.52708Q34.45626 225.73021 34.45626 224.57396Q34.45626 223.69896 34.003136 223.08958Q33.55001 222.46458 32.55001 222.10521ZM29.987513 227.30833L29.987513 222.08958Q28.815638 222.19896 28.221888 222.68333Q27.300013 223.44896 27.300013 224.65208Q27.300013 225.73021 28.034388 226.48021Q28.768763 227.21458 29.987513 227.30833ZM35.55001 218.49583L26.221888 218.49583L26.221888 217.07396L27.550013 217.07396Q26.003138 216.04271 26.003138 214.10521Q26.003138 213.26146 26.315638 212.55833Q26.612513 211.83958 27.112513 211.49583Q27.596888 211.13646 28.268763 210.99583Q28.706263 210.91771 29.815638 210.91771L35.55001 210.91771L35.55001 212.49583L29.878138 212.49583Q28.909388 212.49583 28.425013 212.68333Q27.940638 212.85521 27.659388 213.33958Q27.378138 213.80833 27.378138 214.43333Q27.378138 215.44896 28.018763 216.18333Q28.659388 216.91771 30.456263 216.91771L35.55001 216.91771L35.55001 218.49583ZM34.128136 205.04271L35.534386 204.80833Q35.67501 205.48021 35.67501 206.01146Q35.67501 206.87083 35.409386 207.35521Q35.128136 207.82396 34.690636 208.01146Q34.23751 208.19896 32.815636 208.19896L27.440638 208.19896L27.440638 209.37083L26.221888 209.37083L26.221888 208.19896L23.909388 208.19896L22.956263 206.63646L26.221888 206.63646L26.221888 205.04271L27.440638 205.04271L27.440638 206.63646L32.909386 206.63646Q33.58126 206.63646 33.784386 206.55833Q33.971886 206.46458 34.08126 206.27708Q34.190636 206.08958 34.190636 205.73021Q34.190636 205.48021 34.128136 205.04271ZM30.878138 199.08958Q28.284388 199.08958 27.034388 197.63646Q26.003138 196.43333 26.003138 194.71458Q26.003138 192.77708 27.268763 191.55833Q28.534388 190.33958 30.753138 190.33958Q32.55001 190.33958 33.58126 190.88646Q34.61251 191.41771 35.190636 192.44896Q35.76876 193.48021 35.76876 194.71458Q35.76876 196.66771 34.51876 197.88646Q33.253136 199.08958 30.878138 199.08958ZM30.878138 197.46458Q32.67501 197.46458 33.565636 196.68333Q34.45626 195.90208 34.45626 194.71458Q34.45626 193.52708 33.565636 192.74583Q32.659386 191.96458 30.831263 191.96458Q29.096888 191.96458 28.206263 192.76146Q27.315638 193.54271 27.315638 194.71458Q27.315638 195.90208 28.206263 196.68333Q29.096888 197.46458 30.878138 197.46458ZM35.55001 188.12083L27.440638 188.12083L27.440638 189.51146L26.221888 189.51146L26.221888 188.12083L25.221888 188.12083Q24.284388 188.12083 23.831263 187.94896Q23.206263 187.73021 22.831263 187.15208Q22.440638 186.57396 22.440638 185.52708Q22.440638 184.87083 22.596888 184.05833L23.987513 184.29271Q23.893763 184.79271 23.893763 185.23021Q23.893763 185.94896 24.206263 186.24583Q24.503138 186.54271 25.346888 186.54271L26.221888 186.54271L26.221888 184.73021L27.440638 184.73021L27.440638 186.54271L35.55001 186.54271L35.55001 188.12083ZM31.034388 169.10521L31.456263 167.40208Q33.565636 167.93333 34.67501 169.32396Q35.76876 170.71458 35.76876 172.73021Q35.76876 174.80833 34.92501 176.12083Q34.065636 177.41771 32.471886 178.10521Q30.862513 178.79271 29.003138 178.79271Q27.003138 178.79271 25.503138 178.02708Q24.003138 177.24583 23.221888 175.82396Q22.440638 174.40208 22.440638 172.69896Q22.440638 170.77708 23.425013 169.46458Q24.409388 168.13646 26.190638 167.62083L26.596888 169.29271Q25.190638 169.74583 24.550013 170.60521Q23.909388 171.44896 23.909388 172.74583Q23.909388 174.23021 24.628138 175.23021Q25.331263 176.21458 26.534388 176.62083Q27.721888 177.02708 29.003138 177.02708Q30.643763 177.02708 31.878138 176.55833Q33.096886 176.07396 33.70626 175.05833Q34.315636 174.04271 34.315636 172.87083Q34.315636 171.43333 33.48751 170.44896Q32.659386 169.44896 31.034388 169.10521ZM35.55001 159.38646L34.17501 159.38646Q35.76876 160.46458 35.76876 162.33958Q35.76876 163.16771 35.45626 163.88646Q35.128136 164.60521 34.659386 164.94896Q34.17501 165.29271 33.471886 165.43333Q33.003136 165.52708 32.003136 165.52708L26.221888 165.52708L26.221888 163.94896L31.393763 163.94896Q32.628136 163.94896 33.065636 163.85521Q33.690636 163.69896 34.05001 163.21458Q34.39376 162.73021 34.39376 162.02708Q34.39376 161.30833 34.034386 160.68333Q33.67501 160.05833 33.05001 159.80833Q32.409386 159.54271 31.221888 159.54271L26.221888 159.54271L26.221888 157.96458L35.55001 157.96458L35.55001 159.38646ZM32.76876 156.13646L32.51876 154.55833Q33.45626 154.43333 33.95626 153.83958Q34.45626 153.23021 34.45626 152.15208Q34.45626 151.05833 34.01876 150.52708Q33.565636 149.99583 32.971886 149.99583Q32.440636 149.99583 32.128136 150.46458Q31.925013 150.79271 31.596888 152.08958Q31.159388 153.82396 30.846888 154.49583Q30.518763 155.16771 29.956263 155.52708Q29.378138 155.87083 28.690638 155.87083Q28.065638 155.87083 27.534388 155.58958Q27.003138 155.29271 26.659388 154.80833Q26.378138 154.43333 26.190638 153.79271Q26.003138 153.15208 26.003138 152.43333Q26.003138 151.32396 26.331263 150.49583Q26.643763 149.66771 27.190638 149.27708Q27.721888 148.87083 28.628138 148.73021L28.831263 150.27708Q28.112513 150.38646 27.706263 150.88646Q27.300013 151.38646 27.300013 152.30833Q27.300013 153.40208 27.659388 153.87083Q28.018763 154.33958 28.503138 154.33958Q28.815638 154.33958 29.065638 154.13646Q29.315638 153.94896 29.487513 153.54271Q29.565638 153.29271 29.893763 152.13646Q30.331263 150.46458 30.628138 149.80833Q30.909388 149.13646 31.456263 148.76146Q32.003136 148.37083 32.80001 148.37083Q33.596886 148.37083 34.30001 148.83958Q35.003136 149.29271 35.39376 150.16771Q35.76876 151.04271 35.76876 152.13646Q35.76876 153.96458 35.01876 154.91771Q34.253136 155.87083 32.76876 156.13646ZM34.128136 143.04271L35.534386 142.80833Q35.67501 143.48021 35.67501 144.01146Q35.67501 144.87083 35.409386 145.35521Q35.128136 145.82396 34.690636 146.01146Q34.23751 146.19896 32.815636 146.19896L27.440638 146.19896L27.440638 147.37083L26.221888 147.37083L26.221888 146.19896L23.909388 146.19896L22.956263 144.63646L26.221888 144.63646L26.221888 143.04271L27.440638 143.04271L27.440638 144.63646L32.909386 144.63646Q33.58126 144.63646 33.784386 144.55833Q33.971886 144.46458 34.08126 144.27708Q34.190636 144.08958 34.190636 143.73021Q34.190636 143.48021 34.128136 143.04271ZM30.878138 142.08958Q28.284388 142.08958 27.034388 140.63646Q26.003138 139.43333 26.003138 137.71458Q26.003138 135.77708 27.268763 134.55833Q28.534388 133.33958 30.753138 133.33958Q32.55001 133.33958 33.58126 133.88646Q34.61251 134.41771 35.190636 135.44896Q35.76876 136.48021 35.76876 137.71458Q35.76876 139.66771 34.51876 140.88646Q33.253136 142.08958 30.878138 142.08958ZM30.878138 140.46458Q32.67501 140.46458 33.565636 139.68333Q34.45626 138.90208 34.45626 137.71458Q34.45626 136.52708 33.565636 135.74583Q32.659386 134.96458 30.831263 134.96458Q29.096888 134.96458 28.206263 135.76146Q27.315638 136.54271 27.315638 137.71458Q27.315638 138.90208 28.206263 139.68333Q29.096888 140.46458 30.878138 140.46458ZM35.55001 131.49583L26.221888 131.49583L26.221888 130.07396L27.518763 130.07396Q26.846888 129.63646 26.425013 128.91771Q26.003138 128.18333 26.003138 127.245834Q26.003138 126.214584 26.440638 125.558334Q26.862513 124.88646 27.643763 124.620834Q26.003138 123.51146 26.003138 121.73021Q26.003138 120.339584 26.784388 119.60521Q27.550013 118.85521 29.143763 118.85521L35.55001 118.85521L35.55001 120.41771L29.675013 120.41771Q28.721888 120.41771 28.300013 120.57396Q27.878138 120.73021 27.628138 121.13646Q27.378138 121.54271 27.378138 122.089584Q27.378138 123.07396 28.034388 123.73021Q28.690638 124.370834 30.128138 124.370834L35.55001 124.370834L35.55001 125.94896L29.487513 125.94896Q28.425013 125.94896 27.909388 126.339584Q27.378138 126.73021 27.378138 127.60521Q27.378138 128.27708 27.737513 128.83958Q28.081263 129.40208 28.753138 129.66771Q29.425013 129.91771 30.706263 129.91771L35.55001 129.91771L35.55001 131.49583ZM32.55001 110.10521L32.753136 108.464584Q34.17501 108.85521 34.971886 109.902084Q35.76876 110.94896 35.76876 112.57396Q35.76876 114.620834 34.503136 115.82396Q33.23751 117.027084 30.956263 117.027084Q28.612513 117.027084 27.315638 115.82396Q26.003138 114.60521 26.003138 112.66771Q26.003138 110.79271 27.284388 109.60521Q28.550013 108.41771 30.862513 108.41771Q31.003138 108.41771 31.284388 108.433334L31.284388 115.38646Q32.83126 115.308334 33.64376 114.527084Q34.45626 113.73021 34.45626 112.57396Q34.45626 111.69896 34.003136 111.089584Q33.55001 110.464584 32.55001 110.10521ZM29.987513 115.308334L29.987513 110.089584Q28.815638 110.19896 28.221888 110.683334Q27.300013 111.44896 27.300013 112.652084Q27.300013 113.73021 28.034388 114.48021Q28.768763 115.214584 29.987513 115.308334ZM35.55001 106.51146L26.221888 106.51146L26.221888 105.089584L27.628138 105.089584Q26.643763 104.54271 26.331263 104.089584Q26.003138 103.620834 26.003138 103.07396Q26.003138 102.26146 26.518763 101.44896L27.987513 101.98021Q27.643763 102.57396 27.643763 103.152084Q27.643763 103.66771 27.956263 104.089584Q28.268763 104.495834 28.815638 104.66771Q29.659388 104.933334 30.659388 104.933334L35.55001 104.933334L35.55001 106.51146ZM32.76876 101.13646L32.51876 99.558334Q33.45626 99.433334 33.95626 98.839584Q34.45626 98.23021 34.45626 97.152084Q34.45626 96.058334 34.01876 95.527084Q33.565636 94.995834 32.971886 94.995834Q32.440636 94.995834 32.128136 95.464584Q31.925013 95.79271 31.596888 97.089584Q31.159388 98.82396 30.846888 99.495834Q30.518763 100.16771 29.956263 100.527084Q29.378138 100.870834 28.690638 100.870834Q28.065638 100.870834 27.534388 100.589584Q27.003138 100.29271 26.659388 99.808334Q26.378138 99.433334 26.190638 98.79271Q26.003138 98.152084 26.003138 97.433334Q26.003138 96.32396 26.331263 95.495834Q26.643763 94.66771 27.190638 94.277084Q27.721888 93.870834 28.628138 93.73021L28.831263 95.277084Q28.112513 95.38646 27.706263 95.88646Q27.300013 96.38646 27.300013 97.308334Q27.300013 98.402084 27.659388 98.870834Q28.018763 99.339584 28.503138 99.339584Q28.815638 99.339584 29.065638 99.13646Q29.315638 98.94896 29.487513 98.54271Q29.565638 98.29271 29.893763 97.13646Q30.331263 95.464584 30.628138 94.808334Q30.909388 94.13646 31.456263 93.76146Q32.003136 93.370834 32.80001 93.370834Q33.596886 93.370834 34.30001 93.839584Q35.003136 94.29271 35.39376 95.16771Q35.76876 96.04271 35.76876 97.13646Q35.76876 98.964584 35.01876 99.91771Q34.253136 100.870834 32.76876 101.13646Z" fill-rule="nonzero"/><path fill="#000000" d="M87.3 274.59064Q87.3 272.3094 87.76875 270.91876Q88.2375 269.52814 89.15938 268.77814Q90.09688 268.0125 91.50313 268.0125Q92.53438 268.0125 93.31563 268.4344Q94.09688 268.84064 94.59688 269.6375Q95.1125 270.41876 95.40938 271.5594Q95.70625 272.6844 95.70625 274.59064Q95.70625 276.85626 95.2375 278.2625Q94.76875 279.65314 93.83125 280.41876Q92.90938 281.16876 91.50313 281.16876Q89.62813 281.16876 88.56563 279.84064Q87.3 278.23126 87.3 274.59064ZM88.925 274.59064Q88.925 277.7625 89.65938 278.825Q90.40938 279.8719 91.50313 279.8719Q92.58125 279.8719 93.33125 278.825Q94.08125 277.7625 94.08125 274.59064Q94.08125 271.41876 93.33125 270.3719Q92.58125 269.325 91.4875 269.325Q90.39375 269.325 89.7375 270.2469Q88.925 271.41876 88.925 274.59064Z" fill-rule="nonzero"/><path fill="#000000" d="M83.25313 239.14333L81.675 239.14333L81.675 229.0652Q81.09688 229.61208 80.175 230.15895Q79.25313 230.6902 78.50313 230.97145L78.50313 229.4402Q79.83125 228.8152 80.83125 227.92458Q81.83125 227.03395 82.2375 226.20583L83.25313 226.20583L83.25313 239.14333ZM87.3 232.78395Q87.3 230.5027 87.76875 229.11208Q88.2375 227.72145 89.15938 226.97145Q90.09688 226.20583 91.50313 226.20583Q92.53438 226.20583 93.31563 226.6277Q94.09688 227.03395 94.59688 227.83083Q95.1125 228.61208 95.40938 229.7527Q95.70625 230.8777 95.70625 232.78395Q95.70625 235.04958 95.2375 236.45583Q94.76875 237.84645 93.83125 238.61208Q92.90938 239.36208 91.50313 239.36208Q89.62813 239.36208 88.56563 238.03395Q87.3 236.42458 87.3 232.78395ZM88.925 232.78395Q88.925 235.95583 89.65938 237.01833Q90.40938 238.0652 91.50313 238.0652Q92.58125 238.0652 93.33125 237.01833Q94.08125 235.95583 94.08125 232.78395Q94.08125 229.61208 93.33125 228.5652Q92.58125 227.51833 91.4875 227.51833Q90.39375 227.51833 89.7375 228.4402Q88.925 229.61208 88.925 232.78395Z" fill-rule="nonzero"/><path fill="#000000" d="M85.6125 195.82104L85.6125 197.33667L77.09688 197.33667Q77.08125 196.75854 77.28438 196.24292Q77.6125 195.36792 78.31563 194.52417Q79.03438 193.68042 80.39375 192.57104Q82.4875 190.8523 83.22188 189.8523Q83.97188 188.83667 83.97188 187.94604Q83.97188 186.99292 83.3 186.3523Q82.62813 185.71167 81.55 185.71167Q80.39375 185.71167 79.70625 186.39917Q79.03438 187.08667 79.01875 188.2898L77.39375 188.11792Q77.56563 186.30542 78.64375 185.3523Q79.7375 184.39917 81.58125 184.39917Q83.425 184.39917 84.50313 185.43042Q85.59688 186.46167 85.59688 187.9773Q85.59688 188.74292 85.26875 189.49292Q84.95625 190.24292 84.22188 191.07104Q83.4875 191.89917 81.78438 193.33667Q80.3625 194.5398 79.95625 194.96167Q79.55 195.38354 79.3 195.82104L85.6125 195.82104ZM87.3 190.9773Q87.3 188.69604 87.76875 187.30542Q88.2375 185.9148 89.15938 185.1648Q90.09688 184.39917 91.50313 184.39917Q92.53438 184.39917 93.31563 184.82104Q94.09688 185.2273 94.59688 186.02417Q95.1125 186.80542 95.40938 187.94604Q95.70625 189.07104 95.70625 190.9773Q95.70625 193.24292 95.2375 194.64917Q94.76875 196.0398 93.83125 196.80542Q92.90938 197.55542 91.50313 197.55542Q89.62813 197.55542 88.56563 196.2273Q87.3 194.61792 87.3 190.9773ZM88.925 190.9773Q88.925 194.14917 89.65938 195.21167Q90.40938 196.25854 91.50313 196.25854Q92.58125 196.25854 93.33125 195.21167Q94.08125 194.14917 94.08125 190.9773Q94.08125 187.80542 93.33125 186.75854Q92.58125 185.71167 91.4875 185.71167Q90.39375 185.71167 89.7375 186.63354Q88.925 187.80542 88.925 190.9773Z" fill-rule="nonzero"/><path fill="#000000" d="M77.3 152.12375L78.89375 151.92062Q79.15938 153.26437 79.81563 153.85812Q80.47188 154.45187 81.40938 154.45187Q82.53438 154.45187 83.3 153.68625Q84.06563 152.905 84.06563 151.76437Q84.06563 150.67062 83.34688 149.9675Q82.64375 149.24875 81.55 149.24875Q81.09688 149.24875 80.425 149.43625L80.59688 148.04562Q80.75313 148.06125 80.8625 148.06125Q81.8625 148.06125 82.675 147.53Q83.4875 146.99875 83.4875 145.905Q83.4875 145.03 82.89375 144.4675Q82.3 143.88937 81.37813 143.88937Q80.45625 143.88937 79.83125 144.4675Q79.22188 145.04562 79.05 146.2175L77.47188 145.93625Q77.75313 144.3425 78.78438 143.4675Q79.81563 142.5925 81.34688 142.5925Q82.39375 142.5925 83.28438 143.04562Q84.175 143.49875 84.64375 144.28Q85.1125 145.06125 85.1125 145.93625Q85.1125 146.78 84.65938 147.4675Q84.22188 148.13937 83.33125 148.54562Q84.47188 148.81125 85.09688 149.655Q85.7375 150.48312 85.7375 151.7175Q85.7375 153.405 84.50313 154.5925Q83.28438 155.76437 81.40938 155.76437Q79.70625 155.76437 78.58125 154.74875Q77.47188 153.73312 77.3 152.12375ZM87.3 149.17062Q87.3 146.88937 87.76875 145.49875Q88.2375 144.10812 89.15938 143.35812Q90.09688 142.5925 91.50313 142.5925Q92.53438 142.5925 93.31563 143.01437Q94.09688 143.42062 94.59688 144.2175Q95.1125 144.99875 95.40938 146.13937Q95.70625 147.26437 95.70625 149.17062Q95.70625 151.43625 95.2375 152.8425Q94.76875 154.23312 93.83125 154.99875Q92.90938 155.74875 91.50313 155.74875Q89.62813 155.74875 88.56563 154.42062Q87.3 152.81125 87.3 149.17062ZM88.925 149.17062Q88.925 152.3425 89.65938 153.405Q90.40938 154.45187 91.50313 154.45187Q92.58125 154.45187 93.33125 153.405Q94.08125 152.3425 94.08125 149.17062Q94.08125 145.99875 93.33125 144.95187Q92.58125 143.905 91.4875 143.905Q90.39375 143.905 89.7375 144.82687Q88.925 145.99875 88.925 149.17062Z" fill-rule="nonzero"/><path fill="#000000" d="M82.3625 113.723335L82.3625 110.64521L76.78438 110.64521L76.78438 109.192085L82.65938 100.83271L83.95625 100.83271L83.95625 109.192085L85.69063 109.192085L85.69063 110.64521L83.95625 110.64521L83.95625 113.723335L82.3625 113.723335ZM82.3625 109.192085L82.3625 103.379585L78.33125 109.192085L82.3625 109.192085ZM87.3 107.36396Q87.3 105.08271 87.76875 103.692085Q88.2375 102.30146 89.15938 101.55146Q90.09688 100.785835 91.50313 100.785835Q92.53438 100.785835 93.31563 101.20771Q94.09688 101.61396 94.59688 102.410835Q95.1125 103.192085 95.40938 104.33271Q95.70625 105.45771 95.70625 107.36396Q95.70625 109.629585 95.2375 111.035835Q94.76875 112.42646 93.83125 113.192085Q92.90938 113.942085 91.50313 113.942085Q89.62813 113.942085 88.56563 112.61396Q87.3 111.004585 87.3 107.36396ZM88.925 107.36396Q88.925 110.535835 89.65938 111.598335Q90.40938 112.64521 91.50313 112.64521Q92.58125 112.64521 93.33125 111.598335Q94.08125 110.535835 94.08125 107.36396Q94.08125 104.192085 93.33125 103.14521Q92.58125 102.098335 91.4875 102.098335Q90.39375 102.098335 89.7375 103.02021Q88.925 104.192085 88.925 107.36396Z" fill-rule="nonzero"/><path fill="#000000" d="M77.3 68.541664L78.95625 68.40104Q79.14375 69.61979 79.81563 70.229164Q80.4875 70.83854 81.44063 70.83854Q82.58125 70.83854 83.3625 69.979164Q84.15938 69.11979 84.15938 67.68229Q84.15938 66.33854 83.39375 65.55729Q82.64375 64.77604 81.40938 64.77604Q80.64375 64.77604 80.01875 65.11979Q79.40938 65.46354 79.06563 66.02604L77.58125 65.822914L78.83125 59.21354L85.2375 59.21354L85.2375 60.71354L80.09688 60.71354L79.39375 64.18229Q80.56563 63.36979 81.83125 63.36979Q83.51875 63.36979 84.675 64.541664Q85.84688 65.71354 85.84688 67.541664Q85.84688 69.291664 84.81563 70.572914Q83.58125 72.135414 81.44063 72.135414Q79.675 72.135414 78.56563 71.15104Q77.45625 70.166664 77.3 68.541664ZM87.3 65.55729Q87.3 63.27604 87.76875 61.885414Q88.2375 60.49479 89.15938 59.74479Q90.09688 58.979164 91.50313 58.979164Q92.53438 58.979164 93.31563 59.40104Q94.09688 59.80729 94.59688 60.604164Q95.1125 61.385414 95.40938 62.52604Q95.70625 63.65104 95.70625 65.55729Q95.70625 67.822914 95.2375 69.229164Q94.76875 70.61979 93.83125 71.385414Q92.90938 72.135414 91.50313 72.135414Q89.62813 72.135414 88.56563 70.80729Q87.3 69.197914 87.3 65.55729ZM88.925 65.55729Q88.925 68.729164 89.65938 69.791664Q90.40938 70.83854 91.50313 70.83854Q92.58125 70.83854 93.33125 69.791664Q94.08125 68.729164 94.08125 65.55729Q94.08125 62.385414 93.33125 61.33854Q92.58125 60.291664 91.4875 60.291664Q90.39375 60.291664 89.7375 61.21354Q88.925 62.385414 88.925 65.55729Z" fill-rule="nonzero"/><path fill="#000000" d="M136.27155 300.45L136.27155 287.5594L138.02155 287.5594L144.78717 297.6844L144.78717 287.5594L146.41217 287.5594L146.41217 300.45L144.6778 300.45L137.89655 290.325L137.89655 300.45L136.27155 300.45ZM148.4903 295.77814Q148.4903 293.1844 149.94342 291.9344Q151.14655 290.90314 152.8653 290.90314Q154.8028 290.90314 156.02155 292.16876Q157.2403 293.4344 157.2403 295.65314Q157.2403 297.45 156.69342 298.48126Q156.16217 299.5125 155.13092 300.09064Q154.09967 300.66876 152.8653 300.66876Q150.91217 300.66876 149.69342 299.41876Q148.4903 298.15314 148.4903 295.77814ZM150.1153 295.77814Q150.1153 297.575 150.89655 298.46564Q151.6778 299.35626 152.8653 299.35626Q154.0528 299.35626 154.83405 298.46564Q155.6153 297.5594 155.6153 295.73126Q155.6153 293.9969 154.81842 293.10626Q154.03717 292.21564 152.8653 292.21564Q151.6778 292.21564 150.89655 293.10626Q150.1153 293.9969 150.1153 295.77814ZM173.47467 295.9344L175.1778 296.35626Q174.64655 298.46564 173.25592 299.575Q171.8653 300.66876 169.84967 300.66876Q167.77155 300.66876 166.45905 299.825Q165.16217 298.96564 164.47467 297.3719Q163.78717 295.7625 163.78717 293.90314Q163.78717 291.90314 164.5528 290.40314Q165.33405 288.90314 166.75592 288.1219Q168.1778 287.34064 169.88092 287.34064Q171.8028 287.34064 173.1153 288.325Q174.44342 289.3094 174.95905 291.09064L173.28717 291.4969Q172.83405 290.09064 171.97467 289.45Q171.13092 288.8094 169.83405 288.8094Q168.34967 288.8094 167.34967 289.52814Q166.3653 290.23126 165.95905 291.4344Q165.5528 292.6219 165.5528 293.90314Q165.5528 295.54376 166.02155 296.77814Q166.50592 297.9969 167.52155 298.60626Q168.53717 299.21564 169.70905 299.21564Q171.14655 299.21564 172.13092 298.3875Q173.13092 297.5594 173.47467 295.9344ZM176.4903 295.77814Q176.4903 293.1844 177.94342 291.9344Q179.14655 290.90314 180.8653 290.90314Q182.8028 290.90314 184.02155 292.16876Q185.2403 293.4344 185.2403 295.65314Q185.2403 297.45 184.69342 298.48126Q184.16217 299.5125 183.13092 300.09064Q182.09967 300.66876 180.8653 300.66876Q178.91217 300.66876 177.69342 299.41876Q176.4903 298.15314 176.4903 295.77814ZM178.1153 295.77814Q178.1153 297.575 178.89655 298.46564Q179.6778 299.35626 180.8653 299.35626Q182.0528 299.35626 182.83405 298.46564Q183.6153 297.5594 183.6153 295.73126Q183.6153 293.9969 182.81842 293.10626Q182.03717 292.21564 180.8653 292.21564Q179.6778 292.21564 178.89655 293.10626Q178.1153 293.9969 178.1153 295.77814ZM187.0528 300.45L187.0528 287.5594L188.63092 287.5594L188.63092 300.45L187.0528 300.45ZM191.0528 300.45L191.0528 287.5594L192.63092 287.5594L192.63092 300.45L191.0528 300.45ZM201.47467 297.45L203.1153 297.65314Q202.72467 299.075 201.6778 299.8719Q200.63092 300.66876 199.00592 300.66876Q196.95905 300.66876 195.75592 299.40314Q194.5528 298.1375 194.5528 295.85626Q194.5528 293.5125 195.75592 292.21564Q196.97467 290.90314 198.91217 290.90314Q200.78717 290.90314 201.97467 292.1844Q203.16217 293.45 203.16217 295.7625Q203.16217 295.90314 203.14655 296.1844L196.19342 296.1844Q196.27155 297.73126 197.0528 298.54376Q197.84967 299.35626 199.00592 299.35626Q199.88092 299.35626 200.4903 298.90314Q201.1153 298.45 201.47467 297.45ZM196.27155 294.8875L201.4903 294.8875Q201.38092 293.71564 200.89655 293.1219Q200.13092 292.2 198.9278 292.2Q197.84967 292.2 197.09967 292.9344Q196.3653 293.66876 196.27155 294.8875ZM204.78717 301.23126L206.33405 301.45Q206.4278 302.16876 206.8653 302.4969Q207.45905 302.9344 208.47467 302.9344Q209.56842 302.9344 210.16217 302.48126Q210.77155 302.04376 210.97467 301.2625Q211.09967 300.77814 211.09967 299.23126Q210.0528 300.45 208.50592 300.45Q206.58405 300.45 205.52155 299.0594Q204.47467 297.66876 204.47467 295.73126Q204.47467 294.3875 204.95905 293.2625Q205.44342 292.1375 206.3653 291.52814Q207.28717 290.90314 208.52155 290.90314Q210.1778 290.90314 211.2403 292.2469L211.2403 291.1219L212.70905 291.1219L212.70905 299.1844Q212.70905 301.3719 212.25592 302.27814Q211.81842 303.1844 210.84967 303.7Q209.89655 304.23126 208.4903 304.23126Q206.81842 304.23126 205.78717 303.48126Q204.75592 302.73126 204.78717 301.23126ZM206.09967 295.6219Q206.09967 297.45 206.83405 298.29376Q207.56842 299.1375 208.66217 299.1375Q209.75592 299.1375 210.4903 298.3094Q211.22467 297.46564 211.22467 295.66876Q211.22467 293.95 210.45905 293.09064Q209.70905 292.21564 208.63092 292.21564Q207.58405 292.21564 206.83405 293.075Q206.09967 293.9344 206.09967 295.6219ZM221.47467 297.45L223.1153 297.65314Q222.72467 299.075 221.6778 299.8719Q220.63092 300.66876 219.00592 300.66876Q216.95905 300.66876 215.75592 299.40314Q214.5528 298.1375 214.5528 295.85626Q214.5528 293.5125 215.75592 292.21564Q216.97467 290.90314 218.91217 290.90314Q220.78717 290.90314 221.97467 292.1844Q223.16217 293.45 223.16217 295.7625Q223.16217 295.90314 223.14655 296.1844L216.19342 296.1844Q216.27155 297.73126 217.0528 298.54376Q217.84967 299.35626 219.00592 299.35626Q219.88092 299.35626 220.4903 298.90314Q221.1153 298.45 221.47467 297.45ZM216.27155 294.8875L221.4903 294.8875Q221.38092 293.71564 220.89655 293.1219Q220.13092 292.2 218.9278 292.2Q217.84967 292.2 217.09967 292.9344Q216.3653 293.66876 216.27155 294.8875Z" fill-rule="nonzero"/><path fill="#000000" d="M233.11134 296.3094L234.72072 296.16876Q234.8301 297.1375 235.23634 297.7625Q235.65822 298.3719 236.53322 298.7625Q237.42384 299.1375 238.5176 299.1375Q239.50197 299.1375 240.23634 298.85626Q240.98634 298.5594 241.34572 298.0594Q241.72072 297.54376 241.72072 296.95Q241.72072 296.34064 241.36134 295.8875Q241.0176 295.4344 240.2051 295.1375Q239.68947 294.9344 237.90822 294.5125Q236.1426 294.075 235.42384 293.7Q234.50197 293.21564 234.04884 292.4969Q233.59572 291.77814 233.59572 290.90314Q233.59572 289.91876 234.1426 289.075Q234.7051 288.23126 235.7676 287.79376Q236.8301 287.34064 238.1426 287.34064Q239.56447 287.34064 240.65822 287.8094Q241.75197 288.2625 242.34572 289.16876Q242.93947 290.0594 242.97072 291.2L241.34572 291.325Q241.2051 290.09064 240.43947 289.46564Q239.68947 288.84064 238.2051 288.84064Q236.65822 288.84064 235.93947 289.41876Q235.23634 289.98126 235.23634 290.77814Q235.23634 291.48126 235.75197 291.91876Q236.23634 292.3719 238.31447 292.84064Q240.3926 293.3094 241.17384 293.66876Q242.29884 294.1844 242.8301 294.98126Q243.36134 295.77814 243.36134 296.8094Q243.36134 297.84064 242.7676 298.7469Q242.18947 299.65314 241.0801 300.16876Q239.98634 300.66876 238.59572 300.66876Q236.84572 300.66876 235.65822 300.16876Q234.48634 299.65314 233.81447 298.6375Q233.1426 297.60626 233.11134 296.3094ZM244.8926 295.77814Q244.8926 293.1844 246.34572 291.9344Q247.54884 290.90314 249.2676 290.90314Q251.2051 290.90314 252.42384 292.16876Q253.6426 293.4344 253.6426 295.65314Q253.6426 297.45 253.09572 298.48126Q252.56447 299.5125 251.53322 300.09064Q250.50197 300.66876 249.2676 300.66876Q247.31447 300.66876 246.09572 299.41876Q244.8926 298.15314 244.8926 295.77814ZM246.5176 295.77814Q246.5176 297.575 247.29884 298.46564Q248.0801 299.35626 249.2676 299.35626Q250.4551 299.35626 251.23634 298.46564Q252.0176 297.5594 252.0176 295.73126Q252.0176 293.9969 251.22072 293.10626Q250.43947 292.21564 249.2676 292.21564Q248.0801 292.21564 247.29884 293.10626Q246.5176 293.9969 246.5176 295.77814ZM255.48634 300.45L255.48634 291.1219L256.9082 291.1219L256.9082 292.41876Q257.3457 291.7469 258.06445 291.325Q258.79883 290.90314 259.73633 290.90314Q260.76758 290.90314 261.42383 291.34064Q262.0957 291.7625 262.36133 292.54376Q263.4707 290.90314 265.25195 290.90314Q266.64258 290.90314 267.37695 291.6844Q268.12695 292.45 268.12695 294.04376L268.12695 300.45L266.56445 300.45L266.56445 294.575Q266.56445 293.6219 266.4082 293.2Q266.25195 292.77814 265.8457 292.52814Q265.43945 292.27814 264.89258 292.27814Q263.9082 292.27814 263.25195 292.9344Q262.61133 293.59064 262.61133 295.02814L262.61133 300.45L261.0332 300.45L261.0332 294.3875Q261.0332 293.325 260.64258 292.8094Q260.25195 292.27814 259.37695 292.27814Q258.70508 292.27814 258.14258 292.6375Q257.58008 292.98126 257.31445 293.65314Q257.06445 294.325 257.06445 295.60626L257.06445 300.45L255.48634 300.45ZM276.87695 297.45L278.51758 297.65314Q278.12695 299.075 277.08008 299.8719Q276.0332 300.66876 274.4082 300.66876Q272.36133 300.66876 271.1582 299.40314Q269.95508 298.1375 269.95508 295.85626Q269.95508 293.5125 271.1582 292.21564Q272.37695 290.90314 274.31445 290.90314Q276.18945 290.90314 277.37695 292.1844Q278.56445 293.45 278.56445 295.7625Q278.56445 295.90314 278.54883 296.1844L271.5957 296.1844Q271.67383 297.73126 272.45508 298.54376Q273.25195 299.35626 274.4082 299.35626Q275.2832 299.35626 275.89258 298.90314Q276.51758 298.45 276.87695 297.45ZM271.67383 294.8875L276.89258 294.8875Q276.7832 293.71564 276.29883 293.1219Q275.5332 292.2 274.33008 292.2Q273.25195 292.2 272.50195 292.9344Q271.76758 293.66876 271.67383 294.8875ZM294.87695 295.9344L296.58008 296.35626Q296.04883 298.46564 294.6582 299.575Q293.26758 300.66876 291.25195 300.66876Q289.17383 300.66876 287.86133 299.825Q286.56445 298.96564 285.87695 297.3719Q285.18945 295.7625 285.18945 293.90314Q285.18945 291.90314 285.95508 290.40314Q286.73633 288.90314 288.1582 288.1219Q289.58008 287.34064 291.2832 287.34064Q293.20508 287.34064 294.51758 288.325Q295.8457 289.3094 296.36133 291.09064L294.68945 291.4969Q294.23633 290.09064 293.37695 289.45Q292.5332 288.8094 291.23633 288.8094Q289.75195 288.8094 288.75195 289.52814Q287.76758 290.23126 287.36133 291.4344Q286.95508 292.6219 286.95508 293.90314Q286.95508 295.54376 287.42383 296.77814Q287.9082 297.9969 288.92383 298.60626Q289.93945 299.21564 291.11133 299.21564Q292.54883 299.21564 293.5332 298.3875Q294.5332 297.5594 294.87695 295.9344ZM297.89258 295.77814Q297.89258 293.1844 299.3457 291.9344Q300.54883 290.90314 302.26758 290.90314Q304.20508 290.90314 305.42383 292.16876Q306.64258 293.4344 306.64258 295.65314Q306.64258 297.45 306.0957 298.48126Q305.56445 299.5125 304.5332 300.09064Q303.50195 300.66876 302.26758 300.66876Q300.31445 300.66876 299.0957 299.41876Q297.89258 298.15314 297.89258 295.77814ZM299.51758 295.77814Q299.51758 297.575 300.29883 298.46564Q301.08008 299.35626 302.26758 299.35626Q303.45508 299.35626 304.23633 298.46564Q305.01758 297.5594 305.01758 295.73126Q305.01758 293.9969 304.2207 293.10626Q303.43945 292.21564 302.26758 292.21564Q301.08008 292.21564 300.29883 293.10626Q299.51758 293.9969 299.51758 295.77814ZM308.45508 300.45L308.45508 287.5594L310.0332 287.5594L310.0332 300.45L308.45508 300.45ZM312.45508 300.45L312.45508 287.5594L314.0332 287.5594L314.0332 300.45L312.45508 300.45ZM322.87695 297.45L324.51758 297.65314Q324.12695 299.075 323.08008 299.8719Q322.0332 300.66876 320.4082 300.66876Q318.36133 300.66876 317.1582 299.40314Q315.95508 298.1375 315.95508 295.85626Q315.95508 293.5125 317.1582 292.21564Q318.37695 290.90314 320.31445 290.90314Q322.18945 290.90314 323.37695 292.1844Q324.56445 293.45 324.56445 295.7625Q324.56445 295.90314 324.54883 296.1844L317.5957 296.1844Q317.67383 297.73126 318.45508 298.54376Q319.25195 299.35626 320.4082 299.35626Q321.2832 299.35626 321.89258 298.90314Q322.51758 298.45 322.87695 297.45ZM317.67383 294.8875L322.89258 294.8875Q322.7832 293.71564 322.29883 293.1219Q321.5332 292.2 320.33008 292.2Q319.25195 292.2 318.50195 292.9344Q317.76758 293.66876 317.67383 294.8875ZM326.18945 301.23126L327.73633 301.45Q327.83008 302.16876 328.26758 302.4969Q328.86133 302.9344 329.87695 302.9344Q330.9707 302.9344 331.56445 302.48126Q332.17383 302.04376 332.37695 301.2625Q332.50195 300.77814 332.50195 299.23126Q331.45508 300.45 329.9082 300.45Q327.98633 300.45 326.92383 299.0594Q325.87695 297.66876 325.87695 295.73126Q325.87695 294.3875 326.36133 293.2625Q326.8457 292.1375 327.76758 291.52814Q328.68945 290.90314 329.92383 290.90314Q331.58008 290.90314 332.64258 292.2469L332.64258 291.1219L334.11133 291.1219L334.11133 299.1844Q334.11133 301.3719 333.6582 302.27814Q333.2207 303.1844 332.25195 303.7Q331.29883 304.23126 329.89258 304.23126Q328.2207 304.23126 327.18945 303.48126Q326.1582 302.73126 326.18945 301.23126ZM327.50195 295.6219Q327.50195 297.45 328.23633 298.29376Q328.9707 299.1375 330.06445 299.1375Q331.1582 299.1375 331.89258 298.3094Q332.62695 297.46564 332.62695 295.66876Q332.62695 293.95 331.86133 293.09064Q331.11133 292.21564 330.0332 292.21564Q328.98633 292.21564 328.23633 293.075Q327.50195 293.9344 327.50195 295.6219ZM342.87695 297.45L344.51758 297.65314Q344.12695 299.075 343.08008 299.8719Q342.0332 300.66876 340.4082 300.66876Q338.36133 300.66876 337.1582 299.40314Q335.95508 298.1375 335.95508 295.85626Q335.95508 293.5125 337.1582 292.21564Q338.37695 290.90314 340.31445 290.90314Q342.18945 290.90314 343.37695 292.1844Q344.56445 293.45 344.56445 295.7625Q344.56445 295.90314 344.54883 296.1844L337.5957 296.1844Q337.67383 297.73126 338.45508 298.54376Q339.25195 299.35626 340.4082 299.35626Q341.2832 299.35626 341.89258 298.90314Q342.51758 298.45 342.87695 297.45ZM337.67383 294.8875L342.89258 294.8875Q342.7832 293.71564 342.29883 293.1219Q341.5332 292.2 340.33008 292.2Q339.25195 292.2 338.50195 292.9344Q337.76758 293.66876 337.67383 294.8875Z" fill-rule="nonzero"/><path fill="#000000" d="M368.01364 300.45L368.01364 287.5594L372.8574 287.5594Q374.32614 287.5594 375.21677 287.95Q376.1074 288.34064 376.6074 289.15314Q377.12302 289.96564 377.12302 290.85626Q377.12302 291.6844 376.6699 292.41876Q376.2324 293.15314 375.32614 293.59064Q376.49802 293.9344 377.12302 294.7625Q377.74802 295.59064 377.74802 296.71564Q377.74802 297.6219 377.3574 298.40314Q376.9824 299.16876 376.4199 299.59064Q375.8574 300.0125 375.01364 300.23126Q374.1699 300.45 372.93552 300.45L368.01364 300.45ZM369.7324 292.98126L372.51364 292.98126Q373.63864 292.98126 374.13864 292.825Q374.7949 292.6375 375.12302 292.2Q375.45114 291.7469 375.45114 291.0594Q375.45114 290.41876 375.13864 289.9344Q374.82614 289.45 374.24802 289.27814Q373.68552 289.09064 372.2949 289.09064L369.7324 289.09064L369.7324 292.98126ZM369.7324 298.9344L372.93552 298.9344Q373.76364 298.9344 374.09177 298.8719Q374.68552 298.7625 375.07614 298.5125Q375.46677 298.2625 375.71677 297.79376Q375.9824 297.325 375.9824 296.71564Q375.9824 295.9969 375.6074 295.46564Q375.24802 294.9344 374.59177 294.71564Q373.93552 294.4969 372.70114 294.4969L369.7324 294.4969L369.7324 298.9344ZM378.6699 300.45L383.62302 287.5594L385.46677 287.5594L390.7324 300.45L388.7949 300.45L387.2949 296.54376L381.90427 296.54376L380.4824 300.45L378.6699 300.45ZM382.38864 295.15314L386.76364 295.15314L385.4199 291.59064Q384.7949 289.96564 384.49802 288.91876Q384.26364 290.15314 383.81052 291.3719L382.38864 295.15314ZM395.70114 300.66876L399.43552 287.34064L400.70114 287.34064L396.9824 300.66876L395.70114 300.66876ZM407.01364 300.45L407.01364 287.5594L411.8574 287.5594Q413.32614 287.5594 414.21677 287.95Q415.1074 288.34064 415.6074 289.15314Q416.12302 289.96564 416.12302 290.85626Q416.12302 291.6844 415.6699 292.41876Q415.2324 293.15314 414.32614 293.59064Q415.49802 293.9344 416.12302 294.7625Q416.74802 295.59064 416.74802 296.71564Q416.74802 297.6219 416.3574 298.40314Q415.9824 299.16876 415.4199 299.59064Q414.8574 300.0125 414.01364 300.23126Q413.1699 300.45 411.93552 300.45L407.01364 300.45ZM408.7324 292.98126L411.51364 292.98126Q412.63864 292.98126 413.13864 292.825Q413.7949 292.6375 414.12302 292.2Q414.45114 291.7469 414.45114 291.0594Q414.45114 290.41876 414.13864 289.9344Q413.82614 289.45 413.24802 289.27814Q412.68552 289.09064 411.2949 289.09064L408.7324 289.09064L408.7324 292.98126ZM408.7324 298.9344L411.93552 298.9344Q412.76364 298.9344 413.09177 298.8719Q413.68552 298.7625 414.07614 298.5125Q414.46677 298.2625 414.71677 297.79376Q414.9824 297.325 414.9824 296.71564Q414.9824 295.9969 414.6074 295.46564Q414.24802 294.9344 413.59177 294.71564Q412.93552 294.4969 411.70114 294.4969L408.7324 294.4969L408.7324 298.9344ZM418.51364 296.3094L420.12302 296.16876Q420.2324 297.1375 420.63864 297.7625Q421.06052 298.3719 421.93552 298.7625Q422.82614 299.1375 423.9199 299.1375Q424.90427 299.1375 425.63864 298.85626Q426.38864 298.5594 426.74802 298.0594Q427.12302 297.54376 427.12302 296.95Q427.12302 296.34064 426.76364 295.8875Q426.4199 295.4344 425.6074 295.1375Q425.09177 294.9344 423.31052 294.5125Q421.5449 294.075 420.82614 293.7Q419.90427 293.21564 419.45114 292.4969Q418.99802 291.77814 418.99802 290.90314Q418.99802 289.91876 419.5449 289.075Q420.1074 288.23126 421.1699 287.79376Q422.2324 287.34064 423.5449 287.34064Q424.96677 287.34064 426.06052 287.8094Q427.15427 288.2625 427.74802 289.16876Q428.34177 290.0594 428.37302 291.2L426.74802 291.325Q426.6074 290.09064 425.84177 289.46564Q425.09177 288.84064 423.6074 288.84064Q422.06052 288.84064 421.34177 289.41876Q420.63864 289.98126 420.63864 290.77814Q420.63864 291.48126 421.15427 291.91876Q421.63864 292.3719 423.71677 292.84064Q425.7949 293.3094 426.57614 293.66876Q427.70114 294.1844 428.2324 294.98126Q428.76364 295.77814 428.76364 296.8094Q428.76364 297.84064 428.1699 298.7469Q427.59177 299.65314 426.4824 300.16876Q425.38864 300.66876 423.99802 300.66876Q422.24802 300.66876 421.06052 300.16876Q419.88864 299.65314 419.21677 298.6375Q418.5449 297.60626 418.51364 296.3094Z" fill-rule="nonzero"/><path fill="#000000" d="M449.4472 300.45L449.4472 287.5594L452.0097 287.5594L455.05658 296.6844Q455.47845 297.96564 455.66595 298.59064Q455.8847 297.8875 456.35345 296.52814L459.4472 287.5594L461.72845 287.5594L461.72845 300.45L460.08783 300.45L460.08783 289.66876L456.35345 300.45L454.80658 300.45L451.08783 289.48126L451.08783 300.45L449.4472 300.45ZM463.0722 300.45L468.02533 287.5594L469.86908 287.5594L475.1347 300.45L473.1972 300.45L471.6972 296.54376L466.30658 296.54376L464.8847 300.45L463.0722 300.45ZM466.79095 295.15314L471.16595 295.15314L469.8222 291.59064Q469.1972 289.96564 468.90033 288.91876Q468.66595 290.15314 468.21283 291.3719L466.79095 295.15314ZM480.10345 300.66876L483.83783 287.34064L485.10345 287.34064L481.3847 300.66876L480.10345 300.66876ZM491.4472 300.45L491.4472 287.5594L494.0097 287.5594L497.05658 296.6844Q497.47845 297.96564 497.66595 298.59064Q497.8847 297.8875 498.35345 296.52814L501.4472 287.5594L503.72845 287.5594L503.72845 300.45L502.08783 300.45L502.08783 289.66876L498.35345 300.45L496.80658 300.45L493.08783 289.48126L493.08783 300.45L491.4472 300.45ZM505.91595 296.3094L507.52533 296.16876Q507.6347 297.1375 508.04095 297.7625Q508.46283 298.3719 509.33783 298.7625Q510.22845 299.1375 511.3222 299.1375Q512.3066 299.1375 513.04095 298.85626Q513.79095 298.5594 514.1503 298.0594Q514.5253 297.54376 514.5253 296.95Q514.5253 296.34064 514.16595 295.8875Q513.8222 295.4344 513.0097 295.1375Q512.4941 294.9344 510.71283 294.5125Q508.9472 294.075 508.22845 293.7Q507.30658 293.21564 506.85345 292.4969Q506.40033 291.77814 506.40033 290.90314Q506.40033 289.91876 506.9472 289.075Q507.5097 288.23126 508.5722 287.79376Q509.6347 287.34064 510.9472 287.34064Q512.3691 287.34064 513.4628 287.8094Q514.5566 288.2625 515.1503 289.16876Q515.7441 290.0594 515.7753 291.2L514.1503 291.325Q514.0097 290.09064 513.2441 289.46564Q512.4941 288.84064 511.0097 288.84064Q509.46283 288.84064 508.74408 289.41876Q508.04095 289.98126 508.04095 290.77814Q508.04095 291.48126 508.55658 291.91876Q509.04095 292.3719 511.11908 292.84064Q513.1972 293.3094 513.97845 293.66876Q515.10345 294.1844 515.6347 294.98126Q516.16595 295.77814 516.16595 296.8094Q516.16595 297.84064 515.5722 298.7469Q514.9941 299.65314 513.8847 300.16876Q512.79095 300.66876 511.40033 300.66876Q509.65033 300.66876 508.46283 300.16876Q507.29095 299.65314 506.61908 298.6375Q505.9472 297.60626 505.91595 296.3094ZM522.10345 300.66876L525.8378 287.34064L527.10345 287.34064L523.3847 300.66876L522.10345 300.66876ZM533.4941 300.45L533.4941 287.5594L538.35345 287.5594Q539.6347 287.5594 540.3066 287.6844Q541.2597 287.84064 541.9003 288.29376Q542.54095 288.73126 542.9316 289.54376Q543.3222 290.34064 543.3222 291.29376Q543.3222 292.9344 542.2753 294.075Q541.22845 295.21564 538.5097 295.21564L535.1972 295.21564L535.1972 300.45L533.4941 300.45ZM535.1972 293.6844L538.5253 293.6844Q540.1816 293.6844 540.8691 293.075Q541.5722 292.46564 541.5722 291.34064Q541.5722 290.52814 541.16595 289.96564Q540.7597 289.3875 540.0878 289.2Q539.6503 289.09064 538.4941 289.09064L535.1972 289.09064L535.1972 293.6844ZM545.29095 300.45L545.29095 287.5594L546.8691 287.5594L546.8691 292.1844Q547.97845 290.90314 549.66595 290.90314Q550.6972 290.90314 551.4628 291.3094Q552.22845 291.71564 552.5566 292.45Q552.9003 293.16876 552.9003 294.52814L552.9003 300.45L551.3066 300.45L551.3066 294.52814Q551.3066 293.34064 550.79095 292.8094Q550.2753 292.2625 549.3378 292.2625Q548.6347 292.2625 548.0097 292.6375Q547.4003 292.9969 547.1347 293.6219Q546.8691 294.2469 546.8691 295.34064L546.8691 300.45L545.29095 300.45ZM555.4941 300.45L555.4941 287.5594L559.9316 287.5594Q561.4316 287.5594 562.22845 287.7469Q563.3378 287.9969 564.1191 288.66876Q565.1347 289.52814 565.6347 290.8719Q566.1503 292.21564 566.1503 293.9344Q566.1503 295.40314 565.8066 296.54376Q565.4628 297.66876 564.91595 298.41876Q564.3847 299.15314 563.7441 299.59064Q563.1191 300.0125 562.2128 300.23126Q561.3066 300.45 560.1347 300.45L555.4941 300.45ZM557.1972 298.9344L559.9472 298.9344Q561.22845 298.9344 561.9472 298.7Q562.66595 298.45 563.10345 298.02814Q563.7128 297.41876 564.04095 296.40314Q564.3847 295.3719 564.3847 293.90314Q564.3847 291.8875 563.7128 290.8094Q563.0566 289.71564 562.10345 289.35626Q561.4316 289.09064 559.9003 289.09064L557.1972 289.09064L557.1972 298.9344Z" fill-rule="nonzero"/><path fill="#757575" d="M21.128124 37.55L21.128124 23.2375L31.4875 23.2375L31.4875 24.925L23.034374 24.925L23.034374 29.3L30.940624 29.3L30.940624 30.9875L23.034374 30.9875L23.034374 35.8625L31.815624 35.8625L31.815624 37.55L21.128124 37.55ZM40.596874 37.55L40.596874 36.2375Q39.6125 37.784374 37.690624 37.784374Q36.45625 37.784374 35.409374 37.096874Q34.378124 36.409374 33.8 35.190624Q33.2375 33.971874 33.2375 32.378124Q33.2375 30.815624 33.753124 29.55Q34.26875 28.284374 35.3 27.6125Q36.346874 26.940624 37.6125 26.940624Q38.55 26.940624 39.284374 27.346874Q40.01875 27.7375 40.4875 28.3625L40.4875 23.2375L42.221874 23.2375L42.221874 37.55L40.596874 37.55ZM35.034374 32.378124Q35.034374 34.3625 35.878124 35.346874Q36.721874 36.33125 37.8625 36.33125Q39.01875 36.33125 39.815624 35.39375Q40.628124 34.45625 40.628124 32.51875Q40.628124 30.39375 39.8 29.39375Q38.9875 28.39375 37.784374 28.39375Q36.6125 28.39375 35.815624 29.3625Q35.034374 30.315624 35.034374 32.378124ZM51.659374 37.55L51.659374 36.01875Q50.45625 37.784374 48.378124 37.784374Q47.45625 37.784374 46.659374 37.440624Q45.8625 37.08125 45.471874 36.55Q45.096874 36.01875 44.940624 35.2375Q44.83125 34.721874 44.83125 33.596874L44.83125 27.175L46.58125 27.175L46.58125 32.925Q46.58125 34.3 46.690624 34.784374Q46.8625 35.471874 47.39375 35.878124Q47.940624 36.26875 48.721874 36.26875Q49.51875 36.26875 50.20625 35.8625Q50.909374 35.45625 51.190624 34.76875Q51.4875 34.065624 51.4875 32.7375L51.4875 27.175L53.2375 27.175L53.2375 37.55L51.659374 37.55ZM62.64375 33.753124L64.3625 33.971874Q64.08125 35.76875 62.909374 36.784374Q61.753124 37.784374 60.05 37.784374Q57.925 37.784374 56.628124 36.39375Q55.33125 35.003124 55.33125 32.409374Q55.33125 30.721874 55.878124 29.471874Q56.440624 28.20625 57.58125 27.58125Q58.721874 26.940624 60.065624 26.940624Q61.753124 26.940624 62.815624 27.8Q63.89375 28.659374 64.20625 30.221874L62.4875 30.4875Q62.253124 29.440624 61.628124 28.925Q61.003124 28.39375 60.128124 28.39375Q58.8 28.39375 57.971874 29.346874Q57.14375 30.3 57.14375 32.346874Q57.14375 34.440624 57.940624 35.39375Q58.7375 36.33125 60.034374 36.33125Q61.065624 36.33125 61.753124 35.70625Q62.45625 35.065624 62.64375 33.753124ZM72.64375 36.26875Q71.65938 37.096874 70.75313 37.440624Q69.84688 37.784374 68.81563 37.784374Q67.1125 37.784374 66.19063 36.95625Q65.26875 36.1125 65.26875 34.815624Q65.26875 34.05 65.6125 33.425Q65.97188 32.8 66.53438 32.425Q67.09688 32.034374 67.8 31.83125Q68.31563 31.70625 69.3625 31.565624Q71.4875 31.315624 72.4875 30.971874Q72.50313 30.6125 72.50313 30.503124Q72.50313 29.440624 72.00313 28.9875Q71.33125 28.39375 70.00313 28.39375Q68.75313 28.39375 68.15938 28.83125Q67.58125 29.26875 67.3 30.378124L65.58125 30.14375Q65.81563 29.034374 66.34688 28.3625Q66.87813 27.675 67.89375 27.315624Q68.90938 26.940624 70.25313 26.940624Q71.58125 26.940624 72.40938 27.253124Q73.2375 27.565624 73.62813 28.05Q74.01875 28.51875 74.175 29.2375Q74.26875 29.690624 74.26875 30.8625L74.26875 33.20625Q74.26875 35.659374 74.37813 36.315624Q74.4875 36.95625 74.83125 37.55L72.9875 37.55Q72.72188 37.003124 72.64375 36.26875ZM72.4875 32.346874Q71.53438 32.7375 69.6125 33.003124Q68.53438 33.159374 68.08125 33.3625Q67.64375 33.55 67.39375 33.925Q67.14375 34.3 67.14375 34.76875Q67.14375 35.471874 67.675 35.940624Q68.20625 36.409374 69.2375 36.409374Q70.25313 36.409374 71.03438 35.971874Q71.83125 35.51875 72.20625 34.753124Q72.4875 34.14375 72.4875 32.9875L72.4875 32.346874ZM80.70625 35.971874L80.95625 37.534374Q80.22188 37.690624 79.62813 37.690624Q78.675 37.690624 78.14375 37.39375Q77.62813 37.08125 77.40938 36.596874Q77.19063 36.096874 77.19063 34.51875L77.19063 28.55L75.90938 28.55L75.90938 27.175L77.19063 27.175L77.19063 24.6125L78.94063 23.55L78.94063 27.175L80.70625 27.175L80.70625 28.55L78.94063 28.55L78.94063 34.6125Q78.94063 35.3625 79.03438 35.58125Q79.12813 35.784374 79.33125 35.925Q79.55 36.05 79.94063 36.05Q80.22188 36.05 80.70625 35.971874ZM82.87813 25.253124L82.87813 23.2375L84.64375 23.2375L84.64375 25.253124L82.87813 25.253124ZM82.87813 37.55L82.87813 27.175L84.64375 27.175L84.64375 37.55L82.87813 37.55ZM86.22188 32.3625Q86.22188 29.4875 87.81563 28.096874Q89.15938 26.940624 91.08125 26.940624Q93.22188 26.940624 94.56563 28.346874Q95.925 29.753124 95.925 32.221874Q95.925 34.221874 95.33125 35.378124Q94.7375 36.51875 93.58125 37.159374Q92.44063 37.784374 91.08125 37.784374Q88.89375 37.784374 87.55 36.39375Q86.22188 34.9875 86.22188 32.3625ZM88.01875 32.3625Q88.01875 34.3625 88.87813 35.346874Q89.75313 36.33125 91.08125 36.33125Q92.39375 36.33125 93.25313 35.346874Q94.12813 34.346874 94.12813 32.3Q94.12813 30.378124 93.25313 29.39375Q92.37813 28.39375 91.08125 28.39375Q89.75313 28.39375 88.87813 29.39375Q88.01875 30.378124 88.01875 32.3625ZM97.8625 37.55L97.8625 27.175L99.45625 27.175L99.45625 28.659374Q100.59688 26.940624 102.75313 26.940624Q103.69063 26.940624 104.47188 27.284374Q105.26875 27.6125 105.65938 28.159374Q106.05 28.70625 106.20625 29.45625Q106.3 29.95625 106.3 31.175L106.3 37.55L104.53438 37.55L104.53438 31.2375Q104.53438 30.159374 104.33125 29.628124Q104.12813 29.096874 103.59688 28.784374Q103.08125 28.471874 102.37813 28.471874Q101.25313 28.471874 100.44063 29.190624Q99.62813 29.89375 99.62813 31.878124L99.62813 37.55L97.8625 37.55ZM115.01875 37.55L115.01875 23.2375L116.90938 23.2375L116.90938 35.8625L123.95625 35.8625L123.95625 37.55L115.01875 37.55ZM132.97188 34.20625L134.78438 34.440624Q134.3625 36.01875 133.19063 36.909374Q132.03438 37.784374 130.22188 37.784374Q127.95625 37.784374 126.6125 36.39375Q125.28438 34.9875 125.28438 32.45625Q125.28438 29.83125 126.62813 28.39375Q127.97188 26.940624 130.12813 26.940624Q132.20625 26.940624 133.51875 28.3625Q134.84688 29.76875 134.84688 32.346874Q134.84688 32.503124 134.83125 32.815624L127.09688 32.815624Q127.19063 34.51875 128.06563 35.425Q128.94063 36.33125 130.2375 36.33125Q131.20625 36.33125 131.87813 35.83125Q132.56563 35.315624 132.97188 34.20625ZM127.19063 31.3625L132.9875 31.3625Q132.87813 30.065624 132.33125 29.409374Q131.4875 28.39375 130.14375 28.39375Q128.94063 28.39375 128.1125 29.20625Q127.28438 30.003124 127.19063 31.3625ZM139.75313 37.55L135.8 27.175L137.65938 27.175L139.89375 33.39375Q140.25313 34.39375 140.55 35.471874Q140.78438 34.659374 141.20625 33.503124L143.50313 27.175L145.31563 27.175L141.39375 37.55L139.75313 37.55ZM153.97188 34.20625L155.78438 34.440624Q155.3625 36.01875 154.19063 36.909374Q153.03438 37.784374 151.22188 37.784374Q148.95625 37.784374 147.6125 36.39375Q146.28438 34.9875 146.28438 32.45625Q146.28438 29.83125 147.62813 28.39375Q148.97188 26.940624 151.12813 26.940624Q153.20625 26.940624 154.51875 28.3625Q155.84688 29.76875 155.84688 32.346874Q155.84688 32.503124 155.83125 32.815624L148.09688 32.815624Q148.19063 34.51875 149.06563 35.425Q149.94063 36.33125 151.2375 36.33125Q152.20625 36.33125 152.87813 35.83125Q153.56563 35.315624 153.97188 34.20625ZM148.19063 31.3625L153.9875 31.3625Q153.87813 30.065624 153.33125 29.409374Q152.4875 28.39375 151.14375 28.39375Q149.94063 28.39375 149.1125 29.20625Q148.28438 30.003124 148.19063 31.3625ZM157.83125 37.55L157.83125 23.2375L159.58125 23.2375L159.58125 37.55L157.83125 37.55ZM167.22188 32.3625Q167.22188 29.4875 168.81563 28.096874Q170.15938 26.940624 172.08125 26.940624Q174.22188 26.940624 175.56563 28.346874Q176.925 29.753124 176.925 32.221874Q176.925 34.221874 176.33125 35.378124Q175.7375 36.51875 174.58125 37.159374Q173.44063 37.784374 172.08125 37.784374Q169.89375 37.784374 168.55 36.39375Q167.22188 34.9875 167.22188 32.3625ZM169.01875 32.3625Q169.01875 34.3625 169.87813 35.346874Q170.75313 36.33125 172.08125 36.33125Q173.39375 36.33125 174.25313 35.346874Q175.12813 34.346874 175.12813 32.3Q175.12813 30.378124 174.25313 29.39375Q173.37813 28.39375 172.08125 28.39375Q170.75313 28.39375 169.87813 29.39375Q169.01875 30.378124 169.01875 32.3625ZM179.28438 37.55L179.28438 28.55L177.7375 28.55L177.7375 27.175L179.28438 27.175L179.28438 26.08125Q179.28438 25.034374 179.47188 24.51875Q179.72188 23.83125 180.3625 23.409374Q181.00313 22.9875 182.15938 22.9875Q182.90938 22.9875 183.8 23.159374L183.53438 24.690624Q182.9875 24.596874 182.50313 24.596874Q181.70625 24.596874 181.3625 24.940624Q181.03438 25.284374 181.03438 26.221874L181.03438 27.175L183.06563 27.175L183.06563 28.55L181.03438 28.55L181.03438 37.55L179.28438 37.55ZM201.31563 32.534374L203.20625 33.003124Q202.6125 35.346874 201.06563 36.58125Q199.51875 37.8 197.26875 37.8Q194.95625 37.8 193.50313 36.8625Q192.06563 35.909374 191.3 34.128124Q190.55 32.33125 190.55 30.284374Q190.55 28.05 191.39375 26.39375Q192.25313 24.721874 193.83125 23.8625Q195.40938 22.9875 197.3 22.9875Q199.45625 22.9875 200.90938 24.08125Q202.37813 25.175 202.95625 27.159374L201.09688 27.596874Q200.59688 26.034374 199.64375 25.33125Q198.70625 24.6125 197.26875 24.6125Q195.6125 24.6125 194.50313 25.409374Q193.39375 26.190624 192.94063 27.534374Q192.50313 28.8625 192.50313 30.26875Q192.50313 32.096874 193.03438 33.471874Q193.56563 34.83125 194.69063 35.503124Q195.81563 36.175 197.1125 36.175Q198.70625 36.175 199.81563 35.253124Q200.925 34.33125 201.31563 32.534374ZM211.65938 37.55L211.65938 36.01875Q210.45625 37.784374 208.37813 37.784374Q207.45625 37.784374 206.65938 37.440624Q205.8625 37.08125 205.47188 36.55Q205.09688 36.01875 204.94063 35.2375Q204.83125 34.721874 204.83125 33.596874L204.83125 27.175L206.58125 27.175L206.58125 32.925Q206.58125 34.3 206.69063 34.784374Q206.8625 35.471874 207.39375 35.878124Q207.94063 36.26875 208.72188 36.26875Q209.51875 36.26875 210.20625 35.8625Q210.90938 35.45625 211.19063 34.76875Q211.4875 34.065624 211.4875 32.7375L211.4875 27.175L213.2375 27.175L213.2375 37.55L211.65938 37.55ZM215.15938 34.45625L216.90938 34.175Q217.05 35.221874 217.72188 35.784374Q218.39375 36.33125 219.59688 36.33125Q220.8 36.33125 221.37813 35.846874Q221.97188 35.346874 221.97188 34.690624Q221.97188 34.096874 221.45625 33.753124Q221.09688 33.51875 219.65938 33.159374Q217.72188 32.659374 216.97188 32.315624Q216.2375 31.95625 215.84688 31.33125Q215.45625 30.690624 215.45625 29.925Q215.45625 29.2375 215.76875 28.64375Q216.09688 28.05 216.64375 27.659374Q217.05 27.3625 217.75313 27.159374Q218.47188 26.940624 219.28438 26.940624Q220.50313 26.940624 221.425 27.3Q222.34688 27.64375 222.78438 28.253124Q223.22188 28.846874 223.39375 29.846874L221.675 30.08125Q221.55 29.284374 220.9875 28.846874Q220.425 28.39375 219.40938 28.39375Q218.19063 28.39375 217.675 28.8Q217.15938 29.190624 217.15938 29.721874Q217.15938 30.065624 217.37813 30.346874Q217.58125 30.628124 218.05 30.815624Q218.31563 30.909374 219.59688 31.253124Q221.47188 31.753124 222.20625 32.08125Q222.94063 32.39375 223.3625 33.003124Q223.78438 33.596874 223.78438 34.503124Q223.78438 35.378124 223.26875 36.159374Q222.75313 36.940624 221.78438 37.3625Q220.81563 37.784374 219.59688 37.784374Q217.58125 37.784374 216.51875 36.940624Q215.45625 36.096874 215.15938 34.45625ZM229.70625 35.971874L229.95625 37.534374Q229.22188 37.690624 228.62813 37.690624Q227.675 37.690624 227.14375 37.39375Q226.62813 37.08125 226.40938 36.596874Q226.19063 36.096874 226.19063 34.51875L226.19063 28.55L224.90938 28.55L224.90938 27.175L226.19063 27.175L226.19063 24.6125L227.94063 23.55L227.94063 27.175L229.70625 27.175L229.70625 28.55L227.94063 28.55L227.94063 34.6125Q227.94063 35.3625 228.03438 35.58125Q228.12813 35.784374 228.33125 35.925Q228.55 36.05 228.94063 36.05Q229.22188 36.05 229.70625 35.971874ZM231.22188 32.3625Q231.22188 29.4875 232.81563 28.096874Q234.15938 26.940624 236.08125 26.940624Q238.22188 26.940624 239.56563 28.346874Q240.925 29.753124 240.925 32.221874Q240.925 34.221874 240.33125 35.378124Q239.7375 36.51875 238.58125 37.159374Q237.44063 37.784374 236.08125 37.784374Q233.89375 37.784374 232.55 36.39375Q231.22188 34.9875 231.22188 32.3625ZM233.01875 32.3625Q233.01875 34.3625 233.87813 35.346874Q234.75313 36.33125 236.08125 36.33125Q237.39375 36.33125 238.25313 35.346874Q239.12813 34.346874 239.12813 32.3Q239.12813 30.378124 238.25313 29.39375Q237.37813 28.39375 236.08125 28.39375Q234.75313 28.39375 233.87813 29.39375Q233.01875 30.378124 233.01875 32.3625ZM242.8625 37.55L242.8625 27.175L244.44063 27.175L244.44063 28.628124Q244.925 27.878124 245.7375 27.409374Q246.55 26.940624 247.58125 26.940624Q248.7375 26.940624 249.47188 27.425Q250.20625 27.89375 250.51875 28.753124Q251.75313 26.940624 253.72188 26.940624Q255.26875 26.940624 256.09686 27.8Q256.925 28.659374 256.925 30.425L256.925 37.55L255.175 37.55L255.175 31.01875Q255.175 29.95625 255.00313 29.503124Q254.83125 29.034374 254.37813 28.753124Q253.94063 28.471874 253.33125 28.471874Q252.2375 28.471874 251.50313 29.20625Q250.78438 29.925 250.78438 31.51875L250.78438 37.55L249.03438 37.55L249.03438 30.815624Q249.03438 29.64375 248.59688 29.065624Q248.175 28.471874 247.19063 28.471874Q246.45625 28.471874 245.81563 28.8625Q245.19063 29.253124 244.90938 30.003124Q244.62813 30.753124 244.62813 32.175L244.62813 37.55L242.8625 37.55ZM266.97186 34.20625L268.78436 34.440624Q268.3625 36.01875 267.1906 36.909374Q266.03436 37.784374 264.22186 37.784374Q261.95624 37.784374 260.6125 36.39375Q259.28436 34.9875 259.28436 32.45625Q259.28436 29.83125 260.6281 28.39375Q261.97186 26.940624 264.1281 26.940624Q266.20624 26.940624 267.51874 28.3625Q268.84686 29.76875 268.84686 32.346874Q268.84686 32.503124 268.83124 32.815624L261.09686 32.815624Q261.1906 34.51875 262.0656 35.425Q262.9406 36.33125 264.2375 36.33125Q265.20624 36.33125 265.8781 35.83125Q266.5656 35.315624 266.97186 34.20625ZM261.1906 31.3625L266.9875 31.3625Q266.8781 30.065624 266.33124 29.409374Q265.4875 28.39375 264.14374 28.39375Q262.9406 28.39375 262.1125 29.20625Q261.28436 30.003124 261.1906 31.3625ZM270.84686 37.55L270.84686 27.175L272.425 27.175L272.425 28.753124Q273.03436 27.64375 273.55 27.3Q274.0656 26.940624 274.675 26.940624Q275.5656 26.940624 276.4875 27.503124L275.8781 29.14375Q275.2375 28.753124 274.59686 28.753124Q274.01874 28.753124 273.55 29.1125Q273.09686 29.45625 272.89374 30.065624Q272.6125 31.003124 272.6125 32.1125L272.6125 37.55L270.84686 37.55ZM277.15936 34.45625L278.90936 34.175Q279.05 35.221874 279.72186 35.784374Q280.39374 36.33125 281.59686 36.33125Q282.8 36.33125 283.3781 35.846874Q283.97186 35.346874 283.97186 34.690624Q283.97186 34.096874 283.45624 33.753124Q283.09686 33.51875 281.65936 33.159374Q279.72186 32.659374 278.97186 32.315624Q278.2375 31.95625 277.84686 31.33125Q277.45624 30.690624 277.45624 29.925Q277.45624 29.2375 277.76874 28.64375Q278.09686 28.05 278.64374 27.659374Q279.05 27.3625 279.7531 27.159374Q280.47186 26.940624 281.28436 26.940624Q282.5031 26.940624 283.425 27.3Q284.34686 27.64375 284.78436 28.253124Q285.22186 28.846874 285.39374 29.846874L283.675 30.08125Q283.55 29.284374 282.9875 28.846874Q282.425 28.39375 281.40936 28.39375Q280.1906 28.39375 279.675 28.8Q279.15936 29.190624 279.15936 29.721874Q279.15936 30.065624 279.3781 30.346874Q279.58124 30.628124 280.05 30.815624Q280.3156 30.909374 281.59686 31.253124Q283.47186 31.753124 284.20624 32.08125Q284.9406 32.39375 285.3625 33.003124Q285.78436 33.596874 285.78436 34.503124Q285.78436 35.378124 285.26874 36.159374Q284.7531 36.940624 283.78436 37.3625Q282.8156 37.784374 281.59686 37.784374Q279.58124 37.784374 278.51874 36.940624Q277.45624 36.096874 277.15936 34.45625Z" fill-rule="nonzero"/></svg>