<svg version="1.1" viewBox="0.0 0.0 172.76640419947506 138.70603674540683" fill="none" stroke="none" stroke-linecap="square" stroke-miterlimit="10" xmlns:xlink="http://www.w3.org/1999/xlink" xmlns="http://www.w3.org/2000/svg"><clipPath id="p.0"><path d="m0 0l172.7664 0l0 138.70604l-172.7664 0l0 -138.70604z" clip-rule="nonzero"/></clipPath><g clip-path="url(#p.0)"><path fill="#000000" fill-opacity="0.0" d="m0 0l172.7664 0l0 138.70604l-172.7664 0z" fill-rule="evenodd"/><path fill="#000000" fill-opacity="0.0" d="m34.28004 40.028885l0 58.645668" fill-rule="evenodd"/><path stroke="#000000" stroke-width="1.0" stroke-linejoin="round" stroke-linecap="butt" d="m34.28004 40.028885l0 58.645668" fill-rule="evenodd"/><path fill="#000000" fill-opacity="0.0" d="m54.391224 115.65098l65.51181 0" fill-rule="evenodd"/><path stroke="#000000" stroke-width="1.0" stroke-linejoin="round" stroke-linecap="butt" d="m54.391224 115.65098l65.51181 0" fill-rule="evenodd"/><path fill="#000000" fill-opacity="0.0" d="m140.01173 98.67617l0 -58.645668" fill-rule="evenodd"/><path stroke="#000000" stroke-width="1.0" stroke-linejoin="round" stroke-linecap="butt" d="m140.01173 98.67617l0 -58.645668" fill-rule="evenodd"/><path fill="#dbf0f5" d="m14.170752 21.580109l0 0c0 -11.054392 9.00366 -20.015747 20.110235 -20.015747l0 0c5.3335686 0 10.448685 2.1087961 14.220085 5.862477c3.7714005 3.7536807 5.890152 8.844765 5.890152 14.153271l0 0c0 11.054394 -9.003658 20.015747 -20.110237 20.015747l0 0c-11.106575 0 -20.110235 -8.961353 -20.110235 -20.015747z" fill-rule="evenodd"/><path fill="#000000" d="m35.971058 26.660109l-2.015625 0l0 -7.578125q-1.09375 1.03125 -2.59375 1.53125l0 -1.828125q0.796875 -0.265625 1.71875 -0.984375q0.921875 -0.71875 1.265625 -1.671875l1.625 0l0 10.53125z" fill-rule="nonzero"/><path fill="#dbf0f5" d="m119.90041 21.580109l0 0c0 -11.054392 9.0036545 -20.015747 20.110237 -20.015747l0 0c5.333557 0 10.448685 2.1087961 14.2200775 5.862477c3.771408 3.7536807 5.890152 8.844765 5.890152 14.153271l0 0c0 11.054394 -9.003662 20.015747 -20.11023 20.015747l0 0c-11.106583 0 -20.110237 -8.961353 -20.110237 -20.015747z" fill-rule="evenodd"/><path fill="#000000" d="m141.70071 26.660109l-2.015625 0l0 -7.578125q-1.09375 1.03125 -2.59375 1.53125l0 -1.828125q0.796875 -0.265625 1.71875 -0.984375q0.921875 -0.71875 1.265625 -1.671875l1.625 0l0 10.53125z" fill-rule="nonzero"/><path fill="#dbf0f5" d="m119.90041 115.65098l0 0c0 -11.054398 9.0036545 -20.015747 20.110237 -20.015747l0 0c5.333557 0 10.448685 2.1087952 14.2200775 5.8624725c3.771408 3.753685 5.890152 8.844765 5.890152 14.153275l0 0c0 11.05439 -9.003662 20.01574 -20.11023 20.01574l0 0c-11.106583 0 -20.110237 -8.9613495 -20.110237 -20.01574z" fill-rule="evenodd"/><path fill="#000000" d="m141.70071 120.73097l-2.015625 0l0 -7.578125q-1.09375 1.03125 -2.59375 1.53125l0 -1.828125q0.796875 -0.265625 1.71875 -0.984375q0.921875 -0.71875 1.265625 -1.671875l1.625 0l0 10.53125z" fill-rule="nonzero"/><path fill="#dbf0f5" d="m14.170752 115.65098l0 0c0 -11.054398 9.00366 -20.015747 20.110235 -20.015747l0 0c5.3335686 0 10.448685 2.1087952 14.220085 5.8624725c3.7714005 3.753685 5.890152 8.844765 5.890152 14.153275l0 0c0 11.05439 -9.003658 20.01574 -20.110237 20.01574l0 0c-11.106575 0 -20.110235 -8.9613495 -20.110235 -20.01574z" fill-rule="evenodd"/><path fill="#000000" d="m35.971058 120.73097l-2.015625 0l0 -7.578125q-1.09375 1.03125 -2.59375 1.53125l0 -1.828125q0.796875 -0.265625 1.71875 -0.984375q0.921875 -0.71875 1.265625 -1.671875l1.625 0l0 10.53125z" fill-rule="nonzero"/></g></svg>