<svg version="1.1" viewBox="0.0 0.0 548.2545931758531 190.65616797900262" fill="none" stroke="none" stroke-linecap="square" stroke-miterlimit="10" xmlns:xlink="http://www.w3.org/1999/xlink" xmlns="http://www.w3.org/2000/svg"><clipPath id="p.0"><path d="m0 0l548.2546 0l0 190.65617l-548.2546 0l0 -190.65617z" clip-rule="nonzero"/></clipPath><g clip-path="url(#p.0)"><path fill="#000000" fill-opacity="0.0" d="m0 0l548.2546 0l0 190.65617l-548.2546 0z" fill-rule="evenodd"/><path fill="#000000" fill-opacity="0.0" d="m307.67847 32.367455l-129.88976 40.69291" fill-rule="evenodd"/><path stroke="#000000" stroke-width="1.0" stroke-linejoin="round" stroke-linecap="butt" d="m307.67847 32.367455l-129.88976 40.69291" fill-rule="evenodd"/><path fill="#000000" fill-opacity="0.0" d="m372.02493 32.367455l117.543304 40.69291" fill-rule="evenodd"/><path stroke="#000000" stroke-width="1.0" stroke-linejoin="round" stroke-linecap="butt" d="m372.02493 32.367455l117.543304 40.69291" fill-rule="evenodd"/><path fill="#000000" fill-opacity="0.0" d="m122.86483 95.32809l-64.157486 40.69291" fill-rule="evenodd"/><path stroke="#000000" stroke-width="1.0" stroke-linejoin="round" stroke-linecap="butt" d="m122.86483 95.32809l-64.157486 40.69291" fill-rule="evenodd"/><path fill="#000000" fill-opacity="0.0" d="m187.21129 95.32809l64.15747 40.69291" fill-rule="evenodd"/><path stroke="#000000" stroke-width="1.0" stroke-linejoin="round" stroke-linecap="butt" d="m187.21129 95.32809l64.15747 40.69291" fill-rule="evenodd"/><path fill="#dbf0f5" d="m307.6797 32.015713l0 0c0 -17.68181 14.404449 -32.015747 32.17325 -32.015747l0 0c8.532867 0 16.716248 3.373078 22.749908 9.377195c6.0336304 6.004118 9.423309 14.147448 9.423309 22.638554l0 0c0 17.681808 -14.404449 32.01575 -32.173218 32.01575l0 0c-17.768799 0 -32.17325 -14.333942 -32.17325 -32.01575z" fill-rule="evenodd"/><path fill="#000000" d="m336.43362 34.392586l2.0 -0.203125q0.078125 0.6875 0.5 1.078125q0.421875 0.390625 0.984375 0.390625q0.625 0 1.0625 -0.5q0.4375 -0.515625 0.4375 -1.546875q0 -0.96875 -0.4375 -1.453125q-0.4375 -0.484375 -1.125 -0.484375q-0.859375 0 -1.546875 0.765625l-1.640625 -0.234375l1.03125 -5.453125l5.328125 0l0 1.875l-3.796875 0l-0.3125 1.78125q0.671875 -0.328125 1.375 -0.328125q1.328125 0 2.25 0.96875q0.9375 0.96875 0.9375 2.53125q0 1.296875 -0.75 2.3125q-1.015625 1.375 -2.84375 1.375q-1.453125 0 -2.375 -0.765625q-0.90625 -0.78125 -1.078125 -2.109375z" fill-rule="nonzero"/><path fill="#dbf0f5" d="m479.9999 95.32805l0 0c0 -17.681808 14.404449 -32.015747 32.17325 -32.015747l0 0c8.532837 0 16.716248 3.3730774 22.749878 9.377197c6.0336304 6.0041122 9.42334 14.147446 9.42334 22.63855l0 0c0 17.681808 -14.40448 32.015747 -32.173218 32.015747l0 0c-17.768799 0 -32.17325 -14.333939 -32.17325 -32.015747z" fill-rule="evenodd"/><path fill="#000000" d="m515.50385 98.53305l0 1.875l-7.046875 0q0.125 -1.0625 0.6875 -2.0q0.578125 -0.953125 2.265625 -2.515625q1.359375 -1.28125 1.671875 -1.71875q0.40625 -0.625 0.40625 -1.234375q0 -0.671875 -0.359375 -1.03125q-0.359375 -0.359375 -1.0 -0.359375q-0.625 0 -1.0 0.375q-0.375 0.375 -0.421875 1.25l-2.015625 -0.1875q0.1875 -1.671875 1.125 -2.390625q0.953125 -0.71875 2.375 -0.71875q1.546875 0 2.421875 0.84375q0.890625 0.828125 0.890625 2.078125q0 0.703125 -0.25 1.34375q-0.25 0.640625 -0.796875 1.34375q-0.375 0.46875 -1.328125 1.34375q-0.9375 0.859375 -1.203125 1.15625q-0.25 0.28125 -0.40625 0.546875l3.984375 0z" fill-rule="nonzero"/><path fill="#dbf0f5" d="m246.9343 152.18631l0 0c0 -17.681808 14.404449 -32.01574 32.173218 -32.01574l0 0c8.532867 0 16.716248 3.3730774 22.749908 9.37719c6.033661 6.00412 9.423309 14.147446 9.423309 22.63855l0 0c0 17.681808 -14.404419 32.015747 -32.173218 32.015747l0 0c-17.768768 0 -32.173218 -14.333939 -32.173218 -32.015747z" fill-rule="evenodd"/><path fill="#000000" d="m275.57883 154.48506l1.953125 -0.234375q0.09375 0.734375 0.5 1.140625q0.40625 0.390625 0.984375 0.390625q0.625 0 1.046875 -0.46875q0.421875 -0.484375 0.421875 -1.28125q0 -0.765625 -0.40625 -1.203125q-0.40625 -0.4375 -0.984375 -0.4375q-0.390625 0 -0.921875 0.140625l0.21875 -1.640625q0.8125 0.03125 1.234375 -0.34375q0.4375 -0.375 0.4375 -1.0q0 -0.53125 -0.3125 -0.84375q-0.3125 -0.3125 -0.84375 -0.3125q-0.515625 0 -0.875 0.359375q-0.359375 0.34375 -0.4375 1.03125l-1.859375 -0.3125q0.1875 -0.953125 0.578125 -1.515625q0.390625 -0.578125 1.078125 -0.890625q0.703125 -0.328125 1.578125 -0.328125q1.484375 0 2.375 0.9375q0.734375 0.78125 0.734375 1.75q0 1.375 -1.515625 2.203125q0.90625 0.1875 1.4375 0.875q0.546875 0.671875 0.546875 1.609375q0 1.390625 -1.015625 2.359375q-1.0 0.96875 -2.5 0.96875q-1.421875 0 -2.359375 -0.8125q-0.9375 -0.8125 -1.09375 -2.140625z" fill-rule="nonzero"/><path fill="#dbf0f5" d="m122.86605 88.154816l0 0c0 -17.681808 14.404442 -32.015743 32.173225 -32.015743l0 0c8.532867 0 16.716263 3.3730774 22.749908 9.377193c6.0336456 6.00412 9.423325 14.147446 9.423325 22.63855l0 0c0 17.681816 -14.404449 32.015755 -32.173233 32.015755l0 0c-17.768784 0 -32.173225 -14.333939 -32.173225 -32.015755z" fill-rule="evenodd"/><path fill="#000000" d="m155.52623 93.23482l0 -2.109375l-4.296875 0l0 -1.765625l4.5625 -6.65625l1.6875 0l0 6.65625l1.296875 0l0 1.765625l-1.296875 0l0 2.109375l-1.953125 0zm0 -3.875l0 -3.59375l-2.40625 3.59375l2.40625 0z" fill-rule="nonzero"/><path fill="#dbf0f5" d="m2.7558115 158.64038l0 0c0 -17.681808 14.404446 -32.015747 32.17323 -32.015747l0 0c8.532871 0 16.716259 3.3730774 22.749908 9.377197c6.0336494 6.00412 9.423325 14.147446 9.423325 22.63855l0 0c0 17.681808 -14.404449 32.015747 -32.173233 32.015747l0 0c-17.768782 0 -32.17323 -14.333939 -32.17323 -32.015747z" fill-rule="evenodd"/><path fill="#000000" d="m36.61911 163.72038l-2.015625 0l0 -7.578125q-1.09375 1.03125 -2.59375 1.53125l0 -1.828125q0.796875 -0.265625 1.71875 -0.984375q0.921875 -0.71875 1.265625 -1.671875l1.625 0l0 10.53125z" fill-rule="nonzero"/></g></svg>