<svg version="1.1" viewBox="0.0 0.0 960.0 540.0" fill="none" stroke="none" stroke-linecap="square" stroke-miterlimit="10" xmlns:xlink="http://www.w3.org/1999/xlink" xmlns="http://www.w3.org/2000/svg"><clipPath id="p.0"><path d="m0 0l960.0 0l0 540.0l-960.0 0l0 -540.0z" clip-rule="nonzero"/></clipPath><g clip-path="url(#p.0)"><path fill="#ffffff" d="m0 0l960.0 0l0 540.0l-960.0 0z" fill-rule="evenodd"/><path fill="#000000" fill-opacity="0.0" d="m64.97952 117.85751l-0.03150177 67.842514l-41.66929 0l0.031496048 -67.842514z" fill-rule="evenodd"/><path fill="#000000" d="m42.35182 127.70126l0.13985825 1.65625q-1.0000572 0.125 -1.6408806 0.546875q-0.6408272 0.4375 -1.0474968 1.34375q-0.39105606 0.921875 -0.3915825 2.0625q-4.6539307E-4 1.0 0.2960472 1.78125q0.2965126 0.78125 0.8119621 1.15625q0.53107834 0.375 1.1560783 0.375q0.625 0 1.0939217 -0.375q0.46891785 -0.359375 0.79742813 -1.1875q0.20337677 -0.546875 0.6417351 -2.390625q0.45397186 -1.828125 0.8449402 -2.5625q0.50045013 -0.96875 1.2350426 -1.4375q0.75021744 -0.46875 1.6720924 -0.46875q1.0 0 1.8747292 0.578125q0.890358 0.578125 1.3429756 1.671875q0.45261002 1.109375 0.4519844 2.453125q-6.866455E-4 1.484375 -0.48558426 2.609375q-0.46928024 1.140625 -1.4070625 1.75q-0.9221573 0.609375 -2.0940552 0.65625l-0.12421799 -1.6875q1.2656898 -0.140625 1.9066849 -0.9375q0.6566124 -0.78125 0.65732574 -2.3125q7.4768066E-4 -1.609375 -0.5926628 -2.34375q-0.5934105 -0.734375 -1.4215355 -0.734375q-0.71875 0 -1.1721191 0.53125q-0.4689827 0.5 -0.96998596 2.65625q-0.48537445 2.15625 -0.8451195 2.953125q-0.5317955 1.171875 -1.3601723 1.71875q-0.8283882 0.5625 -1.9065132 0.5625q-1.0625 0 -2.0153427 -0.609375q-0.9372139 -0.609375 -1.4679375 -1.75q-0.51509476 -1.140625 -0.5144272 -2.578125q8.430481E-4 -1.8125 0.53266525 -3.046875q0.5318146 -1.21875 1.5946426 -1.921875q1.0628204 -0.6875 2.4065819 -0.71875zm-3.1182632 19.146698q-0.76519775 -0.921875 -1.0929298 -1.765625q-0.31211472 -0.828125 -0.31166458 -1.796875q7.4005127E-4 -1.59375 0.7823868 -2.453125q0.78165054 -0.859375 1.9847755 -0.859375q0.71875 0 1.2967224 0.328125q0.5935974 0.328125 0.9371071 0.84375q0.35913086 0.53125 0.5463257 1.1875q0.12478256 0.46875 0.2493248 1.453125q0.23345184 1.984375 0.56114197 2.921875q0.34374237 0.015625 0.42186737 0.015625q1.0000038 0 1.4220963 -0.46875q0.5471649 -0.625 0.54774475 -1.875q5.340576E-4 -1.15625 -0.40546036 -1.703125q-0.40599442 -0.546875 -1.4214973 -0.8125l0.21949768 -1.609375q1.015522 0.21875 1.6402893 0.71875q0.6403923 0.5 0.9836998 1.453125q0.3433113 0.953125 0.3427353 2.1875q-5.79834E-4 1.25 -0.2978096 2.015625q-0.2816124 0.78125 -0.73490524 1.140625q-0.43767548 0.375 -1.1096153 0.515625q-0.42190933 0.078125 -1.5156593 0.078125l-2.1875 0q-2.28125 0 -2.8906784 0.109375q-0.5937996 0.109375 -1.1564369 0.40625l7.8964233E-4 -1.703125q0.5157471 -0.265625 1.1876526 -0.328125zm3.6719398 -0.140625q-0.3745842 -0.890625 -0.6237602 -2.671875q-0.14015198 -1.015625 -0.32745743 -1.4375q-0.18730164 -0.421875 -0.5309448 -0.65625q-0.343647 -0.21875 -0.781147 -0.21875q-0.65625 0 -1.0939827 0.5q-0.4377327 0.5 -0.4381752 1.453125q-4.348755E-4 0.9375 0.40547562 1.671875q0.42152405 0.75 1.1401176 1.09375q0.5623741 0.265625 1.6404991 0.265625l0.609375 0zm-4.861305 4.156967l13.359379 0l-7.6293945E-4 1.640625l-13.359375 0l7.5912476E-4 -1.640625zm3.1043549 10.816696l-0.20390701 1.6875q-1.4841881 -0.40625 -2.3118134 -1.484375q-0.8120003 -1.078125 -0.81121445 -2.765625q9.841919E-4 -2.125 1.2984428 -3.375q1.3130722 -1.234375 3.6724472 -1.234375q2.453125 0 3.7962952 1.25q1.3431625 1.265625 1.3422318 3.265625q-8.9645386E-4 1.9375 -1.3295898 3.15625q-1.3130722 1.234375 -3.7036972 1.234375q-0.15625 0 -0.4375 0l0.0033493042 -7.21875q-1.593792 0.09375 -2.4535446 0.90625q-0.84412766 0.8125 -0.8446846 2.015625q-4.234314E-4 0.90625 0.46803284 1.546875q0.48407745 0.640625 1.515152 1.015625zm2.6587524 -5.390625l-0.0025100708 5.40625q1.2187996 -0.109375 1.8284149 -0.625q0.9534874 -0.78125 0.95406723 -2.03125q5.226135E-4 -1.125 -0.76474 -1.90625q-0.7496414 -0.765625 -2.015232 -0.84375zm-2.8789406 8.485092l0.2492485 1.625q-0.96881104 0.125 -1.500351 0.75q-0.5159149 0.625 -0.51643753 1.75q-5.226135E-4 1.125 0.45235062 1.671875q0.46849442 0.546875 1.0934944 0.546875q0.546875 0 0.87522507 -0.484375q0.21890259 -0.328125 0.5476532 -1.671875q0.46958923 -1.8125 0.7980423 -2.515625q0.32844543 -0.6875 0.90673447 -1.046875q0.59391785 -0.359375 1.3126678 -0.359375q0.640625 0 1.1873627 0.296875q0.5623627 0.296875 0.92149734 0.8125q0.28107834 0.375 0.46827316 1.03125q0.2028122 0.671875 0.20246506 1.421875q-5.302429E-4 1.140625 -0.3290558 2.0q-0.32852173 0.859375 -0.89121246 1.265625q-0.56269455 0.421875 -1.500267 0.578125l-0.21800232 -1.609375q0.7500496 -0.109375 1.1721725 -0.640625q0.4221115 -0.515625 0.42255402 -1.46875q5.302429E-4 -1.140625 -0.3742447 -1.625q-0.37478256 -0.46875 -0.87478256 -0.46875q-0.3125 0 -0.57821274 0.1875q-0.26571655 0.203125 -0.43779755 0.640625q-0.09385681 0.234375 -0.42254257 1.4375q-0.45393753 1.75 -0.75112915 2.4375q-0.29719543 0.6875 -0.8598747 1.078125q-0.5626831 0.390625 -1.4064331 0.390625q-0.828125 0 -1.5466499 -0.484375q-0.71853256 -0.46875 -1.124363 -1.375q-0.39020538 -0.90625 -0.38967514 -2.046875q8.69751E-4 -1.875 0.78258514 -2.875q0.78170776 -0.984375 2.3287048 -1.25z" fill-rule="nonzero"/><path fill="#000000" fill-opacity="0.0" d="m456.62256 466.18036l67.84253 0.03149414l0 41.66928l-67.84253 -0.03149414z" fill-rule="evenodd"/><path fill="#000000" d="m470.4663 493.10678l0 -11.78125l-4.40625 -0.0020446777l0 -1.578125l10.578125 0.00491333l0 1.578125l-4.40625 -0.0020446777l0 11.78125l-1.765625 -8.239746E-4zm7.0939026 -11.465454l0 -1.890625l1.640625 7.6293945E-4l0 1.890625l-1.640625 -7.6293945E-4zm0 11.46875l0 -9.671875l1.640625 7.6293945E-4l0 9.671875l-1.640625 -7.6293945E-4zm4.1448364 0.0019226074l0 -9.671875l1.46875 6.713867E-4l0 1.359375q0.453125 -0.7185364 1.203125 -1.1400757q0.765625 -0.4371338 1.71875 -0.43667603q1.078125 4.8828125E-4 1.765625 0.45391846q0.6875 0.4378357 0.96875 1.2348328q1.15625 -1.6869507 2.984375 -1.6860962q1.453125 6.713867E-4 2.21875 0.7978821q0.78125 0.7972412 0.78125 2.4534912l0 6.640625l-1.640625 -7.6293945E-4l0 -6.09375q0 -0.984375 -0.15625 -1.406311q-0.15625 -0.43756104 -0.578125 -0.70339966q-0.421875 -0.2658081 -0.984375 -0.26608276q-1.015625 -4.5776367E-4 -1.6875 0.68670654q-0.671875 0.6715698 -0.671875 2.1559448l0 5.625l-1.640625 -7.6293945E-4l0 -6.28125q0 -1.09375 -0.40625 -1.6408081q-0.40625 -0.5470581 -1.3125 -0.54748535q-0.6875 -3.0517578E-4 -1.28125 0.35879517q-0.59375 0.35910034 -0.859375 1.0621033q-0.25 0.7030029 -0.25 2.031128l0 5.015625l-1.640625 -7.6293945E-4zm22.165771 -3.0990906l1.6875 0.20391846q-0.40625 1.4841919 -1.484375 2.311798q-1.078125 0.8120117 -2.7655945 0.81121826q-2.125 -9.765625E-4 -3.375 -1.2984314q-1.234375 -1.3130798 -1.234375 -3.6724548q0 -2.453125 1.25 -3.7962952q1.265625 -1.3431702 3.265625 -1.3422241q1.9374695 8.8500977E-4 3.1562195 1.3295898q1.234375 1.3130493 1.234375 3.7036743q0 0.15625 0 0.4375l-7.2187195 -0.003326416q0.09375 1.5937805 0.90625 2.4535217q0.8125 0.8441467 2.015625 0.84469604q0.90625 4.272461E-4 1.5468445 -0.46801758q0.640625 -0.48410034 1.015625 -1.5151672zm-5.3905945 -2.6587524l5.4062195 0.0025024414q-0.109375 -1.2187805 -0.625 -1.8283997q-0.78125 -0.9534912 -2.0312195 -0.95407104q-1.125 -5.187988E-4 -1.90625 0.76474q-0.765625 0.7496338 -0.84375 2.0152283z" fill-rule="nonzero"/><path fill="#000000" fill-opacity="0.0" d="m181.42258 5.8845143l-1.9842529 432.47244" fill-rule="evenodd"/><path stroke="#595959" stroke-width="1.0" stroke-linejoin="round" stroke-linecap="butt" d="m181.42258 5.8845143l-1.9842529 432.47244" fill-rule="evenodd"/><path fill="#000000" fill-opacity="0.0" d="m341.42258 5.8845143l-1.9842529 432.47244" fill-rule="evenodd"/><path stroke="#595959" stroke-width="1.0" stroke-linejoin="round" stroke-linecap="butt" d="m341.42258 5.8845143l-1.9842529 432.47244" fill-rule="evenodd"/><path fill="#000000" fill-opacity="0.0" d="m72.396324 441.32407c18.016624 -3.9671936 63.14086 18.841644 108.09974 -23.803131c44.958878 -42.644806 78.01706 -189.42126 161.65353 -232.06563c83.636505 -42.64435 264.2979 -58.67672 340.16534 -23.800522c75.86749 34.876205 74.04773 187.1076 115.03937 233.05774c40.9917 45.950134 109.09235 35.53589 130.91077 42.643036" fill-rule="evenodd"/><path stroke="#595959" stroke-width="1.0" stroke-linejoin="round" stroke-linecap="butt" d="m72.396324 441.32407c18.016624 -3.9671936 63.14086 18.841644 108.09974 -23.803131c44.958878 -42.644806 78.01706 -189.42126 161.65353 -232.06563c83.636505 -42.64435 264.2979 -58.67672 340.16534 -23.800522c75.86749 34.876205 74.04773 187.1076 115.03937 233.05774c40.9917 45.950134 109.09235 35.53589 130.91077 42.643036" fill-rule="evenodd"/><path fill="#000000" fill-opacity="0.0" d="m701.42255 5.8845143l-1.9842529 432.47244" fill-rule="evenodd"/><path stroke="#595959" stroke-width="1.0" stroke-linejoin="round" stroke-linecap="butt" d="m701.42255 5.8845143l-1.9842529 432.47244" fill-rule="evenodd"/><path fill="#000000" fill-opacity="0.0" d="m925.42255 5.8845143l-1.9842529 432.47244" fill-rule="evenodd"/><path stroke="#595959" stroke-width="1.0" stroke-linejoin="round" stroke-linecap="butt" d="m925.42255 5.8845143l-1.9842529 432.47244" fill-rule="evenodd"/><path fill="#000000" fill-opacity="0.0" d="m71.4042 444.2966l860.8189 -6.929138" fill-rule="evenodd"/><path stroke="#595959" stroke-width="1.0" stroke-linejoin="round" stroke-linecap="butt" d="m71.4042 444.2966l854.8191 -6.880829" fill-rule="evenodd"/><path fill="#595959" stroke="#595959" stroke-width="1.0" stroke-linecap="butt" d="m926.2366 439.0674l4.524658 -1.6882019l-4.5512085 -1.6151428z" fill-rule="evenodd"/><path fill="#000000" fill-opacity="0.0" d="m75.3727 443.3071l-1.9842529 -428.44095" fill-rule="evenodd"/><path stroke="#595959" stroke-width="1.0" stroke-linejoin="round" stroke-linecap="butt" d="m75.3727 443.3071l-1.956459 -422.441" fill-rule="evenodd"/><path fill="#595959" stroke="#595959" stroke-width="1.0" stroke-linecap="butt" d="m75.067955 20.858427l-1.6727295 -4.5303993l-1.6306992 4.545698z" fill-rule="evenodd"/><path fill="#000000" fill-opacity="0.0" d="m105.12336 51.569553l57.511818 0l0 66.645676l-57.511818 0z" fill-rule="evenodd"/><path fill="#000000" d="m115.857735 78.489555l0 -13.359375l1.765625 0l0 13.359375l-1.765625 0zm4.683304 0l0 -9.671875l1.46875 0l0 1.375q1.0625 -1.59375 3.078125 -1.59375q0.875 0 1.609375 0.3125q0.734375 0.3125 1.09375 0.828125q0.37499237 0.5 0.5156174 1.203125q0.09375 0.453125 0.09375 1.59375l0 5.953125l-1.6406174 0l0 -5.890625q0 -1.0 -0.203125 -1.484375q-0.1875 -0.5 -0.671875 -0.796875q-0.484375 -0.296875 -1.140625 -0.296875q-1.046875 0 -1.8125 0.671875q-0.75 0.65625 -0.75 2.515625l0 5.28125l-1.640625 0zm13.953835 -1.46875l0.234375 1.453125q-0.6875 0.140625 -1.234375 0.140625q-0.890625 0 -1.390625 -0.28125q-0.484375 -0.28125 -0.6875 -0.734375q-0.203125 -0.46875 -0.203125 -1.9375l0 -5.578125l-1.203125 0l0 -1.265625l1.203125 0l0 -2.390625l1.625 -0.984375l0 3.375l1.65625 0l0 1.265625l-1.65625 0l0 5.671875q0 0.6875 0.078125 0.890625q0.09375 0.203125 0.28125 0.328125q0.203125 0.109375 0.578125 0.109375q0.265625 0 0.71875 -0.0625zm1.5895538 1.46875l0 -9.671875l1.46875 0l0 1.46875q0.5625 -1.03125 1.03125 -1.359375q0.484375 -0.328125 1.0625 -0.328125q0.828125 0 1.6875 0.53125l-0.5625 1.515625q-0.609375 -0.359375 -1.203125 -0.359375q-0.546875 0 -0.96875 0.328125q-0.421875 0.328125 -0.609375 0.890625q-0.28125 0.875 -0.28125 1.921875l0 5.0625l-1.625 0zm5.618927 -4.84375q0 -2.6875 1.484375 -3.96875q1.25 -1.078125 3.046875 -1.078125q2.0 0 3.265625 1.3125q1.265625 1.296875 1.265625 3.609375q0 1.859375 -0.5625 2.9375q-0.5625 1.0625 -1.640625 1.65625q-1.0625 0.59375 -2.328125 0.59375q-2.03125 0 -3.28125 -1.296875q-1.25 -1.3125 -1.25 -3.765625zm1.6875 0q0 1.859375 0.796875 2.796875q0.8125 0.921875 2.046875 0.921875q1.21875 0 2.03125 -0.921875q0.8125 -0.9375 0.8125 -2.84375q0 -1.796875 -0.8125 -2.71875q-0.8125 -0.921875 -2.03125 -0.921875q-1.234375 0 -2.046875 0.921875q-0.796875 0.90625 -0.796875 2.765625z" fill-rule="nonzero"/><path fill="#000000" fill-opacity="0.0" d="m222.28084 51.569553l86.14174 0l0 66.645676l-86.14174 0z" fill-rule="evenodd"/><path fill="#000000" d="m238.96834 73.25518l0 -1.578125l5.65625 0l0 4.953125q-1.296875 1.046875 -2.6875 1.578125q-1.375 0.515625 -2.84375 0.515625q-1.96875 0 -3.578125 -0.84375q-1.609375 -0.84375 -2.421875 -2.4375q-0.8125 -1.59375 -0.8125 -3.5625q0 -1.953125 0.8125 -3.640625q0.8125 -1.6875 2.34375 -2.5q1.53125 -0.828125 3.515625 -0.828125q1.453125 0 2.625 0.46875q1.171875 0.46875 1.828125 1.3125q0.671875 0.828125 1.015625 2.171875l-1.59375 0.4375q-0.296875 -1.015625 -0.75 -1.59375q-0.4375 -0.59375 -1.265625 -0.9375q-0.828125 -0.34375 -1.84375 -0.34375q-1.203125 0 -2.09375 0.375q-0.890625 0.359375 -1.4375 0.96875q-0.53125 0.59375 -0.828125 1.3125q-0.515625 1.234375 -0.515625 2.6875q0 1.78125 0.609375 2.984375q0.625 1.203125 1.796875 1.796875q1.171875 0.578125 2.5 0.578125q1.140625 0 2.234375 -0.4375q1.09375 -0.453125 1.65625 -0.953125l0 -2.484375l-3.921875 0zm8.042679 5.234375l0 -9.671875l1.46875 0l0 1.46875q0.5625 -1.03125 1.03125 -1.359375q0.484375 -0.328125 1.0625 -0.328125q0.828125 0 1.6875 0.53125l-0.5625 1.515625q-0.609375 -0.359375 -1.203125 -0.359375q-0.546875 0 -0.96875 0.328125q-0.421875 0.328125 -0.609375 0.890625q-0.28125 0.875 -0.28125 1.921875l0 5.0625l-1.625 0zm5.618927 -4.84375q0 -2.6875 1.484375 -3.96875q1.25 -1.078125 3.046875 -1.078125q2.0 0 3.265625 1.3125q1.265625 1.296875 1.265625 3.609375q0 1.859375 -0.5625 2.9375q-0.5625 1.0625 -1.640625 1.65625q-1.0625 0.59375 -2.328125 0.59375q-2.03125 0 -3.28125 -1.296875q-1.25 -1.3125 -1.25 -3.765625zm1.6875 0q0 1.859375 0.796875 2.796875q0.8125 0.921875 2.046875 0.921875q1.21875 0 2.03125 -0.921875q0.8125 -0.9375 0.8125 -2.84375q0 -1.796875 -0.8125 -2.71875q-0.8125 -0.921875 -2.03125 -0.921875q-1.234375 0 -2.046875 0.921875q-0.796875 0.90625 -0.796875 2.765625zm11.078857 4.84375l-2.96875 -9.671875l1.703125 0l1.53125 5.578125l0.578125 2.078125q0.046875 -0.15625 0.5 -2.0l1.546875 -5.65625l1.6875 0l1.4375 5.609375l0.484375 1.84375l0.5625 -1.859375l1.65625 -5.59375l1.59375 0l-3.03125 9.671875l-1.703125 0l-1.53125 -5.796875l-0.375 -1.640625l-1.953125 7.4375l-1.71875 0zm15.269806 -1.46875l0.234375 1.453125q-0.6875 0.140625 -1.234375 0.140625q-0.890625 0 -1.390625 -0.28125q-0.484375 -0.28125 -0.6875 -0.734375q-0.203125 -0.46875 -0.203125 -1.9375l0 -5.578125l-1.203125 0l0 -1.265625l1.203125 0l0 -2.390625l1.625 -0.984375l0 3.375l1.65625 0l0 1.265625l-1.65625 0l0 5.671875q0 0.6875 0.078125 0.890625q0.09375 0.203125 0.28125 0.328125q0.203125 0.109375 0.578125 0.109375q0.265625 0 0.71875 -0.0625zm1.6051941 1.46875l0 -13.359375l1.640625 0l0 4.796875q1.140625 -1.328125 2.890625 -1.328125q1.078125 0 1.859375 0.421875q0.796875 0.421875 1.140625 1.171875q0.34375 0.75 0.34375 2.171875l0 6.125l-1.640625 0l0 -6.125q0 -1.234375 -0.53125 -1.796875q-0.53125 -0.5625 -1.515625 -0.5625q-0.71875 0 -1.359375 0.390625q-0.640625 0.375 -0.921875 1.015625q-0.265625 0.640625 -0.265625 1.78125l0 5.296875l-1.640625 0z" fill-rule="nonzero"/><path fill="#000000" fill-opacity="0.0" d="m456.33612 51.63517l93.63782 0l0 66.64567l-93.63782 0z" fill-rule="evenodd"/><path fill="#000000" d="m466.72675 78.55517l0 -13.359375l2.65625 0l3.15625 9.453125q0.4375 1.328125 0.640625 1.984375q0.234375 -0.734375 0.703125 -2.140625l3.203125 -9.296875l2.375 0l0 13.359375l-1.703125 0l0 -11.171875l-3.875 11.171875l-1.59375 0l-3.859375 -11.375l0 11.375l-1.703125 0zm21.697052 -1.1875q-0.921875 0.765625 -1.765625 1.09375q-0.828125 0.3125 -1.796875 0.3125q-1.59375 0 -2.453125 -0.78125q-0.859375 -0.78125 -0.859375 -1.984375q0 -0.71875 0.328125 -1.296875q0.328125 -0.59375 0.84375 -0.9375q0.53125 -0.359375 1.1875 -0.546875q0.46875 -0.125 1.453125 -0.25q1.984375 -0.234375 2.921875 -0.5625q0.015625 -0.34375 0.015625 -0.421875q0 -1.0 -0.46875 -1.421875q-0.625 -0.546875 -1.875 -0.546875q-1.15625 0 -1.703125 0.40625q-0.546875 0.40625 -0.8125 1.421875l-1.609375 -0.21875q0.21875 -1.015625 0.71875 -1.640625q0.5 -0.640625 1.453125 -0.984375q0.953125 -0.34375 2.1875 -0.34375q1.25 0 2.015625 0.296875q0.78125 0.28125 1.140625 0.734375q0.375 0.4375 0.515625 1.109375q0.078125 0.421875 0.078125 1.515625l0 2.1875q0 2.28125 0.109375 2.890625q0.109375 0.59375 0.40625 1.15625l-1.703125 0q-0.265625 -0.515625 -0.328125 -1.1875zm-0.140625 -3.671875q-0.890625 0.375 -2.671875 0.625q-1.015625 0.140625 -1.4375 0.328125q-0.421875 0.1875 -0.65625 0.53125q-0.21875 0.34375 -0.21875 0.78125q0 0.65625 0.5 1.09375q0.5 0.4375 1.453125 0.4375q0.9375 0 1.671875 -0.40625q0.75 -0.421875 1.09375 -1.140625q0.265625 -0.5625 0.265625 -1.640625l0 -0.609375zm7.7819824 3.390625l0.234375 1.453125q-0.6875 0.140625 -1.234375 0.140625q-0.890625 0 -1.390625 -0.28125q-0.484375 -0.28125 -0.6875 -0.734375q-0.203125 -0.46875 -0.203125 -1.9375l0 -5.578125l-1.203125 0l0 -1.265625l1.203125 0l0 -2.390625l1.625 -0.984375l0 3.375l1.65625 0l0 1.265625l-1.65625 0l0 5.671875q0 0.6875 0.078125 0.890625q0.09375 0.203125 0.28125 0.328125q0.203125 0.109375 0.578125 0.109375q0.265625 0 0.71875 -0.0625zm7.9332886 1.46875l0 -1.421875q-1.125 1.640625 -3.0625 1.640625q-0.859375 0 -1.609375 -0.328125q-0.734375 -0.328125 -1.09375 -0.828125q-0.359375 -0.5 -0.5 -1.21875q-0.109375 -0.46875 -0.109375 -1.53125l0 -5.984375l1.640625 0l0 5.359375q0 1.28125 0.109375 1.734375q0.15625 0.640625 0.65625 1.015625q0.5 0.375 1.234375 0.375q0.734375 0 1.375 -0.375q0.65625 -0.390625 0.921875 -1.03125q0.265625 -0.65625 0.265625 -1.890625l0 -5.1875l1.640625 0l0 9.671875l-1.46875 0zm4.0319824 0l0 -9.671875l1.46875 0l0 1.46875q0.5625 -1.03125 1.03125 -1.359375q0.484375 -0.328125 1.0625 -0.328125q0.8280945 0 1.6874695 0.53125l-0.5625 1.515625q-0.609375 -0.359375 -1.2030945 -0.359375q-0.546875 0 -0.96875 0.328125q-0.421875 0.328125 -0.609375 0.890625q-0.28125 0.875 -0.28125 1.921875l0 5.0625l-1.625 0zm6.228302 -11.46875l0 -1.890625l1.640625 0l0 1.890625l-1.640625 0zm0 11.46875l0 -9.671875l1.640625 0l0 9.671875l-1.640625 0zm7.7229614 -1.46875l0.234375 1.453125q-0.6875 0.140625 -1.234375 0.140625q-0.890625 0 -1.390625 -0.28125q-0.484375 -0.28125 -0.6875 -0.734375q-0.203125 -0.46875 -0.203125 -1.9375l0 -5.578125l-1.203125 0l0 -1.265625l1.203125 0l0 -2.390625l1.625 -0.984375l0 3.375l1.65625 0l0 1.265625l-1.65625 0l0 5.671875q0 0.6875 0.078125 0.890625q0.09375 0.203125 0.28125 0.328125q0.203125 0.109375 0.578125 0.109375q0.265625 0 0.71875 -0.0625zm1.5270386 5.1875l-0.1875 -1.53125q0.546875 0.140625 0.9375 0.140625q0.546875 0 0.875 -0.1875q0.328125 -0.171875 0.546875 -0.5q0.15625 -0.25 0.5 -1.21875q0.046875 -0.140625 0.140625 -0.40625l-3.671875 -9.6875l1.765625 0l2.015625 5.59375q0.390625 1.078125 0.703125 2.25q0.28125 -1.125 0.671875 -2.203125l2.078125 -5.640625l1.640625 0l-3.6875 9.828125q-0.59375 1.609375 -0.921875 2.203125q-0.4375 0.8125 -1.0 1.1875q-0.5625 0.375 -1.34375 0.375q-0.484375 0 -1.0625 -0.203125z" fill-rule="nonzero"/><path fill="#000000" fill-opacity="0.0" d="m760.36743 51.569553l104.12598 0l0 66.645676l-104.12598 0z" fill-rule="evenodd"/><path fill="#000000" d="m770.80493 78.489555l0 -13.359375l4.609375 0q1.546875 0 2.375 0.203125q1.140625 0.25 1.953125 0.953125q1.0625 0.890625 1.578125 2.28125q0.53125 1.390625 0.53125 3.171875q0 1.515625 -0.359375 2.703125q-0.359375 1.171875 -0.921875 1.9375q-0.546875 0.765625 -1.203125 1.21875q-0.65625 0.4375 -1.59375 0.671875q-0.9375 0.21875 -2.140625 0.21875l-4.828125 0zm1.765625 -1.578125l2.859375 0q1.3125 0 2.0625 -0.234375q0.75 -0.25 1.203125 -0.703125q0.625 -0.625 0.96875 -1.6875q0.359375 -1.0625 0.359375 -2.578125q0 -2.09375 -0.6875 -3.21875q-0.6875 -1.125 -1.671875 -1.5q-0.703125 -0.28125 -2.28125 -0.28125l-2.8125 0l0 10.203125zm18.129211 -1.53125l1.6875 0.203125q-0.40625 1.484375 -1.484375 2.3125q-1.078125 0.8125 -2.765625 0.8125q-2.125 0 -3.375 -1.296875q-1.234375 -1.3125 -1.234375 -3.671875q0 -2.453125 1.25 -3.796875q1.265625 -1.34375 3.265625 -1.34375q1.9375 0 3.15625 1.328125q1.234375 1.3125 1.234375 3.703125q0 0.15625 0 0.4375l-7.21875 0q0.09375 1.59375 0.90625 2.453125q0.8125 0.84375 2.015625 0.84375q0.90625 0 1.546875 -0.46875q0.640625 -0.484375 1.015625 -1.515625zm-5.390625 -2.65625l5.40625 0q-0.109375 -1.21875 -0.625 -1.828125q-0.78125 -0.953125 -2.03125 -0.953125q-1.125 0 -1.90625 0.765625q-0.765625 0.75 -0.84375 2.015625zm15.453857 2.21875l1.609375 0.21875q-0.265625 1.65625 -1.359375 2.609375q-1.078125 0.9375 -2.671875 0.9375q-1.984375 0 -3.1875 -1.296875q-1.203125 -1.296875 -1.203125 -3.71875q0 -1.578125 0.515625 -2.75q0.515625 -1.171875 1.578125 -1.75q1.0625 -0.59375 2.3125 -0.59375q1.578125 0 2.578125 0.796875q1.0 0.796875 1.28125 2.265625l-1.59375 0.234375q-0.234375 -0.96875 -0.8125 -1.453125q-0.578125 -0.5 -1.390625 -0.5q-1.234375 0 -2.015625 0.890625q-0.78125 0.890625 -0.78125 2.8125q0 1.953125 0.75 2.84375q0.75 0.875 1.953125 0.875q0.96875 0 1.609375 -0.59375q0.65625 -0.59375 0.828125 -1.828125zm2.96875 3.546875l0 -13.359375l1.640625 0l0 13.359375l-1.640625 0zm4.1917114 -11.46875l0 -1.890625l1.640625 0l0 1.890625l-1.640625 0zm0 11.46875l0 -9.671875l1.640625 0l0 9.671875l-1.640625 0zm4.1447754 0l0 -9.671875l1.46875 0l0 1.375q1.0625 -1.59375 3.078125 -1.59375q0.875 0 1.609375 0.3125q0.734375 0.3125 1.09375 0.828125q0.375 0.5 0.515625 1.203125q0.09375 0.453125 0.09375 1.59375l0 5.953125l-1.640625 0l0 -5.890625q0 -1.0 -0.203125 -1.484375q-0.1875 -0.5 -0.671875 -0.796875q-0.484375 -0.296875 -1.140625 -0.296875q-1.046875 0 -1.8125 0.671875q-0.75 0.65625 -0.75 2.515625l0 5.28125l-1.640625 0zm17.000732 -3.109375l1.6875 0.203125q-0.40625 1.484375 -1.484375 2.3125q-1.078125 0.8125 -2.765625 0.8125q-2.125 0 -3.375 -1.296875q-1.234375 -1.3125 -1.234375 -3.671875q0 -2.453125 1.25 -3.796875q1.265625 -1.34375 3.265625 -1.34375q1.9375 0 3.15625 1.328125q1.234375 1.3125 1.234375 3.703125q0 0.15625 0 0.4375l-7.21875 0q0.09375 1.59375 0.90625 2.453125q0.8125 0.84375 2.015625 0.84375q0.90625 0 1.546875 -0.46875q0.640625 -0.484375 1.015625 -1.515625zm-5.390625 -2.65625l5.40625 0q-0.109375 -1.21875 -0.625 -1.828125q-0.78125 -0.953125 -2.03125 -0.953125q-1.125 0 -1.90625 0.765625q-0.765625 0.75 -0.84375 2.015625z" fill-rule="nonzero"/></g></svg>