<?xml version="1.0" standalone="no" ?>
<!DOCTYPE svg PUBLIC "-//W3C//DTD SVG 1.1//EN" "http://www.w3.org/Graphics/SVG/1.1/DTD/svg11.dtd">
<svg width="59px" height="59px" viewBox="0 0 59 59" style="background-color: #ffffff00" xmlns="http://www.w3.org/2000/svg" xmlns:xlink="http://www.w3.org/1999/xlink" version="1.1" >
<text x="0" y="0" stroke="transparent" fill="#000000" transform="matrix(0.05 0 0 0.05 24.9407 32.4521)" style="font:normal normal normal 200px 'Helvetica'" >
Xe</text>
<text x="0" y="0" stroke="transparent" fill="#000000" transform="matrix(0.05 0 0 0.05 46.4137 22.1529)" style="font:normal normal normal 200px 'Helvetica'" >
F</text>
<path stroke="transparent" fill="#000000" transform="matrix(0.05 0 0 0.05 -367 -373)" d="M 8222.36,7879.6 L 8228.37,7890.02 L 8078.91,7976.28 L 8072.89,7965.86 L 8222.36,7879.6 Z " />
<text x="0" y="0" stroke="transparent" fill="#000000" transform="matrix(0.05 0 0 0.05 7.30405 32.2209)" style="font:normal normal normal 200px 'Helvetica'" >
F</text>
<path stroke="transparent" fill="#000000" transform="matrix(0.05 0 0 0.05 -367 -373)" d="M 7621.8,8039.64 L 7621.93,8027.61 L 7809.97,8029.65 L 7809.83,8041.68 L 7621.8,8039.64 Z " />
<text x="0" y="0" stroke="transparent" fill="#000000" transform="matrix(0.05 0 0 0.05 28.5686 53.0572)" style="font:normal normal normal 200px 'Helvetica'" >
F</text>
<path stroke="transparent" fill="#000000" transform="matrix(0.05 0 0 0.05 -367 -373)" d="M 7967.14,8344.66 L 7955.11,8344.66 L 7955.11,8144.62 L 7967.14,8144.62 L 7967.14,8344.66 Z " />
<text x="0" y="0" stroke="transparent" fill="#000000" transform="matrix(0.05 0 0 0.05 27.5603 11.8469)" style="font:normal normal normal 200px 'Helvetica'" >
O</text>
<path stroke="transparent" fill="#000000" transform="matrix(0.05 0 0 0.05 -367 -373)" d="M 7918.02,7735.56 L 7930.05,7735.56 L 7930.05,7932.55 L 7918.02,7932.55 L 7918.02,7735.56 Z " />
<path stroke="transparent" fill="#000000" transform="matrix(0.05 0 0 0.05 -367 -373)" d="M 7992.2,7735.56 L 8004.23,7735.56 L 8004.23,7932.55 L 7992.2,7932.55 L 7992.2,7735.56 Z " />
<text x="0" y="0" stroke="transparent" fill="#000000" transform="matrix(0.05 0 0 0.05 46.4137 42.7512)" style="font:normal normal normal 200px 'Helvetica'" >
F</text>
<path stroke="transparent" fill="#000000" transform="matrix(0.05 0 0 0.05 -367 -373)" d="M 8228.6,8184.74 L 8222.59,8195.16 L 8089.78,8118.51 L 8095.8,8108.09 L 8228.6,8184.74 Z " />
<path stroke="transparent" fill="#000000" transform="matrix(0.05 0 0 0.05 -367 -373)" d="M 7400.7,7987.28 A 16.714,16.714 0 1 0 7434.13,7987.28A 16.714,16.714 0 1 0 7400.7,7987.28Z " />
<path stroke="transparent" fill="#000000" transform="matrix(0.05 0 0 0.05 -367 -373)" d="M 7396.62,8062.38 A 16.714,16.714 0 1 0 7430.05,8062.38A 16.714,16.714 0 1 0 7396.62,8062.38Z " />
<path stroke="transparent" fill="#000000" transform="matrix(0.05 0 0 0.05 -367 -373)" d="M 7575.29,7909.37 A 16.6947,16.6947 0 1 0 7608.68,7909.37A 16.6947,16.6947 0 1 0 7575.29,7909.37Z " />
<path stroke="transparent" fill="#000000" transform="matrix(0.05 0 0 0.05 -367 -373)" d="M 7500.46,7902.71 A 16.6947,16.6947 0 1 0 7533.85,7902.71A 16.6947,16.6947 0 1 0 7500.46,7902.71Z " />
<path stroke="transparent" fill="#000000" transform="matrix(0.05 0 0 0.05 -367 -373)" d="M 7488.25,8159.68 A 16.72,16.72 0 1 0 7521.69,8159.68A 16.72,16.72 0 1 0 7488.25,8159.68Z " />
<path stroke="transparent" fill="#000000" transform="matrix(0.05 0 0 0.05 -367 -373)" d="M 7563.49,8159.13 A 16.72,16.72 0 1 0 7596.93,8159.13A 16.72,16.72 0 1 0 7563.49,8159.13Z " />
<path stroke="transparent" fill="#000000" transform="matrix(0.05 0 0 0.05 -367 -373)" d="M 7842.84,7533.57 A 16.72,16.72 0 1 0 7876.28,7533.57A 16.72,16.72 0 1 0 7842.84,7533.57Z " />
<path stroke="transparent" fill="#000000" transform="matrix(0.05 0 0 0.05 -367 -373)" d="M 7822.3,7605.95 A 16.72,16.72 0 1 0 7855.74,7605.95A 16.72,16.72 0 1 0 7822.3,7605.95Z " />
<path stroke="transparent" fill="#000000" transform="matrix(0.05 0 0 0.05 -367 -373)" d="M 8076.31,7588.23 A 16.7065,16.7065 0 1 0 8109.72,7588.23A 16.7065,16.7065 0 1 0 8076.31,7588.23Z " />
<path stroke="transparent" fill="#000000" transform="matrix(0.05 0 0 0.05 -367 -373)" d="M 8037.67,7523.74 A 16.7065,16.7065 0 1 0 8071.08,7523.74A 16.7065,16.7065 0 1 0 8037.67,7523.74Z " />
<path stroke="transparent" fill="#000000" transform="matrix(0.05 0 0 0.05 -367 -373)" d="M 8231.02,7704.07 A 16.7162,16.7162 0 1 0 8264.45,7704.07A 16.7162,16.7162 0 1 0 8231.02,7704.07Z " />
<path stroke="transparent" fill="#000000" transform="matrix(0.05 0 0 0.05 -367 -373)" d="M 8183.4,7762.3 A 16.7162,16.7162 0 1 0 8216.83,7762.3A 16.7162,16.7162 0 1 0 8183.4,7762.3Z " />
<path stroke="transparent" fill="#000000" transform="matrix(0.05 0 0 0.05 -367 -373)" d="M 8425.48,7766.2 A 16.6848,16.6848 0 1 0 8458.85,7766.2A 16.6848,16.6848 0 1 0 8425.48,7766.2Z " />
<path stroke="transparent" fill="#000000" transform="matrix(0.05 0 0 0.05 -367 -373)" d="M 8379.63,7706.75 A 16.6848,16.6848 0 1 0 8413,7706.75A 16.6848,16.6848 0 1 0 8379.63,7706.75Z " />
<path stroke="transparent" fill="#000000" transform="matrix(0.05 0 0 0.05 -367 -373)" d="M 8350.67,7925.69 A 16.7113,16.7113 0 1 0 8384.1,7925.69A 16.7113,16.7113 0 1 0 8350.67,7925.69Z " />
<path stroke="transparent" fill="#000000" transform="matrix(0.05 0 0 0.05 -367 -373)" d="M 8409.86,7879.29 A 16.7113,16.7113 0 1 0 8443.28,7879.29A 16.7113,16.7113 0 1 0 8409.86,7879.29Z " />
<path stroke="transparent" fill="#000000" transform="matrix(0.05 0 0 0.05 -367 -373)" d="M 8404.66,8121.88 A 16.7054,16.7054 0 1 0 8438.07,8121.88A 16.7054,16.7054 0 1 0 8404.66,8121.88Z " />
<path stroke="transparent" fill="#000000" transform="matrix(0.05 0 0 0.05 -367 -373)" d="M 8338.4,8086.37 A 16.7054,16.7054 0 1 0 8371.81,8086.37A 16.7054,16.7054 0 1 0 8338.4,8086.37Z " />
<path stroke="transparent" fill="#000000" transform="matrix(0.05 0 0 0.05 -367 -373)" d="M 8402.62,8329.5 A 16.7021,16.7021 0 1 0 8436.02,8329.5A 16.7021,16.7021 0 1 0 8402.62,8329.5Z " />
<path stroke="transparent" fill="#000000" transform="matrix(0.05 0 0 0.05 -367 -373)" d="M 8434.86,8261.61 A 16.7021,16.7021 0 1 0 8468.27,8261.61A 16.7021,16.7021 0 1 0 8434.86,8261.61Z " />
<path stroke="transparent" fill="#000000" transform="matrix(0.05 0 0 0.05 -367 -373)" d="M 8225.2,8352.61 A 16.6954,16.6954 0 1 0 8258.59,8352.61A 16.6954,16.6954 0 1 0 8225.2,8352.61Z " />
<path stroke="transparent" fill="#000000" transform="matrix(0.05 0 0 0.05 -367 -373)" d="M 8295.54,8379 A 16.6954,16.6954 0 1 0 8328.93,8379A 16.6954,16.6954 0 1 0 8295.54,8379Z " />
<path stroke="transparent" fill="#000000" transform="matrix(0.05 0 0 0.05 -367 -373)" d="M 8053.33,8471.99 A 16.7088,16.7088 0 1 0 8086.74,8471.99A 16.7088,16.7088 0 1 0 8053.33,8471.99Z " />
<path stroke="transparent" fill="#000000" transform="matrix(0.05 0 0 0.05 -367 -373)" d="M 8045.98,8397.16 A 16.7088,16.7088 0 1 0 8079.4,8397.16A 16.7088,16.7088 0 1 0 8045.98,8397.16Z " />
<path stroke="transparent" fill="#000000" transform="matrix(0.05 0 0 0.05 -367 -373)" d="M 7839.32,8405.5 A 16.7051,16.7051 0 1 0 7872.73,8405.5A 16.7051,16.7051 0 1 0 7839.32,8405.5Z " />
<path stroke="transparent" fill="#000000" transform="matrix(0.05 0 0 0.05 -367 -373)" d="M 7836.06,8480.6 A 16.7051,16.7051 0 1 0 7869.47,8480.6A 16.7051,16.7051 0 1 0 7836.06,8480.6Z " />
<path stroke="transparent" fill="#000000" transform="matrix(0.05 0 0 0.05 -367 -373)" d="M 7907.42,8573.96 A 16.7305,16.7305 0 1 0 7940.88,8573.96A 16.7305,16.7305 0 1 0 7907.42,8573.96Z " />
<path stroke="transparent" fill="#000000" transform="matrix(0.05 0 0 0.05 -367 -373)" d="M 7982.65,8576.68 A 16.7305,16.7305 0 1 0 8016.11,8576.68A 16.7305,16.7305 0 1 0 7982.65,8576.68Z " />
<path stroke="transparent" fill="#ffffff" transform="matrix(0.05 0 0 0.05 -367 -373)" d="M 7848.82,8181.3 C 7894.14,8229.16 7777.06,8418.42 7728.81,8464.09 C 7669.85,8519.92 7615,8547.89 7542.5,8471.31 C 7470,8394.72 7500.92,8341.49 7559.89,8285.66 C 7608.14,8239.99 7803.51,8133.43 7848.82,8181.3 " />
<path stroke="#ffffff" stroke-width="1" fill="transparent" transform="matrix(0.05 0 0 0.05 -367 -373)" d="M 7848.82,8181.3 C 7894.14,8229.16 7777.06,8418.42 7728.81,8464.09 C 7669.85,8519.92 7615,8547.89 7542.5,8471.31 C 7470,8394.72 7500.92,8341.49 7559.89,8285.66 C 7608.14,8239.99 7803.51,8133.43 7848.82,8181.3 " />
<path stroke="#000000" stroke-width="12" fill="transparent" transform="matrix(0.05 0 0 0.05 -367 -373)" d="M 7848.82,8181.3 C 7894.14,8229.16 7777.06,8418.42 7728.81,8464.09 C 7669.85,8519.92 7615,8547.89 7542.5,8471.31 C 7470,8394.72 7500.92,8341.49 7559.89,8285.66 C 7608.14,8239.99 7803.51,8133.43 7848.82,8181.3 " />
<path stroke="transparent" fill="#000000" transform="matrix(0.05 0 0 0.05 -367 -373)" d="M 7568.35,8377.9 A 16.7042,16.7042 0 1 0 7601.76,8377.9A 16.7042,16.7042 0 1 0 7568.35,8377.9Z " />
<path stroke="transparent" fill="#000000" transform="matrix(0.05 0 0 0.05 -367 -373)" d="M 7630.66,8419.94 A 16.7042,16.7042 0 1 0 7664.07,8419.94A 16.7042,16.7042 0 1 0 7630.66,8419.94Z " />
</svg>
