<?xml version="1.0" standalone="no" ?>
<!DOCTYPE svg PUBLIC "-//W3C//DTD SVG 1.1//EN" "http://www.w3.org/Graphics/SVG/1.1/DTD/svg11.dtd">
<svg width="152px" height="75px" viewBox="0 0 152 75" style="background-color: #ffffff00" xmlns="http://www.w3.org/2000/svg" xmlns:xlink="http://www.w3.org/1999/xlink" version="1.1" >
<text x="0" y="0" stroke="transparent" fill="#000000" transform="matrix(0.05 0 0 0.05 25.085 33.5419)" style="font:normal normal normal 200px 'Helvetica'" >
Xe</text>
<text x="0" y="0" stroke="transparent" fill="#000000" transform="matrix(0.05 0 0 0.05 46.558 23.2427)" style="font:normal normal normal 200px 'Helvetica'" >
F</text>
<path stroke="transparent" fill="#000000" transform="matrix(0.05 0 0 0.05 -133 -118)" d="M 3545.24,2801.4 L 3551.26,2811.82 L 3401.79,2898.08 L 3395.78,2887.66 L 3545.24,2801.4 Z " />
<text x="0" y="0" stroke="transparent" fill="#000000" transform="matrix(0.05 0 0 0.05 7.44833 33.3107)" style="font:normal normal normal 200px 'Helvetica'" >
F</text>
<path stroke="transparent" fill="#000000" transform="matrix(0.05 0 0 0.05 -133 -118)" d="M 2944.69,2961.44 L 2944.82,2949.41 L 3132.85,2951.45 L 3132.72,2963.48 L 2944.69,2961.44 Z " />
<text x="0" y="0" stroke="transparent" fill="#000000" transform="matrix(0.05 0 0 0.05 28.7129 54.147)" style="font:normal normal normal 200px 'Helvetica'" >
F</text>
<path stroke="transparent" fill="#000000" transform="matrix(0.05 0 0 0.05 -133 -118)" d="M 3290.03,3266.45 L 3278,3266.45 L 3278,3066.41 L 3290.03,3066.41 L 3290.03,3266.45 Z " />
<text x="0" y="0" stroke="transparent" fill="#000000" transform="matrix(0.05 0 0 0.05 27.7046 12.9367)" style="font:normal normal normal 200px 'Helvetica'" >
O</text>
<path stroke="transparent" fill="#000000" transform="matrix(0.05 0 0 0.05 -133 -118)" d="M 3278,2657.36 L 3290.03,2657.36 L 3290.03,2854.35 L 3278,2854.35 L 3278,2657.36 Z " />
<text x="0" y="0" stroke="transparent" fill="#000000" transform="matrix(0.05 0 0 0.05 46.558 43.841)" style="font:normal normal normal 200px 'Helvetica'" >
F</text>
<path stroke="transparent" fill="#000000" transform="matrix(0.05 0 0 0.05 -133 -118)" d="M 3551.49,3106.54 L 3545.48,3116.96 L 3412.67,3040.31 L 3418.68,3029.89 L 3551.49,3106.54 Z " />
<path stroke="transparent" fill="#000000" transform="matrix(0.05 0 0 0.05 -133 -118)" d="M 2723.62,2909.07 A 16.6838,16.6838 0 1 0 2756.98,2909.07A 16.6838,16.6838 0 1 0 2723.62,2909.07Z " />
<path stroke="transparent" fill="#000000" transform="matrix(0.05 0 0 0.05 -133 -118)" d="M 2719.53,2984.04 A 16.6838,16.6838 0 1 0 2752.9,2984.04A 16.6838,16.6838 0 1 0 2719.53,2984.04Z " />
<path stroke="transparent" fill="#000000" transform="matrix(0.05 0 0 0.05 -133 -118)" d="M 2898.21,2831.17 A 16.6646,16.6646 0 1 0 2931.54,2831.17A 16.6646,16.6646 0 1 0 2898.21,2831.17Z " />
<path stroke="transparent" fill="#000000" transform="matrix(0.05 0 0 0.05 -133 -118)" d="M 2823.52,2824.5 A 16.6646,16.6646 0 1 0 2856.85,2824.5A 16.6646,16.6646 0 1 0 2823.52,2824.5Z " />
<path stroke="transparent" fill="#000000" transform="matrix(0.05 0 0 0.05 -133 -118)" d="M 2811.17,3081.47 A 16.6898,16.6898 0 1 0 2844.55,3081.47A 16.6898,16.6898 0 1 0 2811.17,3081.47Z " />
<path stroke="transparent" fill="#000000" transform="matrix(0.05 0 0 0.05 -133 -118)" d="M 2886.27,3080.93 A 16.6898,16.6898 0 1 0 2919.65,3080.93A 16.6898,16.6898 0 1 0 2886.27,3080.93Z " />
<path stroke="transparent" fill="#000000" transform="matrix(0.05 0 0 0.05 -133 -118)" d="M 3149.07,2508.39 A 16.6598,16.6598 0 1 0 3182.39,2508.39A 16.6598,16.6598 0 1 0 3149.07,2508.39Z " />
<path stroke="transparent" fill="#000000" transform="matrix(0.05 0 0 0.05 -133 -118)" d="M 3148.39,2583.36 A 16.6598,16.6598 0 1 0 3181.71,2583.36A 16.6598,16.6598 0 1 0 3148.39,2583.36Z " />
<path stroke="transparent" fill="#000000" transform="matrix(0.05 0 0 0.05 -133 -118)" d="M 3306.48,2422.06 A 16.6907,16.6907 0 1 0 3339.86,2422.06A 16.6907,16.6907 0 1 0 3306.48,2422.06Z " />
<path stroke="transparent" fill="#000000" transform="matrix(0.05 0 0 0.05 -133 -118)" d="M 3231.38,2421.1 A 16.6907,16.6907 0 1 0 3264.76,2421.1A 16.6907,16.6907 0 1 0 3231.38,2421.1Z " />
<path stroke="transparent" fill="#000000" transform="matrix(0.05 0 0 0.05 -133 -118)" d="M 3388.74,2576.51 A 16.6838,16.6838 0 1 0 3422.11,2576.51A 16.6838,16.6838 0 1 0 3388.74,2576.51Z " />
<path stroke="transparent" fill="#000000" transform="matrix(0.05 0 0 0.05 -133 -118)" d="M 3384.66,2501.54 A 16.6838,16.6838 0 1 0 3418.03,2501.54A 16.6838,16.6838 0 1 0 3384.66,2501.54Z " />
<path stroke="transparent" fill="#000000" transform="matrix(0.05 0 0 0.05 -133 -118)" d="M 3553.95,2625.86 A 16.6736,16.6736 0 1 0 3587.3,2625.86A 16.6736,16.6736 0 1 0 3553.95,2625.86Z " />
<path stroke="transparent" fill="#000000" transform="matrix(0.05 0 0 0.05 -133 -118)" d="M 3506.47,2683.96 A 16.6736,16.6736 0 1 0 3539.81,2683.96A 16.6736,16.6736 0 1 0 3506.47,2683.96Z " />
<path stroke="transparent" fill="#000000" transform="matrix(0.05 0 0 0.05 -133 -118)" d="M 3748.39,2688 A 16.6609,16.6609 0 1 0 3781.71,2688A 16.6609,16.6609 0 1 0 3748.39,2688Z " />
<path stroke="transparent" fill="#000000" transform="matrix(0.05 0 0 0.05 -133 -118)" d="M 3702.54,2628.68 A 16.6609,16.6609 0 1 0 3735.86,2628.68A 16.6609,16.6609 0 1 0 3702.54,2628.68Z " />
<path stroke="transparent" fill="#000000" transform="matrix(0.05 0 0 0.05 -133 -118)" d="M 3673.6,2847.48 A 16.6689,16.6689 0 1 0 3706.94,2847.48A 16.6689,16.6689 0 1 0 3673.6,2847.48Z " />
<path stroke="transparent" fill="#000000" transform="matrix(0.05 0 0 0.05 -133 -118)" d="M 3732.65,2801.22 A 16.6689,16.6689 0 1 0 3765.99,2801.22A 16.6689,16.6689 0 1 0 3732.65,2801.22Z " />
<path stroke="transparent" fill="#000000" transform="matrix(0.05 0 0 0.05 -133 -118)" d="M 3727.57,3043.68 A 16.6787,16.6787 0 1 0 3760.93,3043.68A 16.6787,16.6787 0 1 0 3727.57,3043.68Z " />
<path stroke="transparent" fill="#000000" transform="matrix(0.05 0 0 0.05 -133 -118)" d="M 3661.45,3008.17 A 16.6787,16.6787 0 1 0 3694.8,3008.17A 16.6787,16.6787 0 1 0 3661.45,3008.17Z " />
<path stroke="transparent" fill="#000000" transform="matrix(0.05 0 0 0.05 -133 -118)" d="M 3725.53,3251.29 A 16.6748,16.6748 0 1 0 3758.88,3251.29A 16.6748,16.6748 0 1 0 3725.53,3251.29Z " />
<path stroke="transparent" fill="#000000" transform="matrix(0.05 0 0 0.05 -133 -118)" d="M 3757.78,3183.54 A 16.6748,16.6748 0 1 0 3791.13,3183.54A 16.6748,16.6748 0 1 0 3757.78,3183.54Z " />
<path stroke="transparent" fill="#000000" transform="matrix(0.05 0 0 0.05 -133 -118)" d="M 3548.11,3274.41 A 16.6671,16.6671 0 1 0 3581.44,3274.41A 16.6671,16.6671 0 1 0 3548.11,3274.41Z " />
<path stroke="transparent" fill="#000000" transform="matrix(0.05 0 0 0.05 -133 -118)" d="M 3618.31,3300.8 A 16.6671,16.6671 0 1 0 3651.65,3300.8A 16.6671,16.6671 0 1 0 3618.31,3300.8Z " />
<path stroke="transparent" fill="#000000" transform="matrix(0.05 0 0 0.05 -133 -118)" d="M 3376.27,3393.78 A 16.6486,16.6486 0 1 0 3409.57,3393.78A 16.6486,16.6486 0 1 0 3376.27,3393.78Z " />
<path stroke="transparent" fill="#000000" transform="matrix(0.05 0 0 0.05 -133 -118)" d="M 3368.92,3319.22 A 16.6486,16.6486 0 1 0 3402.22,3319.22A 16.6486,16.6486 0 1 0 3368.92,3319.22Z " />
<path stroke="transparent" fill="#000000" transform="matrix(0.05 0 0 0.05 -133 -118)" d="M 3162.24,3327.3 A 16.6749,16.6749 0 1 0 3195.59,3327.3A 16.6749,16.6749 0 1 0 3162.24,3327.3Z " />
<path stroke="transparent" fill="#000000" transform="matrix(0.05 0 0 0.05 -133 -118)" d="M 3158.97,3402.26 A 16.6749,16.6749 0 1 0 3192.32,3402.26A 16.6749,16.6749 0 1 0 3158.97,3402.26Z " />
<path stroke="transparent" fill="#000000" transform="matrix(0.05 0 0 0.05 -133 -118)" d="M 3230.33,3495.75 A 16.7003,16.7003 0 1 0 3263.73,3495.75A 16.7003,16.7003 0 1 0 3230.33,3495.75Z " />
<path stroke="transparent" fill="#000000" transform="matrix(0.05 0 0 0.05 -133 -118)" d="M 3305.43,3498.47 A 16.7003,16.7003 0 1 0 3338.83,3498.47A 16.7003,16.7003 0 1 0 3305.43,3498.47Z " />
<text x="0" y="0" stroke="transparent" fill="#000000" transform="matrix(0.05 0 0 0.05 116.52 33.8818)" style="font:normal normal normal 200px 'Helvetica'" >
Xe</text>
<text x="0" y="0" stroke="transparent" fill="#000000" transform="matrix(0.05 0 0 0.05 137.993 23.5826)" style="font:normal normal normal 200px 'Helvetica'" >
F</text>
<path stroke="transparent" fill="#000000" transform="matrix(0.05 0 0 0.05 -133 -118)" d="M 5373.94,2808.2 L 5379.95,2818.62 L 5229.74,2905.31 L 5223.73,2894.89 L 5373.94,2808.2 Z " />
<text x="0" y="0" stroke="transparent" fill="#000000" transform="matrix(0.05 0 0 0.05 98.8832 33.6506)" style="font:normal normal normal 200px 'Helvetica'" >
F</text>
<path stroke="transparent" fill="#000000" transform="matrix(0.05 0 0 0.05 -133 -118)" d="M 4773.38,2968.23 L 4773.51,2956.2 L 4961.55,2958.25 L 4961.42,2970.28 L 4773.38,2968.23 Z " />
<text x="0" y="0" stroke="transparent" fill="#000000" transform="matrix(0.05 0 0 0.05 120.148 54.4869)" style="font:normal normal normal 200px 'Helvetica'" >
F</text>
<path stroke="transparent" fill="#000000" transform="matrix(0.05 0 0 0.05 -133 -118)" d="M 5118.73,3273.25 L 5106.7,3273.25 L 5106.7,3073.21 L 5118.73,3073.21 L 5118.73,3273.25 Z " />
<text x="0" y="0" stroke="transparent" fill="#000000" transform="matrix(0.05 0 0 0.05 119.139 13.2766)" style="font:normal normal normal 200px 'Helvetica'" >
O</text>
<path stroke="transparent" fill="#000000" transform="matrix(0.05 0 0 0.05 -133 -118)" d="M 5106.7,2664.15 L 5118.73,2664.15 L 5118.73,2861.15 L 5106.7,2861.15 L 5106.7,2664.15 Z " />
<text x="0" y="0" stroke="transparent" fill="#000000" transform="matrix(0.05 0 0 0.05 137.993 44.1809)" style="font:normal normal normal 200px 'Helvetica'" >
F</text>
<path stroke="transparent" fill="#000000" transform="matrix(0.05 0 0 0.05 -133 -118)" d="M 5380.19,3113.33 L 5374.17,3123.75 L 5240.61,3046.67 L 5246.63,3036.25 L 5380.19,3113.33 Z " />
<path stroke="transparent" fill="#000000" transform="matrix(0.05 0 0 0.05 -133 -118)" d="M 4552.31,2915.87 A 16.6838,16.6838 0 1 0 4585.68,2915.87A 16.6838,16.6838 0 1 0 4552.31,2915.87Z " />
<path stroke="transparent" fill="#000000" transform="matrix(0.05 0 0 0.05 -133 -118)" d="M 4548.23,2990.84 A 16.6838,16.6838 0 1 0 4581.6,2990.84A 16.6838,16.6838 0 1 0 4548.23,2990.84Z " />
<path stroke="transparent" fill="#000000" transform="matrix(0.05 0 0 0.05 -133 -118)" d="M 4726.91,2837.97 A 16.6646,16.6646 0 1 0 4760.24,2837.97A 16.6646,16.6646 0 1 0 4726.91,2837.97Z " />
<path stroke="transparent" fill="#000000" transform="matrix(0.05 0 0 0.05 -133 -118)" d="M 4652.21,2831.3 A 16.6646,16.6646 0 1 0 4685.54,2831.3A 16.6646,16.6646 0 1 0 4652.21,2831.3Z " />
<path stroke="transparent" fill="#000000" transform="matrix(0.05 0 0 0.05 -133 -118)" d="M 4639.87,3088.27 A 16.6898,16.6898 0 1 0 4673.25,3088.27A 16.6898,16.6898 0 1 0 4639.87,3088.27Z " />
<path stroke="transparent" fill="#000000" transform="matrix(0.05 0 0 0.05 -133 -118)" d="M 4714.97,3087.73 A 16.6898,16.6898 0 1 0 4748.35,3087.73A 16.6898,16.6898 0 1 0 4714.97,3087.73Z " />
<path stroke="transparent" fill="#000000" transform="matrix(0.05 0 0 0.05 -133 -118)" d="M 4977.73,2515.19 A 16.69,16.69 0 1 0 5011.11,2515.19A 16.69,16.69 0 1 0 4977.73,2515.19Z " />
<path stroke="transparent" fill="#000000" transform="matrix(0.05 0 0 0.05 -133 -118)" d="M 4977.05,2590.29 A 16.69,16.69 0 1 0 5010.43,2590.29A 16.69,16.69 0 1 0 4977.05,2590.29Z " />
<path stroke="transparent" fill="#000000" transform="matrix(0.05 0 0 0.05 -133 -118)" d="M 5135.18,2428.85 A 16.6907,16.6907 0 1 0 5168.56,2428.85A 16.6907,16.6907 0 1 0 5135.18,2428.85Z " />
<path stroke="transparent" fill="#000000" transform="matrix(0.05 0 0 0.05 -133 -118)" d="M 5060.08,2427.9 A 16.6907,16.6907 0 1 0 5093.46,2427.9A 16.6907,16.6907 0 1 0 5060.08,2427.9Z " />
<path stroke="transparent" fill="#000000" transform="matrix(0.05 0 0 0.05 -133 -118)" d="M 5217.44,2583.31 A 16.6838,16.6838 0 1 0 5250.81,2583.31A 16.6838,16.6838 0 1 0 5217.44,2583.31Z " />
<path stroke="transparent" fill="#000000" transform="matrix(0.05 0 0 0.05 -133 -118)" d="M 5213.36,2508.34 A 16.6838,16.6838 0 1 0 5246.73,2508.34A 16.6838,16.6838 0 1 0 5213.36,2508.34Z " />
<path stroke="transparent" fill="#000000" transform="matrix(0.05 0 0 0.05 -133 -118)" d="M 5382.65,2632.66 A 16.6736,16.6736 0 1 0 5415.99,2632.66A 16.6736,16.6736 0 1 0 5382.65,2632.66Z " />
<path stroke="transparent" fill="#000000" transform="matrix(0.05 0 0 0.05 -133 -118)" d="M 5335.16,2690.76 A 16.6736,16.6736 0 1 0 5368.51,2690.76A 16.6736,16.6736 0 1 0 5335.16,2690.76Z " />
<path stroke="transparent" fill="#000000" transform="matrix(0.05 0 0 0.05 -133 -118)" d="M 5577.06,2694.8 A 16.6848,16.6848 0 1 0 5610.43,2694.8A 16.6848,16.6848 0 1 0 5577.06,2694.8Z " />
<path stroke="transparent" fill="#000000" transform="matrix(0.05 0 0 0.05 -133 -118)" d="M 5531.21,2635.34 A 16.6848,16.6848 0 1 0 5564.58,2635.34A 16.6848,16.6848 0 1 0 5531.21,2635.34Z " />
<path stroke="transparent" fill="#000000" transform="matrix(0.05 0 0 0.05 -133 -118)" d="M 5502.28,2854.28 A 16.6875,16.6875 0 1 0 5535.65,2854.28A 16.6875,16.6875 0 1 0 5502.28,2854.28Z " />
<path stroke="transparent" fill="#000000" transform="matrix(0.05 0 0 0.05 -133 -118)" d="M 5561.33,2807.89 A 16.6875,16.6875 0 1 0 5594.7,2807.89A 16.6875,16.6875 0 1 0 5561.33,2807.89Z " />
<path stroke="transparent" fill="#000000" transform="matrix(0.05 0 0 0.05 -133 -118)" d="M 5556.27,3050.48 A 16.6787,16.6787 0 1 0 5589.62,3050.48A 16.6787,16.6787 0 1 0 5556.27,3050.48Z " />
<path stroke="transparent" fill="#000000" transform="matrix(0.05 0 0 0.05 -133 -118)" d="M 5490.14,3014.97 A 16.6787,16.6787 0 1 0 5523.5,3014.97A 16.6787,16.6787 0 1 0 5490.14,3014.97Z " />
<path stroke="transparent" fill="#000000" transform="matrix(0.05 0 0 0.05 -133 -118)" d="M 5554.2,3258.09 A 16.7021,16.7021 0 1 0 5587.61,3258.09A 16.7021,16.7021 0 1 0 5554.2,3258.09Z " />
<path stroke="transparent" fill="#000000" transform="matrix(0.05 0 0 0.05 -133 -118)" d="M 5586.45,3190.2 A 16.7021,16.7021 0 1 0 5619.85,3190.2A 16.7021,16.7021 0 1 0 5586.45,3190.2Z " />
<path stroke="transparent" fill="#000000" transform="matrix(0.05 0 0 0.05 -133 -118)" d="M 5376.81,3281.2 A 16.6671,16.6671 0 1 0 5410.14,3281.2A 16.6671,16.6671 0 1 0 5376.81,3281.2Z " />
<path stroke="transparent" fill="#000000" transform="matrix(0.05 0 0 0.05 -133 -118)" d="M 5447.01,3307.6 A 16.6671,16.6671 0 1 0 5480.34,3307.6A 16.6671,16.6671 0 1 0 5447.01,3307.6Z " />
<path stroke="transparent" fill="#000000" transform="matrix(0.05 0 0 0.05 -133 -118)" d="M 5204.94,3400.58 A 16.6787,16.6787 0 1 0 5238.3,3400.58A 16.6787,16.6787 0 1 0 5204.94,3400.58Z " />
<path stroke="transparent" fill="#000000" transform="matrix(0.05 0 0 0.05 -133 -118)" d="M 5197.59,3325.89 A 16.6787,16.6787 0 1 0 5230.95,3325.89A 16.6787,16.6787 0 1 0 5197.59,3325.89Z " />
<path stroke="transparent" fill="#000000" transform="matrix(0.05 0 0 0.05 -133 -118)" d="M 4990.94,3334.09 A 16.6749,16.6749 0 1 0 5024.29,3334.09A 16.6749,16.6749 0 1 0 4990.94,3334.09Z " />
<path stroke="transparent" fill="#000000" transform="matrix(0.05 0 0 0.05 -133 -118)" d="M 4987.67,3409.06 A 16.6749,16.6749 0 1 0 5021.02,3409.06A 16.6749,16.6749 0 1 0 4987.67,3409.06Z " />
<path stroke="transparent" fill="#000000" transform="matrix(0.05 0 0 0.05 -133 -118)" d="M 5059.03,3502.55 A 16.7003,16.7003 0 1 0 5092.43,3502.55A 16.7003,16.7003 0 1 0 5059.03,3502.55Z " />
<path stroke="transparent" fill="#000000" transform="matrix(0.05 0 0 0.05 -133 -118)" d="M 5134.13,3505.27 A 16.7003,16.7003 0 1 0 5167.53,3505.27A 16.7003,16.7003 0 1 0 5134.13,3505.27Z " />
<path stroke="transparent" fill="#ffffff" transform="matrix(0.05 0 0 0.05 -133 -118)" d="M 5000.41,3109.89 C 5045.72,3157.75 4928.64,3347.01 4880.4,3392.69 C 4821.43,3448.51 4766.58,3476.48 4694.08,3399.9 C 4621.58,3323.32 4652.51,3270.08 4711.47,3214.26 C 4759.72,3168.58 4955.09,3062.03 5000.41,3109.89 " />
<path stroke="#ffffff" stroke-width="1" fill="transparent" transform="matrix(0.05 0 0 0.05 -133 -118)" d="M 5000.41,3109.89 C 5045.72,3157.75 4928.64,3347.01 4880.4,3392.69 C 4821.43,3448.51 4766.58,3476.48 4694.08,3399.9 C 4621.58,3323.32 4652.51,3270.08 4711.47,3214.26 C 4759.72,3168.58 4955.09,3062.03 5000.41,3109.89 " />
<path stroke="#000000" stroke-width="12" fill="transparent" transform="matrix(0.05 0 0 0.05 -133 -118)" d="M 5000.41,3109.89 C 5045.72,3157.75 4928.64,3347.01 4880.4,3392.69 C 4821.43,3448.51 4766.58,3476.48 4694.08,3399.9 C 4621.58,3323.32 4652.51,3270.08 4711.47,3214.26 C 4759.72,3168.58 4955.09,3062.03 5000.41,3109.89 " />
<path stroke="transparent" fill="#000000" transform="matrix(0.05 0 0 0.05 -133 -118)" d="M 4719.95,3306.49 A 16.6873,16.6873 0 1 0 4753.33,3306.49A 16.6873,16.6873 0 1 0 4719.95,3306.49Z " />
<path stroke="transparent" fill="#000000" transform="matrix(0.05 0 0 0.05 -133 -118)" d="M 4782.26,3348.4 A 16.6873,16.6873 0 1 0 4815.64,3348.4A 16.6873,16.6873 0 1 0 4782.26,3348.4Z " />
<path stroke="#000000" stroke-width="12" fill="transparent" transform="matrix(0.05 0 0 0.05 -133 -118)" d="M 3958.8,2987.52 C 3958.8,2987.52 3958.8,2951.43 3958.8,2951.43 C 3958.8,2951.43 4416.86,2951.43 4416.86,2951.43 C 4416.86,2951.43 4416.86,2915.34 4416.86,2915.34 C 4416.86,2915.34 4489.05,2987.52 4489.05,2987.52 C 4489.05,2987.52 4416.86,3059.71 4416.86,3059.71 C 4416.86,3059.71 4416.86,3023.62 4416.86,3023.62 C 4416.86,3023.62 3958.8,3023.62 3958.8,3023.62 C 3958.8,3023.62 3958.8,2987.52 3958.8,2987.52 " />
<text x="0" y="0" stroke="transparent" fill="#000000" transform="matrix(0.05 0 0 0.05 65.6196 26.2776)" style="font:normal normal normal 199.865px 'Helvetica'" >
+2 </text>
<text x="0" y="0" stroke="transparent" fill="#000000" transform="matrix(0.05 0 0 0.05 79.7897 26.2776)" style="font:normal normal normal 199.865px 'Helvetica'" >
e-</text>
<text x="0" y="0" stroke="transparent" fill="#000000" transform="matrix(0.05 0 0 0.05 4.43644 72.165)" style="font:normal normal normal 199.865px 'Helvetica'" >
40 </text>
<text x="0" y="0" stroke="transparent" fill="#000000" transform="matrix(0.05 0 0 0.05 18.3284 72.165)" style="font:normal normal normal 199.865px 'Helvetica'" >
electrons</text>
<text x="0" y="0" stroke="transparent" fill="#000000" transform="matrix(0.05 0 0 0.05 95.1915 72.165)" style="font:normal normal normal 199.865px 'Helvetica'" >
42 </text>
<text x="0" y="0" stroke="transparent" fill="#000000" transform="matrix(0.05 0 0 0.05 109.083 72.165)" style="font:normal normal normal 199.865px 'Helvetica'" >
electrons</text>
</svg>
