<?xml version="1.0" standalone="no" ?>
<!DOCTYPE svg PUBLIC "-//W3C//DTD SVG 1.1//EN" "http://www.w3.org/Graphics/SVG/1.1/DTD/svg11.dtd">
<svg width="226px" height="135px" viewBox="0 0 226 135" style="background-color: #ffffff00" xmlns="http://www.w3.org/2000/svg" xmlns:xlink="http://www.w3.org/1999/xlink" version="1.1" >
<text x="0" y="0" stroke="transparent" fill="#000000" transform="matrix(0.05 0 0 0.05 2.28967 33.3034)" style="font:normal normal normal 135.963px 'Helvetica'" >
Xe </text>
<text x="0" y="0" stroke="transparent" fill="#000000" transform="matrix(0.05 0 0 0.05 12.4935 33.3034)" style="font:normal normal normal 135.963px 'Helvetica'" >
=</text>
<text x="0" y="0" stroke="transparent" fill="#000000" transform="matrix(0.05 0 0 0.05 31.2565 33.215)" style="font:normal normal normal 135.963px 'Helvetica'" >
8</text>
<text x="0" y="0" stroke="transparent" fill="#000000" transform="matrix(0.05 0 0 0.05 21.6982 7.68801)" style="font:normal normal normal 135.963px 'Helvetica'" >
Valence </text>
<text x="0" y="0" stroke="transparent" fill="#000000" transform="matrix(0.05 0 0 0.05 19.5622 14.5361)" style="font:normal normal normal 135.963px 'Helvetica'" >
Electrons</text>
<text x="0" y="0" stroke="transparent" fill="#000000" transform="matrix(0.05 0 0 0.05 56.1173 11.9844)" style="font:normal normal normal 135.963px 'Helvetica'" >
-</text>
<text x="0" y="0" stroke="transparent" fill="#000000" transform="matrix(0.05 0 0 0.05 80.5341 9.13601)" style="font:normal normal normal 135.963px 'Helvetica'" >
Electrons </text>
<text x="0" y="0" stroke="transparent" fill="#000000" transform="matrix(0.05 0 0 0.05 110.761 9.13601)" style="font:normal normal normal 135.963px 'Helvetica'" >
in </text>
<text x="0" y="0" stroke="transparent" fill="#000000" transform="matrix(0.05 0 0 0.05 84.5024 15.9841)" style="font:normal normal normal 135.963px 'Helvetica'" >
Structure</text>
<text x="0" y="0" stroke="transparent" fill="#000000" transform="matrix(0.05 0 0 0.05 70.6517 32.4332)" style="font:normal normal normal 135.963px 'Helvetica'" >
7 </text>
<text x="0" y="0" stroke="transparent" fill="#000000" transform="matrix(0.05 0 0 0.05 76.3212 32.4332)" style="font:normal normal normal 135.963px 'Helvetica'" >
(5 </text>
<text x="0" y="0" stroke="transparent" fill="#000000" transform="matrix(0.05 0 0 0.05 84.2546 32.4332)" style="font:normal normal normal 135.963px 'Helvetica'" >
bonds </text>
<text x="0" y="0" stroke="transparent" fill="#000000" transform="matrix(0.05 0 0 0.05 104.666 32.4332)" style="font:normal normal normal 135.963px 'Helvetica'" >
and </text>
<text x="0" y="0" stroke="transparent" fill="#000000" transform="matrix(0.05 0 0 0.05 117.897 32.4332)" style="font:normal normal normal 135.963px 'Helvetica'" >
2 </text>
<text x="0" y="0" stroke="transparent" fill="#000000" transform="matrix(0.05 0 0 0.05 123.566 32.4332)" style="font:normal normal normal 135.963px 'Helvetica'" >
electrons)</text>
<text x="0" y="0" stroke="transparent" fill="#000000" transform="matrix(0.05 0 0 0.05 178.701 11.7805)" style="font:normal normal normal 135.963px 'Helvetica'" >
Formal </text>
<text x="0" y="0" stroke="transparent" fill="#000000" transform="matrix(0.05 0 0 0.05 201.741 11.7805)" style="font:normal normal normal 135.963px 'Helvetica'" >
Charge</text>
<text x="0" y="0" stroke="transparent" fill="#000000" transform="matrix(0.05 0 0 0.05 195.785 33.2898)" style="font:normal normal normal 135.963px 'Helvetica'" >
+1</text>
<text x="0" y="0" stroke="transparent" fill="#000000" transform="matrix(0.05 0 0 0.05 6.83118 47.8438)" style="font:normal normal normal 136.054px 'Helvetica'" >
F </text>
<text x="0" y="0" stroke="transparent" fill="#000000" transform="matrix(0.05 0 0 0.05 12.8766 47.8438)" style="font:normal normal normal 136.054px 'Helvetica'" >
=</text>
<text x="0" y="0" stroke="transparent" fill="#000000" transform="matrix(0.05 0 0 0.05 31.1817 48.8439)" style="font:normal normal normal 135.963px 'Helvetica'" >
7</text>
<text x="0" y="0" stroke="transparent" fill="#000000" transform="matrix(0.05 0 0 0.05 70.6517 48.0349)" style="font:normal normal normal 135.963px 'Helvetica'" >
7 </text>
<text x="0" y="0" stroke="transparent" fill="#000000" transform="matrix(0.05 0 0 0.05 76.3212 48.0349)" style="font:normal normal normal 135.963px 'Helvetica'" >
(1 </text>
<text x="0" y="0" stroke="transparent" fill="#000000" transform="matrix(0.05 0 0 0.05 84.2546 48.0349)" style="font:normal normal normal 135.963px 'Helvetica'" >
bond </text>
<text x="0" y="0" stroke="transparent" fill="#000000" transform="matrix(0.05 0 0 0.05 101.267 48.0349)" style="font:normal normal normal 135.963px 'Helvetica'" >
and </text>
<text x="0" y="0" stroke="transparent" fill="#000000" transform="matrix(0.05 0 0 0.05 114.498 48.0349)" style="font:normal normal normal 135.963px 'Helvetica'" >
6 </text>
<text x="0" y="0" stroke="transparent" fill="#000000" transform="matrix(0.05 0 0 0.05 120.167 48.0349)" style="font:normal normal normal 135.963px 'Helvetica'" >
electrons)</text>
<text x="0" y="0" stroke="transparent" fill="#000000" transform="matrix(0.05 0 0 0.05 197.981 48.8099)" style="font:normal normal normal 135.963px 'Helvetica'" >
0</text>
<text x="0" y="0" stroke="transparent" fill="#000000" transform="matrix(0.05 0 0 0.05 5.31484 63.5755)" style="font:normal normal normal 135.963px 'Helvetica'" >
O </text>
<text x="0" y="0" stroke="transparent" fill="#000000" transform="matrix(0.05 0 0 0.05 12.4914 63.5755)" style="font:normal normal normal 135.963px 'Helvetica'" >
=</text>
<text x="0" y="0" stroke="transparent" fill="#000000" transform="matrix(0.05 0 0 0.05 31.2089 63.4123)" style="font:normal normal normal 135.963px 'Helvetica'" >
6</text>
<text x="0" y="0" stroke="transparent" fill="#000000" transform="matrix(0.05 0 0 0.05 70.3254 62.6169)" style="font:normal normal normal 135.963px 'Helvetica'" >
7 </text>
<text x="0" y="0" stroke="transparent" fill="#000000" transform="matrix(0.05 0 0 0.05 75.9949 62.6169)" style="font:normal normal normal 135.963px 'Helvetica'" >
(1 </text>
<text x="0" y="0" stroke="transparent" fill="#000000" transform="matrix(0.05 0 0 0.05 83.9283 62.6169)" style="font:normal normal normal 135.963px 'Helvetica'" >
bond </text>
<text x="0" y="0" stroke="transparent" fill="#000000" transform="matrix(0.05 0 0 0.05 100.94 62.6169)" style="font:normal normal normal 135.963px 'Helvetica'" >
and </text>
<text x="0" y="0" stroke="transparent" fill="#000000" transform="matrix(0.05 0 0 0.05 114.171 62.6169)" style="font:normal normal normal 135.963px 'Helvetica'" >
6 </text>
<text x="0" y="0" stroke="transparent" fill="#000000" transform="matrix(0.05 0 0 0.05 119.841 62.6169)" style="font:normal normal normal 135.963px 'Helvetica'" >
electrons)</text>
<text x="0" y="0" stroke="transparent" fill="#000000" transform="matrix(0.05 0 0 0.05 197.063 63.4735)" style="font:normal normal normal 135.963px 'Helvetica'" >
-1</text>
<text x="0" y="0" stroke="transparent" fill="#000000" transform="matrix(0.05 0 0 0.05 56.1173 32.5896)" style="font:normal normal normal 135.963px 'Helvetica'" >
-</text>
<text x="0" y="0" stroke="transparent" fill="#000000" transform="matrix(0.05 0 0 0.05 56.1173 48.1913)" style="font:normal normal normal 135.963px 'Helvetica'" >
-</text>
<text x="0" y="0" stroke="transparent" fill="#000000" transform="matrix(0.05 0 0 0.05 56.1173 62.7801)" style="font:normal normal normal 135.963px 'Helvetica'" >
-</text>
<text x="0" y="0" stroke="transparent" fill="#000000" transform="matrix(0.05 0 0 0.05 161.658 30.7473)" style="font:normal normal normal 135.963px 'Helvetica'" >
=</text>
<text x="0" y="0" stroke="transparent" fill="#000000" transform="matrix(0.05 0 0 0.05 161.658 11.7125)" style="font:normal normal normal 135.963px 'Helvetica'" >
=</text>
<text x="0" y="0" stroke="transparent" fill="#000000" transform="matrix(0.05 0 0 0.05 161.658 47.4027)" style="font:normal normal normal 135.963px 'Helvetica'" >
=</text>
<text x="0" y="0" stroke="transparent" fill="#000000" transform="matrix(0.05 0 0 0.05 161.658 63.3783)" style="font:normal normal normal 135.963px 'Helvetica'" >
=</text>
<text x="0" y="0" stroke="transparent" fill="#000000" transform="matrix(0.05 0 0 0.05 146.447 107.352)" style="font:normal normal normal 200px 'Helvetica'" >
Xe</text>
<text x="0" y="0" stroke="transparent" fill="#000000" transform="matrix(0.05 0 0 0.05 167.92 97.0533)" style="font:normal normal normal 200px 'Helvetica'" >
F</text>
<path stroke="transparent" fill="#000000" transform="matrix(0.05 0 0 0.05 -102 -72)" d="M 5353.66,3356.93 L 5359.67,3367.35 L 5208.28,3454.72 L 5202.26,3444.3 L 5353.66,3356.93 Z " />
<text x="0" y="0" stroke="transparent" fill="#000000" transform="matrix(0.05 0 0 0.05 128.81 107.121)" style="font:normal normal normal 200px 'Helvetica'" >
F</text>
<path stroke="transparent" fill="#000000" transform="matrix(0.05 0 0 0.05 -102 -72)" d="M 4752.92,3517.66 L 4753.05,3505.63 L 4939.08,3507.65 L 4938.95,3519.68 L 4752.92,3517.66 Z " />
<text x="0" y="0" stroke="transparent" fill="#000000" transform="matrix(0.05 0 0 0.05 150.075 127.958)" style="font:normal normal normal 200px 'Helvetica'" >
F</text>
<path stroke="transparent" fill="#000000" transform="matrix(0.05 0 0 0.05 -102 -72)" d="M 5097.26,3822.66 L 5085.23,3822.66 L 5085.23,3622.62 L 5097.26,3622.62 L 5097.26,3822.66 Z " />
<text x="0" y="0" stroke="transparent" fill="#000000" transform="matrix(0.05 0 0 0.05 149.066 86.7473)" style="font:normal normal normal 200px 'Helvetica'" >
O</text>
<path stroke="transparent" fill="#000000" transform="matrix(0.05 0 0 0.05 -102 -72)" d="M 5085.23,3213.57 L 5097.26,3213.57 L 5097.26,3410.56 L 5085.23,3410.56 L 5085.23,3213.57 Z " />
<text x="0" y="0" stroke="transparent" fill="#000000" transform="matrix(0.05 0 0 0.05 167.92 117.652)" style="font:normal normal normal 200px 'Helvetica'" >
F</text>
<path stroke="transparent" fill="#000000" transform="matrix(0.05 0 0 0.05 -102 -72)" d="M 5359.47,3663.18 L 5353.46,3673.6 L 5219.15,3596.08 L 5225.16,3585.66 L 5359.47,3663.18 Z " />
<path stroke="transparent" fill="#000000" transform="matrix(0.05 0 0 0.05 -102 -72)" d="M 4530.82,3465.29 A 16.714,16.714 0 1 0 4564.25,3465.29A 16.714,16.714 0 1 0 4530.82,3465.29Z " />
<path stroke="transparent" fill="#000000" transform="matrix(0.05 0 0 0.05 -102 -72)" d="M 4526.74,3540.39 A 16.714,16.714 0 1 0 4560.17,3540.39A 16.714,16.714 0 1 0 4526.74,3540.39Z " />
<path stroke="transparent" fill="#000000" transform="matrix(0.05 0 0 0.05 -102 -72)" d="M 4705.41,3387.38 A 16.6947,16.6947 0 1 0 4738.8,3387.38A 16.6947,16.6947 0 1 0 4705.41,3387.38Z " />
<path stroke="transparent" fill="#000000" transform="matrix(0.05 0 0 0.05 -102 -72)" d="M 4630.58,3380.71 A 16.6947,16.6947 0 1 0 4663.97,3380.71A 16.6947,16.6947 0 1 0 4630.58,3380.71Z " />
<path stroke="transparent" fill="#000000" transform="matrix(0.05 0 0 0.05 -102 -72)" d="M 4618.4,3637.69 A 16.6898,16.6898 0 1 0 4651.78,3637.69A 16.6898,16.6898 0 1 0 4618.4,3637.69Z " />
<path stroke="transparent" fill="#000000" transform="matrix(0.05 0 0 0.05 -102 -72)" d="M 4693.51,3637.14 A 16.6898,16.6898 0 1 0 4726.88,3637.14A 16.6898,16.6898 0 1 0 4693.51,3637.14Z " />
<path stroke="transparent" fill="#000000" transform="matrix(0.05 0 0 0.05 -102 -72)" d="M 5361.18,3182.08 A 16.6736,16.6736 0 1 0 5394.53,3182.08A 16.6736,16.6736 0 1 0 5361.18,3182.08Z " />
<path stroke="transparent" fill="#000000" transform="matrix(0.05 0 0 0.05 -102 -72)" d="M 5313.7,3240.17 A 16.6736,16.6736 0 1 0 5347.05,3240.17A 16.6736,16.6736 0 1 0 5313.7,3240.17Z " />
<path stroke="transparent" fill="#000000" transform="matrix(0.05 0 0 0.05 -102 -72)" d="M 5555.6,3244.21 A 16.6848,16.6848 0 1 0 5588.97,3244.21A 16.6848,16.6848 0 1 0 5555.6,3244.21Z " />
<path stroke="transparent" fill="#000000" transform="matrix(0.05 0 0 0.05 -102 -72)" d="M 5509.75,3184.75 A 16.6848,16.6848 0 1 0 5543.12,3184.75A 16.6848,16.6848 0 1 0 5509.75,3184.75Z " />
<path stroke="transparent" fill="#000000" transform="matrix(0.05 0 0 0.05 -102 -72)" d="M 5480.82,3403.69 A 16.6875,16.6875 0 1 0 5514.19,3403.69A 16.6875,16.6875 0 1 0 5480.82,3403.69Z " />
<path stroke="transparent" fill="#000000" transform="matrix(0.05 0 0 0.05 -102 -72)" d="M 5539.86,3357.3 A 16.6875,16.6875 0 1 0 5573.24,3357.3A 16.6875,16.6875 0 1 0 5539.86,3357.3Z " />
<path stroke="transparent" fill="#000000" transform="matrix(0.05 0 0 0.05 -102 -72)" d="M 5534.78,3599.89 A 16.7054,16.7054 0 1 0 5568.19,3599.89A 16.7054,16.7054 0 1 0 5534.78,3599.89Z " />
<path stroke="transparent" fill="#000000" transform="matrix(0.05 0 0 0.05 -102 -72)" d="M 5468.52,3564.38 A 16.7054,16.7054 0 1 0 5501.93,3564.38A 16.7054,16.7054 0 1 0 5468.52,3564.38Z " />
<path stroke="transparent" fill="#000000" transform="matrix(0.05 0 0 0.05 -102 -72)" d="M 5532.74,3807.5 A 16.7021,16.7021 0 1 0 5566.14,3807.5A 16.7021,16.7021 0 1 0 5532.74,3807.5Z " />
<path stroke="transparent" fill="#000000" transform="matrix(0.05 0 0 0.05 -102 -72)" d="M 5564.98,3739.61 A 16.7021,16.7021 0 1 0 5598.39,3739.61A 16.7021,16.7021 0 1 0 5564.98,3739.61Z " />
<path stroke="transparent" fill="#000000" transform="matrix(0.05 0 0 0.05 -102 -72)" d="M 5355.31,3830.62 A 16.6954,16.6954 0 1 0 5388.71,3830.62A 16.6954,16.6954 0 1 0 5355.31,3830.62Z " />
<path stroke="transparent" fill="#000000" transform="matrix(0.05 0 0 0.05 -102 -72)" d="M 5425.65,3857.01 A 16.6954,16.6954 0 1 0 5459.05,3857.01A 16.6954,16.6954 0 1 0 5425.65,3857.01Z " />
<path stroke="transparent" fill="#000000" transform="matrix(0.05 0 0 0.05 -102 -72)" d="M 5183.47,3949.99 A 16.6787,16.6787 0 1 0 5216.83,3949.99A 16.6787,16.6787 0 1 0 5183.47,3949.99Z " />
<path stroke="transparent" fill="#000000" transform="matrix(0.05 0 0 0.05 -102 -72)" d="M 5176.13,3875.3 A 16.6787,16.6787 0 1 0 5209.49,3875.3A 16.6787,16.6787 0 1 0 5176.13,3875.3Z " />
<path stroke="transparent" fill="#000000" transform="matrix(0.05 0 0 0.05 -102 -72)" d="M 4969.44,3883.51 A 16.7051,16.7051 0 1 0 5002.85,3883.51A 16.7051,16.7051 0 1 0 4969.44,3883.51Z " />
<path stroke="transparent" fill="#000000" transform="matrix(0.05 0 0 0.05 -102 -72)" d="M 4966.18,3958.61 A 16.7051,16.7051 0 1 0 4999.59,3958.61A 16.7051,16.7051 0 1 0 4966.18,3958.61Z " />
<path stroke="transparent" fill="#000000" transform="matrix(0.05 0 0 0.05 -102 -72)" d="M 5037.57,4051.96 A 16.7003,16.7003 0 1 0 5070.97,4051.96A 16.7003,16.7003 0 1 0 5037.57,4051.96Z " />
<path stroke="transparent" fill="#000000" transform="matrix(0.05 0 0 0.05 -102 -72)" d="M 5112.67,4054.69 A 16.7003,16.7003 0 1 0 5146.07,4054.69A 16.7003,16.7003 0 1 0 5112.67,4054.69Z " />
<path stroke="transparent" fill="#ffffff" transform="matrix(0.05 0 0 0.05 -102 -72)" d="M 4978.94,3659.3 C 5024.26,3707.17 4907.18,3896.42 4858.93,3942.1 C 4799.97,3997.93 4745.12,4025.89 4672.62,3949.31 C 4600.12,3872.73 4631.04,3819.5 4690.01,3763.67 C 4738.26,3718 4933.63,3611.44 4978.94,3659.3 " />
<path stroke="#ffffff" stroke-width="1" fill="transparent" transform="matrix(0.05 0 0 0.05 -102 -72)" d="M 4978.94,3659.3 C 5024.26,3707.17 4907.18,3896.42 4858.93,3942.1 C 4799.97,3997.93 4745.12,4025.89 4672.62,3949.31 C 4600.12,3872.73 4631.04,3819.5 4690.01,3763.67 C 4738.26,3718 4933.63,3611.44 4978.94,3659.3 " />
<path stroke="#000000" stroke-width="12" fill="transparent" transform="matrix(0.05 0 0 0.05 -102 -72)" d="M 4978.94,3659.3 C 5024.26,3707.17 4907.18,3896.42 4858.93,3942.1 C 4799.97,3997.93 4745.12,4025.89 4672.62,3949.31 C 4600.12,3872.73 4631.04,3819.5 4690.01,3763.67 C 4738.26,3718 4933.63,3611.44 4978.94,3659.3 " />
<path stroke="transparent" fill="#000000" transform="matrix(0.05 0 0 0.05 -102 -72)" d="M 4698.49,3855.91 A 16.6873,16.6873 0 1 0 4731.86,3855.91A 16.6873,16.6873 0 1 0 4698.49,3855.91Z " />
<path stroke="transparent" fill="#000000" transform="matrix(0.05 0 0 0.05 -102 -72)" d="M 4760.8,3897.81 A 16.6873,16.6873 0 1 0 4794.17,3897.81A 16.6873,16.6873 0 1 0 4760.8,3897.81Z " />
<text x="0" y="0" stroke="transparent" fill="#000000" transform="matrix(0.05 0 0 0.05 49.9132 108.372)" style="font:normal normal normal 200px 'Helvetica'" >
Xe</text>
<text x="0" y="0" stroke="transparent" fill="#000000" transform="matrix(0.05 0 0 0.05 71.3862 98.073)" style="font:normal normal normal 200px 'Helvetica'" >
F</text>
<path stroke="transparent" fill="#000000" transform="matrix(0.05 0 0 0.05 -102 -72)" d="M 3422.99,3377.32 L 3429,3387.74 L 3277.61,3475.12 L 3271.59,3464.7 L 3422.99,3377.32 Z " />
<text x="0" y="0" stroke="transparent" fill="#000000" transform="matrix(0.05 0 0 0.05 32.2766 108.141)" style="font:normal normal normal 200px 'Helvetica'" >
F</text>
<path stroke="transparent" fill="#000000" transform="matrix(0.05 0 0 0.05 -102 -72)" d="M 2822.25,3538.05 L 2822.38,3526.02 L 3009.42,3528.06 L 3009.28,3540.09 L 2822.25,3538.05 Z " />
<text x="0" y="0" stroke="transparent" fill="#000000" transform="matrix(0.05 0 0 0.05 53.5411 128.977)" style="font:normal normal normal 200px 'Helvetica'" >
F</text>
<path stroke="transparent" fill="#000000" transform="matrix(0.05 0 0 0.05 -102 -72)" d="M 3166.59,3843.06 L 3154.56,3843.06 L 3154.56,3643.02 L 3166.59,3643.02 L 3166.59,3843.06 Z " />
<text x="0" y="0" stroke="transparent" fill="#000000" transform="matrix(0.05 0 0 0.05 52.5328 87.767)" style="font:normal normal normal 200px 'Helvetica'" >
O</text>
<path stroke="transparent" fill="#000000" transform="matrix(0.05 0 0 0.05 -102 -72)" d="M 3154.56,3233.96 L 3166.59,3233.96 L 3166.59,3430.95 L 3154.56,3430.95 L 3154.56,3233.96 Z " />
<text x="0" y="0" stroke="transparent" fill="#000000" transform="matrix(0.05 0 0 0.05 71.3862 118.671)" style="font:normal normal normal 200px 'Helvetica'" >
F</text>
<path stroke="transparent" fill="#000000" transform="matrix(0.05 0 0 0.05 -102 -72)" d="M 3428.81,3683.57 L 3422.79,3693.99 L 3288.48,3616.48 L 3294.5,3606.06 L 3428.81,3683.57 Z " />
<path stroke="transparent" fill="#000000" transform="matrix(0.05 0 0 0.05 -102 -72)" d="M 2600.15,3485.68 A 16.714,16.714 0 1 0 2633.58,3485.68A 16.714,16.714 0 1 0 2600.15,3485.68Z " />
<path stroke="transparent" fill="#000000" transform="matrix(0.05 0 0 0.05 -102 -72)" d="M 2596.07,3560.78 A 16.714,16.714 0 1 0 2629.5,3560.78A 16.714,16.714 0 1 0 2596.07,3560.78Z " />
<path stroke="transparent" fill="#000000" transform="matrix(0.05 0 0 0.05 -102 -72)" d="M 2774.74,3407.77 A 16.6947,16.6947 0 1 0 2808.13,3407.77A 16.6947,16.6947 0 1 0 2774.74,3407.77Z " />
<path stroke="transparent" fill="#000000" transform="matrix(0.05 0 0 0.05 -102 -72)" d="M 2699.91,3401.11 A 16.6947,16.6947 0 1 0 2733.3,3401.11A 16.6947,16.6947 0 1 0 2699.91,3401.11Z " />
<path stroke="transparent" fill="#000000" transform="matrix(0.05 0 0 0.05 -102 -72)" d="M 2687.73,3658.08 A 16.6898,16.6898 0 1 0 2721.11,3658.08A 16.6898,16.6898 0 1 0 2687.73,3658.08Z " />
<path stroke="transparent" fill="#000000" transform="matrix(0.05 0 0 0.05 -102 -72)" d="M 2762.84,3657.54 A 16.6898,16.6898 0 1 0 2796.22,3657.54A 16.6898,16.6898 0 1 0 2762.84,3657.54Z " />
<path stroke="transparent" fill="#000000" transform="matrix(0.05 0 0 0.05 -102 -72)" d="M 3025.6,3085 A 16.69,16.69 0 1 0 3058.98,3085A 16.69,16.69 0 1 0 3025.6,3085Z " />
<path stroke="transparent" fill="#000000" transform="matrix(0.05 0 0 0.05 -102 -72)" d="M 3024.92,3160.1 A 16.69,16.69 0 1 0 3058.3,3160.1A 16.69,16.69 0 1 0 3024.92,3160.1Z " />
<path stroke="transparent" fill="#000000" transform="matrix(0.05 0 0 0.05 -102 -72)" d="M 3183.01,2998.66 A 16.721,16.721 0 1 0 3216.46,2998.66A 16.721,16.721 0 1 0 3183.01,2998.66Z " />
<path stroke="transparent" fill="#000000" transform="matrix(0.05 0 0 0.05 -102 -72)" d="M 3107.78,2997.71 A 16.721,16.721 0 1 0 3141.22,2997.71A 16.721,16.721 0 1 0 3107.78,2997.71Z " />
<path stroke="transparent" fill="#000000" transform="matrix(0.05 0 0 0.05 -102 -72)" d="M 3265.31,3153.12 A 16.6838,16.6838 0 1 0 3298.68,3153.12A 16.6838,16.6838 0 1 0 3265.31,3153.12Z " />
<path stroke="transparent" fill="#000000" transform="matrix(0.05 0 0 0.05 -102 -72)" d="M 3261.23,3078.15 A 16.6838,16.6838 0 1 0 3294.59,3078.15A 16.6838,16.6838 0 1 0 3261.23,3078.15Z " />
<path stroke="transparent" fill="#000000" transform="matrix(0.05 0 0 0.05 -102 -72)" d="M 3430.51,3202.47 A 16.6736,16.6736 0 1 0 3463.86,3202.47A 16.6736,16.6736 0 1 0 3430.51,3202.47Z " />
<path stroke="transparent" fill="#000000" transform="matrix(0.05 0 0 0.05 -102 -72)" d="M 3383.03,3260.57 A 16.6736,16.6736 0 1 0 3416.38,3260.57A 16.6736,16.6736 0 1 0 3383.03,3260.57Z " />
<path stroke="transparent" fill="#000000" transform="matrix(0.05 0 0 0.05 -102 -72)" d="M 3624.93,3264.6 A 16.6848,16.6848 0 1 0 3658.3,3264.6A 16.6848,16.6848 0 1 0 3624.93,3264.6Z " />
<path stroke="transparent" fill="#000000" transform="matrix(0.05 0 0 0.05 -102 -72)" d="M 3579.08,3205.15 A 16.6848,16.6848 0 1 0 3612.45,3205.15A 16.6848,16.6848 0 1 0 3579.08,3205.15Z " />
<path stroke="transparent" fill="#000000" transform="matrix(0.05 0 0 0.05 -102 -72)" d="M 3550.15,3424.09 A 16.6875,16.6875 0 1 0 3583.52,3424.09A 16.6875,16.6875 0 1 0 3550.15,3424.09Z " />
<path stroke="transparent" fill="#000000" transform="matrix(0.05 0 0 0.05 -102 -72)" d="M 3609.19,3377.69 A 16.6875,16.6875 0 1 0 3642.57,3377.69A 16.6875,16.6875 0 1 0 3609.19,3377.69Z " />
<path stroke="transparent" fill="#000000" transform="matrix(0.05 0 0 0.05 -102 -72)" d="M 3604.11,3620.28 A 16.7054,16.7054 0 1 0 3637.52,3620.28A 16.7054,16.7054 0 1 0 3604.11,3620.28Z " />
<path stroke="transparent" fill="#000000" transform="matrix(0.05 0 0 0.05 -102 -72)" d="M 3537.85,3584.77 A 16.7054,16.7054 0 1 0 3571.26,3584.77A 16.7054,16.7054 0 1 0 3537.85,3584.77Z " />
<path stroke="transparent" fill="#000000" transform="matrix(0.05 0 0 0.05 -102 -72)" d="M 3602.07,3827.9 A 16.7021,16.7021 0 1 0 3635.47,3827.9A 16.7021,16.7021 0 1 0 3602.07,3827.9Z " />
<path stroke="transparent" fill="#000000" transform="matrix(0.05 0 0 0.05 -102 -72)" d="M 3634.31,3760.01 A 16.7021,16.7021 0 1 0 3667.72,3760.01A 16.7021,16.7021 0 1 0 3634.31,3760.01Z " />
<path stroke="transparent" fill="#000000" transform="matrix(0.05 0 0 0.05 -102 -72)" d="M 3424.65,3851.01 A 16.6954,16.6954 0 1 0 3458.04,3851.01A 16.6954,16.6954 0 1 0 3424.65,3851.01Z " />
<path stroke="transparent" fill="#000000" transform="matrix(0.05 0 0 0.05 -102 -72)" d="M 3494.99,3877.41 A 16.6954,16.6954 0 1 0 3528.38,3877.41A 16.6954,16.6954 0 1 0 3494.99,3877.41Z " />
<path stroke="transparent" fill="#000000" transform="matrix(0.05 0 0 0.05 -102 -72)" d="M 3252.81,3970.39 A 16.6787,16.6787 0 1 0 3286.16,3970.39A 16.6787,16.6787 0 1 0 3252.81,3970.39Z " />
<path stroke="transparent" fill="#000000" transform="matrix(0.05 0 0 0.05 -102 -72)" d="M 3245.46,3895.69 A 16.6787,16.6787 0 1 0 3278.82,3895.69A 16.6787,16.6787 0 1 0 3245.46,3895.69Z " />
<path stroke="transparent" fill="#000000" transform="matrix(0.05 0 0 0.05 -102 -72)" d="M 3038.77,3903.9 A 16.7051,16.7051 0 1 0 3072.18,3903.9A 16.7051,16.7051 0 1 0 3038.77,3903.9Z " />
<path stroke="transparent" fill="#000000" transform="matrix(0.05 0 0 0.05 -102 -72)" d="M 3035.51,3979 A 16.7051,16.7051 0 1 0 3068.92,3979A 16.7051,16.7051 0 1 0 3035.51,3979Z " />
<path stroke="transparent" fill="#000000" transform="matrix(0.05 0 0 0.05 -102 -72)" d="M 3106.9,4072.36 A 16.7003,16.7003 0 1 0 3140.3,4072.36A 16.7003,16.7003 0 1 0 3106.9,4072.36Z " />
<path stroke="transparent" fill="#000000" transform="matrix(0.05 0 0 0.05 -102 -72)" d="M 3182,4075.08 A 16.7003,16.7003 0 1 0 3215.4,4075.08A 16.7003,16.7003 0 1 0 3182,4075.08Z " />
<path stroke="transparent" fill="#ffffff" transform="matrix(0.05 0 0 0.05 -102 -72)" d="M 3048.27,3679.7 C 3093.59,3727.56 2976.51,3916.82 2928.26,3962.49 C 2869.3,4018.32 2814.45,4046.29 2741.95,3969.71 C 2669.45,3893.13 2700.37,3839.89 2759.34,3784.07 C 2807.59,3738.39 3002.96,3631.84 3048.27,3679.7 " />
<path stroke="#ffffff" stroke-width="1" fill="transparent" transform="matrix(0.05 0 0 0.05 -102 -72)" d="M 3048.27,3679.7 C 3093.59,3727.56 2976.51,3916.82 2928.26,3962.49 C 2869.3,4018.32 2814.45,4046.29 2741.95,3969.71 C 2669.45,3893.13 2700.37,3839.89 2759.34,3784.07 C 2807.59,3738.39 3002.96,3631.84 3048.27,3679.7 " />
<path stroke="#000000" stroke-width="12" fill="transparent" transform="matrix(0.05 0 0 0.05 -102 -72)" d="M 3048.27,3679.7 C 3093.59,3727.56 2976.51,3916.82 2928.26,3962.49 C 2869.3,4018.32 2814.45,4046.29 2741.95,3969.71 C 2669.45,3893.13 2700.37,3839.89 2759.34,3784.07 C 2807.59,3738.39 3002.96,3631.84 3048.27,3679.7 " />
<path stroke="transparent" fill="#000000" transform="matrix(0.05 0 0 0.05 -102 -72)" d="M 2767.82,3876.3 A 16.6873,16.6873 0 1 0 2801.19,3876.3A 16.6873,16.6873 0 1 0 2767.82,3876.3Z " />
<path stroke="transparent" fill="#000000" transform="matrix(0.05 0 0 0.05 -102 -72)" d="M 2830.13,3918.21 A 16.6873,16.6873 0 1 0 2863.51,3918.21A 16.6873,16.6873 0 1 0 2830.13,3918.21Z " />
<path stroke="#0000ff" stroke-width="10" fill="transparent" transform="matrix(0.05 0 0 0.05 -102 -72)" d="M 4919.53,3353.69 A 71.8125,71.8125 0 1 0 5063.16,3353.69A 71.8125,71.8125 0 1 0 4919.53,3353.69Z " />
<path stroke="transparent" fill="#0000ff" transform="matrix(0.05 0 0 0.05 -102 -72)" d="M 4951.68,3348.39 L 5030.41,3348.39 L 5030.41,3358.39 L 4951.68,3358.39 Z " />
<path stroke="transparent" fill="#0000ff" transform="matrix(0.05 0 0 0.05 -102 -72)" d="M 4996.04,3314.02 L 4996.04,3392.75 L 4986.04,3392.75 L 4986.04,3314.02 Z " />
<path stroke="#ff0000" stroke-width="10" fill="transparent" transform="matrix(0.05 0 0 0.05 -102 -72)" d="M 5225.45,2959.4 A 71.8125,71.8125 0 1 0 5369.07,2959.4A 71.8125,71.8125 0 1 0 5225.45,2959.4Z " />
<path stroke="transparent" fill="#ff0000" transform="matrix(0.05 0 0 0.05 -102 -72)" d="M 5257.59,2954.1 L 5336.32,2954.1 L 5336.32,2964.1 L 5257.59,2964.1 Z " />
<path stroke="transparent" fill="#000000" transform="matrix(0.05 0 0 0.05 -102 -72)" d="M 4926.89,3070.86 A 16.6992,16.6992 0 1 0 4960.29,3070.86A 16.6992,16.6992 0 1 0 4926.89,3070.86Z " />
<path stroke="transparent" fill="#000000" transform="matrix(0.05 0 0 0.05 -102 -72)" d="M 4929.48,3145.96 A 16.6992,16.6992 0 1 0 4962.88,3145.96A 16.6992,16.6992 0 1 0 4929.48,3145.96Z " />
<path stroke="transparent" fill="#000000" transform="matrix(0.05 0 0 0.05 -102 -72)" d="M 5107.18,2955.7 A 16.6982,16.6982 0 1 0 5140.58,2955.7A 16.6982,16.6982 0 1 0 5107.18,2955.7Z " />
<path stroke="transparent" fill="#000000" transform="matrix(0.05 0 0 0.05 -102 -72)" d="M 5032.08,2958.15 A 16.6982,16.6982 0 1 0 5065.47,2958.15A 16.6982,16.6982 0 1 0 5032.08,2958.15Z " />
<path stroke="transparent" fill="#000000" transform="matrix(0.05 0 0 0.05 -102 -72)" d="M 5223.73,3130.95 A 16.6645,16.6645 0 1 0 5257.06,3130.95A 16.6645,16.6645 0 1 0 5223.73,3130.95Z " />
<path stroke="transparent" fill="#000000" transform="matrix(0.05 0 0 0.05 -102 -72)" d="M 5218.84,3056.12 A 16.6645,16.6645 0 1 0 5252.16,3056.12A 16.6645,16.6645 0 1 0 5218.84,3056.12Z " />
<path stroke="#000000" stroke-width="12" fill="transparent" transform="matrix(0.05 0 0 0.05 -102 -72)" d="M 3774.18,3536.94 C 3774.18,3536.94 3774.18,3500.84 3774.18,3500.84 C 3774.18,3500.84 4354.61,3500.84 4354.61,3500.84 C 4354.61,3500.84 4354.61,3464.75 4354.61,3464.75 C 4354.61,3464.75 4426.8,3536.94 4426.8,3536.94 C 4426.8,3536.94 4354.61,3609.13 4354.61,3609.13 C 4354.61,3609.13 4354.61,3573.03 4354.61,3573.03 C 4354.61,3573.03 3774.18,3573.03 3774.18,3573.03 C 3774.18,3573.03 3774.18,3536.94 3774.18,3536.94 " />
</svg>
