<?xml version="1.0" standalone="no" ?>
<!DOCTYPE svg PUBLIC "-//W3C//DTD SVG 1.1//EN" "http://www.w3.org/Graphics/SVG/1.1/DTD/svg11.dtd">
<svg width="59px" height="60px" viewBox="0 0 59 60" style="background-color: #ffffff00" xmlns="http://www.w3.org/2000/svg" xmlns:xlink="http://www.w3.org/1999/xlink" version="1.1" >
<text x="0" y="0" stroke="transparent" fill="#000000" transform="matrix(0.05 0 0 0.05 25.085 33.5419)" style="font:normal normal normal 200px 'Helvetica'" >
Xe</text>
<text x="0" y="0" stroke="transparent" fill="#000000" transform="matrix(0.05 0 0 0.05 46.558 23.2427)" style="font:normal normal normal 200px 'Helvetica'" >
F</text>
<path stroke="transparent" fill="#000000" transform="matrix(0.05 0 0 0.05 -133 -118)" d="M 3546.42,2800.71 L 3552.44,2811.13 L 3401.79,2898.08 L 3395.78,2887.66 L 3546.42,2800.71 Z " />
<text x="0" y="0" stroke="transparent" fill="#000000" transform="matrix(0.05 0 0 0.05 7.44833 33.3107)" style="font:normal normal normal 200px 'Helvetica'" >
F</text>
<path stroke="transparent" fill="#000000" transform="matrix(0.05 0 0 0.05 -133 -118)" d="M 2945.69,2961.45 L 2945.82,2949.42 L 3132.85,2951.45 L 3132.72,2963.48 L 2945.69,2961.45 Z " />
<text x="0" y="0" stroke="transparent" fill="#000000" transform="matrix(0.05 0 0 0.05 28.7129 54.147)" style="font:normal normal normal 200px 'Helvetica'" >
F</text>
<path stroke="transparent" fill="#000000" transform="matrix(0.05 0 0 0.05 -133 -118)" d="M 3290.03,3266.45 L 3278,3266.45 L 3278,3066.41 L 3290.03,3066.41 L 3290.03,3266.45 Z " />
<text x="0" y="0" stroke="transparent" fill="#000000" transform="matrix(0.05 0 0 0.05 27.7046 12.9367)" style="font:normal normal normal 200px 'Helvetica'" >
O</text>
<path stroke="transparent" fill="#000000" transform="matrix(0.05 0 0 0.05 -133 -118)" d="M 3278,2657.36 L 3290.03,2657.36 L 3290.03,2854.35 L 3278,2854.35 L 3278,2657.36 Z " />
<text x="0" y="0" stroke="transparent" fill="#000000" transform="matrix(0.05 0 0 0.05 46.558 43.841)" style="font:normal normal normal 200px 'Helvetica'" >
F</text>
<path stroke="transparent" fill="#000000" transform="matrix(0.05 0 0 0.05 -133 -118)" d="M 3552.24,3106.97 L 3546.23,3117.39 L 3412.67,3040.31 L 3418.68,3029.89 L 3552.24,3106.97 Z " />
<path stroke="transparent" fill="#000000" transform="matrix(0.05 0 0 0.05 -133 -118)" d="M 2723.62,2909.07 A 16.6838,16.6838 0 1 0 2756.98,2909.07A 16.6838,16.6838 0 1 0 2723.62,2909.07Z " />
<path stroke="transparent" fill="#000000" transform="matrix(0.05 0 0 0.05 -133 -118)" d="M 2719.53,2984.04 A 16.6838,16.6838 0 1 0 2752.9,2984.04A 16.6838,16.6838 0 1 0 2719.53,2984.04Z " />
<path stroke="transparent" fill="#000000" transform="matrix(0.05 0 0 0.05 -133 -118)" d="M 2898.21,2831.17 A 16.6646,16.6646 0 1 0 2931.54,2831.17A 16.6646,16.6646 0 1 0 2898.21,2831.17Z " />
<path stroke="transparent" fill="#000000" transform="matrix(0.05 0 0 0.05 -133 -118)" d="M 2823.52,2824.5 A 16.6646,16.6646 0 1 0 2856.85,2824.5A 16.6646,16.6646 0 1 0 2823.52,2824.5Z " />
<path stroke="transparent" fill="#000000" transform="matrix(0.05 0 0 0.05 -133 -118)" d="M 2811.17,3081.47 A 16.6898,16.6898 0 1 0 2844.55,3081.47A 16.6898,16.6898 0 1 0 2811.17,3081.47Z " />
<path stroke="transparent" fill="#000000" transform="matrix(0.05 0 0 0.05 -133 -118)" d="M 2886.27,3080.93 A 16.6898,16.6898 0 1 0 2919.65,3080.93A 16.6898,16.6898 0 1 0 2886.27,3080.93Z " />
<path stroke="transparent" fill="#000000" transform="matrix(0.05 0 0 0.05 -133 -118)" d="M 3149.07,2508.39 A 16.6598,16.6598 0 1 0 3182.39,2508.39A 16.6598,16.6598 0 1 0 3149.07,2508.39Z " />
<path stroke="transparent" fill="#000000" transform="matrix(0.05 0 0 0.05 -133 -118)" d="M 3148.39,2583.36 A 16.6598,16.6598 0 1 0 3181.71,2583.36A 16.6598,16.6598 0 1 0 3148.39,2583.36Z " />
<path stroke="transparent" fill="#000000" transform="matrix(0.05 0 0 0.05 -133 -118)" d="M 3306.48,2422.06 A 16.6907,16.6907 0 1 0 3339.86,2422.06A 16.6907,16.6907 0 1 0 3306.48,2422.06Z " />
<path stroke="transparent" fill="#000000" transform="matrix(0.05 0 0 0.05 -133 -118)" d="M 3231.38,2421.1 A 16.6907,16.6907 0 1 0 3264.76,2421.1A 16.6907,16.6907 0 1 0 3231.38,2421.1Z " />
<path stroke="transparent" fill="#000000" transform="matrix(0.05 0 0 0.05 -133 -118)" d="M 3388.74,2576.51 A 16.6838,16.6838 0 1 0 3422.11,2576.51A 16.6838,16.6838 0 1 0 3388.74,2576.51Z " />
<path stroke="transparent" fill="#000000" transform="matrix(0.05 0 0 0.05 -133 -118)" d="M 3384.66,2501.54 A 16.6838,16.6838 0 1 0 3418.03,2501.54A 16.6838,16.6838 0 1 0 3384.66,2501.54Z " />
<path stroke="transparent" fill="#000000" transform="matrix(0.05 0 0 0.05 -133 -118)" d="M 3553.95,2625.86 A 16.6736,16.6736 0 1 0 3587.3,2625.86A 16.6736,16.6736 0 1 0 3553.95,2625.86Z " />
<path stroke="transparent" fill="#000000" transform="matrix(0.05 0 0 0.05 -133 -118)" d="M 3506.47,2683.96 A 16.6736,16.6736 0 1 0 3539.81,2683.96A 16.6736,16.6736 0 1 0 3506.47,2683.96Z " />
<path stroke="transparent" fill="#000000" transform="matrix(0.05 0 0 0.05 -133 -118)" d="M 3748.39,2688 A 16.6609,16.6609 0 1 0 3781.71,2688A 16.6609,16.6609 0 1 0 3748.39,2688Z " />
<path stroke="transparent" fill="#000000" transform="matrix(0.05 0 0 0.05 -133 -118)" d="M 3702.54,2628.68 A 16.6609,16.6609 0 1 0 3735.86,2628.68A 16.6609,16.6609 0 1 0 3702.54,2628.68Z " />
<path stroke="transparent" fill="#000000" transform="matrix(0.05 0 0 0.05 -133 -118)" d="M 3673.6,2847.48 A 16.6689,16.6689 0 1 0 3706.94,2847.48A 16.6689,16.6689 0 1 0 3673.6,2847.48Z " />
<path stroke="transparent" fill="#000000" transform="matrix(0.05 0 0 0.05 -133 -118)" d="M 3732.65,2801.22 A 16.6689,16.6689 0 1 0 3765.99,2801.22A 16.6689,16.6689 0 1 0 3732.65,2801.22Z " />
<path stroke="transparent" fill="#000000" transform="matrix(0.05 0 0 0.05 -133 -118)" d="M 3727.57,3043.68 A 16.6787,16.6787 0 1 0 3760.93,3043.68A 16.6787,16.6787 0 1 0 3727.57,3043.68Z " />
<path stroke="transparent" fill="#000000" transform="matrix(0.05 0 0 0.05 -133 -118)" d="M 3661.45,3008.17 A 16.6787,16.6787 0 1 0 3694.8,3008.17A 16.6787,16.6787 0 1 0 3661.45,3008.17Z " />
<path stroke="transparent" fill="#000000" transform="matrix(0.05 0 0 0.05 -133 -118)" d="M 3725.53,3251.29 A 16.6748,16.6748 0 1 0 3758.88,3251.29A 16.6748,16.6748 0 1 0 3725.53,3251.29Z " />
<path stroke="transparent" fill="#000000" transform="matrix(0.05 0 0 0.05 -133 -118)" d="M 3757.78,3183.54 A 16.6748,16.6748 0 1 0 3791.13,3183.54A 16.6748,16.6748 0 1 0 3757.78,3183.54Z " />
<path stroke="transparent" fill="#000000" transform="matrix(0.05 0 0 0.05 -133 -118)" d="M 3548.11,3274.41 A 16.6671,16.6671 0 1 0 3581.44,3274.41A 16.6671,16.6671 0 1 0 3548.11,3274.41Z " />
<path stroke="transparent" fill="#000000" transform="matrix(0.05 0 0 0.05 -133 -118)" d="M 3618.31,3300.8 A 16.6671,16.6671 0 1 0 3651.65,3300.8A 16.6671,16.6671 0 1 0 3618.31,3300.8Z " />
<path stroke="transparent" fill="#000000" transform="matrix(0.05 0 0 0.05 -133 -118)" d="M 3376.27,3393.78 A 16.6486,16.6486 0 1 0 3409.57,3393.78A 16.6486,16.6486 0 1 0 3376.27,3393.78Z " />
<path stroke="transparent" fill="#000000" transform="matrix(0.05 0 0 0.05 -133 -118)" d="M 3368.92,3319.22 A 16.6486,16.6486 0 1 0 3402.22,3319.22A 16.6486,16.6486 0 1 0 3368.92,3319.22Z " />
<path stroke="transparent" fill="#000000" transform="matrix(0.05 0 0 0.05 -133 -118)" d="M 3162.24,3327.3 A 16.6749,16.6749 0 1 0 3195.59,3327.3A 16.6749,16.6749 0 1 0 3162.24,3327.3Z " />
<path stroke="transparent" fill="#000000" transform="matrix(0.05 0 0 0.05 -133 -118)" d="M 3158.97,3402.26 A 16.6749,16.6749 0 1 0 3192.32,3402.26A 16.6749,16.6749 0 1 0 3158.97,3402.26Z " />
<path stroke="transparent" fill="#000000" transform="matrix(0.05 0 0 0.05 -133 -118)" d="M 3230.33,3495.75 A 16.7003,16.7003 0 1 0 3263.73,3495.75A 16.7003,16.7003 0 1 0 3230.33,3495.75Z " />
<path stroke="transparent" fill="#000000" transform="matrix(0.05 0 0 0.05 -133 -118)" d="M 3305.43,3498.47 A 16.7003,16.7003 0 1 0 3338.83,3498.47A 16.7003,16.7003 0 1 0 3305.43,3498.47Z " />
</svg>
