<?xml version="1.0" standalone="no" ?>
<!DOCTYPE svg PUBLIC "-//W3C//DTD SVG 1.1//EN" "http://www.w3.org/Graphics/SVG/1.1/DTD/svg11.dtd">
<svg width="49px" height="53px" viewBox="0 0 49 53" style="background-color: #ffffff00" xmlns="http://www.w3.org/2000/svg" xmlns:xlink="http://www.w3.org/1999/xlink" version="1.1" >
<text x="0" y="0" stroke="transparent" fill="#000000" transform="matrix(0.05 0 0 0.05 19.8412 30.038)" style="font:normal normal normal 200px 'Helvetica'" >
Xe</text>
<text x="0" y="0" stroke="transparent" fill="#000000" transform="matrix(0.05 0 0 0.05 41.3162 19.7377)" style="font:normal normal normal 200px 'Helvetica'" >
F</text>
<path stroke="transparent" fill="#000000" transform="matrix(0.05 0 0 0.05 -332 -131)" d="M 7420.44,2991.3 L 7426.44,3001.69 L 7276.88,3088 L 7270.88,3077.61 L 7420.44,2991.3 Z " />
<text x="0" y="0" stroke="transparent" fill="#000000" transform="matrix(0.05 0 0 0.05 2.20228 29.8068)" style="font:normal normal normal 200px 'Helvetica'" >
F</text>
<path stroke="transparent" fill="#000000" transform="matrix(0.05 0 0 0.05 -332 -131)" d="M 6819.73,3151.34 L 6819.86,3139.34 L 7008.01,3141.39 L 7007.88,3153.39 L 6819.73,3151.34 Z " />
<text x="0" y="0" stroke="transparent" fill="#000000" transform="matrix(0.05 0 0 0.05 23.4691 50.6454)" style="font:normal normal normal 200px 'Helvetica'" >
F</text>
<path stroke="transparent" fill="#000000" transform="matrix(0.05 0 0 0.05 -332 -131)" d="M 7165.14,3456.45 L 7153.14,3456.45 L 7153.14,3256.3 L 7165.14,3256.3 L 7165.14,3456.45 Z " />
<text x="0" y="0" stroke="transparent" fill="#000000" transform="matrix(0.05 0 0 0.05 22.4608 9.43063)" style="font:normal normal normal 200px 'Helvetica'" >
O</text>
<path stroke="transparent" fill="#000000" transform="matrix(0.05 0 0 0.05 -332 -131)" d="M 7153.14,2847.2 L 7165.14,2847.2 L 7165.14,3044.3 L 7153.14,3044.3 L 7153.14,2847.2 Z " />
<text x="0" y="0" stroke="transparent" fill="#000000" transform="matrix(0.05 0 0 0.05 41.3162 40.3383)" style="font:normal normal normal 200px 'Helvetica'" >
F</text>
<path stroke="transparent" fill="#000000" transform="matrix(0.05 0 0 0.05 -332 -131)" d="M 7426.67,3296.51 L 7420.68,3306.9 L 7287.77,3230.2 L 7293.77,3219.81 L 7426.67,3296.51 Z " />
</svg>
