<svg version="1.1" viewBox="0.0 0.0 600.0 371.0" fill="none" stroke="none" stroke-linecap="square" stroke-miterlimit="10" width="600" height="371" xmlns:xlink="http://www.w3.org/1999/xlink" xmlns="http://www.w3.org/2000/svg"><path fill="#ffffff" d="M0 0L600.0 0L600.0 371.0L0 371.0L0 0Z" fill-rule="nonzero"/><path stroke="#333333" stroke-width="1.0" stroke-linecap="butt" d="M105.5 274.5L581.5 274.5" fill-rule="nonzero"/><path stroke="#cccccc" stroke-width="1.0" stroke-linecap="butt" d="M105.5 221.5L581.5 221.5" fill-rule="nonzero"/><path stroke="#cccccc" stroke-width="1.0" stroke-linecap="butt" d="M105.5 168.5L581.5 168.5" fill-rule="nonzero"/><path stroke="#cccccc" stroke-width="1.0" stroke-linecap="butt" d="M105.5 115.5L581.5 115.5" fill-rule="nonzero"/><path stroke="#cccccc" stroke-width="1.0" stroke-linecap="butt" d="M105.5 62.5L581.5 62.5" fill-rule="nonzero"/><clipPath id="id_0"><path d="M105.55 62.416668L581.45 62.416668L581.45 274.45L105.55 274.45L105.55 62.416668Z" clip-rule="nonzero"/></clipPath><path stroke="#9343a2" stroke-width="2.0" stroke-linecap="butt" clip-path="url(#id_0)" d="M153.14 168.43333L248.32 221.44167L343.5 62.416668L438.68 168.43333L533.86 221.44167" fill-rule="nonzero"/><path fill="#000000" fill-opacity="0.0" clip-path="url(#id_0)" d="M156.14 168.43333C156.14 170.0902 154.79686 171.43333 153.14 171.43333C151.48314 171.43333 150.14 170.0902 150.14 168.43333C150.14 166.77647 151.48314 165.43333 153.14 165.43333C154.79686 165.43333 156.14 166.77647 156.14 168.43333Z" fill-rule="nonzero"/><path fill="#000000" fill-opacity="0.0" clip-path="url(#id_0)" d="M251.32 221.44167C251.32 223.09853 249.97685 224.44167 248.32 224.44167C246.66315 224.44167 245.32 223.09853 245.32 221.44167C245.32 219.7848 246.66315 218.44167 248.32 218.44167C249.97685 218.44167 251.32 219.7848 251.32 221.44167Z" fill-rule="nonzero"/><path fill="#000000" fill-opacity="0.0" clip-path="url(#id_0)" d="M346.5 62.416668C346.5 64.073524 345.15686 65.416664 343.5 65.416664C341.84314 65.416664 340.5 64.073524 340.5 62.416668C340.5 60.75981 341.84314 59.416668 343.5 59.416668C345.15686 59.416668 346.5 60.75981 346.5 62.416668Z" fill-rule="nonzero"/><path fill="#000000" fill-opacity="0.0" clip-path="url(#id_0)" d="M441.68 168.43333C441.68 170.0902 440.33685 171.43333 438.68 171.43333C437.02313 171.43333 435.68 170.0902 435.68 168.43333C435.68 166.77647 437.02313 165.43333 438.68 165.43333C440.33685 165.43333 441.68 166.77647 441.68 168.43333Z" fill-rule="nonzero"/><path fill="#000000" fill-opacity="0.0" clip-path="url(#id_0)" d="M536.86 221.44167C536.86 223.09853 535.51685 224.44167 533.86 224.44167C532.2031 224.44167 530.86 223.09853 530.86 221.44167C530.86 219.7848 532.2031 218.44167 533.86 218.44167C535.51685 218.44167 536.86 219.7848 536.86 221.44167Z" fill-rule="nonzero"/><path fill="#000000" d="M327.46875 348.45L332.42188 335.5594L334.26562 335.5594L339.53125 348.45L337.59375 348.45L336.09375 344.54376L330.70312 344.54376L329.28125 348.45L327.46875 348.45ZM331.1875 343.15314L335.5625 343.15314L334.21875 339.59064Q333.59375 337.96564 333.29688 336.91876Q333.0625 338.15314 332.60938 339.3719L331.1875 343.15314ZM340.39062 349.23126L341.9375 349.45Q342.03125 350.16876 342.46875 350.4969Q343.0625 350.9344 344.07812 350.9344Q345.17188 350.9344 345.76562 350.48126Q346.375 350.04376 346.57812 349.2625Q346.70312 348.77814 346.70312 347.23126Q345.65625 348.45 344.10938 348.45Q342.1875 348.45 341.125 347.0594Q340.07812 345.66876 340.07812 343.73126Q340.07812 342.3875 340.5625 341.2625Q341.04688 340.1375 341.96875 339.52814Q342.89062 338.90314 344.125 338.90314Q345.78125 338.90314 346.84375 340.2469L346.84375 339.1219L348.3125 339.1219L348.3125 347.1844Q348.3125 349.3719 347.85938 350.27814Q347.42188 351.1844 346.45312 351.7Q345.5 352.23126 344.09375 352.23126Q342.42188 352.23126 341.39062 351.48126Q340.35938 350.73126 340.39062 349.23126ZM341.70312 343.6219Q341.70312 345.45 342.4375 346.29376Q343.17188 347.1375 344.26562 347.1375Q345.35938 347.1375 346.09375 346.3094Q346.82812 345.46564 346.82812 343.66876Q346.82812 341.95 346.0625 341.09064Q345.3125 340.21564 344.23438 340.21564Q343.1875 340.21564 342.4375 341.075Q341.70312 341.9344 341.70312 343.6219ZM357.07812 345.45L358.71875 345.65314Q358.32812 347.075 357.28125 347.8719Q356.23438 348.66876 354.60938 348.66876Q352.5625 348.66876 351.35938 347.40314Q350.15625 346.1375 350.15625 343.85626Q350.15625 341.5125 351.35938 340.21564Q352.57812 338.90314 354.51562 338.90314Q356.39062 338.90314 357.57812 340.1844Q358.76562 341.45 358.76562 343.7625Q358.76562 343.90314 358.75 344.1844L351.79688 344.1844Q351.875 345.73126 352.65625 346.54376Q353.45312 347.35626 354.60938 347.35626Q355.48438 347.35626 356.09375 346.90314Q356.71875 346.45 357.07812 345.45ZM351.875 342.8875L357.09375 342.8875Q356.98438 341.71564 356.5 341.1219Q355.73438 340.2 354.53125 340.2Q353.45312 340.2 352.70312 340.9344Q351.96875 341.66876 351.875 342.8875Z" fill-rule="nonzero"/><path fill="#000000" d="M35.55001 263.79272L22.659388 263.79272L22.659388 258.93335Q22.659388 257.6521 22.784388 256.98022Q22.940638 256.0271 23.393763 255.38646Q23.831263 254.74583 24.643763 254.35521Q25.440638 253.96458 26.393763 253.96458Q28.034388 253.96458 29.175013 255.01146Q30.315638 256.05835 30.315638 258.7771L30.315638 262.0896L35.55001 262.0896L35.55001 263.79272ZM28.784388 262.0896L28.784388 258.76147Q28.784388 257.10522 28.175013 256.41772Q27.565638 255.71458 26.440638 255.71458Q25.628138 255.71458 25.065638 256.12085Q24.487513 256.5271 24.300013 257.19897Q24.190638 257.63647 24.190638 258.79272L24.190638 262.0896L28.784388 262.0896ZM32.55001 245.60521L32.753136 243.96458Q34.17501 244.35521 34.971886 245.40208Q35.76876 246.44896 35.76876 248.07396Q35.76876 250.12083 34.503136 251.32396Q33.23751 252.52708 30.956263 252.52708Q28.612513 252.52708 27.315638 251.32396Q26.003138 250.10521 26.003138 248.16771Q26.003138 246.29271 27.284388 245.10521Q28.550013 243.91771 30.862513 243.91771Q31.003138 243.91771 31.284388 243.93333L31.284388 250.88646Q32.83126 250.80833 33.64376 250.02708Q34.45626 249.23021 34.45626 248.07396Q34.45626 247.19896 34.003136 246.58958Q33.55001 245.96458 32.55001 245.60521ZM29.987513 250.80833L29.987513 245.58958Q28.815638 245.69896 28.221888 246.18333Q27.300013 246.94896 27.300013 248.15208Q27.300013 249.23021 28.034388 249.98021Q28.768763 250.71458 29.987513 250.80833ZM35.55001 242.01146L26.221888 242.01146L26.221888 240.58958L27.628138 240.58958Q26.643763 240.04271 26.331263 239.58958Q26.003138 239.12083 26.003138 238.57396Q26.003138 237.76146 26.518763 236.94896L27.987513 237.48021Q27.643763 238.07396 27.643763 238.65208Q27.643763 239.16771 27.956263 239.58958Q28.268763 239.99583 28.815638 240.16771Q29.659388 240.43333 30.659388 240.43333L35.55001 240.43333L35.55001 242.01146ZM32.128136 229.90208L32.33126 228.35521Q33.940636 228.60521 34.86251 229.65208Q35.76876 230.69896 35.76876 232.23021Q35.76876 234.15208 34.51876 235.32396Q33.253136 236.48021 30.925013 236.48021Q29.409388 236.48021 28.284388 235.98021Q27.143763 235.48021 26.581263 234.46458Q26.003138 233.43333 26.003138 232.23021Q26.003138 230.69896 26.784388 229.74583Q27.550013 228.77708 28.956263 228.49583L29.190638 230.04271Q28.253138 230.26146 27.784388 230.82396Q27.300013 231.37083 27.300013 232.16771Q27.300013 233.35521 28.159388 234.10521Q29.018763 234.85521 30.878138 234.85521Q32.753136 234.85521 33.61251 234.13646Q34.45626 233.41771 34.45626 232.24583Q34.45626 231.32396 33.89376 230.69896Q33.315636 230.07396 32.128136 229.90208ZM32.55001 220.60521L32.753136 218.96458Q34.17501 219.35521 34.971886 220.40208Q35.76876 221.44896 35.76876 223.07396Q35.76876 225.12083 34.503136 226.32396Q33.23751 227.52708 30.956263 227.52708Q28.612513 227.52708 27.315638 226.32396Q26.003138 225.10521 26.003138 223.16771Q26.003138 221.29271 27.284388 220.10521Q28.550013 218.91771 30.862513 218.91771Q31.003138 218.91771 31.284388 218.93333L31.284388 225.88646Q32.83126 225.80833 33.64376 225.02708Q34.45626 224.23021 34.45626 223.07396Q34.45626 222.19896 34.003136 221.58958Q33.55001 220.96458 32.55001 220.60521ZM29.987513 225.80833L29.987513 220.58958Q28.815638 220.69896 28.221888 221.18333Q27.300013 221.94896 27.300013 223.15208Q27.300013 224.23021 28.034388 224.98021Q28.768763 225.71458 29.987513 225.80833ZM35.55001 216.99583L26.221888 216.99583L26.221888 215.57396L27.550013 215.57396Q26.003138 214.54271 26.003138 212.60521Q26.003138 211.76146 26.315638 211.05833Q26.612513 210.33958 27.112513 209.99583Q27.596888 209.63646 28.268763 209.49583Q28.706263 209.41771 29.815638 209.41771L35.55001 209.41771L35.55001 210.99583L29.878138 210.99583Q28.909388 210.99583 28.425013 211.18333Q27.940638 211.35521 27.659388 211.83958Q27.378138 212.30833 27.378138 212.93333Q27.378138 213.94896 28.018763 214.68333Q28.659388 215.41771 30.456263 215.41771L35.55001 215.41771L35.55001 216.99583ZM34.128136 203.54271L35.534386 203.30833Q35.67501 203.98021 35.67501 204.51146Q35.67501 205.37083 35.409386 205.85521Q35.128136 206.32396 34.690636 206.51146Q34.23751 206.69896 32.815636 206.69896L27.440638 206.69896L27.440638 207.87083L26.221888 207.87083L26.221888 206.69896L23.909388 206.69896L22.956263 205.13646L26.221888 205.13646L26.221888 203.54271L27.440638 203.54271L27.440638 205.13646L32.909386 205.13646Q33.58126 205.13646 33.784386 205.05833Q33.971886 204.96458 34.08126 204.77708Q34.190636 204.58958 34.190636 204.23021Q34.190636 203.98021 34.128136 203.54271ZM30.878138 197.58958Q28.284388 197.58958 27.034388 196.13646Q26.003138 194.93333 26.003138 193.21458Q26.003138 191.27708 27.268763 190.05833Q28.534388 188.83958 30.753138 188.83958Q32.55001 188.83958 33.58126 189.38646Q34.61251 189.91771 35.190636 190.94896Q35.76876 191.98021 35.76876 193.21458Q35.76876 195.16771 34.51876 196.38646Q33.253136 197.58958 30.878138 197.58958ZM30.878138 195.96458Q32.67501 195.96458 33.565636 195.18333Q34.45626 194.40208 34.45626 193.21458Q34.45626 192.02708 33.565636 191.24583Q32.659386 190.46458 30.831263 190.46458Q29.096888 190.46458 28.206263 191.26146Q27.315638 192.04271 27.315638 193.21458Q27.315638 194.40208 28.206263 195.18333Q29.096888 195.96458 30.878138 195.96458ZM35.55001 186.62083L27.440638 186.62083L27.440638 188.01146L26.221888 188.01146L26.221888 186.62083L25.221888 186.62083Q24.284388 186.62083 23.831263 186.44896Q23.206263 186.23021 22.831263 185.65208Q22.440638 185.07396 22.440638 184.02708Q22.440638 183.37083 22.596888 182.55833L23.987513 182.79271Q23.893763 183.29271 23.893763 183.73021Q23.893763 184.44896 24.206263 184.74583Q24.503138 185.04271 25.346888 185.04271L26.221888 185.04271L26.221888 183.23021L27.440638 183.23021L27.440638 185.04271L35.55001 185.04271L35.55001 186.62083ZM31.034388 167.60521L31.456263 165.90208Q33.565636 166.43333 34.67501 167.82396Q35.76876 169.21458 35.76876 171.23021Q35.76876 173.30833 34.92501 174.62083Q34.065636 175.91771 32.471886 176.60521Q30.862513 177.29271 29.003138 177.29271Q27.003138 177.29271 25.503138 176.52708Q24.003138 175.74583 23.221888 174.32396Q22.440638 172.90208 22.440638 171.19896Q22.440638 169.27708 23.425013 167.96458Q24.409388 166.63646 26.190638 166.12083L26.596888 167.79271Q25.190638 168.24583 24.550013 169.10521Q23.909388 169.94896 23.909388 171.24583Q23.909388 172.73021 24.628138 173.73021Q25.331263 174.71458 26.534388 175.12083Q27.721888 175.52708 29.003138 175.52708Q30.643763 175.52708 31.878138 175.05833Q33.096886 174.57396 33.70626 173.55833Q34.315636 172.54271 34.315636 171.37083Q34.315636 169.93333 33.48751 168.94896Q32.659386 167.94896 31.034388 167.60521ZM35.55001 157.88646L34.17501 157.88646Q35.76876 158.96458 35.76876 160.83958Q35.76876 161.66771 35.45626 162.38646Q35.128136 163.10521 34.659386 163.44896Q34.17501 163.79271 33.471886 163.93333Q33.003136 164.02708 32.003136 164.02708L26.221888 164.02708L26.221888 162.44896L31.393763 162.44896Q32.628136 162.44896 33.065636 162.35521Q33.690636 162.19896 34.05001 161.71458Q34.39376 161.23021 34.39376 160.52708Q34.39376 159.80833 34.034386 159.18333Q33.67501 158.55833 33.05001 158.30833Q32.409386 158.04271 31.221888 158.04271L26.221888 158.04271L26.221888 156.46458L35.55001 156.46458L35.55001 157.88646ZM32.76876 154.63646L32.51876 153.05833Q33.45626 152.93333 33.95626 152.33958Q34.45626 151.73021 34.45626 150.65208Q34.45626 149.55833 34.01876 149.02708Q33.565636 148.49583 32.971886 148.49583Q32.440636 148.49583 32.128136 148.96458Q31.925013 149.29271 31.596888 150.58958Q31.159388 152.32396 30.846888 152.99583Q30.518763 153.66771 29.956263 154.02708Q29.378138 154.37083 28.690638 154.37083Q28.065638 154.37083 27.534388 154.08958Q27.003138 153.79271 26.659388 153.30833Q26.378138 152.93333 26.190638 152.29271Q26.003138 151.65208 26.003138 150.93333Q26.003138 149.82396 26.331263 148.99583Q26.643763 148.16771 27.190638 147.77708Q27.721888 147.37083 28.628138 147.23021L28.831263 148.77708Q28.112513 148.88646 27.706263 149.38646Q27.300013 149.88646 27.300013 150.80833Q27.300013 151.90208 27.659388 152.37083Q28.018763 152.83958 28.503138 152.83958Q28.815638 152.83958 29.065638 152.63646Q29.315638 152.44896 29.487513 152.04271Q29.565638 151.79271 29.893763 150.63646Q30.331263 148.96458 30.628138 148.30833Q30.909388 147.63646 31.456263 147.26146Q32.003136 146.87083 32.80001 146.87083Q33.596886 146.87083 34.30001 147.33958Q35.003136 147.79271 35.39376 148.66771Q35.76876 149.54271 35.76876 150.63646Q35.76876 152.46458 35.01876 153.41771Q34.253136 154.37083 32.76876 154.63646ZM34.128136 141.54271L35.534386 141.30833Q35.67501 141.98021 35.67501 142.51146Q35.67501 143.37083 35.409386 143.85521Q35.128136 144.32396 34.690636 144.51146Q34.23751 144.69896 32.815636 144.69896L27.440638 144.69896L27.440638 145.87083L26.221888 145.87083L26.221888 144.69896L23.909388 144.69896L22.956263 143.13646L26.221888 143.13646L26.221888 141.54271L27.440638 141.54271L27.440638 143.13646L32.909386 143.13646Q33.58126 143.13646 33.784386 143.05833Q33.971886 142.96458 34.08126 142.77708Q34.190636 142.58958 34.190636 142.23021Q34.190636 141.98021 34.128136 141.54271ZM30.878138 140.58958Q28.284388 140.58958 27.034388 139.13646Q26.003138 137.93333 26.003138 136.21458Q26.003138 134.27708 27.268763 133.05833Q28.534388 131.83958 30.753138 131.83958Q32.55001 131.83958 33.58126 132.38646Q34.61251 132.91771 35.190636 133.94896Q35.76876 134.98021 35.76876 136.21458Q35.76876 138.16771 34.51876 139.38646Q33.253136 140.58958 30.878138 140.58958ZM30.878138 138.96458Q32.67501 138.96458 33.565636 138.18333Q34.45626 137.40208 34.45626 136.21458Q34.45626 135.02708 33.565636 134.24583Q32.659386 133.46458 30.831263 133.46458Q29.096888 133.46458 28.206263 134.26146Q27.315638 135.04271 27.315638 136.21458Q27.315638 137.40208 28.206263 138.18333Q29.096888 138.96458 30.878138 138.96458ZM35.55001 129.99583L26.221888 129.99583L26.221888 128.57396L27.518763 128.57396Q26.846888 128.13646 26.425013 127.41771Q26.003138 126.683334 26.003138 125.745834Q26.003138 124.714584 26.440638 124.058334Q26.862513 123.38646 27.643763 123.120834Q26.003138 122.01146 26.003138 120.23021Q26.003138 118.839584 26.784388 118.10521Q27.550013 117.35521 29.143763 117.35521L35.55001 117.35521L35.55001 118.91771L29.675013 118.91771Q28.721888 118.91771 28.300013 119.07396Q27.878138 119.23021 27.628138 119.63646Q27.378138 120.04271 27.378138 120.589584Q27.378138 121.57396 28.034388 122.23021Q28.690638 122.870834 30.128138 122.870834L35.55001 122.870834L35.55001 124.44896L29.487513 124.44896Q28.425013 124.44896 27.909388 124.839584Q27.378138 125.23021 27.378138 126.10521Q27.378138 126.777084 27.737513 127.339584Q28.081263 127.902084 28.753138 128.16771Q29.425013 128.41771 30.706263 128.41771L35.55001 128.41771L35.55001 129.99583ZM32.55001 108.60521L32.753136 106.964584Q34.17501 107.35521 34.971886 108.402084Q35.76876 109.44896 35.76876 111.07396Q35.76876 113.120834 34.503136 114.32396Q33.23751 115.527084 30.956263 115.527084Q28.612513 115.527084 27.315638 114.32396Q26.003138 113.10521 26.003138 111.16771Q26.003138 109.29271 27.284388 108.10521Q28.550013 106.91771 30.862513 106.91771Q31.003138 106.91771 31.284388 106.933334L31.284388 113.88646Q32.83126 113.808334 33.64376 113.027084Q34.45626 112.23021 34.45626 111.07396Q34.45626 110.19896 34.003136 109.589584Q33.55001 108.964584 32.55001 108.60521ZM29.987513 113.808334L29.987513 108.589584Q28.815638 108.69896 28.221888 109.183334Q27.300013 109.94896 27.300013 111.152084Q27.300013 112.23021 28.034388 112.98021Q28.768763 113.714584 29.987513 113.808334ZM35.55001 105.01146L26.221888 105.01146L26.221888 103.589584L27.628138 103.589584Q26.643763 103.04271 26.331263 102.589584Q26.003138 102.120834 26.003138 101.57396Q26.003138 100.76146 26.518763 99.94896L27.987513 100.48021Q27.643763 101.07396 27.643763 101.652084Q27.643763 102.16771 27.956263 102.589584Q28.268763 102.995834 28.815638 103.16771Q29.659388 103.433334 30.659388 103.433334L35.55001 103.433334L35.55001 105.01146ZM32.76876 99.63646L32.51876 98.058334Q33.45626 97.933334 33.95626 97.339584Q34.45626 96.73021 34.45626 95.652084Q34.45626 94.558334 34.01876 94.027084Q33.565636 93.495834 32.971886 93.495834Q32.440636 93.495834 32.128136 93.964584Q31.925013 94.29271 31.596888 95.589584Q31.159388 97.32396 30.846888 97.995834Q30.518763 98.66771 29.956263 99.027084Q29.378138 99.370834 28.690638 99.370834Q28.065638 99.370834 27.534388 99.089584Q27.003138 98.79271 26.659388 98.308334Q26.378138 97.933334 26.190638 97.29271Q26.003138 96.652084 26.003138 95.933334Q26.003138 94.82396 26.331263 93.995834Q26.643763 93.16771 27.190638 92.777084Q27.721888 92.370834 28.628138 92.23021L28.831263 93.777084Q28.112513 93.88646 27.706263 94.38646Q27.300013 94.88646 27.300013 95.808334Q27.300013 96.902084 27.659388 97.370834Q28.018763 97.839584 28.503138 97.839584Q28.815638 97.839584 29.065638 97.63646Q29.315638 97.44896 29.487513 97.04271Q29.565638 96.79271 29.893763 95.63646Q30.331263 93.964584 30.628138 93.308334Q30.909388 92.63646 31.456263 92.26146Q32.003136 91.870834 32.80001 91.870834Q33.596886 91.870834 34.30001 92.339584Q35.003136 92.79271 35.39376 93.66771Q35.76876 94.54271 35.76876 95.63646Q35.76876 97.464584 35.01876 98.41771Q34.253136 99.370834 32.76876 99.63646Z" fill-rule="nonzero"/><path fill="#000000" d="M87.3 274.59064Q87.3 272.3094 87.76875 270.91876Q88.2375 269.52814 89.15938 268.77814Q90.09688 268.0125 91.50313 268.0125Q92.53438 268.0125 93.31563 268.4344Q94.09688 268.84064 94.59688 269.6375Q95.1125 270.41876 95.40938 271.5594Q95.70625 272.6844 95.70625 274.59064Q95.70625 276.85626 95.2375 278.2625Q94.76875 279.65314 93.83125 280.41876Q92.90938 281.16876 91.50313 281.16876Q89.62813 281.16876 88.56563 279.84064Q87.3 278.23126 87.3 274.59064ZM88.925 274.59064Q88.925 277.7625 89.65938 278.825Q90.40938 279.8719 91.50313 279.8719Q92.58125 279.8719 93.33125 278.825Q94.08125 277.7625 94.08125 274.59064Q94.08125 271.41876 93.33125 270.3719Q92.58125 269.325 91.4875 269.325Q90.39375 269.325 89.7375 270.2469Q88.925 271.41876 88.925 274.59064Z" fill-rule="nonzero"/><path fill="#000000" d="M83.25313 227.94167L81.675 227.94167L81.675 217.86354Q81.09688 218.41042 80.175 218.95729Q79.25313 219.48854 78.50313 219.76979L78.50313 218.23854Q79.83125 217.61354 80.83125 216.72292Q81.83125 215.83229 82.2375 215.00417L83.25313 215.00417L83.25313 227.94167ZM87.3 221.58229Q87.3 219.30104 87.76875 217.91042Q88.2375 216.51979 89.15938 215.76979Q90.09688 215.00417 91.50313 215.00417Q92.53438 215.00417 93.31563 215.42604Q94.09688 215.83229 94.59688 216.62917Q95.1125 217.41042 95.40938 218.55104Q95.70625 219.67604 95.70625 221.58229Q95.70625 223.84792 95.2375 225.25417Q94.76875 226.64479 93.83125 227.41042Q92.90938 228.16042 91.50313 228.16042Q89.62813 228.16042 88.56563 226.83229Q87.3 225.22292 87.3 221.58229ZM88.925 221.58229Q88.925 224.75417 89.65938 225.81667Q90.40938 226.86354 91.50313 226.86354Q92.58125 226.86354 93.33125 225.81667Q94.08125 224.75417 94.08125 221.58229Q94.08125 218.41042 93.33125 217.36354Q92.58125 216.31667 91.4875 216.31667Q90.39375 216.31667 89.7375 217.23854Q88.925 218.41042 88.925 221.58229Z" fill-rule="nonzero"/><path fill="#000000" d="M85.6125 173.41771L85.6125 174.93333L77.09688 174.93333Q77.08125 174.35521 77.28438 173.83958Q77.6125 172.96458 78.31563 172.12083Q79.03438 171.27708 80.39375 170.16771Q82.4875 168.44896 83.22188 167.44896Q83.97188 166.43333 83.97188 165.54271Q83.97188 164.58958 83.3 163.94896Q82.62813 163.30833 81.55 163.30833Q80.39375 163.30833 79.70625 163.99583Q79.03438 164.68333 79.01875 165.88646L77.39375 165.71458Q77.56563 163.90208 78.64375 162.94896Q79.7375 161.99583 81.58125 161.99583Q83.425 161.99583 84.50313 163.02708Q85.59688 164.05833 85.59688 165.57396Q85.59688 166.33958 85.26875 167.08958Q84.95625 167.83958 84.22188 168.66771Q83.4875 169.49583 81.78438 170.93333Q80.3625 172.13646 79.95625 172.55833Q79.55 172.98021 79.3 173.41771L85.6125 173.41771ZM87.3 168.57396Q87.3 166.29271 87.76875 164.90208Q88.2375 163.51146 89.15938 162.76146Q90.09688 161.99583 91.50313 161.99583Q92.53438 161.99583 93.31563 162.41771Q94.09688 162.82396 94.59688 163.62083Q95.1125 164.40208 95.40938 165.54271Q95.70625 166.66771 95.70625 168.57396Q95.70625 170.83958 95.2375 172.24583Q94.76875 173.63646 93.83125 174.40208Q92.90938 175.15208 91.50313 175.15208Q89.62813 175.15208 88.56563 173.82396Q87.3 172.21458 87.3 168.57396ZM88.925 168.57396Q88.925 171.74583 89.65938 172.80833Q90.40938 173.85521 91.50313 173.85521Q92.58125 173.85521 93.33125 172.80833Q94.08125 171.74583 94.08125 168.57396Q94.08125 165.40208 93.33125 164.35521Q92.58125 163.30833 91.4875 163.30833Q90.39375 163.30833 89.7375 164.23021Q88.925 165.40208 88.925 168.57396Z" fill-rule="nonzero"/><path fill="#000000" d="M77.3 118.51875L78.89375 118.31563Q79.15938 119.65938 79.81563 120.25313Q80.47188 120.84688 81.40938 120.84688Q82.53438 120.84688 83.3 120.08125Q84.06563 119.3 84.06563 118.15938Q84.06563 117.06563 83.34688 116.3625Q82.64375 115.64375 81.55 115.64375Q81.09688 115.64375 80.425 115.83125L80.59688 114.44063Q80.75313 114.45625 80.8625 114.45625Q81.8625 114.45625 82.675 113.925Q83.4875 113.39375 83.4875 112.3Q83.4875 111.425 82.89375 110.8625Q82.3 110.28438 81.37813 110.28438Q80.45625 110.28438 79.83125 110.8625Q79.22188 111.44063 79.05 112.6125L77.47188 112.33125Q77.75313 110.7375 78.78438 109.8625Q79.81563 108.9875 81.34688 108.9875Q82.39375 108.9875 83.28438 109.44063Q84.175 109.89375 84.64375 110.675Q85.1125 111.45625 85.1125 112.33125Q85.1125 113.175 84.65938 113.8625Q84.22188 114.53438 83.33125 114.94063Q84.47188 115.20625 85.09688 116.05Q85.7375 116.87813 85.7375 118.1125Q85.7375 119.8 84.50313 120.9875Q83.28438 122.15938 81.40938 122.15938Q79.70625 122.15938 78.58125 121.14375Q77.47188 120.12813 77.3 118.51875ZM87.3 115.56563Q87.3 113.28438 87.76875 111.89375Q88.2375 110.50313 89.15938 109.75313Q90.09688 108.9875 91.50313 108.9875Q92.53438 108.9875 93.31563 109.40938Q94.09688 109.81563 94.59688 110.6125Q95.1125 111.39375 95.40938 112.53438Q95.70625 113.65938 95.70625 115.56563Q95.70625 117.83125 95.2375 119.2375Q94.76875 120.62813 93.83125 121.39375Q92.90938 122.14375 91.50313 122.14375Q89.62813 122.14375 88.56563 120.81563Q87.3 119.20625 87.3 115.56563ZM88.925 115.56563Q88.925 118.7375 89.65938 119.8Q90.40938 120.84688 91.50313 120.84688Q92.58125 120.84688 93.33125 119.8Q94.08125 118.7375 94.08125 115.56563Q94.08125 112.39375 93.33125 111.34688Q92.58125 110.3 91.4875 110.3Q90.39375 110.3 89.7375 111.22188Q88.925 112.39375 88.925 115.56563Z" fill-rule="nonzero"/><path fill="#000000" d="M82.3625 68.916664L82.3625 65.83854L76.78438 65.83854L76.78438 64.385414L82.65938 56.02604L83.95625 56.02604L83.95625 64.385414L85.69063 64.385414L85.69063 65.83854L83.95625 65.83854L83.95625 68.916664L82.3625 68.916664ZM82.3625 64.385414L82.3625 58.572914L78.33125 64.385414L82.3625 64.385414ZM87.3 62.55729Q87.3 60.27604 87.76875 58.885414Q88.2375 57.49479 89.15938 56.74479Q90.09688 55.979164 91.50313 55.979164Q92.53438 55.979164 93.31563 56.40104Q94.09688 56.80729 94.59688 57.604164Q95.1125 58.385414 95.40938 59.52604Q95.70625 60.65104 95.70625 62.55729Q95.70625 64.822914 95.2375 66.229164Q94.76875 67.61979 93.83125 68.385414Q92.90938 69.135414 91.50313 69.135414Q89.62813 69.135414 88.56563 67.80729Q87.3 66.197914 87.3 62.55729ZM88.925 62.55729Q88.925 65.729164 89.65938 66.791664Q90.40938 67.83854 91.50313 67.83854Q92.58125 67.83854 93.33125 66.791664Q94.08125 65.729164 94.08125 62.55729Q94.08125 59.385414 93.33125 58.33854Q92.58125 57.291664 91.4875 57.291664Q90.39375 57.291664 89.7375 58.21354Q88.925 59.385414 88.925 62.55729Z" fill-rule="nonzero"/><path fill="#000000" d="M139.2025 298.9344L139.2025 300.45L130.68687 300.45Q130.67125 299.8719 130.87437 299.35626Q131.2025 298.48126 131.90562 297.6375Q132.62437 296.79376 133.98375 295.6844Q136.0775 293.96564 136.81187 292.96564Q137.56187 291.95 137.56187 291.0594Q137.56187 290.10626 136.89 289.46564Q136.21812 288.825 135.14 288.825Q133.98375 288.825 133.29625 289.5125Q132.62437 290.2 132.60875 291.40314L130.98375 291.23126Q131.15562 289.41876 132.23375 288.46564Q133.3275 287.5125 135.17125 287.5125Q137.015 287.5125 138.09312 288.54376Q139.18687 289.575 139.18687 291.09064Q139.18687 291.85626 138.85875 292.60626Q138.54625 293.35626 137.81187 294.1844Q137.0775 295.0125 135.37437 296.45Q133.9525 297.65314 133.54625 298.075Q133.14 298.4969 132.89 298.9344L139.2025 298.9344ZM140.89 294.09064Q140.89 291.8094 141.35875 290.41876Q141.8275 289.02814 142.74937 288.27814Q143.68687 287.5125 145.09312 287.5125Q146.12437 287.5125 146.90562 287.9344Q147.68687 288.34064 148.18687 289.1375Q148.7025 289.91876 148.99937 291.0594Q149.29625 292.1844 149.29625 294.09064Q149.29625 296.35626 148.8275 297.7625Q148.35875 299.15314 147.42125 299.91876Q146.49937 300.66876 145.09312 300.66876Q143.21812 300.66876 142.15562 299.34064Q140.89 297.73126 140.89 294.09064ZM142.515 294.09064Q142.515 297.2625 143.24937 298.325Q143.99937 299.3719 145.09312 299.3719Q146.17125 299.3719 146.92125 298.325Q147.67125 297.2625 147.67125 294.09064Q147.67125 290.91876 146.92125 289.8719Q146.17125 288.825 145.0775 288.825Q143.98375 288.825 143.3275 289.7469Q142.515 290.91876 142.515 294.09064ZM150.71812 296.575L150.71812 294.9969L155.5775 294.9969L155.5775 296.575L150.71812 296.575ZM165.2025 298.9344L165.2025 300.45L156.68687 300.45Q156.67125 299.8719 156.87437 299.35626Q157.2025 298.48126 157.90562 297.6375Q158.62437 296.79376 159.98375 295.6844Q162.0775 293.96564 162.81187 292.96564Q163.56187 291.95 163.56187 291.0594Q163.56187 290.10626 162.89 289.46564Q162.21812 288.825 161.14 288.825Q159.98375 288.825 159.29625 289.5125Q158.62437 290.2 158.60875 291.40314L156.98375 291.23126Q157.15562 289.41876 158.23375 288.46564Q159.3275 287.5125 161.17125 287.5125Q163.015 287.5125 164.09312 288.54376Q165.18687 289.575 165.18687 291.09064Q165.18687 291.85626 164.85875 292.60626Q164.54625 293.35626 163.81187 294.1844Q163.0775 295.0125 161.37437 296.45Q159.9525 297.65314 159.54625 298.075Q159.14 298.4969 158.89 298.9344L165.2025 298.9344ZM167.12437 297.46564L168.64 297.325Q168.84312 298.40314 169.37437 298.8875Q169.92125 299.3719 170.78062 299.3719Q171.515 299.3719 172.06187 299.04376Q172.60875 298.7 172.9525 298.15314Q173.31187 297.59064 173.54625 296.6375Q173.78062 295.6844 173.78062 294.7Q173.78062 294.59064 173.78062 294.3875Q173.29625 295.1375 172.46812 295.60626Q171.65562 296.075 170.7025 296.075Q169.10875 296.075 167.99937 294.91876Q166.89 293.7625 166.89 291.85626Q166.89 289.90314 168.04625 288.71564Q169.2025 287.5125 170.93687 287.5125Q172.2025 287.5125 173.23375 288.2Q174.28062 288.8719 174.81187 290.1219Q175.35875 291.3719 175.35875 293.7469Q175.35875 296.21564 174.81187 297.6844Q174.28062 299.1375 173.21812 299.90314Q172.17125 300.66876 170.74937 300.66876Q169.23375 300.66876 168.265 299.84064Q167.31187 298.9969 167.12437 297.46564ZM173.60875 291.77814Q173.60875 290.41876 172.87437 289.6219Q172.15562 288.825 171.14 288.825Q170.0775 288.825 169.29625 289.6844Q168.515 290.54376 168.515 291.91876Q168.515 293.15314 169.24937 293.91876Q169.99937 294.6844 171.09312 294.6844Q172.18687 294.6844 172.89 293.91876Q173.60875 293.15314 173.60875 291.77814Z" fill-rule="nonzero"/><path fill="#000000" d="M226.07 297.04376L227.66376 296.84064Q227.92938 298.1844 228.58563 298.77814Q229.24188 299.3719 230.17938 299.3719Q231.30438 299.3719 232.07 298.60626Q232.83563 297.825 232.83563 296.6844Q232.83563 295.59064 232.11688 294.8875Q231.41376 294.16876 230.32 294.16876Q229.86688 294.16876 229.195 294.35626L229.36688 292.96564Q229.52313 292.98126 229.6325 292.98126Q230.6325 292.98126 231.445 292.45Q232.2575 291.91876 232.2575 290.825Q232.2575 289.95 231.66376 289.3875Q231.07 288.8094 230.14813 288.8094Q229.22626 288.8094 228.60126 289.3875Q227.99188 289.96564 227.82 291.1375L226.24188 290.85626Q226.52313 289.2625 227.55438 288.3875Q228.58563 287.5125 230.11688 287.5125Q231.16376 287.5125 232.05438 287.96564Q232.945 288.41876 233.41376 289.2Q233.8825 289.98126 233.8825 290.85626Q233.8825 291.7 233.42938 292.3875Q232.99188 293.0594 232.10126 293.46564Q233.24188 293.73126 233.86688 294.575Q234.5075 295.40314 234.5075 296.6375Q234.5075 298.325 233.27313 299.5125Q232.05438 300.6844 230.17938 300.6844Q228.47626 300.6844 227.35126 299.66876Q226.24188 298.65314 226.07 297.04376ZM236.07 294.09064Q236.07 291.8094 236.53876 290.41876Q237.0075 289.02814 237.92938 288.27814Q238.86688 287.5125 240.27313 287.5125Q241.30438 287.5125 242.08563 287.9344Q242.86688 288.34064 243.36688 289.1375Q243.8825 289.91876 244.17938 291.0594Q244.47626 292.1844 244.47626 294.09064Q244.47626 296.35626 244.0075 297.7625Q243.53876 299.15314 242.60126 299.91876Q241.67938 300.66876 240.27313 300.66876Q238.39813 300.66876 237.33563 299.34064Q236.07 297.73126 236.07 294.09064ZM237.695 294.09064Q237.695 297.2625 238.42938 298.325Q239.17938 299.3719 240.27313 299.3719Q241.35126 299.3719 242.10126 298.325Q242.85126 297.2625 242.85126 294.09064Q242.85126 290.91876 242.10126 289.8719Q241.35126 288.825 240.2575 288.825Q239.16376 288.825 238.5075 289.7469Q237.695 290.91876 237.695 294.09064ZM245.89813 296.575L245.89813 294.9969L250.7575 294.9969L250.7575 296.575L245.89813 296.575ZM252.07 297.04376L253.66376 296.84064Q253.92938 298.1844 254.58563 298.77814Q255.24188 299.3719 256.17938 299.3719Q257.30438 299.3719 258.07 298.60626Q258.83563 297.825 258.83563 296.6844Q258.83563 295.59064 258.11688 294.8875Q257.41376 294.16876 256.32 294.16876Q255.86688 294.16876 255.195 294.35626L255.36688 292.96564Q255.52313 292.98126 255.6325 292.98126Q256.6325 292.98126 257.445 292.45Q258.2575 291.91876 258.2575 290.825Q258.2575 289.95 257.66376 289.3875Q257.07 288.8094 256.14813 288.8094Q255.22626 288.8094 254.60126 289.3875Q253.99188 289.96564 253.82 291.1375L252.24188 290.85626Q252.52313 289.2625 253.55438 288.3875Q254.58563 287.5125 256.11688 287.5125Q257.16376 287.5125 258.05438 287.96564Q258.945 288.41876 259.41376 289.2Q259.8825 289.98126 259.8825 290.85626Q259.8825 291.7 259.42938 292.3875Q258.99188 293.0594 258.10126 293.46564Q259.24188 293.73126 259.86688 294.575Q260.5075 295.40314 260.5075 296.6375Q260.5075 298.325 259.27313 299.5125Q258.05438 300.6844 256.17938 300.6844Q254.47626 300.6844 253.35126 299.66876Q252.24188 298.65314 252.07 297.04376ZM262.30438 297.46564L263.82 297.325Q264.02313 298.40314 264.55438 298.8875Q265.10126 299.3719 265.96063 299.3719Q266.695 299.3719 267.24188 299.04376Q267.78876 298.7 268.1325 298.15314Q268.49188 297.59064 268.72626 296.6375Q268.96063 295.6844 268.96063 294.7Q268.96063 294.59064 268.96063 294.3875Q268.47626 295.1375 267.64813 295.60626Q266.83563 296.075 265.8825 296.075Q264.28876 296.075 263.17938 294.91876Q262.07 293.7625 262.07 291.85626Q262.07 289.90314 263.22626 288.71564Q264.3825 287.5125 266.11688 287.5125Q267.3825 287.5125 268.41376 288.2Q269.46063 288.8719 269.99188 290.1219Q270.53876 291.3719 270.53876 293.7469Q270.53876 296.21564 269.99188 297.6844Q269.46063 299.1375 268.39813 299.90314Q267.35126 300.66876 265.92938 300.66876Q264.41376 300.66876 263.445 299.84064Q262.49188 298.9969 262.30438 297.46564ZM268.78876 291.77814Q268.78876 290.41876 268.05438 289.6219Q267.33563 288.825 266.32 288.825Q265.2575 288.825 264.47626 289.6844Q263.695 290.54376 263.695 291.91876Q263.695 293.15314 264.42938 293.91876Q265.17938 294.6844 266.27313 294.6844Q267.36688 294.6844 268.07 293.91876Q268.78876 293.15314 268.78876 291.77814Z" fill-rule="nonzero"/><path fill="#000000" d="M326.3125 300.45L326.3125 297.3719L320.73438 297.3719L320.73438 295.91876L326.60938 287.5594L327.90625 287.5594L327.90625 295.91876L329.64062 295.91876L329.64062 297.3719L327.90625 297.3719L327.90625 300.45L326.3125 300.45ZM326.3125 295.91876L326.3125 290.10626L322.28125 295.91876L326.3125 295.91876ZM331.25 294.09064Q331.25 291.8094 331.71875 290.41876Q332.1875 289.02814 333.10938 288.27814Q334.04688 287.5125 335.45312 287.5125Q336.48438 287.5125 337.26562 287.9344Q338.04688 288.34064 338.54688 289.1375Q339.0625 289.91876 339.35938 291.0594Q339.65625 292.1844 339.65625 294.09064Q339.65625 296.35626 339.1875 297.7625Q338.71875 299.15314 337.78125 299.91876Q336.85938 300.66876 335.45312 300.66876Q333.57812 300.66876 332.51562 299.34064Q331.25 297.73126 331.25 294.09064ZM332.875 294.09064Q332.875 297.2625 333.60938 298.325Q334.35938 299.3719 335.45312 299.3719Q336.53125 299.3719 337.28125 298.325Q338.03125 297.2625 338.03125 294.09064Q338.03125 290.91876 337.28125 289.8719Q336.53125 288.825 335.4375 288.825Q334.34375 288.825 333.6875 289.7469Q332.875 290.91876 332.875 294.09064ZM341.07812 296.575L341.07812 294.9969L345.9375 294.9969L345.9375 296.575L341.07812 296.575ZM352.3125 300.45L352.3125 297.3719L346.73438 297.3719L346.73438 295.91876L352.60938 287.5594L353.90625 287.5594L353.90625 295.91876L355.64062 295.91876L355.64062 297.3719L353.90625 297.3719L353.90625 300.45L352.3125 300.45ZM352.3125 295.91876L352.3125 290.10626L348.28125 295.91876L352.3125 295.91876ZM357.48438 297.46564L359.0 297.325Q359.20312 298.40314 359.73438 298.8875Q360.28125 299.3719 361.14062 299.3719Q361.875 299.3719 362.42188 299.04376Q362.96875 298.7 363.3125 298.15314Q363.67188 297.59064 363.90625 296.6375Q364.14062 295.6844 364.14062 294.7Q364.14062 294.59064 364.14062 294.3875Q363.65625 295.1375 362.82812 295.60626Q362.01562 296.075 361.0625 296.075Q359.46875 296.075 358.35938 294.91876Q357.25 293.7625 357.25 291.85626Q357.25 289.90314 358.40625 288.71564Q359.5625 287.5125 361.29688 287.5125Q362.5625 287.5125 363.59375 288.2Q364.64062 288.8719 365.17188 290.1219Q365.71875 291.3719 365.71875 293.7469Q365.71875 296.21564 365.17188 297.6844Q364.64062 299.1375 363.57812 299.90314Q362.53125 300.66876 361.10938 300.66876Q359.59375 300.66876 358.625 299.84064Q357.67188 298.9969 357.48438 297.46564ZM363.96875 291.77814Q363.96875 290.41876 363.23438 289.6219Q362.51562 288.825 361.5 288.825Q360.4375 288.825 359.65625 289.6844Q358.875 290.54376 358.875 291.91876Q358.875 293.15314 359.60938 293.91876Q360.35938 294.6844 361.45312 294.6844Q362.54688 294.6844 363.25 293.91876Q363.96875 293.15314 363.96875 291.77814Z" fill-rule="nonzero"/><path fill="#000000" d="M416.43 297.075L418.08624 296.9344Q418.27374 298.15314 418.94562 298.7625Q419.6175 299.3719 420.57062 299.3719Q421.71124 299.3719 422.4925 298.5125Q423.28937 297.65314 423.28937 296.21564Q423.28937 294.8719 422.52374 294.09064Q421.77374 293.3094 420.53937 293.3094Q419.77374 293.3094 419.14874 293.65314Q418.53937 293.9969 418.19562 294.5594L416.71124 294.35626L417.96124 287.7469L424.3675 287.7469L424.3675 289.2469L419.22687 289.2469L418.52374 292.71564Q419.69562 291.90314 420.96124 291.90314Q422.64874 291.90314 423.805 293.075Q424.97687 294.2469 424.97687 296.075Q424.97687 297.825 423.94562 299.10626Q422.71124 300.66876 420.57062 300.66876Q418.805 300.66876 417.69562 299.6844Q416.58624 298.7 416.43 297.075ZM426.43 294.09064Q426.43 291.8094 426.89874 290.41876Q427.3675 289.02814 428.28937 288.27814Q429.22687 287.5125 430.63312 287.5125Q431.66437 287.5125 432.44562 287.9344Q433.22687 288.34064 433.72687 289.1375Q434.2425 289.91876 434.53937 291.0594Q434.83624 292.1844 434.83624 294.09064Q434.83624 296.35626 434.3675 297.7625Q433.89874 299.15314 432.96124 299.91876Q432.03937 300.66876 430.63312 300.66876Q428.75812 300.66876 427.69562 299.34064Q426.43 297.73126 426.43 294.09064ZM428.055 294.09064Q428.055 297.2625 428.78937 298.325Q429.53937 299.3719 430.63312 299.3719Q431.71124 299.3719 432.46124 298.325Q433.21124 297.2625 433.21124 294.09064Q433.21124 290.91876 432.46124 289.8719Q431.71124 288.825 430.6175 288.825Q429.52374 288.825 428.8675 289.7469Q428.055 290.91876 428.055 294.09064ZM436.25812 296.575L436.25812 294.9969L441.1175 294.9969L441.1175 296.575L436.25812 296.575ZM442.43 297.075L444.08624 296.9344Q444.27374 298.15314 444.94562 298.7625Q445.6175 299.3719 446.57062 299.3719Q447.71124 299.3719 448.4925 298.5125Q449.28937 297.65314 449.28937 296.21564Q449.28937 294.8719 448.52374 294.09064Q447.77374 293.3094 446.53937 293.3094Q445.77374 293.3094 445.14874 293.65314Q444.53937 293.9969 444.19562 294.5594L442.71124 294.35626L443.96124 287.7469L450.3675 287.7469L450.3675 289.2469L445.22687 289.2469L444.52374 292.71564Q445.69562 291.90314 446.96124 291.90314Q448.64874 291.90314 449.805 293.075Q450.97687 294.2469 450.97687 296.075Q450.97687 297.825 449.94562 299.10626Q448.71124 300.66876 446.57062 300.66876Q444.805 300.66876 443.69562 299.6844Q442.58624 298.7 442.43 297.075ZM452.66437 297.46564L454.18 297.325Q454.38312 298.40314 454.91437 298.8875Q455.46124 299.3719 456.32062 299.3719Q457.055 299.3719 457.60187 299.04376Q458.14874 298.7 458.4925 298.15314Q458.85187 297.59064 459.08624 296.6375Q459.32062 295.6844 459.32062 294.7Q459.32062 294.59064 459.32062 294.3875Q458.83624 295.1375 458.00812 295.60626Q457.19562 296.075 456.2425 296.075Q454.64874 296.075 453.53937 294.91876Q452.43 293.7625 452.43 291.85626Q452.43 289.90314 453.58624 288.71564Q454.7425 287.5125 456.47687 287.5125Q457.7425 287.5125 458.77374 288.2Q459.82062 288.8719 460.35187 290.1219Q460.89874 291.3719 460.89874 293.7469Q460.89874 296.21564 460.35187 297.6844Q459.82062 299.1375 458.75812 299.90314Q457.71124 300.66876 456.28937 300.66876Q454.77374 300.66876 453.805 299.84064Q452.85187 298.9969 452.66437 297.46564ZM459.14874 291.77814Q459.14874 290.41876 458.41437 289.6219Q457.69562 288.825 456.68 288.825Q455.6175 288.825 454.83624 289.6844Q454.055 290.54376 454.055 291.91876Q454.055 293.15314 454.78937 293.91876Q455.53937 294.6844 456.63312 294.6844Q457.72687 294.6844 458.43 293.91876Q459.14874 293.15314 459.14874 291.77814Z" fill-rule="nonzero"/><path fill="#000000" d="M519.8131 290.71564L518.2506 290.84064Q518.03186 289.91876 517.64124 289.4969Q517.0006 288.8094 516.0631 288.8094Q515.3131 288.8094 514.735 289.23126Q513.985 289.77814 513.5475 290.825Q513.1256 291.8719 513.11 293.8094Q513.6881 292.9344 514.5006 292.5125Q515.32874 292.09064 516.235 292.09064Q517.82874 292.09064 518.9381 293.2625Q520.0475 294.41876 520.0475 296.2625Q520.0475 297.48126 519.51624 298.52814Q519.0006 299.5594 518.07874 300.1219Q517.1725 300.66876 516.01624 300.66876Q514.03186 300.66876 512.78186 299.21564Q511.53186 297.7625 511.53186 294.41876Q511.53186 290.6844 512.9225 288.98126Q514.1256 287.5125 516.15686 287.5125Q517.6881 287.5125 518.65686 288.3719Q519.6256 289.21564 519.8131 290.71564ZM513.36 296.27814Q513.36 297.09064 513.70374 297.84064Q514.0475 298.59064 514.6725 298.98126Q515.2975 299.3719 515.985 299.3719Q516.985 299.3719 517.70374 298.5594Q518.4225 297.7469 518.4225 296.35626Q518.4225 295.02814 517.70374 294.2625Q517.0006 293.48126 515.9225 293.48126Q514.84436 293.48126 514.09436 294.2625Q513.36 295.02814 513.36 296.27814ZM521.61 294.09064Q521.61 291.8094 522.07874 290.41876Q522.5475 289.02814 523.46936 288.27814Q524.40686 287.5125 525.8131 287.5125Q526.84436 287.5125 527.6256 287.9344Q528.40686 288.34064 528.90686 289.1375Q529.4225 289.91876 529.71936 291.0594Q530.01624 292.1844 530.01624 294.09064Q530.01624 296.35626 529.5475 297.7625Q529.07874 299.15314 528.14124 299.91876Q527.21936 300.66876 525.8131 300.66876Q523.9381 300.66876 522.8756 299.34064Q521.61 297.73126 521.61 294.09064ZM523.235 294.09064Q523.235 297.2625 523.96936 298.325Q524.71936 299.3719 525.8131 299.3719Q526.89124 299.3719 527.64124 298.325Q528.39124 297.2625 528.39124 294.09064Q528.39124 290.91876 527.64124 289.8719Q526.89124 288.825 525.7975 288.825Q524.70374 288.825 524.0475 289.7469Q523.235 290.91876 523.235 294.09064ZM531.4381 296.575L531.4381 294.9969L536.2975 294.9969L536.2975 296.575L531.4381 296.575ZM545.8131 290.71564L544.2506 290.84064Q544.03186 289.91876 543.64124 289.4969Q543.0006 288.8094 542.0631 288.8094Q541.3131 288.8094 540.735 289.23126Q539.985 289.77814 539.5475 290.825Q539.1256 291.8719 539.11 293.8094Q539.6881 292.9344 540.5006 292.5125Q541.32874 292.09064 542.235 292.09064Q543.82874 292.09064 544.9381 293.2625Q546.0475 294.41876 546.0475 296.2625Q546.0475 297.48126 545.51624 298.52814Q545.0006 299.5594 544.07874 300.1219Q543.1725 300.66876 542.01624 300.66876Q540.03186 300.66876 538.78186 299.21564Q537.53186 297.7625 537.53186 294.41876Q537.53186 290.6844 538.9225 288.98126Q540.1256 287.5125 542.15686 287.5125Q543.6881 287.5125 544.65686 288.3719Q545.6256 289.21564 545.8131 290.71564ZM539.36 296.27814Q539.36 297.09064 539.70374 297.84064Q540.0475 298.59064 540.6725 298.98126Q541.2975 299.3719 541.985 299.3719Q542.985 299.3719 543.70374 298.5594Q544.4225 297.7469 544.4225 296.35626Q544.4225 295.02814 543.70374 294.2625Q543.0006 293.48126 541.9225 293.48126Q540.84436 293.48126 540.09436 294.2625Q539.36 295.02814 539.36 296.27814ZM547.84436 297.46564L549.36 297.325Q549.5631 298.40314 550.09436 298.8875Q550.64124 299.3719 551.5006 299.3719Q552.235 299.3719 552.78186 299.04376Q553.32874 298.7 553.6725 298.15314Q554.03186 297.59064 554.26624 296.6375Q554.5006 295.6844 554.5006 294.7Q554.5006 294.59064 554.5006 294.3875Q554.01624 295.1375 553.1881 295.60626Q552.3756 296.075 551.4225 296.075Q549.82874 296.075 548.71936 294.91876Q547.61 293.7625 547.61 291.85626Q547.61 289.90314 548.76624 288.71564Q549.9225 287.5125 551.65686 287.5125Q552.9225 287.5125 553.95374 288.2Q555.0006 288.8719 555.53186 290.1219Q556.07874 291.3719 556.07874 293.7469Q556.07874 296.21564 555.53186 297.6844Q555.0006 299.1375 553.9381 299.90314Q552.89124 300.66876 551.46936 300.66876Q549.95374 300.66876 548.985 299.84064Q548.03186 298.9969 547.84436 297.46564ZM554.32874 291.77814Q554.32874 290.41876 553.59436 289.6219Q552.8756 288.825 551.86 288.825Q550.7975 288.825 550.01624 289.6844Q549.235 290.54376 549.235 291.91876Q549.235 293.15314 549.96936 293.91876Q550.71936 294.6844 551.8131 294.6844Q552.90686 294.6844 553.61 293.91876Q554.32874 293.15314 554.32874 291.77814Z" fill-rule="nonzero"/><path fill="#757575" d="M19.940624 35.55L19.940624 22.659374L24.8 22.659374Q26.08125 22.659374 26.753124 22.784374Q27.70625 22.940624 28.346874 23.39375Q28.9875 23.83125 29.378124 24.64375Q29.76875 25.440624 29.76875 26.39375Q29.76875 28.034374 28.721874 29.175Q27.675 30.315624 24.95625 30.315624L21.64375 30.315624L21.64375 35.55L19.940624 35.55ZM21.64375 28.784374L24.971874 28.784374Q26.628124 28.784374 27.315624 28.175Q28.01875 27.565624 28.01875 26.440624Q28.01875 25.628124 27.6125 25.065624Q27.20625 24.4875 26.534374 24.3Q26.096874 24.190624 24.940624 24.190624L21.64375 24.190624L21.64375 28.784374ZM38.128124 32.55L39.76875 32.753124Q39.378124 34.175 38.33125 34.971874Q37.284374 35.76875 35.659374 35.76875Q33.6125 35.76875 32.409374 34.503124Q31.20625 33.2375 31.20625 30.95625Q31.20625 28.6125 32.409374 27.315624Q33.628124 26.003124 35.565624 26.003124Q37.440624 26.003124 38.628124 27.284374Q39.815624 28.55 39.815624 30.8625Q39.815624 31.003124 39.8 31.284374L32.846874 31.284374Q32.925 32.83125 33.70625 33.64375Q34.503124 34.45625 35.659374 34.45625Q36.534374 34.45625 37.14375 34.003124Q37.76875 33.55 38.128124 32.55ZM32.925 29.9875L38.14375 29.9875Q38.034374 28.815624 37.55 28.221874Q36.784374 27.3 35.58125 27.3Q34.503124 27.3 33.753124 28.034374Q33.01875 28.76875 32.925 29.9875ZM41.721874 35.55L41.721874 26.221874L43.14375 26.221874L43.14375 27.628124Q43.690624 26.64375 44.14375 26.33125Q44.6125 26.003124 45.159374 26.003124Q45.971874 26.003124 46.784374 26.51875L46.253124 27.9875Q45.659374 27.64375 45.08125 27.64375Q44.565624 27.64375 44.14375 27.95625Q43.7375 28.26875 43.565624 28.815624Q43.3 29.659374 43.3 30.659374L43.3 35.55L41.721874 35.55ZM53.83125 32.128124L55.378124 32.33125Q55.128124 33.940624 54.08125 34.8625Q53.034374 35.76875 51.503124 35.76875Q49.58125 35.76875 48.409374 34.51875Q47.253124 33.253124 47.253124 30.925Q47.253124 29.409374 47.753124 28.284374Q48.253124 27.14375 49.26875 26.58125Q50.3 26.003124 51.503124 26.003124Q53.034374 26.003124 53.9875 26.784374Q54.95625 27.55 55.2375 28.95625L53.690624 29.190624Q53.471874 28.253124 52.909374 27.784374Q52.3625 27.3 51.565624 27.3Q50.378124 27.3 49.628124 28.159374Q48.878124 29.01875 48.878124 30.878124Q48.878124 32.753124 49.596874 33.6125Q50.315624 34.45625 51.4875 34.45625Q52.409374 34.45625 53.034374 33.89375Q53.659374 33.315624 53.83125 32.128124ZM63.128124 32.55L64.76875 32.753124Q64.37813 34.175 63.33125 34.971874Q62.284374 35.76875 60.659374 35.76875Q58.6125 35.76875 57.409374 34.503124Q56.20625 33.2375 56.20625 30.95625Q56.20625 28.6125 57.409374 27.315624Q58.628124 26.003124 60.565624 26.003124Q62.440624 26.003124 63.628124 27.284374Q64.81563 28.55 64.81563 30.8625Q64.81563 31.003124 64.8 31.284374L57.846874 31.284374Q57.925 32.83125 58.70625 33.64375Q59.503124 34.45625 60.659374 34.45625Q61.534374 34.45625 62.14375 34.003124Q62.76875 33.55 63.128124 32.55ZM57.925 29.9875L63.14375 29.9875Q63.034374 28.815624 62.55 28.221874Q61.784374 27.3 60.58125 27.3Q59.503124 27.3 58.753124 28.034374Q58.01875 28.76875 57.925 29.9875ZM66.7375 35.55L66.7375 26.221874L68.15938 26.221874L68.15938 27.55Q69.19063 26.003124 71.12813 26.003124Q71.97188 26.003124 72.675 26.315624Q73.39375 26.6125 73.7375 27.1125Q74.09688 27.596874 74.2375 28.26875Q74.31563 28.70625 74.31563 29.815624L74.31563 35.55L72.7375 35.55L72.7375 29.878124Q72.7375 28.909374 72.55 28.425Q72.37813 27.940624 71.89375 27.659374Q71.425 27.378124 70.8 27.378124Q69.78438 27.378124 69.05 28.01875Q68.31563 28.659374 68.31563 30.45625L68.31563 35.55L66.7375 35.55ZM80.19063 34.128124L80.425 35.534374Q79.75313 35.675 79.22188 35.675Q78.3625 35.675 77.87813 35.409374Q77.40938 35.128124 77.22188 34.690624Q77.03438 34.2375 77.03438 32.815624L77.03438 27.440624L75.8625 27.440624L75.8625 26.221874L77.03438 26.221874L77.03438 23.909374L78.59688 22.95625L78.59688 26.221874L80.19063 26.221874L80.19063 27.440624L78.59688 27.440624L78.59688 32.909374Q78.59688 33.58125 78.675 33.784374Q78.76875 33.971874 78.95625 34.08125Q79.14375 34.190624 79.50313 34.190624Q79.75313 34.190624 80.19063 34.128124ZM86.14375 30.878124Q86.14375 28.284374 87.59688 27.034374Q88.8 26.003124 90.51875 26.003124Q92.45625 26.003124 93.675 27.26875Q94.89375 28.534374 94.89375 30.753124Q94.89375 32.55 94.34688 33.58125Q93.81563 34.6125 92.78438 35.190624Q91.75313 35.76875 90.51875 35.76875Q88.56563 35.76875 87.34688 34.51875Q86.14375 33.253124 86.14375 30.878124ZM87.76875 30.878124Q87.76875 32.675 88.55 33.565624Q89.33125 34.45625 90.51875 34.45625Q91.70625 34.45625 92.4875 33.565624Q93.26875 32.659374 93.26875 30.83125Q93.26875 29.096874 92.47188 28.20625Q91.69063 27.315624 90.51875 27.315624Q89.33125 27.315624 88.55 28.20625Q87.76875 29.096874 87.76875 30.878124ZM97.1125 35.55L97.1125 27.440624L95.72188 27.440624L95.72188 26.221874L97.1125 26.221874L97.1125 25.221874Q97.1125 24.284374 97.28438 23.83125Q97.50313 23.20625 98.08125 22.83125Q98.65938 22.440624 99.70625 22.440624Q100.3625 22.440624 101.175 22.596874L100.94063 23.9875Q100.44063 23.89375 100.00313 23.89375Q99.28438 23.89375 98.9875 24.20625Q98.69063 24.503124 98.69063 25.346874L98.69063 26.221874L100.50313 26.221874L100.50313 27.440624L98.69063 27.440624L98.69063 35.55L97.1125 35.55ZM116.12813 31.034374L117.83125 31.45625Q117.3 33.565624 115.90938 34.675Q114.51875 35.76875 112.50313 35.76875Q110.425 35.76875 109.1125 34.925Q107.81563 34.065624 107.12813 32.471874Q106.44063 30.8625 106.44063 29.003124Q106.44063 27.003124 107.20625 25.503124Q107.9875 24.003124 109.40938 23.221874Q110.83125 22.440624 112.53438 22.440624Q114.45625 22.440624 115.76875 23.425Q117.09688 24.409374 117.6125 26.190624L115.94063 26.596874Q115.4875 25.190624 114.62813 24.55Q113.78438 23.909374 112.4875 23.909374Q111.00313 23.909374 110.00313 24.628124Q109.01875 25.33125 108.6125 26.534374Q108.20625 27.721874 108.20625 29.003124Q108.20625 30.64375 108.675 31.878124Q109.15938 33.096874 110.175 33.70625Q111.19063 34.315624 112.3625 34.315624Q113.8 34.315624 114.78438 33.4875Q115.78438 32.659374 116.12813 31.034374ZM125.84688 35.55L125.84688 34.175Q124.76875 35.76875 122.89375 35.76875Q122.06563 35.76875 121.34688 35.45625Q120.62813 35.128124 120.28438 34.659374Q119.94063 34.175 119.8 33.471874Q119.70625 33.003124 119.70625 32.003124L119.70625 26.221874L121.28438 26.221874L121.28438 31.39375Q121.28438 32.628124 121.37813 33.065624Q121.53438 33.690624 122.01875 34.05Q122.50313 34.39375 123.20625 34.39375Q123.925 34.39375 124.55 34.034374Q125.175 33.675 125.425 33.05Q125.69063 32.409374 125.69063 31.221874L125.69063 26.221874L127.26875 26.221874L127.26875 35.55L125.84688 35.55ZM129.09688 32.76875L130.675 32.51875Q130.8 33.45625 131.39375 33.95625Q132.00313 34.45625 133.08125 34.45625Q134.175 34.45625 134.70625 34.01875Q135.2375 33.565624 135.2375 32.971874Q135.2375 32.440624 134.76875 32.128124Q134.44063 31.925 133.14375 31.596874Q131.40938 31.159374 130.7375 30.846874Q130.06563 30.51875 129.70625 29.95625Q129.3625 29.378124 129.3625 28.690624Q129.3625 28.065624 129.64375 27.534374Q129.94063 27.003124 130.425 26.659374Q130.8 26.378124 131.44063 26.190624Q132.08125 26.003124 132.8 26.003124Q133.90938 26.003124 134.7375 26.33125Q135.56563 26.64375 135.95625 27.190624Q136.3625 27.721874 136.50313 28.628124L134.95625 28.83125Q134.84688 28.1125 134.34688 27.70625Q133.84688 27.3 132.925 27.3Q131.83125 27.3 131.3625 27.659374Q130.89375 28.01875 130.89375 28.503124Q130.89375 28.815624 131.09688 29.065624Q131.28438 29.315624 131.69063 29.4875Q131.94063 29.565624 133.09688 29.89375Q134.76875 30.33125 135.425 30.628124Q136.09688 30.909374 136.47188 31.45625Q136.8625 32.003124 136.8625 32.8Q136.8625 33.596874 136.39375 34.3Q135.94063 35.003124 135.06563 35.39375Q134.19063 35.76875 133.09688 35.76875Q131.26875 35.76875 130.31563 35.01875Q129.3625 34.253124 129.09688 32.76875ZM142.19063 34.128124L142.425 35.534374Q141.75313 35.675 141.22188 35.675Q140.3625 35.675 139.87813 35.409374Q139.40938 35.128124 139.22188 34.690624Q139.03438 34.2375 139.03438 32.815624L139.03438 27.440624L137.8625 27.440624L137.8625 26.221874L139.03438 26.221874L139.03438 23.909374L140.59688 22.95625L140.59688 26.221874L142.19063 26.221874L142.19063 27.440624L140.59688 27.440624L140.59688 32.909374Q140.59688 33.58125 140.675 33.784374Q140.76875 33.971874 140.95625 34.08125Q141.14375 34.190624 141.50313 34.190624Q141.75313 34.190624 142.19063 34.128124ZM143.14375 30.878124Q143.14375 28.284374 144.59688 27.034374Q145.8 26.003124 147.51875 26.003124Q149.45625 26.003124 150.675 27.26875Q151.89375 28.534374 151.89375 30.753124Q151.89375 32.55 151.34688 33.58125Q150.81563 34.6125 149.78438 35.190624Q148.75313 35.76875 147.51875 35.76875Q145.56563 35.76875 144.34688 34.51875Q143.14375 33.253124 143.14375 30.878124ZM144.76875 30.878124Q144.76875 32.675 145.55 33.565624Q146.33125 34.45625 147.51875 34.45625Q148.70625 34.45625 149.4875 33.565624Q150.26875 32.659374 150.26875 30.83125Q150.26875 29.096874 149.47188 28.20625Q148.69063 27.315624 147.51875 27.315624Q146.33125 27.315624 145.55 28.20625Q144.76875 29.096874 144.76875 30.878124ZM153.7375 35.55L153.7375 26.221874L155.15938 26.221874L155.15938 27.51875Q155.59688 26.846874 156.31563 26.425Q157.05 26.003124 157.9875 26.003124Q159.01875 26.003124 159.675 26.440624Q160.34688 26.8625 160.6125 27.64375Q161.72188 26.003124 163.50313 26.003124Q164.89375 26.003124 165.62813 26.784374Q166.37813 27.55 166.37813 29.14375L166.37813 35.55L164.81563 35.55L164.81563 29.675Q164.81563 28.721874 164.65938 28.3Q164.50313 27.878124 164.09688 27.628124Q163.69063 27.378124 163.14375 27.378124Q162.15938 27.378124 161.50313 28.034374Q160.8625 28.690624 160.8625 30.128124L160.8625 35.55L159.28438 35.55L159.28438 29.4875Q159.28438 28.425 158.89375 27.909374Q158.50313 27.378124 157.62813 27.378124Q156.95625 27.378124 156.39375 27.7375Q155.83125 28.08125 155.56563 28.753124Q155.31563 29.425 155.31563 30.70625L155.31563 35.55L153.7375 35.55ZM175.12813 32.55L176.76875 32.753124Q176.37813 34.175 175.33125 34.971874Q174.28438 35.76875 172.65938 35.76875Q170.6125 35.76875 169.40938 34.503124Q168.20625 33.2375 168.20625 30.95625Q168.20625 28.6125 169.40938 27.315624Q170.62813 26.003124 172.56563 26.003124Q174.44063 26.003124 175.62813 27.284374Q176.81563 28.55 176.81563 30.8625Q176.81563 31.003124 176.8 31.284374L169.84688 31.284374Q169.925 32.83125 170.70625 33.64375Q171.50313 34.45625 172.65938 34.45625Q173.53438 34.45625 174.14375 34.003124Q174.76875 33.55 175.12813 32.55ZM169.925 29.9875L175.14375 29.9875Q175.03438 28.815624 174.55 28.221874Q173.78438 27.3 172.58125 27.3Q171.50313 27.3 170.75313 28.034374Q170.01875 28.76875 169.925 29.9875ZM178.72188 35.55L178.72188 26.221874L180.14375 26.221874L180.14375 27.628124Q180.69063 26.64375 181.14375 26.33125Q181.6125 26.003124 182.15938 26.003124Q182.97188 26.003124 183.78438 26.51875L183.25313 27.9875Q182.65938 27.64375 182.08125 27.64375Q181.56563 27.64375 181.14375 27.95625Q180.7375 28.26875 180.56563 28.815624Q180.3 29.659374 180.3 30.659374L180.3 35.55L178.72188 35.55ZM184.09688 32.76875L185.675 32.51875Q185.8 33.45625 186.39375 33.95625Q187.00313 34.45625 188.08125 34.45625Q189.175 34.45625 189.70625 34.01875Q190.2375 33.565624 190.2375 32.971874Q190.2375 32.440624 189.76875 32.128124Q189.44063 31.925 188.14375 31.596874Q186.40938 31.159374 185.7375 30.846874Q185.06563 30.51875 184.70625 29.95625Q184.3625 29.378124 184.3625 28.690624Q184.3625 28.065624 184.64375 27.534374Q184.94063 27.003124 185.425 26.659374Q185.8 26.378124 186.44063 26.190624Q187.08125 26.003124 187.8 26.003124Q188.90938 26.003124 189.7375 26.33125Q190.56563 26.64375 190.95625 27.190624Q191.3625 27.721874 191.50313 28.628124L189.95625 28.83125Q189.84688 28.1125 189.34688 27.70625Q188.84688 27.3 187.925 27.3Q186.83125 27.3 186.3625 27.659374Q185.89375 28.01875 185.89375 28.503124Q185.89375 28.815624 186.09688 29.065624Q186.28438 29.315624 186.69063 29.4875Q186.94063 29.565624 188.09688 29.89375Q189.76875 30.33125 190.425 30.628124Q191.09688 30.909374 191.47188 31.45625Q191.8625 32.003124 191.8625 32.8Q191.8625 33.596874 191.39375 34.3Q190.94063 35.003124 190.06563 35.39375Q189.19063 35.76875 188.09688 35.76875Q186.26875 35.76875 185.31563 35.01875Q184.3625 34.253124 184.09688 32.76875ZM201.33125 35.55L197.78438 26.221874L199.45625 26.221874L201.45625 31.8Q201.78438 32.70625 202.05 33.690624Q202.26875 32.940624 202.64375 31.909374L204.70625 26.221874L206.34688 26.221874L202.8 35.55L201.33125 35.55ZM207.09688 32.76875L208.675 32.51875Q208.8 33.45625 209.39375 33.95625Q210.00313 34.45625 211.08125 34.45625Q212.175 34.45625 212.70625 34.01875Q213.2375 33.565624 213.2375 32.971874Q213.2375 32.440624 212.76875 32.128124Q212.44063 31.925 211.14375 31.596874Q209.40938 31.159374 208.7375 30.846874Q208.06563 30.51875 207.70625 29.95625Q207.3625 29.378124 207.3625 28.690624Q207.3625 28.065624 207.64375 27.534374Q207.94063 27.003124 208.425 26.659374Q208.8 26.378124 209.44063 26.190624Q210.08125 26.003124 210.8 26.003124Q211.90938 26.003124 212.7375 26.33125Q213.56563 26.64375 213.95625 27.190624Q214.3625 27.721874 214.50313 28.628124L212.95625 28.83125Q212.84688 28.1125 212.34688 27.70625Q211.84688 27.3 210.925 27.3Q209.83125 27.3 209.3625 27.659374Q208.89375 28.01875 208.89375 28.503124Q208.89375 28.815624 209.09688 29.065624Q209.28438 29.315624 209.69063 29.4875Q209.94063 29.565624 211.09688 29.89375Q212.76875 30.33125 213.425 30.628124Q214.09688 30.909374 214.47188 31.45625Q214.8625 32.003124 214.8625 32.8Q214.8625 33.596874 214.39375 34.3Q213.94063 35.003124 213.06563 35.39375Q212.19063 35.76875 211.09688 35.76875Q209.26875 35.76875 208.31563 35.01875Q207.3625 34.253124 207.09688 32.76875ZM217.19063 35.55L217.19063 33.753124L218.9875 33.753124L218.9875 35.55L217.19063 35.55ZM225.51875 35.55L230.47188 22.659374L232.31563 22.659374L237.58125 35.55L235.64375 35.55L234.14375 31.64375L228.75313 31.64375L227.33125 35.55L225.51875 35.55ZM229.2375 30.253124L233.6125 30.253124L232.26875 26.690624Q231.64375 25.065624 231.34688 24.01875Q231.1125 25.253124 230.65938 26.471874L229.2375 30.253124ZM238.44063 36.33125L239.9875 36.55Q240.08125 37.26875 240.51875 37.596874Q241.1125 38.034374 242.12813 38.034374Q243.22188 38.034374 243.81563 37.58125Q244.425 37.14375 244.62813 36.3625Q244.75313 35.878124 244.75313 34.33125Q243.70625 35.55 242.15938 35.55Q240.2375 35.55 239.175 34.159374Q238.12813 32.76875 238.12813 30.83125Q238.12813 29.4875 238.6125 28.3625Q239.09688 27.2375 240.01875 26.628124Q240.94063 26.003124 242.175 26.003124Q243.83125 26.003124 244.89375 27.346874L244.89375 26.221874L246.3625 26.221874L246.3625 34.284374Q246.3625 36.471874 245.90938 37.378124Q245.47188 38.284374 244.50313 38.8Q243.55 39.33125 242.14375 39.33125Q240.47188 39.33125 239.44063 38.58125Q238.40938 37.83125 238.44063 36.33125ZM239.75313 30.721874Q239.75313 32.55 240.4875 33.39375Q241.22188 34.2375 242.31563 34.2375Q243.40938 34.2375 244.14375 33.409374Q244.87813 32.565624 244.87813 30.76875Q244.87813 29.05 244.1125 28.190624Q243.3625 27.315624 242.28438 27.315624Q241.2375 27.315624 240.4875 28.175Q239.75313 29.034374 239.75313 30.721874ZM255.12813 32.55L256.76874 32.753124Q256.3781 34.175 255.33125 34.971874Q254.28438 35.76875 252.65938 35.76875Q250.6125 35.76875 249.40938 34.503124Q248.20625 33.2375 248.20625 30.95625Q248.20625 28.6125 249.40938 27.315624Q250.62813 26.003124 252.56563 26.003124Q254.44063 26.003124 255.62813 27.284374Q256.8156 28.55 256.8156 30.8625Q256.8156 31.003124 256.8 31.284374L249.84688 31.284374Q249.925 32.83125 250.70625 33.64375Q251.50313 34.45625 252.65938 34.45625Q253.53438 34.45625 254.14375 34.003124Q254.76875 33.55 255.12813 32.55ZM249.925 29.9875L255.14375 29.9875Q255.03438 28.815624 254.55 28.221874Q253.78438 27.3 252.58125 27.3Q251.50313 27.3 250.75313 28.034374Q250.01875 28.76875 249.925 29.9875Z" fill-rule="nonzero"/></svg>