<?xml version="1.0" standalone="no" ?>
<!DOCTYPE svg PUBLIC "-//W3C//DTD SVG 1.1//EN" "http://www.w3.org/Graphics/SVG/1.1/DTD/svg11.dtd">
<svg width="95px" height="46px" viewBox="0 0 95 46" style="background-color: #ffffff00" xmlns="http://www.w3.org/2000/svg" xmlns:xlink="http://www.w3.org/1999/xlink" version="1.1" >
<text x="0" y="0" stroke="transparent" fill="#000000" transform="matrix(0.05 0 0 0.05 2.6979 26.135)" style="font:normal normal normal 200px 'Helvetica'" >
S</text>
<text x="0" y="0" stroke="transparent" fill="#000000" transform="matrix(0.05 0 0 0.05 17.7463 34.6084)" style="font:normal normal normal 200px 'Helvetica'" >
F</text>
<path stroke="transparent" fill="#000000" transform="matrix(0.05 0 0 0.05 -131 -158)" d="M 2947.15,3701.01 L 2917.14,3752.97 L 2819.58,3668.92 L 2825.6,3658.5 L 2947.15,3701.01 Z " />
<text x="0" y="0" stroke="transparent" fill="#000000" transform="matrix(0.05 0 0 0.05 19.4634 21.7302)" style="font:normal normal normal 200px 'Helvetica'" >
F</text>
<path stroke="transparent" fill="#000000" transform="matrix(0.05 0 0 0.05 -131 -158)" d="M 2960.47,3518.3 L 2976.05,3576.24 L 2963.94,3577.54 L 2949.35,3523.26 L 2960.47,3518.3 Z " />
<path stroke="transparent" fill="#000000" transform="matrix(0.05 0 0 0.05 -131 -158)" d="M 2917.29,3537.53 L 2929.04,3581.25 L 2916.93,3582.55 L 2906.16,3542.49 L 2917.29,3537.53 Z " />
<path stroke="transparent" fill="#000000" transform="matrix(0.05 0 0 0.05 -131 -158)" d="M 2874.11,3556.76 L 2882.04,3586.27 L 2869.93,3587.56 L 2862.98,3561.72 L 2874.11,3556.76 Z " />
<path stroke="transparent" fill="#000000" transform="matrix(0.05 0 0 0.05 -131 -158)" d="M 2830.92,3575.99 L 2835.03,3591.28 L 2822.92,3592.57 L 2819.8,3580.95 L 2830.92,3575.99 Z " />
<text x="0" y="0" stroke="transparent" fill="#000000" transform="matrix(0.05 0 0 0.05 3.07631 9.18798)" style="font:normal normal normal 200px 'Helvetica'" >
F</text>
<path stroke="transparent" fill="#000000" transform="matrix(0.05 0 0 0.05 -131 -158)" d="M 2725.27,3375.33 L 2737.3,3375.33 L 2737.3,3505.26 L 2725.27,3505.26 L 2725.27,3375.33 Z " />
<text x="0" y="0" stroke="transparent" fill="#000000" transform="matrix(0.05 0 0 0.05 3.07631 43.0819)" style="font:normal normal normal 200px 'Helvetica'" >
F</text>
<path stroke="transparent" fill="#000000" transform="matrix(0.05 0 0 0.05 -131 -158)" d="M 2737.3,3845.15 L 2725.27,3845.15 L 2725.27,3721.32 L 2737.3,3721.32 L 2737.3,3845.15 Z " />
<text x="0" y="0" stroke="transparent" fill="#000000" transform="matrix(0.05 0 0 0.05 70.3462 20.9866)" style="font:normal normal normal 200px 'Helvetica'" >
S</text>
<text x="0" y="0" stroke="transparent" fill="#000000" transform="matrix(0.05 0 0 0.05 62.2512 35.6565)" style="font:normal normal normal 200px 'Helvetica'" >
F</text>
<path stroke="transparent" fill="#000000" transform="matrix(0.05 0 0 0.05 -131 -158)" d="M 4002.04,3710.31 L 3950.08,3680.3 L 4023.73,3600.76 L 4034.14,3606.78 L 4002.04,3710.31 Z " />
<text x="0" y="0" stroke="transparent" fill="#000000" transform="matrix(0.05 0 0 0.05 75.1294 37.3736)" style="font:normal normal normal 200px 'Helvetica'" >
F</text>
<path stroke="transparent" fill="#000000" transform="matrix(0.05 0 0 0.05 -131 -158)" d="M 4171.8,3718.17 L 4113.86,3733.74 L 4113.17,3721.47 L 4166.25,3707.2 L 4171.8,3718.17 Z " />
<path stroke="transparent" fill="#000000" transform="matrix(0.05 0 0 0.05 -131 -158)" d="M 4148.1,3671.34 L 4110.89,3681.34 L 4110.2,3669.07 L 4142.55,3660.38 L 4148.1,3671.34 Z " />
<path stroke="transparent" fill="#000000" transform="matrix(0.05 0 0 0.05 -131 -158)" d="M 4124.4,3624.52 L 4107.93,3628.95 L 4107.23,3616.68 L 4118.85,3613.55 L 4124.4,3624.52 Z " />
<text x="0" y="0" stroke="transparent" fill="#000000" transform="matrix(0.05 0 0 0.05 87.6716 20.9866)" style="font:normal normal normal 200px 'Helvetica'" >
F</text>
<path stroke="transparent" fill="#000000" transform="matrix(0.05 0 0 0.05 -131 -158)" d="M 4346.16,3501.99 L 4346.16,3514.02 L 4173.96,3514.02 L 4173.96,3501.99 L 4346.16,3501.99 Z " />
<text x="0" y="0" stroke="transparent" fill="#000000" transform="matrix(0.05 0 0 0.05 53.7777 20.9866)" style="font:normal normal normal 200px 'Helvetica'" >
F</text>
<path stroke="transparent" fill="#000000" transform="matrix(0.05 0 0 0.05 -131 -158)" d="M 3832.35,3514.02 L 3832.35,3501.99 L 3994.89,3501.99 L 3994.89,3514.02 L 3832.35,3514.02 Z " />
</svg>
