<svg version="1.1" viewBox="0.0 0.0 548.2545931758531 190.65616797900262" fill="none" stroke="none" stroke-linecap="square" stroke-miterlimit="10" xmlns:xlink="http://www.w3.org/1999/xlink" xmlns="http://www.w3.org/2000/svg"><clipPath id="p.0"><path d="m0 0l548.2546 0l0 190.65617l-548.2546 0l0 -190.65617z" clip-rule="nonzero"/></clipPath><g clip-path="url(#p.0)"><path fill="#000000" fill-opacity="0.0" d="m0 0l548.2546 0l0 190.65617l-548.2546 0z" fill-rule="evenodd"/><path fill="#000000" fill-opacity="0.0" d="m258.83688 40.1311l-12.661407 18.897636" fill-rule="evenodd"/><path stroke="#000000" stroke-width="1.0" stroke-linejoin="round" stroke-linecap="butt" d="m258.83688 40.1311l-12.661407 18.897636" fill-rule="evenodd"/><path fill="#000000" fill-opacity="0.0" d="m215.59279 89.48018l-12.661407 12.598427" fill-rule="evenodd"/><path stroke="#000000" stroke-width="1.0" stroke-linejoin="round" stroke-linecap="butt" d="m215.59279 89.48018l-12.661407 12.598427" fill-rule="evenodd"/><path fill="#000000" fill-opacity="0.0" d="m172.34738 132.5353l-12.566925 16.850403" fill-rule="evenodd"/><path stroke="#000000" stroke-width="1.0" stroke-linejoin="round" stroke-linecap="butt" d="m172.34738 132.5353l-12.566925 16.850403" fill-rule="evenodd"/><path fill="#dbf0f5" d="m252.50394 24.908815l0 0c0 -11.889342 9.680511 -21.527557 21.62204 -21.527557l0 0c5.7345276 0 11.234192 2.2680755 15.289093 6.305276c4.0549316 4.037201 6.332947 9.512819 6.332947 15.222282l0 0c0 11.889341 -9.680511 21.52756 -21.62204 21.52756l0 0c-11.941528 0 -21.62204 -9.638218 -21.62204 -21.52756z" fill-rule="evenodd"/><path fill="#000000" d="m275.81607 29.988815l-2.015625 0l0 -7.578125q-1.09375 1.03125 -2.59375 1.53125l0 -1.828125q0.796875 -0.265625 1.71875 -0.984375q0.921875 -0.71875 1.265625 -1.671875l1.625 0l0 10.53125z" fill-rule="nonzero"/><path fill="#dbf0f5" d="m209.25984 74.2579l0 0c0 -11.889343 9.680527 -21.527557 21.622055 -21.527557l0 0c5.7345123 0 11.234161 2.268074 15.289093 6.305275c4.0549164 4.037201 6.332947 9.512817 6.332947 15.222282l0 0c0 11.889343 -9.680527 21.527557 -21.62204 21.527557l0 0c-11.941528 0 -21.622055 -9.638214 -21.622055 -21.527557z" fill-rule="evenodd"/><path fill="#000000" d="m234.21259 77.4629l0 1.875l-7.046875 0q0.125 -1.0625 0.6875 -2.0q0.578125 -0.953125 2.265625 -2.515625q1.359375 -1.28125 1.671875 -1.71875q0.40625 -0.625 0.40625 -1.234375q0 -0.671875 -0.359375 -1.03125q-0.359375 -0.359375 -1.0 -0.359375q-0.625 0 -1.0 0.375q-0.375 0.375 -0.421875 1.25l-2.015625 -0.1875q0.1875 -1.671875 1.125 -2.390625q0.953125 -0.71875 2.375 -0.71875q1.546875 0 2.421875 0.84375q0.890625 0.828125 0.890625 2.078125q0 0.703125 -0.25 1.34375q-0.25 0.640625 -0.796875 1.34375q-0.375 0.46875 -1.328125 1.34375q-0.9375 0.859375 -1.203125 1.15625q-0.25 0.28125 -0.40625 0.546875l3.984375 0z" fill-rule="nonzero"/><path fill="#dbf0f5" d="m166.01443 117.31302l0 0c0 -11.889343 9.680527 -21.527565 21.622055 -21.527565l0 0c5.7345123 0 11.234161 2.2680817 15.289093 6.305275c4.0549164 4.037201 6.332947 9.512825 6.332947 15.22229l0 0c0 11.889343 -9.680527 21.527557 -21.62204 21.527557l0 0c-11.941528 0 -21.622055 -9.638214 -21.622055 -21.527557z" fill-rule="evenodd"/><path fill="#000000" d="m184.1078 119.61176l1.953125 -0.234375q0.09375 0.734375 0.5 1.140625q0.40625 0.390625 0.984375 0.390625q0.625 0 1.046875 -0.46875q0.421875 -0.484375 0.421875 -1.28125q0 -0.765625 -0.40625 -1.203125q-0.40625 -0.4375 -0.984375 -0.4375q-0.390625 0 -0.921875 0.140625l0.21875 -1.640625q0.8125 0.03125 1.234375 -0.34375q0.4375 -0.375 0.4375 -1.0q0 -0.53125 -0.3125 -0.84375q-0.3125 -0.3125 -0.84375 -0.3125q-0.515625 0 -0.875 0.359375q-0.359375 0.34375 -0.4375 1.03125l-1.859375 -0.3125q0.1875 -0.953125 0.578125 -1.515625q0.390625 -0.578125 1.078125 -0.890625q0.703125 -0.328125 1.578125 -0.328125q1.484375 0 2.375 0.9375q0.734375 0.78125 0.734375 1.75q0 1.375 -1.515625 2.203125q0.90625 0.1875 1.4375 0.875q0.546875 0.671875 0.546875 1.609375q0 1.390625 -1.015625 2.359375q-1.0 0.96875 -2.5 0.96875q-1.421875 0 -2.359375 -0.8125q-0.9375 -0.8125 -1.09375 -2.140625z" fill-rule="nonzero"/><path fill="#dbf0f5" d="m122.87139 164.62273l0 0c0 -11.889343 9.680519 -21.527557 21.622047 -21.527557l0 0c5.7345276 0 11.234177 2.2680817 15.289093 6.3052673c4.0549164 4.037201 6.332947 9.512833 6.332947 15.22229l0 0c0 11.889343 -9.680511 21.527557 -21.62204 21.527557l0 0c-11.941528 0 -21.622047 -9.638214 -21.622047 -21.527557z" fill-rule="evenodd"/><path fill="#000000" d="m146.18352 169.70273l-2.015625 0l0 -7.578125q-1.09375 1.03125 -2.59375 1.53125l0 -1.828125q0.796875 -0.265625 1.71875 -0.984375q0.921875 -0.71875 1.265625 -1.671875l1.625 0l0 10.53125z" fill-rule="nonzero"/></g></svg>