<?xml version="1.0" standalone="no" ?>
<!DOCTYPE svg PUBLIC "-//W3C//DTD SVG 1.1//EN" "http://www.w3.org/Graphics/SVG/1.1/DTD/svg11.dtd">
<svg width="44px" height="49px" viewBox="0 0 44 49" style="background-color: #ffffff00" xmlns="http://www.w3.org/2000/svg" xmlns:xlink="http://www.w3.org/1999/xlink" version="1.1" >
<text x="0" y="0" stroke="transparent" fill="#000000" transform="matrix(0.05 0 0 0.05 19.9678 30.9829)" style="font:normal normal normal 200px 'Helvetica'" >
S</text>
<text x="0" y="0" stroke="transparent" fill="#000000" transform="matrix(0.05 0 0 0.05 10.1673 41.1618)" style="font:normal normal normal 200px 'Helvetica'" >
F</text>
<path stroke="transparent" fill="#000000" transform="matrix(0.05 0 0 0.05 -70 -60)" d="M 1743.87,1869.24 L 1735.37,1860.74 L 1776.43,1819.67 L 1784.94,1828.18 L 1743.87,1869.24 Z " />
<text x="0" y="0" stroke="transparent" fill="#000000" transform="matrix(0.05 0 0 0.05 32.8149 38.1821)" style="font:normal normal normal 200px 'Helvetica'" >
F</text>
<path stroke="transparent" fill="#000000" transform="matrix(0.05 0 0 0.05 -70 -60)" d="M 2017.38,1833.77 L 2011.37,1844.19 L 1943.39,1804.94 L 1949.41,1794.52 L 2017.38,1833.77 Z " />
<text x="0" y="0" stroke="transparent" fill="#000000" transform="matrix(0.05 0 0 0.05 30.5351 20.804)" style="font:normal normal normal 200px 'Helvetica'" >
F</text>
<path stroke="transparent" fill="#000000" transform="matrix(0.05 0 0 0.05 -70 -60)" d="M 1975.39,1620.83 L 1983.89,1629.34 L 1934.77,1678.42 L 1926.27,1669.91 L 1975.39,1620.83 Z " />
<text x="0" y="0" stroke="transparent" fill="#000000" transform="matrix(0.05 0 0 0.05 7.88757 23.7836)" style="font:normal normal normal 200px 'Helvetica'" >
F</text>
<path stroke="transparent" fill="#000000" transform="matrix(0.05 0 0 0.05 -70 -60)" d="M 1669.44,1646.68 L 1675.46,1636.26 L 1772.29,1692.22 L 1766.27,1702.64 L 1669.44,1646.68 Z " />
<path stroke="transparent" fill="#ffffff" transform="matrix(0.05 0 0 0.05 -70 -60)" d="M 1830.08,1609.74 C 1776.09,1609.74 1729.44,1433.51 1729.44,1379.08 C 1729.44,1312.56 1743.69,1264.18 1830.08,1264.18 C 1916.47,1264.18 1930.72,1312.56 1930.72,1379.08 C 1930.72,1433.51 1884.08,1609.74 1830.08,1609.74 " />
<path stroke="#ffffff" stroke-width="1" fill="transparent" transform="matrix(0.05 0 0 0.05 -70 -60)" d="M 1830.08,1609.74 C 1776.09,1609.74 1729.44,1433.51 1729.44,1379.08 C 1729.44,1312.56 1743.69,1264.18 1830.08,1264.18 C 1916.47,1264.18 1930.72,1312.56 1930.72,1379.08 C 1930.72,1433.51 1884.08,1609.74 1830.08,1609.74 " />
<path stroke="#000000" stroke-width="12" fill="transparent" transform="matrix(0.05 0 0 0.05 -70 -60)" d="M 1830.08,1609.74 C 1776.09,1609.74 1729.44,1433.51 1729.44,1379.08 C 1729.44,1312.56 1743.69,1264.18 1830.08,1264.18 C 1916.47,1264.18 1930.72,1312.56 1930.72,1379.08 C 1930.72,1433.51 1884.08,1609.74 1830.08,1609.74 " />
<path stroke="transparent" fill="#000000" transform="matrix(0.05 0 0 0.05 -70 -60)" d="M 1775.78,1349.77 A 16.7111,16.7111 0 1 0 1809.2,1349.77A 16.7111,16.7111 0 1 0 1775.78,1349.77Z " />
<path stroke="transparent" fill="#000000" transform="matrix(0.05 0 0 0.05 -70 -60)" d="M 1850.98,1349.77 A 16.7111,16.7111 0 1 0 1884.4,1349.77A 16.7111,16.7111 0 1 0 1850.98,1349.77Z " />
<path stroke="transparent" fill="#000000" transform="matrix(0.05 0 0 0.05 -70 -60)" d="M 1629.27,1474.76 A 16.6294,16.6294 0 1 0 1662.53,1474.76A 16.6294,16.6294 0 1 0 1629.27,1474.76Z " />
<path stroke="transparent" fill="#000000" transform="matrix(0.05 0 0 0.05 -70 -60)" d="M 1554.47,1476.96 A 16.6294,16.6294 0 1 0 1587.73,1476.96A 16.6294,16.6294 0 1 0 1554.47,1476.96Z " />
<path stroke="transparent" fill="#000000" transform="matrix(0.05 0 0 0.05 -70 -60)" d="M 1471.46,1519.95 A 16.6584,16.6584 0 1 0 1504.78,1519.95A 16.6584,16.6584 0 1 0 1471.46,1519.95Z " />
<path stroke="transparent" fill="#000000" transform="matrix(0.05 0 0 0.05 -70 -60)" d="M 1449.26,1591.55 A 16.6584,16.6584 0 1 0 1482.58,1591.55A 16.6584,16.6584 0 1 0 1449.26,1591.55Z " />
<path stroke="transparent" fill="#000000" transform="matrix(0.05 0 0 0.05 -70 -60)" d="M 1474.02,1661.94 A 16.6961,16.6961 0 1 0 1507.42,1661.94A 16.6961,16.6961 0 1 0 1474.02,1661.94Z " />
<path stroke="transparent" fill="#000000" transform="matrix(0.05 0 0 0.05 -70 -60)" d="M 1522.02,1719.74 A 16.6961,16.6961 0 1 0 1555.42,1719.74A 16.6961,16.6961 0 1 0 1522.02,1719.74Z " />
<path stroke="transparent" fill="#000000" transform="matrix(0.05 0 0 0.05 -70 -60)" d="M 1516.25,1882.31 A 16.6688,16.6688 0 1 0 1549.58,1882.31A 16.6688,16.6688 0 1 0 1516.25,1882.31Z " />
<path stroke="transparent" fill="#000000" transform="matrix(0.05 0 0 0.05 -70 -60)" d="M 1510.65,1957.11 A 16.6688,16.6688 0 1 0 1543.98,1957.11A 16.6688,16.6688 0 1 0 1510.65,1957.11Z " />
<path stroke="transparent" fill="#000000" transform="matrix(0.05 0 0 0.05 -70 -60)" d="M 1567.06,2100.49 A 16.6543,16.6543 0 1 0 1600.36,2100.49A 16.6543,16.6543 0 1 0 1567.06,2100.49Z " />
<path stroke="transparent" fill="#000000" transform="matrix(0.05 0 0 0.05 -70 -60)" d="M 1639.86,2118.29 A 16.6543,16.6543 0 1 0 1673.16,2118.29A 16.6543,16.6543 0 1 0 1639.86,2118.29Z " />
<path stroke="transparent" fill="#000000" transform="matrix(0.05 0 0 0.05 -70 -60)" d="M 1766.03,2068.89 A 16.6621,16.6621 0 1 0 1799.35,2068.89A 16.6621,16.6621 0 1 0 1766.03,2068.89Z " />
<path stroke="transparent" fill="#000000" transform="matrix(0.05 0 0 0.05 -70 -60)" d="M 1804.43,2004.49 A 16.6621,16.6621 0 1 0 1837.75,2004.49A 16.6621,16.6621 0 1 0 1804.43,2004.49Z " />
<path stroke="transparent" fill="#000000" transform="matrix(0.05 0 0 0.05 -70 -60)" d="M 2026.41,2013.1 A 16.6482,16.6482 0 1 0 2059.71,2013.1A 16.6482,16.6482 0 1 0 2026.41,2013.1Z " />
<path stroke="transparent" fill="#000000" transform="matrix(0.05 0 0 0.05 -70 -60)" d="M 2099.81,2028.1 A 16.6482,16.6482 0 1 0 2133.11,2028.1A 16.6482,16.6482 0 1 0 2099.81,2028.1Z " />
<path stroke="transparent" fill="#000000" transform="matrix(0.05 0 0 0.05 -70 -60)" d="M 2174.2,1968.5 A 16.6468,16.6468 0 1 0 2207.49,1968.5A 16.6468,16.6468 0 1 0 2174.2,1968.5Z " />
<path stroke="transparent" fill="#000000" transform="matrix(0.05 0 0 0.05 -70 -60)" d="M 2202.4,1899.1 A 16.6468,16.6468 0 1 0 2235.69,1899.1A 16.6468,16.6468 0 1 0 2202.4,1899.1Z " />
<path stroke="transparent" fill="#000000" transform="matrix(0.05 0 0 0.05 -70 -60)" d="M 2196.18,1800.92 A 16.6655,16.6655 0 1 0 2229.51,1800.92A 16.6655,16.6655 0 1 0 2196.18,1800.92Z " />
<path stroke="transparent" fill="#000000" transform="matrix(0.05 0 0 0.05 -70 -60)" d="M 2146.98,1744.32 A 16.6655,16.6655 0 1 0 2180.31,1744.32A 16.6655,16.6655 0 1 0 2146.98,1744.32Z " />
<path stroke="transparent" fill="#000000" transform="matrix(0.05 0 0 0.05 -70 -60)" d="M 2052.17,1391.97 A 16.6907,16.6907 0 1 0 2085.55,1391.97A 16.6907,16.6907 0 1 0 2052.17,1391.97Z " />
<path stroke="transparent" fill="#000000" transform="matrix(0.05 0 0 0.05 -70 -60)" d="M 1977.37,1398.77 A 16.6907,16.6907 0 1 0 2010.75,1398.77A 16.6907,16.6907 0 1 0 1977.37,1398.77Z " />
<path stroke="transparent" fill="#000000" transform="matrix(0.05 0 0 0.05 -70 -60)" d="M 2177.36,1478.76 A 16.6833,16.6833 0 1 0 2210.73,1478.76A 16.6833,16.6833 0 1 0 2177.36,1478.76Z " />
<path stroke="transparent" fill="#000000" transform="matrix(0.05 0 0 0.05 -70 -60)" d="M 2134.16,1417.36 A 16.6833,16.6833 0 1 0 2167.53,1417.36A 16.6833,16.6833 0 1 0 2134.16,1417.36Z " />
<path stroke="transparent" fill="#000000" transform="matrix(0.05 0 0 0.05 -70 -60)" d="M 2122.17,1630.14 A 16.6778,16.6778 0 1 0 2155.53,1630.14A 16.6778,16.6778 0 1 0 2122.17,1630.14Z " />
<path stroke="transparent" fill="#000000" transform="matrix(0.05 0 0 0.05 -70 -60)" d="M 2154.77,1562.54 A 16.6778,16.6778 0 1 0 2188.13,1562.54A 16.6778,16.6778 0 1 0 2154.77,1562.54Z " />
</svg>
