<?xml version="1.0" standalone="no" ?>
<!DOCTYPE svg PUBLIC "-//W3C//DTD SVG 1.1//EN" "http://www.w3.org/Graphics/SVG/1.1/DTD/svg11.dtd">
<svg width="57px" height="60px" viewBox="0 0 57 60" style="background-color: #ffffff00" xmlns="http://www.w3.org/2000/svg" xmlns:xlink="http://www.w3.org/1999/xlink" version="1.1" >
<text x="0" y="0" stroke="transparent" fill="#000000" transform="matrix(0.05 0 0 0.05 26.079 33.9821)" style="font:normal normal normal 200px 'Helvetica'" >
S</text>
<text x="0" y="0" stroke="transparent" fill="#000000" transform="matrix(0.05 0 0 0.05 43.1656 45.1309)" style="font:normal normal normal 200px 'Helvetica'" >
F</text>
<path stroke="transparent" fill="#000000" transform="matrix(0.05 0 0 0.05 -100 -102)" d="M 2838.36,2784.98 L 2805.06,2834.89 L 2664.43,2712.21 L 2671.11,2702.21 L 2838.36,2784.98 Z " />
<text x="0" y="0" stroke="transparent" fill="#000000" transform="matrix(0.05 0 0 0.05 45.1254 26.9629)" style="font:normal normal normal 200px 'Helvetica'" >
F</text>
<path stroke="transparent" fill="#000000" transform="matrix(0.05 0 0 0.05 -100 -102)" d="M 2848.82,2514.37 L 2869.94,2570.53 L 2858.18,2573.44 L 2838.06,2519.93 L 2848.82,2514.37 Z " />
<path stroke="transparent" fill="#000000" transform="matrix(0.05 0 0 0.05 -100 -102)" d="M 2791.65,2543.91 L 2807.47,2585.98 L 2795.71,2588.89 L 2780.89,2549.47 L 2791.65,2543.91 Z " />
<path stroke="transparent" fill="#000000" transform="matrix(0.05 0 0 0.05 -100 -102)" d="M 2734.48,2573.44 L 2745.01,2601.44 L 2733.25,2604.34 L 2723.72,2579 L 2734.48,2573.44 Z " />
<path stroke="transparent" fill="#000000" transform="matrix(0.05 0 0 0.05 -100 -102)" d="M 2677.31,2602.97 L 2682.54,2616.89 L 2670.78,2619.79 L 2666.55,2608.53 L 2677.31,2602.97 Z " />
<text x="0" y="0" stroke="transparent" fill="#000000" transform="matrix(0.05 0 0 0.05 26.4574 14.6742)" style="font:normal normal normal 200px 'Helvetica'" >
F</text>
<path stroke="transparent" fill="#000000" transform="matrix(0.05 0 0 0.05 -100 -102)" d="M 2572.89,2365.06 L 2584.92,2365.06 L 2584.92,2542.2 L 2572.89,2542.2 L 2572.89,2365.06 Z " />
<text x="0" y="0" stroke="transparent" fill="#000000" transform="matrix(0.05 0 0 0.05 26.4574 53.29)" style="font:normal normal normal 200px 'Helvetica'" >
F</text>
<path stroke="transparent" fill="#000000" transform="matrix(0.05 0 0 0.05 -100 -102)" d="M 2584.92,2929.31 L 2572.89,2929.31 L 2572.89,2758.26 L 2584.92,2758.26 L 2584.92,2929.31 Z " />
<path stroke="transparent" fill="#000000" transform="matrix(0.05 0 0 0.05 -100 -102)" d="M 2453.88,2203.36 A 16.638,16.638 0 1 0 2487.15,2203.36A 16.638,16.638 0 1 0 2453.88,2203.36Z " />
<path stroke="transparent" fill="#000000" transform="matrix(0.05 0 0 0.05 -100 -102)" d="M 2443.88,2277.56 A 16.638,16.638 0 1 0 2477.15,2277.56A 16.638,16.638 0 1 0 2443.88,2277.56Z " />
<path stroke="transparent" fill="#000000" transform="matrix(0.05 0 0 0.05 -100 -102)" d="M 2621.26,2099.37 A 16.6425,16.6425 0 1 0 2654.54,2099.37A 16.6425,16.6425 0 1 0 2621.26,2099.37Z " />
<path stroke="transparent" fill="#000000" transform="matrix(0.05 0 0 0.05 -100 -102)" d="M 2546.66,2105.97 A 16.6425,16.6425 0 1 0 2579.94,2105.97A 16.6425,16.6425 0 1 0 2546.66,2105.97Z " />
<path stroke="transparent" fill="#000000" transform="matrix(0.05 0 0 0.05 -100 -102)" d="M 2677.61,2273.55 A 16.6783,16.6783 0 1 0 2710.97,2273.55A 16.6783,16.6783 0 1 0 2677.61,2273.55Z " />
<path stroke="transparent" fill="#000000" transform="matrix(0.05 0 0 0.05 -100 -102)" d="M 2674.81,2198.55 A 16.6783,16.6783 0 1 0 2708.17,2198.55A 16.6783,16.6783 0 1 0 2674.81,2198.55Z " />
<path stroke="transparent" fill="#000000" transform="matrix(0.05 0 0 0.05 -100 -102)" d="M 2980.39,2380.14 A 16.6676,16.6676 0 1 0 3013.73,2380.14A 16.6676,16.6676 0 1 0 2980.39,2380.14Z " />
<path stroke="transparent" fill="#000000" transform="matrix(0.05 0 0 0.05 -100 -102)" d="M 2905.39,2379.34 A 16.6676,16.6676 0 1 0 2938.73,2379.34A 16.6676,16.6676 0 1 0 2905.39,2379.34Z " />
<path stroke="transparent" fill="#000000" transform="matrix(0.05 0 0 0.05 -100 -102)" d="M 3060.97,2539.53 A 16.6783,16.6783 0 1 0 3094.33,2539.53A 16.6783,16.6783 0 1 0 3060.97,2539.53Z " />
<path stroke="transparent" fill="#000000" transform="matrix(0.05 0 0 0.05 -100 -102)" d="M 3058.17,2464.53 A 16.6783,16.6783 0 1 0 3091.53,2464.53A 16.6783,16.6783 0 1 0 3058.17,2464.53Z " />
<path stroke="transparent" fill="#000000" transform="matrix(0.05 0 0 0.05 -100 -102)" d="M 2894.01,2622.92 A 16.6564,16.6564 0 1 0 2927.33,2622.92A 16.6564,16.6564 0 1 0 2894.01,2622.92Z " />
<path stroke="transparent" fill="#000000" transform="matrix(0.05 0 0 0.05 -100 -102)" d="M 2968.81,2627.72 A 16.6564,16.6564 0 1 0 3002.13,2627.72A 16.6564,16.6564 0 1 0 2968.81,2627.72Z " />
<path stroke="transparent" fill="#000000" transform="matrix(0.05 0 0 0.05 -100 -102)" d="M 3021.41,2807.1 A 16.6499,16.6499 0 1 0 3054.71,2807.1A 16.6499,16.6499 0 1 0 3021.41,2807.1Z " />
<path stroke="transparent" fill="#000000" transform="matrix(0.05 0 0 0.05 -100 -102)" d="M 2971.41,2751.3 A 16.6499,16.6499 0 1 0 3004.71,2751.3A 16.6499,16.6499 0 1 0 2971.41,2751.3Z " />
<path stroke="transparent" fill="#000000" transform="matrix(0.05 0 0 0.05 -100 -102)" d="M 2958.01,2965.28 A 16.652,16.652 0 1 0 2991.31,2965.28A 16.652,16.652 0 1 0 2958.01,2965.28Z " />
<path stroke="transparent" fill="#000000" transform="matrix(0.05 0 0 0.05 -100 -102)" d="M 3005.21,2907.08 A 16.652,16.652 0 1 0 3038.51,2907.08A 16.652,16.652 0 1 0 3005.21,2907.08Z " />
<path stroke="transparent" fill="#000000" transform="matrix(0.05 0 0 0.05 -100 -102)" d="M 2831.42,2966.48 A 16.6563,16.6563 0 1 0 2864.73,2966.48A 16.6563,16.6563 0 1 0 2831.42,2966.48Z " />
<path stroke="transparent" fill="#000000" transform="matrix(0.05 0 0 0.05 -100 -102)" d="M 2900.02,2996.68 A 16.6563,16.6563 0 1 0 2933.33,2996.68A 16.6563,16.6563 0 1 0 2900.02,2996.68Z " />
<path stroke="transparent" fill="#ffffff" transform="matrix(0.05 0 0 0.05 -100 -102)" d="M 2458.52,2641.51 C 2458.52,2703.45 2256.38,2756.95 2193.95,2756.95 C 2117.65,2756.95 2062.16,2740.6 2062.16,2641.51 C 2062.16,2542.43 2117.65,2526.08 2193.95,2526.08 C 2256.38,2526.08 2458.52,2579.58 2458.52,2641.51 " />
<path stroke="#ffffff" stroke-width="1" fill="transparent" transform="matrix(0.05 0 0 0.05 -100 -102)" d="M 2458.52,2641.51 C 2458.52,2703.45 2256.38,2756.95 2193.95,2756.95 C 2117.65,2756.95 2062.16,2740.6 2062.16,2641.51 C 2062.16,2542.43 2117.65,2526.08 2193.95,2526.08 C 2256.38,2526.08 2458.52,2579.58 2458.52,2641.51 " />
<path stroke="#000000" stroke-width="12" fill="transparent" transform="matrix(0.05 0 0 0.05 -100 -102)" d="M 2458.52,2641.51 C 2458.52,2703.45 2256.38,2756.95 2193.95,2756.95 C 2117.65,2756.95 2062.16,2740.6 2062.16,2641.51 C 2062.16,2542.43 2117.65,2526.08 2193.95,2526.08 C 2256.38,2526.08 2458.52,2579.58 2458.52,2641.51 " />
<path stroke="transparent" fill="#000000" transform="matrix(0.05 0 0 0.05 -100 -102)" d="M 2153.64,2612.12 A 16.7111,16.7111 0 1 0 2187.06,2612.12A 16.7111,16.7111 0 1 0 2153.64,2612.12Z " />
<path stroke="transparent" fill="#000000" transform="matrix(0.05 0 0 0.05 -100 -102)" d="M 2153.64,2687.32 A 16.7111,16.7111 0 1 0 2187.06,2687.32A 16.7111,16.7111 0 1 0 2153.64,2687.32Z " />
<path stroke="transparent" fill="#000000" transform="matrix(0.05 0 0 0.05 -100 -102)" d="M 2443.44,2983.68 A 16.6792,16.6792 0 1 0 2476.8,2983.68A 16.6792,16.6792 0 1 0 2443.44,2983.68Z " />
<path stroke="transparent" fill="#000000" transform="matrix(0.05 0 0 0.05 -100 -102)" d="M 2437.24,3058.48 A 16.6792,16.6792 0 1 0 2470.6,3058.48A 16.6792,16.6792 0 1 0 2437.24,3058.48Z " />
<path stroke="transparent" fill="#000000" transform="matrix(0.05 0 0 0.05 -100 -102)" d="M 2664.61,3068.67 A 16.6838,16.6838 0 1 0 2697.98,3068.67A 16.6838,16.6838 0 1 0 2664.61,3068.67Z " />
<path stroke="transparent" fill="#000000" transform="matrix(0.05 0 0 0.05 -100 -102)" d="M 2668.01,2993.67 A 16.6838,16.6838 0 1 0 2701.38,2993.67A 16.6838,16.6838 0 1 0 2668.01,2993.67Z " />
<path stroke="transparent" fill="#000000" transform="matrix(0.05 0 0 0.05 -100 -102)" d="M 2510.41,3160.46 A 16.698,16.698 0 1 0 2543.81,3160.46A 16.698,16.698 0 1 0 2510.41,3160.46Z " />
<path stroke="transparent" fill="#000000" transform="matrix(0.05 0 0 0.05 -100 -102)" d="M 2585.41,3165.06 A 16.698,16.698 0 1 0 2618.81,3165.06A 16.698,16.698 0 1 0 2585.41,3165.06Z " />
</svg>
